<?xml version="1.0" encoding="UTF-8"?>
<svg id="Layer_2" data-name="Layer 2" xmlns="http://www.w3.org/2000/svg" xmlns:xlink="http://www.w3.org/1999/xlink" viewBox="0 0 3214.47 1586.23">
  <defs>
    <style>
      .cls-1 {
        fill: url(#linear-gradient);
        opacity: .5;
      }
    </style>
    <linearGradient id="linear-gradient" x1="0" y1="793.11" x2="3214.47" y2="793.11" gradientUnits="userSpaceOnUse">
      <stop offset="0" stop-color="#f9ae1d"/>
      <stop offset="1" stop-color="#ec652f"/>
    </linearGradient>
  </defs>
  <g id="Layer_1-2" data-name="Layer 1">
    <path class="cls-1" d="M3213.44,600.01l-115.81-562.17c-5.72-27.78-34.41-44.35-61.34-35.41l-544.76,180.79c-38.81,12.88-44.18,65.57-8.77,86.01l189.99,109.69c-16.32,21.22-33.32,42.3-50.83,63.13-39.72,47.22-82.19,93.28-126.61,137.96-44.43,44.69-90.83,88.03-138.76,130l-17.97,15.77c-6.04,5.2-12.18,10.3-18.27,15.46l-18.31,15.45c-3.06,2.57-6.09,5.17-9.17,7.71l-9.31,7.56c-12.43,10.06-24.8,20.22-37.31,30.23l-37.91,29.6c-50.93,39.05-103.11,76.79-156.42,113.17l-40.32,26.81-10.1,6.71-5.05,3.35-5.11,3.25-20.46,13.01-20.47,13.02-10.25,6.51-10.37,6.31-41.51,25.26-5.19,3.16-5.25,3.06-10.51,6.11-21.03,12.23-21.04,12.24c-7.06,4.01-14.18,7.89-21.27,11.84l-42.63,23.64-43.13,22.79-10.79,5.71c-3.61,1.88-7.17,3.86-10.82,5.65l-21.82,10.96-21.83,10.97-10.92,5.49c-3.65,1.82-7.27,3.7-10.96,5.42l-44.16,21.05-11.05,5.27c-3.69,1.74-7.35,3.56-11.08,5.2l-22.32,10.07c-14.89,6.69-29.76,13.48-44.7,20.12l-45.13,19.22-22.59,9.62-22.78,9.13-45.62,18.29c-3.79,1.56-7.64,2.95-11.47,4.4l-11.51,4.32-23.03,8.65c-15.37,5.72-30.67,11.72-46.21,16.99l-46.49,16.32-11.63,4.09c-3.88,1.37-7.8,2.56-11.7,3.85l-23.44,7.6c-124.97,40.97-252.66,75.19-382.22,102.94-4.05.87-8.08,1.86-12.14,2.63l-12.18,2.42-24.38,4.85-24.39,4.86-12.2,2.43c-2.04.4-4.07.83-6.11,1.2l-6.12,1.09-49.02,8.7-24.54,4.34-24.61,3.86-49.28,7.73c-16.46,2.38-32.95,4.56-49.44,6.85l-24.75,3.4c-4.12.6-8.26,1.08-12.39,1.56l-12.4,1.47-49.65,5.9c-4.14.52-8.29.92-12.43,1.34l-12.44,1.26-24.89,2.52-24.91,2.52c-8.31.77-16.63,1.42-24.94,2.14-16.64,1.39-33.28,2.86-49.94,4.17l-50.02,3.45c-66.74,4.23-133.68,7.18-200.72,8.73,66.76,6.34,133.72,11.31,200.85,14.97l50.39,2.47c16.8.66,33.62,1.16,50.44,1.74,8.41.27,16.83.6,25.25.81l25.25.43,25.27.43,12.64.21c4.21.07,8.43.16,12.64.13h50.59s12.66-.02,12.66-.02c4.22,0,8.44.01,12.66-.1l25.31-.47c16.88-.34,33.77-.57,50.67-1l50.67-1.91,25.36-.96,25.33-1.44,50.72-2.93,6.35-.37c2.11-.13,4.22-.32,6.33-.48l12.66-1,25.34-2,25.36-2,12.69-1c4.23-.3,8.44-.81,12.66-1.21,135.14-12.62,270.14-32.13,404.16-59.15l25.16-5c4.19-.86,8.41-1.61,12.57-2.56l12.51-2.79,50.08-11.18c16.75-3.57,33.31-7.88,49.95-11.93l24.95-6.15,12.48-3.08c4.16-1.04,8.34-2.01,12.46-3.16l49.67-13.38,24.86-6.71,24.71-7.22,49.46-14.48c16.41-5.07,32.78-10.32,49.19-15.48,262.15-83.63,517.15-196.29,757.3-339.71l44.89-27.21c14.87-9.24,29.63-18.68,44.46-28.04l11.12-7.04c3.69-2.37,7.33-4.81,11-7.22l21.99-14.5c7.32-4.85,14.69-9.64,21.98-14.55l21.76-14.93c58.06-39.81,115.07-81.63,170.8-125.79,55.73-44.17,110.16-90.66,163.02-140.16,40.87-38.32,80.8-78.38,119.6-121.11l145.11,83.78c35.41,20.44,78.35-10.55,70.1-50.6Z"/>
  </g>
</svg>