<?xml version="1.0" encoding="UTF-8"?>
<svg id="Layer_1" xmlns="http://www.w3.org/2000/svg" xmlns:xlink="http://www.w3.org/1999/xlink" version="1.1" viewBox="0 0 3554.1 250">
  <!-- Generator: Adobe Illustrator 29.1.0, SVG Export Plug-In . SVG Version: 2.1.0 Build 142)  -->
  <defs>
    <style>
      .st0, .st1 {
        fill: none;
      }

      .st1 {
        stroke: #f0a535;
        stroke-miterlimit: 10;
        stroke-width: 14px;
      }

      .st2 {
        fill: #010101;
      }

      .st3 {
        fill: #ffdfa8;
      }

      .st4 {
        isolation: isolate;
      }

      .st5 {
        fill: #fec972;
      }

      .st6 {
        fill: #ffd48a;
      }

      .st7 {
        fill: #f5b94f;
      }

      .st8 {
        fill: #f9ac35;
      }

      .st9 {
        clip-path: url(#clippath);
      }
    </style>
    <clipPath id="clippath">
      <polygon class="st0" points="3435.7 0 2759 0 2173.5 0 1588 0 1002.5 0 475.7 0 475.7 250 1003.4 250 1588.8 250 2174.4 250 2759.8 250 3437.1 250 3554.1 125 3435.7 0"/>
    </clipPath>
  </defs>
  <g class="st4">
    <g class="st4">
      <path class="st8" d="M71.6,115.3v-51.7h32.2v8.9h-21.7v12.8h19.5v8.8h-19.5v21.1h-10.5Z"/>
      <path class="st8" d="M139.8,94.4v-30.8h10.5v30.7c0,7.1-1.8,12.5-5.3,16.2-3.5,3.6-8.4,5.5-14.6,5.5s-11-1.8-14.6-5.4c-3.5-3.6-5.3-9-5.3-16.1v-30.8h10.5v30.8c0,4.4.7,7.6,2.2,9.7,1.5,2,3.9,3.1,7.1,3.1s5.6-1,7.1-3.1c1.5-2,2.2-5.3,2.2-9.7Z"/>
      <path class="st8" d="M189.4,96.1v-32.4h10v51.7h-8.8l-20.1-32v32h-10v-51.7h8.7l20.2,32.4Z"/>
      <path class="st8" d="M228,115.3h-18.4v-51.7h18.4c13.2,0,19.8,7.5,19.8,22.5v6.7c0,15-6.6,22.5-19.8,22.5ZM220.1,106.5h7.9c3.3,0,5.7-1.1,7.2-3.3,1.4-2.2,2.2-5.6,2.2-10.4v-6.7c0-4.7-.7-8.1-2.2-10.3-1.4-2.2-3.8-3.3-7.2-3.3h-7.9v33.9Z"/>
      <path class="st8" d="M257.2,63.6h10.5v51.7h-10.5v-51.7Z"/>
      <path class="st8" d="M307.5,96.1v-32.4h10v51.7h-8.8l-20.1-32v32h-10v-51.7h8.7l20.2,32.4Z"/>
      <path class="st8" d="M346.2,97.3v-8.8h18.8v4.7c0,7.6-1.6,13.3-4.9,17.1-3.3,3.8-8,5.7-14.1,5.7s-11.1-1.9-14.6-5.8c-3.5-3.9-5.2-9.5-5.2-17v-6.6c0-7.9,1.7-13.8,5.2-17.7,3.4-3.9,8.3-5.9,14.6-5.9s9.6,1.4,12.9,4.3c3.2,2.9,5.3,7,6.1,12.4h-10c-1-5.2-4-7.9-8.9-7.9s-9.3,4.7-9.3,14v7.3c0,9.3,3.1,14,9.3,14s4.9-.8,6.3-2.4c1.4-1.6,2.3-4.1,2.6-7.5h-8.7Z"/>
    </g>
    <g class="st4">
      <path class="st8" d="M23.6,170.3h-8v18.2H5.1v-51.7h18.5c6.1,0,10.9,1.4,14.3,4.2s5.1,6.9,5.1,12.3-1.7,9.5-5.1,12.5c-3.4,3-8.2,4.5-14.2,4.5ZM15.6,145.8v15.7h6.5c3.6,0,6.2-.6,7.9-1.9s2.5-3.3,2.5-6.1c0-5.1-3.4-7.6-10.3-7.6h-6.5Z"/>
    </g>
    <g class="st4">
      <path class="st8" d="M54.6,178.7l-3.1,9.8h-11.2l18-51.7h10l18,51.7h-11.2l-3.1-9.8h-17.3ZM69.1,169.9l-5.8-18.2-5.8,18.2h11.7Z"/>
    </g>
    <g class="st4">
      <path class="st8" d="M84.6,145.8v-8.9h38.9v8.9h-14.2v42.8h-10.5v-42.8h-14.2Z"/>
      <path class="st8" d="M129.2,136.9h10.5v20.5h17.9v-20.5h10.5v51.7h-10.5v-22.3h-17.9v22.3h-10.5v-51.7Z"/>
    </g>
    <g class="st4">
      <path class="st8" d="M218.8,188.6l-10.9-35.6-10.9,35.6h-10l-11.8-51.7h11.2l6.9,34,9.8-34h9.4l10.1,34.2,6.8-34.2h11.3l-11.9,51.7h-10Z"/>
    </g>
    <g class="st4">
      <path class="st8" d="M256.3,178.7l-3.1,9.8h-11.2l18-51.7h10l18,51.7h-11.2l-3.1-9.8h-17.3ZM270.7,169.9l-5.8-18.2-5.8,18.2h11.7Z"/>
    </g>
    <g class="st4">
      <path class="st8" d="M301.1,167.4l-16.1-30.6h12.1l9.2,19.2,9.3-19.2h12.1l-16.1,30.6v21.1h-10.5v-21.1Z"/>
    </g>
    <g class="st4">
      <path class="st8" d="M367.6,144.7l-7.9,5.6c-1.2-1.8-2.6-3.2-4.1-4-1.5-.8-3.6-1.2-6.1-1.2s-4.1.5-5.4,1.5c-1.2,1-1.9,2.4-1.9,4.2s.8,3.4,2.3,4.5c1.5,1.1,4.2,2.1,7.9,3,5.5,1.4,9.5,3.3,12,5.7,2.4,2.3,3.7,5.7,3.7,10.2s-1.5,8.3-4.6,11c-3.1,2.7-7.5,4.1-13.2,4.1-9,0-15.6-2.8-19.9-8.5l8-5.5c1.5,1.8,3.1,3.2,4.8,4s3.9,1.2,6.4,1.2c5.3,0,8-1.9,8-5.8s-.8-3.3-2.3-4.5c-1.5-1.1-4.3-2.2-8.3-3.3-5.2-1.3-9.1-3.3-11.6-5.9-2.5-2.6-3.7-6-3.7-10.2s1.5-8,4.5-10.6c3-2.6,7.4-3.9,13.1-3.9,8.4,0,14.4,2.8,18.1,8.5Z"/>
    </g>
  </g>
  <polygon class="st3" points="1118.9 128 1003.4 250 475.7 250 475.7 0 1002.5 0 1118.9 128"/>
  <polygon class="st6" points="1704.4 128 1588.8 250 1003.4 250 1118.9 128 1002.5 0 1588 0 1704.4 128"/>
  <polygon class="st5" points="2289.9 128 2174.4 250 1588.8 250 1704.4 128 1588 0 2173.5 0 2289.9 128"/>
  <polygon class="st7" points="2875.4 128 2759.8 250 2174.4 250 2289.9 128 2173.5 0 2759 0 2875.4 128"/>
  <polygon class="st8" points="3554.1 125 3437.1 250 2759.8 250 2875.4 128 2759 0 3435.7 0 3554.1 125"/>
  <g class="st9">
    <g>
      <polyline class="st1" points="982.4 -22.6 1118.9 127.5 982.4 271.6"/>
      <polyline class="st1" points="1567.9 -22.6 1704.4 127.5 1567.9 271.6"/>
      <polyline class="st1" points="2153.4 -22.6 2289.9 127.5 2153.4 271.6"/>
      <polyline class="st1" points="2738.9 -22.6 2875.4 127.5 2738.9 271.6"/>
    </g>
  </g>
  <path class="st2" d="M2425.1,114.8c0,2.5-.9,4.5-2.8,5.9-1.8,1.4-4.2,2.1-7,2.1s-3.9-.2-5.5-.7c-1.6-.5-2.9-1.4-4.1-2.6l4-4c1.2,1.2,3.1,1.8,5.7,1.8s3.6-.8,3.6-2.3-.2-1.1-.5-1.5c-.4-.4-.9-.6-1.7-.7l-3.1-.4c-2.3-.3-3.9-1.1-5.1-2.2-1.2-1.2-1.8-2.9-1.8-5.1s.8-4.3,2.5-5.8c1.7-1.5,3.9-2.2,6.8-2.2s6.5,1,8.6,3l-3.9,3.9c-.6-.6-1.3-1-2-1.2-.7-.2-1.6-.3-2.8-.3s-1.8.2-2.3.7c-.5.5-.8,1-.8,1.6s.2.8.5,1.2c.4.4,1,.7,1.8.8l3.1.4c2.2.3,3.9,1,5,2.1,1.3,1.2,1.9,3.1,1.9,5.6h0ZM2447.7,114.6c-.5,2.7-1.6,4.8-3.3,6.2-1.7,1.4-3.8,2.1-6.3,2.1s-5.2-.9-7.1-2.8c-.6-.6-1.1-1.3-1.5-2-.4-.7-.6-1.6-.8-2.5-.1-1-.2-1.8-.3-2.5s0-1.7,0-3.1,0-2.4,0-3.1.1-1.5.3-2.5c.1-1,.4-1.8.8-2.5.4-.7.9-1.4,1.5-2,1.9-1.9,4.2-2.8,7.1-2.8s4.6.7,6.3,2.1c1.8,1.4,2.8,3.5,3.3,6.2h-6.4c-.5-1.8-1.6-2.7-3.2-2.7s-1.9.4-2.5,1.1c-.3.4-.6,1.1-.7,1.9-.2.8-.2,2.3-.2,4.4s0,3.6.2,4.4c.2.8.4,1.4.7,1.9.6.7,1.4,1.1,2.5,1.1,1.7,0,2.7-.9,3.2-2.7h6.4ZM2471.3,122.6h-6.5l-1.2-3.8h-7.8l-1.2,3.8h-6.5l9.2-25.4h4.8l9.2,25.4h0ZM2462,113.6l-2.1-6.8-2.3,6.8h4.4ZM2490.9,122.6h-16.9v-25.4h6.2v19.8h10.7v5.6ZM2511.8,122.6h-17.3v-25.4h17.3v5.6h-11v4.2h9.4v5.6h-9.4v4.5h11v5.6ZM2535.1,113.7c0,2.7-.9,4.9-2.8,6.6-1.9,1.7-4.1,2.5-6.9,2.5s-5-.8-6.8-2.5-2.8-3.9-2.8-6.6v-16.5h6.2v16.3c0,1.2.3,2.1.9,2.8.6.6,1.4,1,2.5,1s1.9-.3,2.5-1c.6-.7.9-1.6.9-2.8v-16.3h6.2v16.5h0ZM2556.2,99.6c1.6,1.6,2.3,3.5,2.3,5.8s-.8,4.2-2.3,5.8c-1.6,1.6-3.7,2.4-6.4,2.4h-3.8v9.1h-6.2v-25.4h10.1c2.7,0,4.8.8,6.4,2.4h0ZM2551.5,107.2c.5-.5.8-1.1.8-1.8s-.3-1.3-.8-1.8c-.5-.5-1.1-.8-2-.8h-3.5v5.1h3.5c.8,0,1.5-.2,2-.8ZM2588.9,111.5c0,2.1-.2,3.8-.6,5.1-.4,1.3-1.1,2.4-2,3.4-1.8,1.9-4.3,2.9-7.4,2.9s-5.2-.9-7-2.8c-.6-.6-1.1-1.3-1.5-2-.4-.7-.6-1.6-.8-2.5-.1-1-.2-1.8-.3-2.5,0-.7,0-1.7,0-3.1s0-2.4,0-3.1c0-.7.1-1.5.3-2.5.2-1,.4-1.8.8-2.5.4-.7.9-1.4,1.5-2,1.8-1.9,4.2-2.8,7-2.8s5.4.8,7,2.4c1.6,1.6,2.6,3.6,3,6h-6.3c-.3-1-.7-1.7-1.2-2.2-.6-.4-1.4-.7-2.4-.7s-1.9.4-2.5,1.1c-.3.4-.6,1.1-.7,1.9-.1.8-.2,2.2-.2,4.4s0,3.6.2,4.4.4,1.4.7,1.9c.6.7,1.4,1.1,2.5,1.1s2.2-.3,2.8-1c.6-.6.9-1.6.9-2.7v-.4h-3.8v-5.2h10v3.5h0ZM2613.3,122.6h-7.2l-4.5-9.5h-2.1v9.5h-6.2v-25.4h10.1c2.7,0,4.8.8,6.4,2.4,1.6,1.6,2.3,3.5,2.3,5.8s-.4,3-1.2,4.1c-.8,1.1-1.8,2-2.9,2.5l5.5,10.6h0ZM2604.9,107.2c.5-.5.8-1.1.8-1.8s-.3-1.3-.8-1.8c-.5-.5-1.1-.8-2-.8h-3.5v5.1h3.5c.8,0,1.5-.2,2-.8ZM2637.2,122.6h-6.5l-1.2-3.8h-7.8l-1.2,3.8h-6.5l9.2-25.4h4.8l9.2,25.4h0ZM2627.9,113.6l-2.1-6.8-2.3,6.8h4.4ZM2659.6,122.6h-5.4l-8.1-12.8v12.8h-6.2v-25.4h5.5l8.1,12.8v-12.8h6.2v25.4ZM2682,102.8h-6.2v19.8h-6.2v-19.8h-6.2v-5.6h18.7v5.6h0ZM2702.6,114.8c0,2.5-.9,4.5-2.8,5.9-1.9,1.4-4.2,2.1-7,2.1s-3.9-.2-5.5-.7c-1.6-.5-2.9-1.4-4.1-2.6l4-4c1.2,1.2,3.1,1.8,5.7,1.8s3.6-.8,3.6-2.3-.2-1.1-.5-1.5c-.4-.4-.9-.6-1.7-.7l-3.1-.4c-2.3-.3-4-1.1-5.1-2.2-1.2-1.2-1.8-2.9-1.8-5.1s.8-4.3,2.5-5.8c1.7-1.5,4-2.2,6.8-2.2s6.5,1,8.6,3l-3.9,3.9c-.6-.6-1.3-1-2-1.2-.7-.2-1.6-.3-2.8-.3s-1.8.2-2.3.7c-.5.5-.8,1-.8,1.6s.2.8.5,1.2c.4.4,1,.7,1.8.8l3.1.4c2.2.3,3.9,1,5,2.1,1.2,1.2,1.9,3.1,1.9,5.6h0ZM2719.7,94.6l-10.2,30.7h-5.4l10.2-30.7s5.4,0,5.4,0ZM2414.7,150.5c0,2.5-.9,4.5-2.8,5.9-1.9,1.4-4.2,2.1-7,2.1s-3.9-.2-5.5-.7c-1.6-.5-2.9-1.4-4.1-2.6l4-4c1.2,1.2,3.1,1.8,5.7,1.8s3.6-.8,3.6-2.3-.2-1.1-.5-1.5c-.4-.4-.9-.6-1.7-.7l-3.1-.4c-2.3-.3-4-1.1-5.1-2.2-1.2-1.2-1.8-2.9-1.8-5.1s.8-4.3,2.5-5.8c1.7-1.5,3.9-2.2,6.8-2.2s6.5,1,8.6,3l-3.9,3.9c-.6-.6-1.3-1-2-1.2-.7-.2-1.6-.3-2.8-.3s-1.8.2-2.3.7c-.5.5-.8,1-.8,1.6s.2.8.5,1.2c.4.4,1,.6,1.8.8l3.1.4c2.2.3,3.9,1,5,2.1,1.3,1.2,1.9,3.1,1.9,5.6h0ZM2436.1,158.3h-17.3v-25.4h17.3v5.6h-11.1v4.2h9.4v5.6h-9.4v4.5h11.1v5.6h0ZM2457.8,158.3h-17.3v-25.4h17.3v5.6h-11v4.2h9.4v5.6h-9.4v4.5h11v5.6h0ZM2481,140.2c.1,1.1.2,2.9.2,5.4s0,4.3-.2,5.4c-.1,1.1-.5,2.1-1,3-1.8,2.9-4.5,4.3-8.2,4.3h-9.4v-25.4h9.4c3.7,0,6.5,1.4,8.2,4.3.6.9.9,1.9,1,3h0ZM2474.8,149.7c.1-.7.2-2.1.2-4.1s0-3.4-.2-4.1c0-.7-.3-1.2-.5-1.6-.6-.9-1.6-1.4-3-1.4h-2.7v14.3h2.7c1.4,0,2.4-.5,3-1.4.3-.4.5-.9.5-1.6h0ZM2499.7,158.3h-6.2v-25.4h6.2v25.4ZM2524.7,158.3h-5.5l-8.1-12.8v12.8h-6.2v-25.4h5.4l8.1,12.8v-12.8h6.2v25.4ZM2548.7,132.9l-8.4,25.4h-4.6l-8.4-25.4h6.5l4.3,14.2,4.2-14.2h6.5ZM2568.5,158.3h-17.3v-25.4h17.3v5.6h-11.1v4.2h9.4v5.6h-9.4v4.5h11.1v5.6h0ZM2590,150.5c0,2.5-.9,4.5-2.8,5.9-1.9,1.4-4.2,2.1-7,2.1s-3.9-.2-5.5-.7c-1.6-.5-2.9-1.4-4.1-2.6l4-4c1.2,1.2,3.1,1.8,5.7,1.8s3.6-.8,3.6-2.3-.2-1.1-.5-1.5c-.4-.4-.9-.6-1.7-.7l-3.1-.4c-2.3-.3-4-1.1-5.1-2.2-1.1-1.2-1.8-2.9-1.8-5.1s.8-4.3,2.5-5.8c1.7-1.5,3.9-2.2,6.8-2.2s6.5,1,8.6,3l-3.9,3.9c-.6-.6-1.3-1-2-1.2-.7-.2-1.6-.3-2.8-.3s-1.8.2-2.3.7-.8,1-.8,1.6.2.8.5,1.2c.4.4,1,.6,1.8.8l3.1.4c2.2.3,3.9,1,5,2.1,1.2,1.2,1.9,3.1,1.9,5.6h0ZM2611.4,138.5h-6.2v19.9h-6.2v-19.9h-6.2v-5.6h18.7v5.6h0ZM2638.7,158.3h-6.2v-12.2l-3.6,6.3h-4l-3.6-6.3v12.2h-6.2v-25.4h6.1l5.7,11.2,5.7-11.2h6.1v25.4h0ZM2661.1,158.3h-17.3v-25.4h17.3v5.6h-11v4.2h9.4v5.6h-9.4v4.5h11v5.6h0ZM2685.4,158.3h-5.4l-8.1-12.8v12.8h-6.2v-25.4h5.5l8.1,12.8v-12.8h6.2v25.4ZM2707.8,138.5h-6.2v19.9h-6.2v-19.9h-6.2v-5.6h18.7v5.6h0ZM2728.3,150.5c0,2.5-.9,4.5-2.8,5.9-1.9,1.4-4.2,2.1-7,2.1s-3.9-.2-5.5-.7c-1.6-.5-2.9-1.4-4.1-2.6l4-4c1.2,1.2,3.1,1.8,5.7,1.8s3.6-.8,3.6-2.3-.2-1.1-.5-1.5c-.4-.4-.9-.6-1.7-.7l-3.1-.4c-2.3-.3-4-1.1-5.1-2.2-1.2-1.2-1.8-2.9-1.8-5.1s.8-4.3,2.5-5.8c1.7-1.5,4-2.2,6.8-2.2s6.5,1,8.6,3l-3.9,3.9c-.6-.6-1.3-1-2-1.2-.7-.2-1.6-.3-2.8-.3s-1.8.2-2.3.7c-.5.5-.8,1-.8,1.6s.2.8.5,1.2c.4.4,1,.6,1.8.8l3.1.4c2.2.3,3.9,1,5,2.1,1.2,1.2,1.9,3.1,1.9,5.6h0Z"/>
  <path class="st2" d="M3018.9,103.6h-6.2v-25.4h6.2v25.4ZM3043.9,103.6h-5.4l-8.1-12.8v12.8h-6.2v-25.4h5.4l8.1,12.8v-12.8h6.2v25.4ZM3067.9,78.2l-8.4,25.4h-4.6l-8.4-25.4h6.5l4.3,14.2,4.2-14.2h6.5,0ZM3087.7,103.6h-17.3v-25.4h17.3v5.6h-11v4.2h9.4v5.6h-9.4v4.5h11v5.6ZM3109.2,95.8c0,2.5-.9,4.5-2.8,5.9-1.8,1.4-4.2,2.1-7,2.1s-3.9-.2-5.5-.7c-1.6-.5-2.9-1.4-4.1-2.6l4-4c1.2,1.2,3.1,1.8,5.7,1.8s3.6-.8,3.6-2.3-.2-1.1-.5-1.5c-.4-.4-.9-.6-1.7-.7l-3.1-.4c-2.3-.3-3.9-1.1-5.1-2.2-1.2-1.2-1.7-2.9-1.7-5.1s.8-4.3,2.5-5.8c1.7-1.5,3.9-2.2,6.8-2.2s6.5,1,8.6,3l-3.9,3.9c-.6-.6-1.3-1-2-1.2-.7-.2-1.6-.3-2.8-.3s-1.8.2-2.3.7c-.5.5-.8,1-.8,1.6s.2.8.5,1.2c.4.4,1,.7,1.8.8l3.1.4c2.2.3,3.9,1,5,2.1,1.3,1.2,1.9,3.1,1.9,5.6h0ZM3130.6,83.7h-6.2v19.8h-6.2v-19.8h-6.2v-5.6h18.7v5.6h0ZM3152.3,87.8c0,.7,0,1.7,0,3.1s0,2.4,0,3.1c0,.7-.1,1.5-.3,2.5-.1,1-.4,1.8-.8,2.5-.4.7-.9,1.4-1.5,2-1.8,1.9-4.2,2.8-7.1,2.8s-5.2-.9-7.1-2.8c-.6-.6-1.1-1.3-1.5-2s-.6-1.6-.8-2.5c-.1-1-.2-1.8-.3-2.5,0-.7,0-1.7,0-3.1s0-2.4,0-3.1c0-.7.1-1.5.3-2.5.1-1,.4-1.8.8-2.5.4-.7.9-1.4,1.5-2,1.9-1.9,4.2-2.8,7.1-2.8s5.2.9,7.1,2.8c.6.6,1.1,1.3,1.5,2,.4.7.6,1.6.8,2.5.2,1,.2,1.8.3,2.5ZM3145.9,95.2c.1-.8.2-2.2.2-4.4s0-3.6-.2-4.4c-.1-.8-.4-1.4-.7-1.9-.6-.7-1.4-1.1-2.5-1.1s-1.9.4-2.5,1.1c-.3.4-.6,1.1-.7,1.9-.1.8-.2,2.2-.2,4.4s0,3.6.2,4.4c.1.8.4,1.4.7,1.8.6.8,1.4,1.1,2.5,1.1s1.9-.4,2.5-1.1c.3-.4.6-1,.7-1.8ZM3176.8,103.6h-7.2l-4.5-9.5h-2.1v9.5h-6.2v-25.4h10.1c2.7,0,4.8.8,6.4,2.4,1.6,1.6,2.3,3.5,2.3,5.8s-.4,3-1.2,4.1c-.8,1.1-1.8,2-2.9,2.5l5.5,10.6h0ZM3168.4,88.1c.5-.5.8-1.1.8-1.8s-.3-1.3-.8-1.8c-.5-.5-1.1-.8-2-.8h-3.5v5.1h3.5c.8,0,1.5-.2,2-.8ZM3206.4,95.5c-.5,2.7-1.6,4.8-3.3,6.2-1.7,1.4-3.8,2.1-6.3,2.1s-5.2-.9-7.1-2.8c-.6-.6-1.1-1.3-1.5-2-.4-.7-.6-1.6-.8-2.5-.1-1-.2-1.8-.3-2.5s0-1.7,0-3.1,0-2.4,0-3.1.1-1.5.3-2.5c.1-1,.4-1.8.8-2.5.4-.7.9-1.4,1.5-2,1.9-1.9,4.2-2.8,7.1-2.8s4.6.7,6.3,2.1c1.8,1.4,2.8,3.5,3.3,6.2h-6.4c-.5-1.8-1.6-2.7-3.2-2.7s-1.9.4-2.5,1.1c-.3.4-.6,1.1-.7,1.9-.2.8-.2,2.3-.2,4.4s0,3.6.2,4.4c.2.8.4,1.4.7,1.9.6.7,1.4,1.1,2.5,1.1,1.7,0,2.7-.9,3.2-2.7h6.4ZM3228.3,87.8c0,.7,0,1.7,0,3.1s0,2.4,0,3.1c0,.7-.1,1.5-.2,2.5s-.4,1.8-.8,2.5c-.4.7-.9,1.4-1.5,2-1.9,1.9-4.2,2.8-7.1,2.8s-5.2-.9-7.1-2.8c-.6-.6-1.1-1.3-1.5-2-.4-.7-.6-1.6-.8-2.5-.2-1-.2-1.8-.3-2.5,0-.7,0-1.7,0-3.1s0-2.4,0-3.1c0-.7.1-1.5.3-2.5.1-1,.4-1.8.8-2.5.4-.7.9-1.4,1.5-2,1.8-1.9,4.2-2.8,7.1-2.8s5.2.9,7.1,2.8c.6.6,1.1,1.3,1.5,2s.6,1.6.8,2.5c.1,1,.2,1.8.2,2.5ZM3221.9,95.2c.1-.8.2-2.2.2-4.4s0-3.6-.2-4.4c-.1-.8-.4-1.4-.7-1.9-.6-.7-1.4-1.1-2.5-1.1s-1.9.4-2.5,1.1c-.3.4-.6,1.1-.7,1.9-.1.8-.2,2.2-.2,4.4s0,3.6.2,4.4c.1.8.4,1.4.7,1.8.6.8,1.4,1.1,2.5,1.1s1.9-.4,2.5-1.1c.3-.4.6-1,.7-1.8ZM3252.5,103.6h-5.4l-8.1-12.8v12.8h-6.2v-25.4h5.5l8.1,12.8v-12.8h6.2v25.4ZM3277.5,103.6h-5.4l-8.1-12.8v12.8h-6.2v-25.4h5.5l8.1,12.8v-12.8h6.2v25.4ZM3299.9,103.6h-17.3v-25.4h17.3v5.6h-11v4.2h9.4v5.6h-9.4v4.5h11v5.6ZM3322.9,95.5c-.5,2.7-1.6,4.8-3.3,6.2-1.7,1.4-3.8,2.1-6.3,2.1s-5.2-.9-7.1-2.8c-.6-.6-1.1-1.3-1.5-2-.4-.7-.6-1.6-.8-2.5-.1-1-.2-1.8-.3-2.5,0-.7,0-1.7,0-3.1s0-2.4,0-3.1c0-.7.2-1.5.3-2.5.1-1,.4-1.8.8-2.5.4-.7.9-1.4,1.5-2,1.9-1.9,4.2-2.8,7.1-2.8s4.6.7,6.3,2.1c1.8,1.4,2.8,3.5,3.3,6.2h-6.4c-.5-1.8-1.6-2.7-3.2-2.7s-1.9.4-2.5,1.1c-.3.4-.6,1.1-.8,1.9-.1.8-.2,2.3-.2,4.4s0,3.6.2,4.4c.2.8.4,1.4.8,1.9.6.7,1.4,1.1,2.5,1.1,1.7,0,2.8-.9,3.2-2.7h6.4ZM3343,83.7h-6.2v19.8h-6.2v-19.8h-6.2v-5.6h18.7v5.6h0ZM3363.6,95.8c0,2.5-.9,4.5-2.8,5.9-1.9,1.4-4.2,2.1-7,2.1s-3.9-.2-5.5-.7c-1.6-.5-2.9-1.4-4.1-2.6l4-4c1.2,1.2,3.1,1.8,5.7,1.8s3.6-.8,3.6-2.3-.2-1.1-.5-1.5c-.4-.4-.9-.6-1.7-.7l-3.1-.4c-2.3-.3-4-1.1-5.1-2.2-1.2-1.2-1.8-2.9-1.8-5.1s.8-4.3,2.5-5.8c1.7-1.5,3.9-2.2,6.8-2.2s6.5,1,8.6,3l-3.9,3.9c-.6-.6-1.3-1-2-1.2-.7-.2-1.6-.3-2.8-.3s-1.8.2-2.3.7c-.5.5-.8,1-.8,1.6s.2.8.5,1.2c.4.4,1,.7,1.8.8l3.1.4c2.2.3,3.9,1,5,2.1,1.3,1.2,1.9,3.1,1.9,5.6h0ZM3196.3,139.3h-7.4l-1.6-1.9c-.6.4-1.1.8-1.5,1-.4.2-1,.5-1.8.7-.8.2-1.7.3-2.7.3-5.8,0-8.6-2.6-8.6-7.9s1.4-4.6,4-6.3c-1.6-1.8-2.4-3.5-2.4-5.2s.6-3.5,1.9-4.6c1.3-1.1,3.1-1.7,5.5-1.7s3.9.6,5.2,1.8c1.2,1.2,1.9,2.7,1.9,4.6s-.3,1.9-.8,2.6c-.5.7-1.3,1.4-2.5,2.3l-1,.8,3,3.5c.6-.7,1-2,1.2-3.7h5.5c-.3,3.4-1.2,6.1-3,8l5,5.8h0ZM3183.8,133.3l-4-4.5c-1,.7-1.5,1.6-1.5,2.8s.3,1.4.9,1.9c.6.5,1.3.8,2.1.8s1.8-.3,2.5-.9h0ZM3183.4,120.1c0-.4-.1-.8-.4-1.1-.3-.3-.6-.4-1.2-.4-1.1,0-1.6.5-1.6,1.5s.5,1.2,1.4,2.1l.9-.6c.7-.5,1-1,1-1.5h0ZM2988.4,152c1.6,1.6,2.3,3.5,2.3,5.8s-.8,4.2-2.3,5.8c-1.6,1.6-3.6,2.4-6.4,2.4h-3.8v9.1h-6.2v-25.4h10.1c2.7,0,4.8.8,6.4,2.4h0ZM2983.7,159.5c.5-.5.7-1.1.7-1.8s-.2-1.3-.7-1.8c-.5-.5-1.2-.8-2-.8h-3.6v5.1h3.6c.8,0,1.4-.2,2-.8ZM3012.8,159.1c0,.7,0,1.7,0,3.1s0,2.4,0,3.1c0,.7-.1,1.5-.2,2.5s-.4,1.8-.8,2.5c-.4.7-.9,1.4-1.5,2-1.9,1.9-4.2,2.8-7.1,2.8s-5.2-.9-7.1-2.8c-.6-.6-1.1-1.3-1.5-2-.4-.7-.6-1.6-.8-2.5-.2-1-.2-1.8-.3-2.5,0-.7,0-1.7,0-3.1s0-2.4,0-3.1c0-.7.1-1.5.3-2.5.1-1,.4-1.8.8-2.5.4-.7.9-1.4,1.5-2,1.8-1.9,4.2-2.8,7.1-2.8s5.2.9,7.1,2.8c.6.6,1.1,1.3,1.5,2s.6,1.6.8,2.5c.1,1,.2,1.8.2,2.5ZM3006.4,166.6c.1-.8.2-2.2.2-4.4s0-3.6-.2-4.4c-.1-.8-.4-1.4-.7-1.9-.6-.7-1.4-1.1-2.5-1.1s-1.9.4-2.5,1.1c-.3.4-.6,1.1-.7,1.9-.1.8-.2,2.2-.2,4.4s0,3.6.2,4.4c.1.8.4,1.4.7,1.8.6.8,1.4,1.1,2.5,1.1s1.9-.4,2.5-1.1c.3-.4.6-1,.7-1.8ZM3037.3,175h-7.3l-4.5-9.5h-2.1v9.5h-6.2v-25.4h10.1c2.7,0,4.8.8,6.4,2.4,1.6,1.6,2.3,3.5,2.3,5.8s-.4,3-1.2,4.1c-.8,1.1-1.8,2-2.9,2.5l5.5,10.6h0ZM3028.9,159.5c.5-.5.8-1.1.8-1.8s-.2-1.3-.8-1.8c-.5-.5-1.1-.8-2-.8h-3.5v5.1h3.5c.8,0,1.5-.2,2-.8ZM3057.2,155.1h-6.2v19.9h-6.2v-19.9h-6.2v-5.6h18.7v5.6h0ZM3078.1,155.1h-11v4.5h9.4v5.6h-9.4v9.8h-6.2v-25.4h17.3v5.6h0ZM3099.9,159.1c0,.7,0,1.7,0,3.1s0,2.4,0,3.1c0,.7-.1,1.5-.3,2.5s-.4,1.8-.8,2.5c-.4.7-.9,1.4-1.5,2-1.9,1.9-4.2,2.8-7.1,2.8s-5.2-.9-7.1-2.8c-.6-.6-1.1-1.3-1.5-2-.4-.7-.6-1.6-.8-2.5-.1-1-.2-1.8-.3-2.5s0-1.7,0-3.1,0-2.4,0-3.1.1-1.5.3-2.5c.1-1,.4-1.8.8-2.5.4-.7.9-1.4,1.5-2,1.9-1.9,4.2-2.8,7.1-2.8s5.2.9,7.1,2.8c.6.6,1.1,1.3,1.5,2,.4.7.6,1.6.8,2.5.1,1,.2,1.8.3,2.5ZM3093.5,166.6c.1-.8.2-2.2.2-4.4s0-3.6-.2-4.4c-.2-.8-.4-1.4-.7-1.9-.6-.7-1.4-1.1-2.5-1.1s-1.9.4-2.5,1.1c-.3.4-.6,1.1-.7,1.9-.2.8-.2,2.2-.2,4.4s0,3.6.2,4.4c.1.8.4,1.4.7,1.8.6.8,1.4,1.1,2.5,1.1s1.9-.4,2.5-1.1c.3-.4.6-1,.7-1.8ZM3121.1,175h-16.9v-25.4h6.2v19.9h10.7v5.6h0ZM3131.1,175h-6.2v-25.4h6.2v25.4ZM3154.6,159.1c0,.7,0,1.7,0,3.1s0,2.4,0,3.1c0,.7-.1,1.5-.3,2.5-.1,1-.4,1.8-.8,2.5-.4.7-.9,1.4-1.5,2-1.8,1.9-4.2,2.8-7.1,2.8s-5.2-.9-7.1-2.8c-.6-.6-1.1-1.3-1.5-2s-.6-1.6-.8-2.5c-.1-1-.2-1.8-.3-2.5,0-.7,0-1.7,0-3.1s0-2.4,0-3.1c0-.7.1-1.5.3-2.5.1-1,.4-1.8.8-2.5.4-.7.9-1.4,1.5-2,1.9-1.9,4.2-2.8,7.1-2.8s5.2.9,7.1,2.8c.6.6,1.1,1.3,1.5,2,.4.7.6,1.6.8,2.5.2,1,.2,1.8.3,2.5ZM3148.3,166.6c.1-.8.2-2.2.2-4.4s0-3.6-.2-4.4c-.1-.8-.4-1.4-.7-1.9-.6-.7-1.4-1.1-2.5-1.1s-1.9.4-2.5,1.1c-.3.4-.6,1.1-.7,1.9-.1.8-.2,2.2-.2,4.4s0,3.6.2,4.4c.1.8.4,1.4.7,1.8.6.8,1.4,1.1,2.5,1.1s1.9-.4,2.5-1.1c.3-.4.6-1,.7-1.8ZM3190.6,175h-6.2v-12.2l-3.6,6.3h-4l-3.6-6.3v12.2h-6.2v-25.4h6.1l5.7,11.2,5.7-11.2h6.1v25.4h0ZM3216.5,175h-6.5l-1.2-3.8h-7.8l-1.2,3.8h-6.5l9.2-25.4h4.8l9.2,25.4h0ZM3207.2,166l-2.1-6.8-2.3,6.8h4.4ZM3238.9,175h-5.4l-8.1-12.8v12.8h-6.2v-25.4h5.5l8.1,12.8v-12.8h6.2v25.4ZM3264.8,175h-6.5l-1.2-3.8h-7.8l-1.2,3.8h-6.5l9.2-25.4h4.8l9.3,25.4h0ZM3255.5,166l-2.1-6.8-2.3,6.8h4.4ZM3285.8,163.9c0,2.1-.2,3.8-.6,5.1-.4,1.3-1.1,2.4-2,3.4-1.8,1.9-4.3,2.9-7.4,2.9s-5.2-.9-7-2.8c-.6-.6-1.1-1.3-1.5-2-.4-.7-.6-1.6-.8-2.5-.1-1-.2-1.8-.3-2.5s0-1.7,0-3.1,0-2.4,0-3.1.1-1.5.3-2.5c.1-1,.4-1.8.8-2.5.4-.7.9-1.4,1.5-2,1.9-1.9,4.2-2.8,7-2.8s5.3.8,7,2.4c1.6,1.6,2.6,3.6,2.9,6h-6.3c-.3-1-.7-1.7-1.2-2.2-.5-.4-1.3-.7-2.4-.7s-1.9.4-2.5,1.1c-.3.4-.6,1.1-.7,1.9-.2.8-.2,2.2-.2,4.4s0,3.6.2,4.4c.1.8.4,1.4.7,1.9.5.7,1.4,1.1,2.5,1.1s2.2-.3,2.8-1c.6-.6,1-1.6,1-2.7v-.4h-3.8v-5.2h10v3.5h0ZM3307.5,175h-17.3v-25.4h17.3v5.6h-11v4.2h9.4v5.6h-9.4v4.5h11v5.6h0ZM3335.6,175h-6.2v-12.2l-3.6,6.3h-4l-3.6-6.3v12.2h-6.2v-25.4h6.1l5.7,11.2,5.7-11.2h6.1v25.4h0ZM3358,175h-17.3v-25.4h17.3v5.6h-11.1v4.2h9.4v5.6h-9.4v4.5h11.1v5.6h0ZM3382.3,175h-5.4l-8.1-12.8v12.8h-6.2v-25.4h5.4l8.1,12.8v-12.8h6.2v25.4ZM3404.7,155.1h-6.2v19.9h-6.2v-19.9h-6.2v-5.6h18.7v5.6h0Z"/>
  <path class="st2" d="M580.9,102.3h-6.2v-25.4h6.2v25.4ZM605.9,102.3h-5.5l-8.1-12.8v12.8h-6.2v-25.4h5.5l8.1,12.8v-12.8h6.2v25.4ZM629.8,84.2c.1,1.1.2,2.9.2,5.4s0,4.3-.2,5.4c-.1,1.1-.5,2.1-1,3-1.8,2.9-4.5,4.3-8.2,4.3h-9.4v-25.4h9.4c3.7,0,6.5,1.4,8.2,4.3.6.9.9,1.9,1,3h0ZM623.6,93.8c0-.7.1-2.1.1-4.1s0-3.4-.1-4.1c0-.7-.3-1.2-.5-1.6-.6-.9-1.6-1.4-3-1.4h-2.8v14.3h2.8c1.4,0,2.4-.5,3-1.4.3-.4.4-.9.5-1.6h0ZM653.2,93.4c0,2.7-.9,4.9-2.8,6.6-1.9,1.7-4.1,2.5-6.8,2.5s-5-.8-6.8-2.5c-1.8-1.7-2.8-3.9-2.8-6.6v-16.5h6.2v16.3c0,1.2.3,2.1.9,2.8.6.6,1.4,1,2.5,1s1.9-.3,2.5-1c.6-.7.9-1.6.9-2.8v-16.3h6.2v16.5h0ZM675,94.6c0,2.5-.9,4.5-2.8,5.9-1.9,1.4-4.2,2.1-7,2.1s-3.9-.2-5.5-.7c-1.5-.5-2.9-1.4-4.1-2.6l4-4c1.2,1.2,3.1,1.8,5.7,1.8s3.6-.8,3.6-2.3-.2-1.1-.5-1.5c-.4-.4-.9-.6-1.7-.7l-3.1-.4c-2.3-.3-4-1.1-5.1-2.2-1.2-1.2-1.8-2.9-1.8-5.1s.8-4.3,2.5-5.8c1.7-1.5,4-2.2,6.8-2.2s6.5,1,8.6,3l-3.9,3.9c-.6-.6-1.3-1-2-1.2-.7-.2-1.6-.3-2.8-.3s-1.8.2-2.3.7c-.5.5-.8,1-.8,1.6s.2.8.5,1.2c.4.4,1,.7,1.8.8l3.1.4c2.2.3,3.9,1,5,2.1,1.3,1.2,1.9,3.1,1.9,5.6h0ZM696.3,82.5h-6.2v19.8h-6.2v-19.8h-6.2v-5.6h18.7v5.6h0ZM720,102.3h-7.2l-4.5-9.5h-2.1v9.5h-6.2v-25.4h10.1c2.7,0,4.8.8,6.3,2.4,1.5,1.6,2.3,3.5,2.3,5.8s-.4,3-1.2,4.1c-.8,1.1-1.8,2-2.9,2.5l5.5,10.6h0ZM711.7,86.9c.5-.5.8-1.1.8-1.8s-.2-1.3-.8-1.8c-.5-.5-1.2-.8-2-.8h-3.5v5.1h3.5c.8,0,1.5-.2,2-.8ZM729.5,102.3h-6.2v-25.4h6.2v25.4ZM755.3,102.3h-6.5l-1.2-3.8h-7.8l-1.2,3.8h-6.5l9.2-25.4h4.8l9.2,25.4h0ZM746,93.3l-2.1-6.8-2.3,6.8h4.4,0ZM774.8,102.3h-16.9v-25.4h6.2v19.8h10.7v5.6ZM803.5,94.6c0,2.5-.9,4.5-2.8,5.9-1.9,1.4-4.2,2.1-7,2.1s-3.9-.2-5.5-.7c-1.5-.5-2.9-1.4-4.1-2.6l4-4c1.2,1.2,3.1,1.8,5.7,1.8s3.6-.8,3.6-2.3-.2-1.1-.5-1.5c-.4-.4-.9-.6-1.7-.7l-3.1-.4c-2.3-.3-4-1.1-5.1-2.2-1.2-1.2-1.8-2.9-1.8-5.1s.8-4.3,2.5-5.8c1.7-1.5,4-2.2,6.8-2.2s6.5,1,8.6,3l-3.9,3.9c-.6-.6-1.3-1-2-1.2-.7-.2-1.6-.3-2.8-.3s-1.8.2-2.3.7c-.5.5-.8,1-.8,1.6s.2.8.5,1.2c.4.4,1,.7,1.8.8l3.1.4c2.2.3,3.9,1,5,2.1,1.3,1.2,1.9,3.1,1.9,5.6h0ZM824,79.4c1.5,1.6,2.3,3.5,2.3,5.8s-.8,4.2-2.3,5.8c-1.5,1.6-3.7,2.4-6.3,2.4h-3.8v9.1h-6.2v-25.4h10.1c2.7,0,4.8.8,6.3,2.4ZM819.3,86.9c.5-.5.8-1.1.8-1.8s-.2-1.3-.8-1.8c-.5-.5-1.2-.8-2-.8h-3.5v5.1h3.5c.8,0,1.5-.2,2-.8ZM848.4,86.5c0,.7,0,1.7,0,3.1s0,2.4,0,3.1c0,.7-.1,1.5-.2,2.5s-.4,1.8-.8,2.5c-.4.7-.9,1.4-1.5,2-1.9,1.9-4.2,2.8-7.1,2.8s-5.2-.9-7.1-2.8c-.6-.6-1.1-1.3-1.5-2s-.6-1.6-.8-2.5c-.1-1-.2-1.8-.3-2.5,0-.7,0-1.7,0-3.1s0-2.4,0-3.1c0-.7.1-1.5.3-2.5.1-1,.4-1.8.8-2.5.4-.7.9-1.4,1.5-2,1.9-1.9,4.2-2.8,7.1-2.8s5.2.9,7.1,2.8c.6.6,1.1,1.3,1.5,2s.6,1.6.8,2.5c.1,1,.2,1.8.2,2.5ZM842,94c.1-.8.2-2.2.2-4.4s0-3.6-.2-4.4c-.1-.8-.4-1.4-.7-1.9-.6-.7-1.4-1.1-2.5-1.1s-1.9.4-2.5,1.1c-.3.4-.6,1.1-.7,1.9-.1.8-.2,2.2-.2,4.4s0,3.6.2,4.4c.1.8.4,1.4.7,1.8.6.8,1.4,1.1,2.5,1.1s1.9-.4,2.5-1.1c.3-.4.6-1,.7-1.8ZM872.6,102.3h-5.5l-8.1-12.8v12.8h-6.2v-25.4h5.5l8.1,12.8v-12.8h6.2v25.4ZM894.8,94.6c0,2.5-.9,4.5-2.8,5.9-1.9,1.4-4.2,2.1-7,2.1s-3.9-.2-5.5-.7c-1.5-.5-2.9-1.4-4.1-2.6l4-4c1.2,1.2,3.1,1.8,5.7,1.8s3.6-.8,3.6-2.3-.2-1.1-.5-1.5c-.4-.4-.9-.6-1.7-.7l-3.1-.4c-2.3-.3-4-1.1-5.1-2.2-1.2-1.2-1.8-2.9-1.8-5.1s.8-4.3,2.5-5.8c1.7-1.5,4-2.2,6.8-2.2s6.5,1,8.6,3l-3.9,3.9c-.6-.6-1.3-1-2-1.2-.7-.2-1.6-.3-2.8-.3s-1.8.2-2.3.7c-.5.5-.8,1-.8,1.6s.2.8.5,1.2c.4.4,1,.7,1.8.8l3.1.4c2.2.3,3.9,1,5,2.1,1.3,1.2,1.9,3.1,1.9,5.6h0ZM917.4,86.5c0,.7,0,1.7,0,3.1s0,2.4,0,3.1c0,.7-.1,1.5-.2,2.5s-.4,1.8-.8,2.5c-.4.7-.9,1.4-1.5,2-1.9,1.9-4.2,2.8-7.1,2.8s-5.2-.9-7.1-2.8c-.6-.6-1.1-1.3-1.5-2s-.6-1.6-.8-2.5c-.1-1-.2-1.8-.3-2.5,0-.7,0-1.7,0-3.1s0-2.4,0-3.1c0-.7.1-1.5.3-2.5.1-1,.4-1.8.8-2.5.4-.7.9-1.4,1.5-2,1.9-1.9,4.2-2.8,7.1-2.8s5.2.9,7.1,2.8c.6.6,1.1,1.3,1.5,2s.6,1.6.8,2.5c.1,1,.2,1.8.2,2.5ZM911,94c.1-.8.2-2.2.2-4.4s0-3.6-.2-4.4c-.1-.8-.4-1.4-.7-1.9-.6-.7-1.4-1.1-2.5-1.1s-1.9.4-2.5,1.1c-.3.4-.6,1.1-.7,1.9-.1.8-.2,2.2-.2,4.4s0,3.6.2,4.4c.1.8.4,1.4.7,1.8.6.8,1.4,1.1,2.5,1.1s1.9-.4,2.5-1.1c.3-.4.6-1,.7-1.8ZM941.9,102.3h-7.2l-4.5-9.5h-2.1v9.5h-6.2v-25.4h10.1c2.7,0,4.8.8,6.3,2.4,1.5,1.6,2.3,3.5,2.3,5.8s-.4,3-1.2,4.1c-.8,1.1-1.8,2-2.9,2.5l5.5,10.6h0ZM933.5,86.9c.5-.5.8-1.1.8-1.8s-.2-1.3-.8-1.8c-.5-.5-1.2-.8-2-.8h-3.5v5.1h3.5c.8,0,1.5-.2,2-.8ZM962.1,94.6c0,2.5-.9,4.5-2.8,5.9-1.9,1.4-4.2,2.1-7,2.1s-3.9-.2-5.5-.7c-1.5-.5-2.9-1.4-4.1-2.6l4-4c1.2,1.2,3.1,1.8,5.7,1.8s3.6-.8,3.6-2.3-.2-1.1-.5-1.5c-.4-.4-.9-.6-1.7-.7l-3.1-.4c-2.3-.3-4-1.1-5.1-2.2-1.2-1.2-1.8-2.9-1.8-5.1s.8-4.3,2.5-5.8c1.7-1.5,4-2.2,6.8-2.2s6.5,1,8.6,3l-3.9,3.9c-.6-.6-1.3-1-2-1.2-.7-.2-1.6-.3-2.8-.3s-1.8.2-2.3.7c-.5.5-.8,1-.8,1.6s.2.8.5,1.2c.4.4,1,.7,1.8.8l3.1.4c2.2.3,3.9,1,5,2.1,1.3,1.2,1.9,3.1,1.9,5.6h0ZM662.7,116.1h-12.4v7.8h10.6v3.5h-10.6v10.7h-3.9v-25.4h16.2v3.5h0ZM683.6,118.8c.3,1.4.4,3.6.4,6.6s-.1,5.2-.4,6.6c-.3,1.4-1,2.6-2.1,3.8-1.7,1.7-3.9,2.6-6.6,2.6s-4.8-.9-6.6-2.6c-1.2-1.2-1.9-2.4-2.2-3.8-.3-1.4-.4-3.6-.4-6.6s.1-5.2.4-6.6c.3-1.4,1-2.6,2.2-3.8,1.7-1.7,3.9-2.6,6.6-2.6s4.8.9,6.6,2.6c1.2,1.2,1.9,2.4,2.1,3.8ZM679.9,130.7c.2-1,.3-2.8.3-5.4s0-4.4-.3-5.4c-.2-1.1-.6-1.9-1.2-2.5-1-1.1-2.3-1.6-3.8-1.6s-2.8.5-3.8,1.6c-.6.7-1,1.5-1.2,2.6-.2,1-.3,2.8-.3,5.3s0,4.3.3,5.4.6,1.9,1.2,2.5c1,1.1,2.3,1.6,3.8,1.6s2.8-.5,3.8-1.6c.6-.6,1-1.5,1.2-2.5h0ZM708.2,138.1h-4.5l-5.3-10.7h-4.8v10.7h-3.9v-25.4h9.8c2.4,0,4.3.7,5.7,2.1,1.5,1.4,2.2,3.2,2.2,5.3s-.5,3.2-1.4,4.4c-.9,1.2-2.1,1.9-3.6,2.4l5.8,11.2h0ZM702.4,123c.8-.7,1.2-1.7,1.2-2.9s-.4-2.2-1.2-2.9c-.8-.7-1.8-1.1-3.1-1.1h-5.7v8h5.7c1.3,0,2.4-.3,3.1-1h0ZM740.4,138.1h-4.1l-1.8-5.1h-10l-1.8,5.1h-4.1l9.3-25.4h3.1l9.3,25.4ZM733.5,129.7l-3.9-11.3-4,11.3h7.8ZM760.9,130.4c-.4,2.5-1.5,4.4-3.1,5.8-1.6,1.4-3.6,2-6,2s-4.8-.9-6.6-2.6c-1.1-1.2-1.9-2.4-2.1-3.8-.3-1.4-.4-3.6-.4-6.6s.1-5.2.4-6.5c.3-1.4,1-2.7,2.1-3.8,1.7-1.7,3.9-2.6,6.6-2.6s4.4.7,6,2.1c1.6,1.4,2.7,3.3,3.1,5.8h-3.9c-.3-1.4-.9-2.4-1.8-3.2-.9-.8-2-1.2-3.4-1.2s-2.8.5-3.8,1.6c-.6.7-1.1,1.5-1.2,2.6-.2,1-.3,2.8-.3,5.3s0,4.3.3,5.4c.2,1,.6,1.9,1.2,2.5,1,1.1,2.2,1.6,3.8,1.6s2.5-.4,3.4-1.2c.9-.8,1.5-1.9,1.8-3.2h3.9ZM784.4,138.1h-4.1l-1.8-5.1h-10l-1.8,5.1h-4.1l9.3-25.4h3.1l9.3,25.4ZM777.5,129.7l-3.9-11.3-4,11.3h7.8ZM805.7,119.5c.2,1.4.4,3.3.4,5.8s-.1,4.4-.4,5.9c-.2,1.4-.7,2.6-1.6,3.6-1.7,2.1-4.1,3.2-7.2,3.2h-8.9v-25.4h8.9c3.1,0,5.5,1.1,7.2,3.2.8,1,1.4,2.2,1.6,3.7h0ZM802,130.3c.2-1.1.2-2.8.2-4.9s0-3.8-.2-4.9c-.2-1.1-.5-2-1.1-2.6-1-1.2-2.5-1.8-4.4-1.8h-4.6v18.6h4.6c1.9,0,3.4-.6,4.4-1.8.6-.6.9-1.5,1.1-2.6h0ZM828,138.1h-16.2v-25.4h16.2v3.5h-12.4v7.4h10.6v3.4h-10.6v7.6h12.4v3.5h0ZM855.7,138.1h-3.9v-17l-5.8,12.4h-2.9l-6-12.4v17h-3.9v-25.4h3.9l7.4,15.8,7.3-15.8h3.9v25.4h0ZM866.2,138.1h-3.9v-25.4h3.9v25.4ZM890.1,130.4c-.4,2.5-1.5,4.4-3.1,5.8-1.6,1.4-3.6,2-6,2s-4.8-.9-6.6-2.6c-1.1-1.2-1.9-2.4-2.1-3.8-.3-1.4-.4-3.6-.4-6.6s.1-5.2.4-6.5c.3-1.4,1-2.7,2.1-3.8,1.7-1.7,3.9-2.6,6.6-2.6s4.4.7,6,2.1c1.6,1.4,2.7,3.3,3.1,5.8h-3.9c-.3-1.4-.9-2.4-1.8-3.2-.9-.8-2-1.2-3.4-1.2s-2.8.5-3.8,1.6c-.6.7-1.1,1.5-1.2,2.6-.2,1-.3,2.8-.3,5.3s0,4.3.3,5.4c.2,1,.6,1.9,1.2,2.5,1,1.1,2.2,1.6,3.8,1.6s2.5-.4,3.4-1.2c.9-.8,1.5-1.9,1.8-3.2h3.9ZM553.3,173.8h-4.5l-5.3-10.7h-4.8v10.7h-3.9v-25.4h9.8c2.4,0,4.3.7,5.7,2.1,1.5,1.4,2.2,3.2,2.2,5.4s-.5,3.2-1.4,4.4c-.9,1.2-2.1,1.9-3.6,2.4l5.8,11.2h0ZM547.4,158.7c.8-.7,1.2-1.7,1.2-2.9s-.4-2.2-1.2-2.9c-.8-.7-1.8-1.1-3.1-1.1h-5.7v8h5.7c1.3,0,2.4-.4,3.1-1h0ZM574.4,173.8h-16.2v-25.4h16.2v3.5h-12.4v7.4h10.6v3.4h-10.6v7.6h12.4v3.5ZM595.5,166.5c0,2.3-.8,4.1-2.5,5.5s-3.9,2-6.6,2-3.6-.2-5.1-.8c-1.4-.5-2.7-1.4-3.9-2.6l2.5-2.5c1.6,1.6,3.8,2.5,6.5,2.5s3-.3,3.9-1c.9-.7,1.4-1.7,1.4-2.9s-.3-2.1-1-2.6c-.6-.6-1.5-.9-2.8-1.1l-3-.4c-2.1-.3-3.7-1-4.8-2-1.3-1.1-1.9-2.8-1.9-4.9s.8-4,2.3-5.4,3.6-2,6.2-2,3.2.2,4.4.7,2.4,1.2,3.5,2.2l-2.4,2.4c-1.4-1.3-3.2-2-5.6-2s-2.6.4-3.4,1.1c-.8.7-1.2,1.7-1.2,2.9s.3,1.8.9,2.4c.6.6,1.6.9,2.8,1.1l3,.5c2.1.3,3.7,1,4.7,1.9,1.4,1.3,2.1,3,2.1,5.2h0ZM616.9,173.8h-16.2v-25.4h16.2v3.5h-12.4v7.4h10.6v3.4h-10.6v7.6h12.4v3.5ZM640.9,173.8h-4.1l-1.8-5.1h-10l-1.8,5.1h-4.1l9.3-25.4h3.1l9.3,25.4ZM634,165.4l-3.9-11.3-4,11.3h7.8ZM663,173.8h-4.5l-5.3-10.7h-4.8v10.7h-3.9v-25.4h9.8c2.4,0,4.3.7,5.7,2.1,1.5,1.4,2.2,3.2,2.2,5.4s-.5,3.2-1.4,4.4c-.9,1.2-2.1,1.9-3.6,2.4l5.8,11.2h0ZM657.2,158.7c.8-.7,1.2-1.7,1.2-2.9s-.4-2.2-1.2-2.9c-.8-.7-1.8-1.1-3.1-1.1h-5.7v8h5.7c1.3,0,2.4-.4,3.1-1h0ZM685,166.1c-.4,2.5-1.5,4.4-3.1,5.8-1.6,1.4-3.6,2-6,2s-4.8-.9-6.6-2.6c-1.1-1.2-1.9-2.4-2.1-3.8-.3-1.4-.4-3.6-.4-6.6s.1-5.2.4-6.5c.3-1.4,1-2.6,2.1-3.8,1.7-1.7,3.9-2.6,6.6-2.6s4.4.7,6,2.1c1.6,1.4,2.7,3.3,3.1,5.8h-3.9c-.3-1.4-.9-2.4-1.8-3.2-.9-.8-2-1.2-3.4-1.2s-2.8.5-3.8,1.6c-.6.7-1.1,1.5-1.2,2.6-.2,1-.3,2.8-.3,5.4s0,4.3.3,5.4c.2,1,.6,1.9,1.2,2.5,1,1.1,2.2,1.6,3.8,1.6s2.5-.4,3.4-1.2c.9-.8,1.5-1.9,1.8-3.2h3.9ZM708.2,173.8h-3.9v-11.1h-10.3v11.1h-3.9v-25.4h3.9v10.9h10.3v-10.9h3.9v25.4ZM738.9,150.5c1.5,1.4,2.2,3.3,2.2,5.5s-.8,4.1-2.2,5.5c-1.5,1.4-3.4,2.1-5.9,2.1h-5.8v10h-3.9v-25.4h9.6c2.5,0,4.4.7,5.9,2.2h0ZM736.1,159.2c.8-.8,1.2-1.8,1.2-3.1s-.4-2.4-1.2-3.1c-.8-.8-1.9-1.1-3.3-1.1h-5.6v8.5h5.6c1.4,0,2.5-.4,3.3-1.1ZM764.4,173.8h-4.5l-5.3-10.7h-4.8v10.7h-3.9v-25.4h9.8c2.4,0,4.3.7,5.7,2.1,1.5,1.4,2.2,3.2,2.2,5.4s-.5,3.2-1.4,4.4c-.9,1.2-2.1,1.9-3.6,2.4l5.8,11.2h0ZM758.6,158.7c.8-.7,1.2-1.7,1.2-2.9s-.4-2.2-1.2-2.9c-.8-.7-1.8-1.1-3.1-1.1h-5.7v8h5.7c1.3,0,2.4-.4,3.1-1h0ZM785.8,154.5c.3,1.4.4,3.6.4,6.6s-.1,5.2-.4,6.6c-.3,1.4-1,2.6-2.1,3.8-1.7,1.7-3.9,2.6-6.6,2.6s-4.8-.9-6.6-2.6c-1.2-1.2-1.9-2.4-2.2-3.8-.3-1.4-.4-3.6-.4-6.6s.1-5.2.4-6.6c.3-1.4,1-2.6,2.2-3.8,1.7-1.7,3.9-2.6,6.6-2.6s4.8.9,6.6,2.6c1.2,1.2,1.9,2.4,2.1,3.8ZM782.1,166.4c.2-1,.3-2.8.3-5.4s0-4.4-.3-5.4c-.2-1.1-.6-1.9-1.2-2.5-1-1.1-2.3-1.6-3.8-1.6s-2.8.5-3.8,1.6c-.6.7-1,1.5-1.2,2.6-.2,1-.3,2.8-.3,5.4s0,4.3.3,5.4.6,1.9,1.2,2.5c1,1.1,2.3,1.6,3.8,1.6s2.8-.5,3.8-1.6c.6-.6,1-1.5,1.2-2.5h0ZM802.5,165.7c0,2.6-.8,4.6-2.4,6-1.6,1.5-3.6,2.2-6,2.2s-4.5-.8-6.2-2.5l2.6-2.5c.5.5,1,.9,1.5,1.2.5.2,1.2.4,2.1.4,1.5,0,2.6-.4,3.4-1.3.8-.9,1.2-2.1,1.2-3.8v-17.1h3.9v17.4h0ZM825,173.8h-16.2v-25.4h16.2v3.5h-12.4v7.4h10.6v3.4h-10.6v7.6h12.4v3.5ZM847.6,166.1c-.4,2.5-1.5,4.4-3.1,5.8-1.6,1.4-3.6,2-6,2s-4.8-.9-6.6-2.6c-1.1-1.2-1.9-2.4-2.1-3.8-.3-1.4-.4-3.6-.4-6.6s.1-5.2.4-6.5c.3-1.4,1-2.6,2.1-3.8,1.7-1.7,3.9-2.6,6.6-2.6s4.4.7,6,2.1c1.6,1.4,2.7,3.3,3.1,5.8h-3.9c-.3-1.4-.9-2.4-1.8-3.2-.9-.8-2-1.2-3.4-1.2s-2.8.5-3.8,1.6c-.6.7-1.1,1.5-1.2,2.6-.2,1-.3,2.8-.3,5.4s0,4.3.3,5.4c.2,1,.6,1.9,1.2,2.5,1,1.1,2.2,1.6,3.8,1.6s2.5-.4,3.4-1.2c.9-.8,1.5-1.9,1.8-3.2h3.9ZM867.6,151.8h-7v21.9h-3.9v-21.9h-7v-3.5h17.8v3.5h0ZM887.9,166.5c0,2.3-.8,4.1-2.5,5.5s-3.9,2-6.6,2-3.6-.2-5.1-.8c-1.4-.5-2.7-1.4-3.9-2.6l2.5-2.5c1.6,1.6,3.8,2.5,6.5,2.5s3-.3,3.9-1c.9-.7,1.4-1.7,1.4-2.9s-.3-2.1-1-2.6c-.6-.6-1.5-.9-2.8-1.1l-3-.4c-2.1-.3-3.7-1-4.8-2-1.3-1.1-1.9-2.8-1.9-4.9s.8-4,2.3-5.4,3.6-2,6.2-2,3.2.2,4.4.7,2.4,1.2,3.5,2.2l-2.4,2.4c-1.4-1.3-3.2-2-5.6-2s-2.6.4-3.4,1.1c-.8.7-1.2,1.7-1.2,2.9s.3,1.8.9,2.4c.6.6,1.6.9,2.8,1.1l3,.5c2.1.3,3.7,1,4.7,1.9,1.4,1.3,2.1,3,2.1,5.2h0ZM909.2,176.4h-7.8v-30.7h7.8v3.2h-4.1v24.2h4.1v3.2ZM932.7,173.8h-4.1l-1.8-5.1h-10l-1.8,5.1h-4.1l9.3-25.4h3.1l9.3,25.4ZM925.8,165.4l-3.9-11.3-4,11.3h7.8ZM954.8,173.8h-4.5l-5.3-10.7h-4.8v10.7h-3.9v-25.4h9.8c2.4,0,4.3.7,5.7,2.1,1.5,1.4,2.2,3.2,2.2,5.4s-.5,3.2-1.4,4.4c-.9,1.2-2.1,1.9-3.6,2.4l5.8,11.2h0ZM949,158.7c.8-.7,1.2-1.7,1.2-2.9s-.4-2.2-1.2-2.9c-.8-.7-1.8-1.1-3.1-1.1h-5.7v8h5.7c1.3,0,2.4-.4,3.1-1h0ZM975.2,150.5c1.5,1.4,2.2,3.3,2.2,5.5s-.8,4.1-2.2,5.5c-1.5,1.4-3.4,2.1-5.9,2.1h-5.8v10h-3.9v-25.4h9.6c2.5,0,4.4.7,5.9,2.2h0ZM972.4,159.2c.8-.8,1.2-1.8,1.2-3.1s-.4-2.4-1.2-3.1c-.8-.8-1.9-1.1-3.3-1.1h-5.6v8.5h5.6c1.4,0,2.5-.4,3.3-1.1ZM998,166.5c0,2.3-.8,4.1-2.5,5.5s-3.9,2-6.6,2-3.6-.2-5.1-.8c-1.4-.5-2.7-1.4-3.9-2.6l2.5-2.5c1.6,1.6,3.8,2.5,6.5,2.5s3-.3,3.9-1c.9-.7,1.4-1.7,1.4-2.9s-.3-2.1-1-2.6c-.6-.6-1.5-.9-2.8-1.1l-3-.4c-2.1-.3-3.7-1-4.8-2-1.3-1.1-1.9-2.8-1.9-4.9s.8-4,2.3-5.4,3.6-2,6.2-2,3.2.2,4.4.7,2.4,1.2,3.5,2.2l-2.4,2.4c-1.4-1.3-3.2-2-5.6-2s-2.6.4-3.4,1.1c-.8.7-1.2,1.7-1.2,2.9s.3,1.8.9,2.4c.6.6,1.6.9,2.8,1.1l3,.5c2.1.3,3.7,1,4.7,1.9,1.4,1.3,2.1,3,2.1,5.2h0ZM1009.2,176.4h-7.8v-3.2h4.2v-24.3h-4.2v-3.2h7.8v30.7h0Z"/>
  <path class="st2" d="M1300.3,80.6c1.6,1.6,2.3,3.5,2.3,5.8s-.8,4.2-2.3,5.8c-1.6,1.6-3.7,2.4-6.3,2.4h-3.8v9.1h-6.2v-25.4h10.1c2.7,0,4.8.8,6.3,2.4ZM1295.6,88.1c.5-.5.8-1.1.8-1.8s-.2-1.3-.8-1.8c-.5-.5-1.2-.8-2-.8h-3.5v5.1h3.5c.8,0,1.5-.2,2-.8ZM1326.3,103.6h-7.2l-4.5-9.5h-2.1v9.5h-6.2v-25.4h10.1c2.7,0,4.8.8,6.3,2.4,1.6,1.6,2.3,3.5,2.3,5.8s-.4,3-1.2,4.1c-.8,1.1-1.8,2-2.9,2.5l5.5,10.6h0ZM1318,88.1c.5-.5.8-1.1.8-1.8s-.2-1.3-.8-1.8c-.5-.5-1.2-.8-2-.8h-3.5v5.1h3.5c.8,0,1.5-.2,2-.8ZM1347.6,87.8c0,.7,0,1.7,0,3.1s0,2.4,0,3.1c0,.7-.1,1.5-.2,2.5s-.4,1.8-.8,2.5-.9,1.4-1.5,2c-1.9,1.9-4.2,2.8-7.1,2.8s-5.2-.9-7.1-2.8c-.6-.6-1.1-1.3-1.5-2s-.6-1.6-.8-2.5c-.1-1-.2-1.8-.3-2.5,0-.7,0-1.7,0-3.1s0-2.4,0-3.1c0-.7.1-1.5.3-2.5.1-1,.4-1.8.8-2.5.4-.7.9-1.4,1.5-2,1.9-1.9,4.2-2.8,7.1-2.8s5.2.9,7.1,2.8c.6.6,1.1,1.3,1.5,2s.6,1.6.8,2.5c.1,1,.2,1.8.2,2.5ZM1341.2,95.2c.1-.8.2-2.2.2-4.4s0-3.6-.2-4.4c-.1-.8-.4-1.4-.7-1.9-.6-.7-1.4-1.1-2.5-1.1s-1.9.4-2.5,1.1c-.3.4-.6,1.1-.7,1.9-.1.8-.2,2.2-.2,4.4s0,3.6.2,4.4c.1.8.4,1.4.7,1.8.6.8,1.4,1.1,2.5,1.1s1.9-.4,2.5-1.1c.3-.4.6-1,.7-1.8ZM1370.7,85.5c.1,1.1.2,2.9.2,5.4s0,4.3-.2,5.4c-.1,1.1-.5,2.1-1,3-1.8,2.9-4.5,4.3-8.2,4.3h-9.4v-25.4h9.4c3.7,0,6.5,1.4,8.2,4.3.6.9.9,1.9,1,3h0ZM1364.5,95c0-.7.1-2.1.1-4.1s0-3.4-.1-4.1c0-.7-.3-1.2-.5-1.6-.6-.9-1.6-1.4-3-1.4h-2.8v14.3h2.8c1.4,0,2.4-.5,3-1.4.3-.4.4-.9.5-1.6h0ZM1394.1,94.6c0,2.7-.9,4.9-2.8,6.6-1.9,1.7-4.1,2.5-6.8,2.5s-5-.8-6.8-2.5c-1.8-1.7-2.8-3.9-2.8-6.6v-16.5h6.2v16.3c0,1.2.3,2.1.9,2.8.6.6,1.4,1,2.5,1s1.9-.3,2.5-1c.6-.7.9-1.6.9-2.8v-16.3h6.2v16.5h0ZM1417.3,95.5c-.4,2.7-1.6,4.8-3.3,6.2-1.7,1.4-3.8,2.1-6.3,2.1s-5.2-.9-7.1-2.8c-.6-.6-1.1-1.3-1.5-2s-.6-1.6-.8-2.5c-.1-1-.2-1.8-.3-2.5,0-.7,0-1.7,0-3.1s0-2.4,0-3.1c0-.7.1-1.5.3-2.5.1-1,.4-1.8.8-2.5.4-.7.9-1.4,1.5-2,1.9-1.9,4.2-2.8,7.1-2.8s4.6.7,6.3,2.1c1.7,1.4,2.8,3.5,3.3,6.2h-6.3c-.5-1.8-1.6-2.7-3.2-2.7s-1.9.4-2.5,1.1c-.3.4-.6,1.1-.8,1.9-.1.8-.2,2.3-.2,4.4s0,3.6.2,4.4c.2.8.4,1.4.8,1.9.6.7,1.4,1.1,2.5,1.1,1.7,0,2.8-.9,3.2-2.7h6.3ZM1437.4,83.7h-6.2v19.8h-6.2v-19.8h-6.2v-5.6h18.7v5.6h0ZM1270.3,139.3h-6.2v-25.4h6.2v25.4ZM1295.3,139.3h-5.5l-8.1-12.8v12.8h-6.2v-25.4h5.5l8.1,12.8v-12.8h6.2v25.4ZM1320.3,139.3h-5.5l-8.1-12.8v12.8h-6.2v-25.4h5.5l8.1,12.8v-12.8h6.2v25.4ZM1343.9,123.4c0,.7,0,1.7,0,3.1s0,2.4,0,3.1c0,.7-.1,1.5-.2,2.5s-.4,1.8-.8,2.5c-.4.7-.9,1.4-1.5,2-1.9,1.9-4.2,2.8-7.1,2.8s-5.2-.9-7.1-2.8c-.6-.6-1.1-1.3-1.5-2s-.6-1.6-.8-2.5c-.1-1-.2-1.8-.3-2.5,0-.7,0-1.7,0-3.1s0-2.4,0-3.1c0-.7.1-1.5.3-2.5.1-1,.4-1.8.8-2.5.4-.7.9-1.4,1.5-2,1.9-1.9,4.2-2.8,7.1-2.8s5.2.9,7.1,2.8c.6.6,1.1,1.3,1.5,2s.6,1.6.8,2.5c.1,1,.2,1.8.2,2.5ZM1337.5,130.9c.1-.8.2-2.2.2-4.4s0-3.6-.2-4.4c-.1-.8-.4-1.4-.7-1.9-.6-.7-1.4-1.1-2.5-1.1s-1.9.4-2.5,1.1c-.3.4-.6,1.1-.7,1.9-.1.8-.2,2.2-.2,4.4s0,3.6.2,4.4c.1.8.4,1.4.7,1.8.6.8,1.4,1.1,2.5,1.1s1.9-.4,2.5-1.1c.3-.4.6-1,.7-1.8ZM1366.8,113.8l-8.4,25.4h-4.6l-8.4-25.4h6.5l4.3,14.2,4.2-14.2h6.5ZM1388.6,139.3h-6.5l-1.2-3.8h-7.8l-1.2,3.8h-6.5l9.2-25.4h4.8l9.2,25.4h0ZM1379.3,130.3l-2.1-6.8-2.3,6.8h4.4,0ZM1406,119.4h-6.2v19.9h-6.2v-19.8h-6.2v-5.6h18.7v5.6h0ZM1415.8,139.3h-6.2v-25.4h6.2v25.4ZM1439.4,123.4c0,.7,0,1.7,0,3.1s0,2.4,0,3.1c0,.7-.1,1.5-.2,2.5s-.4,1.8-.8,2.5c-.4.7-.9,1.4-1.5,2-1.9,1.9-4.2,2.8-7.1,2.8s-5.2-.9-7.1-2.8c-.6-.6-1.1-1.3-1.5-2s-.6-1.6-.8-2.5c-.1-1-.2-1.8-.3-2.5,0-.7,0-1.7,0-3.1s0-2.4,0-3.1c0-.7.1-1.5.3-2.5.1-1,.4-1.8.8-2.5.4-.7.9-1.4,1.5-2,1.9-1.9,4.2-2.8,7.1-2.8s5.2.9,7.1,2.8c.6.6,1.1,1.3,1.5,2s.6,1.6.8,2.5c.1,1,.2,1.8.2,2.5ZM1433.1,130.9c.1-.8.2-2.2.2-4.4s0-3.6-.2-4.4c-.1-.8-.4-1.4-.7-1.9-.6-.7-1.4-1.1-2.5-1.1s-1.9.4-2.5,1.1c-.3.4-.6,1.1-.7,1.9-.1.8-.2,2.2-.2,4.4s0,3.6.2,4.4.4,1.4.7,1.8c.6.8,1.4,1.1,2.5,1.1s1.9-.4,2.5-1.1c.3-.4.6-1,.7-1.8ZM1463.7,139.3h-5.5l-8.1-12.8v12.8h-6.2v-25.4h5.5l8.1,12.8v-12.8h6.2v25.4ZM1320.9,163.9c0,2.1-.2,3.8-.6,5.1-.4,1.3-1.1,2.4-2,3.4-1.8,1.9-4.3,2.9-7.4,2.9s-5.2-.9-7-2.8c-.6-.6-1.1-1.3-1.5-2s-.6-1.6-.8-2.5c-.1-1-.2-1.8-.3-2.5,0-.7,0-1.7,0-3.1s0-2.4,0-3.1c0-.7.1-1.5.3-2.5.1-1,.4-1.8.8-2.5.4-.7.9-1.4,1.5-2,1.9-1.9,4.2-2.8,7-2.8s5.3.8,7,2.4,2.6,3.6,3,6h-6.3c-.3-1-.7-1.7-1.2-2.2-.6-.4-1.3-.7-2.4-.7s-1.9.4-2.5,1.1c-.3.4-.6,1.1-.7,1.9-.1.8-.2,2.2-.2,4.4s0,3.6.2,4.4.4,1.4.7,1.9c.6.7,1.4,1.1,2.5,1.1s2.2-.3,2.8-1c.6-.6,1-1.6,1-2.7v-.4h-3.8v-5.2h10v3.5h0ZM1345.3,175h-7.2l-4.5-9.5h-2.1v9.5h-6.2v-25.4h10.1c2.7,0,4.8.8,6.3,2.4,1.6,1.6,2.3,3.5,2.3,5.8s-.4,3-1.2,4.1c-.8,1.1-1.8,2-2.9,2.5l5.5,10.6h0ZM1336.9,159.5c.5-.5.8-1.1.8-1.8s-.2-1.3-.8-1.8c-.5-.5-1.2-.8-2-.8h-3.5v5.1h3.5c.8,0,1.5-.2,2-.8ZM1369.2,175h-6.5l-1.2-3.8h-7.8l-1.2,3.8h-6.5l9.2-25.4h4.8l9.2,25.4h0ZM1359.9,166l-2.1-6.8-2.3,6.8h4.4,0ZM1391.7,175h-5.5l-8.1-12.8v12.8h-6.2v-25.4h5.5l8.1,12.8v-12.8h6.2v25.4ZM1414,155.1h-6.2v19.9h-6.2v-19.9h-6.2v-5.6h18.7v5.6h0ZM1434.6,167.2c0,2.5-.9,4.5-2.8,5.9-1.9,1.4-4.2,2.1-7,2.1s-3.9-.2-5.5-.7c-1.6-.5-2.9-1.4-4.1-2.6l4-4c1.2,1.2,3.1,1.8,5.7,1.8s3.6-.8,3.6-2.3-.2-1.1-.5-1.5c-.4-.4-.9-.6-1.7-.7l-3.1-.4c-2.3-.3-4-1.1-5.1-2.2-1.2-1.2-1.8-2.9-1.8-5.1s.8-4.3,2.5-5.8c1.7-1.5,3.9-2.2,6.8-2.2s6.5,1,8.6,3l-3.9,3.9c-.6-.6-1.3-1-2-1.2-.7-.2-1.6-.3-2.8-.3s-1.8.2-2.3.7-.8,1-.8,1.6.2.8.5,1.2c.4.4,1,.6,1.8.8l3.1.4c2.2.3,3.9,1,5,2.1,1.3,1.2,1.9,3.1,1.9,5.6h0Z"/>
  <path class="st2" d="M1872.7,113.3c-.5,2.7-1.6,4.8-3.3,6.2-1.7,1.4-3.8,2.1-6.3,2.1s-5.2-.9-7.1-2.8c-.6-.6-1.1-1.3-1.5-2s-.6-1.6-.8-2.5c-.1-1-.2-1.8-.3-2.5,0-.7,0-1.7,0-3.1s0-2.4,0-3.1c0-.7.1-1.5.3-2.5.2-1,.4-1.8.8-2.5.4-.7.9-1.4,1.5-2,1.8-1.9,4.2-2.8,7.1-2.8s4.6.7,6.3,2.1c1.7,1.4,2.8,3.5,3.3,6.2h-6.3c-.5-1.8-1.6-2.7-3.2-2.7s-1.9.4-2.5,1.1c-.3.4-.6,1.1-.8,1.9-.1.8-.2,2.3-.2,4.4s0,3.6.2,4.4c.2.8.4,1.4.8,1.9.5.7,1.4,1.1,2.5,1.1,1.7,0,2.8-.9,3.2-2.7h6.3ZM1894.7,105.6c0,.7,0,1.7,0,3.1s0,2.4,0,3.1c0,.7-.1,1.5-.3,2.5s-.4,1.8-.8,2.5c-.4.7-.9,1.4-1.5,2-1.9,1.9-4.2,2.8-7.1,2.8s-5.2-.9-7.1-2.8c-.6-.6-1.1-1.3-1.5-2-.4-.7-.7-1.6-.8-2.5-.1-1-.2-1.8-.3-2.5s0-1.7,0-3.1,0-2.4,0-3.1.1-1.5.3-2.5.4-1.8.8-2.5c.4-.7.9-1.4,1.5-2,1.9-1.9,4.2-2.8,7.1-2.8s5.2.9,7.1,2.8c.6.6,1.1,1.3,1.5,2,.4.7.6,1.6.8,2.5.1,1,.2,1.8.3,2.5ZM1888.3,113.1c.1-.8.2-2.2.2-4.4s0-3.6-.2-4.4c-.2-.8-.4-1.4-.7-1.9-.6-.7-1.4-1.1-2.5-1.1s-1.9.4-2.5,1.1c-.3.4-.6,1.1-.7,1.9-.2.8-.2,2.2-.2,4.4s0,3.6.2,4.4c.1.8.4,1.4.7,1.8.6.8,1.4,1.1,2.5,1.1s1.9-.4,2.5-1.1c.3-.4.6-1,.7-1.8ZM1922.8,121.4h-6.2v-12.2l-3.6,6.3h-4l-3.6-6.3v12.2h-6.2v-25.4h6.1l5.7,11.2,5.7-11.2h6.2v25.4h0ZM1951.6,121.4h-6.2v-12.2l-3.6,6.3h-4l-3.6-6.3v12.2h-6.2v-25.4h6.2l5.7,11.2,5.7-11.2h6.2v25.4h0ZM1974,121.4h-17.3v-25.4h17.3v5.6h-11v4.2h9.4v5.6h-9.4v4.5h11v5.6ZM1998.5,121.4h-7.3l-4.5-9.5h-2.1v9.5h-6.2v-25.4h10.1c2.7,0,4.8.8,6.3,2.4,1.6,1.6,2.3,3.5,2.3,5.8s-.4,3-1.2,4.1c-.8,1.1-1.8,2-2.9,2.5l5.5,10.6h0ZM1990.2,106c.5-.5.8-1.1.8-1.8s-.2-1.3-.8-1.8c-.5-.5-1.2-.8-2-.8h-3.5v5.1h3.5c.8,0,1.5-.2,2-.8ZM2019.8,113.3c-.4,2.7-1.6,4.8-3.3,6.2-1.7,1.4-3.8,2.1-6.3,2.1s-5.2-.9-7.1-2.8c-.6-.6-1.1-1.3-1.5-2s-.6-1.6-.8-2.5c-.2-1-.2-1.8-.3-2.5,0-.7,0-1.7,0-3.1s0-2.4,0-3.1c0-.7.1-1.5.3-2.5.1-1,.4-1.8.8-2.5.4-.7.9-1.4,1.5-2,1.8-1.9,4.2-2.8,7.1-2.8s4.6.7,6.3,2.1c1.7,1.4,2.8,3.5,3.3,6.2h-6.3c-.5-1.8-1.6-2.7-3.2-2.7s-1.9.4-2.5,1.1c-.3.4-.6,1.1-.8,1.9-.1.8-.2,2.3-.2,4.4s0,3.6.2,4.4c.2.8.4,1.4.8,1.9.6.7,1.4,1.1,2.5,1.1,1.7,0,2.8-.9,3.2-2.7h6.3ZM2029.4,121.4h-6.2v-25.4h6.2v25.4ZM2055.2,121.4h-6.5l-1.2-3.8h-7.8l-1.2,3.8h-6.5l9.2-25.4h4.8l9.2,25.4h0ZM2045.9,112.4l-2.1-6.8-2.3,6.8h4.4ZM2074.8,121.4h-16.9v-25.4h6.2v19.8h10.7v5.6ZM1866.1,134.1c1.6,1.6,2.3,3.5,2.3,5.8s-.8,4.2-2.3,5.8c-1.6,1.6-3.7,2.4-6.4,2.4h-3.8v9.1h-6.2v-25.4h10.1c2.7,0,4.8.8,6.4,2.4h0ZM1861.4,141.7c.5-.5.8-1.1.8-1.8s-.3-1.3-.8-1.8c-.5-.5-1.2-.8-2-.8h-3.5v5.1h3.5c.8,0,1.5-.2,2-.8ZM1878.3,157.1h-6.2v-25.4h6.2v25.4ZM1900.3,157.1h-16.9v-25.4h6.2v19.9h10.7v5.6h0ZM1921.6,141.3c0,.7,0,1.7,0,3.1s0,2.4,0,3.1c0,.7,0,1.5-.2,2.5-.2,1-.4,1.8-.8,2.5-.4.7-.9,1.4-1.5,2-1.8,1.9-4.2,2.8-7.1,2.8s-5.2-.9-7.1-2.8c-.6-.6-1.1-1.3-1.5-2s-.6-1.6-.8-2.5c-.1-1-.2-1.8-.3-2.5,0-.7,0-1.7,0-3.1s0-2.4,0-3.1c0-.7.1-1.5.3-2.5.2-1,.4-1.8.8-2.5.4-.7.9-1.4,1.5-2,1.8-1.9,4.2-2.8,7.1-2.8s5.2.9,7.1,2.8c.6.6,1.1,1.3,1.5,2s.6,1.6.8,2.5c.1,1,.2,1.8.2,2.5ZM1915.2,148.8c.1-.8.2-2.2.2-4.4s0-3.6-.2-4.4c-.1-.8-.4-1.4-.7-1.9-.6-.7-1.4-1.1-2.5-1.1s-1.9.4-2.5,1.1c-.3.4-.6,1.1-.7,1.9-.1.8-.2,2.2-.2,4.4s0,3.6.2,4.4c.1.8.4,1.4.7,1.8.6.8,1.4,1.1,2.5,1.1s1.9-.4,2.5-1.1c.3-.4.6-1,.7-1.8ZM1942.8,137.3h-6.2v19.9h-6.2v-19.9h-6.2v-5.6h18.7v5.6h0ZM1973.2,146c0,2.1-.2,3.8-.6,5.1-.4,1.3-1.1,2.4-2,3.4-1.8,1.9-4.3,2.9-7.4,2.9s-5.2-.9-7-2.8c-.6-.6-1.1-1.3-1.5-2-.4-.7-.7-1.6-.8-2.5-.1-1-.2-1.8-.3-2.5s0-1.7,0-3.1,0-2.4,0-3.1.1-1.5.3-2.5.4-1.8.8-2.5c.4-.7.9-1.4,1.5-2,1.9-1.9,4.2-2.8,7-2.8s5.3.8,7,2.4c1.6,1.6,2.6,3.6,2.9,6h-6.3c-.3-1-.7-1.7-1.2-2.2-.5-.4-1.3-.7-2.4-.7s-1.9.4-2.5,1.1c-.3.4-.6,1.1-.7,1.9-.2.8-.2,2.2-.2,4.4s0,3.6.2,4.4c.1.8.4,1.4.7,1.9.5.7,1.4,1.1,2.5,1.1s2.2-.3,2.8-1c.7-.6,1-1.6,1-2.7v-.4h-3.8v-5.2h10v3.5h0ZM1997.6,157.1h-7.2l-4.5-9.5h-2.1v9.5h-6.2v-25.4h10.1c2.7,0,4.8.8,6.4,2.4,1.6,1.6,2.3,3.5,2.3,5.8s-.4,3-1.2,4.1c-.8,1.1-1.8,2-2.9,2.5l5.5,10.6h0ZM1989.2,141.7c.5-.5.8-1.1.8-1.8s-.3-1.3-.8-1.8c-.5-.5-1.2-.8-2-.8h-3.5v5.1h3.5c.8,0,1.5-.2,2-.8ZM2021.5,157.1h-6.5l-1.2-3.8h-7.8l-1.2,3.8h-6.5l9.3-25.4h4.8l9.2,25.4h0ZM2012.2,148.1l-2.1-6.8-2.3,6.8h4.4ZM2043.9,157.1h-5.5l-8.1-12.8v12.8h-6.2v-25.4h5.4l8.2,12.8v-12.8h6.2v25.4ZM2066.3,137.3h-6.2v19.9h-6.2v-19.9h-6.2v-5.6h18.7v5.6h0ZM2086.9,149.3c0,2.5-.9,4.5-2.8,5.9-1.9,1.4-4.2,2.1-7,2.1s-3.9-.2-5.5-.7c-1.6-.5-2.9-1.4-4.1-2.6l4-4c1.2,1.2,3.1,1.8,5.7,1.8s3.6-.8,3.6-2.3-.2-1.1-.5-1.5c-.4-.4-.9-.6-1.7-.7l-3.1-.4c-2.3-.3-4-1.1-5.1-2.2-1.2-1.2-1.8-2.9-1.8-5.1s.8-4.3,2.5-5.8c1.7-1.5,3.9-2.2,6.8-2.2s6.5,1,8.6,3l-3.9,3.9c-.6-.6-1.3-1-2-1.2-.7-.2-1.6-.3-2.8-.3s-1.8.2-2.3.7c-.5.5-.8,1-.8,1.6s.2.8.5,1.2c.4.4,1,.6,1.8.8l3.1.4c2.2.3,3.9,1,5,2.1,1.3,1.2,1.9,3.1,1.9,5.6h0Z"/>
</svg>