<?xml version="1.0" encoding="UTF-8"?>
<svg id="Layer_2" data-name="Layer 2" xmlns="http://www.w3.org/2000/svg" viewBox="0 0 3078.38 250">
  <defs>
    <style>
      .cls-1 {
        fill: #fff;
      }

      .cls-2 {
        fill: #faad1c;
      }
    </style>
  </defs>
  <g id="Layer_1-2" data-name="Layer 1">
    <g>
      <polygon class="cls-2" points="2961.39 250 0 250 0 0 2960.05 0 3078.38 125 2961.39 250"/>
      <g>
        <path class="cls-1" d="M1341.09,52.31v12.42h-24.3v12.78h21.6v12.42h-21.6v24.48h-14.94v-62.1h39.24Z"/>
        <path class="cls-1" d="M1397.25,52.31v36.99c0,18.36-10.71,26.01-24.48,26.01s-24.48-7.65-24.48-25.92v-37.08h14.94v37.08c0,9.09,2.7,13.5,9.54,13.5s9.54-4.41,9.54-13.5v-37.08h14.94Z"/>
        <path class="cls-1" d="M1457.01,52.31v62.1h-12.06l-22.86-34.38v34.38h-14.04v-62.1h11.88l23.04,34.83v-34.83h14.04Z"/>
        <path class="cls-1" d="M1467.81,114.41v-62.1h23.13c14.13,0,24.48,6.93,24.48,26.55v9c0,19.44-10.35,26.55-24.48,26.55h-23.13ZM1500.48,87.86v-9c0-8.37-1.8-14.13-9.54-14.13h-8.19v37.26h8.19c7.74,0,9.54-5.76,9.54-14.13Z"/>
        <path class="cls-1" d="M1540.71,114.41h-14.94v-62.1h14.94v62.1Z"/>
        <path class="cls-1" d="M1601.37,52.31v62.1h-12.06l-22.86-34.38v34.38h-14.04v-62.1h11.88l23.04,34.83v-34.83h14.04Z"/>
        <path class="cls-1" d="M1658.15,81.56v6.66c0,18.54-8.73,27.09-22.86,27.09s-24.48-8.55-24.48-27.09v-8.46c0-19.98,10.35-28.35,24.48-28.35s21.06,7.92,22.86,20.07h-14.22c-.63-3.87-3.24-7.65-8.64-7.65-6.21,0-9.54,4.5-9.54,14.67v9.72c0,10.17,3.33,14.67,9.54,14.67s8.01-3.78,8.55-8.91h-8.28v-12.42h22.59Z"/>
        <path class="cls-1" d="M1276.83,181.44v20.97h-14.94v-62.1h23.4c14.31,0,23.49,6.3,23.49,20.16s-9.09,20.97-23.49,20.97h-8.46ZM1282.59,169.02c7.83,0,11.25-2.34,11.25-8.55,0-5.04-3.42-7.74-11.25-7.74h-5.76v16.29h5.76Z"/>
        <path class="cls-1" d="M1304.28,202.41l21.6-62.1h14.4l21.6,62.1h-15.93l-3.33-10.62h-19.17l-3.24,10.62h-15.93ZM1327.32,179.37h11.43l-5.67-18.36-5.76,18.36Z"/>
        <path class="cls-1" d="M1405.62,140.31v12.42h-16.2v49.68h-14.94v-49.68h-16.2v-12.42h47.34Z"/>
        <path class="cls-1" d="M1426.86,164.07h19.08v-23.76h14.94v62.1h-14.94v-25.92h-19.08v25.92h-14.94v-62.1h14.94v23.76Z"/>
        <path class="cls-1" d="M1494.63,202.41h-14.04l-13.86-62.1h16.2l6.75,37.08,10.98-37.08h13.05l11.25,37.35,6.75-37.35h16.2l-13.86,62.1h-14.13l-12.69-40.14-12.6,40.14Z"/>
        <path class="cls-1" d="M1546.56,202.41l21.6-62.1h14.4l21.6,62.1h-15.93l-3.33-10.62h-19.17l-3.24,10.62h-15.93ZM1569.6,179.37h11.43l-5.67-18.36-5.76,18.36Z"/>
        <path class="cls-1" d="M1615.59,140.31l9.63,21.33,9.63-21.33h17.19l-19.35,37.26v24.84h-14.94v-24.84l-19.35-37.26h17.19Z"/>
        <path class="cls-1" d="M1687.95,157.5c-2.43-4.14-5.49-5.67-11.07-5.67-4.95,0-7.11,2.25-7.11,5.4,0,3.69,3.24,5.76,11.07,8.01,13.5,3.87,18.63,8.91,18.63,19.53,0,11.25-7.56,18.54-21.69,18.54-11.34,0-18.99-2.79-24.84-10.17l11.16-7.83c3.06,3.87,6.84,5.58,12.42,5.58s8.01-2.43,8.01-5.4c0-3.6-2.52-5.4-11.7-8.37-12.6-4.05-18-9.81-18-19.8s6.75-17.91,21.87-17.91c9.9,0,17.91,3.33,22.32,10.17l-11.07,7.92Z"/>
      </g>
    </g>
  </g>
</svg>