<?xml version="1.0" encoding="UTF-8"?>
<svg id="Layer_2" xmlns="http://www.w3.org/2000/svg" xmlns:xlink="http://www.w3.org/1999/xlink" version="1.1" viewBox="0 0 3973.2 2087.1">
  <!-- Generator: Adobe Illustrator 29.1.0, SVG Export Plug-In . SVG Version: 2.1.0 Build 142)  -->
  <defs>
    <style>
      .st0 {
        fill: #fbb580;
      }

      .st1 {
        fill: #010101;
      }

      .st2 {
        fill: #f37d86;
      }

      .st3 {
        fill: #fec366;
      }

      .st4 {
        fill: #fff;
      }

      .st5 {
        fill: url(#linear-gradient1);
      }

      .st5, .st6 {
        fill-rule: evenodd;
      }

      .st6 {
        fill: url(#linear-gradient2);
      }

      .st7 {
        fill: url(#linear-gradient);
        isolation: isolate;
        opacity: .5;
      }

      .st8 {
        fill: none;
        stroke: #010101;
        stroke-width: .9px;
      }

      .st9 {
        fill: #f9b197;
      }
    </style>
    <linearGradient id="linear-gradient" x1="694.3" y1="1256.6" x2="3908.7" y2="1256.6" gradientTransform="translate(0 2090) scale(1 -1)" gradientUnits="userSpaceOnUse">
      <stop offset="0" stop-color="#f9ae1d"/>
      <stop offset="1" stop-color="#ec652f"/>
    </linearGradient>
    <linearGradient id="linear-gradient1" x1="59.8" y1="3833.7" x2="59.9" y2="4563.8" gradientTransform="translate(0 -3881.1)" gradientUnits="userSpaceOnUse">
      <stop offset="0" stop-color="#d9d8d7"/>
      <stop offset="1" stop-color="#0d0e0e" stop-opacity="0"/>
    </linearGradient>
    <linearGradient id="linear-gradient2" x1="3100" y1="5931.4" x2="2369.9" y2="5931.4" gradientTransform="translate(0 -3881.1)" gradientUnits="userSpaceOnUse">
      <stop offset="0" stop-color="#d9d8d7"/>
      <stop offset="1" stop-color="#0d0e0e" stop-opacity="0"/>
    </linearGradient>
  </defs>
  <g id="Layer_1-2">
    <path class="st7" d="M3907.7,640.3l-115.8-562.2c-5.7-27.8-34.4-44.3-61.3-35.4l-544.8,180.8c-38.8,12.9-44.2,65.6-8.8,86l190,109.7c-16.3,21.2-33.3,42.3-50.8,63.1-39.7,47.2-82.2,93.3-126.6,138-44.4,44.7-90.8,88-138.8,130l-18,15.8c-6,5.2-12.2,10.3-18.3,15.5l-18.3,15.5c-3.1,2.6-6.1,5.2-9.2,7.7l-9.3,7.6c-12.4,10.1-24.8,20.2-37.3,30.2l-37.9,29.6c-50.9,39-103.1,76.8-156.4,113.2l-40.3,26.8-10.1,6.7-5.1,3.3-5.1,3.2-20.5,13-20.5,13-10.2,6.5-10.4,6.3-41.5,25.3-5.2,3.2-5.2,3.1-10.5,6.1-21,12.2-21,12.2c-7.1,4-14.2,7.9-21.3,11.8l-42.6,23.6-43.1,22.8-10.8,5.7c-3.6,1.9-7.2,3.9-10.8,5.7l-21.8,11-21.8,11-10.9,5.5c-3.6,1.8-7.3,3.7-11,5.4l-44.2,21.1-11.1,5.3c-3.7,1.7-7.4,3.6-11.1,5.2l-22.3,10.1c-14.9,6.7-29.8,13.5-44.7,20.1l-45.1,19.2-22.6,9.6-22.8,9.1-45.6,18.3c-3.8,1.6-7.6,2.9-11.5,4.4l-11.5,4.3-23,8.7c-15.4,5.7-30.7,11.7-46.2,17l-46.5,16.3-11.6,4.1c-3.9,1.4-7.8,2.6-11.7,3.8l-23.4,7.6c-125,41-252.7,75.2-382.2,102.9-4.1.9-8.1,1.9-12.1,2.6l-12.2,2.4-24.4,4.8-24.4,4.9-12.2,2.4c-2,.4-4.1.8-6.1,1.2l-6.1,1.1-49,8.7-24.5,4.3-24.6,3.9-49.3,7.7c-16.5,2.4-32.9,4.6-49.4,6.8l-24.8,3.4c-4.1.6-8.3,1.1-12.4,1.6l-12.4,1.5-49.7,5.9c-4.1.5-8.3.9-12.4,1.3l-12.4,1.3-24.9,2.5-24.9,2.5c-8.3.8-16.6,1.4-24.9,2.1-16.6,1.4-33.3,2.9-49.9,4.2l-50,3.4c-66.7,4.2-133.7,7.2-200.7,8.7,66.8,6.3,133.7,11.3,200.8,15l50.4,2.5c16.8.7,33.6,1.2,50.4,1.7,8.4.3,16.8.6,25.2.8l25.3.4,25.3.4,12.6.2c4.2,0,8.4.2,12.6.1h63.2c4.2,0,8.4,0,12.7-.1l25.3-.5c16.9-.3,33.8-.6,50.7-1l50.7-1.9,25.4-1,25.3-1.4,50.7-2.9,6.3-.4c2.1-.1,4.2-.3,6.3-.5l12.7-1,25.3-2,25.4-2,12.7-1c4.2-.3,8.4-.8,12.7-1.2,135.1-12.6,270.1-32.1,404.2-59.2l25.2-5c4.2-.9,8.4-1.6,12.6-2.6l12.5-2.8,50.1-11.2c16.8-3.6,33.3-7.9,50-11.9l24.9-6.2,12.5-3.1c4.2-1,8.3-2,12.5-3.2l49.7-13.4,24.9-6.7,24.7-7.2,49.5-14.5c16.4-5.1,32.8-10.3,49.2-15.5,262.1-83.6,517.1-196.3,757.3-339.7l44.9-27.2c14.9-9.2,29.6-18.7,44.5-28l11.1-7c3.7-2.4,7.3-4.8,11-7.2l22-14.5c7.3-4.8,14.7-9.6,22-14.5l21.8-14.9c58.1-39.8,115.1-81.6,170.8-125.8,55.7-44.2,110.2-90.7,163-140.2,40.9-38.3,80.8-78.4,119.6-121.1l145.1,83.8c35.4,20.4,78.4-10.5,70.1-50.6h0Z"/>
    <g>
      <line class="st8" x1="1329.8" y1="1847.2" x2="1329.8"/>
      <line class="st8" x1="2253.4" y1="1847.2" x2="2253.4"/>
      <line class="st8" x1="3174.8" y1="1847.2" x2="3174.8"/>
    </g>
    <g>
      <polygon class="st3" points="3856.2 450 894.8 450 894.8 200 3854.8 200 3973.2 325 3856.2 450"/>
      <g>
        <path class="st4" d="M2235.9,252.3v12.4h-24.3v12.8h21.6v12.4h-21.6v24.5h-14.9v-62.1h39.2Z"/>
        <path class="st4" d="M2292,252.3v37c0,18.4-10.7,26-24.5,26s-24.5-7.6-24.5-25.9v-37.1h14.9v37.1c0,9.1,2.7,13.5,9.5,13.5s9.5-4.4,9.5-13.5v-37.1h14.9Z"/>
        <path class="st4" d="M2351.8,252.3v62.1h-12.1l-22.9-34.4v34.4h-14v-62.1h11.9l23,34.8v-34.8h14Z"/>
        <path class="st4" d="M2362.6,314.4v-62.1h23.1c14.1,0,24.5,6.9,24.5,26.5v9c0,19.4-10.4,26.5-24.5,26.5h-23.1ZM2395.3,287.9v-9c0-8.4-1.8-14.1-9.5-14.1h-8.2v37.3h8.2c7.7,0,9.5-5.8,9.5-14.1Z"/>
        <path class="st4" d="M2435.5,314.4h-14.9v-62.1h14.9v62.1Z"/>
        <path class="st4" d="M2496.1,252.3v62.1h-12.1l-22.9-34.4v34.4h-14v-62.1h11.9l23,34.8v-34.8h14Z"/>
        <path class="st4" d="M2552.9,281.6v6.7c0,18.5-8.7,27.1-22.9,27.1s-24.5-8.5-24.5-27.1v-8.5c0-20,10.4-28.4,24.5-28.4s21.1,7.9,22.9,20.1h-14.2c-.6-3.9-3.2-7.6-8.6-7.6s-9.5,4.5-9.5,14.7v9.7c0,10.2,3.3,14.7,9.5,14.7s8-3.8,8.6-8.9h-8.3v-12.4h22.6,0Z"/>
        <path class="st4" d="M2171.6,381.5v21h-14.9v-62.1h23.4c14.3,0,23.5,6.3,23.5,20.2s-9.1,21-23.5,21h-8.5ZM2177.4,369c7.8,0,11.2-2.3,11.2-8.5s-3.4-7.7-11.2-7.7h-5.8v16.3h5.8Z"/>
        <path class="st4" d="M2199.1,402.4l21.6-62.1h14.4l21.6,62.1h-15.9l-3.3-10.6h-19.2l-3.2,10.6h-15.9ZM2222.1,379.4h11.4l-5.7-18.4-5.8,18.4h0Z"/>
        <path class="st4" d="M2300.4,340.3v12.4h-16.2v49.7h-14.9v-49.7h-16.2v-12.4h47.3,0Z"/>
        <path class="st4" d="M2321.6,364.1h19.1v-23.8h14.9v62.1h-14.9v-25.9h-19.1v25.9h-14.9v-62.1h14.9v23.8Z"/>
        <path class="st4" d="M2389.4,402.4h-14l-13.9-62.1h16.2l6.8,37.1,11-37.1h13.1l11.2,37.4,6.8-37.4h16.2l-13.9,62.1h-14.1l-12.7-40.1-12.6,40.1h0Z"/>
        <path class="st4" d="M2441.3,402.4l21.6-62.1h14.4l21.6,62.1h-15.9l-3.3-10.6h-19.2l-3.2,10.6h-15.9ZM2464.4,379.4h11.4l-5.7-18.4-5.8,18.4h0Z"/>
        <path class="st4" d="M2510.4,340.3l9.6,21.3,9.6-21.3h17.2l-19.4,37.3v24.8h-14.9v-24.8l-19.4-37.3h17.2Z"/>
        <path class="st4" d="M2582.7,357.5c-2.4-4.1-5.5-5.7-11.1-5.7s-7.1,2.2-7.1,5.4,3.2,5.8,11.1,8c13.5,3.9,18.6,8.9,18.6,19.5s-7.6,18.5-21.7,18.5-19-2.8-24.8-10.2l11.2-7.8c3.1,3.9,6.8,5.6,12.4,5.6s8-2.4,8-5.4-2.5-5.4-11.7-8.4c-12.6-4-18-9.8-18-19.8s6.8-17.9,21.9-17.9,17.9,3.3,22.3,10.2l-11.1,7.9h0Z"/>
      </g>
    </g>
    <g>
      <path d="M703.7,55.9v12.4h-16.2v49.7h-14.9v-49.7h-16.2v-12.4s47.3,0,47.3,0Z"/>
      <path d="M749.3,55.9v12.4h-24.3v11.3h21.6v12.4h-21.6v13.5h24.3v12.4h-39.2v-62.1s39.2,0,39.2,0Z"/>
      <path d="M788.7,75.1c-.6-4-3.3-7.7-8.6-7.7s-9.5,4.5-9.5,14.7v9.7c0,9.7,3.2,14.7,9.5,14.7s7.7-2.7,8.6-7.7h14.2c-2.2,13.9-9.7,20.1-22.9,20.1s-24.5-8.6-24.5-27.1v-9.7c0-18.7,10.3-27.1,24.5-27.1s20.8,6.6,22.9,20.1h-14.2Z"/>
      <path d="M826,79.7h19.1v-23.8h14.9v62.1h-14.9v-25.9h-19.1v25.9h-14.9v-62.1h14.9v23.8Z"/>
    </g>
    <g>
      <path d="M1591.7,97.1v21h-14.9v-62.1h23.4c14.3,0,23.5,6.3,23.5,20.2s-9.1,21-23.5,21h-8.5ZM1597.4,84.7c7.8,0,11.2-2.3,11.2-8.6s-3.4-7.7-11.2-7.7h-5.8v16.3h5.8Z"/>
      <path d="M1663,118l-10.3-23.5h-7.7v23.5h-14.9v-62.1h23.4c14.3,0,23.5,6.6,23.5,19.5s-3.6,13.6-9.9,16.5l12.4,26.1h-16.4ZM1651.5,82.1c6,0,10.3-.8,10.3-6.7s-4.3-7.1-10.3-7.1h-6.7v13.8s6.7,0,6.7,0Z"/>
      <path d="M1708.9,118.9c-14.1,0-24.5-8.6-24.5-27.1v-9.7c0-18.7,10.3-27.1,24.5-27.1s24.5,8.4,24.5,27.1v9.7c0,18.5-10.3,27.1-24.5,27.1ZM1699.3,91.8c0,10.2,3.3,14.7,9.5,14.7s9.5-4.5,9.5-14.7v-9.7c0-10.2-3.3-14.7-9.5-14.7s-9.5,4.5-9.5,14.7v9.7Z"/>
      <path d="M1742.8,118v-62.1h23.1c14.1,0,24.5,6.9,24.5,26.6v9c0,19.4-10.3,26.6-24.5,26.6,0,0-23.1,0-23.1,0ZM1775.5,91.5v-9c0-8.4-1.8-14.1-9.5-14.1h-8.2v37.3h8.2c7.7,0,9.5-5.8,9.5-14.1Z"/>
      <path d="M1848.8,55.9v37c0,18.4-10.7,26-24.5,26s-24.5-7.7-24.5-25.9v-37.1h14.9v37.1c0,9.1,2.7,13.5,9.5,13.5s9.5-4.4,9.5-13.5v-37.1s14.9,0,14.9,0Z"/>
      <path d="M1891.4,75.1c-.6-4-3.3-7.7-8.6-7.7s-9.5,4.5-9.5,14.7v9.7c0,9.7,3.2,14.7,9.5,14.7s7.7-2.7,8.6-7.7h14.2c-2.2,13.9-9.7,20.1-22.9,20.1s-24.5-8.6-24.5-27.1v-9.7c0-18.7,10.3-27.1,24.5-27.1s20.8,6.6,22.9,20.1h-14.2Z"/>
      <path d="M1954.7,55.9v12.4h-16.2v49.7h-14.9v-49.7h-16.2v-12.4h47.3,0Z"/>
    </g>
    <g>
      <path d="M2633.4,87.4l16.7-31.5h13.9v62.1h-14v-35.1l-12.8,24.8h-8l-12.5-24.6v34.8h-14v-62.1h13.9l16.8,31.5Z"/>
      <path d="M2668.6,118l21.6-62.1h14.4l21.6,62.1h-15.9l-3.3-10.6h-19.2l-3.2,10.6h-15.9ZM2691.6,95h11.4l-5.7-18.4-5.8,18.4Z"/>
      <path d="M2763.7,118l-10.4-23.5h-7.7v23.5h-14.9v-62.1h23.4c14.3,0,23.5,6.6,23.5,19.5s-3.6,13.6-9.9,16.5l12.4,26.1h-16.4ZM2752.3,82.1c6,0,10.4-.8,10.4-6.7s-4.3-7.1-10.4-7.1h-6.7v13.8s6.7,0,6.7,0Z"/>
      <path d="M2820.6,118l-13.4-23.8-5.4,7.4v16.5h-14.9v-62.1h14.9v23l16-23h17.4l-18.4,25.1,21.6,37h-17.8Z"/>
      <path d="M2884.4,55.9v12.4h-24.3v11.3h21.6v12.4h-21.6v13.5h24.3v12.4h-39.2v-62.1s39.2,0,39.2,0Z"/>
      <path d="M2934.9,55.9v12.4h-16.2v49.7h-14.9v-49.7h-16.2v-12.4h47.3,0Z"/>
    </g>
    <g>
      <path d="M3424.3,85.2v6.7c0,18.5-8.7,27.1-22.9,27.1s-24.5-8.6-24.5-27.1v-8.5c0-20,10.4-28.3,24.5-28.3s21.1,7.9,22.9,20.1h-14.2c-.6-3.9-3.2-7.7-8.6-7.7s-9.5,4.5-9.5,14.7v9.7c0,10.2,3.3,14.7,9.5,14.7s8-3.8,8.6-8.9h-8.3v-12.4h22.6,0Z"/>
      <path d="M3466.8,118l-10.4-23.5h-7.7v23.5h-14.9v-62.1h23.4c14.3,0,23.5,6.6,23.5,19.5s-3.6,13.6-9.9,16.5l12.4,26.1h-16.4ZM3455.4,82.1c6,0,10.4-.8,10.4-6.7s-4.3-7.1-10.4-7.1h-6.7v13.8s6.7,0,6.7,0Z"/>
      <path d="M3512.7,118.9c-14.1,0-24.5-8.6-24.5-27.1v-9.7c0-18.7,10.4-27.1,24.5-27.1s24.5,8.4,24.5,27.1v9.7c0,18.5-10.4,27.1-24.5,27.1ZM3503.2,91.8c0,10.2,3.3,14.7,9.5,14.7s9.5-4.5,9.5-14.7v-9.7c0-10.2-3.3-14.7-9.5-14.7s-9.5,4.5-9.5,14.7v9.7Z"/>
      <path d="M3569.6,118h-14l-13.9-62.1h16.2l6.8,37.1,11-37.1h13.1l11.2,37.3,6.8-37.3h16.2l-13.9,62.1h-14.1l-12.7-40.1-12.6,40.1h0Z"/>
      <path d="M3671.6,55.9v12.4h-16.2v49.7h-14.9v-49.7h-16.2v-12.4h47.3,0Z"/>
      <path d="M3692.8,79.7h19.1v-23.8h14.9v62.1h-14.9v-25.9h-19.1v25.9h-14.9v-62.1h14.9v23.8Z"/>
    </g>
    <g>
      <polygon class="st0" points="3856.2 861.1 894.8 861.1 894.8 611.1 3854.8 611.1 3973.2 736.1 3856.2 861.1"/>
      <g>
        <path class="st4" d="M2203.2,665l11.6,37.5,11.7-37.5h16.3l-21.2,62.1h-13.4l-21.2-62.1h16.3,0Z"/>
        <path class="st4" d="M2287.4,665v12.4h-24.3v11.3h21.6v12.4h-21.6v13.5h24.3v12.4h-39.2v-62.1h39.2Z"/>
        <path class="st4" d="M2344,665v62.1h-12.1l-22.9-34.4v34.4h-14v-62.1h11.9l23,34.8v-34.8h14Z"/>
        <path class="st4" d="M2397.6,665v12.4h-16.2v49.7h-14.9v-49.7h-16.2v-12.4h47.3,0Z"/>
        <path class="st4" d="M2452.9,665v37c0,18.4-10.7,26-24.5,26s-24.5-7.7-24.5-25.9v-37.1h14.9v37.1c0,9.1,2.7,13.5,9.5,13.5s9.5-4.4,9.5-13.5v-37.1h14.9Z"/>
        <path class="st4" d="M2496.7,727.1l-10.4-23.5h-7.7v23.5h-14.9v-62.1h23.4c14.3,0,23.5,6.6,23.5,19.5s-3.6,13.6-9.9,16.5l12.4,26.1h-16.4ZM2485.3,691.2c6,0,10.4-.8,10.4-6.7s-4.3-7.1-10.4-7.1h-6.7v13.8h6.7Z"/>
        <path class="st4" d="M2559.1,665v12.4h-24.3v11.3h21.6v12.4h-21.6v13.5h24.3v12.4h-39.2v-62.1h39.2Z"/>
        <path class="st4" d="M2260.6,770.2c-2.4-4.1-5.5-5.7-11.1-5.7s-7.1,2.2-7.1,5.4,3.2,5.8,11.1,8c13.5,3.9,18.6,8.9,18.6,19.5s-7.6,18.5-21.7,18.5-19-2.8-24.8-10.2l11.2-7.8c3.1,3.9,6.8,5.6,12.4,5.6s8-2.4,8-5.4-2.5-5.4-11.7-8.4c-12.6-4-18-9.8-18-19.8s6.8-17.9,21.9-17.9,17.9,3.3,22.3,10.2l-11.1,7.9h0Z"/>
        <path class="st4" d="M2323,753v12.4h-16.2v49.7h-14.9v-49.7h-16.2v-12.4h47.3,0Z"/>
        <path class="st4" d="M2378.3,753v37c0,18.4-10.7,26-24.5,26s-24.5-7.7-24.5-25.9v-37.1h14.9v37.1c0,9.1,2.7,13.5,9.5,13.5s9.5-4.4,9.5-13.5v-37.1h14.9Z"/>
        <path class="st4" d="M2389.1,815.1v-62.1h23.1c14.1,0,24.5,6.9,24.5,26.5v9c0,19.4-10.4,26.5-24.5,26.5h-23.1ZM2421.8,788.5v-9c0-8.4-1.8-14.1-9.5-14.1h-8.2v37.3h8.2c7.7,0,9.5-5.8,9.5-14.1Z"/>
        <path class="st4" d="M2462,815.1h-14.9v-62.1h14.9v62.1Z"/>
        <path class="st4" d="M2496.8,816c-14.1,0-24.5-8.5-24.5-27.1v-9.7c0-18.7,10.4-27.1,24.5-27.1s24.5,8.4,24.5,27.1v9.7c0,18.5-10.4,27.1-24.5,27.1ZM2487.3,788.9c0,10.2,3.3,14.7,9.5,14.7s9.5-4.5,9.5-14.7v-9.7c0-10.2-3.3-14.7-9.5-14.7s-9.5,4.5-9.5,14.7v9.7Z"/>
      </g>
    </g>
    <g>
      <polygon class="st9" points="3856.2 1272.1 894.8 1272.1 894.8 1022.1 3854.8 1022.1 3973.2 1147.1 3856.2 1272.1"/>
      <g>
        <path class="st4" d="M1995.2,1119.8v21h-14.9v-62.1h23.4c14.3,0,23.5,6.3,23.5,20.2s-9.1,21-23.5,21h-8.5ZM2000.9,1107.4c7.8,0,11.2-2.3,11.2-8.6s-3.4-7.7-11.2-7.7h-5.8v16.3h5.8Z"/>
        <path class="st4" d="M2066.4,1140.8l-10.4-23.5h-7.7v23.5h-14.9v-62.1h23.4c14.3,0,23.5,6.6,23.5,19.5s-3.6,13.6-9.9,16.5l12.4,26.1h-16.4ZM2055,1104.9c6,0,10.4-.8,10.4-6.7s-4.3-7.1-10.4-7.1h-6.7v13.8h6.7Z"/>
        <path class="st4" d="M2112.4,1141.7c-14.1,0-24.5-8.6-24.5-27.1v-9.7c0-18.7,10.4-27.1,24.5-27.1s24.5,8.4,24.5,27.1v9.7c0,18.5-10.4,27.1-24.5,27.1ZM2102.8,1114.6c0,10.2,3.3,14.7,9.5,14.7s9.5-4.5,9.5-14.7v-9.7c0-10.2-3.3-14.7-9.5-14.7s-9.5,4.5-9.5,14.7v9.7Z"/>
        <path class="st4" d="M2146.3,1140.8v-62.1h23.1c14.1,0,24.5,6.9,24.5,26.6v9c0,19.4-10.4,26.6-24.5,26.6h-23.1ZM2178.9,1114.2v-9c0-8.4-1.8-14.1-9.5-14.1h-8.2v37.3h8.2c7.7,0,9.5-5.8,9.5-14.1Z"/>
        <path class="st4" d="M2252.3,1078.7v37c0,18.4-10.7,26-24.5,26s-24.5-7.7-24.5-25.9v-37.1h14.9v37.1c0,9.1,2.7,13.5,9.5,13.5s9.5-4.4,9.5-13.5v-37.1h14.9Z"/>
        <path class="st4" d="M2294.9,1097.8c-.6-4-3.3-7.7-8.6-7.7s-9.5,4.5-9.5,14.7v9.7c0,9.7,3.2,14.7,9.5,14.7s7.7-2.7,8.6-7.7h14.2c-2.2,13.9-9.7,20.1-22.9,20.1s-24.5-8.6-24.5-27.1v-9.7c0-18.7,10.4-27.1,24.5-27.1s20.8,6.6,22.9,20.1h-14.2Z"/>
        <path class="st4" d="M2358.2,1078.7v12.4h-16.2v49.7h-14.9v-49.7h-16.2v-12.4h47.3,0Z"/>
        <path class="st4" d="M2363.4,1151.2l30.2-83.5h12.1l-30.2,83.5h-12.1Z"/>
        <path class="st4" d="M2440.5,1095.9c-2.4-4.1-5.5-5.7-11.1-5.7s-7.1,2.2-7.1,5.4,3.2,5.8,11.1,8c13.5,3.9,18.6,8.9,18.6,19.5s-7.6,18.5-21.7,18.5-19-2.8-24.8-10.2l11.2-7.8c3.1,3.9,6.8,5.6,12.4,5.6s8-2.4,8-5.4-2.5-5.4-11.7-8.4c-12.6-4.1-18-9.8-18-19.8s6.8-17.9,21.9-17.9,17.9,3.3,22.3,10.2l-11.1,7.9h0Z"/>
        <path class="st4" d="M2502.9,1078.7v12.4h-16.2v49.7h-14.9v-49.7h-16.2v-12.4h47.3,0Z"/>
        <path class="st4" d="M2499.4,1140.8l21.6-62.1h14.4l21.6,62.1h-15.9l-3.3-10.6h-19.2l-3.2,10.6h-15.9ZM2522.4,1117.7h11.4l-5.7-18.4-5.8,18.4Z"/>
        <path class="st4" d="M2594.5,1140.8l-10.4-23.5h-7.7v23.5h-14.9v-62.1h23.4c14.3,0,23.5,6.6,23.5,19.5s-3.6,13.6-9.9,16.5l12.4,26.1h-16.4ZM2583.1,1104.9c6,0,10.4-.8,10.4-6.7s-4.3-7.1-10.4-7.1h-6.7v13.8h6.7Z"/>
        <path class="st4" d="M2659.6,1078.7v12.4h-16.2v49.7h-14.9v-49.7h-16.2v-12.4h47.3,0Z"/>
        <path class="st4" d="M2714.8,1078.7v37c0,18.4-10.7,26-24.5,26s-24.5-7.7-24.5-25.9v-37.1h14.9v37.1c0,9.1,2.7,13.5,9.5,13.5s9.5-4.4,9.5-13.5v-37.1h14.9Z"/>
        <path class="st4" d="M2740.5,1119.8v21h-14.9v-62.1h23.4c14.3,0,23.5,6.3,23.5,20.2s-9.1,21-23.5,21h-8.5ZM2746.3,1107.4c7.8,0,11.2-2.3,11.2-8.6s-3.4-7.7-11.2-7.7h-5.8v16.3h5.8Z"/>
        <path class="st4" d="M2072,1228.8l21.6-62.1h14.4l21.6,62.1h-15.9l-3.3-10.6h-19.2l-3.2,10.6h-15.9ZM2095,1205.7h11.4l-5.7-18.4-5.8,18.4Z"/>
        <path class="st4" d="M2163.2,1185.8c-.6-4-3.3-7.7-8.6-7.7s-9.5,4.5-9.5,14.7v9.7c0,9.7,3.2,14.7,9.5,14.7s7.7-2.7,8.6-7.7h14.2c-2.2,13.9-9.7,20.1-22.9,20.1s-24.5-8.6-24.5-27.1v-9.7c0-18.7,10.4-27.1,24.5-27.1s20.8,6.6,22.9,20.1h-14.2Z"/>
        <path class="st4" d="M2216.4,1185.8c-.6-4-3.3-7.7-8.6-7.7s-9.5,4.5-9.5,14.7v9.7c0,9.7,3.2,14.7,9.5,14.7s7.7-2.7,8.6-7.7h14.2c-2.2,13.9-9.7,20.1-22.9,20.1s-24.5-8.6-24.5-27.1v-9.7c0-18.7,10.4-27.1,24.5-27.1s20.8,6.6,22.9,20.1h-14.2Z"/>
        <path class="st4" d="M2277.9,1166.7v12.4h-24.3v11.3h21.6v12.4h-21.6v13.5h24.3v12.4h-39.2v-62.1h39.2Z"/>
        <path class="st4" d="M2300.5,1216.3h24.3v12.4h-39.2v-62.1h14.9v49.7h0Z"/>
        <path class="st4" d="M2370.3,1166.7v12.4h-24.3v11.3h21.6v12.4h-21.6v13.5h24.3v12.4h-39.2v-62.1h39.2Z"/>
        <path class="st4" d="M2411,1228.8l-10.4-23.5h-7.7v23.5h-14.9v-62.1h23.4c14.3,0,23.5,6.6,23.5,19.5s-3.6,13.6-9.9,16.5l12.4,26.1h-16.4ZM2399.6,1192.9c6,0,10.4-.8,10.4-6.7s-4.3-7.1-10.4-7.1h-6.7v13.8h6.7Z"/>
        <path class="st4" d="M2428.7,1228.8l21.6-62.1h14.4l21.6,62.1h-15.9l-3.3-10.6h-19.2l-3.2,10.6h-15.9ZM2451.8,1205.7h11.4l-5.7-18.4-5.8,18.4Z"/>
        <path class="st4" d="M2530.1,1166.7v12.4h-16.2v49.7h-14.9v-49.7h-16.2v-12.4h47.3,0Z"/>
        <path class="st4" d="M2552.2,1228.8h-14.9v-62.1h14.9v62.1Z"/>
        <path class="st4" d="M2587.1,1229.7c-14.1,0-24.5-8.6-24.5-27.1v-9.7c0-18.7,10.4-27.1,24.5-27.1s24.5,8.4,24.5,27.1v9.7c0,18.5-10.4,27.1-24.5,27.1ZM2577.5,1202.6c0,10.2,3.3,14.7,9.5,14.7s9.5-4.5,9.5-14.7v-9.7c0-10.2-3.3-14.7-9.5-14.7s-9.5,4.5-9.5,14.7v9.7Z"/>
        <path class="st4" d="M2669.9,1166.7v62.1h-12.1l-22.9-34.4v34.4h-14v-62.1h11.9l23,34.8v-34.8h14Z"/>
      </g>
    </g>
    <g>
      <polygon class="st2" points="2342.1 1683.2 894.8 1683.2 894.8 1433.2 2341 1433.2 2445.3 1558.2 2342.1 1683.2"/>
      <g>
        <path class="st4" d="M1506.4,1548.3l-10.3-23.5h-7.7v23.5h-14.9v-62.1h23.4c14.3,0,23.5,6.6,23.5,19.5s-3.6,13.6-9.9,16.5l12.4,26.1h-16.4ZM1495,1512.4c6,0,10.3-.8,10.3-6.7s-4.3-7.1-10.3-7.1h-6.7v13.8h6.7Z"/>
        <path class="st4" d="M1568.8,1486.2v12.4h-24.3v11.3h21.6v12.4h-21.6v13.5h24.3v12.4h-39.2v-62.1h39.2Z"/>
        <path class="st4" d="M1608.8,1503.4c-2.4-4.1-5.5-5.7-11.1-5.7s-7.1,2.2-7.1,5.4,3.2,5.8,11.1,8c13.5,3.9,18.6,8.9,18.6,19.5s-7.6,18.5-21.7,18.5-19-2.8-24.8-10.2l11.2-7.8c3.1,3.9,6.8,5.6,12.4,5.6s8-2.4,8-5.4-2.5-5.4-11.7-8.4c-12.6-4.1-18-9.8-18-19.8s6.8-17.9,21.9-17.9,17.9,3.3,22.3,10.2l-11.1,7.9h0Z"/>
        <path class="st4" d="M1651.5,1549.2c-14.1,0-24.5-8.6-24.5-27.1v-9.7c0-18.7,10.3-27.1,24.5-27.1s24.5,8.4,24.5,27.1v9.7c0,18.5-10.3,27.1-24.5,27.1ZM1642,1522.1c0,10.2,3.3,14.7,9.5,14.7s9.5-4.5,9.5-14.7v-9.7c0-10.2-3.3-14.7-9.5-14.7s-9.5,4.5-9.5,14.7v9.7Z"/>
        <path class="st4" d="M1734.4,1486.2v37c0,18.4-10.7,26-24.5,26s-24.5-7.7-24.5-25.9v-37.1h14.9v37.1c0,9.1,2.7,13.5,9.5,13.5s9.5-4.4,9.5-13.5v-37.1h14.9Z"/>
        <path class="st4" d="M1778.2,1548.3l-10.3-23.5h-7.7v23.5h-14.9v-62.1h23.4c14.3,0,23.5,6.6,23.5,19.5s-3.6,13.6-9.9,16.5l12.4,26.1h-16.4ZM1766.8,1512.4c6,0,10.3-.8,10.3-6.7s-4.3-7.1-10.3-7.1h-6.7v13.8h6.7Z"/>
        <path class="st4" d="M1832.8,1505.3c-.6-4-3.3-7.7-8.6-7.7s-9.5,4.5-9.5,14.7v9.7c0,9.7,3.2,14.7,9.5,14.7s7.7-2.7,8.6-7.7h14.2c-2.2,13.9-9.7,20.1-22.9,20.1s-24.5-8.6-24.5-27.1v-9.7c0-18.7,10.3-27.1,24.5-27.1s20.8,6.6,22.9,20.1h-14.2Z"/>
        <path class="st4" d="M1894.3,1486.2v12.4h-24.3v11.3h21.6v12.4h-21.6v13.5h24.3v12.4h-39.2v-62.1h39.2Z"/>
        <path class="st4" d="M1360.9,1636.3l21.6-62.1h14.4l21.6,62.1h-15.9l-3.3-10.6h-19.2l-3.2,10.6h-15.9,0ZM1383.9,1613.2h11.4l-5.7-18.4-5.8,18.4Z"/>
        <path class="st4" d="M1471.9,1574.2v37c0,18.4-10.7,26-24.5,26s-24.5-7.7-24.5-25.9v-37.1h14.9v37.1c0,9.1,2.7,13.5,9.5,13.5s9.5-4.4,9.5-13.5v-37.1h14.9Z"/>
        <path class="st4" d="M1528.7,1603.4v6.7c0,18.5-8.7,27.1-22.9,27.1s-24.5-8.6-24.5-27.1v-8.5c0-20,10.3-28.3,24.5-28.3s21.1,7.9,22.9,20.1h-14.2c-.6-3.9-3.2-7.7-8.6-7.7s-9.5,4.5-9.5,14.7v9.7c0,10.2,3.3,14.7,9.5,14.7s8-3.8,8.6-8.9h-8.3v-12.4h22.6Z"/>
        <path class="st4" d="M1568.8,1605.7l16.7-31.5h13.9v62.1h-14v-35.1l-12.8,24.8h-8l-12.5-24.6v34.8h-14v-62.1h13.9l16.8,31.5h0Z"/>
        <path class="st4" d="M1649.6,1574.2v12.4h-24.3v11.3h21.6v12.4h-21.6v13.5h24.3v12.4h-39.2v-62.1h39.2Z"/>
        <path class="st4" d="M1706.2,1574.2v62.1h-12.1l-22.9-34.4v34.4h-14v-62.1h11.9l23,34.8v-34.8h14Z"/>
        <path class="st4" d="M1759.8,1574.2v12.4h-16.2v49.7h-14.9v-49.7h-16.2v-12.4h47.3,0Z"/>
        <path class="st4" d="M1756.2,1636.3l21.6-62.1h14.4l21.6,62.1h-15.9l-3.3-10.6h-19.2l-3.2,10.6h-15.9,0ZM1779.3,1613.2h11.4l-5.7-18.4-5.8,18.4Z"/>
        <path class="st4" d="M1857.6,1574.2v12.4h-16.2v49.7h-14.9v-49.7h-16.2v-12.4h47.3,0Z"/>
        <path class="st4" d="M1879.7,1636.3h-14.9v-62.1h14.9v62.1Z"/>
        <path class="st4" d="M1914.5,1637.2c-14.1,0-24.5-8.6-24.5-27.1v-9.7c0-18.7,10.3-27.1,24.5-27.1s24.5,8.4,24.5,27.1v9.7c0,18.5-10.3,27.1-24.5,27.1ZM1905,1610.1c0,10.2,3.3,14.7,9.5,14.7s9.5-4.5,9.5-14.7v-9.7c0-10.2-3.3-14.7-9.5-14.7s-9.5,4.5-9.5,14.7v9.7Z"/>
        <path class="st4" d="M1997.4,1574.2v62.1h-12.1l-22.9-34.4v34.4h-14v-62.1h11.9l23,34.8v-34.8h14Z"/>
      </g>
    </g>
    <g>
      <path class="st1" d="M.5,1521.3l62.6,20.8v11.4l-62.6,20.7v-15.9l35-10.6-35-10.4v-16h0ZM63.2,1472.4v42.6H.5v-42.6h13.7v27.2h10.5v-23.2h13.7v23.2h11v-27.2h13.7ZM63.2,1412.6v13.5l-31.5,20.1h31.5v15.4H.5v-13.5l31.5-20.1H.5v-15.4h62.6ZM14.2,1357.4v15.4h48.9v15.4H14.2v15.4H.5v-46.2h13.7ZM41.2,1302c6.7,0,12.1,2.3,16.3,6.9,4.2,4.6,6.2,10.2,6.2,16.9s-2.1,12.3-6.2,16.9c-4.2,4.5-9.6,6.8-16.3,6.8H.5v-15.4h40.3c2.9,0,5.1-.7,6.8-2.2,1.6-1.5,2.4-3.5,2.4-6.1s-.8-4.6-2.4-6.2c-1.6-1.5-3.9-2.3-6.8-2.3H.5v-15.4h40.6ZM63.2,1240.8v17.9l-23.3,11.1v5.2h23.3v15.4H.5v-24.8c0-6.6,2-11.8,6-15.7,3.9-3.8,8.6-5.7,14.2-5.7s7.3,1,10.1,3c2.8,2,4.8,4.4,6.2,7.2l26.1-13.6h0ZM25.2,1261.4c-1.3-1.2-2.8-1.8-4.5-1.8s-3.2.6-4.4,1.8c-1.3,1.2-1.9,2.8-1.9,4.8v8.7h12.7v-8.7c0-2-.6-3.6-1.9-4.8h0ZM63.2,1190.4v42.6H.5v-42.6h13.7v27.2h10.5v-23.2h13.7v23.2h11v-27.2h13.7ZM6.5,1119.5c3.9-3.8,8.6-5.7,14.2-5.7s10.3,1.9,14.2,5.7c3.9,3.8,5.9,9,5.9,15.7v9.4h22.3v15.4H.5v-24.8c0-6.6,2-11.8,6-15.7ZM25.2,1131c-1.3-1.2-2.8-1.8-4.5-1.8s-3.2.6-4.4,1.8c-1.3,1.2-1.9,2.8-1.9,4.8v8.7h12.7v-8.7c0-2-.6-3.6-1.9-4.8h0ZM24.2,1059.4c1.7-.1,4.2-.2,7.6-.2s6,0,7.7.2c1.7,0,3.8.3,6.2.6,2.4.3,4.5,1,6.2,1.9,1.8.9,3.4,2.2,4.9,3.7,4.6,4.6,6.9,10.4,6.9,17.4s-2.3,12.8-6.9,17.4c-1.5,1.5-3.2,2.8-4.9,3.7-1.8.9-3.8,1.6-6.2,1.9-2.4.3-4.5.6-6.2.7-1.7,0-4.2,0-7.6,0s-5.9,0-7.6,0c-1.7-.1-3.8-.3-6.2-.7-2.4-.3-4.5-1-6.2-1.9s-3.4-2.2-4.9-3.7c-4.6-4.6-6.9-10.4-6.9-17.4s2.3-12.8,6.9-17.4c1.5-1.5,3.2-2.8,4.9-3.7,1.8-.9,3.8-1.6,6.2-1.9,2.4-.3,4.5-.6,6.2-.6ZM42.7,1075.1c-1.9-.3-5.5-.5-10.8-.5s-8.9.2-10.8.5c-2,.3-3.5.9-4.6,1.8-1.8,1.4-2.7,3.5-2.7,6.2s.9,4.8,2.7,6.2c1.1.8,2.6,1.4,4.6,1.8,1.9.3,5.5.5,10.8.5s8.9-.2,10.8-.5,3.4-.9,4.5-1.8c1.9-1.4,2.8-3.5,2.8-6.2s-.9-4.8-2.8-6.2c-1.1-.8-2.5-1.4-4.5-1.8ZM14.2,1007v15.4h48.9v15.4H14.2v15.4H.5v-46.2h13.7ZM63.2,955.4v42.6H.5v-42.6h13.7v27.2h10.5v-23.2h13.7v23.2h11v-27.2h13.7ZM63.2,895.6v13.5l-31.5,20h31.5v15.4H.5v-13.5l31.5-20H.5v-15.4h62.6ZM14.2,840.4v15.4h48.9v15.4H14.2v15.4H.5v-46.2h13.7ZM63.2,816v15.4H.5v-15.4h62.6ZM63.2,752.2v16.1l-9.3,2.9v19.3l9.3,3.1v16.1L.5,786.9v-11.9l62.6-22.8ZM41,775.3l-16.7,5.3,16.7,5.6v-10.9h0ZM63.2,704.2v41.7H.5v-15.4h48.9v-26.3h13.7Z"/>
      <path class="st1" d="M133.5,1535.3v5.3h-50.1v-5.3h50.1ZM133.5,1472.2v5.1h-21.3c-3,0-5.3.8-6.8,2.2-1.6,1.5-2.4,3.6-2.4,6.3s.8,4.7,2.3,6.3c1.6,1.6,3.7,2.4,6.3,2.4h21.9v5.1h-21.3c-3,0-5.3.8-6.8,2.2-1.6,1.5-2.4,3.6-2.4,6.3s.8,4.8,2.4,6.3c1.6,1.6,3.9,2.3,6.8,2.3h21.3v5.1h-34.6v-5.1h3.8c-2.8-2.4-4.2-5.7-4.2-9.8s1.9-8.5,5.8-10.6c-3.8-2.7-5.8-6.5-5.8-11.4s1.1-6.7,3.2-8.9c2.4-2.5,5.6-3.7,9.6-3.7h22.2,0ZM116.2,1432.3c6.9,0,11.8,1.4,14.7,4.2,2,2,3,4.8,3,8.4s-1.5,7.4-4.5,9.8h19.6v5.1h-50.1v-5.1h4.1c-3-2.4-4.5-5.7-4.5-9.8s1-6.4,3-8.4c2.8-2.8,7.7-4.2,14.7-4.2h0ZM121.2,1437.8c-1.4-.2-3.1-.3-5-.3s-3.6.1-5,.3c-1.4.2-2.8.6-4.1,1.1-1.4.6-2.4,1.5-3.1,2.7-.7,1.2-1.1,2.7-1.1,4.5s.3,2.7.8,3.8c.5,1.1,1.1,1.9,1.9,2.6.8.6,1.8,1.1,3,1.5,1.2.3,2.4.6,3.6.7,1.1,0,2.4.1,3.9.1s2.8,0,4-.1c1.1-.1,2.3-.4,3.5-.7,1.2-.4,2.2-.9,3-1.5.8-.7,1.4-1.5,2-2.6.5-1.1.7-2.3.7-3.8s-.4-3.3-1.1-4.5c-.7-1.2-1.7-2.1-3-2.7-1.4-.6-2.7-.9-4.2-1.1h0ZM133.5,1396.8v5.1h-3.3c1.4,1.4,2.3,2.8,2.9,4.3.6,1.5.8,3.4.8,5.7,0,4.4-1.1,7.6-3.2,9.8-1.7,1.7-4,2.6-7,2.6s-5.5-1-7.3-3.1c-1.8-2.1-2.7-5.1-2.7-8.9v-10.3h-3.3c-2.6,0-4.5.7-5.7,2.1-1.3,1.4-1.9,3.6-1.9,6.8s.3,3.9.9,5.2c.6,1.3,1.6,2.4,3.1,3.5l-3.2,3.4c-2-1.4-3.3-3.1-4.1-5s-1.1-4.3-1.1-7.2c0-9.2,3.8-13.9,11.5-13.9h23.5ZM121.3,1401.9h-3.7v9.6c0,5.2,2,7.8,6.1,7.8s5.9-2.7,5.9-8-.8-6-2.3-7.7c-1.1-1.2-3.1-1.8-6-1.8ZM128.8,1359.6c1.9,1.8,3.3,3.5,4,5.2s1.1,3.8,1.1,6.2c0,4.6-1.5,8.3-4.6,11.1-3.1,2.8-7.4,4.2-13.2,4.2s-10.1-1.4-13.2-4.2c-3.1-2.9-4.6-6.6-4.6-11.1s.4-4.5,1.1-6.2,2.1-3.4,4-5.2l3.2,3.4c-1.4,1.3-2.5,2.6-3,3.7-.6,1.2-.8,2.6-.8,4.2,0,3.5,1.3,6.2,3.9,8,2.1,1.5,5.2,2.2,9.3,2.2s7.2-.8,9.3-2.2c2.6-1.8,3.9-4.5,3.9-8s-.3-3.1-.8-4.2c-.6-1.2-1.6-2.4-3.1-3.7l3.3-3.4h0ZM133.5,1336.7v3.6c0,2.9-.9,5.1-2.6,6.6-1.7,1.5-4,2.2-6.7,2.2h-21.5v4.4h-3.9v-4.4h-10.6v-5.1h10.6v-7.4h3.9v7.4h21.3c3.4,0,5.1-1.6,5.1-4.7v-2.7h4.4,0ZM78.2,1307.9l60.5,20.1v5l-60.5-20.1s0-5,0-5ZM133.5,1265.6v6.3l-22.2,11.4v12h22.2v5.3h-50.1v-19.2c0-4.4,1.3-8,3.8-10.7,2.5-2.8,5.9-4.2,10.1-4.2s6.5,1,8.9,3c2.3,2,3.9,4.6,4.6,7.9l22.7-11.9ZM104.2,1274.7c-1.6-1.8-3.9-2.7-6.8-2.7s-5.2.9-6.8,2.7c-1.6,1.8-2.4,4.2-2.4,7.2v13.4h18.4v-13.4c0-3.1-.8-5.5-2.3-7.2ZM117.6,1231v23.4c3.8,0,6.8-.9,8.9-2.6,2.1-1.7,3.1-4.3,3.1-7.6s-.3-3.6-.9-4.9c-.6-1.4-1.6-2.7-3-4.2l3-3.4c1.9,1.9,3.2,3.8,4.1,5.6s1.3,4.2,1.3,7c0,4.8-1.4,8.5-4.4,11.2-3,2.6-7.4,3.9-13.4,3.9s-9.9-1.3-13-3.8c-3.1-2.5-4.7-6-4.7-10.4s1.5-7.9,4.5-10.4c3-2.5,7.1-3.8,12.3-3.8h2.2,0ZM113.8,1236c-2.7.2-4.6.6-5.8,1.1-3.5,1.6-5.2,4.3-5.2,8.1s1.7,6.4,5.2,8.1c1.2.6,3.1.9,5.8,1.1v-18.4ZM98.9,1196.6l34.6,12.7v4.5l-34.6,12.7v-5.5l27.8-9.4-27.8-9.5s0-5.5,0-5.5ZM117.6,1163.6v23.4c3.8,0,6.8-.9,8.9-2.6,2.1-1.7,3.1-4.3,3.1-7.6s-.3-3.6-.9-4.9c-.6-1.4-1.6-2.7-3-4.2l3-3.4c1.9,1.9,3.2,3.8,4.1,5.6s1.3,4.2,1.3,7c0,4.8-1.4,8.5-4.4,11.2-3,2.6-7.4,3.9-13.4,3.9s-9.9-1.3-13-3.8c-3.1-2.5-4.7-6-4.7-10.4s1.5-7.9,4.5-10.4c3-2.5,7.1-3.8,12.3-3.8h2.2,0ZM113.8,1168.6c-2.7.2-4.6.6-5.8,1.1-3.5,1.6-5.2,4.3-5.2,8.1s1.7,6.4,5.2,8.1c1.2.6,3.1.9,5.8,1.1v-18.4ZM133.5,1125.6v5.1h-21.3c-3,0-5.3.8-6.8,2.2-1.6,1.5-2.4,3.6-2.4,6.3s.8,4.8,2.4,6.3c1.6,1.5,3.9,2.2,6.8,2.2h21.3v5.1h-34.6v-5.1h3.8c-2.8-2.4-4.2-5.7-4.2-9.7s1.1-6.7,3.2-8.9c2.3-2.4,5.6-3.6,9.6-3.6h22.2,0ZM133.5,1086.4v5h-3.9c2.9,2.5,4.3,5.8,4.3,9.8s-1.1,6.8-3.2,8.9c-2.3,2.3-5.5,3.5-9.7,3.5h-22.1v-5.1h21.3c3,0,5.3-.7,6.9-2.2,1.6-1.5,2.3-3.6,2.3-6.3s-.8-4.8-2.4-6.3c-1.6-1.6-3.9-2.3-6.8-2.3h-21.3v-5.1h34.6ZM117.6,1047.2v23.4c3.8,0,6.8-.9,8.9-2.6,2.1-1.7,3.1-4.3,3.1-7.6s-.3-3.6-.9-4.9c-.6-1.4-1.6-2.7-3-4.2l3-3.4c1.9,1.9,3.2,3.8,4.1,5.6s1.3,4.2,1.3,7c0,4.8-1.4,8.5-4.4,11.2-3,2.6-7.4,3.9-13.4,3.9s-9.9-1.3-13-3.8c-3.1-2.5-4.7-6-4.7-10.4s1.5-7.9,4.5-10.4c3-2.5,7.1-3.8,12.3-3.8h2.2,0ZM113.8,1052.2c-2.7.2-4.6.6-5.8,1.1-3.5,1.6-5.2,4.3-5.2,8.1s1.7,6.4,5.2,8.1c1.2.6,3.1.9,5.8,1.1v-18.4ZM78.2,1017.8l60.5,20.1v5l-60.5-20v-5h0ZM83.4,979.9l50.1,16.5v4.4l-50.1,16.5v-5.6l40.5-13-40.5-13v-5.6h0ZM133.5,951.2v5.1h-3.3c1.4,1.4,2.3,2.8,2.9,4.3.6,1.5.8,3.4.8,5.7,0,4.4-1.1,7.6-3.2,9.8-1.7,1.7-4,2.6-7,2.6s-5.5-1-7.3-3.1c-1.8-2.1-2.7-5.1-2.7-8.9v-10.3h-3.3c-2.6,0-4.5.7-5.7,2.1-1.3,1.4-1.9,3.6-1.9,6.8s.3,3.9.9,5.2c.6,1.3,1.6,2.4,3.1,3.5l-3.2,3.5c-2-1.5-3.3-3.1-4.1-5s-1.1-4.3-1.1-7.2c0-9.2,3.8-13.9,11.5-13.9h23.5ZM121.3,956.2h-3.7v9.6c0,5.2,2,7.8,6.1,7.8s5.9-2.7,5.9-8-.8-6-2.3-7.7c-1.1-1.2-3.1-1.8-6-1.8ZM133.5,926.5v3.7c0,2.9-.8,5.1-2.5,6.6-1.7,1.5-3.9,2.2-6.7,2.2h-40.9v-5.1h40.7c1.7,0,3-.3,3.9-1.1.8-.7,1.2-1.9,1.2-3.6v-2.7h4.4,0ZM133.5,891.2v5h-3.9c2.9,2.5,4.3,5.8,4.3,9.8s-1.1,6.8-3.2,8.9c-2.3,2.3-5.5,3.5-9.7,3.5h-22.1v-5.1h21.3c3,0,5.3-.7,6.9-2.2,1.6-1.5,2.3-3.6,2.3-6.3s-.8-4.8-2.4-6.3-3.9-2.3-6.8-2.3h-21.3v-5.1h34.6ZM133.5,853.9v5.1h-3.3c1.4,1.4,2.3,2.8,2.9,4.3.6,1.5.8,3.4.8,5.7,0,4.4-1.1,7.6-3.2,9.8-1.7,1.7-4,2.6-7,2.6s-5.5-1-7.3-3.1c-1.8-2.1-2.7-5.1-2.7-8.9v-10.3h-3.3c-2.6,0-4.5.7-5.7,2.1-1.3,1.4-1.9,3.6-1.9,6.8s.3,3.9.9,5.2c.6,1.3,1.6,2.4,3.1,3.5l-3.2,3.5c-2-1.5-3.3-3.1-4.1-5s-1.1-4.3-1.1-7.2c0-9.2,3.8-13.9,11.5-13.9h23.5ZM121.3,859h-3.7v9.6c0,5.2,2,7.8,6.1,7.8s5.9-2.7,5.9-8-.8-6-2.3-7.7c-1.1-1.2-3.1-1.8-6-1.8ZM133.5,828.3v3.6c0,2.9-.9,5.1-2.6,6.6-1.7,1.5-4,2.2-6.7,2.2h-21.5v4.4h-3.9v-4.4h-10.6v-5.1h10.6v-7.4h3.9v7.4h21.3c3.4,0,5.1-1.6,5.1-4.7v-2.7h4.4,0ZM133.5,813.2v5.1h-34.6v-5.1h34.6ZM89.1,812.8v5.7h-5.7v-5.7h5.7ZM116.2,774c6.3,0,10.9,1.4,13.8,4.2,2.6,2.5,3.9,5.8,3.9,9.9s-1.3,7.4-3.9,9.9c-2.9,2.8-7.5,4.2-13.8,4.2s-11-1.4-13.8-4.2c-2.6-2.5-3.9-5.8-3.9-9.9s1.3-7.4,3.9-9.9c2.8-2.8,7.4-4.2,13.8-4.2ZM116.2,779.1c-5.3,0-8.9.9-10.7,2.7-1.7,1.7-2.5,3.8-2.5,6.3s.8,4.6,2.5,6.3c1.9,1.9,5.4,2.8,10.7,2.8s8.8-.9,10.7-2.8c1.7-1.7,2.5-3.8,2.5-6.3s-.8-4.6-2.5-6.3c-1.9-1.8-5.4-2.7-10.7-2.7ZM133.5,735.9v5.1h-21.3c-3,0-5.3.8-6.8,2.2-1.6,1.5-2.4,3.6-2.4,6.3s.8,4.8,2.4,6.3c1.6,1.5,3.9,2.2,6.8,2.2h21.3v5.1h-34.6v-5.1h3.8c-2.8-2.4-4.2-5.7-4.2-9.7s1.1-6.7,3.2-8.9c2.3-2.4,5.6-3.6,9.6-3.6h22.2,0Z"/>
      <path class="st5" d="M23.6,190.1v820.2h72.6V190.1h0l-36-46.2-36.5,46.2h0s0,0,0,0Z"/>
    </g>
    <g>
      <path class="st6" d="M2862.4,2014h-820.2v72.6h820.2s46.2-36,46.2-36l-46.2-36.6h0s0,0,0,0Z"/>
      <g>
        <path d="M1587.2,2018.9l11.7,37.9,11.8-37.9h16.4l-21.4,62.6h-13.5l-21.4-62.6h16.4Z"/>
        <path d="M1672.2,2018.9v12.5h-24.5v11.4h21.8v12.5h-21.8v13.6h24.5v12.5h-39.6v-62.6h39.6Z"/>
        <path d="M1729.3,2018.9v62.6h-12.2l-23.1-34.7v34.7h-14.2v-62.6h12l23.2,35.1v-35.1h14.2Z"/>
        <path d="M1783.4,2018.9v12.5h-16.3v50.1h-15.1v-50.1h-16.3v-12.5h47.7Z"/>
        <path d="M1839.1,2018.9v37.3c0,18.5-10.8,26.2-24.7,26.2s-24.7-7.7-24.7-26.1v-37.4h15.1v37.4c0,9.2,2.7,13.6,9.6,13.6s9.6-4.4,9.6-13.6v-37.4h15.1Z"/>
        <path d="M1883.3,2081.6l-10.4-23.7h-7.8v23.7h-15.1v-62.6h23.6c14.4,0,23.7,6.6,23.7,19.7s-3.6,13.7-10,16.6l12.5,26.3h-16.5ZM1871.8,2045.3c6.1,0,10.4-.8,10.4-6.7s-4.4-7.2-10.4-7.2h-6.7v13.9h6.7Z"/>
        <path d="M1946.2,2018.9v12.5h-24.5v11.4h21.8v12.5h-21.8v13.6h24.5v12.5h-39.6v-62.6h39.6Z"/>
        <path d="M1991.7,2069h24.5v12.5h-39.6v-62.6h15.1v50.1Z"/>
        <path d="M2038.5,2081.6h-15.1v-62.6h15.1v62.6Z"/>
        <path d="M2089.9,2018.9v12.5h-24.5v12.9h21.8v12.5h-21.8v24.7h-15.1v-62.6h39.6Z"/>
        <path d="M2136.7,2018.9v12.5h-24.5v11.4h21.8v12.5h-21.8v13.6h24.5v12.5h-39.6v-62.6h39.6Z"/>
        <path d="M2176.5,2038.3c-.6-4-3.4-7.7-8.7-7.7s-9.6,4.5-9.6,14.8v9.8c0,9.8,3.3,14.8,9.6,14.8s7.8-2.7,8.7-7.7h14.3c-2.2,14.1-9.8,20.2-23.1,20.2s-24.7-8.6-24.7-27.3v-9.8c0-18.9,10.4-27.3,24.7-27.3s21,6.6,23.1,20.2h-14.3Z"/>
        <path d="M2208.7,2018.9l9.7,21.5,9.7-21.5h17.3l-19.5,37.6v25.1h-15.1v-25.1l-19.5-37.6h17.3Z"/>
        <path d="M2281.1,2038.3c-.6-4-3.4-7.7-8.7-7.7s-9.6,4.5-9.6,14.8v9.8c0,9.8,3.3,14.8,9.6,14.8s7.8-2.7,8.7-7.7h14.3c-2.2,14.1-9.8,20.2-23.1,20.2s-24.7-8.6-24.7-27.3v-9.8c0-18.9,10.4-27.3,24.7-27.3s21,6.6,23.1,20.2h-14.3Z"/>
        <path d="M2318.7,2069h24.5v12.5h-39.6v-62.6h15.1v50.1Z"/>
        <path d="M2389.1,2018.9v12.5h-24.5v11.4h21.8v12.5h-21.8v13.6h24.5v12.5h-39.6v-62.6h39.6Z"/>
      </g>
    </g>
  </g>
</svg>