<?xml version="1.0" encoding="UTF-8"?>
<svg id="Layer_2" data-name="Layer 2" xmlns="http://www.w3.org/2000/svg" viewBox="0 0 3078.38 250">
  <defs>
    <style>
      .cls-1 {
        fill: #ec652f;
      }

      .cls-2 {
        fill: #fff;
      }
    </style>
  </defs>
  <g id="Layer_1-2" data-name="Layer 1">
    <g>
      <polygon class="cls-1" points="2961.39 250 0 250 0 0 2960.05 0 3078.38 125 2961.39 250"/>
      <g>
        <path class="cls-2" d="M1100.39,97.68v20.97h-14.94v-62.1h23.4c14.31,0,23.49,6.3,23.49,20.16s-9.09,20.97-23.49,20.97h-8.46ZM1106.15,85.26c7.83,0,11.25-2.34,11.25-8.55,0-5.04-3.42-7.74-11.25-7.74h-5.76v16.29h5.76Z"/>
        <path class="cls-2" d="M1171.67,118.65l-10.35-23.49h-7.74v23.49h-14.94v-62.1h23.4c14.31,0,23.49,6.57,23.49,19.53,0,8.1-3.6,13.59-9.9,16.47l12.42,26.1h-16.38ZM1160.24,82.74c6.03,0,10.35-.81,10.35-6.66s-4.32-7.11-10.35-7.11h-6.66v13.77h6.66Z"/>
        <path class="cls-2" d="M1217.57,119.55c-14.13,0-24.48-8.55-24.48-27.09v-9.72c0-18.72,10.35-27.09,24.48-27.09s24.48,8.37,24.48,27.09v9.72c0,18.54-10.35,27.09-24.48,27.09ZM1208.03,92.46c0,10.17,3.33,14.67,9.54,14.67s9.54-4.5,9.54-14.67v-9.72c0-10.17-3.33-14.67-9.54-14.67s-9.54,4.5-9.54,14.67v9.72Z"/>
        <path class="cls-2" d="M1251.5,118.65v-62.1h23.13c14.13,0,24.48,6.93,24.48,26.55v9c0,19.44-10.35,26.55-24.48,26.55h-23.13ZM1284.17,92.1v-9c0-8.37-1.8-14.13-9.54-14.13h-8.19v37.26h8.19c7.74,0,9.54-5.76,9.54-14.13Z"/>
        <path class="cls-2" d="M1357.51,56.55v36.99c0,18.36-10.71,26.01-24.48,26.01s-24.48-7.65-24.48-25.92v-37.08h14.94v37.08c0,9.09,2.7,13.5,9.54,13.5s9.54-4.41,9.54-13.5v-37.08h14.94Z"/>
        <path class="cls-2" d="M1400.08,75.72c-.63-3.96-3.33-7.65-8.64-7.65-6.21,0-9.54,4.5-9.54,14.67v9.72c0,9.72,3.24,14.67,9.54,14.67,5.31,0,7.74-2.7,8.64-7.65h14.22c-2.16,13.95-9.72,20.07-22.86,20.07-14.13,0-24.48-8.55-24.48-27.09v-9.72c0-18.72,10.35-27.09,24.48-27.09,12.33,0,20.79,6.57,22.86,20.07h-14.22Z"/>
        <path class="cls-2" d="M1463.45,56.55v12.42h-16.2v49.68h-14.94v-49.68h-16.2v-12.42h47.34Z"/>
        <path class="cls-2" d="M1468.57,129.09l30.24-83.52h12.06l-30.24,83.52h-12.06Z"/>
        <path class="cls-2" d="M1545.7,73.74c-2.43-4.14-5.49-5.67-11.07-5.67-4.95,0-7.11,2.25-7.11,5.4,0,3.69,3.24,5.76,11.07,8.01,13.5,3.87,18.63,8.91,18.63,19.53,0,11.25-7.56,18.54-21.69,18.54-11.34,0-18.99-2.79-24.84-10.17l11.16-7.83c3.06,3.87,6.84,5.58,12.42,5.58s8.01-2.43,8.01-5.4c0-3.6-2.52-5.4-11.7-8.37-12.6-4.05-18-9.81-18-19.8s6.75-17.91,21.87-17.91c9.9,0,17.91,3.33,22.32,10.17l-11.07,7.92Z"/>
        <path class="cls-2" d="M1608.16,56.55v12.42h-16.2v49.68h-14.94v-49.68h-16.2v-12.42h47.34Z"/>
        <path class="cls-2" d="M1604.56,118.65l21.6-62.1h14.4l21.6,62.1h-15.93l-3.33-10.62h-19.17l-3.24,10.62h-15.93ZM1627.6,95.61h11.43l-5.67-18.36-5.76,18.36Z"/>
        <path class="cls-2" d="M1699.69,118.65l-10.35-23.49h-7.74v23.49h-14.94v-62.1h23.4c14.31,0,23.49,6.57,23.49,19.53,0,8.1-3.6,13.59-9.9,16.47l12.42,26.1h-16.38ZM1688.26,82.74c6.03,0,10.35-.81,10.35-6.66s-4.32-7.11-10.35-7.11h-6.66v13.77h6.66Z"/>
        <path class="cls-2" d="M1764.76,56.55v12.42h-16.2v49.68h-14.94v-49.68h-16.2v-12.42h47.34Z"/>
        <path class="cls-2" d="M1820.02,56.55v36.99c0,18.36-10.71,26.01-24.48,26.01s-24.48-7.65-24.48-25.92v-37.08h14.94v37.08c0,9.09,2.7,13.5,9.54,13.5s9.54-4.41,9.54-13.5v-37.08h14.94Z"/>
        <path class="cls-2" d="M1845.76,97.68v20.97h-14.94v-62.1h23.4c14.31,0,23.49,6.3,23.49,20.16s-9.09,20.97-23.49,20.97h-8.46ZM1851.52,85.26c7.83,0,11.25-2.34,11.25-8.55,0-5.04-3.42-7.74-11.25-7.74h-5.76v16.29h5.76Z"/>
        <path class="cls-2" d="M1177.2,206.65l21.6-62.1h14.4l21.6,62.1h-15.93l-3.33-10.62h-19.17l-3.24,10.62h-15.93ZM1200.24,183.61h11.43l-5.67-18.36-5.76,18.36Z"/>
        <path class="cls-2" d="M1268.37,163.72c-.63-3.96-3.33-7.65-8.64-7.65-6.21,0-9.54,4.5-9.54,14.67v9.72c0,9.72,3.24,14.67,9.54,14.67,5.31,0,7.74-2.7,8.64-7.65h14.22c-2.16,13.95-9.72,20.07-22.86,20.07-14.13,0-24.48-8.55-24.48-27.09v-9.72c0-18.72,10.35-27.09,24.48-27.09,12.33,0,20.79,6.57,22.86,20.07h-14.22Z"/>
        <path class="cls-2" d="M1321.56,163.72c-.63-3.96-3.33-7.65-8.64-7.65-6.21,0-9.54,4.5-9.54,14.67v9.72c0,9.72,3.24,14.67,9.54,14.67,5.31,0,7.74-2.7,8.64-7.65h14.22c-2.16,13.95-9.72,20.07-22.86,20.07-14.13,0-24.48-8.55-24.48-27.09v-9.72c0-18.72,10.35-27.09,24.48-27.09,12.33,0,20.79,6.57,22.86,20.07h-14.22Z"/>
        <path class="cls-2" d="M1383.12,144.55v12.42h-24.3v11.34h21.6v12.42h-21.6v13.5h24.3v12.42h-39.24v-62.1h39.24Z"/>
        <path class="cls-2" d="M1405.71,194.23h24.3v12.42h-39.24v-62.1h14.94v49.68Z"/>
        <path class="cls-2" d="M1475.55,144.55v12.42h-24.3v11.34h21.6v12.42h-21.6v13.5h24.3v12.42h-39.24v-62.1h39.24Z"/>
        <path class="cls-2" d="M1516.23,206.65l-10.35-23.49h-7.74v23.49h-14.94v-62.1h23.4c14.31,0,23.49,6.57,23.49,19.53,0,8.1-3.6,13.59-9.9,16.47l12.42,26.1h-16.38ZM1504.8,170.74c6.03,0,10.35-.81,10.35-6.66s-4.32-7.11-10.35-7.11h-6.66v13.77h6.66Z"/>
        <path class="cls-2" d="M1533.96,206.65l21.6-62.1h14.4l21.6,62.1h-15.93l-3.33-10.62h-19.17l-3.24,10.62h-15.93ZM1557,183.61h11.43l-5.67-18.36-5.76,18.36Z"/>
        <path class="cls-2" d="M1635.3,144.55v12.42h-16.2v49.68h-14.94v-49.68h-16.2v-12.42h47.34Z"/>
        <path class="cls-2" d="M1657.44,206.65h-14.94v-62.1h14.94v62.1Z"/>
        <path class="cls-2" d="M1692.27,207.55c-14.13,0-24.48-8.55-24.48-27.09v-9.72c0-18.72,10.35-27.09,24.48-27.09s24.48,8.37,24.48,27.09v9.72c0,18.54-10.35,27.09-24.48,27.09ZM1682.73,180.46c0,10.17,3.33,14.67,9.54,14.67s9.54-4.5,9.54-14.67v-9.72c0-10.17-3.33-14.67-9.54-14.67s-9.54,4.5-9.54,14.67v9.72Z"/>
        <path class="cls-2" d="M1775.16,144.55v62.1h-12.06l-22.86-34.38v34.38h-14.04v-62.1h11.88l23.04,34.83v-34.83h14.04Z"/>
      </g>
    </g>
  </g>
</svg>