<?xml version="1.0" encoding="UTF-8"?>
<svg id="Layer_2" data-name="Layer 2" xmlns="http://www.w3.org/2000/svg" viewBox="0 0 1550.53 250">
  <defs>
    <style>
      .cls-1 {
        fill: #cf3e44;
      }

      .cls-2 {
        fill: #fff;
      }
    </style>
  </defs>
  <g id="Layer_1-2" data-name="Layer 1">
    <g>
      <polygon class="cls-1" points="1447.35 250 0 250 0 0 1446.17 0 1550.53 125 1447.35 250"/>
      <g>
        <path class="cls-2" d="M611.65,115.11l-10.35-23.49h-7.74v23.49h-14.94v-62.1h23.4c14.31,0,23.49,6.57,23.49,19.53,0,8.1-3.6,13.59-9.9,16.47l12.42,26.1h-16.38ZM600.22,79.21c6.03,0,10.35-.81,10.35-6.66s-4.32-7.11-10.35-7.11h-6.66v13.77h6.66Z"/>
        <path class="cls-2" d="M674.02,53.02v12.42h-24.3v11.34h21.6v12.42h-21.6v13.5h24.3v12.42h-39.24v-62.1h39.24Z"/>
        <path class="cls-2" d="M713.98,70.21c-2.43-4.14-5.49-5.67-11.07-5.67-4.95,0-7.11,2.25-7.11,5.4,0,3.69,3.24,5.76,11.07,8.01,13.5,3.87,18.63,8.91,18.63,19.53,0,11.25-7.56,18.54-21.69,18.54-11.34,0-18.99-2.79-24.84-10.17l11.16-7.83c3.06,3.87,6.84,5.58,12.42,5.58s8.01-2.43,8.01-5.4c0-3.6-2.52-5.4-11.7-8.37-12.6-4.05-18-9.81-18-19.8s6.75-17.91,21.87-17.91c9.9,0,17.91,3.33,22.32,10.17l-11.07,7.92Z"/>
        <path class="cls-2" d="M756.73,116.01c-14.13,0-24.48-8.55-24.48-27.09v-9.72c0-18.72,10.35-27.09,24.48-27.09s24.48,8.37,24.48,27.09v9.72c0,18.54-10.35,27.09-24.48,27.09ZM747.19,88.93c0,10.17,3.33,14.67,9.54,14.67s9.54-4.5,9.54-14.67v-9.72c0-10.17-3.33-14.67-9.54-14.67s-9.54,4.5-9.54,14.67v9.72Z"/>
        <path class="cls-2" d="M839.62,53.02v36.99c0,18.36-10.71,26.01-24.48,26.01s-24.48-7.65-24.48-25.92v-37.08h14.94v37.08c0,9.09,2.7,13.5,9.54,13.5s9.54-4.41,9.54-13.5v-37.08h14.94Z"/>
        <path class="cls-2" d="M883.45,115.11l-10.35-23.49h-7.74v23.49h-14.94v-62.1h23.4c14.31,0,23.49,6.57,23.49,19.53,0,8.1-3.6,13.59-9.9,16.47l12.42,26.1h-16.38ZM872.02,79.21c6.03,0,10.35-.81,10.35-6.66s-4.32-7.11-10.35-7.11h-6.66v13.77h6.66Z"/>
        <path class="cls-2" d="M937.99,72.19c-.63-3.96-3.33-7.65-8.64-7.65-6.21,0-9.54,4.5-9.54,14.67v9.72c0,9.72,3.24,14.67,9.54,14.67,5.31,0,7.74-2.7,8.64-7.65h14.22c-2.16,13.95-9.72,20.07-22.86,20.07-14.13,0-24.48-8.55-24.48-27.09v-9.72c0-18.72,10.35-27.09,24.48-27.09,12.33,0,20.79,6.57,22.86,20.07h-14.22Z"/>
        <path class="cls-2" d="M999.55,53.02v12.42h-24.3v11.34h21.6v12.42h-21.6v13.5h24.3v12.42h-39.24v-62.1h39.24Z"/>
        <path class="cls-2" d="M466.08,203.11l21.6-62.1h14.4l21.6,62.1h-15.93l-3.33-10.62h-19.17l-3.24,10.62h-15.93ZM489.12,180.08h11.43l-5.67-18.36-5.76,18.36Z"/>
        <path class="cls-2" d="M577.14,141.02v36.99c0,18.36-10.71,26.01-24.48,26.01s-24.48-7.65-24.48-25.92v-37.08h14.94v37.08c0,9.09,2.7,13.5,9.54,13.5s9.54-4.41,9.54-13.5v-37.08h14.94Z"/>
        <path class="cls-2" d="M633.93,170.27v6.66c0,18.54-8.73,27.09-22.86,27.09s-24.48-8.55-24.48-27.09v-8.46c0-19.98,10.35-28.35,24.48-28.35s21.06,7.92,22.86,20.07h-14.22c-.63-3.87-3.24-7.65-8.64-7.65-6.21,0-9.54,4.5-9.54,14.67v9.72c0,10.17,3.33,14.67,9.54,14.67s8.01-3.78,8.55-8.91h-8.28v-12.42h22.59Z"/>
        <path class="cls-2" d="M674.07,172.52l16.74-31.5h13.95v62.1h-14.04v-35.1l-12.78,24.84h-8.01l-12.51-24.57v34.83h-14.04v-62.1h13.86l16.83,31.5Z"/>
        <path class="cls-2" d="M754.8,141.02v12.42h-24.3v11.34h21.6v12.42h-21.6v13.5h24.3v12.42h-39.24v-62.1h39.24Z"/>
        <path class="cls-2" d="M811.41,141.02v62.1h-12.06l-22.86-34.38v34.38h-14.04v-62.1h11.88l23.04,34.83v-34.83h14.04Z"/>
        <path class="cls-2" d="M865.05,141.02v12.42h-16.2v49.68h-14.94v-49.68h-16.2v-12.42h47.34Z"/>
        <path class="cls-2" d="M861.45,203.11l21.6-62.1h14.4l21.6,62.1h-15.93l-3.33-10.62h-19.17l-3.24,10.62h-15.93ZM884.49,180.08h11.43l-5.67-18.36-5.76,18.36Z"/>
        <path class="cls-2" d="M962.79,141.02v12.42h-16.2v49.68h-14.94v-49.68h-16.2v-12.42h47.34Z"/>
        <path class="cls-2" d="M984.93,203.11h-14.94v-62.1h14.94v62.1Z"/>
        <path class="cls-2" d="M1019.76,204.01c-14.13,0-24.48-8.55-24.48-27.09v-9.72c0-18.72,10.35-27.09,24.48-27.09s24.48,8.37,24.48,27.09v9.72c0,18.54-10.35,27.09-24.48,27.09ZM1010.22,176.93c0,10.17,3.33,14.67,9.54,14.67s9.54-4.5,9.54-14.67v-9.72c0-10.17-3.33-14.67-9.54-14.67s-9.54,4.5-9.54,14.67v9.72Z"/>
        <path class="cls-2" d="M1102.64,141.02v62.1h-12.06l-22.86-34.38v34.38h-14.04v-62.1h11.88l23.04,34.83v-34.83h14.04Z"/>
      </g>
    </g>
  </g>
</svg>