<?xml version="1.0" encoding="UTF-8"?>
<svg id="Layer_1" xmlns="http://www.w3.org/2000/svg" xmlns:xlink="http://www.w3.org/1999/xlink" version="1.1" viewBox="0 0 3494.8 291.3">
  <!-- Generator: Adobe Illustrator 29.1.0, SVG Export Plug-In . SVG Version: 2.1.0 Build 142)  -->
  <defs>
    <style>
      .st0, .st1 {
        fill: none;
      }

      .st2 {
        fill: #010101;
      }

      .st3, .st4 {
        fill-rule: evenodd;
      }

      .st3, .st5 {
        fill: #f38030;
      }

      .st4 {
        fill: #f9a566;
      }

      .st6 {
        isolation: isolate;
      }

      .st1 {
        stroke: #d06831;
        stroke-miterlimit: 10;
        stroke-width: 14px;
      }

      .st7 {
        fill: #f2802e;
      }

      .st8 {
        clip-path: url(#clippath);
      }
    </style>
    <clipPath id="clippath">
      <polygon class="st0" points="3378.2 20.7 1808.6 20.7 1767.9 20.7 416.4 20.7 416.4 270.7 1767.9 270.7 1808.6 270.7 3378.2 270.7 3494.3 146.7 3378.2 20.7"/>
    </clipPath>
  </defs>
  <path class="st3" d="M3378.7,270.7l116.1-124-116.1-126h-1610.3l116.1,126-116.1,124h1610.3Z"/>
  <path class="st4" d="M1750,20.7H416.9v250h1333.1l116.1-124-116.1-126h0Z"/>
  <g class="st8">
    <polyline class="st1" points="1740.9 .9 1875.3 147.5 1747.7 282.7"/>
  </g>
  <path class="st2" d="M2234.6,149.6c-.5,3-1.7,5.3-3.6,6.9-1.9,1.6-4.2,2.3-7,2.3s-5.8-1-7.9-3.1c-.7-.7-1.2-1.4-1.6-2.2-.4-.8-.7-1.7-.9-2.8s-.3-2-.3-2.8v-6.8c0-.7.1-1.7.3-2.8s.4-2,.9-2.8c.4-.8,1-1.5,1.6-2.2,2.1-2.1,4.7-3.1,7.9-3.1s5.1.8,7,2.3c1.9,1.6,3.1,3.8,3.6,6.9h-7.1c-.6-2-1.7-3-3.6-3s-2.1.4-2.8,1.2c-.4.5-.6,1.2-.8,2.1-.2.9-.2,2.5-.2,4.9s0,4,.2,4.9.5,1.6.8,2.1c.6.8,1.5,1.2,2.8,1.2,1.9,0,3-1,3.6-3h7.1v-.2h0ZM2258.9,141v6.8c0,.8-.1,1.7-.3,2.8-.1,1.1-.4,2-.9,2.8-.4.8-1,1.5-1.6,2.2-2.1,2.1-4.7,3.1-7.9,3.1s-5.8-1-7.8-3.1c-.7-.7-1.2-1.4-1.7-2.2-.4-.8-.7-1.7-.9-2.8-.1-1.1-.3-2-.3-2.8v-6.8c0-.8.2-1.7.3-2.8s.4-2,.9-2.8c.4-.8,1-1.5,1.7-2.2,2.1-2.1,4.7-3.1,7.8-3.1s5.8,1,7.9,3.1c.7.7,1.2,1.4,1.6,2.2.4.8.7,1.7.9,2.8s.2,2,.3,2.8ZM2251.9,149.3c.2-.9.2-2.5.2-4.9s0-4-.2-4.9c-.1-.9-.4-1.6-.8-2.1-.6-.8-1.5-1.2-2.8-1.2s-2.1.4-2.8,1.2c-.4.5-.6,1.2-.8,2.1-.1.9-.2,2.5-.2,4.9s0,4,.2,4.9.4,1.5.8,2c.6.8,1.6,1.3,2.8,1.3s2.1-.4,2.8-1.3c.4-.5.6-1.1.8-2ZM2286.1,158.6h-8.1l-5-10.5h-2.4v10.5h-6.9v-28.2h11.2c3,0,5.3.9,7,2.7s2.6,3.9,2.6,6.4-.4,3.3-1.3,4.6c-.9,1.2-2,2.2-3.2,2.8l6.1,11.8h0ZM2276.8,141.5c.6-.6.8-1.2.8-2s-.3-1.4-.8-2c-.6-.6-1.3-.9-2.2-.9h-3.9v5.7h3.9c.9,0,1.6-.3,2.2-.8ZM2307.8,133.1c1.7,1.8,2.6,3.9,2.6,6.4s-.9,4.6-2.6,6.4c-1.7,1.8-4.1,2.6-7.1,2.6h-4.2v10.1h-6.9v-28.2h11.1c3,0,5.3.9,7.1,2.7h0ZM2302.6,141.5c.6-.6.8-1.2.8-2s-.3-1.4-.8-2c-.6-.6-1.3-.9-2.2-.9h-3.9v5.7h3.9c.9,0,1.6-.3,2.2-.8ZM2334.9,141v6.8c0,.8-.1,1.7-.3,2.8-.1,1.1-.4,2-.9,2.8-.4.8-1,1.5-1.6,2.2-2.1,2.1-4.7,3.1-7.9,3.1s-5.8-1-7.8-3.1c-.7-.7-1.2-1.4-1.7-2.2-.4-.8-.7-1.7-.9-2.8-.1-1.1-.3-2-.3-2.8v-6.8c0-.8.2-1.7.3-2.8s.4-2,.9-2.8c.4-.8,1-1.5,1.7-2.2,2.1-2.1,4.7-3.1,7.8-3.1s5.8,1,7.9,3.1c.7.7,1.2,1.4,1.6,2.2.4.8.7,1.7.9,2.8s.2,2,.3,2.8ZM2327.8,149.3c.2-.9.2-2.5.2-4.9s0-4-.2-4.9c-.1-.9-.4-1.6-.8-2.1-.6-.8-1.5-1.2-2.8-1.2s-2.1.4-2.8,1.2c-.4.5-.6,1.2-.8,2.1-.1.9-.2,2.5-.2,4.9s0,4,.2,4.9.4,1.5.8,2c.6.8,1.6,1.3,2.8,1.3s2.2-.4,2.8-1.3c.4-.5.6-1.1.8-2ZM2362,158.6h-8.1l-5-10.5h-2.4v10.5h-6.9v-28.2h11.2c3,0,5.3.9,7,2.7s2.6,3.9,2.6,6.4-.4,3.3-1.3,4.6c-.9,1.2-2,2.2-3.2,2.8l6.1,11.8h0ZM2352.8,141.5c.6-.6.8-1.2.8-2s-.3-1.4-.8-2c-.6-.6-1.3-.9-2.2-.9h-3.9v5.7h3.9c.9,0,1.6-.3,2.2-.8ZM2388.6,158.6h-7.2l-1.3-4.2h-8.7l-1.4,4.2h-7.2l10.2-28.2h5.3l10.2,28.2h0ZM2378.2,148.6l-2.4-7.5-2.5,7.5h4.9ZM2407.8,136.6h-6.9v22h-6.9v-22h-6.9v-6.2h20.8v6.2h-.1ZM2430.9,158.6h-19.1v-28.2h19.1v6.2h-12.2v4.7h10.4v6.2h-10.4v4.9h12.2v6.2h0ZM2463.6,149.9c0,2.8-1.1,4.9-3.1,6.5-2.1,1.6-4.6,2.3-7.7,2.3s-4.4-.3-6.1-.8c-1.7-.6-3.2-1.5-4.6-2.9l4.4-4.4c1.3,1.3,3.4,2,6.3,2s4.1-.8,4.1-2.5-.2-1.3-.6-1.7c-.4-.4-1-.6-1.9-.8l-3.4-.5c-2.5-.4-4.4-1.2-5.6-2.5-1.3-1.3-1.9-3.2-1.9-5.7s.9-4.8,2.8-6.4c1.9-1.7,4.4-2.5,7.5-2.5s7.3,1.1,9.5,3.4l-4.4,4.4c-.7-.7-1.4-1.1-2.3-1.4-.8-.2-1.8-.3-3.1-.3s-2,.3-2.5.8c-.6.5-.9,1.1-.9,1.8s.2.9.6,1.3c.5.4,1.1.7,1.9.8l3.4.5c2.5.3,4.3,1.1,5.5,2.3,1.4,1.4,2.1,3.4,2.1,6.2h0ZM2487.2,136.6h-6.9v22h-6.9v-22h-6.9v-6.2h20.8v6.2h-.1ZM2511.5,158.6h-7.2l-1.3-4.2h-8.7l-1.4,4.2h-7.2l10.2-28.2h5.3l10.2,28.2h0ZM2501.1,148.6l-2.4-7.5-2.6,7.5h5ZM2536.6,158.6h-8.1l-5-10.5h-2.4v10.5h-6.9v-28.2h11.2c3,0,5.3.9,7,2.7s2.6,3.9,2.6,6.4-.4,3.3-1.3,4.6c-.9,1.2-2,2.2-3.2,2.8l6.1,11.8h0ZM2527.4,141.5c.6-.6.8-1.2.8-2s-.3-1.4-.8-2c-.6-.6-1.3-.9-2.2-.9h-3.9v5.7h3.9c.9,0,1.6-.3,2.2-.8ZM2558.7,136.6h-6.9v22h-6.9v-22h-6.9v-6.2h20.8v6.2h-.1ZM2583.6,148.7c0,3-1.1,5.4-3.1,7.3-2,1.9-4.6,2.8-7.6,2.8s-5.5-.9-7.6-2.8c-2-1.9-3-4.3-3-7.3v-18.3h6.9v18.1c0,1.3.3,2.3,1,3.1.7.7,1.6,1.1,2.7,1.1s2.1-.4,2.8-1.1c.7-.7,1-1.8,1-3.1v-18.1h6.9v18.3h0ZM2607.1,133.1c1.7,1.8,2.6,3.9,2.6,6.4s-.9,4.6-2.6,6.4c-1.7,1.8-4.1,2.6-7.1,2.6h-4.2v10.1h-6.9v-28.2h11.1c3,0,5.3.9,7.1,2.7h0ZM2601.9,141.5c.6-.6.8-1.2.8-2s-.3-1.4-.8-2c-.6-.6-1.3-.9-2.2-.9h-3.9v5.7h3.9c.9,0,1.6-.3,2.2-.8ZM2640.7,133.1c1.7,1.8,2.6,3.9,2.6,6.4s-.9,4.6-2.6,6.4c-1.7,1.8-4.1,2.6-7,2.6h-4.2v10.1h-6.9v-28.2h11.2c3,0,5.3.9,7,2.7h-.1ZM2635.5,141.5c.6-.6.8-1.2.8-2s-.3-1.4-.8-2c-.6-.6-1.3-.9-2.2-.9h-3.9v5.7h3.9c.9,0,1.6-.3,2.2-.8ZM2668.3,158.6h-7.3l-1.3-4.2h-8.7l-1.4,4.2h-7.3l10.3-28.2h5.3l10.2,28.2h.2ZM2657.9,148.6l-2.4-7.5-2.5,7.5h4.9ZM2693.4,158.6h-8l-5-10.5h-2.3v10.5h-6.9v-28.2h11.2c3,0,5.3.9,7,2.7s2.6,3.9,2.6,6.4-.4,3.3-1.3,4.6c-.9,1.2-2,2.2-3.2,2.8l6.1,11.8h-.2ZM2684.2,141.5c.6-.6.8-1.2.8-2s-.3-1.4-.8-2c-.6-.6-1.3-.9-2.2-.9h-3.9v5.7h3.9c.9,0,1.6-.3,2.2-.8ZM2715.5,136.6h-6.9v22h-6.9v-22h-6.9v-6.2h20.8v6.2h-.1ZM2741.6,158.6h-6.1l-9-14.2v14.2h-6.9v-28.2h6.1l9,14.2v-14.2h6.9v28.2ZM2766.4,158.6h-19.1v-28.2h19.1v6.2h-12.2v4.7h10.4v6.2h-10.4v4.9h12.2v6.2h0ZM2793.7,158.6h-8.1l-5-10.5h-2.3v10.5h-6.9v-28.2h11.2c3,0,5.3.9,7,2.7s2.6,3.9,2.6,6.4-.4,3.3-1.3,4.6c-.9,1.2-2,2.2-3.2,2.8l6.1,11.8h-.1ZM2784.4,141.5c.6-.6.8-1.2.8-2s-.3-1.4-.8-2c-.6-.6-1.3-.9-2.2-.9h-3.9v5.7h3.9c.9,0,1.6-.3,2.2-.8ZM2816.1,149.9c0,2.8-1.1,4.9-3.1,6.5-2.1,1.6-4.7,2.3-7.8,2.3s-4.4-.3-6.1-.8c-1.7-.6-3.2-1.5-4.6-2.9l4.4-4.4c1.3,1.3,3.4,2,6.3,2s4-.8,4-2.5-.2-1.3-.6-1.7c-.4-.4-1-.6-1.9-.8l-3.4-.5c-2.5-.4-4.4-1.2-5.7-2.5s-1.9-3.2-1.9-5.7.9-4.8,2.8-6.4c1.9-1.7,4.4-2.5,7.5-2.5s7.3,1.1,9.5,3.4l-4.4,4.4c-.7-.7-1.4-1.1-2.3-1.4-.8-.2-1.8-.3-3.1-.3s-2,.3-2.5.8c-.6.5-.9,1.1-.9,1.8s.2.9.6,1.3c.5.4,1.1.7,2,.8l3.4.5c2.5.3,4.3,1.1,5.5,2.3,1.4,1.4,2.1,3.4,2.1,6.2h.2ZM2841.9,158.6h-6.9v-11.2h-7.4v11.2h-6.9v-28.2h6.9v10.9h7.4v-10.9h6.9v28.2ZM2854.5,158.6h-6.9v-28.2h6.9v28.2ZM2878.4,133.1c1.7,1.8,2.6,3.9,2.6,6.4s-.9,4.6-2.6,6.4c-1.7,1.8-4.1,2.6-7.1,2.6h-4.2v10.1h-6.9v-28.2h11.1c3,0,5.3.9,7.1,2.7h0ZM2873.2,141.5c.6-.6.8-1.2.8-2s-.3-1.4-.8-2c-.6-.6-1.3-.9-2.2-.9h-3.9v5.7h3.9c.9,0,1.6-.3,2.2-.8ZM2920.1,158.6h-6.9v-13.5l-4,7h-4.4l-4-7v13.5h-6.9v-28.2h6.8l6.3,12.4,6.3-12.4h6.8v28.2h0ZM2946.2,141v6.8c0,.8-.1,1.7-.3,2.8s-.5,2-.9,2.8-1,1.5-1.6,2.2c-2.1,2.1-4.7,3.1-7.9,3.1s-5.8-1-7.8-3.1c-.7-.7-1.2-1.4-1.7-2.2-.4-.8-.7-1.7-.9-2.8s-.3-2-.3-2.8v-6.8c0-.8.1-1.7.3-2.8.1-1.1.4-2,.9-2.8.4-.8,1-1.5,1.7-2.2,2.1-2.1,4.7-3.1,7.8-3.1s5.8,1,7.9,3.1c.7.7,1.2,1.4,1.6,2.2.4.8.7,1.7.9,2.8s.2,2,.3,2.8ZM2939.1,149.3c.1-.9.2-2.5.2-4.9s0-4-.2-4.9c-.1-.9-.4-1.6-.8-2.1-.6-.8-1.6-1.2-2.8-1.2s-2.1.4-2.8,1.2c-.4.5-.6,1.2-.8,2.1-.1.9-.2,2.5-.2,4.9s0,4,.2,4.9.4,1.5.8,2c.6.8,1.6,1.3,2.8,1.3s2.1-.4,2.8-1.3c.4-.5.6-1.1.8-2ZM2971.8,138.5c.2,1.2.2,3.2.2,6s0,4.8-.2,6c-.1,1.2-.5,2.3-1.1,3.3-2,3.2-5,4.8-9.1,4.8h-10.4v-28.2h10.4c4.2,0,7.2,1.6,9.1,4.8.6,1,1,2.1,1.1,3.4h0ZM2965,149c.1-.8.1-2.3.1-4.6s0-3.8-.1-4.6-.3-1.4-.6-1.8c-.7-1.1-1.8-1.6-3.3-1.6h-3.1v15.8h3.1c1.5,0,2.6-.5,3.3-1.6.3-.4.5-1,.6-1.8h0v.2h0ZM2996,158.6h-19.1v-28.2h19.1v6.2h-12.2v4.7h10.4v6.2h-10.4v4.9h12.2v6.2h0ZM3019.7,158.6h-18.8v-28.2h6.9v22h11.8v6.2h.1ZM3042.6,149.9c0,2.8-1,4.9-3.1,6.5-2,1.6-4.6,2.3-7.8,2.3s-4.4-.3-6.1-.8c-1.7-.6-3.2-1.5-4.6-2.9l4.4-4.4c1.3,1.3,3.4,2,6.3,2s4.1-.8,4.1-2.5-.2-1.3-.6-1.7c-.4-.4-1-.6-1.9-.8l-3.4-.5c-2.5-.4-4.4-1.2-5.6-2.5-1.3-1.3-1.9-3.2-1.9-5.7s.9-4.8,2.8-6.4c1.9-1.7,4.4-2.5,7.5-2.5s7.3,1.1,9.5,3.4l-4.4,4.4c-.7-.7-1.4-1.1-2.3-1.4-.8-.2-1.8-.3-3.1-.3s-2,.3-2.6.8-.9,1.1-.9,1.8.2.9.6,1.3c.4.4,1.1.7,1.9.8l3.4.5c2.5.3,4.3,1.1,5.5,2.3,1.4,1.4,2.1,3.4,2.1,6.2h.2Z"/>
  <path class="st2" d="M665.7,149.6c-.5,3-1.7,5.3-3.6,6.9-1.9,1.6-4.2,2.3-7,2.3s-5.8-1-7.8-3.1-1.2-1.4-1.7-2.2c-.4-.8-.7-1.7-.9-2.8s-.3-2-.3-2.8v-6.8c0-.8.2-1.7.3-2.8.2-1.1.5-2,.9-2.8s1-1.5,1.7-2.2c2.1-2.1,4.7-3.1,7.8-3.1s5.1.8,7,2.3c1.9,1.6,3.1,3.8,3.6,6.9h-7c-.5-2-1.8-3-3.6-3s-2.1.4-2.7,1.2c-.4.5-.7,1.2-.8,2.1-.2.9-.2,2.5-.2,4.9s0,4,.2,4.9.5,1.6.8,2.1c.6.8,1.5,1.2,2.7,1.2,1.8,0,3-1,3.6-3h7v-.2h0ZM690.1,141v6.8c0,.8,0,1.7-.3,2.8s-.5,2-.9,2.8-1,1.5-1.7,2.2c-2.1,2.1-4.7,3.1-7.8,3.1s-5.8-1-7.8-3.1-1.2-1.4-1.7-2.2c-.4-.8-.7-1.7-.9-2.8s-.3-2-.3-2.8v-6.8c0-.8.2-1.7.3-2.8.2-1.1.5-2,.9-2.8s1-1.5,1.7-2.2c2.1-2.1,4.7-3.1,7.8-3.1s5.8,1,7.8,3.1,1.2,1.4,1.7,2.2c.4.8.7,1.7.9,2.8s.2,2,.3,2.8ZM683,149.3c.2-.9.2-2.5.2-4.9s0-4-.2-4.9-.4-1.6-.8-2.1c-.6-.8-1.6-1.2-2.8-1.2s-2.1.4-2.8,1.2c-.4.5-.6,1.2-.8,2.1-.2.9-.2,2.5-.2,4.9s0,4,.2,4.9.4,1.5.8,2c.6.8,1.6,1.3,2.8,1.3s2.1-.4,2.8-1.3c.4-.5.6-1.1.8-2ZM717.2,158.6h-8l-5-10.5h-2.3v10.5h-6.9v-28.2h11.2c3,0,5.3.9,7,2.7s2.6,3.9,2.6,6.4-.5,3.3-1.3,4.6c-.9,1.2-2,2.2-3.2,2.8l6.1,11.8h-.2,0ZM707.9,141.5c.5-.6.8-1.2.8-2s-.3-1.4-.8-2-1.3-.9-2.2-.9h-3.9v5.7h3.9c.9,0,1.6-.3,2.2-.8ZM738.9,133.1c1.7,1.8,2.6,3.9,2.6,6.4s-.9,4.6-2.6,6.4c-1.7,1.8-4.1,2.6-7,2.6h-4.2v10.1h-6.9v-28.2h11.2c3,0,5.3.9,7,2.7h0ZM733.8,141.5c.5-.6.8-1.2.8-2s-.3-1.4-.8-2-1.3-.9-2.2-.9h-3.9v5.7h3.9c.9,0,1.6-.3,2.2-.8ZM766,141v6.8c0,.8,0,1.7-.3,2.8s-.5,2-.9,2.8-1,1.5-1.7,2.2c-2.1,2.1-4.7,3.1-7.8,3.1s-5.8-1-7.8-3.1-1.2-1.4-1.7-2.2c-.4-.8-.7-1.7-.9-2.8s-.3-2-.3-2.8v-6.8c0-.8.2-1.7.3-2.8.2-1.1.5-2,.9-2.8s1-1.5,1.7-2.2c2.1-2.1,4.7-3.1,7.8-3.1s5.8,1,7.8,3.1,1.2,1.4,1.7,2.2c.4.8.7,1.7.9,2.8s.2,2,.3,2.8ZM758.9,149.3c.2-.9.2-2.5.2-4.9s0-4-.2-4.9-.4-1.6-.8-2.1c-.6-.8-1.6-1.2-2.8-1.2s-2.1.4-2.8,1.2c-.4.5-.6,1.2-.8,2.1-.2.9-.2,2.5-.2,4.9s0,4,.2,4.9.4,1.5.8,2c.6.8,1.6,1.3,2.8,1.3s2.1-.4,2.8-1.3c.4-.5.6-1.1.8-2ZM793.2,158.6h-8l-5-10.5h-2.3v10.5h-6.9v-28.2h11.2c3,0,5.3.9,7,2.7s2.6,3.9,2.6,6.4-.5,3.3-1.3,4.6c-.9,1.2-2,2.2-3.2,2.8l6.1,11.8h-.2,0ZM783.9,141.5c.5-.6.8-1.2.8-2s-.3-1.4-.8-2-1.3-.9-2.2-.9h-3.9v5.7h3.9c.9,0,1.6-.3,2.2-.8ZM819.7,158.6h-7.2l-1.3-4.2h-8.7l-1.4,4.2h-7.2l10.2-28.2h5.3l10.2,28.2h.1ZM809.3,148.6l-2.4-7.5-2.5,7.5h4.9ZM838.9,136.6h-6.9v22h-6.9v-22h-6.9v-6.2h20.8v6.2h0ZM862.1,158.6h-19.2v-28.2h19.2v6.2h-12.2v4.7h10.5v6.2h-10.5v4.9h12.2v6.2h0ZM894.7,149.9c0,2.8-1,4.9-3.1,6.5s-4.6,2.3-7.8,2.3-4.3-.3-6.1-.8c-1.7-.6-3.2-1.5-4.6-2.9l4.4-4.4c1.3,1.3,3.4,2,6.3,2s4-.8,4-2.5-.2-1.3-.5-1.7c-.4-.4-1-.6-1.9-.8l-3.4-.5c-2.5-.4-4.4-1.2-5.7-2.5s-1.9-3.2-1.9-5.7.9-4.8,2.8-6.4c1.9-1.7,4.4-2.5,7.5-2.5s7.3,1.1,9.5,3.4l-4.3,4.4c-.7-.7-1.4-1.1-2.3-1.4-.8-.2-1.8-.3-3.1-.3s-2,.3-2.5.8-.9,1.1-.9,1.8.2.9.5,1.3c.5.4,1.1.7,1.9.8l3.4.5c2.5.3,4.3,1.1,5.5,2.3,1.4,1.4,2.1,3.4,2.1,6.2h.2,0ZM918.3,136.6h-6.9v22h-6.9v-22h-6.9v-6.2h20.8v6.2h0ZM942.6,158.6h-7.2l-1.3-4.2h-8.7l-1.4,4.2h-7.2l10.2-28.2h5.3l10.2,28.2h.1ZM932.2,148.6l-2.4-7.5-2.5,7.5h4.9ZM967.8,158.6h-8l-5-10.5h-2.3v10.5h-6.9v-28.2h11.2c3,0,5.3.9,7,2.7s2.6,3.9,2.6,6.4-.5,3.3-1.3,4.6c-.9,1.2-2,2.2-3.2,2.8l6.1,11.8h-.2,0ZM958.5,141.5c.5-.6.8-1.2.8-2s-.3-1.4-.8-2-1.3-.9-2.2-.9h-3.9v5.7h3.9c.9,0,1.6-.3,2.2-.8ZM989.8,136.6h-6.9v22h-6.9v-22h-6.9v-6.2h20.8v6.2h0ZM1014.8,148.7c0,3-1,5.4-3.1,7.3-2.1,1.9-4.6,2.8-7.6,2.8s-5.5-.9-7.6-2.8c-2-1.9-3-4.3-3-7.3v-18.3h6.9v18.1c0,1.3.3,2.3,1,3.1.7.7,1.6,1.1,2.7,1.1s2.1-.4,2.8-1.1c.7-.7,1-1.8,1-3.1v-18.1h6.9v18.3h0ZM1038.2,133.1c1.7,1.8,2.6,3.9,2.6,6.4s-.9,4.6-2.6,6.4c-1.7,1.8-4.1,2.6-7.1,2.6h-4.2v10.1h-6.9v-28.2h11.2c3,0,5.3.9,7.1,2.7h0ZM1033,141.5c.6-.6.8-1.2.8-2s-.3-1.4-.8-2c-.6-.6-1.3-.9-2.2-.9h-3.9v5.7h3.9c.9,0,1.6-.3,2.2-.8ZM1072.7,158.6h-19.2v-28.2h19.2v6.2h-12.2v4.7h10.4v6.2h-10.4v4.9h12.2v6.2h0ZM1099.7,158.6h-6.1l-9-14.2v14.2h-6.9v-28.2h6.1l9,14.2v-14.2h6.9v28.2ZM1126.2,146.2c0,2.3-.2,4.2-.6,5.6s-1.2,2.7-2.2,3.8c-2,2.1-4.8,3.2-8.2,3.2s-5.7-1-7.8-3.1c-.7-.7-1.2-1.4-1.7-2.2-.4-.8-.7-1.7-.9-2.8s-.3-2-.3-2.8v-6.8c0-.8.2-1.7.3-2.8.2-1.1.4-2,.9-2.8s1-1.5,1.7-2.2c2.1-2.1,4.7-3.1,7.8-3.1s5.9.9,7.7,2.7c1.8,1.8,2.9,4,3.3,6.6h-7c-.3-1.1-.8-1.9-1.4-2.4s-1.5-.8-2.7-.8-2.1.4-2.7,1.2c-.4.5-.6,1.2-.8,2.1-.2.9-.2,2.5-.2,4.9s0,4,.2,4.9.4,1.6.8,2.1c.6.8,1.5,1.2,2.7,1.2s2.4-.4,3.1-1.1c.7-.7,1.1-1.7,1.1-3v-.4h-4.2v-5.8h11v3.9h0ZM1153.6,158.6h-7.2l-1.3-4.2h-8.7l-1.4,4.2h-7.2l10.2-28.2h5.3l10.2,28.2h0ZM1143.2,148.6l-2.4-7.5-2.5,7.5h4.9ZM1176.9,146.2c0,2.3-.2,4.2-.6,5.6s-1.2,2.7-2.2,3.8c-2,2.1-4.8,3.2-8.2,3.2s-5.7-1-7.8-3.1c-.7-.7-1.2-1.4-1.7-2.2-.4-.8-.7-1.7-.9-2.8s-.3-2-.3-2.8v-6.8c0-.8.2-1.7.3-2.8.2-1.1.4-2,.9-2.8s1-1.5,1.7-2.2c2.1-2.1,4.7-3.1,7.8-3.1s5.9.9,7.7,2.7c1.8,1.8,2.9,4,3.3,6.6h-7c-.3-1.1-.8-1.9-1.4-2.4s-1.5-.8-2.7-.8-2.1.4-2.7,1.2c-.4.5-.6,1.2-.8,2.1-.2.9-.2,2.5-.2,4.9s0,4,.2,4.9.4,1.6.8,2.1c.6.8,1.5,1.2,2.7,1.2s2.4-.4,3.1-1.1c.7-.7,1.1-1.7,1.1-3v-.4h-4.2v-5.8h11v3.9h0ZM1200.9,158.6h-19.2v-28.2h19.2v6.2h-12.2v4.7h10.4v6.2h-10.4v4.9h12.2v6.2h0ZM1232.1,158.6h-6.9v-13.5l-4,7h-4.4l-4-7v13.5h-6.9v-28.2h6.8l6.3,12.4,6.3-12.4h6.8v28.2h0ZM1256.9,158.6h-19.2v-28.2h19.2v6.2h-12.2v4.7h10.4v6.2h-10.4v4.9h12.2v6.2h0ZM1283.9,158.6h-6.1l-9-14.2v14.2h-6.9v-28.2h6.1l9,14.2v-14.2h6.9v28.2ZM1308.7,136.6h-6.9v22h-6.9v-22h-6.9v-6.2h20.8v6.2h0ZM1339.7,133.1c1.7,1.8,2.6,3.9,2.6,6.4s-.9,4.6-2.6,6.4c-1.7,1.8-4.1,2.6-7.1,2.6h-4.2v10.1h-6.9v-28.2h11.2c3,0,5.3.9,7.1,2.7h0ZM1334.5,141.5c.6-.6.8-1.2.8-2s-.3-1.4-.8-2c-.6-.6-1.3-.9-2.2-.9h-3.9v5.7h3.9c.9,0,1.6-.3,2.2-.8ZM1368.6,158.6h-8l-5-10.5h-2.3v10.5h-6.9v-28.2h11.2c3,0,5.3.9,7.1,2.7,1.7,1.8,2.6,3.9,2.6,6.4s-.4,3.3-1.3,4.6c-.9,1.2-2,2.2-3.2,2.8l6.1,11.8h-.3,0ZM1359.3,141.5c.6-.6.8-1.2.8-2s-.3-1.4-.8-2c-.6-.6-1.3-.9-2.2-.9h-3.9v5.7h3.9c.9,0,1.6-.3,2.2-.8ZM1392.2,141v6.8c0,.8,0,1.7-.3,2.8s-.4,2-.9,2.8-1,1.5-1.7,2.2c-2.1,2.1-4.7,3.1-7.8,3.1s-5.8-1-7.8-3.1c-.7-.7-1.2-1.4-1.7-2.2-.4-.8-.7-1.7-.9-2.8s-.3-2-.3-2.8v-6.8c0-.8.2-1.7.3-2.8.2-1.1.4-2,.9-2.8s1-1.5,1.7-2.2c2.1-2.1,4.7-3.1,7.8-3.1s5.8,1,7.8,3.1c.7.7,1.2,1.4,1.7,2.2.4.8.7,1.7.9,2.8s.2,2,.3,2.8ZM1385.1,149.3c.2-.9.2-2.5.2-4.9s0-4-.2-4.9-.4-1.6-.8-2.1c-.6-.8-1.6-1.2-2.8-1.2s-2.1.4-2.8,1.2c-.4.5-.6,1.2-.8,2.1-.2.9-.2,2.5-.2,4.9s0,4,.2,4.9.4,1.5.8,2c.6.8,1.6,1.3,2.8,1.3s2.1-.4,2.8-1.3c.4-.5.6-1.1.8-2ZM1418.1,146.2c0,2.3-.2,4.2-.6,5.6s-1.2,2.7-2.2,3.8c-2,2.1-4.8,3.2-8.2,3.2s-5.7-1-7.8-3.1c-.7-.7-1.2-1.4-1.7-2.2-.4-.8-.7-1.7-.9-2.8s-.3-2-.3-2.8v-6.8c0-.8.2-1.7.3-2.8.2-1.1.4-2,.9-2.8s1-1.5,1.7-2.2c2.1-2.1,4.7-3.1,7.8-3.1s5.9.9,7.7,2.7c1.8,1.8,2.9,4,3.3,6.6h-7c-.3-1.1-.8-1.9-1.4-2.4s-1.5-.8-2.7-.8-2.1.4-2.7,1.2c-.4.5-.6,1.2-.8,2.1-.2.9-.2,2.5-.2,4.9s0,4,.2,4.9.4,1.6.8,2.1c.6.8,1.5,1.2,2.7,1.2s2.4-.4,3.1-1.1c.7-.7,1.1-1.7,1.1-3v-.4h-4.2v-5.8h11v3.9h0ZM1445.2,158.6h-8l-5-10.5h-2.3v10.5h-6.9v-28.2h11.2c3,0,5.3.9,7.1,2.7,1.7,1.8,2.6,3.9,2.6,6.4s-.4,3.3-1.3,4.6c-.9,1.2-2,2.2-3.2,2.8l6.1,11.8h-.3,0ZM1435.9,141.5c.6-.6.8-1.2.8-2s-.3-1.4-.8-2c-.6-.6-1.3-.9-2.2-.9h-3.9v5.7h3.9c.9,0,1.6-.3,2.2-.8ZM1471.7,158.6h-7.2l-1.3-4.2h-8.7l-1.4,4.2h-7.2l10.2-28.2h5.3l10.2,28.2h0ZM1461.3,148.6l-2.4-7.5-2.5,7.5h4.9ZM1500.8,158.6h-6.9v-13.5l-4,7h-4.4l-4-7v13.5h-6.9v-28.2h6.8l6.3,12.4,6.3-12.4h6.8v28.2h0ZM1525.4,149.9c0,2.8-1,4.9-3.1,6.5s-4.6,2.3-7.8,2.3-4.3-.3-6.1-.8c-1.7-.6-3.2-1.5-4.6-2.9l4.4-4.4c1.3,1.3,3.4,2,6.3,2s4-.8,4-2.5-.2-1.3-.6-1.7-1-.6-1.9-.8l-3.4-.5c-2.5-.4-4.4-1.2-5.7-2.5-1.3-1.3-1.9-3.2-1.9-5.7s.9-4.8,2.8-6.4c1.9-1.7,4.4-2.5,7.5-2.5s7.3,1.1,9.5,3.4l-4.3,4.4c-.7-.7-1.4-1.1-2.3-1.4-.8-.2-1.8-.3-3.1-.3s-1.9.3-2.5.8-.9,1.1-.9,1.8.2.9.6,1.3c.4.4,1.1.7,1.9.8l3.4.5c2.5.3,4.3,1.1,5.5,2.3,1.4,1.4,2.1,3.4,2.1,6.2h.2Z"/>
  <g class="st6">
    <g class="st6">
      <path class="st5" d="M18.3,138.7L.2,87h11.5l11.3,34.8,11.3-34.8h11.5l-18,51.7h-9.5Z"/>
      <path class="st5" d="M51.1,138.7v-51.7h32.2v8.9h-21.7v11.6h19.5v8.8h-19.5v13.5h21.7v8.8h-32.2Z"/>
      <path class="st5" d="M119.5,119.4v-32.4h10v51.7h-8.8l-20.1-32v32h-10v-51.7h8.7l20.2,32.4Z"/>
      <path class="st5" d="M135.2,95.9v-8.9h38.9v8.9h-14.2v42.8h-10.5v-42.8h-14.2Z"/>
      <path class="st5" d="M209,117.8v-30.8h10.5v30.7c0,7.1-1.8,12.5-5.3,16.2-3.5,3.6-8.4,5.5-14.6,5.5s-11-1.8-14.6-5.4c-3.5-3.6-5.3-9-5.3-16.1v-30.8h10.5v30.8c0,4.4.7,7.6,2.2,9.7,1.5,2,3.9,3.1,7.1,3.1s5.6-1,7.1-3.1c1.5-2,2.2-5.3,2.2-9.7h.2Z"/>
      <path class="st5" d="M258.7,116.6l10.7,22h-11.5l-9.3-20.3h-8.4v20.3h-10.5v-51.7h18.5c6.1,0,10.9,1.4,14.3,4.1s5.1,6.6,5.1,11.7-2.9,11.4-8.8,13.9h-.1ZM240.2,95.9v13.6h7c3.4,0,5.9-.5,7.5-1.5,1.5-1,2.3-2.7,2.3-5.2s-.8-4.3-2.4-5.3-4.1-1.6-7.5-1.6h-7,0Z"/>
      <path class="st5" d="M275.9,138.7v-51.7h32.2v8.9h-21.7v11.6h19.5v8.8h-19.5v13.5h21.7v8.8h-32.2Z"/>
    </g>
  </g>
  <g>
    <g>
      <path class="st5" d="M58.3,152.4c11.9,0,18,4.4,18,13.2s-3,9.4-7.4,11c5.7,1.6,9,5.6,9,12s-4.8,14.6-18,14.6h-17.9v-50.8h16.4-.1ZM50.5,173.2h8.3c6.4,0,9-2.9,9-7.1s-2-6.4-10.1-6.4h-7.3v13.4h0ZM50.5,195.9h8.9c6.8,0,10-2.8,10-7.7s-3.5-7.7-11-7.7h-7.9v15.3h0Z"/>
      <path class="st7" d="M59.9,203.7h-18.4v-51.7h16.8c12.2,0,18.4,4.6,18.4,13.6s-2.7,9.6-6.5,11c5.3,2,8.2,6.1,8.2,12s-5.7,15-18.5,15h0ZM42.4,202.8h17.5c13.9,0,17.6-8.9,17.6-14.2s-3-9.9-8.7-11.6l-1.3-.4,2-.7c4-1.4,6.4-2.3,6.4-10.4s-5.9-12.7-17.6-12.7h-15.9v49.9h0ZM59.4,196.3h-9.3v-16.3h8.3c9.5,0,11.5,4.4,11.5,8.2s-1.8,8.2-10.5,8.2h0ZM51,195.4h8.4c6.4,0,9.6-2.4,9.6-7.3s-3.6-7.3-10.6-7.3h-7.4v14.5h0ZM58.8,173.7h-8.9v-14.3h7.7c7.7,0,10.6,1.9,10.6,6.8s-3.3,7.5-9.4,7.5ZM50.9,172.8h8c5.6,0,8.5-2.2,8.5-6.6s-1.5-5.9-9.7-5.9h-6.8v12.5Z"/>
    </g>
    <g>
      <path class="st5" d="M124.3,152.4v30.2c0,15-7.7,21.3-19,21.3s-19-6.3-19-21.2v-30.3h8.5v30.3c0,9.8,3.5,13.8,10.5,13.8s10.5-4,10.5-13.8v-30.3h8.5Z"/>
      <path class="st7" d="M105.3,204.4c-12.5,0-19.4-7.7-19.4-21.7v-30.7h9.4v30.7c0,9.2,3.1,13.3,10,13.3s10-4.1,10-13.3v-30.7h9.4v30.6c0,14.1-6.9,21.8-19.4,21.8h0ZM86.8,152.9v29.8c0,13.6,6.4,20.8,18.5,20.8s18.5-7.3,18.5-20.9v-29.7h-7.6v29.8c0,9.7-3.5,14.2-10.9,14.2s-10.9-4.6-10.9-14.2v-29.8h-7.6Z"/>
    </g>
    <g>
      <path class="st5" d="M144.8,203.3h-8.5v-50.8h8.5v50.8Z"/>
      <path class="st7" d="M145.3,203.8h-9.4v-51.7h9.4v51.7ZM136.8,202.9h7.6v-49.9h-7.6v49.9Z"/>
    </g>
    <g>
      <path class="st5" d="M165.2,195.9h22.6v7.3h-31.2v-50.8h8.5v43.4h0Z"/>
      <path class="st7" d="M188.3,203.7h-32.1v-51.7h9.4v43.4h22.7v8.2h0ZM157.1,202.8h30.3v-6.4h-22.7v-43.4h-7.6v49.9h0Z"/>
    </g>
    <g>
      <path class="st5" d="M193.7,203.3v-50.8h17.2c11.4,0,19.1,6.1,19.1,22.4v6c0,16.3-7.7,22.4-19.1,22.4h-17.2ZM221.4,180.9v-6c0-10.5-3.2-15-10.6-15h-8.6v36h8.6c7.3,0,10.6-4.6,10.6-15Z"/>
      <path class="st7" d="M210.9,203.8h-17.6v-51.7h17.6c13,0,19.5,7.7,19.5,22.8v6c0,15.1-6.5,22.8-19.5,22.8h0ZM194.2,202.9h16.8c12.4,0,18.6-7.3,18.6-21.9v-6c0-14.6-6.3-21.9-18.6-21.9h-16.8v49.9h0ZM210.8,196.4h-9v-36.9h9c7.6,0,11,4.7,11,15.4v6c0,10.7-3.4,15.5-11,15.5ZM202.7,195.5h8.2c7,0,10.1-4.5,10.1-14.6v-6c0-10.2-3-14.5-10.1-14.5h-8.2v35.1Z"/>
    </g>
    <g>
      <path class="st5" d="M270.2,152.4v7.4h-22.6v13.4h20.4v7.3h-20.4v15.2h22.6v7.3h-31.2v-50.8h31.2v.2Z"/>
      <path class="st7" d="M270.7,203.7h-32.1v-51.7h32.1v8.3h-22.6v12.5h20.4v8.2h-20.4v14.3h22.6v8.4ZM239.5,202.8h30.3v-6.4h-22.6v-16.1h20.4v-6.4h-20.4v-14.3h22.6v-6.5h-30.3v49.9h0v-.2Z"/>
    </g>
    <g>
      <path class="st5" d="M306.6,203.3l-9.8-20.6h-9.9v20.6h-8.5v-50.8h17.3c11.7,0,18.7,5.1,18.7,15.1s-3.3,11.5-9.2,13.6l10.8,22h-9.5.1ZM295,175.3c7.3,0,10.7-1.9,10.7-7.7s-3.5-7.7-10.7-7.7h-8.2v15.4h8.2Z"/>
      <path class="st7" d="M316.8,203.8h-10.5l-9.8-20.6h-9.1v20.6h-9.4v-51.7h17.7c12.4,0,19.2,5.6,19.2,15.6s-3.1,11.6-9,13.9l10.9,22.2h0ZM306.9,202.9h8.5l-10.7-21.9.4-.2c5.6-2.1,9-3.2,9-13.2s-6.4-14.7-18.3-14.7h-16.8v49.9h7.6v-20.6h10.6l9.8,20.6h-.1ZM295,175.7h-8.6v-16.3h8.6c8,0,11.2,2.3,11.2,8.2s-3.2,8.2-11.2,8.2h0ZM287.3,174.8h7.7c7.4,0,10.3-2.1,10.3-7.3s-2.9-7.3-10.3-7.3h-7.7v14.5h0Z"/>
    </g>
  </g>
</svg>