<?xml version="1.0" encoding="UTF-8"?>
<svg id="Layer_2" data-name="Layer 2" xmlns="http://www.w3.org/2000/svg" xmlns:xlink="http://www.w3.org/1999/xlink" viewBox="0 0 1283.96 73.09">
  <defs>
    <style>
      .cls-1 {
        fill: #010101;
      }

      .cls-2 {
        fill: url(#linear-gradient);
        fill-rule: evenodd;
      }
    </style>
    <linearGradient id="linear-gradient" x1="1475.28" y1="-3121.35" x2="745.21" y2="-3121.35" gradientTransform="translate(0 -3085.06) scale(1 -1)" gradientUnits="userSpaceOnUse">
      <stop offset="0" stop-color="#d9d8d7"/>
      <stop offset="1" stop-color="#0d0e0e" stop-opacity="0"/>
    </linearGradient>
  </defs>
  <g id="Layer_1-2" data-name="Layer 1">
    <g>
      <path class="cls-2" d="M1237.74,0H417.56v72.57h820.22v-.02l46.18-35.98L1237.78.02v-.02h-.04Z"/>
      <path class="cls-1" d="M52.86,9.94l-20.76,62.63h-11.43L0,9.94h15.92l10.56,35.01,10.38-35.01h16.01ZM101.73,72.57h-42.57V9.94h42.57v13.72h-27.18v10.47h23.22v13.72h-23.22v10.99h27.18v13.72ZM161.58,72.57h-13.46l-20.05-31.49v31.49h-15.39V9.94h13.46l20.05,31.49V9.94h15.39v62.63ZM216.75,23.66h-15.39v48.91h-15.39V23.66h-15.39v-13.72h46.18v13.72ZM272.16,50.58c0,6.69-2.32,12.12-6.95,16.27-4.57,4.16-10.2,6.25-16.89,6.25s-12.31-2.09-16.89-6.25c-4.51-4.16-6.77-9.59-6.77-16.27V9.94h15.39v40.29c0,2.88.73,5.12,2.2,6.77,1.47,1.58,3.49,2.37,6.07,2.37s4.63-.79,6.16-2.37c1.52-1.65,2.29-3.89,2.29-6.77V9.94h15.39v40.64ZM333.31,72.57h-17.86l-11.08-23.31h-5.19v23.31h-15.39V9.94h24.8c6.63,0,11.85,2,15.66,5.98,3.81,3.94,5.72,8.64,5.72,14.16,0,3.94-1,7.3-2.99,10.12-1.99,2.75-4.4,4.84-7.21,6.25l13.55,26.12ZM312.72,34.57c1.23-1.3,1.85-2.79,1.85-4.49s-.62-3.17-1.85-4.4c-1.23-1.3-2.84-1.94-4.84-1.94h-8.71v12.67h8.71c1.99,0,3.61-.62,4.84-1.85ZM383.74,72.57h-42.57V9.94h42.57v13.72h-27.18v10.47h23.22v13.72h-23.22v10.99h27.18v13.72ZM472.58,72.57h-15.39v-29.99l-8.88,15.48h-9.85l-8.88-15.48v29.99h-15.39V9.94h15.13l14.07,27.62,14.07-27.62h15.13v62.63ZM536.32,72.57h-16.1l-2.9-9.32h-19.26l-3.08,9.32h-16.1l22.78-62.63h11.87l22.78,62.63ZM513.28,50.4l-5.28-16.71-5.63,16.71h10.91ZM578.98,23.66h-15.39v48.91h-15.39V23.66h-15.39v-13.72h46.18v13.72ZM634.4,50.58c0,6.69-2.33,12.12-6.95,16.27-4.57,4.16-10.2,6.25-16.89,6.25s-12.31-2.09-16.89-6.25c-4.53-4.16-6.78-9.59-6.78-16.27V9.94h15.4v40.29c0,2.88.73,5.12,2.2,6.77,1.45,1.58,3.47,2.37,6.07,2.37s4.62-.79,6.16-2.37c1.52-1.65,2.29-3.89,2.29-6.77V9.94h15.39v40.64ZM695.54,72.57h-17.86l-11.08-23.31h-5.19v23.31h-15.39V9.94h24.8c6.64,0,11.85,2,15.66,5.98,3.83,3.94,5.72,8.64,5.72,14.16,0,3.94-.99,7.3-2.99,10.12-1.98,2.75-4.4,4.84-7.21,6.25l13.55,26.12ZM674.95,34.57c1.23-1.3,1.85-2.79,1.85-4.49s-.62-3.17-1.85-4.4c-1.23-1.3-2.84-1.94-4.84-1.94h-8.71v12.67h8.71c2,0,3.61-.62,4.84-1.85ZM718.8,72.57h-15.39V9.94h15.39v62.63ZM773.97,23.66h-15.39v48.91h-15.39V23.66h-15.39v-13.72h46.18v13.72ZM830.69,9.94l-18.91,37.12v25.51h-15.39v-25.51l-18.91-37.12h16.8l9.85,22.52,9.76-22.52h16.8Z"/>
    </g>
  </g>
</svg>