<?xml version="1.0" encoding="UTF-8"?>
<svg id="Layer_2" data-name="Layer 2" xmlns="http://www.w3.org/2000/svg" xmlns:xlink="http://www.w3.org/1999/xlink" viewBox="0 0 149 1430.26">
  <defs>
    <style>
      .cls-1 {
        fill: #010101;
      }

      .cls-2 {
        fill: url(#linear-gradient);
        fill-rule: evenodd;
      }
    </style>
    <linearGradient id="linear-gradient" x1="59.85" y1="846.39" x2="59.86" y2="116.33" gradientTransform="translate(0 655.08) scale(1 -1)" gradientUnits="userSpaceOnUse">
      <stop offset="0" stop-color="#d9d8d7"/>
      <stop offset="1" stop-color="#0d0e0e" stop-opacity="0"/>
    </linearGradient>
  </defs>
  <g id="Layer_1-2" data-name="Layer 1">
    <g>
      <path class="cls-1" d="M.53,1377.4l62.63,20.76v11.43l-62.63,20.67v-15.92l35.01-10.56-35.01-10.38v-16.01ZM63.16,1328.53v42.57H.53v-42.57h13.72v27.18h10.47v-23.22h13.72v23.22h10.99v-27.18h13.72ZM63.16,1268.69v13.46l-31.49,20.05h31.49v15.39H.53v-13.46l31.49-20.05H.53v-15.39h62.63ZM14.25,1213.52v15.39h48.91v15.39H14.25v15.39H.53v-46.18h13.72ZM41.17,1158.1c6.68,0,12.11,2.32,16.27,6.95,4.16,4.57,6.25,10.2,6.25,16.89s-2.08,12.31-6.25,16.89c-4.16,4.52-9.59,6.77-16.27,6.77H.53v-15.39h40.29c2.87,0,5.13-.73,6.77-2.2,1.58-1.46,2.37-3.49,2.37-6.07s-.79-4.63-2.37-6.16c-1.64-1.52-3.9-2.29-6.77-2.29H.53v-15.39h40.64ZM63.16,1096.96v17.86l-23.31,11.08v5.19h23.31v15.39H.53v-24.8c0-6.63,1.99-11.85,5.98-15.66,3.93-3.81,8.65-5.72,14.16-5.72,3.93,0,7.3,1,10.12,2.99,2.76,1.99,4.84,4.4,6.25,7.21l26.12-13.55ZM25.16,1117.54c-1.29-1.23-2.79-1.85-4.49-1.85s-3.17.62-4.4,1.85c-1.29,1.23-1.94,2.84-1.94,4.84v8.71h12.67v-8.71c0-1.99-.62-3.61-1.85-4.84ZM63.16,1046.53v42.57H.53v-42.57h13.72v27.18h10.47v-23.22h13.72v23.22h10.99v-27.18h13.72ZM6.51,975.63c3.93-3.81,8.65-5.72,14.16-5.72s10.26,1.91,14.25,5.72c3.93,3.81,5.89,9.03,5.89,15.66v9.41h22.34v15.39H.53v-24.8c0-6.63,1.99-11.84,5.98-15.66ZM25.16,987.15c-1.29-1.23-2.79-1.85-4.49-1.85s-3.17.62-4.4,1.85c-1.29,1.23-1.94,2.85-1.94,4.84v8.71h12.67v-8.71c0-1.99-.62-3.61-1.85-4.84ZM24.19,915.47c1.7-.12,4.25-.18,7.65-.18s5.95.06,7.65.18c1.7.06,3.75.26,6.16.62,2.4.35,4.49,1,6.25,1.94,1.76.94,3.4,2.17,4.93,3.69,4.57,4.57,6.86,10.38,6.86,17.42s-2.29,12.84-6.86,17.42c-1.52,1.52-3.17,2.76-4.93,3.69-1.76.94-3.84,1.58-6.25,1.94-2.4.35-4.46.59-6.16.7-1.7.06-4.25.09-7.65.09s-5.95-.03-7.65-.09c-1.7-.12-3.75-.35-6.16-.7-2.4-.35-4.49-1-6.25-1.94s-3.4-2.17-4.93-3.69c-4.57-4.57-6.86-10.38-6.86-17.42s2.29-12.84,6.86-17.42c1.52-1.52,3.17-2.76,4.93-3.69,1.76-.94,3.84-1.58,6.25-1.94,2.4-.35,4.46-.56,6.16-.62ZM42.66,931.21c-1.94-.35-5.54-.53-10.82-.53s-8.88.18-10.82.53c-1.99.35-3.52.94-4.57,1.76-1.82,1.41-2.73,3.46-2.73,6.16s.91,4.75,2.73,6.16c1.06.82,2.58,1.41,4.57,1.76,1.94.35,5.54.53,10.82.53s8.88-.18,10.82-.53c1.94-.35,3.43-.94,4.49-1.76,1.88-1.41,2.81-3.46,2.81-6.16s-.94-4.75-2.81-6.16c-1.06-.82-2.55-1.41-4.49-1.76ZM14.25,863.05v15.39h48.91v15.39H14.25v15.39H.53v-46.18h13.72ZM63.16,811.51v42.57H.53v-42.57h13.72v27.18h10.47v-23.22h13.72v23.22h10.99v-27.18h13.72ZM63.16,751.66v13.46l-31.49,20.05h31.49v15.39H.53v-13.46l31.49-20.05H.53v-15.39h62.63ZM14.25,696.5v15.39h48.91v15.39H14.25v15.39H.53v-46.18h13.72ZM63.16,672.13v15.39H.53v-15.39h62.63ZM63.16,608.33v16.1l-9.32,2.9v19.26l9.32,3.08v16.1L.53,642.99v-11.87l62.63-22.78ZM40.99,631.38l-16.71,5.28,16.71,5.63v-10.91ZM63.16,560.28v41.69H.53v-15.39h48.91v-26.3h13.72Z"/>
      <path class="cls-1" d="M133.52,1391.39v5.35h-50.1v-5.35h50.1ZM133.52,1328.26v5.07h-21.32c-3,0-5.28.75-6.83,2.25-1.59,1.5-2.39,3.59-2.39,6.26s.77,4.67,2.32,6.26c1.55,1.6,3.66,2.39,6.33,2.39h21.88v5.07h-21.32c-3,0-5.28.75-6.83,2.25-1.59,1.5-2.39,3.59-2.39,6.26s.8,4.78,2.39,6.33c1.59,1.55,3.87,2.32,6.83,2.32h21.32v5.07h-34.62v-5.07h3.8c-2.81-2.44-4.22-5.7-4.22-9.78,0-4.93,1.92-8.47,5.77-10.63-3.85-2.72-5.77-6.52-5.77-11.4,0-3.71,1.08-6.68,3.24-8.94,2.39-2.48,5.61-3.73,9.64-3.73h22.17ZM116.21,1288.43c6.94,0,11.85,1.41,14.71,4.22,2.02,2.02,3.03,4.83,3.03,8.44,0,4.13-1.5,7.39-4.5,9.78h19.56v5.07h-50.1v-5.07h4.08c-3-2.39-4.5-5.65-4.5-9.78,0-3.61,1.01-6.43,3.03-8.44,2.81-2.81,7.72-4.22,14.71-4.22ZM121.21,1293.85c-1.41-.23-3.07-.35-5-.35s-3.59.12-5,.35c-1.41.19-2.77.56-4.08,1.13-1.36.56-2.39,1.46-3.1,2.67-.7,1.22-1.06,2.72-1.06,4.5,0,1.46.26,2.72.77,3.8.47,1.08,1.1,1.95,1.9,2.6.8.61,1.81,1.1,3.03,1.48,1.22.33,2.42.56,3.59.7,1.13.09,2.44.14,3.94.14s2.84-.05,4.01-.14c1.13-.14,2.3-.37,3.52-.7,1.22-.37,2.23-.87,3.03-1.48.8-.66,1.45-1.52,1.97-2.6.47-1.08.7-2.34.7-3.8,0-1.78-.35-3.28-1.06-4.5-.7-1.22-1.71-2.11-3.03-2.67-1.36-.56-2.74-.94-4.15-1.13ZM133.52,1252.91v5.07h-3.31c1.36,1.36,2.32,2.79,2.89,4.29.56,1.5.84,3.4.84,5.7,0,4.36-1.06,7.62-3.17,9.78-1.69,1.74-4.04,2.6-7.04,2.6s-5.53-1.03-7.32-3.1c-1.78-2.11-2.67-5.09-2.67-8.94v-10.34h-3.31c-2.58,0-4.48.7-5.7,2.11-1.27,1.36-1.9,3.61-1.9,6.76,0,2.16.31,3.89.91,5.21.61,1.27,1.64,2.44,3.1,3.52l-3.17,3.45c-1.97-1.45-3.33-3.12-4.08-5-.75-1.88-1.13-4.29-1.13-7.25,0-9.24,3.85-13.86,11.54-13.86h23.5ZM121.28,1257.97h-3.73v9.64c0,5.21,2.04,7.81,6.12,7.81s5.91-2.67,5.91-8.02c0-3.42-.77-5.98-2.32-7.67-1.13-1.17-3.12-1.76-5.98-1.76ZM128.81,1215.72c1.92,1.78,3.26,3.52,4.01,5.21.75,1.69,1.13,3.75,1.13,6.19,0,4.55-1.52,8.26-4.57,11.12-3.05,2.81-7.43,4.22-13.16,4.22s-10.11-1.41-13.16-4.22c-3.05-2.86-4.57-6.57-4.57-11.12,0-2.44.38-4.5,1.13-6.19.75-1.69,2.09-3.42,4.01-5.21l3.24,3.45c-1.45,1.32-2.46,2.56-3.03,3.73-.56,1.17-.84,2.58-.84,4.22,0,3.52,1.31,6.19,3.94,8.02,2.11,1.5,5.21,2.25,9.29,2.25s7.18-.75,9.29-2.25c2.63-1.83,3.94-4.5,3.94-8.02,0-1.64-.28-3.05-.84-4.22-.61-1.17-1.64-2.41-3.1-3.73l3.31-3.45ZM133.52,1192.77v3.59c0,2.86-.87,5.07-2.6,6.61-1.74,1.5-3.96,2.25-6.68,2.25h-21.46v4.36h-3.87v-4.36h-10.63v-5.07h10.63v-7.39h3.87v7.39h21.32c3.38,0,5.07-1.57,5.07-4.71v-2.67h4.36ZM78.21,1163.99l60.52,20.05v5l-60.52-20.05v-5ZM133.52,1121.73v6.26l-22.24,11.4v12.03h22.24v5.35h-50.1v-19.21c0-4.41,1.27-7.98,3.8-10.7,2.49-2.77,5.86-4.15,10.13-4.15,3.56,0,6.52.99,8.87,2.96,2.35,1.97,3.87,4.62,4.57,7.95l22.73-11.89ZM104.25,1130.81c-1.59-1.83-3.87-2.74-6.83-2.74s-5.23.91-6.83,2.74c-1.59,1.83-2.39,4.24-2.39,7.25v13.37h18.37v-13.37c0-3.05-.77-5.47-2.32-7.25ZM117.55,1087.11v23.36c3.85,0,6.8-.87,8.87-2.6,2.06-1.74,3.1-4.27,3.1-7.6,0-1.97-.31-3.61-.91-4.93-.61-1.36-1.62-2.74-3.03-4.15l3.03-3.45c1.88,1.88,3.24,3.75,4.08,5.63.84,1.88,1.27,4.22,1.27,7.04,0,4.78-1.45,8.51-4.36,11.19-2.96,2.63-7.41,3.94-13.37,3.94-5.58,0-9.92-1.27-13.02-3.8-3.14-2.53-4.71-6-4.71-10.41s1.5-7.93,4.5-10.41c2.96-2.53,7.06-3.8,12.31-3.8h2.25ZM113.75,1092.11c-2.67.19-4.6.56-5.77,1.13-3.47,1.64-5.21,4.34-5.21,8.09s1.74,6.45,5.21,8.09c1.22.56,3.14.91,5.77,1.06v-18.37ZM98.9,1052.67l34.62,12.74v4.5l-34.62,12.67v-5.49l27.8-9.43-27.8-9.5v-5.49ZM117.55,1019.7v23.36c3.85,0,6.8-.87,8.87-2.6,2.06-1.74,3.1-4.27,3.1-7.6,0-1.97-.31-3.61-.91-4.93-.61-1.36-1.62-2.74-3.03-4.15l3.03-3.45c1.88,1.88,3.24,3.75,4.08,5.63.84,1.88,1.27,4.22,1.27,7.04,0,4.78-1.45,8.51-4.36,11.19-2.96,2.63-7.41,3.94-13.37,3.94-5.58,0-9.92-1.27-13.02-3.8-3.14-2.53-4.71-6-4.71-10.41s1.5-7.93,4.5-10.41c2.96-2.53,7.06-3.8,12.31-3.8h2.25ZM113.75,1024.7c-2.67.19-4.6.56-5.77,1.13-3.47,1.64-5.21,4.34-5.21,8.09s1.74,6.45,5.21,8.09c1.22.56,3.14.91,5.77,1.06v-18.37ZM133.52,981.68v5.07h-21.32c-3,0-5.28.75-6.83,2.25-1.59,1.5-2.39,3.59-2.39,6.26s.8,4.79,2.39,6.33c1.59,1.5,3.87,2.25,6.83,2.25h21.32v5.07h-34.62v-5.07h3.8c-2.81-2.44-4.22-5.68-4.22-9.71,0-3.75,1.08-6.71,3.24-8.87,2.35-2.39,5.56-3.59,9.64-3.59h22.17ZM133.52,942.52v5h-3.87c2.86,2.48,4.29,5.75,4.29,9.78,0,3.8-1.08,6.78-3.24,8.94-2.3,2.34-5.53,3.52-9.71,3.52h-22.1v-5.07h21.32c3,0,5.3-.73,6.9-2.18,1.55-1.5,2.32-3.59,2.32-6.26s-.8-4.78-2.39-6.33c-1.59-1.55-3.87-2.32-6.83-2.32h-21.32v-5.07h34.62ZM117.55,903.36v23.36c3.85,0,6.8-.87,8.87-2.6,2.06-1.74,3.1-4.27,3.1-7.6,0-1.97-.31-3.61-.91-4.93-.61-1.36-1.62-2.74-3.03-4.15l3.03-3.45c1.88,1.88,3.24,3.75,4.08,5.63.84,1.88,1.27,4.22,1.27,7.04,0,4.79-1.45,8.51-4.36,11.19-2.96,2.63-7.41,3.94-13.37,3.94-5.58,0-9.92-1.27-13.02-3.8-3.14-2.53-4.71-6.01-4.71-10.41s1.5-7.93,4.5-10.41c2.96-2.53,7.06-3.8,12.31-3.8h2.25ZM113.75,908.36c-2.67.19-4.6.56-5.77,1.13-3.47,1.64-5.21,4.34-5.21,8.09s1.74,6.45,5.21,8.09c1.22.56,3.14.91,5.77,1.06v-18.37ZM78.21,873.86l60.52,20.05v5l-60.52-20.05v-5ZM83.42,836.04l50.1,16.47v4.36l-50.1,16.47v-5.63l40.53-13.02-40.53-13.02v-5.63ZM133.52,807.27v5.07h-3.31c1.36,1.36,2.32,2.79,2.89,4.29.56,1.5.84,3.4.84,5.7,0,4.36-1.06,7.62-3.17,9.78-1.69,1.74-4.04,2.6-7.04,2.6s-5.53-1.03-7.32-3.1c-1.78-2.11-2.67-5.09-2.67-8.94v-10.34h-3.31c-2.58,0-4.48.7-5.7,2.11-1.27,1.36-1.9,3.61-1.9,6.76,0,2.16.31,3.89.91,5.21.61,1.27,1.64,2.44,3.1,3.52l-3.17,3.45c-1.97-1.46-3.33-3.12-4.08-5-.75-1.88-1.13-4.29-1.13-7.25,0-9.24,3.85-13.86,11.54-13.86h23.5ZM121.28,812.33h-3.73v9.64c0,5.21,2.04,7.81,6.12,7.81s5.91-2.67,5.91-8.02c0-3.43-.77-5.98-2.32-7.67-1.13-1.17-3.12-1.76-5.98-1.76ZM133.52,782.61v3.66c0,2.91-.84,5.11-2.53,6.61-1.69,1.45-3.92,2.18-6.68,2.18h-40.88v-5.07h40.67c1.74,0,3.03-.35,3.87-1.06.8-.7,1.2-1.9,1.2-3.59v-2.74h4.36ZM133.52,747.36v5h-3.87c2.86,2.48,4.29,5.75,4.29,9.78,0,3.8-1.08,6.78-3.24,8.94-2.3,2.34-5.53,3.52-9.71,3.52h-22.1v-5.07h21.32c3,0,5.3-.73,6.9-2.18,1.55-1.5,2.32-3.59,2.32-6.26s-.8-4.78-2.39-6.33c-1.59-1.55-3.87-2.32-6.83-2.32h-21.32v-5.07h34.62ZM133.52,710.03v5.07h-3.31c1.36,1.36,2.32,2.79,2.89,4.29.56,1.5.84,3.4.84,5.7,0,4.36-1.06,7.62-3.17,9.78-1.69,1.74-4.04,2.6-7.04,2.6s-5.53-1.03-7.32-3.1c-1.78-2.11-2.67-5.09-2.67-8.94v-10.34h-3.31c-2.58,0-4.48.7-5.7,2.11-1.27,1.36-1.9,3.61-1.9,6.76,0,2.16.31,3.89.91,5.21.61,1.27,1.64,2.44,3.1,3.52l-3.17,3.45c-1.97-1.45-3.33-3.12-4.08-5-.75-1.88-1.13-4.29-1.13-7.25,0-9.24,3.85-13.86,11.54-13.86h23.5ZM121.28,715.1h-3.73v9.64c0,5.21,2.04,7.81,6.12,7.81s5.91-2.67,5.91-8.02c0-3.42-.77-5.98-2.32-7.67-1.13-1.17-3.12-1.76-5.98-1.76ZM133.52,684.39v3.59c0,2.86-.87,5.07-2.6,6.61-1.74,1.5-3.96,2.25-6.68,2.25h-21.46v4.36h-3.87v-4.36h-10.63v-5.07h10.63v-7.39h3.87v7.39h21.32c3.38,0,5.07-1.57,5.07-4.71v-2.67h4.36ZM133.52,669.26v5.07h-34.62v-5.07h34.62ZM89.05,668.91v5.7h-5.7v-5.7h5.7ZM116.21,630.14c6.33,0,10.93,1.41,13.79,4.22,2.63,2.53,3.94,5.84,3.94,9.92s-1.31,7.39-3.94,9.92c-2.86,2.81-7.46,4.22-13.79,4.22s-10.98-1.41-13.79-4.22c-2.63-2.53-3.94-5.84-3.94-9.92s1.31-7.39,3.94-9.92c2.81-2.81,7.41-4.22,13.79-4.22ZM116.21,635.2c-5.3,0-8.87.91-10.7,2.74-1.69,1.69-2.53,3.8-2.53,6.33s.84,4.57,2.53,6.26c1.88,1.88,5.44,2.81,10.7,2.81s8.82-.94,10.7-2.81c1.69-1.69,2.53-3.78,2.53-6.26s-.84-4.64-2.53-6.33c-1.88-1.83-5.44-2.74-10.7-2.74ZM133.52,592.05v5.07h-21.32c-3,0-5.28.75-6.83,2.25-1.59,1.5-2.39,3.59-2.39,6.26s.8,4.79,2.39,6.33c1.59,1.5,3.87,2.25,6.83,2.25h21.32v5.07h-34.62v-5.07h3.8c-2.81-2.44-4.22-5.68-4.22-9.71,0-3.75,1.08-6.71,3.24-8.87,2.35-2.39,5.56-3.59,9.64-3.59h22.17Z"/>
      <path class="cls-2" d="M23.57,46.22v820.19h72.57V46.18h-.03L60.15,0,23.6,46.18h-.03v.04Z"/>
    </g>
  </g>
</svg>