<?xml version="1.0" encoding="UTF-8"?>
<svg id="Layer_2" data-name="Layer 2" xmlns="http://www.w3.org/2000/svg" viewBox="0 0 3078.38 250">
  <defs>
    <style>
      .cls-1 {
        fill: #fff;
      }

      .cls-2 {
        fill: #f48220;
      }
    </style>
  </defs>
  <g id="Layer_1-2" data-name="Layer 1">
    <g>
      <polygon class="cls-2" points="2961.39 250 0 250 0 0 2960.05 0 3078.38 125 2961.39 250"/>
      <g>
        <path class="cls-1" d="M1308.38,53.9l11.61,37.53,11.7-37.53h16.29l-21.24,62.1h-13.41l-21.24-62.1h16.29Z"/>
        <path class="cls-1" d="M1392.62,53.9v12.42h-24.3v11.34h21.6v12.42h-21.6v13.5h24.3v12.42h-39.24v-62.1h39.24Z"/>
        <path class="cls-1" d="M1449.22,53.9v62.1h-12.06l-22.86-34.38v34.38h-14.04v-62.1h11.88l23.04,34.83v-34.83h14.04Z"/>
        <path class="cls-1" d="M1502.86,53.9v12.42h-16.2v49.68h-14.94v-49.68h-16.2v-12.42h47.34Z"/>
        <path class="cls-1" d="M1558.12,53.9v36.99c0,18.36-10.71,26.01-24.48,26.01s-24.48-7.65-24.48-25.92v-37.08h14.94v37.08c0,9.09,2.7,13.5,9.54,13.5s9.54-4.41,9.54-13.5v-37.08h14.94Z"/>
        <path class="cls-1" d="M1601.95,116l-10.35-23.49h-7.74v23.49h-14.94v-62.1h23.4c14.31,0,23.49,6.57,23.49,19.53,0,8.1-3.6,13.59-9.9,16.47l12.42,26.1h-16.38ZM1590.52,80.09c6.03,0,10.35-.81,10.35-6.66s-4.32-7.11-10.35-7.11h-6.66v13.77h6.66Z"/>
        <path class="cls-1" d="M1664.32,53.9v12.42h-24.3v11.34h21.6v12.42h-21.6v13.5h24.3v12.42h-39.24v-62.1h39.24Z"/>
        <path class="cls-1" d="M1365.79,159.09c-2.43-4.14-5.49-5.67-11.07-5.67-4.95,0-7.11,2.25-7.11,5.4,0,3.69,3.24,5.76,11.07,8.01,13.5,3.87,18.63,8.91,18.63,19.53,0,11.25-7.56,18.54-21.69,18.54-11.34,0-18.99-2.79-24.84-10.17l11.16-7.83c3.06,3.87,6.84,5.58,12.42,5.58s8.01-2.43,8.01-5.4c0-3.6-2.52-5.4-11.7-8.37-12.6-4.05-18-9.81-18-19.8s6.75-17.91,21.87-17.91c9.9,0,17.91,3.33,22.32,10.17l-11.07,7.92Z"/>
        <path class="cls-1" d="M1428.26,141.9v12.42h-16.2v49.68h-14.94v-49.68h-16.2v-12.42h47.34Z"/>
        <path class="cls-1" d="M1483.51,141.9v36.99c0,18.36-10.71,26.01-24.48,26.01s-24.48-7.65-24.48-25.92v-37.08h14.94v37.08c0,9.09,2.7,13.5,9.54,13.5s9.54-4.41,9.54-13.5v-37.08h14.94Z"/>
        <path class="cls-1" d="M1494.31,204v-62.1h23.13c14.13,0,24.48,6.93,24.48,26.55v9c0,19.44-10.35,26.55-24.48,26.55h-23.13ZM1526.98,177.45v-9c0-8.37-1.8-14.13-9.54-14.13h-8.19v37.26h8.19c7.74,0,9.54-5.76,9.54-14.13Z"/>
        <path class="cls-1" d="M1567.21,204h-14.94v-62.1h14.94v62.1Z"/>
        <path class="cls-1" d="M1602.04,204.9c-14.13,0-24.48-8.55-24.48-27.09v-9.72c0-18.72,10.35-27.09,24.48-27.09s24.48,8.37,24.48,27.09v9.72c0,18.54-10.35,27.09-24.48,27.09ZM1592.5,177.81c0,10.17,3.33,14.67,9.54,14.67s9.54-4.5,9.54-14.67v-9.72c0-10.17-3.33-14.67-9.54-14.67s-9.54,4.5-9.54,14.67v9.72Z"/>
      </g>
    </g>
  </g>
</svg>