<?xml version="1.0" encoding="UTF-8"?>
<svg id="Layer_1" xmlns="http://www.w3.org/2000/svg" xmlns:xlink="http://www.w3.org/1999/xlink" version="1.1" viewBox="0 0 2880 1944.6">
  <!-- Generator: Adobe Illustrator 29.1.0, SVG Export Plug-In . SVG Version: 2.1.0 Build 142)  -->
  <defs>
    <style>
      .st0 {
        fill: none;
      }

      .st1 {
        fill: #df6438;
      }

      .st2 {
        isolation: isolate;
      }

      .st3 {
        clip-path: url(#clippath-17);
      }

      .st4 {
        clip-path: url(#clippath-11);
      }

      .st5 {
        clip-path: url(#clippath-16);
      }

      .st6 {
        clip-path: url(#clippath-10);
      }

      .st7 {
        clip-path: url(#clippath-15);
      }

      .st8 {
        clip-path: url(#clippath-13);
      }

      .st9 {
        clip-path: url(#clippath-14);
      }

      .st10 {
        clip-path: url(#clippath-12);
      }

      .st11 {
        clip-path: url(#clippath-1);
      }

      .st12 {
        clip-path: url(#clippath-3);
      }

      .st13 {
        clip-path: url(#clippath-4);
      }

      .st14 {
        clip-path: url(#clippath-2);
      }

      .st15 {
        clip-path: url(#clippath-7);
      }

      .st16 {
        clip-path: url(#clippath-6);
      }

      .st17 {
        clip-path: url(#clippath-9);
      }

      .st18 {
        clip-path: url(#clippath-8);
      }

      .st19 {
        clip-path: url(#clippath-5);
      }

      .st20 {
        fill: #fff;
      }

      .st21 {
        fill: #e31e26;
      }

      .st22 {
        fill: #f16a24;
      }

      .st23 {
        clip-path: url(#clippath);
      }
    </style>
    <clipPath id="clippath">
      <rect class="st0" x="186.7" y="744.4" width="29.8" height="46.8"/>
    </clipPath>
    <clipPath id="clippath-1">
      <rect class="st0" x="186.7" y="937" width="29.8" height="46.8"/>
    </clipPath>
    <clipPath id="clippath-2">
      <rect class="st0" x="162.8" y="1321.5" width="29.8" height="46.8"/>
    </clipPath>
    <clipPath id="clippath-3">
      <rect class="st0" x="559.7" y="1320.2" width="29.8" height="46.8"/>
    </clipPath>
    <clipPath id="clippath-4">
      <rect class="st0" x="1019.8" y="1323.2" width="29.8" height="46.8"/>
    </clipPath>
    <clipPath id="clippath-5">
      <rect class="st0" x="1499.2" y="1323.2" width="29.8" height="46.8"/>
    </clipPath>
    <clipPath id="clippath-6">
      <rect class="st0" x="1943.7" y="1323.2" width="29.8" height="46.8"/>
    </clipPath>
    <clipPath id="clippath-7">
      <rect class="st0" x="2388.2" y="1323.2" width="29.8" height="46.8"/>
    </clipPath>
    <clipPath id="clippath-8">
      <rect class="st0" x="682.8" y="677.5" width="29.8" height="46.8"/>
    </clipPath>
    <clipPath id="clippath-9">
      <rect class="st0" x="680" y="940.4" width="29.8" height="46.8"/>
    </clipPath>
    <clipPath id="clippath-10">
      <rect class="st0" x="1180.4" y="660.7" width="29.8" height="46.8"/>
    </clipPath>
    <clipPath id="clippath-11">
      <rect class="st0" x="1180.4" y="832.9" width="29.8" height="46.8"/>
    </clipPath>
    <clipPath id="clippath-12">
      <rect class="st0" x="1636.3" y="481.5" width="29.8" height="46.8"/>
    </clipPath>
    <clipPath id="clippath-13">
      <rect class="st0" x="1636.3" y="789.8" width="29.8" height="46.8"/>
    </clipPath>
    <clipPath id="clippath-14">
      <rect class="st0" x="2083.9" y="309.4" width="29.8" height="46.8"/>
    </clipPath>
    <clipPath id="clippath-15">
      <rect class="st0" x="2083.9" y="703.8" width="29.8" height="46.8"/>
    </clipPath>
    <clipPath id="clippath-16">
      <rect class="st0" x="2534.5" y="118.1" width="29.8" height="46.8"/>
    </clipPath>
    <clipPath id="clippath-17">
      <rect class="st0" x="2534.5" y="617.7" width="29.8" height="46.8"/>
    </clipPath>
  </defs>
  <g id="Group_3035">
    <rect id="Rectangle_3081" class="st22" x="64.7" y="1127.7" width="2704.9" height="592.6"/>
    <g id="_41.4M" class="st2">
      <g class="st2">
        <g class="st2">
          <path class="st21" d="M259,748.4l-12.5,27.5h9.2v-10.7h6.6v10.7h3.6v5.7h-3.6v5.9h-6.6v-5.9h-17.2v-4.7l13.6-28.6h7Z"/>
          <path class="st21" d="M286.5,787.5h-6.6v-32l-5.6,3.9v-6.6l6-4.3h6.2v39.1Z"/>
          <path class="st21" d="M308.1,787.5h-7.8v-7.8h7.8v7.8Z"/>
          <path class="st21" d="M332.8,748.4l-12.5,27.5h9.2v-10.7h6.6v10.7h3.6v5.7h-3.6v5.9h-6.6v-5.9h-17.2v-4.7l13.6-28.6h7Z"/>
          <path class="st21" d="M362.9,771l11.3-22.7h6.3v39.1h-6.4v-26.2l-9,18.7h-4.7l-8.8-18.5v26h-6.4v-39.1h6.2l11.3,22.7Z"/>
        </g>
      </g>
    </g>
    <g id="_1_Startups" class="st2">
      <g class="st2">
        <g class="st2">
          <path class="st22" d="M205.9,1054h-6.6v-32l-5.6,3.9v-6.6l6-4.3h6.2v39.1Z"/>
          <path class="st22" d="M255.1,1024.3c-1.9-2.7-4-4.3-8.5-4.3s-6.4,1.8-6.4,5.1,2.9,5.2,8.4,6.4c7.9,1.7,12,4.7,12,11.7s-3.9,11.2-13.3,11.2-11.4-2-14.6-6.4l5.2-3.6c2.3,2.8,4.7,4.3,9.1,4.3s7.1-2.4,7.1-5.2-1.8-5-8.6-6.5c-7.5-1.6-11.8-5.2-11.8-11.9s3.9-10.8,13-10.8,10.6,2.1,13.4,6.4l-5,3.6Z"/>
          <path class="st22" d="M263.9,1025.7h3.6v-6.2h6v6.2h6v5.2h-6v13c0,3.3.5,4.7,3.7,4.7h2.3v5.4h-2.8c-6.8,0-9.2-2.3-9.2-9v-14.1h-3.6v-5.2Z"/>
          <path class="st22" d="M293.6,1037.3h6.1v-2.4c0-3.6-1.4-4.5-5.6-4.5s-4.6.3-6,2.6l-4.4-3.1c2-3.3,5.1-4.7,10.7-4.7s11.2,2.3,11.2,9.8v19.1h-6v-2.6c-1.4,2.2-3.1,3.1-6.6,3.1-6.2,0-10.1-3.2-10.1-8.8s4.5-8.4,10.5-8.4ZM299.8,1041.9h-5.7c-3.6,0-5,1.2-5,3.7s1.9,3.7,4.8,3.7,5.9-1.1,5.9-6.1v-1.4Z"/>
        </g>
        <g class="st2">
          <path class="st22" d="M327.5,1032.7c-.9-1.3-2.2-2.2-4.1-2.2-3.1,0-5.2,2.3-5.2,6.4v17.1h-6.1v-28.4h6v2.6c1.1-1.6,3-3.1,6.4-3.1s6.1,1.4,7.9,4.2l-4.8,3.4Z"/>
        </g>
        <g class="st2">
          <path class="st22" d="M332.9,1025.7h3.6v-6.2h6v6.2h6v5.2h-6v13c0,3.3.5,4.7,3.7,4.7h2.3v5.4h-2.8c-6.8,0-9.2-2.3-9.2-9v-14.1h-3.6v-5.2Z"/>
          <path class="st22" d="M376.9,1054h-6v-2.6c-1.3,2-3,3.1-7,3.1-5.8,0-10.4-3-10.4-11.2v-17.7h6.1v17.1c0,5,2.3,6.5,5.4,6.5s5.8-2.5,5.8-6.4v-17.1h6v28.4Z"/>
          <path class="st22" d="M407.5,1041.7c0,7.4-3.6,12.8-11.2,12.8s-5.4-.8-6.9-2.3v12.6h-6.1v-39.1h6.1v2.3c1.4-1.8,3.7-2.8,6.9-2.8,6.8,0,11.1,4.6,11.1,12.7v3.9ZM401.5,1041.4v-3.3c0-4.9-2-7.7-6-7.7s-6,2.7-6,7.4v3.6c0,4.4,1.4,7.9,6,7.9s6-3.5,6-7.9Z"/>
          <path class="st22" d="M428.5,1033.1c-1.4-1.8-2.8-2.6-6.2-2.6s-4.4.9-4.4,2.9,2.1,3.1,5.4,3.5c6.3.7,10.4,3,10.4,9s-3.6,8.6-10.9,8.6-9.1-1.6-11.4-4.7l4.6-3.3c1.3,1.8,3,2.7,6.7,2.7s4.9-1.1,4.9-3.1-1.5-3-5.9-3.6c-5.4-.7-9.9-2.9-9.9-8.9s3.7-8.5,10.6-8.5,8.3,1.2,10.5,4.7l-4.5,3.2Z"/>
        </g>
      </g>
    </g>
    <g id="_7_Startups" class="st2">
      <g class="st2">
        <g class="st2">
          <path class="st22" d="M680.6,1027v-12.1h23v5l-11.7,34.1h-6.9l11.8-33.4h-10.5v6.4h-5.7Z"/>
          <path class="st22" d="M745.6,1024.3c-1.9-2.7-4-4.3-8.5-4.3s-6.4,1.8-6.4,5.1,2.9,5.2,8.4,6.4c7.9,1.7,12,4.7,12,11.7s-3.9,11.2-13.3,11.2-11.4-2-14.6-6.4l5.2-3.6c2.3,2.8,4.7,4.3,9.1,4.3s7.1-2.4,7.1-5.2-1.8-5-8.6-6.5c-7.5-1.6-11.8-5.2-11.8-11.9s3.9-10.8,13-10.8,10.6,2.1,13.4,6.4l-5,3.6Z"/>
          <path class="st22" d="M754.4,1025.7h3.6v-6.2h6v6.2h6v5.2h-6v13c0,3.3.5,4.7,3.7,4.7h2.3v5.4h-2.8c-6.8,0-9.2-2.3-9.2-9v-14.1h-3.6v-5.2Z"/>
          <path class="st22" d="M784.1,1037.3h6.1v-2.4c0-3.6-1.4-4.5-5.6-4.5s-4.6.3-6,2.6l-4.4-3.1c2-3.3,5.1-4.7,10.7-4.7s11.2,2.3,11.2,9.8v19.1h-6v-2.6c-1.4,2.2-3.1,3.1-6.6,3.1-6.2,0-10.1-3.2-10.1-8.8s4.5-8.4,10.5-8.4ZM790.3,1041.9h-5.7c-3.6,0-5,1.2-5,3.7s1.9,3.7,4.8,3.7,5.9-1.1,5.9-6.1v-1.4Z"/>
        </g>
        <g class="st2">
          <path class="st22" d="M818,1032.7c-.9-1.3-2.2-2.2-4.1-2.2-3.1,0-5.2,2.3-5.2,6.4v17.1h-6.1v-28.4h6v2.6c1.1-1.6,3-3.1,6.4-3.1s6.1,1.4,7.9,4.2l-4.8,3.4Z"/>
        </g>
        <g class="st2">
          <path class="st22" d="M823.4,1025.7h3.6v-6.2h6v6.2h6v5.2h-6v13c0,3.3.5,4.7,3.7,4.7h2.3v5.4h-2.8c-6.8,0-9.2-2.3-9.2-9v-14.1h-3.6v-5.2Z"/>
          <path class="st22" d="M867.4,1054h-6v-2.6c-1.3,2-3,3.1-7,3.1-5.8,0-10.4-3-10.4-11.2v-17.7h6.1v17.1c0,5,2.3,6.5,5.4,6.5s5.8-2.5,5.8-6.4v-17.1h6v28.4Z"/>
          <path class="st22" d="M898,1041.7c0,7.4-3.6,12.8-11.2,12.8s-5.4-.8-6.9-2.3v12.6h-6.1v-39.1h6.1v2.3c1.4-1.8,3.7-2.8,6.9-2.8,6.8,0,11.1,4.6,11.1,12.7v3.9ZM892,1041.4v-3.3c0-4.9-2-7.7-6-7.7s-6,2.7-6,7.4v3.6c0,4.4,1.4,7.9,6,7.9s6-3.5,6-7.9Z"/>
          <path class="st22" d="M919,1033.1c-1.4-1.8-2.8-2.6-6.2-2.6s-4.4.9-4.4,2.9,2.1,3.1,5.4,3.5c6.3.7,10.4,3,10.4,9s-3.6,8.6-10.9,8.6-9.1-1.6-11.4-4.7l4.6-3.3c1.3,1.8,3,2.7,6.7,2.7s4.9-1.1,4.9-3.1-1.5-3-5.9-3.6c-5.4-.7-9.9-2.9-9.9-8.9s3.7-8.5,10.6-8.5,8.3,1.2,10.5,4.7l-4.5,3.2Z"/>
        </g>
      </g>
    </g>
    <g id="_5_Startups" class="st2">
      <g class="st2">
        <g class="st2">
          <path class="st22" d="M1186.2,928.3h-6v-21.2h21.2v6.2h-14.8v8.3c1.2-1.2,3-2.3,6-2.3,6.5,0,10.3,5,10.3,14.1s-4.1,13.3-11.9,13.3-11.3-4-11.9-10.2h6.5c.7,2.8,2.5,4.5,5.3,4.5s5.4-2.2,5.4-7.4-1.6-8.2-5.4-8.2-3.8,1.2-4.8,2.9Z"/>
          <path class="st22" d="M1244.6,916.6c-1.9-2.7-4-4.3-8.5-4.3s-6.4,1.8-6.4,5.1,2.9,5.2,8.4,6.4c7.9,1.7,12,4.7,12,11.7s-3.9,11.2-13.3,11.2-11.4-2-14.6-6.4l5.2-3.6c2.3,2.8,4.7,4.3,9.1,4.3s7.1-2.4,7.1-5.2-1.8-5-8.6-6.5c-7.5-1.6-11.8-5.2-11.8-11.9s3.9-10.8,13-10.8,10.6,2.1,13.4,6.4l-5,3.6Z"/>
          <path class="st22" d="M1253.4,917.9h3.6v-6.2h6v6.2h6v5.2h-6v13c0,3.3.5,4.7,3.7,4.7h2.3v5.4h-2.8c-6.8,0-9.2-2.3-9.2-9v-14.1h-3.6v-5.2Z"/>
          <path class="st22" d="M1283.2,929.5h6.1v-2.4c0-3.6-1.4-4.5-5.6-4.5s-4.6.3-6,2.6l-4.4-3.1c2-3.3,5.1-4.7,10.7-4.7s11.2,2.3,11.2,9.8v19.1h-6v-2.6c-1.4,2.2-3.1,3.1-6.6,3.1-6.2,0-10.1-3.2-10.1-8.8s4.5-8.4,10.5-8.4ZM1289.3,934.2h-5.7c-3.6,0-5,1.2-5,3.7s1.9,3.7,4.8,3.7,5.9-1.1,5.9-6.1v-1.4Z"/>
        </g>
        <g class="st2">
          <path class="st22" d="M1317.1,925c-.9-1.3-2.2-2.2-4.1-2.2-3.1,0-5.2,2.3-5.2,6.4v17.1h-6.1v-28.4h6v2.6c1.1-1.6,3-3.1,6.4-3.1s6.1,1.4,7.9,4.2l-4.8,3.4Z"/>
        </g>
        <g class="st2">
          <path class="st22" d="M1322.4,917.9h3.6v-6.2h6v6.2h6v5.2h-6v13c0,3.3.5,4.7,3.7,4.7h2.3v5.4h-2.8c-6.8,0-9.2-2.3-9.2-9v-14.1h-3.6v-5.2Z"/>
          <path class="st22" d="M1366.4,946.3h-6v-2.6c-1.3,2-3,3.1-7,3.1-5.8,0-10.4-3-10.4-11.2v-17.7h6.1v17.1c0,5,2.3,6.5,5.4,6.5s5.8-2.5,5.8-6.4v-17.1h6v28.4Z"/>
          <path class="st22" d="M1397,934c0,7.4-3.6,12.8-11.2,12.8s-5.4-.8-6.9-2.3v12.6h-6.1v-39.1h6.1v2.3c1.4-1.8,3.7-2.8,6.9-2.8,6.8,0,11.1,4.6,11.1,12.7v3.9ZM1391,933.7v-3.3c0-4.9-2-7.7-6-7.7s-6,2.7-6,7.4v3.6c0,4.4,1.4,7.9,6,7.9s6-3.5,6-7.9Z"/>
          <path class="st22" d="M1418.1,925.3c-1.4-1.8-2.8-2.6-6.2-2.6s-4.4.9-4.4,2.9,2.1,3.1,5.4,3.5c6.3.7,10.4,3,10.4,9s-3.6,8.6-10.9,8.6-9.1-1.6-11.4-4.7l4.6-3.3c1.3,1.8,3,2.7,6.7,2.7s4.9-1.1,4.9-3.1-1.5-3-5.9-3.6c-5.4-.7-9.9-2.9-9.9-8.9s3.7-8.5,10.6-8.5,8.3,1.2,10.5,4.7l-4.5,3.2Z"/>
        </g>
      </g>
    </g>
    <g id="_12_Startups" class="st2">
      <g class="st2">
        <g class="st2">
          <path class="st22" d="M1654.7,903.7h-6.6v-32l-5.6,3.9v-6.6l6-4.3h6.2v39.1Z"/>
          <path class="st22" d="M1691.3,903.7h-23.7v-4.7l13.4-15.8c2.6-2.9,4-5.5,4-8.2s-2.7-5.4-5.6-5.4-5.4,1.9-5.6,5.4h-6c0-6.6,5.3-11,11.8-11s11.9,4.5,11.9,11.1-3.4,8.8-5.9,11.8l-9.2,11.1h14.9v5.7Z"/>
          <path class="st22" d="M1733.5,874.1c-1.9-2.7-4-4.3-8.5-4.3s-6.4,1.8-6.4,5.1,2.9,5.2,8.4,6.4c7.9,1.7,12,4.7,12,11.7s-3.9,11.2-13.3,11.2-11.4-2-14.6-6.4l5.2-3.6c2.3,2.8,4.7,4.3,9.1,4.3s7.1-2.4,7.1-5.2-1.8-5-8.6-6.5c-7.5-1.6-11.8-5.2-11.8-11.9s3.9-10.8,13-10.8,10.6,2.1,13.4,6.4l-5,3.6Z"/>
          <path class="st22" d="M1742.3,875.4h3.6v-6.2h6v6.2h6v5.2h-6v13c0,3.3.5,4.7,3.7,4.7h2.3v5.4h-2.8c-6.8,0-9.2-2.3-9.2-9v-14.1h-3.6v-5.2Z"/>
          <path class="st22" d="M1772.1,887h6.1v-2.4c0-3.6-1.4-4.5-5.6-4.5s-4.6.3-6,2.6l-4.4-3.1c2-3.3,5.1-4.7,10.7-4.7s11.2,2.3,11.2,9.8v19.1h-6v-2.6c-1.4,2.2-3.1,3.1-6.6,3.1-6.2,0-10.1-3.2-10.1-8.8s4.5-8.4,10.5-8.4ZM1778.2,891.7h-5.7c-3.6,0-5,1.2-5,3.7s1.9,3.7,4.8,3.7,5.9-1.1,5.9-6.1v-1.4Z"/>
        </g>
        <g class="st2">
          <path class="st22" d="M1806,882.5c-.9-1.3-2.2-2.2-4.1-2.2-3.1,0-5.2,2.3-5.2,6.4v17.1h-6.1v-28.4h6v2.6c1.1-1.6,3-3.1,6.4-3.1s6.1,1.4,7.9,4.2l-4.8,3.4Z"/>
        </g>
        <g class="st2">
          <path class="st22" d="M1811.4,875.4h3.6v-6.2h6v6.2h6v5.2h-6v13c0,3.3.5,4.7,3.7,4.7h2.3v5.4h-2.8c-6.8,0-9.2-2.3-9.2-9v-14.1h-3.6v-5.2Z"/>
          <path class="st22" d="M1855.3,903.7h-6v-2.6c-1.3,2-3,3.1-7,3.1-5.8,0-10.4-3-10.4-11.2v-17.7h6.1v17.1c0,5,2.3,6.5,5.4,6.5s5.8-2.5,5.8-6.4v-17.1h6v28.4Z"/>
          <path class="st22" d="M1885.9,891.4c0,7.4-3.6,12.8-11.2,12.8s-5.4-.8-6.9-2.3v12.6h-6.1v-39.1h6.1v2.3c1.4-1.8,3.7-2.8,6.9-2.8,6.8,0,11.1,4.6,11.1,12.7v3.9ZM1879.9,891.1v-3.3c0-4.9-2-7.7-6-7.7s-6,2.7-6,7.4v3.6c0,4.4,1.4,7.9,6,7.9s6-3.5,6-7.9Z"/>
          <path class="st22" d="M1907,882.8c-1.4-1.8-2.8-2.6-6.2-2.6s-4.4.9-4.4,2.9,2.1,3.1,5.4,3.5c6.3.7,10.4,3,10.4,9s-3.6,8.6-10.9,8.6-9.1-1.6-11.4-4.7l4.6-3.3c1.3,1.8,3,2.7,6.7,2.7s4.9-1.1,4.9-3.1-1.5-3-5.9-3.6c-5.4-.7-9.9-2.9-9.9-8.9s3.7-8.5,10.6-8.5,8.3,1.2,10.6,4.7l-4.5,3.2Z"/>
        </g>
      </g>
    </g>
    <g id="_18_Startups" class="st2">
      <g class="st2">
        <g class="st2">
          <path class="st22" d="M2102.7,824.4h-6.6v-32l-5.6,3.9v-6.6l6-4.3h6.2v39.1Z"/>
          <path class="st22" d="M2121.1,804c-3.1-1.6-5.3-4.9-5.3-8.6,0-6.7,5.8-10.8,12.1-10.8s12.1,4,12.1,10.8-2.2,7-5.3,8.6c3.2,1.4,5.9,4.9,5.9,9.4,0,7.1-5.9,11.5-12.6,11.5s-12.6-4.3-12.6-11.5,2.8-8,5.9-9.4ZM2127.8,819.2c3.4,0,6.1-2.8,6.1-6.2s-3.2-6.1-6.1-6.1-6.1,2.3-6.1,6.1,2.6,6.2,6.1,6.2ZM2127.8,801.6c3.1,0,5.6-2.5,5.6-5.6s-2.5-5.5-5.6-5.5-5.6,2.4-5.6,5.5,2.4,5.6,5.6,5.6Z"/>
          <path class="st22" d="M2181.5,794.7c-1.9-2.7-4-4.3-8.5-4.3s-6.4,1.8-6.4,5.1,2.9,5.2,8.4,6.4c7.9,1.7,12,4.7,12,11.7s-3.9,11.2-13.3,11.2-11.4-2-14.6-6.4l5.2-3.6c2.3,2.8,4.7,4.3,9.1,4.3s7.1-2.4,7.1-5.2-1.8-5-8.6-6.5c-7.5-1.6-11.8-5.2-11.8-11.9s3.9-10.8,13-10.8,10.6,2.1,13.4,6.4l-5,3.6Z"/>
          <path class="st22" d="M2190.3,796h3.6v-6.2h6v6.2h6v5.2h-6v13c0,3.3.5,4.7,3.7,4.7h2.3v5.4h-2.8c-6.8,0-9.2-2.3-9.2-9v-14.1h-3.6v-5.2Z"/>
          <path class="st22" d="M2220.1,807.6h6.1v-2.4c0-3.6-1.4-4.5-5.6-4.5s-4.6.3-6,2.6l-4.4-3.1c2-3.3,5.1-4.7,10.7-4.7s11.2,2.3,11.2,9.8v19.1h-6v-2.6c-1.4,2.2-3.1,3.1-6.6,3.1-6.2,0-10.1-3.2-10.1-8.8s4.5-8.4,10.5-8.4ZM2226.2,812.3h-5.7c-3.6,0-5,1.2-5,3.7s1.9,3.7,4.8,3.7,5.9-1.1,5.9-6.1v-1.4Z"/>
        </g>
        <g class="st2">
          <path class="st22" d="M2254,803.1c-.9-1.3-2.2-2.2-4.1-2.2-3.1,0-5.2,2.3-5.2,6.4v17.1h-6.1v-28.4h6v2.6c1.1-1.6,3-3.1,6.4-3.1s6.1,1.4,7.9,4.2l-4.8,3.4Z"/>
        </g>
        <g class="st2">
          <path class="st22" d="M2259.3,796h3.6v-6.2h6v6.2h6v5.2h-6v13c0,3.3.5,4.7,3.7,4.7h2.3v5.4h-2.8c-6.8,0-9.2-2.3-9.2-9v-14.1h-3.6v-5.2Z"/>
          <path class="st22" d="M2303.3,824.4h-6v-2.6c-1.3,2-3,3.1-7,3.1-5.8,0-10.4-3-10.4-11.2v-17.7h6.1v17.1c0,5,2.3,6.5,5.4,6.5s5.8-2.5,5.8-6.4v-17.1h6v28.4Z"/>
          <path class="st22" d="M2333.9,812c0,7.4-3.6,12.8-11.2,12.8s-5.4-.8-6.9-2.3v12.6h-6.1v-39.1h6.1v2.3c1.4-1.8,3.7-2.8,6.9-2.8,6.8,0,11.1,4.6,11.1,12.7v3.9ZM2327.9,811.8v-3.3c0-4.9-2-7.7-6-7.7s-6,2.7-6,7.4v3.6c0,4.4,1.4,7.9,6,7.9s6-3.5,6-7.9Z"/>
          <path class="st22" d="M2355,803.4c-1.4-1.8-2.8-2.6-6.2-2.6s-4.4.9-4.4,2.9,2.1,3.1,5.4,3.5c6.3.7,10.4,3,10.4,9s-3.6,8.6-10.9,8.6-9.1-1.6-11.4-4.7l4.6-3.3c1.3,1.8,3,2.7,6.7,2.7s4.9-1.1,4.9-3.1-1.5-3-5.9-3.6c-5.4-.7-9.9-2.9-9.9-8.9s3.7-8.5,10.6-8.5,8.3,1.2,10.5,4.7l-4.5,3.2Z"/>
        </g>
      </g>
    </g>
    <g id="_25_Startups" class="st2">
      <g class="st2">
        <g class="st2">
          <path class="st22" d="M2560.5,730.8h-23.7v-4.7l13.4-15.8c2.6-2.9,4-5.5,4-8.2s-2.7-5.4-5.6-5.4-5.4,1.9-5.6,5.4h-6c0-6.6,5.3-11,11.8-11s11.9,4.5,11.9,11.1-3.4,8.8-5.9,11.8l-9.2,11.1h14.9v5.7Z"/>
          <path class="st22" d="M2573.9,712.9h-6v-21.2h21.2v6.2h-14.8v8.3c1.2-1.2,3-2.3,6-2.3,6.5,0,10.3,5,10.3,14.1s-4.1,13.3-11.9,13.3-11.3-4-11.9-10.2h6.5c.7,2.8,2.5,4.5,5.3,4.5s5.4-2.2,5.4-7.4-1.6-8.2-5.4-8.2-3.8,1.2-4.8,2.9Z"/>
          <path class="st22" d="M2632.3,701.1c-1.9-2.7-4-4.3-8.5-4.3s-6.4,1.8-6.4,5.1,2.9,5.2,8.4,6.4c7.9,1.7,12,4.7,12,11.7s-3.9,11.2-13.3,11.2-11.4-2-14.6-6.4l5.2-3.6c2.3,2.8,4.7,4.3,9.1,4.3s7.1-2.4,7.1-5.2-1.8-5-8.6-6.5c-7.5-1.6-11.8-5.2-11.8-11.9s3.9-10.8,13-10.8,10.6,2.1,13.4,6.4l-5,3.6Z"/>
          <path class="st22" d="M2641.1,702.4h3.6v-6.2h6v6.2h6v5.2h-6v13c0,3.3.5,4.7,3.7,4.7h2.3v5.4h-2.8c-6.8,0-9.2-2.3-9.2-9v-14.1h-3.6v-5.2Z"/>
          <path class="st22" d="M2670.9,714h6.1v-2.4c0-3.6-1.4-4.5-5.6-4.5s-4.6.3-6,2.6l-4.4-3.1c2-3.3,5.1-4.7,10.7-4.7s11.2,2.3,11.2,9.8v19.1h-6v-2.6c-1.4,2.2-3.1,3.1-6.6,3.1-6.2,0-10.1-3.2-10.1-8.8s4.5-8.4,10.5-8.4ZM2677,718.7h-5.7c-3.6,0-5,1.2-5,3.7s1.9,3.7,4.8,3.7,5.9-1.1,5.9-6.1v-1.4Z"/>
        </g>
        <g class="st2">
          <path class="st22" d="M2704.8,709.5c-.9-1.3-2.2-2.2-4.1-2.2-3.1,0-5.2,2.3-5.2,6.4v17.1h-6.1v-28.4h6v2.6c1.1-1.6,3-3.1,6.4-3.1s6.1,1.4,7.9,4.2l-4.8,3.4Z"/>
        </g>
        <g class="st2">
          <path class="st22" d="M2710.2,702.4h3.6v-6.2h6v6.2h6v5.2h-6v13c0,3.3.5,4.7,3.7,4.7h2.3v5.4h-2.8c-6.8,0-9.2-2.3-9.2-9v-14.1h-3.6v-5.2Z"/>
          <path class="st22" d="M2754.1,730.8h-6v-2.6c-1.3,2-3,3.1-7,3.1-5.8,0-10.4-3-10.4-11.2v-17.7h6.1v17.1c0,5,2.3,6.5,5.4,6.5s5.8-2.5,5.8-6.4v-17.1h6v28.4Z"/>
          <path class="st22" d="M2784.7,718.5c0,7.4-3.6,12.8-11.2,12.8s-5.4-.8-6.9-2.3v12.6h-6.1v-39.1h6.1v2.3c1.4-1.8,3.7-2.8,6.9-2.8,6.8,0,11.1,4.6,11.1,12.7v3.9ZM2778.7,718.2v-3.3c0-4.9-2-7.7-6-7.7s-6,2.7-6,7.4v3.6c0,4.4,1.4,7.9,6,7.9s6-3.5,6-7.9Z"/>
          <path class="st22" d="M2805.8,709.9c-1.4-1.8-2.8-2.6-6.2-2.6s-4.4.9-4.4,2.9,2.1,3.1,5.4,3.5c6.3.7,10.4,3,10.4,9s-3.6,8.6-10.9,8.6-9.1-1.6-11.4-4.7l4.6-3.3c1.3,1.8,3,2.7,6.7,2.7s4.9-1.1,4.9-3.1-1.5-3-5.9-3.6c-5.4-.7-9.9-2.9-9.9-8.9s3.7-8.5,10.6-8.5,8.3,1.2,10.5,4.7l-4.5,3.2Z"/>
        </g>
      </g>
    </g>
    <g id="_21_Startups" class="st2">
      <g class="st2">
        <g class="st2">
          <path class="st21" d="M706.2,790.3h-23.7v-4.7l13.4-15.8c2.6-2.9,4-5.5,4-8.2s-2.7-5.4-5.6-5.4-5.4,1.9-5.6,5.4h-6c0-6.6,5.3-11,11.8-11s11.9,4.5,11.9,11.1-3.4,8.8-5.9,11.8l-9.2,11.1h14.9v5.7Z"/>
          <path class="st21" d="M728.9,790.3h-6.6v-32l-5.6,3.9v-6.6l6-4.3h6.2v39.1Z"/>
          <path class="st21" d="M778,760.7c-1.9-2.7-4-4.3-8.5-4.3s-6.4,1.8-6.4,5.1,2.9,5.2,8.4,6.4c7.9,1.7,12,4.7,12,11.7s-3.9,11.2-13.3,11.2-11.4-2-14.6-6.4l5.2-3.6c2.3,2.8,4.7,4.3,9.1,4.3s7.1-2.4,7.1-5.2-1.8-5-8.6-6.5c-7.5-1.6-11.8-5.2-11.8-11.9s3.9-10.8,13-10.8,10.6,2.1,13.4,6.4l-5,3.6Z"/>
          <path class="st21" d="M786.8,762h3.6v-6.2h6v6.2h6v5.2h-6v13c0,3.3.5,4.7,3.7,4.7h2.3v5.4h-2.8c-6.8,0-9.2-2.3-9.2-9v-14.1h-3.6v-5.2Z"/>
          <path class="st21" d="M816.6,773.6h6.1v-2.4c0-3.6-1.4-4.5-5.6-4.5s-4.6.3-6,2.6l-4.4-3.1c2-3.3,5.1-4.7,10.7-4.7s11.2,2.3,11.2,9.8v19.1h-6v-2.6c-1.4,2.2-3.1,3.1-6.6,3.1-6.2,0-10.1-3.2-10.1-8.8s4.5-8.4,10.5-8.4ZM822.7,778.2h-5.7c-3.6,0-5,1.2-5,3.7s1.9,3.7,4.8,3.7,5.9-1.1,5.9-6.1v-1.4Z"/>
        </g>
        <g class="st2">
          <path class="st21" d="M850.5,769.1c-.9-1.3-2.2-2.2-4.1-2.2-3.1,0-5.2,2.3-5.2,6.4v17.1h-6.1v-28.4h6v2.6c1.1-1.6,3-3.1,6.4-3.1s6.1,1.4,7.9,4.2l-4.8,3.4Z"/>
        </g>
        <g class="st2">
          <path class="st21" d="M855.9,762h3.6v-6.2h6v6.2h6v5.2h-6v13c0,3.3.5,4.7,3.7,4.7h2.3v5.4h-2.8c-6.8,0-9.2-2.3-9.2-9v-14.1h-3.6v-5.2Z"/>
          <path class="st21" d="M899.8,790.3h-6v-2.6c-1.3,2-3,3.1-7,3.1-5.8,0-10.4-3-10.4-11.2v-17.7h6.1v17.1c0,5,2.3,6.5,5.4,6.5s5.8-2.5,5.8-6.4v-17.1h6v28.4Z"/>
          <path class="st21" d="M930.4,778c0,7.4-3.6,12.8-11.2,12.8s-5.4-.8-6.9-2.3v12.6h-6.1v-39.1h6.1v2.3c1.4-1.8,3.7-2.8,6.9-2.8,6.8,0,11.1,4.6,11.1,12.7v3.9ZM924.4,777.7v-3.3c0-4.9-2-7.7-6-7.7s-6,2.7-6,7.4v3.6c0,4.4,1.4,7.9,6,7.9s6-3.5,6-7.9Z"/>
          <path class="st21" d="M951.5,769.4c-1.4-1.8-2.8-2.6-6.2-2.6s-4.4.9-4.4,2.9,2.1,3.1,5.4,3.5c6.3.7,10.4,3,10.4,9s-3.6,8.6-10.9,8.6-9.1-1.6-11.4-4.7l4.6-3.3c1.3,1.8,3,2.7,6.7,2.7s4.9-1.1,4.9-3.1-1.5-3-5.9-3.6c-5.4-.7-9.9-2.9-9.9-8.9s3.7-8.5,10.6-8.5,8.3,1.2,10.5,4.7l-4.5,3.2Z"/>
        </g>
      </g>
    </g>
    <g id="_26_Startups" class="st2">
      <g class="st2">
        <g class="st2">
          <path class="st21" d="M1202.3,773.3h-23.7v-4.7l13.4-15.8c2.6-2.9,4-5.5,4-8.2s-2.7-5.4-5.6-5.4-5.4,1.9-5.6,5.4h-6c0-6.6,5.3-11,11.8-11s11.9,4.5,11.9,11.1-3.4,8.8-5.9,11.8l-9.2,11.1h14.9v5.7Z"/>
          <path class="st21" d="M1218.6,750.8c1.1-.6,2.5-.7,3.7-.7,6.1,0,10.5,4.9,10.5,11.6s-5.3,12.2-12.3,12.2-12.4-4.3-12.4-12.1,1.4-6.4,3.2-10.3l8-17.3h7.1l-7.9,16.6ZM1220.5,768.1c3.6,0,5.7-2.5,5.7-6.3s-2.2-6.3-5.7-6.3-5.8,2.6-5.8,6.3,2.2,6.3,5.8,6.3Z"/>
          <path class="st21" d="M1274.2,743.6c-1.9-2.7-4-4.3-8.5-4.3s-6.4,1.8-6.4,5.1,2.9,5.2,8.4,6.4c7.9,1.7,12,4.7,12,11.7s-3.9,11.2-13.3,11.2-11.4-2-14.6-6.4l5.2-3.6c2.3,2.8,4.7,4.3,9.1,4.3s7.1-2.4,7.1-5.2-1.8-5-8.6-6.5c-7.5-1.6-11.8-5.2-11.8-11.9s3.9-10.8,13-10.8,10.6,2.1,13.4,6.4l-5,3.6Z"/>
          <path class="st21" d="M1283,745h3.6v-6.2h6v6.2h6v5.2h-6v13c0,3.3.5,4.7,3.7,4.7h2.3v5.4h-2.8c-6.8,0-9.2-2.3-9.2-9v-14.1h-3.6v-5.2Z"/>
          <path class="st21" d="M1312.8,756.6h6.1v-2.4c0-3.6-1.4-4.5-5.6-4.5s-4.6.3-6,2.6l-4.4-3.1c2-3.3,5.1-4.7,10.7-4.7s11.2,2.3,11.2,9.8v19.1h-6v-2.6c-1.4,2.2-3.1,3.1-6.6,3.1-6.2,0-10.1-3.2-10.1-8.8s4.5-8.4,10.5-8.4ZM1318.9,761.2h-5.7c-3.6,0-5,1.2-5,3.7s1.9,3.7,4.8,3.7,5.9-1.1,5.9-6.1v-1.4Z"/>
        </g>
        <g class="st2">
          <path class="st21" d="M1346.7,752c-.9-1.3-2.2-2.2-4.1-2.2-3.1,0-5.2,2.3-5.2,6.4v17.1h-6.1v-28.4h6v2.6c1.1-1.6,3-3.1,6.4-3.1s6.1,1.4,7.9,4.2l-4.8,3.4Z"/>
        </g>
        <g class="st2">
          <path class="st21" d="M1352,745h3.6v-6.2h6v6.2h6v5.2h-6v13c0,3.3.5,4.7,3.7,4.7h2.3v5.4h-2.8c-6.8,0-9.2-2.3-9.2-9v-14.1h-3.6v-5.2Z"/>
          <path class="st21" d="M1396,773.3h-6v-2.6c-1.3,2-3,3.1-7,3.1-5.8,0-10.4-3-10.4-11.2v-17.7h6.1v17.1c0,5,2.3,6.5,5.4,6.5s5.8-2.5,5.8-6.4v-17.1h6v28.4Z"/>
          <path class="st21" d="M1426.6,761c0,7.4-3.6,12.8-11.2,12.8s-5.4-.8-6.9-2.3v12.6h-6.1v-39.1h6.1v2.3c1.4-1.8,3.7-2.8,6.9-2.8,6.8,0,11.1,4.6,11.1,12.7v3.9ZM1420.6,760.7v-3.3c0-4.9-2-7.7-6-7.7s-6,2.7-6,7.4v3.6c0,4.4,1.4,7.9,6,7.9s6-3.5,6-7.9Z"/>
          <path class="st21" d="M1447.7,752.4c-1.4-1.8-2.8-2.6-6.2-2.6s-4.4.9-4.4,2.9,2.1,3.1,5.4,3.5c6.3.7,10.4,3,10.4,9s-3.6,8.6-10.9,8.6-9.1-1.6-11.4-4.7l4.6-3.3c1.3,1.8,3,2.7,6.7,2.7s4.9-1.1,4.9-3.1-1.5-3-5.9-3.6c-5.4-.7-9.9-2.9-9.9-8.9s3.7-8.5,10.6-8.5,8.3,1.2,10.5,4.7l-4.5,3.2Z"/>
        </g>
      </g>
    </g>
    <g id="_34_Startups" class="st2">
      <g class="st2">
        <g class="st2">
          <path class="st21" d="M1646.2,571.7h2.7c4.1,0,6.3-2.2,6.3-5.8s-2.2-5.2-5.6-5.2-5.3,2.1-5.6,4.8h-6c.2-6.3,5.5-10.4,11.8-10.4s11.9,4.7,11.9,10.6-2.5,7.2-5.6,8.7c3.6,1.6,6.1,4.7,6.1,9.5s-4.4,11.3-12,11.3-12.4-4.5-12.8-10.7h6c.5,2.8,2.4,5,6.5,5s5.7-2.5,5.7-5.8-2.3-6.4-6.9-6.4h-2.7v-5.7Z"/>
          <path class="st21" d="M1686.4,555.6l-12.5,27.5h9.2v-10.7h6.6v10.7h3.6v5.7h-3.6v5.9h-6.6v-5.9h-17.2v-4.7l13.6-28.6h7Z"/>
          <path class="st21" d="M1733.5,565c-1.9-2.7-4-4.3-8.5-4.3s-6.4,1.8-6.4,5.1,2.9,5.2,8.4,6.4c7.9,1.7,12,4.7,12,11.7s-3.9,11.2-13.3,11.2-11.4-2-14.6-6.4l5.2-3.6c2.3,2.8,4.7,4.3,9.1,4.3s7.1-2.4,7.1-5.2-1.8-5-8.6-6.5c-7.5-1.6-11.8-5.2-11.8-11.9s3.9-10.8,13-10.8,10.6,2.1,13.4,6.4l-5,3.6Z"/>
          <path class="st21" d="M1742.3,566.3h3.6v-6.2h6v6.2h6v5.2h-6v13c0,3.3.5,4.7,3.7,4.7h2.3v5.4h-2.8c-6.8,0-9.2-2.3-9.2-9v-14.1h-3.6v-5.2Z"/>
          <path class="st21" d="M1772.1,578h6.1v-2.4c0-3.6-1.4-4.5-5.6-4.5s-4.6.3-6,2.6l-4.4-3.1c2-3.3,5.1-4.7,10.7-4.7s11.2,2.3,11.2,9.8v19.1h-6v-2.6c-1.4,2.2-3.1,3.1-6.6,3.1-6.2,0-10.1-3.2-10.1-8.8s4.5-8.4,10.5-8.4ZM1778.2,582.6h-5.7c-3.6,0-5,1.2-5,3.7s1.9,3.7,4.8,3.7,5.9-1.1,5.9-6.1v-1.4Z"/>
        </g>
        <g class="st2">
          <path class="st21" d="M1806,573.4c-.9-1.3-2.2-2.2-4.1-2.2-3.1,0-5.2,2.3-5.2,6.4v17.1h-6.1v-28.4h6v2.6c1.1-1.6,3-3.1,6.4-3.1s6.1,1.4,7.9,4.2l-4.8,3.4Z"/>
        </g>
        <g class="st2">
          <path class="st21" d="M1811.4,566.3h3.6v-6.2h6v6.2h6v5.2h-6v13c0,3.3.5,4.7,3.7,4.7h2.3v5.4h-2.8c-6.8,0-9.2-2.3-9.2-9v-14.1h-3.6v-5.2Z"/>
          <path class="st21" d="M1855.3,594.7h-6v-2.6c-1.3,2-3,3.1-7,3.1-5.8,0-10.4-3-10.4-11.2v-17.7h6.1v17.1c0,5,2.3,6.5,5.4,6.5s5.8-2.5,5.8-6.4v-17.1h6v28.4Z"/>
          <path class="st21" d="M1885.9,582.4c0,7.4-3.6,12.8-11.2,12.8s-5.4-.8-6.9-2.3v12.6h-6.1v-39.1h6.1v2.3c1.4-1.8,3.7-2.8,6.9-2.8,6.8,0,11.1,4.6,11.1,12.7v3.9ZM1879.9,582.1v-3.3c0-4.9-2-7.7-6-7.7s-6,2.7-6,7.4v3.6c0,4.4,1.4,7.9,6,7.9s6-3.5,6-7.9Z"/>
          <path class="st21" d="M1907,573.8c-1.4-1.8-2.8-2.6-6.2-2.6s-4.4.9-4.4,2.9,2.1,3.1,5.4,3.5c6.3.7,10.4,3,10.4,9s-3.6,8.6-10.9,8.6-9.1-1.6-11.4-4.7l4.6-3.3c1.3,1.8,3,2.7,6.7,2.7s4.9-1.1,4.9-3.1-1.5-3-5.9-3.6c-5.4-.7-9.9-2.9-9.9-8.9s3.7-8.5,10.6-8.5,8.3,1.2,10.6,4.7l-4.5,3.2Z"/>
        </g>
      </g>
    </g>
    <g id="_40_Startups" class="st2">
      <g class="st2">
        <g class="st2">
          <path class="st21" d="M2104.8,391.1l-12.5,27.5h9.2v-10.7h6.6v10.7h3.6v5.7h-3.6v5.9h-6.6v-5.9h-17.2v-4.7l13.6-28.6h7Z"/>
          <path class="st21" d="M2127.8,430.8c-6.5,0-12.3-3.9-12.3-12v-16.2c0-8.3,5.8-12,12.3-12s12.3,3.7,12.3,12v16.2c0,8.1-5.8,12-12.3,12ZM2127.8,396.3c-3.6,0-5.8,2.4-5.8,6.6v15.4c0,4.2,2.2,6.6,5.8,6.6s5.7-2.4,5.7-6.6v-15.4c0-4.2-2.2-6.6-5.7-6.6Z"/>
          <path class="st21" d="M2181.5,400.6c-1.9-2.7-4-4.3-8.5-4.3s-6.4,1.8-6.4,5.1,2.9,5.2,8.4,6.4c7.9,1.7,12,4.7,12,11.7s-3.9,11.2-13.3,11.2-11.4-2-14.6-6.4l5.2-3.6c2.3,2.8,4.7,4.3,9.1,4.3s7.1-2.4,7.1-5.2-1.8-5-8.6-6.5c-7.5-1.6-11.8-5.2-11.8-11.9s3.9-10.8,13-10.8,10.6,2.1,13.4,6.4l-5,3.6Z"/>
          <path class="st21" d="M2190.3,401.9h3.6v-6.2h6v6.2h6v5.2h-6v13c0,3.3.5,4.7,3.7,4.7h2.3v5.4h-2.8c-6.8,0-9.2-2.3-9.2-9v-14.1h-3.6v-5.2Z"/>
          <path class="st21" d="M2220.1,413.5h6.1v-2.4c0-3.6-1.4-4.5-5.6-4.5s-4.6.3-6,2.6l-4.4-3.1c2-3.3,5.1-4.7,10.7-4.7s11.2,2.3,11.2,9.8v19.1h-6v-2.6c-1.4,2.2-3.1,3.1-6.6,3.1-6.2,0-10.1-3.2-10.1-8.8s4.5-8.4,10.5-8.4ZM2226.2,418.2h-5.7c-3.6,0-5,1.2-5,3.7s1.9,3.7,4.8,3.7,5.9-1.1,5.9-6.1v-1.4Z"/>
        </g>
        <g class="st2">
          <path class="st21" d="M2254,409c-.9-1.3-2.2-2.2-4.1-2.2-3.1,0-5.2,2.3-5.2,6.4v17.1h-6.1v-28.4h6v2.6c1.1-1.6,3-3.1,6.4-3.1s6.1,1.4,7.9,4.2l-4.8,3.4Z"/>
        </g>
        <g class="st2">
          <path class="st21" d="M2259.3,401.9h3.6v-6.2h6v6.2h6v5.2h-6v13c0,3.3.5,4.7,3.7,4.7h2.3v5.4h-2.8c-6.8,0-9.2-2.3-9.2-9v-14.1h-3.6v-5.2Z"/>
          <path class="st21" d="M2303.3,430.2h-6v-2.6c-1.3,2-3,3.1-7,3.1-5.8,0-10.4-3-10.4-11.2v-17.7h6.1v17.1c0,5,2.3,6.5,5.4,6.5s5.8-2.5,5.8-6.4v-17.1h6v28.4Z"/>
          <path class="st21" d="M2333.9,417.9c0,7.4-3.6,12.8-11.2,12.8s-5.4-.8-6.9-2.3v12.6h-6.1v-39.1h6.1v2.3c1.4-1.8,3.7-2.8,6.9-2.8,6.8,0,11.1,4.6,11.1,12.7v3.9ZM2327.9,417.6v-3.3c0-4.9-2-7.7-6-7.7s-6,2.7-6,7.4v3.6c0,4.4,1.4,7.9,6,7.9s6-3.5,6-7.9Z"/>
          <path class="st21" d="M2355,409.3c-1.4-1.8-2.8-2.6-6.2-2.6s-4.4.9-4.4,2.9,2.1,3.1,5.4,3.5c6.3.7,10.4,3,10.4,9s-3.6,8.6-10.9,8.6-9.1-1.6-11.4-4.7l4.6-3.3c1.3,1.8,3,2.7,6.7,2.7s4.9-1.1,4.9-3.1-1.5-3-5.9-3.6c-5.4-.7-9.9-2.9-9.9-8.9s3.7-8.5,10.6-8.5,8.3,1.2,10.5,4.7l-4.5,3.2Z"/>
        </g>
      </g>
    </g>
    <g id="_45_Startups" class="st2">
      <g class="st2">
        <g class="st2">
          <path class="st21" d="M2555.6,192.6l-12.5,27.5h9.2v-10.7h6.6v10.7h3.6v5.7h-3.6v5.9h-6.6v-5.9h-17.2v-4.7l13.6-28.6h7Z"/>
          <path class="st21" d="M2573.9,213.8h-6v-21.2h21.2v6.2h-14.8v8.3c1.2-1.2,3-2.3,6-2.3,6.5,0,10.3,5,10.3,14.1s-4.1,13.3-11.9,13.3-11.3-4-11.9-10.2h6.5c.7,2.8,2.5,4.5,5.3,4.5s5.4-2.2,5.4-7.4-1.6-8.2-5.4-8.2-3.8,1.2-4.8,2.9Z"/>
          <path class="st21" d="M2632.3,202.1c-1.9-2.7-4-4.3-8.5-4.3s-6.4,1.8-6.4,5.1,2.9,5.2,8.4,6.4c7.9,1.7,12,4.7,12,11.7s-3.9,11.2-13.3,11.2-11.4-2-14.6-6.4l5.2-3.6c2.3,2.8,4.7,4.3,9.1,4.3s7.1-2.4,7.1-5.2-1.8-5-8.6-6.5c-7.5-1.6-11.8-5.2-11.8-11.9s3.9-10.8,13-10.8,10.6,2.1,13.4,6.4l-5,3.6Z"/>
          <path class="st21" d="M2641.1,203.4h3.6v-6.2h6v6.2h6v5.2h-6v13c0,3.3.5,4.7,3.7,4.7h2.3v5.4h-2.8c-6.8,0-9.2-2.3-9.2-9v-14.1h-3.6v-5.2Z"/>
          <path class="st21" d="M2670.9,215h6.1v-2.4c0-3.6-1.4-4.5-5.6-4.5s-4.6.3-6,2.6l-4.4-3.1c2-3.3,5.1-4.7,10.7-4.7s11.2,2.3,11.2,9.8v19.1h-6v-2.6c-1.4,2.2-3.1,3.1-6.6,3.1-6.2,0-10.1-3.2-10.1-8.8s4.5-8.4,10.5-8.4ZM2677,219.7h-5.7c-3.6,0-5,1.2-5,3.7s1.9,3.7,4.8,3.7,5.9-1.1,5.9-6.1v-1.4Z"/>
        </g>
        <g class="st2">
          <path class="st21" d="M2704.8,210.5c-.9-1.3-2.2-2.2-4.1-2.2-3.1,0-5.2,2.3-5.2,6.4v17.1h-6.1v-28.4h6v2.6c1.1-1.6,3-3.1,6.4-3.1s6.1,1.4,7.9,4.2l-4.8,3.4Z"/>
        </g>
        <g class="st2">
          <path class="st21" d="M2710.2,203.4h3.6v-6.2h6v6.2h6v5.2h-6v13c0,3.3.5,4.7,3.7,4.7h2.3v5.4h-2.8c-6.8,0-9.2-2.3-9.2-9v-14.1h-3.6v-5.2Z"/>
          <path class="st21" d="M2754.1,231.8h-6v-2.6c-1.3,2-3,3.1-7,3.1-5.8,0-10.4-3-10.4-11.2v-17.7h6.1v17.1c0,5,2.3,6.5,5.4,6.5s5.8-2.5,5.8-6.4v-17.1h6v28.4Z"/>
          <path class="st21" d="M2784.7,219.5c0,7.4-3.6,12.8-11.2,12.8s-5.4-.8-6.9-2.3v12.6h-6.1v-39.1h6.1v2.3c1.4-1.8,3.7-2.8,6.9-2.8,6.8,0,11.1,4.6,11.1,12.7v3.9ZM2778.7,219.2v-3.3c0-4.9-2-7.7-6-7.7s-6,2.7-6,7.4v3.6c0,4.4,1.4,7.9,6,7.9s6-3.5,6-7.9Z"/>
          <path class="st21" d="M2805.8,210.8c-1.4-1.8-2.8-2.6-6.2-2.6s-4.4.9-4.4,2.9,2.1,3.1,5.4,3.5c6.3.7,10.4,3,10.4,9s-3.6,8.6-10.9,8.6-9.1-1.6-11.4-4.7l4.6-3.3c1.3,1.8,3,2.7,6.7,2.7s4.9-1.1,4.9-3.1-1.5-3-5.9-3.6c-5.4-.7-9.9-2.9-9.9-8.9s3.7-8.5,10.6-8.5,8.3,1.2,10.5,4.7l-4.5,3.2Z"/>
        </g>
      </g>
    </g>
    <g id="_4M" class="st2">
      <g class="st2">
        <g class="st2">
          <path class="st1" d="M259,941.2l-12.5,27.5h9.2v-10.7h6.6v10.7h3.6v5.7h-3.6v5.9h-6.6v-5.9h-17.2v-4.7l13.6-28.6h7Z"/>
          <path class="st1" d="M289.1,963.8l11.3-22.7h6.3v39.1h-6.4v-26.2l-9,18.7h-4.7l-8.8-18.5v26h-6.4v-39.1h6.2l11.3,22.7Z"/>
        </g>
      </g>
    </g>
    <g id="Group_2966">
      <g class="st23">
        <g id="Group_2955">
          <path id="Path_15032" class="st21" d="M186.7,744.4h29.8v5.9h-7.4c.9,1.1,1.5,2.4,2,3.7.3.7.4,1.5.7,2.2h4.7v6h-4.7c-.2.4-.3.8-.4,1.2-1.5,4.9-5.4,8.7-10.4,10.1-1.9.4-3.9.6-5.8.5l13,13.1-4.1,4.2h-.2l-17.2-17.3v-5.9h10.9c3.6-.2,6.6-2.5,7.9-5.8h-18.8v-6h18.8c-1.2-3.3-4.2-5.6-7.7-5.8h-11.1v-5.9h0Z"/>
        </g>
      </g>
    </g>
    <g id="Group_2967">
      <g class="st11">
        <g id="Group_2955-2">
          <path id="Path_15032-2" class="st1" d="M186.7,937h29.8v5.9h-7.4c.9,1.1,1.5,2.4,2,3.7.3.7.4,1.5.7,2.2h4.7v6h-4.7c-.2.4-.3.8-.4,1.2-1.5,4.9-5.4,8.7-10.4,10.1-1.9.4-3.9.6-5.8.5l13,13.1-4.1,4.2h-.2l-17.2-17.3v-5.9h10.9c3.6-.2,6.6-2.5,7.9-5.8h-18.8v-6h18.8c-1.2-3.3-4.2-5.6-7.7-5.8h-11.1v-5.9h0Z"/>
        </g>
      </g>
    </g>
    <g id="Group_3033">
      <g id="FY_22" class="st2">
        <g class="st2">
          <g class="st2">
            <path class="st20" d="M169.9,1261.8v-64.6h40.2v11.1h-27.1v16h24.3v11h-24.3v26.4h-13.1Z"/>
            <path class="st20" d="M232.5,1235.4l-20.1-38.2h15.2l11.5,24,11.6-24h15.1l-20.1,38.2v26.4h-13.1v-26.4Z"/>
            <path class="st20" d="M312.1,1250.7h22.3v11h-39.9v-8.4l21.6-25.5c4-4.6,6-8.8,6-12.8s-.8-4.4-2.3-5.8c-1.5-1.4-3.4-2.1-5.8-2.1s-4.1.7-5.6,2.1c-1.5,1.4-2.3,3.3-2.5,5.8h-11.6c0-5.6,2-10,5.9-13.5,4-3.5,8.8-5.2,14.4-5.2s10.7,1.8,14.5,5.4c3.9,3.6,5.9,8,5.9,13.3s-.6,5.4-1.8,8c-1.3,2.9-2.5,5-3.5,6.4-1.1,1.4-2.6,3.3-4.5,5.6l-13.3,15.6Z"/>
            <path class="st20" d="M362.7,1250.7h22.3v11h-39.9v-8.4l21.6-25.5c4-4.6,6-8.8,6-12.8s-.8-4.4-2.3-5.8c-1.5-1.4-3.4-2.1-5.8-2.1s-4.1.7-5.6,2.1c-1.5,1.4-2.3,3.3-2.5,5.8h-11.6c0-5.6,2-10,5.9-13.5,4-3.5,8.8-5.2,14.4-5.2s10.7,1.8,14.5,5.4c3.9,3.6,5.9,8,5.9,13.3s-.6,5.4-1.8,8c-1.3,2.9-2.5,5-3.5,6.4-1.1,1.4-2.6,3.3-4.5,5.6l-13.3,15.6Z"/>
          </g>
        </g>
      </g>
      <g id="_45.4M" class="st2">
        <g class="st2">
          <g class="st2">
            <path class="st20" d="M233.9,1326.5l-12.5,27.5h9.2v-10.7h6.6v10.7h3.6v5.7h-3.6v5.9h-6.6v-5.9h-17.2v-4.7l13.6-28.6h7Z"/>
            <path class="st20" d="M252.2,1347.7h-6v-21.2h21.2v6.2h-14.8v8.3c1.2-1.2,3-2.3,6-2.3,6.5,0,10.3,5,10.3,14.1s-4.1,13.3-11.9,13.3-11.3-4-11.9-10.2h6.5c.7,2.8,2.5,4.5,5.3,4.5s5.4-2.2,5.4-7.4-1.6-8.2-5.4-8.2-3.8,1.2-4.8,2.9Z"/>
            <path class="st20" d="M283,1365.6h-7.8v-7.8h7.8v7.8Z"/>
            <path class="st20" d="M307.7,1326.5l-12.5,27.5h9.2v-10.7h6.6v10.7h3.6v5.7h-3.6v5.9h-6.6v-5.9h-17.2v-4.7l13.6-28.6h7Z"/>
            <path class="st20" d="M337.9,1349.2l11.3-22.7h6.3v39.1h-6.4v-26.2l-9,18.7h-4.7l-8.8-18.5v26h-6.4v-39.1h6.2l11.3,22.7Z"/>
          </g>
        </g>
      </g>
      <g id="_28_Startups" class="st2">
        <g class="st2">
          <g class="st2">
            <path class="st20" d="M189.7,1436.1h-23.7v-4.7l13.4-15.8c2.6-2.9,4-5.5,4-8.2s-2.7-5.4-5.6-5.4-5.4,1.9-5.6,5.4h-6c0-6.6,5.3-11,11.8-11s11.9,4.5,11.9,11.1-3.4,8.8-5.9,11.8l-9.2,11.1h14.9v5.7Z"/>
            <path class="st20" d="M201.2,1415.8c-3.1-1.6-5.3-4.9-5.3-8.6,0-6.7,5.8-10.8,12.1-10.8s12.1,4,12.1,10.8-2.2,7-5.3,8.6c3.2,1.4,5.9,4.9,5.9,9.4,0,7.1-5.9,11.5-12.6,11.5s-12.6-4.3-12.6-11.5,2.8-8,5.9-9.4ZM207.9,1430.9c3.4,0,6.1-2.8,6.1-6.2s-3.2-6.1-6.1-6.1-6.1,2.3-6.1,6.1,2.6,6.2,6.1,6.2ZM207.9,1413.3c3.1,0,5.6-2.5,5.6-5.6s-2.5-5.5-5.6-5.5-5.6,2.4-5.6,5.5,2.4,5.6,5.6,5.6Z"/>
            <path class="st20" d="M261.6,1406.4c-1.9-2.7-4-4.3-8.5-4.3s-6.4,1.8-6.4,5.1,2.9,5.2,8.4,6.4c7.9,1.7,12,4.7,12,11.7s-3.9,11.2-13.3,11.2-11.4-2-14.6-6.4l5.2-3.6c2.3,2.8,4.7,4.3,9.1,4.3s7.1-2.4,7.1-5.2-1.8-5-8.6-6.5c-7.5-1.6-11.8-5.2-11.8-11.9s3.9-10.8,13-10.8,10.6,2.1,13.4,6.4l-5,3.6Z"/>
            <path class="st20" d="M270.4,1407.8h3.6v-6.2h6v6.2h6v5.2h-6v13c0,3.3.5,4.7,3.7,4.7h2.3v5.4h-2.8c-6.8,0-9.2-2.3-9.2-9v-14.1h-3.6v-5.2Z"/>
            <path class="st20" d="M300.2,1419.4h6.1v-2.4c0-3.6-1.4-4.5-5.6-4.5s-4.6.3-6,2.6l-4.4-3.1c2-3.3,5.1-4.7,10.7-4.7s11.2,2.3,11.2,9.8v19.1h-6v-2.6c-1.4,2.2-3.1,3.1-6.6,3.1-6.2,0-10.1-3.2-10.1-8.8s4.5-8.4,10.5-8.4ZM306.3,1424h-5.7c-3.6,0-5,1.2-5,3.7s1.9,3.7,4.8,3.7,5.9-1.1,5.9-6.1v-1.4Z"/>
          </g>
          <g class="st2">
            <path class="st20" d="M334.1,1414.8c-.9-1.3-2.2-2.2-4.1-2.2-3.1,0-5.2,2.3-5.2,6.4v17.1h-6.1v-28.4h6v2.6c1.1-1.6,3-3.1,6.4-3.1s6.1,1.4,7.9,4.2l-4.8,3.4Z"/>
          </g>
          <g class="st2">
            <path class="st20" d="M339.4,1407.8h3.6v-6.2h6v6.2h6v5.2h-6v13c0,3.3.5,4.7,3.7,4.7h2.3v5.4h-2.8c-6.8,0-9.2-2.3-9.2-9v-14.1h-3.6v-5.2Z"/>
            <path class="st20" d="M383.4,1436.1h-6v-2.6c-1.3,2-3,3.1-7,3.1-5.8,0-10.4-3-10.4-11.2v-17.7h6.1v17.1c0,5,2.3,6.5,5.4,6.5s5.8-2.5,5.8-6.4v-17.1h6v28.4Z"/>
            <path class="st20" d="M414,1423.8c0,7.4-3.6,12.8-11.2,12.8s-5.4-.8-6.9-2.3v12.6h-6.1v-39.1h6.1v2.3c1.4-1.8,3.7-2.8,6.9-2.8,6.8,0,11.1,4.6,11.1,12.7v3.9ZM408,1423.5v-3.3c0-4.9-2-7.7-6-7.7s-6,2.7-6,7.4v3.6c0,4.4,1.4,7.9,6,7.9s6-3.5,6-7.9Z"/>
            <path class="st20" d="M435.1,1415.2c-1.4-1.8-2.8-2.6-6.2-2.6s-4.4.9-4.4,2.9,2.1,3.1,5.4,3.5c6.3.7,10.4,3,10.4,9s-3.6,8.6-10.9,8.6-9.1-1.6-11.4-4.7l4.6-3.3c1.3,1.8,3,2.7,6.7,2.7s4.9-1.1,4.9-3.1-1.5-3-5.9-3.6c-5.4-.7-9.9-2.9-9.9-8.9s3.7-8.5,10.6-8.5,8.3,1.2,10.5,4.7l-4.5,3.2Z"/>
          </g>
        </g>
      </g>
      <g id="Group_2959">
        <g class="st14">
          <g id="Group_2955-3">
            <path id="Path_15032-3" class="st20" d="M162.8,1321.5h29.8v5.9h-7.4c.9,1.1,1.5,2.4,2,3.7.3.7.4,1.5.7,2.2h4.7v5.9h-4.7c-.2.4-.3.8-.4,1.2-1.5,4.9-5.4,8.7-10.4,10.1-1.9.4-3.9.6-5.8.5l13,13.1-4.1,4.2h-.2l-17.2-17.3v-5.9h10.9c3.6-.2,6.6-2.5,7.9-5.8h-18.8v-5.9h18.8c-1.2-3.3-4.2-5.6-7.7-5.8h-11.1v-5.9h0Z"/>
          </g>
        </g>
      </g>
    </g>
    <g id="FY_23" class="st2">
      <g class="st2">
        <g class="st2">
          <path class="st20" d="M558.7,1261v-64.6h40.2v11.1h-27.1v16h24.3v11h-24.3v26.4h-13.1Z"/>
          <path class="st20" d="M621.3,1234.6l-20.1-38.2h15.2l11.5,24,11.6-24h15.1l-20.1,38.2v26.4h-13.1v-26.4Z"/>
          <path class="st20" d="M701,1249.9h22.3v11h-39.9v-8.4l21.6-25.5c4-4.6,6-8.8,6-12.8s-.8-4.4-2.3-5.8c-1.5-1.4-3.4-2.1-5.8-2.1s-4.1.7-5.6,2.1c-1.5,1.4-2.3,3.3-2.5,5.8h-11.6c0-5.6,2-10,5.9-13.5,4-3.5,8.8-5.2,14.4-5.2s10.7,1.8,14.5,5.4c3.9,3.6,5.9,8,5.9,13.3s-.6,5.4-1.8,8c-1.3,2.9-2.5,5-3.5,6.4-1.1,1.4-2.6,3.3-4.5,5.6l-13.3,15.6Z"/>
          <path class="st20" d="M752.1,1233.2h-4.8v-11h4.8c2.8,0,5-.7,6.6-2.2,1.6-1.4,2.4-3.5,2.4-6.1s-.7-4-2.2-5.4c-1.5-1.4-3.4-2.1-5.8-2.1s-4,.6-5.4,1.9c-1.4,1.2-2.3,2.9-2.6,5.1h-11.6c.3-5.3,2.3-9.6,6.1-12.8,3.9-3.3,8.6-5,14.2-5s10.6,1.7,14.5,5.2c3.9,3.4,5.9,7.6,5.9,12.5s-2.9,10.9-8.8,14.1c6.5,3.2,9.7,8.3,9.7,15.4s-1.8,9.9-5.5,13.6c-3.7,3.6-8.7,5.3-15.1,5.3s-11.9-1.7-15.7-5c-3.9-3.3-5.9-7.7-6.2-13.2h11.5c.8,4.7,4,7.1,9.5,7.1s4.6-.8,6.1-2.4c1.5-1.6,2.3-3.6,2.3-6.1,0-6-3.3-9.1-9.9-9.1Z"/>
        </g>
      </g>
    </g>
    <g id="_55.41M" class="st2">
      <g class="st2">
        <g class="st2">
          <path class="st20" d="M610.6,1345.1h-6v-21.2h21.2v6.2h-14.8v8.3c1.2-1.2,3-2.3,6-2.3,6.5,0,10.3,5,10.3,14.1s-4.1,13.3-11.9,13.3-11.3-4-11.9-10.2h6.5c.7,2.8,2.5,4.5,5.3,4.5s5.4-2.2,5.4-7.4-1.6-8.2-5.4-8.2-3.8,1.2-4.8,2.9Z"/>
          <path class="st20" d="M640.2,1345.1h-6v-21.2h21.2v6.2h-14.8v8.3c1.2-1.2,3-2.3,6-2.3,6.5,0,10.3,5,10.3,14.1s-4.1,13.3-11.9,13.3-11.3-4-11.9-10.2h6.5c.7,2.8,2.5,4.5,5.3,4.5s5.4-2.2,5.4-7.4-1.6-8.2-5.4-8.2-3.8,1.2-4.8,2.9Z"/>
          <path class="st20" d="M671,1363.1h-7.8v-7.8h7.8v7.8Z"/>
          <path class="st20" d="M695.7,1323.9l-12.5,27.5h9.2v-10.7h6.6v10.7h3.6v5.7h-3.6v5.9h-6.6v-5.9h-17.2v-4.7l13.6-28.6h7Z"/>
          <path class="st20" d="M723.3,1363.1h-6.6v-32l-5.6,3.9v-6.6l6-4.3h6.2v39.1Z"/>
          <path class="st20" d="M755.5,1346.6l11.3-22.7h6.3v39.1h-6.4v-26.2l-9,18.7h-4.7l-8.8-18.5v26h-6.4v-39.1h6.2l11.3,22.7Z"/>
        </g>
      </g>
    </g>
    <g id="_28_Startups-2" class="st2">
      <g class="st2">
        <g class="st2">
          <path class="st20" d="M578.6,1436.8h-23.7v-4.7l13.4-15.8c2.6-2.9,4-5.5,4-8.2s-2.7-5.4-5.6-5.4-5.4,1.9-5.6,5.4h-6c0-6.6,5.3-11,11.8-11s11.9,4.5,11.9,11.1-3.4,8.8-5.9,11.8l-9.2,11.1h14.9v5.7Z"/>
          <path class="st20" d="M590,1416.5c-3.1-1.6-5.3-4.9-5.3-8.6,0-6.7,5.8-10.8,12.1-10.8s12.1,4,12.1,10.8-2.2,7-5.3,8.6c3.2,1.4,5.9,4.9,5.9,9.4,0,7.1-5.9,11.5-12.6,11.5s-12.6-4.3-12.6-11.5,2.8-8,5.9-9.4ZM596.8,1431.6c3.4,0,6.1-2.8,6.1-6.2s-3.2-6.1-6.1-6.1-6.1,2.3-6.1,6.1,2.6,6.2,6.1,6.2ZM596.8,1414c3.1,0,5.6-2.5,5.6-5.6s-2.5-5.5-5.6-5.5-5.6,2.4-5.6,5.5,2.4,5.6,5.6,5.6Z"/>
          <path class="st20" d="M650.4,1407.1c-1.9-2.7-4-4.3-8.5-4.3s-6.4,1.8-6.4,5.1,2.9,5.2,8.4,6.4c7.9,1.7,12,4.7,12,11.7s-3.9,11.2-13.3,11.2-11.4-2-14.6-6.4l5.2-3.6c2.3,2.8,4.7,4.3,9.1,4.3s7.1-2.4,7.1-5.2-1.8-5-8.6-6.5c-7.5-1.6-11.8-5.2-11.8-11.9s3.9-10.8,13-10.8,10.6,2.1,13.4,6.4l-5,3.6Z"/>
          <path class="st20" d="M659.2,1408.4h3.6v-6.2h6v6.2h6v5.2h-6v13c0,3.3.5,4.7,3.7,4.7h2.3v5.4h-2.8c-6.8,0-9.2-2.3-9.2-9v-14.1h-3.6v-5.2Z"/>
          <path class="st20" d="M689,1420h6.1v-2.4c0-3.6-1.4-4.5-5.6-4.5s-4.6.3-6,2.6l-4.4-3.1c2-3.3,5.1-4.7,10.7-4.7s11.2,2.3,11.2,9.8v19.1h-6v-2.6c-1.4,2.2-3.1,3.1-6.6,3.1-6.2,0-10.1-3.2-10.1-8.8s4.5-8.4,10.5-8.4ZM695.1,1424.7h-5.7c-3.6,0-5,1.2-5,3.7s1.9,3.7,4.8,3.7,5.9-1.1,5.9-6.1v-1.4Z"/>
        </g>
        <g class="st2">
          <path class="st20" d="M722.9,1415.5c-.9-1.3-2.2-2.2-4.1-2.2-3.1,0-5.2,2.3-5.2,6.4v17.1h-6.1v-28.4h6v2.6c1.1-1.6,3-3.1,6.4-3.1s6.1,1.4,7.9,4.2l-4.8,3.4Z"/>
        </g>
        <g class="st2">
          <path class="st20" d="M728.3,1408.4h3.6v-6.2h6v6.2h6v5.2h-6v13c0,3.3.5,4.7,3.7,4.7h2.3v5.4h-2.8c-6.8,0-9.2-2.3-9.2-9v-14.1h-3.6v-5.2Z"/>
          <path class="st20" d="M772.2,1436.8h-6v-2.6c-1.3,2-3,3.1-7,3.1-5.8,0-10.4-3-10.4-11.2v-17.7h6.1v17.1c0,5,2.3,6.5,5.4,6.5s5.8-2.5,5.8-6.4v-17.1h6v28.4Z"/>
          <path class="st20" d="M802.9,1424.5c0,7.4-3.6,12.8-11.2,12.8s-5.4-.8-6.9-2.3v12.6h-6.1v-39.1h6.1v2.3c1.4-1.8,3.7-2.8,6.9-2.8,6.8,0,11.1,4.6,11.1,12.7v3.9ZM796.8,1424.2v-3.3c0-4.9-2-7.7-6-7.7s-6,2.7-6,7.4v3.6c0,4.4,1.4,7.9,6,7.9s6-3.5,6-7.9Z"/>
          <path class="st20" d="M823.9,1415.8c-1.4-1.8-2.8-2.6-6.2-2.6s-4.4.9-4.4,2.9,2.1,3.1,5.4,3.5c6.3.7,10.4,3,10.4,9s-3.6,8.6-10.9,8.6-9.1-1.6-11.4-4.7l4.6-3.3c1.3,1.8,3,2.7,6.7,2.7s4.9-1.1,4.9-3.1-1.5-3-5.9-3.6c-5.4-.7-9.9-2.9-9.9-8.9s3.7-8.5,10.6-8.5,8.3,1.2,10.5,4.7l-4.5,3.2Z"/>
        </g>
      </g>
    </g>
    <g id="Group_2960">
      <g class="st12">
        <g id="Group_2955-4">
          <path id="Path_15032-4" class="st20" d="M559.7,1320.2h29.8v5.9h-7.4c.8,1.1,1.5,2.4,2,3.7.3.7.4,1.5.7,2.2h4.7v5.9h-4.7c-.2.4-.3.8-.4,1.2-1.5,4.9-5.4,8.7-10.4,10.1-1.9.4-3.8.6-5.8.5l13,13.1-4.1,4.2h-.2l-17.2-17.3v-5.9h10.9c3.5-.2,6.7-2.5,7.9-5.8h-18.8v-5.9h18.8c-1.2-3.3-4.2-5.6-7.7-5.8h-11.1v-5.9h0Z"/>
        </g>
      </g>
    </g>
    <g id="FY_24" class="st2">
      <g class="st2">
        <g class="st2">
          <path class="st20" d="M1026.6,1263.8v-64.6h40.2v11.1h-27.1v16h24.3v11h-24.3v26.4h-13.1Z"/>
          <path class="st20" d="M1089.2,1237.4l-20.1-38.2h15.2l11.5,24,11.6-24h15.1l-20.1,38.2v26.4h-13.1v-26.4Z"/>
          <path class="st20" d="M1168.8,1252.8h22.3v11h-39.9v-8.4l21.6-25.5c4-4.6,6-8.8,6-12.8s-.8-4.4-2.3-5.8c-1.5-1.4-3.4-2.1-5.8-2.1s-4.1.7-5.6,2.1c-1.5,1.4-2.3,3.3-2.5,5.8h-11.6c0-5.6,2-10,5.9-13.5,4-3.5,8.8-5.2,14.4-5.2s10.7,1.8,14.5,5.4c3.9,3.6,5.9,8,5.9,13.3s-.6,5.4-1.8,8c-1.3,2.9-2.5,5-3.5,6.4-1.1,1.4-2.6,3.3-4.5,5.6l-13.3,15.6Z"/>
          <path class="st20" d="M1197.8,1245.6l22.1-46.3h14.3l-20.1,44.3h12.4v-16.5h13.1v16.5h5.9v11.1h-5.9v9.2h-13.1v-9.2h-28.6v-9.1Z"/>
        </g>
      </g>
    </g>
    <g id="_57.52M" class="st2">
      <g class="st2">
        <g class="st2">
          <path class="st20" d="M1078.4,1348h-6v-21.2h21.2v6.2h-14.8v8.3c1.2-1.2,3-2.3,6-2.3,6.5,0,10.3,5,10.3,14.1s-4.1,13.3-11.9,13.3-11.3-4-11.9-10.2h6.5c.7,2.8,2.5,4.5,5.3,4.5s5.4-2.2,5.4-7.4-1.6-8.2-5.4-8.2-3.8,1.2-4.8,2.9Z"/>
        </g>
        <g class="st2">
          <path class="st20" d="M1101.5,1338.9v-12.1h23v5l-11.7,34.1h-6.9l11.8-33.4h-10.5v6.4h-5.7Z"/>
        </g>
        <g class="st2">
          <path class="st20" d="M1135.5,1365.9h-7.8v-7.8h7.8v7.8Z"/>
          <path class="st20" d="M1149,1348h-6v-21.2h21.2v6.2h-14.8v8.3c1.2-1.2,3-2.3,6-2.3,6.5,0,10.3,5,10.3,14.1s-4.1,13.3-11.9,13.3-11.3-4-11.9-10.2h6.5c.7,2.8,2.5,4.5,5.3,4.5s5.4-2.2,5.4-7.4-1.6-8.2-5.4-8.2-3.8,1.2-4.8,2.9Z"/>
          <path class="st20" d="M1194.7,1365.9h-23.7v-4.7l13.4-15.8c2.6-2.9,4-5.5,4-8.2s-2.7-5.4-5.6-5.4-5.4,1.9-5.6,5.4h-6c0-6.6,5.3-11,11.8-11s11.9,4.5,11.9,11.1-3.4,8.8-5.9,11.8l-9.2,11.1h14.9v5.7Z"/>
          <path class="st20" d="M1220,1349.4l11.3-22.7h6.3v39.1h-6.4v-26.2l-9,18.7h-4.7l-8.8-18.5v26h-6.4v-39.1h6.2l11.3,22.7Z"/>
        </g>
      </g>
    </g>
    <g id="_31_Startups" class="st2">
      <g class="st2">
        <g class="st2">
          <path class="st20" d="M1031,1416.6h2.7c4.1,0,6.3-2.2,6.3-5.8s-2.2-5.2-5.6-5.2-5.3,2.1-5.6,4.8h-6c.2-6.3,5.5-10.4,11.8-10.4s11.9,4.7,11.9,10.6-2.5,7.2-5.6,8.7c3.6,1.6,6.1,4.7,6.1,9.5s-4.4,11.3-12,11.3-12.4-4.5-12.8-10.7h6c.5,2.8,2.4,5,6.5,5s5.7-2.5,5.7-5.8-2.3-6.4-6.9-6.4h-2.7v-5.7Z"/>
          <path class="st20" d="M1069.1,1439.6h-6.6v-32l-5.6,3.9v-6.6l6-4.3h6.2v39.1Z"/>
          <path class="st20" d="M1118.3,1409.9c-1.9-2.7-4-4.3-8.5-4.3s-6.4,1.8-6.4,5.1,2.9,5.2,8.4,6.4c7.9,1.7,12,4.7,12,11.7s-3.9,11.2-13.3,11.2-11.4-2-14.6-6.4l5.2-3.6c2.3,2.8,4.7,4.3,9.1,4.3s7.1-2.4,7.1-5.2-1.8-5-8.6-6.5c-7.5-1.6-11.8-5.2-11.8-11.9s3.9-10.8,13-10.8,10.6,2.1,13.4,6.4l-5,3.6Z"/>
          <path class="st20" d="M1127,1411.3h3.6v-6.2h6v6.2h6v5.2h-6v13c0,3.3.5,4.7,3.7,4.7h2.3v5.4h-2.8c-6.8,0-9.2-2.3-9.2-9v-14.1h-3.6v-5.2Z"/>
          <path class="st20" d="M1156.8,1422.9h6.1v-2.4c0-3.6-1.4-4.5-5.6-4.5s-4.6.3-6,2.6l-4.4-3.1c2-3.3,5.1-4.7,10.7-4.7s11.2,2.3,11.2,9.8v19.1h-6v-2.6c-1.4,2.2-3.1,3.1-6.6,3.1-6.2,0-10.1-3.2-10.1-8.8s4.5-8.4,10.5-8.4ZM1162.9,1427.5h-5.7c-3.6,0-5,1.2-5,3.7s1.9,3.7,4.8,3.7,5.9-1.1,5.9-6.1v-1.4Z"/>
        </g>
        <g class="st2">
          <path class="st20" d="M1190.7,1418.3c-.9-1.3-2.2-2.2-4.1-2.2-3.1,0-5.2,2.3-5.2,6.4v17.1h-6.1v-28.4h6v2.6c1.1-1.6,3-3.1,6.4-3.1s6.1,1.4,7.9,4.2l-4.8,3.4Z"/>
        </g>
        <g class="st2">
          <path class="st20" d="M1196.1,1411.3h3.6v-6.2h6v6.2h6v5.2h-6v13c0,3.3.5,4.7,3.7,4.7h2.3v5.4h-2.8c-6.8,0-9.2-2.3-9.2-9v-14.1h-3.6v-5.2Z"/>
          <path class="st20" d="M1240.1,1439.6h-6v-2.6c-1.3,2-3,3.1-7,3.1-5.8,0-10.4-3-10.4-11.2v-17.7h6.1v17.1c0,5,2.3,6.5,5.4,6.5s5.8-2.5,5.8-6.4v-17.1h6v28.4Z"/>
          <path class="st20" d="M1270.7,1427.3c0,7.4-3.6,12.8-11.2,12.8s-5.4-.8-6.9-2.3v12.6h-6.1v-39.1h6.1v2.3c1.4-1.8,3.7-2.8,6.9-2.8,6.8,0,11.1,4.6,11.1,12.7v3.9ZM1264.7,1427v-3.3c0-4.9-2-7.7-6-7.7s-6,2.7-6,7.4v3.6c0,4.4,1.4,7.9,6,7.9s6-3.5,6-7.9Z"/>
          <path class="st20" d="M1291.7,1418.7c-1.4-1.8-2.8-2.6-6.2-2.6s-4.4.9-4.4,2.9,2.1,3.1,5.4,3.5c6.3.7,10.4,3,10.4,9s-3.6,8.6-10.9,8.6-9.1-1.6-11.4-4.7l4.6-3.3c1.3,1.8,3,2.7,6.7,2.7s4.9-1.1,4.9-3.1-1.5-3-5.9-3.6c-5.4-.7-9.9-2.9-9.9-8.9s3.7-8.5,10.6-8.5,8.3,1.2,10.5,4.7l-4.5,3.2Z"/>
        </g>
      </g>
    </g>
    <g id="Group_2960-2">
      <g class="st13">
        <g id="Group_2955-5">
          <path id="Path_15032-5" class="st20" d="M1019.8,1323.2h29.8v5.9h-7.4c.8,1.1,1.5,2.4,2,3.7.3.7.4,1.5.7,2.2h4.7v5.9h-4.7c-.2.4-.3.8-.4,1.2-1.5,4.9-5.4,8.7-10.4,10.1-1.9.4-3.8.6-5.8.5l13,13.1-4.1,4.2h-.2l-17.2-17.3v-5.9h10.9c3.6-.2,6.7-2.5,7.9-5.8h-18.8v-5.9h18.8c-1.2-3.3-4.2-5.6-7.7-5.8h-11.1v-5.9h0Z"/>
        </g>
      </g>
    </g>
    <g id="FY" class="st2">
      <g class="st2">
        <g class="st2">
          <path class="st20" d="M1505.7,1263.8v-64.6h40.2v11.1h-27.1v16h24.3v11h-24.3v26.4h-13.1Z"/>
          <path class="st20" d="M1568.3,1237.4l-20.1-38.2h15.2l11.5,24,11.6-24h15.1l-20.1,38.2v26.4h-13.1v-26.4Z"/>
          <path class="st20" d="M1648,1252.8h22.3v11h-39.9v-8.4l21.6-25.5c4-4.6,6-8.8,6-12.8s-.8-4.4-2.3-5.8c-1.5-1.4-3.4-2.1-5.8-2.1s-4.1.7-5.6,2.1c-1.5,1.4-2.3,3.3-2.5,5.8h-11.6c0-5.6,2-10,5.9-13.5,4-3.5,8.8-5.2,14.4-5.2s10.7,1.8,14.5,5.4c3.9,3.6,5.9,8,5.9,13.3s-.6,5.4-1.8,8c-1.3,2.9-2.5,5-3.5,6.4-1.1,1.4-2.6,3.3-4.5,5.6l-13.3,15.6Z"/>
          <path class="st20" d="M1701.6,1230.6c-3,0-5.3,1.6-6.8,4.8h-11.8v-36.1h36.8v11.9h-24v11c2.4-2.2,5.6-3.4,9.5-3.4s9.3,2,12.3,6c3,4,4.5,9.7,4.5,17,0,15.2-6.7,22.8-20.2,22.8s-10.5-1.5-14.4-4.6c-3.9-3.1-6.1-7.4-6.5-12.9h12.9c1,4.3,3.6,6.5,7.7,6.5s7.5-3.7,7.5-11.1-2.5-11.9-7.5-11.9Z"/>
          <path class="st20" d="M1741.5,1199.3h8.9l-.5,9.5,8-5.2,4.4,7.7-8.2,4.3,8.3,4.4-4.5,7.6-8-5.1.5,9.5h-8.9l.4-9.4-7.8,5.1-4.5-7.7,8.4-4.3-8.3-4.4,4.3-7.7,7.9,5.1-.4-9.4Z"/>
        </g>
      </g>
    </g>
    <g id="_84.8M" class="st2">
      <g class="st2">
        <g class="st2">
          <path class="st20" d="M1555.6,1345.6c-3.1-1.6-5.3-4.9-5.3-8.6,0-6.7,5.8-10.8,12.1-10.8s12.1,4,12.1,10.8-2.2,7-5.3,8.6c3.2,1.4,5.9,4.9,5.9,9.4,0,7.1-5.9,11.5-12.6,11.5s-12.6-4.3-12.6-11.5,2.8-8,5.9-9.4ZM1562.4,1360.7c3.4,0,6.1-2.8,6.1-6.2s-3.2-6.1-6.1-6.1-6.1,2.3-6.1,6.1,2.6,6.2,6.1,6.2ZM1562.4,1343.1c3.1,0,5.6-2.5,5.6-5.6s-2.5-5.5-5.6-5.5-5.6,2.4-5.6,5.5,2.4,5.6,5.6,5.6Z"/>
          <path class="st20" d="M1598.5,1326.8l-12.5,27.5h9.2v-10.7h6.6v10.7h3.6v5.7h-3.6v5.9h-6.6v-5.9h-17.2v-4.7l13.6-28.6h7Z"/>
          <path class="st20" d="M1618,1365.9h-7.8v-7.8h7.8v7.8Z"/>
          <path class="st20" d="M1629.5,1345.6c-3.1-1.6-5.3-4.9-5.3-8.6,0-6.7,5.8-10.8,12.1-10.8s12.1,4,12.1,10.8-2.2,7-5.3,8.6c3.2,1.4,5.9,4.9,5.9,9.4,0,7.1-5.9,11.5-12.6,11.5s-12.6-4.3-12.6-11.5,2.8-8,5.9-9.4ZM1636.2,1360.7c3.4,0,6.1-2.8,6.1-6.2s-3.2-6.1-6.1-6.1-6.1,2.3-6.1,6.1,2.6,6.2,6.1,6.2ZM1636.2,1343.1c3.1,0,5.6-2.5,5.6-5.6s-2.5-5.5-5.6-5.5-5.6,2.4-5.6,5.5,2.4,5.6,5.6,5.6Z"/>
          <path class="st20" d="M1672.8,1349.4l11.3-22.7h6.3v39.1h-6.4v-26.2l-9,18.7h-4.7l-8.8-18.5v26h-6.4v-39.1h6.2l11.3,22.7Z"/>
        </g>
      </g>
    </g>
    <g id="_46_Startups" class="st2">
      <g class="st2">
        <g class="st2">
          <path class="st20" d="M1520.7,1400.5l-12.5,27.5h9.2v-10.7h6.6v10.7h3.6v5.7h-3.6v5.9h-6.6v-5.9h-17.2v-4.7l13.6-28.6h7Z"/>
          <path class="st20" d="M1541.8,1417.1c1.1-.6,2.5-.7,3.7-.7,6.1,0,10.5,4.9,10.5,11.6s-5.3,12.2-12.3,12.2-12.4-4.3-12.4-12.1,1.4-6.4,3.2-10.3l8-17.3h7.1l-7.9,16.6ZM1543.8,1434.4c3.6,0,5.7-2.5,5.7-6.3s-2.2-6.3-5.7-6.3-5.8,2.6-5.8,6.3,2.2,6.3,5.8,6.3Z"/>
          <path class="st20" d="M1597.4,1409.9c-1.9-2.7-4-4.3-8.5-4.3s-6.4,1.8-6.4,5.1,2.9,5.2,8.4,6.4c7.9,1.7,12,4.7,12,11.7s-3.9,11.2-13.3,11.2-11.4-2-14.6-6.4l5.2-3.6c2.3,2.8,4.7,4.3,9.1,4.3s7.1-2.4,7.1-5.2-1.8-5-8.6-6.5c-7.5-1.6-11.8-5.2-11.8-11.9s3.9-10.8,13-10.8,10.6,2.1,13.4,6.4l-5,3.6Z"/>
          <path class="st20" d="M1606.2,1411.3h3.6v-6.2h6v6.2h6v5.2h-6v13c0,3.3.5,4.7,3.7,4.7h2.3v5.4h-2.8c-6.8,0-9.2-2.3-9.2-9v-14.1h-3.6v-5.2Z"/>
          <path class="st20" d="M1636,1422.9h6.1v-2.4c0-3.6-1.4-4.5-5.6-4.5s-4.6.3-6,2.6l-4.4-3.1c2-3.3,5.1-4.7,10.7-4.7s11.2,2.3,11.2,9.8v19.1h-6v-2.6c-1.4,2.2-3.1,3.1-6.6,3.1-6.2,0-10.1-3.2-10.1-8.8s4.5-8.4,10.5-8.4ZM1642.1,1427.5h-5.7c-3.6,0-5,1.2-5,3.7s1.9,3.7,4.8,3.7,5.9-1.1,5.9-6.1v-1.4Z"/>
        </g>
        <g class="st2">
          <path class="st20" d="M1669.9,1418.3c-.9-1.3-2.2-2.2-4.1-2.2-3.1,0-5.2,2.3-5.2,6.4v17.1h-6.1v-28.4h6v2.6c1.1-1.6,3-3.1,6.4-3.1s6.1,1.4,7.9,4.2l-4.8,3.4Z"/>
        </g>
        <g class="st2">
          <path class="st20" d="M1675.3,1411.3h3.6v-6.2h6v6.2h6v5.2h-6v13c0,3.3.5,4.7,3.7,4.7h2.3v5.4h-2.8c-6.8,0-9.2-2.3-9.2-9v-14.1h-3.6v-5.2Z"/>
          <path class="st20" d="M1719.2,1439.6h-6v-2.6c-1.3,2-3,3.1-7,3.1-5.8,0-10.4-3-10.4-11.2v-17.7h6.1v17.1c0,5,2.3,6.5,5.4,6.5s5.8-2.5,5.8-6.4v-17.1h6v28.4Z"/>
          <path class="st20" d="M1749.8,1427.3c0,7.4-3.6,12.8-11.2,12.8s-5.4-.8-6.9-2.3v12.6h-6.1v-39.1h6.1v2.3c1.4-1.8,3.7-2.8,6.9-2.8,6.8,0,11.1,4.6,11.1,12.7v3.9ZM1743.8,1427v-3.3c0-4.9-2-7.7-6-7.7s-6,2.7-6,7.4v3.6c0,4.4,1.4,7.9,6,7.9s6-3.5,6-7.9Z"/>
          <path class="st20" d="M1770.9,1418.7c-1.4-1.8-2.8-2.6-6.2-2.6s-4.4.9-4.4,2.9,2.1,3.1,5.4,3.5c6.3.7,10.4,3,10.4,9s-3.6,8.6-10.9,8.6-9.1-1.6-11.4-4.7l4.6-3.3c1.3,1.8,3,2.7,6.7,2.7s4.9-1.1,4.9-3.1-1.5-3-5.9-3.6c-5.4-.7-9.9-2.9-9.9-8.9s3.7-8.5,10.6-8.5,8.3,1.2,10.6,4.7l-4.5,3.2Z"/>
        </g>
      </g>
    </g>
    <g id="Group_2960-3">
      <g class="st19">
        <g id="Group_2955-6">
          <path id="Path_15032-6" class="st20" d="M1499.2,1323.2h29.8v5.9h-7.4c.8,1.1,1.5,2.4,2,3.7.3.7.4,1.5.7,2.2h4.7v5.9h-4.7c-.2.4-.3.8-.4,1.2-1.5,4.9-5.4,8.7-10.4,10.1-1.9.4-3.8.6-5.8.5l13,13.1-4.1,4.2h-.2l-17.2-17.3v-5.9h10.9c3.6-.2,6.7-2.5,7.9-5.8h-18.8v-5.9h18.8c-1.2-3.3-4.2-5.6-7.7-5.8h-11.1v-5.9h0Z"/>
        </g>
      </g>
    </g>
    <g id="FY-2" class="st2">
      <g class="st2">
        <g class="st2">
          <path class="st20" d="M1950.9,1263.8v-64.6h40.2v11.1h-27.1v16h24.3v11h-24.3v26.4h-13.1Z"/>
          <path class="st20" d="M2013.5,1237.4l-20.1-38.2h15.2l11.5,24,11.6-24h15.1l-20.1,38.2v26.4h-13.1v-26.4Z"/>
          <path class="st20" d="M2093.1,1252.8h22.3v11h-39.9v-8.4l21.6-25.5c4-4.6,6-8.8,6-12.8s-.8-4.4-2.3-5.8c-1.5-1.4-3.4-2.1-5.8-2.1s-4.1.7-5.6,2.1c-1.5,1.4-2.3,3.3-2.5,5.8h-11.6c0-5.6,2-10,5.9-13.5,4-3.5,8.8-5.2,14.4-5.2s10.7,1.8,14.5,5.4c3.9,3.6,5.9,8,5.9,13.3s-.6,5.4-1.8,8c-1.3,2.9-2.5,5-3.5,6.4-1.1,1.4-2.6,3.3-4.5,5.6l-13.3,15.6Z"/>
          <path class="st20" d="M2143.7,1199.3h14l-13.5,26.6c1.6-.8,3.7-1.2,6.3-1.2,5,0,9.2,1.8,12.5,5.5,3.4,3.6,5.1,8.2,5.1,13.8s-2,11.8-5.9,15.4c-3.9,3.6-9.2,5.4-15.7,5.4s-11.7-1.7-15.7-5.2c-4.1-3.5-6.1-8.6-6.1-15.4s2-10.5,5.9-18.4l13-26.3ZM2137.9,1244.5c0,2.9.8,5.1,2.3,6.7,1.5,1.6,3.7,2.4,6.4,2.4s4.8-.8,6.3-2.4c1.5-1.6,2.2-3.9,2.2-6.7s-.7-5-2.2-6.6c-1.5-1.6-3.6-2.4-6.3-2.4s-4.9.8-6.4,2.4c-1.5,1.6-2.3,3.8-2.3,6.6Z"/>
          <path class="st20" d="M2186.7,1199.3h8.9l-.5,9.5,8-5.2,4.4,7.7-8.2,4.3,8.3,4.4-4.5,7.6-8-5.1.5,9.5h-8.9l.4-9.4-7.8,5.1-4.5-7.7,8.4-4.3-8.3-4.4,4.3-7.7,7.9,5.1-.4-9.4Z"/>
        </g>
      </g>
    </g>
    <g id="_102M" class="st2">
      <g class="st2">
        <g class="st2">
          <path class="st20" d="M2014.8,1365.9h-6.6v-32l-5.6,3.9v-6.6l6-4.3h6.2v39.1Z"/>
          <path class="st20" d="M2040,1366.4c-6.5,0-12.3-3.9-12.3-12v-16.2c0-8.3,5.8-12,12.3-12s12.3,3.7,12.3,12v16.2c0,8.1-5.8,12-12.3,12ZM2040,1332c-3.6,0-5.8,2.4-5.8,6.6v15.4c0,4.2,2.2,6.6,5.8,6.6s5.7-2.4,5.7-6.6v-15.4c0-4.2-2.2-6.6-5.7-6.6Z"/>
          <path class="st20" d="M2081,1365.9h-23.7v-4.7l13.4-15.8c2.6-2.9,4-5.5,4-8.2s-2.7-5.4-5.6-5.4-5.4,1.9-5.6,5.4h-6c0-6.6,5.3-11,11.8-11s11.9,4.5,11.9,11.1-3.4,8.8-5.9,11.8l-9.2,11.1h14.9v5.7Z"/>
          <path class="st20" d="M2106.2,1349.4l11.3-22.7h6.3v39.1h-6.4v-26.2l-9,18.7h-4.7l-8.8-18.5v26h-6.4v-39.1h6.2l11.3,22.7Z"/>
        </g>
      </g>
    </g>
    <g id="_58_Startups" class="st2">
      <g class="st2">
        <g class="st2">
          <path class="st20" d="M1954.5,1421.7h-6v-21.2h21.2v6.2h-14.8v8.3c1.2-1.2,3-2.3,6-2.3,6.5,0,10.3,5,10.3,14.1s-4.1,13.3-11.9,13.3-11.3-4-11.9-10.2h6.5c.7,2.8,2.5,4.5,5.3,4.5s5.4-2.2,5.4-7.4-1.6-8.2-5.4-8.2-3.8,1.2-4.8,2.9Z"/>
          <path class="st20" d="M1982.2,1419.3c-3.1-1.6-5.3-4.9-5.3-8.6,0-6.7,5.8-10.8,12.1-10.8s12.1,4,12.1,10.8-2.2,7-5.3,8.6c3.2,1.4,5.9,4.9,5.9,9.4,0,7.1-5.9,11.5-12.6,11.5s-12.6-4.3-12.6-11.5,2.8-8,5.9-9.4ZM1988.9,1434.4c3.4,0,6.1-2.8,6.1-6.2s-3.2-6.1-6.1-6.1-6.1,2.3-6.1,6.1,2.6,6.2,6.1,6.2ZM1988.9,1416.8c3.1,0,5.6-2.5,5.6-5.6s-2.5-5.5-5.6-5.5-5.6,2.4-5.6,5.5,2.4,5.6,5.6,5.6Z"/>
          <path class="st20" d="M2042.6,1409.9c-1.9-2.7-4-4.3-8.5-4.3s-6.4,1.8-6.4,5.1,2.9,5.2,8.4,6.4c7.9,1.7,12,4.7,12,11.7s-3.9,11.2-13.3,11.2-11.4-2-14.6-6.4l5.2-3.6c2.3,2.8,4.7,4.3,9.1,4.3s7.1-2.4,7.1-5.2-1.8-5-8.6-6.5c-7.5-1.6-11.8-5.2-11.8-11.9s3.9-10.8,13-10.8,10.6,2.1,13.4,6.4l-5,3.6Z"/>
          <path class="st20" d="M2051.4,1411.3h3.6v-6.2h6v6.2h6v5.2h-6v13c0,3.3.5,4.7,3.7,4.7h2.3v5.4h-2.8c-6.8,0-9.2-2.3-9.2-9v-14.1h-3.6v-5.2Z"/>
          <path class="st20" d="M2081.1,1422.9h6.1v-2.4c0-3.6-1.4-4.5-5.6-4.5s-4.6.3-6,2.6l-4.4-3.1c2-3.3,5.1-4.7,10.7-4.7s11.2,2.3,11.2,9.8v19.1h-6v-2.6c-1.4,2.2-3.1,3.1-6.6,3.1-6.2,0-10.1-3.2-10.1-8.8s4.5-8.4,10.5-8.4ZM2087.2,1427.5h-5.7c-3.6,0-5,1.2-5,3.7s1.9,3.7,4.8,3.7,5.9-1.1,5.9-6.1v-1.4Z"/>
        </g>
        <g class="st2">
          <path class="st20" d="M2115,1418.3c-.9-1.3-2.2-2.2-4.1-2.2-3.1,0-5.2,2.3-5.2,6.4v17.1h-6.1v-28.4h6v2.6c1.1-1.6,3-3.1,6.4-3.1s6.1,1.4,7.9,4.2l-4.8,3.4Z"/>
        </g>
        <g class="st2">
          <path class="st20" d="M2120.4,1411.3h3.6v-6.2h6v6.2h6v5.2h-6v13c0,3.3.5,4.7,3.7,4.7h2.3v5.4h-2.8c-6.8,0-9.2-2.3-9.2-9v-14.1h-3.6v-5.2Z"/>
          <path class="st20" d="M2164.4,1439.6h-6v-2.6c-1.3,2-3,3.1-7,3.1-5.8,0-10.4-3-10.4-11.2v-17.7h6.1v17.1c0,5,2.3,6.5,5.4,6.5s5.8-2.5,5.8-6.4v-17.1h6v28.4Z"/>
          <path class="st20" d="M2195,1427.3c0,7.4-3.6,12.8-11.2,12.8s-5.4-.8-6.9-2.3v12.6h-6.1v-39.1h6.1v2.3c1.4-1.8,3.7-2.8,6.9-2.8,6.8,0,11.1,4.6,11.1,12.7v3.9ZM2189,1427v-3.3c0-4.9-2-7.7-6-7.7s-6,2.7-6,7.4v3.6c0,4.4,1.4,7.9,6,7.9s6-3.5,6-7.9Z"/>
          <path class="st20" d="M2216,1418.7c-1.4-1.8-2.8-2.6-6.2-2.6s-4.4.9-4.4,2.9,2.1,3.1,5.4,3.5c6.3.7,10.4,3,10.4,9s-3.6,8.6-10.9,8.6-9.1-1.6-11.4-4.7l4.6-3.3c1.3,1.8,3,2.7,6.7,2.7s4.9-1.1,4.9-3.1-1.5-3-5.9-3.6c-5.4-.7-9.9-2.9-9.9-8.9s3.7-8.5,10.6-8.5,8.3,1.2,10.5,4.7l-4.5,3.2Z"/>
        </g>
      </g>
    </g>
    <g id="Group_2960-4">
      <g class="st16">
        <g id="Group_2955-7">
          <path id="Path_15032-7" class="st20" d="M1943.7,1323.2h29.8v5.9h-7.4c.8,1.1,1.5,2.4,2,3.7.3.7.4,1.5.7,2.2h4.7v5.9h-4.7c-.2.4-.3.8-.4,1.2-1.5,4.9-5.4,8.7-10.4,10.1-1.9.4-3.8.6-5.8.5l13,13.1-4.1,4.2h-.2l-17.2-17.3v-5.9h10.9c3.6-.2,6.7-2.5,7.9-5.8h-18.8v-5.9h18.8c-1.2-3.3-4.2-5.6-7.7-5.8h-11.1v-5.9h0Z"/>
        </g>
      </g>
    </g>
    <g id="FY-3" class="st2">
      <g class="st2">
        <g class="st2">
          <path class="st20" d="M2393.2,1263.8v-64.6h40.2v11.1h-27.1v16h24.3v11h-24.3v26.4h-13.1Z"/>
          <path class="st20" d="M2455.8,1237.4l-20.1-38.2h15.2l11.5,24,11.6-24h15.1l-20.1,38.2v26.4h-13.1v-26.4Z"/>
          <path class="st20" d="M2535.4,1252.8h22.3v11h-39.9v-8.4l21.6-25.5c4-4.6,6-8.8,6-12.8s-.8-4.4-2.3-5.8c-1.5-1.4-3.4-2.1-5.8-2.1s-4.1.7-5.6,2.1c-1.5,1.4-2.3,3.3-2.5,5.8h-11.6c0-5.6,2-10,5.9-13.5,4-3.5,8.8-5.2,14.4-5.2s10.7,1.8,14.5,5.4c3.9,3.6,5.9,8,5.9,13.3s-.6,5.4-1.8,8c-1.3,2.9-2.5,5-3.5,6.4-1.1,1.4-2.6,3.3-4.5,5.6l-13.3,15.6Z"/>
          <path class="st20" d="M2580.9,1210.4v10h-11.1v-21.1h39.5v9.2l-18.6,55.4h-13.6l18.7-53.4h-14.9Z"/>
          <path class="st20" d="M2629,1199.3h8.9l-.5,9.5,8-5.2,4.4,7.7-8.2,4.3,8.3,4.4-4.5,7.6-8-5.1.5,9.5h-8.9l.4-9.4-7.8,5.1-4.5-7.7,8.4-4.3-8.3-4.4,4.3-7.7,7.9,5.1-.4-9.4Z"/>
        </g>
      </g>
    </g>
    <g id="_125M" class="st2">
      <g class="st2">
        <g class="st2">
          <path class="st20" d="M2460,1365.9h-6.6v-32l-5.6,3.9v-6.6l6-4.3h6.2v39.1Z"/>
          <path class="st20" d="M2496.5,1365.9h-23.7v-4.7l13.4-15.8c2.6-2.9,4-5.5,4-8.2s-2.7-5.4-5.6-5.4-5.4,1.9-5.6,5.4h-6c0-6.6,5.3-11,11.8-11s11.9,4.5,11.9,11.1-3.4,8.8-5.9,11.8l-9.2,11.1h14.9v5.7Z"/>
          <path class="st20" d="M2509.9,1348h-6v-21.2h21.2v6.2h-14.8v8.3c1.2-1.2,3-2.3,6-2.3,6.5,0,10.3,5,10.3,14.1s-4.1,13.3-11.9,13.3-11.3-4-11.9-10.2h6.5c.7,2.8,2.5,4.5,5.3,4.5s5.4-2.2,5.4-7.4-1.6-8.2-5.4-8.2-3.8,1.2-4.8,2.9Z"/>
          <path class="st20" d="M2551.3,1349.4l11.3-22.7h6.3v39.1h-6.4v-26.2l-9,18.7h-4.7l-8.8-18.5v26h-6.4v-39.1h6.2l11.3,22.7Z"/>
        </g>
      </g>
    </g>
    <g id="_70_Startups" class="st2">
      <g class="st2">
        <g class="st2">
          <path class="st20" d="M2390.3,1412.6v-12.1h23v5l-11.7,34.1h-6.9l11.8-33.4h-10.5v6.4h-5.7Z"/>
          <path class="st20" d="M2431.2,1440.1c-6.5,0-12.3-3.9-12.3-12v-16.2c0-8.3,5.8-12,12.3-12s12.3,3.7,12.3,12v16.2c0,8.1-5.8,12-12.3,12ZM2431.2,1405.7c-3.6,0-5.8,2.4-5.8,6.6v15.4c0,4.2,2.2,6.6,5.8,6.6s5.7-2.4,5.7-6.6v-15.4c0-4.2-2.2-6.6-5.7-6.6Z"/>
          <path class="st20" d="M2484.9,1409.9c-1.9-2.7-4-4.3-8.5-4.3s-6.4,1.8-6.4,5.1,2.9,5.2,8.4,6.4c7.9,1.7,12,4.7,12,11.7s-3.9,11.2-13.3,11.2-11.4-2-14.6-6.4l5.2-3.6c2.3,2.8,4.7,4.3,9.1,4.3s7.1-2.4,7.1-5.2-1.8-5-8.6-6.5c-7.5-1.6-11.8-5.2-11.8-11.9s3.9-10.8,13-10.8,10.6,2.1,13.4,6.4l-5,3.6Z"/>
          <path class="st20" d="M2493.7,1411.3h3.6v-6.2h6v6.2h6v5.2h-6v13c0,3.3.5,4.7,3.7,4.7h2.3v5.4h-2.8c-6.8,0-9.2-2.3-9.2-9v-14.1h-3.6v-5.2Z"/>
          <path class="st20" d="M2523.4,1422.9h6.1v-2.4c0-3.6-1.4-4.5-5.6-4.5s-4.6.3-6,2.6l-4.4-3.1c2-3.3,5.1-4.7,10.7-4.7s11.2,2.3,11.2,9.8v19.1h-6v-2.6c-1.4,2.2-3.1,3.1-6.6,3.1-6.2,0-10.1-3.2-10.1-8.8s4.5-8.4,10.5-8.4ZM2529.6,1427.5h-5.7c-3.6,0-5,1.2-5,3.7s1.9,3.7,4.8,3.7,5.9-1.1,5.9-6.1v-1.4Z"/>
        </g>
        <g class="st2">
          <path class="st20" d="M2557.3,1418.3c-.9-1.3-2.2-2.2-4.1-2.2-3.1,0-5.2,2.3-5.2,6.4v17.1h-6.1v-28.4h6v2.6c1.1-1.6,3-3.1,6.4-3.1s6.1,1.4,7.9,4.2l-4.8,3.4Z"/>
        </g>
        <g class="st2">
          <path class="st20" d="M2562.7,1411.3h3.6v-6.2h6v6.2h6v5.2h-6v13c0,3.3.5,4.7,3.7,4.7h2.3v5.4h-2.8c-6.8,0-9.2-2.3-9.2-9v-14.1h-3.6v-5.2Z"/>
          <path class="st20" d="M2606.7,1439.6h-6v-2.6c-1.3,2-3,3.1-7,3.1-5.8,0-10.4-3-10.4-11.2v-17.7h6.1v17.1c0,5,2.3,6.5,5.4,6.5s5.8-2.5,5.8-6.4v-17.1h6v28.4Z"/>
          <path class="st20" d="M2637.3,1427.3c0,7.4-3.6,12.8-11.2,12.8s-5.4-.8-6.9-2.3v12.6h-6.1v-39.1h6.1v2.3c1.4-1.8,3.7-2.8,6.9-2.8,6.8,0,11.1,4.6,11.1,12.7v3.9ZM2631.3,1427v-3.3c0-4.9-2-7.7-6-7.7s-6,2.7-6,7.4v3.6c0,4.4,1.4,7.9,6,7.9s6-3.5,6-7.9Z"/>
          <path class="st20" d="M2658.3,1418.7c-1.4-1.8-2.8-2.6-6.2-2.6s-4.4.9-4.4,2.9,2.1,3.1,5.4,3.5c6.3.7,10.4,3,10.4,9s-3.6,8.6-10.9,8.6-9.1-1.6-11.4-4.7l4.6-3.3c1.3,1.8,3,2.7,6.7,2.7s4.9-1.1,4.9-3.1-1.5-3-5.9-3.6c-5.4-.7-9.9-2.9-9.9-8.9s3.7-8.5,10.6-8.5,8.3,1.2,10.5,4.7l-4.5,3.2Z"/>
        </g>
      </g>
    </g>
    <g id="Group_2960-5">
      <g class="st15">
        <g id="Group_2955-8">
          <path id="Path_15032-8" class="st20" d="M2388.2,1323.2h29.8v5.9h-7.4c.9,1.1,1.5,2.4,2,3.7.3.7.4,1.5.7,2.2h4.7v5.9h-4.7c-.2.4-.3.8-.4,1.2-1.5,4.9-5.4,8.7-10.4,10.1-1.9.4-3.9.6-5.8.5l13,13.1-4.1,4.2h-.2l-17.2-17.3v-5.9h10.9c3.6-.2,6.6-2.5,7.9-5.8h-18.8v-5.9h18.8c-1.2-3.3-4.2-5.6-7.7-5.8h-11.1v-5.9h0Z"/>
        </g>
      </g>
    </g>
    <rect id="Rectangle_3087" class="st22" x="64.7" y="798.8" width="85.1" height="354.4"/>
    <rect id="Rectangle_3088" class="st21" x="64.7" y="742.1" width="85.1" height="56.7"/>
    <g id="_25.4M" class="st2">
      <g class="st2">
        <g class="st2">
          <path class="st21" d="M760,719.4h-23.7v-4.7l13.4-15.8c2.6-2.9,4-5.5,4-8.2s-2.7-5.4-5.6-5.4-5.4,1.9-5.6,5.4h-6c0-6.6,5.3-11,11.8-11s11.9,4.5,11.9,11.1-3.4,8.8-5.9,11.8l-9.2,11.1h14.9v5.7Z"/>
          <path class="st21" d="M773.5,701.5h-6v-21.2h21.2v6.2h-14.8v8.3c1.2-1.2,3-2.3,6-2.3,6.5,0,10.3,5,10.3,14.1s-4.1,13.3-11.9,13.3-11.3-4-11.9-10.2h6.5c.7,2.8,2.5,4.5,5.3,4.5s5.4-2.2,5.4-7.4-1.6-8.2-5.4-8.2-3.8,1.2-4.8,2.9Z"/>
          <path class="st21" d="M804.3,719.4h-7.8v-7.8h7.8v7.8Z"/>
          <path class="st21" d="M829,680.3l-12.5,27.5h9.2v-10.7h6.6v10.7h3.6v5.7h-3.6v5.9h-6.6v-5.9h-17.2v-4.7l13.6-28.6h7Z"/>
          <path class="st21" d="M859.1,703l11.3-22.7h6.3v39.1h-6.4v-26.2l-9,18.7h-4.7l-8.8-18.5v26h-6.4v-39.1h6.2l11.3,22.7Z"/>
        </g>
      </g>
    </g>
    <g id="_30.01M" class="st2">
      <g class="st2">
        <g class="st2">
          <path class="st1" d="M741.8,960.1h2.7c4.1,0,6.3-2.2,6.3-5.8s-2.2-5.2-5.6-5.2-5.3,2.1-5.6,4.8h-6c.2-6.3,5.5-10.4,11.8-10.4s11.9,4.7,11.9,10.6-2.5,7.2-5.6,8.7c3.6,1.6,6.1,4.7,6.1,9.5s-4.4,11.3-12,11.3-12.4-4.5-12.8-10.7h6c.5,2.8,2.4,5,6.5,5s5.7-2.5,5.7-5.8-2.3-6.4-6.9-6.4h-2.7v-5.7Z"/>
          <path class="st1" d="M775.4,983.6c-6.5,0-12.3-3.9-12.3-12v-16.2c0-8.3,5.8-12,12.3-12s12.3,3.7,12.3,12v16.2c0,8.1-5.8,12-12.3,12ZM775.4,949.2c-3.6,0-5.8,2.4-5.8,6.6v15.4c0,4.2,2.2,6.6,5.8,6.6s5.7-2.4,5.7-6.6v-15.4c0-4.2-2.2-6.6-5.7-6.6Z"/>
          <path class="st1" d="M801.4,983.1h-7.8v-7.8h7.8v7.8Z"/>
          <path class="st1" d="M819.6,983.6c-6.5,0-12.3-3.9-12.3-12v-16.2c0-8.3,5.8-12,12.3-12s12.3,3.7,12.3,12v16.2c0,8.1-5.8,12-12.3,12ZM819.6,949.2c-3.6,0-5.8,2.4-5.8,6.6v15.4c0,4.2,2.2,6.6,5.8,6.6s5.7-2.4,5.7-6.6v-15.4c0-4.2-2.2-6.6-5.7-6.6Z"/>
          <path class="st1" d="M853.7,983.1h-6.6v-32l-5.6,3.9v-6.6l6-4.3h6.2v39.1Z"/>
          <path class="st1" d="M885.9,966.7l11.3-22.7h6.3v39.1h-6.4v-26.2l-9,18.7h-4.7l-8.8-18.5v26h-6.4v-39.1h6.2l11.3,22.7Z"/>
        </g>
      </g>
    </g>
    <g id="Group_2969">
      <g class="st18">
        <g id="Group_2955-9">
          <path id="Path_15032-9" class="st21" d="M682.8,677.5h29.8v5.9h-7.4c.8,1.1,1.5,2.4,2,3.7.3.7.4,1.5.7,2.2h4.7v6h-4.7c-.2.4-.3.8-.4,1.2-1.5,4.9-5.4,8.7-10.4,10.1-1.9.4-3.8.6-5.8.5l13,13.1-4.1,4.2h-.2l-17.2-17.3v-5.9h10.9c3.5-.2,6.7-2.5,7.9-5.8h-18.8v-6h18.8c-1.2-3.3-4.2-5.6-7.7-5.8h-11.1v-5.9h0Z"/>
        </g>
      </g>
    </g>
    <g id="Group_2968">
      <g class="st17">
        <g id="Group_2955-10">
          <path id="Path_15032-10" class="st1" d="M680,940.4h29.8v5.9h-7.4c.8,1.1,1.5,2.4,2,3.7.3.7.4,1.5.7,2.2h4.7v6h-4.7c-.2.4-.3.8-.4,1.2-1.5,4.9-5.4,8.7-10.4,10.1-1.9.4-3.8.6-5.8.5l13,13.1-4.1,4.2h-.2l-17.2-17.3v-5.9h10.9c3.5-.2,6.7-2.5,7.9-5.8h-18.8v-6h18.8c-1.2-3.3-4.2-5.6-7.7-5.8h-11.1v-5.9h0Z"/>
        </g>
      </g>
    </g>
    <rect id="Rectangle_3090" class="st22" x="555.2" y="917.9" width="85.1" height="235.3"/>
    <rect id="Rectangle_3089" class="st21" x="555.2" y="651.4" width="85.1" height="266.5"/>
    <g id="_35.55M" class="st2">
      <g class="st2">
        <g class="st2">
          <path class="st21" d="M1240.8,682.2h2.7c4.1,0,6.3-2.2,6.3-5.8s-2.2-5.2-5.6-5.2-5.3,2.1-5.6,4.8h-6c.2-6.3,5.5-10.4,11.8-10.4s11.9,4.7,11.9,10.6-2.5,7.2-5.6,8.7c3.6,1.6,6.1,4.7,6.1,9.5s-4.4,11.3-12,11.3-12.4-4.5-12.8-10.7h6c.5,2.8,2.4,5,6.5,5s5.7-2.5,5.7-5.8-2.3-6.4-6.9-6.4h-2.7v-5.7Z"/>
          <path class="st21" d="M1269.7,687.3h-6v-21.2h21.2v6.2h-14.8v8.3c1.2-1.2,3-2.3,6-2.3,6.5,0,10.3,5,10.3,14.1s-4.1,13.3-11.9,13.3-11.3-4-11.9-10.2h6.5c.7,2.8,2.5,4.5,5.3,4.5s5.4-2.2,5.4-7.4-1.6-8.2-5.4-8.2-3.8,1.2-4.8,2.9Z"/>
          <path class="st21" d="M1300.5,705.3h-7.8v-7.8h7.8v7.8Z"/>
          <path class="st21" d="M1313.9,687.3h-6v-21.2h21.2v6.2h-14.8v8.3c1.2-1.2,3-2.3,6-2.3,6.5,0,10.3,5,10.3,14.1s-4.1,13.3-11.9,13.3-11.3-4-11.9-10.2h6.5c.7,2.8,2.5,4.5,5.3,4.5s5.4-2.2,5.4-7.4-1.6-8.2-5.4-8.2-3.8,1.2-4.8,2.9Z"/>
          <path class="st21" d="M1343.5,687.3h-6v-21.2h21.2v6.2h-14.8v8.3c1.2-1.2,3-2.3,6-2.3,6.5,0,10.3,5,10.3,14.1s-4.1,13.3-11.9,13.3-11.3-4-11.9-10.2h6.5c.7,2.8,2.5,4.5,5.3,4.5s5.4-2.2,5.4-7.4-1.6-8.2-5.4-8.2-3.8,1.2-4.8,2.9Z"/>
          <path class="st21" d="M1384.9,688.8l11.3-22.7h6.3v39.1h-6.4v-26.2l-9,18.7h-4.7l-8.8-18.5v26h-6.4v-39.1h6.2l11.3,22.7Z"/>
        </g>
      </g>
    </g>
    <g id="_21.97M" class="st2">
      <g class="st2">
        <g class="st2">
          <path class="st1" d="M1256.2,875.4h-23.7v-4.7l13.4-15.8c2.6-2.9,4-5.5,4-8.2s-2.7-5.4-5.6-5.4-5.4,1.9-5.6,5.4h-6c0-6.6,5.3-11,11.8-11s11.9,4.5,11.9,11.1-3.4,8.8-5.9,11.8l-9.2,11.1h14.9v5.7Z"/>
          <path class="st1" d="M1278.9,875.4h-6.6v-32l-5.6,3.9v-6.6l6-4.3h6.2v39.1Z"/>
          <path class="st1" d="M1300.5,875.4h-7.8v-7.8h7.8v7.8Z"/>
          <path class="st1" d="M1320.6,858.8c-1.1.6-2.5.8-3.7.8-6.1,0-10.5-4.9-10.5-11.6s5.3-12.2,12.3-12.2,12.4,4.3,12.4,12.1-1.4,6.4-3.2,10.3l-7.9,17.3h-7.1l7.9-16.6ZM1318.7,841.5c-3.6,0-5.7,2.5-5.7,6.3s2.2,6.3,5.7,6.3,5.8-2.6,5.8-6.3-2.1-6.3-5.8-6.3Z"/>
          <path class="st1" d="M1337,848.4v-12.1h23v5l-11.7,34.1h-6.9l11.8-33.4h-10.5v6.4h-5.7Z"/>
          <path class="st1" d="M1384.9,858.9l11.3-22.7h6.3v39.1h-6.4v-26.2l-9,18.7h-4.7l-8.8-18.5v26h-6.4v-39.1h6.2l11.3,22.7Z"/>
        </g>
      </g>
    </g>
    <g id="Group_2970">
      <g class="st6">
        <g id="Group_2955-11">
          <path id="Path_15032-11" class="st21" d="M1180.4,660.7h29.8v5.9h-7.4c.8,1.1,1.5,2.4,2,3.7.3.7.4,1.5.7,2.2h4.7v6h-4.7c-.2.4-.3.8-.4,1.2-1.5,4.9-5.4,8.7-10.4,10.1-1.9.4-3.8.6-5.8.5l13,13.1-4.1,4.2h-.2l-17.2-17.3v-5.9h10.9c3.6-.2,6.7-2.5,7.9-5.8h-18.8v-6h18.8c-1.2-3.3-4.2-5.6-7.7-5.8h-11.1v-5.9h0Z"/>
        </g>
      </g>
    </g>
    <g id="Group_2971">
      <g class="st4">
        <g id="Group_2955-12">
          <path id="Path_15032-12" class="st1" d="M1180.4,832.9h29.8v5.9h-7.4c.8,1.1,1.5,2.4,2,3.7.3.7.4,1.5.7,2.2h4.7v6h-4.7c-.2.4-.3.8-.4,1.2-1.5,4.9-5.4,8.7-10.4,10.1-1.9.4-3.8.6-5.8.5l13,13.1-4.1,4.2h-.2l-17.2-17.3v-5.9h10.9c3.6-.2,6.7-2.5,7.9-5.8h-18.8v-6h18.8c-1.2-3.3-4.2-5.6-7.7-5.8h-11.1v-5.9h0Z"/>
        </g>
      </g>
    </g>
    <rect id="Rectangle_3092" class="st22" x="1031.5" y="821.5" width="85.1" height="331.7"/>
    <rect id="Rectangle_3091" class="st21" x="1031.5" y="651.4" width="85.1" height="170.1"/>
    <g id="_44.8M" class="st2">
      <g class="st2">
        <g class="st2">
          <path class="st21" d="M1707.8,484.7l-12.5,27.5h9.2v-10.7h6.6v10.7h3.6v5.7h-3.6v5.9h-6.6v-5.9h-17.2v-4.7l13.6-28.6h7Z"/>
          <path class="st21" d="M1737.4,484.7l-12.5,27.5h9.2v-10.7h6.6v10.7h3.6v5.7h-3.6v5.9h-6.6v-5.9h-17.2v-4.7l13.6-28.6h7Z"/>
          <path class="st21" d="M1756.9,523.8h-7.8v-7.8h7.8v7.8Z"/>
          <path class="st21" d="M1768.4,503.5c-3.1-1.6-5.3-4.9-5.3-8.6,0-6.7,5.8-10.8,12.1-10.8s12.1,4,12.1,10.8-2.2,7-5.3,8.6c3.2,1.4,5.9,4.9,5.9,9.4,0,7.1-5.9,11.5-12.6,11.5s-12.6-4.3-12.6-11.5,2.8-8,5.9-9.4ZM1775.1,518.6c3.4,0,6.1-2.8,6.1-6.2s-3.2-6.1-6.1-6.1-6.1,2.3-6.1,6.1,2.6,6.2,6.1,6.2ZM1775.1,501c3.1,0,5.6-2.5,5.6-5.6s-2.5-5.5-5.6-5.5-5.6,2.4-5.6,5.5,2.4,5.6,5.6,5.6Z"/>
          <path class="st21" d="M1811.8,507.4l11.3-22.7h6.3v39.1h-6.4v-26.2l-9,18.7h-4.7l-8.8-18.5v26h-6.4v-39.1h6.2l11.3,22.7Z"/>
        </g>
      </g>
    </g>
    <g id="_40M" class="st2">
      <g class="st2">
        <g class="st2">
          <path class="st1" d="M1707.8,793.7l-12.5,27.5h9.2v-10.7h6.6v10.7h3.6v5.7h-3.6v5.9h-6.6v-5.9h-17.2v-4.7l13.6-28.6h7Z"/>
          <path class="st1" d="M1730.9,833.4c-6.5,0-12.3-3.9-12.3-12v-16.2c0-8.3,5.8-12,12.3-12s12.3,3.7,12.3,12v16.2c0,8.1-5.8,12-12.3,12ZM1730.9,798.9c-3.6,0-5.8,2.4-5.8,6.6v15.4c0,4.2,2.2,6.6,5.8,6.6s5.7-2.4,5.7-6.6v-15.4c0-4.2-2.2-6.6-5.7-6.6Z"/>
          <path class="st1" d="M1767.5,816.4l11.3-22.7h6.3v39.1h-6.4v-26.2l-9,18.7h-4.7l-8.8-18.5v26h-6.4v-39.1h6.2l11.3,22.7Z"/>
        </g>
      </g>
    </g>
    <g id="Group_2973">
      <g class="st10">
        <g id="Group_2955-13">
          <path id="Path_15032-13" class="st21" d="M1636.3,481.5h29.8v5.9h-7.4c.8,1.1,1.5,2.4,2,3.7.3.7.4,1.5.7,2.1h4.7v6h-4.7c-.2.4-.3.8-.4,1.2-1.5,4.9-5.4,8.7-10.4,10.1-1.9.4-3.8.6-5.8.5l13,13.1-4.1,4.2h-.2l-17.2-17.3v-5.9h10.9c3.6-.2,6.7-2.5,7.9-5.9h-18.8v-6h18.8c-1.2-3.3-4.2-5.6-7.7-5.8h-11.1v-5.9h0Z"/>
        </g>
      </g>
    </g>
    <g id="Group_2972">
      <g class="st8">
        <g id="Group_2955-14">
          <path id="Path_15032-14" class="st1" d="M1636.3,789.8h29.8v5.9h-7.4c.8,1.1,1.5,2.4,2,3.7.3.7.4,1.5.7,2.2h4.7v6h-4.7c-.2.4-.3.8-.4,1.2-1.5,4.9-5.4,8.7-10.4,10.1-1.9.4-3.8.6-5.8.5l13,13.1-4.1,4.2h-.2l-17.2-17.3v-5.9h10.9c3.6-.2,6.7-2.5,7.9-5.8h-18.8v-6h18.8c-1.2-3.3-4.2-5.6-7.7-5.8h-11.1v-5.9h0Z"/>
        </g>
      </g>
    </g>
    <rect id="Rectangle_3093" class="st22" x="1502.2" y="770.5" width="85.1" height="382.8"/>
    <rect id="Rectangle_3094" class="st21" x="1502.2" y="464.3" width="85.1" height="309"/>
    <g id="_52M" class="st2">
      <g class="st2">
        <g class="st2">
          <path class="st21" d="M2144.5,332.9h-6v-21.2h21.2v6.2h-14.8v8.3c1.2-1.2,3-2.3,6-2.3,6.5,0,10.3,5,10.3,14.1s-4.1,13.3-11.9,13.3-11.3-4-11.9-10.2h6.5c.7,2.8,2.5,4.5,5.3,4.5s5.4-2.2,5.4-7.4-1.6-8.2-5.4-8.2-3.8,1.2-4.8,2.9Z"/>
          <path class="st21" d="M2190.3,350.9h-23.7v-4.7l13.4-15.8c2.6-2.9,4-5.5,4-8.2s-2.7-5.4-5.6-5.4-5.4,1.9-5.6,5.4h-6c0-6.6,5.3-11,11.8-11s11.9,4.5,11.9,11.1-3.4,8.8-5.9,11.8l-9.2,11.1h14.9v5.7Z"/>
          <path class="st21" d="M2215.5,334.4l11.3-22.7h6.3v39.1h-6.4v-26.2l-9,18.7h-4.7l-8.8-18.5v26h-6.4v-39.1h6.2l11.3,22.7Z"/>
        </g>
      </g>
    </g>
    <g id="_50M" class="st2">
      <g class="st2">
        <g class="st2">
          <path class="st1" d="M2144.5,729.9h-6v-21.2h21.2v6.2h-14.8v8.3c1.2-1.2,3-2.3,6-2.3,6.5,0,10.3,5,10.3,14.1s-4.1,13.3-11.9,13.3-11.3-4-11.9-10.2h6.5c.7,2.8,2.5,4.5,5.3,4.5s5.4-2.2,5.4-7.4-1.6-8.2-5.4-8.2-3.8,1.2-4.8,2.9Z"/>
          <path class="st1" d="M2178.9,748.3c-6.5,0-12.3-3.9-12.3-12v-16.2c0-8.3,5.8-12,12.3-12s12.3,3.7,12.3,12v16.2c0,8.1-5.8,12-12.3,12ZM2178.9,713.9c-3.6,0-5.8,2.4-5.8,6.6v15.4c0,4.2,2.2,6.6,5.8,6.6s5.7-2.4,5.7-6.6v-15.4c0-4.2-2.2-6.6-5.7-6.6Z"/>
          <path class="st1" d="M2215.5,731.4l11.3-22.7h6.3v39.1h-6.4v-26.2l-9,18.7h-4.7l-8.8-18.5v26h-6.4v-39.1h6.2l11.3,22.7Z"/>
        </g>
      </g>
    </g>
    <g id="Group_2975">
      <g class="st9">
        <g id="Group_2955-15">
          <path id="Path_15032-15" class="st21" d="M2083.9,309.4h29.8v5.9h-7.4c.9,1.1,1.5,2.4,2,3.7.3.7.4,1.5.7,2.1h4.7v6h-4.7c-.2.4-.3.8-.4,1.2-1.5,4.9-5.4,8.7-10.4,10.1-1.9.4-3.9.6-5.8.5l13,13.1-4.1,4.1h-.2l-17.2-17.3v-5.9h10.9c3.6-.2,6.6-2.5,7.9-5.9h-18.8v-6h18.8c-1.2-3.3-4.2-5.6-7.7-5.8h-11.1v-5.9h0Z"/>
        </g>
      </g>
    </g>
    <g id="Group_2974">
      <g class="st7">
        <g id="Group_2955-16">
          <path id="Path_15032-16" class="st1" d="M2083.9,703.8h29.8v5.9h-7.4c.9,1.1,1.5,2.4,2,3.7.3.7.4,1.5.7,2.2h4.7v6h-4.7c-.2.4-.3.8-.4,1.2-1.5,4.9-5.4,8.7-10.4,10.1-1.9.4-3.9.6-5.8.5l13,13.1-4.1,4.2h-.2l-17.2-17.3v-5.9h10.9c3.6-.2,6.6-2.5,7.9-5.8h-18.8v-6h18.8c-1.2-3.3-4.2-5.6-7.7-5.8h-11.1v-5.9h0Z"/>
        </g>
      </g>
    </g>
    <rect id="Rectangle_3095" class="st22" x="1950.2" y="693.9" width="85.1" height="459.3"/>
    <rect id="Rectangle_3096" class="st21" x="1950.2" y="291.3" width="85.1" height="402.6"/>
    <g id="_60M" class="st2">
      <g class="st2">
        <g class="st2">
          <path class="st21" d="M2595.3,138.4c1.1-.6,2.5-.7,3.7-.7,6.1,0,10.5,4.9,10.5,11.6s-5.3,12.2-12.3,12.2-12.4-4.3-12.4-12.1,1.4-6.4,3.2-10.3l8-17.3h7.1l-7.9,16.6ZM2597.3,155.7c3.6,0,5.7-2.5,5.7-6.3s-2.2-6.3-5.7-6.3-5.8,2.6-5.8,6.3,2.2,6.3,5.8,6.3Z"/>
          <path class="st21" d="M2626.9,161.4c-6.5,0-12.3-3.9-12.3-12v-16.2c0-8.3,5.8-12,12.3-12s12.3,3.7,12.3,12v16.2c0,8.1-5.8,12-12.3,12ZM2626.9,127c-3.6,0-5.8,2.4-5.8,6.6v15.4c0,4.2,2.2,6.6,5.8,6.6s5.7-2.4,5.7-6.6v-15.4c0-4.2-2.2-6.6-5.7-6.6Z"/>
          <path class="st21" d="M2663.5,144.4l11.3-22.7h6.3v39.1h-6.4v-26.2l-9,18.7h-4.7l-8.8-18.5v26h-6.4v-39.1h6.2l11.3,22.7Z"/>
        </g>
      </g>
    </g>
    <g id="_65M" class="st2">
      <g class="st2">
        <g class="st2">
          <path class="st1" d="M2595.3,640.2c1.1-.6,2.5-.7,3.7-.7,6.1,0,10.5,4.9,10.5,11.6s-5.3,12.2-12.3,12.2-12.4-4.3-12.4-12.1,1.4-6.4,3.2-10.3l8-17.3h7.1l-7.9,16.6ZM2597.3,657.5c3.6,0,5.7-2.5,5.7-6.3s-2.2-6.3-5.7-6.3-5.8,2.6-5.8,6.3,2.2,6.3,5.8,6.3Z"/>
          <path class="st1" d="M2622.1,644.8h-6v-21.2h21.2v6.2h-14.8v8.3c1.2-1.2,3-2.3,6-2.3,6.5,0,10.3,5,10.3,14.1s-4.1,13.3-11.9,13.3-11.3-4-11.9-10.2h6.5c.7,2.8,2.5,4.5,5.3,4.5s5.4-2.2,5.4-7.4-1.6-8.2-5.4-8.2-3.8,1.2-4.8,2.9Z"/>
          <path class="st1" d="M2663.5,646.3l11.3-22.7h6.3v39.1h-6.4v-26.2l-9,18.7h-4.7l-8.8-18.5v26h-6.4v-39.1h6.2l11.3,22.7Z"/>
        </g>
      </g>
    </g>
    <g id="Group_2977">
      <g class="st5">
        <g id="Group_2955-17">
          <path id="Path_15032-17" class="st21" d="M2534.5,118.1h29.8v5.9h-7.4c.9,1.1,1.5,2.4,2,3.7.3.7.4,1.5.7,2.1h4.7v5.9h-4.7c-.2.4-.3.8-.4,1.2-1.5,4.9-5.4,8.7-10.4,10.1-1.9.4-3.9.6-5.8.5l13,13.1-4.1,4.1h-.2l-17.2-17.3v-5.9h10.9c3.6-.2,6.6-2.5,7.9-5.9h-18.8v-5.9h18.8c-1.2-3.3-4.2-5.6-7.7-5.8h-11.1v-5.9h0Z"/>
        </g>
      </g>
    </g>
    <g id="Group_2976">
      <g class="st3">
        <g id="Group_2955-18">
          <path id="Path_15032-18" class="st1" d="M2534.5,617.7h29.8v5.9h-7.4c.9,1.1,1.5,2.4,2,3.7.3.7.4,1.5.7,2.2h4.7v6h-4.7c-.2.4-.3.8-.4,1.2-1.5,4.9-5.4,8.7-10.4,10.1-1.9.4-3.9.6-5.8.5l13,13.1-4.1,4.2h-.2l-17.2-17.3v-5.9h10.9c3.6-.2,6.6-2.5,7.9-5.8h-18.8v-6h18.8c-1.2-3.3-4.2-5.6-7.7-5.8h-11.1v-5.9h0Z"/>
        </g>
      </g>
    </g>
    <rect id="Rectangle_3097" class="st22" x="2401" y="606" width="85.1" height="547.2"/>
    <rect id="Rectangle_3098" class="st21" x="2401" y="92.8" width="85.1" height="513.2"/>
    <g id="Forge.fund_corpus" class="st2">
      <g class="st2">
        <g class="st2">
          <path class="st20" d="M883.4,1632.4v-78.3h48.8v13.5h-32.9v19.4h29.5v13.4h-29.5v32h-15.9Z"/>
          <path class="st20" d="M1000.1,1587.7v11.1c0,11.3-2.6,19.9-7.9,25.8-5.3,5.9-12.7,8.8-22.1,8.8s-16.8-2.9-22.1-8.8c-5.3-5.9-7.9-14.5-7.9-25.8v-11.1c0-11.4,2.6-20,7.9-25.9,5.3-5.8,12.6-8.7,22.1-8.7s16.9,2.9,22.2,8.7c5.3,5.8,7.9,14.4,7.9,25.9ZM956,1587.7v11.1c0,14.1,4.7,21.2,14.1,21.2s14.2-7.1,14.2-21.2v-11.1c0-14.1-4.7-21.2-14.2-21.2s-14.1,7.1-14.1,21.2Z"/>
        </g>
        <g class="st2">
          <path class="st20" d="M1057,1599.1l16.2,33.3h-17.5l-14.1-30.7h-12.7v30.7h-15.9v-78.3h28c9.3,0,16.5,2.1,21.6,6.2,5.1,4.1,7.7,10,7.7,17.7s-4.5,17.3-13.4,21ZM1029,1567.7v20.6h10.7c5.2,0,9-.8,11.3-2.3,2.3-1.5,3.5-4.2,3.5-7.9s-1.2-6.5-3.6-8.1c-2.4-1.6-6.1-2.4-11.3-2.4h-10.7Z"/>
        </g>
        <g class="st2">
          <path class="st20" d="M1110.7,1605.1v-13.4h28.5v7.1c0,11.5-2.5,20.1-7.4,25.9-5,5.8-12.1,8.7-21.4,8.7s-16.8-2.9-22.1-8.8c-5.3-5.9-7.9-14.5-7.9-25.8v-10c0-11.9,2.6-20.9,7.8-26.8,5.2-5.9,12.6-8.9,22.1-8.9s14.6,2.2,19.5,6.5c4.9,4.3,8,10.6,9.2,18.8h-15.2c-1.5-7.9-6-11.9-13.5-11.9s-14.1,7.1-14.1,21.2v11.1c0,14.1,4.7,21.2,14.1,21.2s7.4-1.2,9.6-3.7c2.2-2.5,3.5-6.2,3.9-11.3h-13.2Z"/>
          <path class="st20" d="M1152.2,1632.4v-78.3h48.8v13.5h-32.9v17.6h29.5v13.4h-29.5v20.4h32.9v13.4h-48.8Z"/>
          <path class="st20" d="M1211,1614.7h17.7v17.7h-17.7v-17.7Z"/>
          <path class="st20" d="M1243.2,1632.4v-78.3h48.8v13.5h-32.9v19.4h29.5v13.4h-29.5v32h-15.9Z"/>
          <path class="st20" d="M1346.5,1600.8v-46.6h15.9v46.5c0,10.8-2.7,19-8,24.5-5.3,5.5-12.7,8.3-22.1,8.3s-16.7-2.7-22.1-8.2c-5.3-5.5-8-13.6-8-24.4v-46.6h15.9v46.6c0,6.7,1.1,11.5,3.4,14.6,2.3,3.1,5.9,4.7,10.8,4.7s8.5-1.5,10.8-4.7c2.3-3.1,3.4-8,3.4-14.6Z"/>
          <path class="st20" d="M1421.6,1603.3v-49.1h15.1v78.3h-13.3l-30.5-48.4v48.4h-15.1v-78.3h13.2l30.6,49.1Z"/>
          <path class="st20" d="M1480,1632.4h-27.8v-78.3h27.8c20,0,30.1,11.3,30.1,34v10.2c0,22.7-10,34-30.1,34ZM1468.1,1619h11.9c5.1,0,8.7-1.6,10.9-4.9,2.2-3.3,3.3-8.5,3.3-15.7v-10.2c0-7.1-1.1-12.3-3.3-15.6-2.2-3.3-5.8-4.9-10.9-4.9h-11.9v51.4Z"/>
        </g>
        <g class="st2">
          <path class="st20" d="M1607.7,1578.4h-15.2c-1.6-7.9-6.1-11.9-13.5-11.9s-14.1,7.1-14.1,21.2v11.1c0,14.1,4.7,21.2,14.1,21.2s6.8-.9,9-2.8c2.1-1.9,3.6-4.9,4.5-9.1h15.1c-2.5,16.9-12,25.3-28.6,25.3s-16.8-2.9-22.1-8.8c-5.3-5.9-7.9-14.5-7.9-25.8v-11.1c0-11.4,2.6-20,7.9-25.9,5.3-5.8,12.6-8.7,22.1-8.7s14.5,2.1,19.4,6.4c4.9,4.3,8,10.6,9.3,18.9Z"/>
        </g>
        <g class="st2">
          <path class="st20" d="M1675.7,1587.7v11.1c0,11.3-2.6,19.9-7.9,25.8-5.3,5.9-12.7,8.8-22.1,8.8s-16.8-2.9-22.1-8.8c-5.3-5.9-7.9-14.5-7.9-25.8v-11.1c0-11.4,2.6-20,7.9-25.9,5.3-5.8,12.6-8.7,22.1-8.7s16.9,2.9,22.2,8.7c5.3,5.8,7.9,14.4,7.9,25.9ZM1631.5,1587.7v11.1c0,14.1,4.7,21.2,14.1,21.2s14.2-7.1,14.2-21.2v-11.1c0-14.1-4.7-21.2-14.2-21.2s-14.1,7.1-14.1,21.2Z"/>
          <path class="st20" d="M1732.6,1599.1l16.2,33.3h-17.5l-14.1-30.7h-12.7v30.7h-15.9v-78.3h28c9.3,0,16.5,2.1,21.6,6.2,5.1,4.1,7.7,10,7.7,17.7s-4.5,17.3-13.4,21ZM1704.6,1567.7v20.6h10.7c5.2,0,9-.8,11.3-2.3,2.3-1.5,3.5-4.2,3.5-7.9s-1.2-6.5-3.6-8.1c-2.4-1.6-6.1-2.4-11.3-2.4h-10.7Z"/>
          <path class="st20" d="M1786.7,1604.9h-12.1v27.6h-15.9v-78.3h28c9.3,0,16.5,2.1,21.6,6.4,5.1,4.3,7.7,10.5,7.7,18.7s-2.6,14.4-7.8,18.9c-5.2,4.5-12.3,6.7-21.5,6.7ZM1774.6,1567.7v23.8h9.9c5.4,0,9.4-1,11.9-2.9,2.5-2,3.7-5.1,3.7-9.3,0-7.7-5.2-11.6-15.7-11.6h-9.9Z"/>
          <path class="st20" d="M1869.8,1600.8v-46.6h15.9v46.5c0,10.8-2.7,19-8,24.5-5.3,5.5-12.7,8.3-22.1,8.3s-16.7-2.7-22.1-8.2c-5.3-5.5-8-13.6-8-24.4v-46.6h15.9v46.6c0,6.7,1.1,11.5,3.4,14.6,2.3,3.1,5.9,4.7,10.8,4.7s8.5-1.5,10.8-4.7c2.3-3.1,3.4-8,3.4-14.6Z"/>
          <path class="st20" d="M1953.7,1566l-11.9,8.5c-1.8-2.8-3.9-4.8-6.2-6.1-2.3-1.2-5.4-1.9-9.2-1.9s-6.3.8-8.2,2.3c-1.9,1.5-2.8,3.6-2.8,6.4s1.2,5.2,3.5,6.9c2.3,1.7,6.3,3.2,11.9,4.6,8.4,2.2,14.4,5.1,18.1,8.6,3.7,3.5,5.6,8.6,5.6,15.4s-2.3,12.5-7,16.6c-4.7,4.1-11.3,6.2-20,6.2-13.6,0-23.7-4.3-30.2-12.8l12.1-8.4c2.3,2.8,4.7,4.8,7.3,6,2.6,1.2,5.8,1.8,9.7,1.8,8.1,0,12.1-2.9,12.1-8.7s-1.2-5.1-3.5-6.8c-2.3-1.7-6.5-3.4-12.5-5-7.9-2-13.8-5-17.5-9-3.7-3.9-5.6-9.1-5.6-15.4s2.3-12.1,6.9-16c4.6-4,11.2-6,19.9-6,12.7,0,21.8,4.3,27.4,12.8Z"/>
        </g>
      </g>
    </g>
    <g id="All_figures_in_Rupee_Millions" class="st2">
      <g class="st2">
        <g class="st2">
          <path d="M74.9,1816.7l17-48.9h7.8l17,48.9h-8.7l-3.3-10.1h-17.6l-3.3,10.1h-8.8ZM89.2,1799.5h13l-6.5-19.8-6.5,19.8Z"/>
          <path d="M120.9,1767.8h7.6v36c0,3.8.7,6.2,5.4,6.2v6.7c-9.2,0-13-3-13-11.1v-37.8Z"/>
          <path d="M140.9,1767.8h7.6v36c0,3.8.7,6.2,5.4,6.2v6.7c-9.2,0-13-3-13-11.1v-37.8Z"/>
          <path d="M180.3,1781.3v-2.2c0-8.4,3-11.3,11.6-11.3h2.2v6.8h-1.6c-4,0-4.6,1.8-4.6,5.9v.8h17.3v35.4h-7.5v-28.9h-9.8v28.9h-7.5v-28.9h-4.5v-6.5h4.5Z"/>
          <path d="M233.8,1781.3h7.5v34.7c0,10.9-6.2,14.6-15.5,14.6s-10.3-1.6-13.2-6.2l5.3-3.8c1.6,2.3,3.8,3.5,7.7,3.5,5.7,0,8.2-2.4,8.2-8.2v-1.6c-1.9,2-4.7,3-8.5,3-9.4,0-14.1-6.7-14.1-16v-4.8c0-10.2,5.5-15.9,14.1-15.9s6.6,1.1,8.5,3.1v-2.5ZM233.8,1801v-4.1c0-6.1-2.5-9.6-7.5-9.6s-7.6,3.5-7.6,9.6v4.1c0,5.5,2.1,9.9,7.6,9.9s7.5-4.3,7.5-9.9Z"/>
          <path d="M278.6,1816.7h-7.4v-3.2c-1.6,2.6-3.8,3.8-8.7,3.8-7.3,0-13-3.8-13-14v-22.1h7.6v21.3c0,6.3,2.8,8.1,6.8,8.1s7.2-3.1,7.2-8v-21.4h7.5v35.4Z"/>
        </g>
        <g class="st2">
          <path d="M306,1790.1c-1.1-1.6-2.7-2.8-5.1-2.8-3.8,0-6.5,2.8-6.5,7.9v21.4h-7.6v-35.4h7.4v3.2c1.3-2.1,3.8-3.8,7.9-3.8s7.7,1.8,9.9,5.2l-6,4.3Z"/>
        </g>
        <g class="st2">
          <path d="M341.8,1811.3c-2.5,4.3-6.4,6-12.7,6-10.1,0-15.5-6.6-15.5-16v-4.8c0-10.4,5.1-15.9,14.4-15.9s14.3,5.8,14.3,16.3v3.9h-21.2c0,5.7,2.1,10,7.7,10s5.9-1.3,7.3-3.5l5.7,4ZM321.2,1795h13.5c-.3-5.2-2.4-7.8-6.7-7.8s-6.4,3-6.8,7.8Z"/>
          <path d="M369.2,1790.6c-1.7-2.2-3.5-3.2-7.7-3.2s-5.5,1.1-5.5,3.6,2.6,3.9,6.7,4.4c7.9.9,13,3.7,13,11.2s-4.5,10.8-13.6,10.8-11.3-2-14.2-5.9l5.7-4.1c1.6,2.2,3.8,3.3,8.4,3.3s6.2-1.4,6.2-3.9-1.8-3.8-7.4-4.5c-6.7-.9-12.4-3.7-12.4-11.1s4.6-10.6,13.3-10.6,10.4,1.5,13.2,5.9l-5.6,4Z"/>
          <path d="M401,1767.8h8.3v7.7h-8.3v-7.7ZM401.3,1781.3h7.6v35.4h-7.6v-35.4Z"/>
          <path d="M418.1,1781.3h7.4v3.2c1.6-2.1,4.1-3.8,8.8-3.8,7.3,0,12.9,3.7,12.9,13.9v22.2h-7.5v-21.3c0-6.2-2.8-8-6.7-8s-7.3,3.2-7.3,7.9v21.4h-7.6v-35.4Z"/>
          <path d="M501.6,1816.7l-9.4-19.8h-9.5v19.8h-8.2v-48.9h16.7c11.3,0,18,4.9,18,14.6s-3.2,11.1-8.9,13.1l10.4,21.2h-9.1ZM490.5,1789.8c6.9,0,10.3-1.8,10.3-7.4s-3.4-7.4-10.3-7.4h-7.9v14.8h7.9Z"/>
          <path d="M545.5,1816.7h-7.4v-3.2c-1.6,2.6-3.8,3.8-8.7,3.8-7.3,0-13-3.8-13-14v-22.1h7.6v21.3c0,6.3,2.8,8.1,6.8,8.1s7.2-3.1,7.2-8v-21.4h7.5v35.4Z"/>
          <path d="M583.8,1801.3c0,9.2-4.5,16-14,16s-6.8-1-8.6-2.9v15.7h-7.6v-48.9h7.6v2.8c1.8-2.2,4.6-3.5,8.6-3.5,8.5,0,13.9,5.7,13.9,15.9v4.8ZM576.3,1801v-4.1c0-6.2-2.5-9.6-7.5-9.6s-7.4,3.4-7.5,9.2v4.5c0,5.5,1.8,9.9,7.5,9.9s7.5-4.3,7.5-9.9Z"/>
          <path d="M617.2,1811.3c-2.5,4.3-6.4,6-12.7,6-10.1,0-15.5-6.6-15.5-16v-4.8c0-10.4,5.1-15.9,14.4-15.9s14.3,5.8,14.3,16.3v3.9h-21.2c0,5.7,2.1,10,7.7,10s5.9-1.3,7.3-3.5l5.7,4ZM596.5,1795h13.5c-.3-5.2-2.4-7.8-6.7-7.8s-6.4,3-6.8,7.8Z"/>
          <path d="M651.7,1811.3c-2.5,4.3-6.4,6-12.7,6-10.1,0-15.5-6.6-15.5-16v-4.8c0-10.4,5.1-15.9,14.4-15.9s14.3,5.8,14.3,16.3v3.9h-21.2c0,5.7,2.1,10,7.7,10s5.9-1.3,7.3-3.5l5.7,4ZM631,1795h13.5c-.3-5.2-2.4-7.8-6.7-7.8s-6.4,3-6.8,7.8Z"/>
          <path d="M672.2,1824.9c-10-6.7-12.1-11.6-12.1-19.4v-26.9c0-7.9,2.1-12.6,12.1-19.4l4.3,6c-6.6,4.8-8.9,7.4-8.9,15.1v23.7c0,7.7,2.3,10.3,8.9,15.2l-4.3,5.9Z"/>
        </g>
      </g>
      <g class="st2">
        <g class="st2">
          <path d="M682.3,1789.6c1.1,0,2.2.1,3.4.1s2.3,0,3.4-.3c1.1-.2,2.2-.5,3.2-.8,1-.4,1.9-.9,2.7-1.6.8-.7,1.5-1.6,2-2.6.5-1,.8-2.3,1-3.8h-17.2c0-.2.3-.5.6-1,.3-.5.6-1.1,1-1.6.4-.7.9-1.4,1.4-2.2h13.4c0-.6-.3-1.2-.9-1.8-.6-.6-1.3-1.2-2.1-1.6-.8-.5-1.7-.9-2.5-1.2s-1.6-.5-2.1-.5h-8.8c0-.3.3-.7.6-1.2.3-.6.6-1.1,1-1.6.3-.5.7-1,.9-1.4.3-.4.4-.6.4-.6h28.8c-.3.5-.5.9-.7,1.3-.2.4-.4.8-.7,1.2-.3.4-.5.8-.7,1.2-.2.4-.5.8-.8,1.3h-7.6c.5.8.9,1.7,1.3,2.5.4.8.6,1.7.7,2.6h8.5l-2.9,4.8h-5.3c-.3,2.1-.9,4-1.8,5.5s-2.1,2.8-3.4,3.8c-1.3,1-2.9,1.8-4.5,2.3-1.7.5-3.4.9-5.1,1.1,0,0,0,0,.1.2,0,.1.2.3.3.4.1.2.3.4.4.6l15.4,21.2v.9h-6.6l-16.8-22.5v-4.6Z"/>
        </g>
      </g>
      <g class="st2">
        <g class="st2">
          <path d="M716.4,1819c6.6-4.9,8.9-7.5,8.9-15.2v-23.7c0-7.7-2.3-10.3-8.9-15.1l4.3-6c10,6.8,12.1,11.6,12.1,19.4v26.9c0,7.9-2.1,12.7-12.1,19.4l-4.3-5.9Z"/>
          <path d="M782.1,1796.2l14.1-28.4h7.9v48.9h-7.9v-32.7l-11.2,23.3h-5.8l-11-23.1v32.5h-7.9v-48.9h7.8l14.1,28.4Z"/>
          <path d="M814.2,1767.8h8.3v7.7h-8.3v-7.7ZM814.5,1781.3h7.6v35.4h-7.6v-35.4Z"/>
          <path d="M831.3,1767.8h7.6v36c0,3.8.7,6.2,5.4,6.2v6.7c-9.2,0-13-3-13-11.1v-37.8Z"/>
          <path d="M851.2,1767.8h7.6v36c0,3.8.7,6.2,5.4,6.2v6.7c-9.2,0-13-3-13-11.1v-37.8Z"/>
          <path d="M871.9,1767.8h8.3v7.7h-8.3v-7.7ZM872.3,1781.3h7.6v35.4h-7.6v-35.4Z"/>
          <path d="M917.7,1801.2c0,9.4-4.6,16.2-15,16.2s-15.1-6.4-15.1-16.2v-4.5c0-10.4,5.5-16.1,15.1-16.1s15,5.7,15,16.1v4.5ZM910.1,1801v-4.1c0-6.2-2.5-9.6-7.5-9.6s-7.6,3.5-7.6,9.6v4.1c0,5.5,1.8,9.9,7.6,9.9s7.5-4.3,7.5-9.9Z"/>
          <path d="M924.2,1781.3h7.4v3.2c1.6-2.1,4.1-3.8,8.8-3.8,7.3,0,12.9,3.7,12.9,13.9v22.2h-7.5v-21.3c0-6.2-2.8-8-6.7-8s-7.3,3.2-7.3,7.9v21.4h-7.6v-35.4Z"/>
          <path d="M981.2,1790.6c-1.7-2.2-3.5-3.2-7.7-3.2s-5.5,1.1-5.5,3.6,2.6,3.9,6.7,4.4c7.9.9,13,3.7,13,11.2s-4.5,10.8-13.6,10.8-11.3-2-14.2-5.9l5.7-4.1c1.6,2.2,3.8,3.3,8.4,3.3s6.2-1.4,6.2-3.9-1.8-3.8-7.4-4.5c-6.7-.9-12.4-3.7-12.4-11.1s4.6-10.6,13.3-10.6,10.4,1.5,13.2,5.9l-5.6,4Z"/>
        </g>
      </g>
    </g>
    <g id="_Projections" class="st2">
      <g class="st2">
        <g class="st2">
          <path d="M2407,1775.6l6.6-4.2,3,5.1-6.8,3.7,6.8,3.6-3,5-6.6-4,.4,7.7h-5.9l.2-7.7-6.5,4-3-5.1,6.9-3.6-6.8-3.7,2.9-5.1,6.5,4.1-.2-7.7h5.9l-.4,7.8Z"/>
          <path d="M2433.1,1798.8v17.9h-8.2v-48.9h16.7c11.3,0,18,5.4,18,15.5s-6.7,15.6-18,15.6h-8.4ZM2440.7,1791.8c7.5,0,10.6-2.9,10.6-8.5s-3.1-8.3-10.6-8.3h-7.6v16.8h7.6Z"/>
        </g>
        <g class="st2">
          <path d="M2484.5,1790.1c-1.1-1.6-2.7-2.8-5.1-2.8-3.8,0-6.5,2.8-6.5,7.9v21.4h-7.6v-35.4h7.4v3.2c1.3-2.1,3.8-3.8,7.9-3.8s7.7,1.8,9.9,5.2l-6,4.3Z"/>
        </g>
        <g class="st2">
          <path d="M2522.2,1801.2c0,9.4-4.6,16.2-15,16.2s-15.1-6.4-15.1-16.2v-4.5c0-10.4,5.5-16.1,15.1-16.1s15,5.7,15,16.1v4.5ZM2514.7,1801v-4.1c0-6.2-2.5-9.6-7.5-9.6s-7.6,3.5-7.6,9.6v4.1c0,5.5,1.8,9.9,7.6,9.9s7.5-4.3,7.5-9.9Z"/>
          <path d="M2537.6,1818.9c0,8.3-3.6,11.3-12.8,11.3v-6.7c4.7,0,5.3-2.4,5.3-6v-36.3h7.5v37.6ZM2529.7,1767.8h8.2v7.7h-8.2v-7.7Z"/>
          <path d="M2572.8,1811.3c-2.5,4.3-6.4,6-12.7,6-10.1,0-15.5-6.6-15.5-16v-4.8c0-10.4,5.1-15.9,14.4-15.9s14.3,5.8,14.3,16.3v3.9h-21.2c0,5.7,2.1,10,7.7,10s5.9-1.3,7.3-3.5l5.7,4ZM2552.2,1795h13.5c-.3-5.2-2.4-7.8-6.7-7.8s-6.4,3-6.8,7.8Z"/>
          <path d="M2607.3,1811.3c-2.3,4.2-6.5,6-12.6,6-9.9,0-15.6-6.4-15.6-16v-4.8c0-10.2,5.7-15.9,15.9-15.9s9.9,2,12.3,5.7l-5.8,4c-1.3-1.9-3.6-3.2-6.7-3.2-5.5,0-8.2,3.5-8.2,9.6v4.1c0,5.5,2,9.9,8.2,9.9s5.4-1.1,6.7-3.5l5.7,4Z"/>
          <path d="M2609.3,1781.3h4.5v-7.8h7.5v7.8h7.5v6.5h-7.5v16.2c0,4.1.6,5.9,4.6,5.9h2.9v6.8h-3.5c-8.5,0-11.6-2.9-11.6-11.3v-17.6h-4.5v-6.5Z"/>
          <path d="M2635.8,1767.8h8.3v7.7h-8.3v-7.7ZM2636.2,1781.3h7.6v35.4h-7.6v-35.4Z"/>
          <path d="M2681.5,1801.2c0,9.4-4.6,16.2-15,16.2s-15.1-6.4-15.1-16.2v-4.5c0-10.4,5.5-16.1,15.1-16.1s15,5.7,15,16.1v4.5ZM2674,1801v-4.1c0-6.2-2.5-9.6-7.5-9.6s-7.6,3.5-7.6,9.6v4.1c0,5.5,1.8,9.9,7.6,9.9s7.5-4.3,7.5-9.9Z"/>
          <path d="M2688.1,1781.3h7.4v3.2c1.6-2.1,4.1-3.8,8.8-3.8,7.3,0,12.9,3.7,12.9,13.9v22.2h-7.5v-21.3c0-6.2-2.8-8-6.7-8s-7.3,3.2-7.3,7.9v21.4h-7.6v-35.4Z"/>
          <path d="M2745,1790.6c-1.7-2.2-3.5-3.2-7.7-3.2s-5.5,1.1-5.5,3.6,2.6,3.9,6.7,4.4c7.9.9,13,3.7,13,11.2s-4.5,10.8-13.6,10.8-11.3-2-14.2-5.9l5.7-4.1c1.6,2.2,3.8,3.3,8.4,3.3s6.2-1.4,6.2-3.9-1.8-3.8-7.4-4.5c-6.7-.9-12.4-3.7-12.4-11.1s4.6-10.6,13.3-10.6,10.4,1.5,13.2,5.9l-5.6,4Z"/>
        </g>
      </g>
    </g>
  </g>
</svg>