<?xml version="1.0" encoding="UTF-8"?>
<svg id="Layer_1" data-name="Layer 1" xmlns="http://www.w3.org/2000/svg" viewBox="0 0 355.12 324.53">
  <defs>
    <style>
      .cls-1 {
        fill: #df5127;
      }

      .cls-2 {
        fill: #fff8ef;
      }

      .cls-3 {
        fill: #f9a86a;
      }
    </style>
  </defs>
  <g>
    <g>
      <path class="cls-2" d="M53.48,243.18l31.59-23.54c1.11-.83,2.07-2.19,2.57-3.64l14.13-41.22c1.07-3.13,3.88-5.09,5.45-4.2l.06.02s15.86,9.61,15.86,9.61c.05.03.09.08.09.14.1.95.96,9.35,1.64,16.09.01.13.15.21.27.16l31.05-12.72c.77-.31,1.39-.27,1.88,0h.02s15.9,9.57,15.9,9.57c.12.07.13.25,0,.33l-5.53,3.72s-.02.02-.03.03l-33.98,35.75s-.06.11-.05.17l5.24,32.27c.48,2.94-2.45,7.09-4.95,7.01l-28.26-.84c-.79-.02-1.7.42-2.54,1.18l-5.14,15.62s0,0,0,.01l-11.56,29.5c-.04.11-.18.16-.28.1l-16.13-9.65c-.6-.48-.93-1.41-.74-2.75l5.4-39.45c.19-1.39-.18-2.48-.98-2.92l-5.94-3.26-1.09.02-15.83-9.29c-2.03-1.11-.91-5.73,1.89-7.81Z"/>
      <path class="cls-1" d="M69.53,310.22c-.71-.57-1.85-1.92-1.48-4.59l5.4-39.45c.08-.61-.01-.9.04-.89l-5.47-3-1.13.02-16.26-9.55c-1.22-.67-1.95-1.92-2.06-3.53-.19-2.69,1.38-5.91,3.72-7.66l31.6-23.54c.78-.59,1.5-1.61,1.87-2.68l14.13-41.22c.87-2.53,2.76-4.67,4.82-5.45,1.25-.48,2.5-.42,3.29.04l.29.14s.05.03,15.92,9.65l.93.66,1.49,14.66,28.81-11.8c.88-.36,1.65-.43,2.27-.34l.3-.21,17.03,10.27c.64.39,1.03,1.08,1.05,1.83l-.06,1.27-6.28,4.22-33.22,34.96,5.1,31.38c.36,2.18-.57,4.91-2.35,6.94-1.39,1.59-3.03,2.39-4.64,2.4l-28.25-.84h0c-.07,0-.35.06-.75.36l-4.99,15.19-11.57,29.52-.46.96-1.91.58-17.15-10.28ZM106.48,269.88l28.26.84c.26-.06.83-.26,1.5-1.03.98-1.12,1.57-2.65,1.41-3.65l-5.23-32.2-.15-1.19,34.63-36.43,3.6-2.52-12.34-7.44-.11.08-1.1-.61-31.07,12.72c-.63.26-1.36.2-1.95-.15l-.96-.66-1.64-16.18c-3.15-1.91-14.89-9.02-14.97-9.09h-.01c-.48,0-1.99,1.05-2.68,3.06l-14.13,41.22c-.64,1.85-1.83,3.52-3.27,4.6l-31.6,23.54c-1.8,1.34-2.38,3.96-2.07,4.47l15.34,9.01,1.06-.02,6.41,3.51c1.57.86,2.32,2.71,2.01,4.95l-5.4,39.45c-.07.52,0,.8.03.9l14.05,8.41,10.74-27.41,5.3-16.12.39-.36c1.21-1.11,2.57-1.71,3.84-1.71.04,0,.08,0,.11,0Z"/>
    </g>
    <g>
      <path class="cls-3" d="M118.22,184.64l-14.13,41.22c-.5,1.45-1.46,2.81-2.57,3.64l-31.59,23.54c-2.8,2.09-3.92,6.7-1.89,7.81l22.86,12.53c.8.44,1.17,1.53.98,2.92l-5.4,39.45c-.48,3.5,2.45,4.26,4.95,1.3l28.26-33.47c.99-1.18,2.18-1.86,3.18-1.83l28.26.84c2.5.07,5.43-4.07,4.95-7.01l-5.4-33.22c-.19-1.17.18-2.68.98-4.05l22.86-38.93c2.03-3.45.91-6.78-1.89-5.63l-31.59,12.94c-1.11.45-2.07.2-2.57-.67l-14.13-24.9c-1.25-2.21-4.87-.12-6.12,3.53Z"/>
      <path class="cls-1" d="M86.76,320.57c-1.75-.78-2.6-2.68-2.27-5.08l5.4-39.45c.08-.61,0-.89.04-.89l-22.86-12.53c-1.22-.67-1.95-1.92-2.06-3.53-.19-2.69,1.38-5.91,3.72-7.65l31.6-23.54c.78-.59,1.5-1.61,1.87-2.68l14.13-41.22c1.07-3.12,3.64-5.54,6.11-5.77,1.52-.14,2.9.57,3.65,1.9l14.19,24.71,31.59-12.94c1.79-.73,3.51-.39,4.62.88,1.51,1.74,1.42,4.81-.24,7.62l-22.86,38.93c-.68,1.15-.82,2.18-.73,2.72l5.4,33.22c.36,2.18-.57,4.91-2.35,6.95-1.4,1.59-3.07,2.39-4.64,2.4l-28.26-.84h0c-.2,0-.86.28-1.57,1.12l-28.26,33.47c-1.4,1.66-3.07,2.55-4.63,2.55-.54,0-1.07-.11-1.57-.33ZM122.93,279.74l28.26.84c.18-.03.83-.26,1.5-1.03.98-1.12,1.57-2.65,1.41-3.66l-5.4-33.22c-.27-1.64.18-3.61,1.23-5.39l22.86-38.93c.93-1.59.81-2.75.6-2.75l-31.59,12.94c-2.04.84-4.08.22-5.08-1.54l-13.9-24.79h-.01c-.49,0-2,1.06-2.69,3.08l-14.13,41.22c-.64,1.85-1.83,3.53-3.27,4.6l-31.6,23.54c-1.8,1.35-2.38,3.96-2.13,4.45l22.86,12.53c1.57.86,2.31,2.71,2.01,4.95l-5.4,39.45c-.06.47-.02.74-.04.84.24-.05.79-.3,1.47-1.11l28.26-33.47c1.37-1.63,3.05-2.55,4.65-2.55.04,0,.08,0,.12,0Z"/>
    </g>
    <polygon class="cls-1" points="117.8 185.86 101.31 176.14 87.65 215.99 104.09 225.86 117.8 185.86"/>
    <polygon class="cls-1" points="71.18 253.03 53.48 243.18 51.23 246.03 51.59 250.99 66.51 259.75 68.4 253.66 71.18 253.03"/>
    <polygon class="cls-1" points="86.91 318.3 70.12 307.61 75.44 265.2 90.89 273.39 91.88 276.31 86.48 315.76 86.91 318.3"/>
    <polygon class="cls-1" points="168.35 195.5 151.88 185.64 157.44 183.89 169.38 190.67 172.03 192.28 172.63 193.74 168.35 195.5"/>
    <rect class="cls-1" x="150.86" y="183.87" width="4.02" height="19.35" transform="translate(-91.36 227.87) rotate(-59.7)"/>
    <rect class="cls-1" x="64.99" y="234.67" width="4.02" height="19.35" transform="translate(-177.77 178.9) rotate(-59.7)"/>
    <rect class="cls-1" x="89.87" y="216.19" width="4.02" height="19.35" transform="translate(-149.48 191.23) rotate(-59.7)"/>
    <rect class="cls-3" x="77.4" y="294.16" width="3.09" height="19.17" transform="translate(-222.2 215.38) rotate(-59.08)"/>
    <rect class="cls-3" x="96.83" y="202.75" width="3.09" height="19.17" transform="translate(-134.33 187.59) rotate(-59.07)"/>
  </g>
  <g>
    <g>
      <path class="cls-2" d="M182.49,166.9l31.59-23.54c1.11-.83,2.07-2.19,2.57-3.64l14.13-41.22c1.07-3.13,3.88-5.09,5.45-4.2l.06.02s15.86,9.61,15.86,9.61c.05.03.09.08.09.14.1.95.96,9.35,1.64,16.09.01.13.15.21.27.16l31.05-12.72c.77-.31,1.39-.27,1.88,0h.02s15.9,9.57,15.9,9.57c.12.07.13.25,0,.33l-5.53,3.72s-.02.02-.03.03l-33.98,35.75s-.06.11-.05.17l5.24,32.27c.48,2.94-2.45,7.09-4.95,7.01l-28.26-.84c-.79-.02-1.7.42-2.54,1.18l-5.14,15.62s0,0,0,.01l-11.56,29.5c-.04.11-.18.16-.28.1l-16.13-9.65c-.6-.48-.93-1.41-.74-2.75l5.4-39.45c.19-1.39-.18-2.48-.98-2.92l-5.94-3.26-1.09.02-15.83-9.29c-2.03-1.11-.91-5.73,1.89-7.81Z"/>
      <path class="cls-1" d="M198.54,233.94c-.71-.57-1.85-1.92-1.48-4.59l5.4-39.45c.08-.61-.01-.9.04-.89l-5.47-3-1.13.02-16.26-9.55c-1.22-.67-1.95-1.92-2.06-3.53-.19-2.69,1.38-5.91,3.72-7.66l31.6-23.54c.78-.59,1.5-1.61,1.87-2.68l14.13-41.22c.87-2.53,2.76-4.67,4.82-5.45,1.25-.48,2.5-.42,3.29.04l.29.14s.05.03,15.92,9.65l.93.66,1.49,14.66,28.81-11.8c.88-.36,1.65-.43,2.27-.34l.3-.21,17.03,10.27c.64.39,1.03,1.08,1.05,1.83l-.06,1.27-6.28,4.22-33.22,34.96,5.1,31.38c.36,2.18-.57,4.91-2.35,6.94-1.39,1.59-3.03,2.39-4.64,2.4l-28.25-.84h0c-.07,0-.35.06-.75.36l-4.99,15.19-11.57,29.52-.46.96-1.91.58-17.15-10.28ZM235.5,193.6l28.26.84c.26-.06.83-.26,1.5-1.03.98-1.12,1.57-2.65,1.41-3.65l-5.23-32.2-.15-1.19,34.63-36.43,3.6-2.52-12.34-7.44-.11.08-1.1-.61-31.07,12.72c-.63.26-1.36.2-1.95-.15l-.96-.66-1.64-16.18c-3.15-1.91-14.89-9.02-14.97-9.09h-.01c-.48,0-1.99,1.05-2.68,3.06l-14.13,41.22c-.64,1.85-1.83,3.52-3.27,4.6l-31.6,23.54c-1.8,1.34-2.38,3.96-2.07,4.47l15.34,9.01,1.06-.02,6.41,3.51c1.57.86,2.32,2.71,2.01,4.95l-5.4,39.45c-.07.52,0,.8.03.9l14.05,8.41,10.74-27.41,5.3-16.12.39-.36c1.21-1.11,2.57-1.71,3.84-1.71.04,0,.08,0,.11,0Z"/>
    </g>
    <g>
      <path class="cls-3" d="M247.23,108.36l-14.13,41.22c-.5,1.45-1.46,2.81-2.57,3.64l-31.59,23.54c-2.8,2.09-3.92,6.7-1.89,7.81l22.86,12.53c.8.44,1.17,1.53.98,2.92l-5.4,39.45c-.48,3.5,2.45,4.26,4.95,1.3l28.26-33.47c.99-1.18,2.18-1.86,3.18-1.83l28.26.84c2.5.07,5.43-4.07,4.95-7.01l-5.4-33.22c-.19-1.17.18-2.68.98-4.05l22.86-38.93c2.03-3.45.91-6.78-1.89-5.63l-31.59,12.94c-1.11.45-2.07.2-2.57-.67l-14.13-24.9c-1.25-2.21-4.87-.12-6.12,3.53Z"/>
      <path class="cls-1" d="M215.77,244.29c-1.75-.78-2.6-2.68-2.27-5.08l5.4-39.45c.08-.61,0-.89.04-.89l-22.86-12.53c-1.22-.67-1.95-1.92-2.06-3.53-.19-2.69,1.38-5.91,3.72-7.65l31.6-23.54c.78-.59,1.5-1.61,1.87-2.68l14.13-41.22c1.07-3.12,3.64-5.54,6.11-5.77,1.52-.14,2.9.57,3.65,1.9l14.19,24.71,31.59-12.94c1.79-.73,3.51-.39,4.62.88,1.51,1.74,1.42,4.81-.24,7.62l-22.86,38.93c-.68,1.15-.82,2.18-.73,2.72l5.4,33.22c.36,2.18-.57,4.91-2.35,6.95-1.4,1.59-3.07,2.39-4.64,2.4l-28.26-.84h0c-.2,0-.86.28-1.57,1.12l-28.26,33.47c-1.4,1.66-3.07,2.55-4.63,2.55-.54,0-1.07-.11-1.57-.33ZM251.94,203.46l28.26.84c.18-.03.83-.26,1.5-1.03.98-1.12,1.57-2.65,1.41-3.66l-5.4-33.22c-.27-1.64.18-3.61,1.23-5.39l22.86-38.93c.93-1.59.81-2.75.6-2.75l-31.59,12.94c-2.04.84-4.08.22-5.08-1.54l-13.9-24.79h-.01c-.49,0-2,1.06-2.69,3.08l-14.13,41.22c-.64,1.85-1.83,3.53-3.27,4.6l-31.6,23.54c-1.8,1.35-2.38,3.96-2.13,4.45l22.86,12.53c1.57.86,2.31,2.71,2.01,4.95l-5.4,39.45c-.06.47-.02.74-.04.84.24-.05.79-.3,1.47-1.11l28.26-33.47c1.37-1.63,3.05-2.55,4.65-2.55.04,0,.08,0,.12,0Z"/>
    </g>
    <polygon class="cls-1" points="246.81 109.58 230.32 99.86 216.66 139.71 233.1 149.58 246.81 109.58"/>
    <polygon class="cls-1" points="200.19 176.75 182.49 166.9 180.25 169.75 180.6 174.71 195.52 183.47 197.41 177.38 200.19 176.75"/>
    <polygon class="cls-1" points="215.92 242.02 199.13 231.33 204.45 188.92 219.91 197.11 220.89 200.03 215.49 239.48 215.92 242.02"/>
    <polygon class="cls-1" points="297.36 119.22 280.9 109.36 286.45 107.61 298.39 114.39 301.05 116 301.65 117.46 297.36 119.22"/>
    <rect class="cls-1" x="279.87" y="107.59" width="4.02" height="19.35" transform="translate(38.42 301.46) rotate(-59.7)"/>
    <rect class="cls-1" x="194" y="158.39" width="4.02" height="19.35" transform="translate(-47.99 252.5) rotate(-59.7)"/>
    <rect class="cls-1" x="218.88" y="139.9" width="4.02" height="19.35" transform="translate(-19.7 264.83) rotate(-59.7)"/>
    <rect class="cls-3" x="206.42" y="217.88" width="3.09" height="19.17" transform="translate(-94.04 288.98) rotate(-59.08)"/>
    <rect class="cls-3" x="225.85" y="126.47" width="3.09" height="19.17" transform="translate(-6.19 261.19) rotate(-59.07)"/>
  </g>
  <g>
    <g>
      <path class="cls-2" d="M96.81,78.46l31.59-23.54c1.11-.83,2.07-2.19,2.57-3.64l14.13-41.22c1.07-3.13,3.88-5.09,5.45-4.2l.06.02s15.86,9.61,15.86,9.61c.05.03.09.08.09.14.1.95.96,9.35,1.64,16.09.01.13.15.21.27.16l31.05-12.72c.77-.31,1.39-.27,1.88,0h.02s15.9,9.57,15.9,9.57c.12.07.13.25,0,.33l-5.53,3.72s-.02.02-.03.03l-33.98,35.75s-.06.11-.05.17l5.24,32.27c.48,2.94-2.45,7.09-4.95,7.01l-28.26-.84c-.79-.02-1.7.42-2.54,1.18l-5.14,15.62s0,0,0,.01l-11.56,29.5c-.04.11-.18.16-.28.1l-16.13-9.65c-.6-.48-.93-1.41-.74-2.75l5.4-39.45c.19-1.39-.18-2.48-.98-2.92l-5.94-3.26-1.09.02-15.83-9.29c-2.03-1.11-.91-5.73,1.89-7.81Z"/>
      <path class="cls-1" d="M112.85,145.5c-.71-.57-1.85-1.92-1.48-4.59l5.4-39.45c.08-.61-.01-.9.04-.89l-5.47-3-1.13.02-16.26-9.55c-1.22-.67-1.95-1.92-2.06-3.53-.19-2.69,1.38-5.91,3.72-7.66l31.6-23.54c.78-.59,1.5-1.61,1.87-2.68l14.13-41.22c.87-2.53,2.76-4.67,4.82-5.45,1.25-.48,2.5-.42,3.29.04l.29.14s.05.03,15.92,9.65l.93.66,1.49,14.66,28.81-11.8c.88-.36,1.65-.43,2.27-.34l.3-.21,17.03,10.27c.64.39,1.03,1.08,1.05,1.83l-.06,1.27-6.28,4.22-33.22,34.96,5.1,31.38c.36,2.18-.57,4.91-2.35,6.94-1.39,1.59-3.03,2.39-4.64,2.4l-28.25-.84h0c-.07,0-.35.06-.75.36l-4.99,15.19-11.57,29.52-.46.96-1.91.58-17.15-10.28ZM149.81,105.17l28.26.84c.26-.06.83-.26,1.5-1.03.98-1.12,1.57-2.65,1.41-3.65l-5.23-32.2-.15-1.19,34.63-36.43,3.6-2.52-12.34-7.44-.11.08-1.1-.61-31.07,12.72c-.63.26-1.36.2-1.95-.15l-.96-.66-1.64-16.18c-3.15-1.91-14.89-9.02-14.97-9.09h-.01c-.48,0-1.99,1.05-2.68,3.06l-14.13,41.22c-.64,1.85-1.83,3.52-3.27,4.6l-31.6,23.54c-1.8,1.34-2.38,3.96-2.07,4.47l15.34,9.01,1.06-.02,6.41,3.51c1.57.86,2.32,2.71,2.01,4.95l-5.4,39.45c-.07.52,0,.8.03.9l14.05,8.41,10.74-27.41,5.3-16.12.39-.36c1.21-1.11,2.57-1.71,3.84-1.71.04,0,.08,0,.11,0Z"/>
    </g>
    <g>
      <path class="cls-3" d="M161.55,19.93l-14.13,41.22c-.5,1.45-1.46,2.81-2.57,3.64l-31.59,23.54c-2.8,2.09-3.92,6.7-1.89,7.81l22.86,12.53c.8.44,1.17,1.53.98,2.92l-5.4,39.45c-.48,3.5,2.45,4.26,4.95,1.3l28.26-33.47c.99-1.18,2.18-1.86,3.18-1.83l28.26.84c2.5.07,5.43-4.07,4.95-7.01l-5.4-33.22c-.19-1.17.18-2.68.98-4.05l22.86-38.93c2.03-3.45.91-6.78-1.89-5.63l-31.59,12.94c-1.11.45-2.07.2-2.57-.67l-14.13-24.9c-1.25-2.21-4.87-.12-6.12,3.53Z"/>
      <path class="cls-1" d="M130.09,155.86c-1.75-.78-2.6-2.68-2.27-5.08l5.4-39.45c.08-.61,0-.89.04-.89l-22.86-12.53c-1.22-.67-1.95-1.92-2.06-3.53-.19-2.69,1.38-5.91,3.72-7.65l31.6-23.54c.78-.59,1.5-1.61,1.87-2.68l14.13-41.22c1.07-3.12,3.64-5.54,6.11-5.77,1.52-.14,2.9.57,3.65,1.9l14.19,24.71,31.59-12.94c1.79-.73,3.51-.39,4.62.88,1.51,1.74,1.42,4.81-.24,7.62l-22.86,38.93c-.68,1.15-.82,2.18-.73,2.72l5.4,33.22c.36,2.18-.57,4.91-2.35,6.95-1.4,1.59-3.07,2.39-4.64,2.4l-28.26-.84h0c-.2,0-.86.28-1.57,1.12l-28.26,33.47c-1.4,1.66-3.07,2.55-4.63,2.55-.54,0-1.07-.11-1.57-.33ZM166.26,115.03l28.26.84c.18-.03.83-.26,1.5-1.03.98-1.12,1.57-2.65,1.41-3.66l-5.4-33.22c-.27-1.64.18-3.61,1.23-5.39l22.86-38.93c.93-1.59.81-2.75.6-2.75l-31.59,12.94c-2.04.84-4.08.22-5.08-1.54l-13.9-24.79h-.01c-.49,0-2,1.06-2.69,3.08l-14.13,41.22c-.64,1.85-1.83,3.53-3.27,4.6l-31.6,23.54c-1.8,1.35-2.38,3.96-2.13,4.45l22.86,12.53c1.57.86,2.31,2.71,2.01,4.95l-5.4,39.45c-.06.47-.02.74-.04.84.24-.05.79-.3,1.47-1.11l28.26-33.47c1.37-1.63,3.05-2.55,4.65-2.55.04,0,.08,0,.12,0Z"/>
    </g>
    <polygon class="cls-1" points="161.13 21.14 144.64 11.43 130.97 51.28 147.42 61.15 161.13 21.14"/>
    <polygon class="cls-1" points="114.51 88.32 96.81 78.46 94.56 81.32 94.92 86.28 109.84 95.04 111.72 88.95 114.51 88.32"/>
    <polygon class="cls-1" points="130.24 153.59 113.45 142.9 118.77 100.48 134.22 108.67 135.2 111.6 129.81 151.05 130.24 153.59"/>
    <polygon class="cls-1" points="211.68 30.78 195.21 20.93 200.76 19.18 212.71 25.96 215.36 27.56 215.96 29.03 211.68 30.78"/>
    <rect class="cls-1" x="194.18" y="19.15" width="4.02" height="19.35" transform="translate(72.32 183.67) rotate(-59.7)"/>
    <rect class="cls-1" x="108.32" y="69.96" width="4.02" height="19.35" transform="translate(-14.09 134.71) rotate(-59.7)"/>
    <rect class="cls-1" x="133.2" y="51.47" width="4.02" height="19.35" transform="translate(14.2 147.03) rotate(-59.7)"/>
    <rect class="cls-3" x="120.73" y="129.45" width="3.09" height="19.17" transform="translate(-59.83 172.48) rotate(-59.08)"/>
    <rect class="cls-3" x="140.16" y="38.04" width="3.09" height="19.17" transform="translate(28.02 144.7) rotate(-59.07)"/>
  </g>
</svg>