<?xml version="1.0" encoding="UTF-8"?>
<svg id="Layer_1" data-name="Layer 1" xmlns="http://www.w3.org/2000/svg" viewBox="0 0 355.12 324.53">
  <defs>
    <style>
      .cls-1 {
        fill: #df5127;
      }

      .cls-2 {
        fill: #fff8ef;
      }

      .cls-3 {
        fill: #f9a86a;
      }
    </style>
  </defs>
  <g>
    <g>
      <path class="cls-3" d="M311.55,17.58c.07-.07.08-.17.02-.23-.82-.84-6.21-6.07-16.78-9.97h0c-9.06-3.67-23.83-5.17-44.42,6.72-25.75,14.87-42.56,40.26-50.39,54.32-2.3,4.13-2.44,8.36-.66,10.29h0s3.33,5.51,12.2,6.89c.38.06.77-.13.96-.47l5.62-10,26.13-38.23s24.55-10.01,34.76-14.29c5.22.7,9.11,2.58,11.65,4.26,2.26,1.5,5.95-.17,8.71-3.88h0c.43-.59.82-1.2,1.16-1.81,3.85.17,6.82.31,6.82.31l4.22-3.91Z"/>
      <path class="cls-1" d="M211.35,86.69c-8.72-1.35-12.39-6.5-12.92-7.31-2.11-2.39-1.88-7.1.58-11.51,7.8-13.99,24.77-39.7,50.81-54.74,21.12-12.19,36.29-10.45,45.32-6.82l.05.02c10.71,3.95,16.2,9.22,17.19,10.24l.37.45v.47c-.02.34-.18.68-.43.91l-4.56,4.23-.47-.02s-2.63-.13-6.14-.28c-.28.46-.58.9-.9,1.33-3.15,4.24-7.44,5.98-10.22,4.14-2.19-1.45-5.85-3.32-10.89-4.05-9.63,4.04-31.32,12.89-34.18,14.05l-25.89,37.87-5.62,10c-.37.65-1.06,1.05-1.79,1.05-.1,0-.21,0-.31-.02ZM279.13,21.5c5.61.75,9.69,2.83,12.12,4.44,1.7,1.12,4.86-.47,7.21-3.63.39-.53.76-1.09,1.08-1.68l.34-.6.69.03c2.94.13,5.37.24,6.35.29l3.14-2.91c-1.81-1.64-6.86-5.73-15.38-8.92h-.02s-.29-.11-.29-.11c-8.56-3.47-23.04-5.13-43.44,6.65-25.58,14.77-42.29,40.1-49.97,53.89-2.23,4-2.08,7.62-.82,8.99l.14.18c.03.05,3.13,5.04,11.3,6.34l5.61-9.97,26.32-38.51.31-.13c.25-.1,24.66-10.05,34.75-14.29l.28-.12.3.04Z"/>
    </g>
    <g>
      <path class="cls-2" d="M274.91,5.14c-6.98.92-15.15,3.53-24.55,8.96-25.3,14.6-41.94,39.34-49.94,53.53l9.96,6.05,9.5-4.79,10.5-18.37,8.47-5.76,5.37-7.86s7.28-2.97,15.56-6.36l14.26-9.69,25.26-3.04-24.4-12.66Z"/>
      <path class="cls-1" d="M198.92,68.02l.53-.94c7.77-13.78,24.65-39.1,50.36-53.95,8.66-5,17.06-8.06,24.96-9.1l.35-.05,27.91,14.49-28.57,3.44-14.03,9.54-.2.11c-7.28,2.98-13.78,5.64-15.26,6.24l-5.31,7.76-8.43,5.73-10.54,18.43-10.35,5.22-11.41-6.93ZM229.54,49.74l8.51-5.78,5.45-7.96.31-.13s7.22-2.94,15.45-6.32l14.39-9.78,21.94-2.64-20.88-10.84c-7.51,1.04-15.51,3.99-23.79,8.77-24.68,14.25-41.11,38.41-49,52.17l8.51,5.16,8.65-4.36,10.46-18.3Z"/>
    </g>
    <g>
      <path class="cls-3" d="M293.64,50.64c.51-.22.61-.89.19-1.24-2.28-1.91-8.71-6.84-16.73-9.36-.19-.07-.39-.13-.59-.19-.14-.04-.29-.08-.43-.12-.51-.15-1.03-.28-1.57-.4-.1-.02-.2-.05-.3-.08,0,0-.03,0-.03,0-6.12-1.28-14.08-.62-23.81,5.01-16.28,9.4-27.42,26.77-33.29,37.94-1.92,3.65-2.14,7.25-.92,9.29h0c.04.08.09.14.13.21.82,1.18,5.61,7.59,13.17,7.35.31-.01.59-.22.69-.52l5.04-15.14c.04-.11.1-.21.18-.29l26.66-26.58c.14-.14.34-.22.54-.23,4.96-.06,8.76,1.79,11.23,3.58,2.18,1.57,5.78.14,8.59-3.43h0c.84-1.08,1.52-2.22,2.04-3.38.12-.26.37-.43.66-.43h3.69c.1,0,.2-.02.29-.06l4.54-1.94Z"/>
      <path class="cls-1" d="M215.35,92.29c-.04-.06-.09-.13-.13-.19l-.05-.09c-1.44-2.47-1.08-6.51.92-10.32,6.51-12.39,17.64-29.1,33.72-38.39,8.56-4.94,16.74-6.69,24.3-5.19h.04s.6.13.6.13c.56.13,1.11.27,1.75.45l.34.1c.21.06.41.13.59.19,8.17,2.57,14.69,7.55,17.11,9.57.5.41.74,1.04.64,1.68-.09.64-.51,1.18-1.11,1.44l-4.54,1.94c-.23.1-.48.15-.73.15h-3.44c-.56,1.2-1.26,2.34-2.09,3.39-3.24,4.11-7.4,5.6-10.12,3.64-2.14-1.55-5.67-3.37-10.35-3.37h-.07s-26.5,26.42-26.5,26.42l-5.01,15.05c-.25.74-.93,1.25-1.71,1.28-.15,0-.3,0-.45,0-7.85,0-12.76-6.51-13.71-7.88ZM234.14,83.04c.09-.27.25-.52.45-.72l26.66-26.58c.34-.34.82-.54,1.31-.55,5.45-.04,9.45,2.03,11.9,3.79,1.65,1.19,4.69-.19,7.08-3.23.75-.96,1.39-2.01,1.9-3.14.3-.66.96-1.09,1.68-1.09h3.62s3.9-1.67,3.9-1.67c-2.63-2.13-8.57-6.47-15.89-8.77-.19-.06-.37-.12-.55-.18l-.43-.12c-.49-.14-.98-.27-1.51-.39h0s0,0,0,0l-.29-.06c-7.09-1.48-14.84.16-23.03,4.88-15.62,9.02-26.49,25.36-32.86,37.49-1.89,3.6-1.84,6.72-.95,8.2l.1.14c.81,1.16,5.11,6.88,11.85,6.88.04,0,.08,0,.12,0l4.96-14.91Z"/>
    </g>
    <g>
      <path class="cls-2" d="M261.34,39.76c-3.27.86-6.82,2.3-10.64,4.5-15.85,9.15-26.82,25.85-32.8,37.03l13.12,8.33,3.36-2.75,1.16-3.47c.04-.11.1-.21.18-.29l26.66-26.58c.14-.14.34-.22.54-.23,2.74-.03,5.11.53,7.11,1.33l9.23-7.57-17.91-10.3Z"/>
      <path class="cls-1" d="M216.44,81.68l.49-.91c6.46-12.07,17.47-28.37,33.22-37.47,3.68-2.12,7.35-3.68,10.91-4.61l.44-.12,19.71,11.33-10.99,9.01-.61-.24c-2.09-.84-4.28-1.27-6.55-1.25l-26.5,26.42-1.23,3.69-4.23,3.47-14.67-9.31ZM234.48,83.04c.09-.27.24-.52.45-.72l26.66-26.58c.35-.34.82-.54,1.31-.55,2.37-.02,4.69.37,6.92,1.17l7.48-6.14-16.12-9.27c-3.23.9-6.57,2.33-9.93,4.27-14.91,8.61-25.5,23.97-31.88,35.68l11.56,7.34,2.49-2.04,1.06-3.17Z"/>
    </g>
    <g>
      <path class="cls-3" d="M259.65,72.57c-1.1-.3-2.31-.36-3.61-.18-.03,0-.06,0-.08,0h0c-3.46.52-7.47,2.67-11.67,7.17-4.09,4.39-7.05,9.78-8.34,15.63-1.28,5.76-.68,10.26,1.18,13.12h0s4.04,8.27,17.08,9.37c.39.03.78-.18.96-.54l15.9-31.46,1.94-4.56c.15-.34.09-.73-.16-1.01-1.34-1.55-6.11-6.48-13.18-7.55Z"/>
      <path class="cls-1" d="M254.1,118.8c-11.87-1-16.85-7.77-17.89-9.9l-.03.02c-2.13-3.28-2.6-8.24-1.33-13.97,1.31-5.92,4.29-11.51,8.61-16.15,3.83-4.11,7.88-6.66,11.76-7.41l.07-.14.68.02c1.38-.18,2.69-.11,3.91.2,7.43,1.14,12.43,6.34,13.79,7.91.53.61.66,1.44.34,2.18l-1.97,4.63-15.9,31.46c-.36.7-1.1,1.15-1.87,1.15-.06,0-.11,0-.17,0ZM259.48,73.68l-.12-.03c-.95-.26-1.99-.31-3.1-.16l-.14.02c-3.54.52-7.35,2.88-11.02,6.82-4.05,4.35-6.84,9.58-8.07,15.11-1.14,5.14-.77,9.5,1.09,12.39.16.31,3.96,7.69,16.09,8.74l15.82-31.31,1.9-4.48c-1.32-1.51-5.85-6.11-12.44-7.1Z"/>
    </g>
    <g>
      <path class="cls-2" d="M265.84,81.96c-6.78-4.87-14.85-7.66-15-7.71-2.09,1.17-4.3,2.89-6.55,5.32-4.09,4.39-7.05,9.78-8.34,15.63,2.81,4.06,14.84,11.31,14.88,11.31s4.04-7.41,4.04-7.41c0,0,17.83-12.22,10.98-17.13Z"/>
      <path class="cls-1" d="M235.02,95.83l-.28-.4.1-.47c1.31-5.92,4.29-11.51,8.62-16.15,2.21-2.37,4.51-4.23,6.83-5.53l.43-.24.47.16c.08.03,8.37,2.89,15.29,7.86h0c1.34.97,2.05,2.29,2.03,3.82-.07,5.82-10.73,13.53-12.81,14.98q-4.18,7.76-4.89,7.76c-1.19,0-13.34-8.24-15.8-11.79ZM265.18,82.87c-5.73-4.12-12.44-6.73-14.25-7.39-1.97,1.17-3.94,2.8-5.85,4.85-3.93,4.22-6.68,9.27-7.96,14.62,2.54,3.17,10.44,8.28,13.27,10.02.82-1.49,2.4-4.42,3.47-6.4l.13-.24.22-.15c3.34-2.29,12.01-9.14,12.06-13.32,0-.81-.34-1.44-1.1-1.99h0Z"/>
    </g>
    <g>
      <g>
        <path class="cls-3" d="M211.14,85.62c2.75.55,6.45-2.02,8.72-6.12,6.05-10.91,19.6-31.65,40.55-43.75,20.9-12.07,34.29-6.93,40.27-2.97,2.26,1.5,5.95-.17,8.71-3.88h0c3.51-4.73,4.06-10.73,1.18-12.62-7.75-5.07-24.41-11.14-50.17,3.73-25.75,14.87-42.56,40.26-50.39,54.32-2.9,5.21-2.38,10.59,1.11,11.29h0Z"/>
        <path class="cls-1" d="M210.92,86.71l.22-1.09-.23,1.09c-1.44-.29-2.6-1.23-3.25-2.65-1.21-2.63-.68-6.57,1.39-10.27,7.8-13.99,24.76-39.7,50.81-54.74,26.34-15.2,43.47-8.84,51.33-3.69,1.16.76,1.93,2.03,2.22,3.68.55,3.1-.67,7.23-3.12,10.53-3.15,4.24-7.45,5.98-10.22,4.14-5.89-3.91-18.81-8.71-39.1,3-20.61,11.9-33.99,32.25-40.14,43.33-2.26,4.08-5.89,6.77-8.95,6.77-.33,0-.65-.03-.96-.09ZM301.3,31.85c1.69,1.12,4.86-.46,7.21-3.63,2.1-2.82,3.16-6.28,2.71-8.81-.13-.72-.45-1.68-1.25-2.21-7.44-4.87-23.7-10.85-49,3.76-25.58,14.77-42.29,40.11-49.97,53.89-1.67,3-2.2,6.32-1.31,8.26.36.78.92,1.25,1.59,1.39h.09c2.23.47,5.54-1.98,7.53-5.56,6.25-11.27,19.89-32,40.97-44.18,9.96-5.75,18.27-7.68,24.95-7.68,7.62,0,13.12,2.52,16.49,4.75Z"/>
      </g>
      <g>
        <path class="cls-3" d="M292.45,62.37h0c3.66-4.67,4.41-10.85,1.56-12.89-5.99-4.29-17.33-8.7-33.61.7-16.28,9.4-27.42,26.77-33.29,37.94-2.81,5.36-1.98,10.64,1.73,10.97h0c2.82.25,6.4-2.5,8.53-6.57,4.09-7.82,11.9-20.16,23.03-26.6,11.18-6.45,19.22-3.17,23.45-.12,2.18,1.57,5.78.14,8.59-3.43Z"/>
        <path class="cls-1" d="M228.75,100.19c-1.56-.14-2.85-.99-3.61-2.4-1.37-2.51-.99-6.42,1-10.2,6.51-12.39,17.64-29.1,33.72-38.39,17.21-9.93,29.2-4.66,34.82-.64,1.14.82,1.87,2.15,2.11,3.85.46,3.21-.9,7.38-3.43,10.59l-.03.04c-3.24,4.11-7.4,5.61-10.12,3.64-4.45-3.21-11.92-5.78-22.24.18-11.14,6.43-18.94,19.14-22.6,26.15-2.25,4.31-5.95,7.19-9.16,7.19-.15,0-.3,0-.45-.02ZM284.51,64.89c1.65,1.19,4.69-.19,7.07-3.21h0c2.16-2.76,3.36-6.34,2.99-8.94-.11-.76-.4-1.78-1.2-2.35-6.33-4.54-17.09-8.09-32.41.76-15.61,9.01-26.49,25.36-32.86,37.49-1.84,3.5-1.84,6.59-1.01,8.1.42.76,1.02,1.17,1.85,1.24,2.34.2,5.55-2.36,7.44-5.98,4.61-8.82,12.42-20.67,23.46-27.04,4.92-2.84,9.28-3.85,12.98-3.85,5.3,0,9.27,2.06,11.67,3.8Z"/>
      </g>
      <g>
        <path class="cls-3" d="M245.3,106.85c0,9.78,6.87,13.75,15.34,8.86,8.47-4.89,15.34-16.79,15.34-26.57,0-9.78-6.87-13.75-15.34-8.86-8.47,4.89-15.34,16.79-15.34,26.57Z"/>
        <path class="cls-1" d="M249.23,117.75c-3.26-1.88-5.05-5.75-5.05-10.9,0-10.12,7.13-22.47,15.9-27.54,4.46-2.57,8.71-2.96,11.96-1.07,3.26,1.88,5.05,5.75,5.05,10.9,0,10.12-7.13,22.47-15.9,27.54-2.59,1.5-5.11,2.25-7.41,2.25-1.65,0-3.19-.39-4.55-1.18ZM261.2,81.24c-8.15,4.71-14.79,16.19-14.79,25.61,0,4.32,1.4,7.5,3.94,8.97,2.54,1.47,5.99,1.09,9.74-1.07,8.15-4.71,14.78-16.19,14.78-25.61,0-4.32-1.4-7.5-3.94-8.97-1.01-.59-2.18-.88-3.44-.88-1.9,0-4.05.66-6.29,1.95Z"/>
      </g>
    </g>
    <path class="cls-1" d="M245.3,106.85s-7.24-3.05-10.04-8.86l.68,6.43,1.18,3.9,2.68,3.4,3.99,2.95,3.61,1.62-2.09-5.29v-4.15Z"/>
    <polygon class="cls-1" points="225.44 90.38 216.07 84.56 215.4 88.85 216.17 91.51 218.5 94.28 224.76 97.99 226.63 97.99 225.44 94.04 225.44 90.38"/>
    <polygon class="cls-1" points="208.75 77.21 198.72 71.28 198.1 74.95 198.46 77.21 200.42 80.1 205.37 83.7 208.75 84.99 208.14 80.6 208.75 77.21"/>
  </g>
  <g>
    <g>
      <polygon class="cls-1" points="289.99 263.55 289.99 260.22 279.12 253.33 279.12 256.97 289.99 263.55"/>
      <polygon class="cls-3" points="289.99 263.55 289.99 260.22 313.28 246.52 313.28 250.17 289.99 263.55"/>
      <g>
        <polygon class="cls-3" points="312.7 246.52 290.19 233.51 276.65 241.47 276.7 252.72 289.49 260.22 312.7 246.52"/>
        <polygon class="cls-2" points="310.01 248.11 290.19 236.47 276.65 244.44 276.7 252.72 289.49 260.22 310.01 248.11"/>
        <path class="cls-1" d="M275.96,253.14l1.41.83v3.43s12.61,7,12.61,7l22.96-13.81v-4.78s-22.76-13.16-22.76-13.16l-14.28,8.4.06,12.09ZM311,246.4l-10.46,6.44-10.81,6.38-12.29-7.14-.05-10.18,12.8-7.53,20.81,12.03ZM290.71,262.24v-1.61s10.63-6.55,10.63-6.55l10.12-5.97v1.64s-20.75,12.48-20.75,12.48ZM278.86,254.84l10.37,6.08v1.36s-10.37-5.76-10.37-5.76v-1.69Z"/>
      </g>
    </g>
    <g>
      <path class="cls-3" d="M288.45,225.24c0-1.54-.82-3.61-2.04-4.34h0l-15.53-9.51c-.11-.05-.28-.09-.4-.1-.85-.12-1.73,1.36-1.88,2.4-.13.91.15,1.74.87,2.03h0s12.71,7.37,12.71,7.37c1.5.9,1.86,1.33,1.86,2.59,0,.1,0,.19,0,.28h-.01s-.24,20.92-.24,20.92c0,.05-.02.1-.02.16,0,.97,1,1.75,2.24,1.75s2.23-.68,2.23-1.65c0-.15-.02-.39-.07-.53l.29-21.35Z"/>
      <path class="cls-1" d="M282.98,247.01c0-.08.01-.16.02-.17l.23-20.91.02-.47c-.02-.68-.17-.94-1.47-1.71l-12.6-7.32c-1.01-.39-1.55-1.52-1.36-2.86.12-.87.67-2.08,1.48-2.69.51-.39.97-.41,1.27-.37.18.03.43.08.7.21l15.52,9.51c1.51.91,2.42,3.26,2.42,5.01l-.29,21.25c.05.23.07.49.07.62,0,1.38-1.29,2.43-3,2.43s-3.01-1.13-3.01-2.53ZM286,221.56l-15.45-9.47s-.09-.03-.17-.04c-.25.04-.9.89-1.02,1.74-.06.46,0,1.05.49,1.25l12.71,7.37c1.65.99,2.24,1.63,2.24,3.25l-.27,21.35c0,.53.67.97,1.46.97s1.45-.38,1.45-.87c0-.1-.02-.25-.03-.29l-.04-.12.29-21.47c0-1.43-.78-3.14-1.67-3.67Z"/>
    </g>
    <polygon class="cls-3" points="278.12 187.04 228.95 159.91 182.74 186.02 230.36 213.45 278.12 187.04"/>
    <polygon class="cls-2" points="278.12 192.96 228.95 165.84 182.74 191.95 230.36 219.38 278.12 192.96"/>
    <g>
      <polygon class="cls-3" points="208.46 258.35 83.31 186.33 106.86 142.12 230.36 213.45 208.46 258.35"/>
      <path class="cls-1" d="M82.32,186.61l24.25-45.52,124.16,71.72.6.35-22.56,46.24-126.45-72.78ZM107.16,143.14l-22.85,42.9,123.83,71.27,21.26-43.57-122.24-70.61Z"/>
    </g>
    <polygon class="cls-1" points="209.26 258.35 209.26 308.13 85.26 236.96 85.83 187.04 209.26 258.35"/>
    <g>
      <polygon class="cls-3" points="231.27 213.45 209.26 258.35 209.26 308.13 279.12 268.29 279.12 187.04 231.27 213.45"/>
      <path class="cls-1" d="M208.45,308.98l70.4-40.26v-82.12s-49.91-27.54-49.91-27.54l-47.7,26.96,48.15,27.73-21.25,43.57-123.64-71.56-.39,51.63,124.34,71.59ZM85.97,188.31l121.75,70.46v48.06s-122.11-70.31-122.11-70.31l.36-48.22ZM276.58,187.04l-46.21,25.56-46.13-26.57,44.72-25.27,47.63,26.28ZM209.2,306.85v-48.32s21.73-44.54,21.73-44.54l46.45-25.69v79.57s-68.18,38.99-68.18,38.99Z"/>
    </g>
    <path class="cls-1" d="M200.52,247.76l2.99-5.94h0s14.72-29.28,14.72-29.28l-23.28-13.36-18.37,34.58h0s23.94,14.01,23.94,14.01ZM179.02,233.46l1.65-1,2.07-1.25,18.82,11.18-1.66,3.3-15.93-9.32-4.95-2.9ZM193.98,221.57l-1.69,3.36-3.76-2.12,1.95-3.62,3.29,1.89.22.49ZM182.19,229.82l-1.34.81-1.36.82,16.06-30.23,1.49.86-14.85,27.74ZM215.92,213.83l-4.8-2.75-2.5,4.65-4.57-2.62-2.51,4.65-4.57-2.62-2.51,4.65-3.99-2.29,7.85-14.66,17.96,10.31-.36.71ZM195.75,220.5l1.8-3.34,3.29,1.89.22.49-1.69,3.36-3.43-1.93-.19-.46ZM202.83,218.48l1.8-3.34,3.29,1.89.22.49-1.69,3.36-3.43-1.93-.19-.46ZM209.91,216.46l1.8-3.34,3.55,2.04-1.83,3.64-3.33-1.88-.19-.46ZM202.23,241.06l-18.5-10.99,3.4-6.35,5.78,3.26,2.35-4.68,4.72,2.66,2.35-4.68,4.72,2.66,2.35-4.68,3.33,1.88-10.53,20.94Z"/>
    <path class="cls-1" d="M117.34,200.61l2.99-5.94h0s14.72-29.28,14.72-29.28l-23.28-13.36-18.37,34.58h0s23.94,14.01,23.94,14.01ZM95.84,186.31l1.65-1,2.08-1.25,18.82,11.18-1.66,3.3-15.93-9.32-4.95-2.9ZM110.79,174.42l-1.69,3.36-3.76-2.12,1.95-3.62,3.29,1.89.22.49ZM99,182.67l-1.34.81-1.36.82,16.06-30.23,1.49.86-14.85,27.74ZM132.74,166.68l-4.8-2.75-2.5,4.65-4.57-2.62-2.51,4.65-4.57-2.62-2.51,4.65-3.99-2.29,7.85-14.66,17.96,10.31-.36.71ZM112.57,173.36l1.8-3.34,3.29,1.89.22.49-1.69,3.36-3.43-1.93-.19-.46ZM119.64,171.33l1.8-3.34,3.29,1.89.22.49-1.69,3.36-3.43-1.93-.19-.46ZM126.72,169.31l1.8-3.34,3.55,2.04-1.83,3.64-3.33-1.88-.19-.46ZM119.05,193.91l-18.5-10.99,3.4-6.35,5.78,3.26,2.35-4.68,4.72,2.66,2.35-4.68,4.72,2.66,2.35-4.68,3.33,1.88-10.53,20.94Z"/>
    <path class="cls-1" d="M145.07,216.32l2.99-5.94h0s14.72-29.28,14.72-29.28l-23.28-13.36-18.37,34.58h0s0,0,0,0l23.94,14.01ZM123.57,202.03l1.65-1,2.07-1.25,18.82,11.18-1.66,3.3-15.93-9.32-4.95-2.9ZM138.52,190.13l-1.69,3.36-3.76-2.12,1.95-3.62,3.29,1.89.22.49ZM126.73,198.38l-1.34.81-1.36.82,16.06-30.23,1.49.86-14.85,27.74ZM160.47,182.39l-4.8-2.75-2.5,4.65-4.57-2.62-2.51,4.65-4.57-2.62-2.51,4.65-3.99-2.29,7.85-14.66,17.96,10.31-.36.71ZM140.3,189.07l1.8-3.34,3.29,1.89.22.49-1.69,3.36-3.43-1.93-.19-.46ZM147.37,187.05l1.8-3.34,3.29,1.89.22.49-1.69,3.36-3.43-1.93-.19-.46ZM154.45,185.03l1.8-3.34,3.55,2.04-1.83,3.64-3.33-1.88-.19-.46ZM146.78,209.63l-18.5-10.99,3.4-6.35,5.78,3.26,2.35-4.68,4.72,2.66,2.35-4.68,4.72,2.66,2.35-4.68,3.33,1.88-10.53,20.94Z"/>
    <path class="cls-1" d="M172.8,232.04l2.99-5.94h0s14.72-29.28,14.72-29.28l-23.28-13.36-18.37,34.58h0s0,0,0,0l23.94,14.01ZM151.3,217.74l1.65-1,2.07-1.25,18.82,11.18-1.66,3.3-15.93-9.32-4.95-2.9ZM166.25,205.85l-1.69,3.36-3.76-2.12,1.95-3.62,3.29,1.89.22.49ZM154.46,214.1l-1.34.81-1.36.82,16.06-30.23,1.49.86-14.85,27.74ZM188.2,198.11l-4.8-2.75-2.5,4.65-4.57-2.62-2.51,4.65-4.57-2.62-2.51,4.65-3.99-2.29,7.85-14.66,17.96,10.31-.36.71ZM168.03,204.78l1.8-3.34,3.29,1.89.22.49-1.69,3.36-3.43-1.93-.19-.46ZM175.1,202.76l1.8-3.34,3.29,1.89.22.49-1.69,3.36-3.43-1.93-.19-.46ZM182.18,200.74l1.8-3.34,3.55,2.04-1.83,3.64-3.33-1.88-.19-.46ZM174.51,225.34l-18.5-10.99,3.4-6.35,5.78,3.26,2.35-4.68,4.72,2.66,2.35-4.68,4.72,2.66,2.35-4.68,3.33,1.88-10.53,20.94Z"/>
    <g>
      <polygon class="cls-2" points="276.02 205.57 219.65 237.63 211.74 253.33 276.02 216.54 276.02 205.57"/>
      <path class="cls-1" d="M220.08,233.65l59.05-33.81v12.69s-67.64,38.65-67.64,38.65l8.59-17.53ZM277.57,202.4l-56.41,32.31-6.27,12.8,62.68-35.84v-9.27Z"/>
    </g>
    <g>
      <polygon class="cls-3" points="208.25 116.78 153.15 85.04 106.95 111.15 161.5 143.2 208.25 116.78"/>
      <polygon class="cls-2" points="208.25 121.23 153.15 89.48 106.95 115.6 161.5 147.65 208.25 121.23"/>
      <polygon class="cls-3" points="208.25 116.78 228.95 159.91 182.74 186.02 161.5 143.2 208.25 116.78"/>
      <g>
        <polygon class="cls-1" points="182.55 185.84 161.5 143.2 106.95 111.15 106.86 142.12 182.55 185.84"/>
        <path class="cls-1" d="M106.12,142.54l76.69,44.29,47.11-26.62-21.1-43.95-55.66-32.07-46.95,26.53-.08,31.82ZM206.75,116.78l-45.25,25.57-53.08-31.18,44.72-25.27,53.6,30.89ZM227.98,159.6l-44.92,25.39-20.59-41.49,45.45-25.68,20.06,41.78ZM180.81,183.97l-73.2-42.28.08-29.25,53.25,31.28,19.87,40.24Z"/>
      </g>
      <polygon class="cls-1" points="173.43 136.46 195.22 148.7 195.31 180.86 193.67 179.84 173.43 136.46"/>
      <polygon class="cls-3" points="195.22 148.7 215.68 136.76 194.48 124.57 173.43 136.46 195.22 148.7"/>
      <polygon class="cls-2" points="195.28 153.15 215.71 141.21 194.49 129.01 176.75 139.03 195.28 148.7 195.28 153.15"/>
      <g>
        <polygon class="cls-3" points="217.02 136.76 217.02 170.23 195.28 181.59 195.28 148.7 217.02 136.76"/>
        <path class="cls-1" d="M193.09,180.36l1.28.8,1.44.9.23.14v-.27s20.56-11.26,20.56-11.26v-34.23s-22.13-12.73-22.13-12.73l-22.01,12.44,20.63,44.21ZM202.35,143.68l-7.18,4.13-12.83-7.2-7.4-4.16,19.54-11.04,19.73,11.35-11.85,6.92ZM196.05,180.24l-.08-31.12,7.1-4.15,12.06-6.94v31.75s-19.08,10.45-19.08,10.45ZM184.07,143.29l10.3,5.78v30.33s-.12-.08-.12-.08l-19.18-41.1,9,5.06Z"/>
      </g>
      <g>
        <path class="cls-1" d="M196.84,152.51l15.53-7.73v28.15s-15.53,8.12-15.53,8.12v-28.54ZM210.81,147.22l-12.42,6.19v25.14s12.42-6.5,12.42-6.5v-24.83Z"/>
        <g>
          <polygon class="cls-2" points="206.15 154.51 206.15 164.68 198.39 168.36 198.39 158.21 206.15 154.51"/>
          <path class="cls-1" d="M199.94,154.78l9.32-4.44v11.82s-9.32,4.42-9.32,4.42v-11.81ZM207.7,152.74l-6.21,2.96v8.5s6.21-2.95,6.21-2.95v-8.51Z"/>
        </g>
      </g>
    </g>
    <path class="cls-1" d="M224.78,251.46l38.81-22.87v47.88s-38.81,22.79-38.81,22.79v-47.8ZM262.04,231.19l-35.71,21.11v44.35s35.71-21.04,35.71-21.04v-44.43Z"/>
    <g>
      <polygon class="cls-1" points="260.49 232.33 260.49 273.89 263.6 276.04 263.6 229.89 260.49 232.33"/>
      <path class="cls-1" d="M258.94,274.27v-42.29s4.66-3.66,4.66-3.66v48.14s-4.66-2.2-4.66-2.2ZM260.49,232.68v40.84s1.55,1.08,1.55,1.08v-43.13s-1.55,1.22-1.55,1.22Z"/>
    </g>
    <path class="cls-1" d="M224.78,293.05l34.43-20.01,5.73,2.96-40.16,23.86v-6.82ZM259.3,274.74l-32.96,19.16v3.35s35.64-21.17,35.64-21.17l-2.68-1.34Z"/>
    <g>
      <polygon class="cls-3" points="263.12 229.62 263.13 237.54 226.24 259.62 226.24 251.88 263.12 229.62"/>
      <polygon class="cls-2" points="261.06 233.76 261.07 239.34 226.24 259.77 226.24 254.86 261.06 233.76"/>
      <path class="cls-1" d="M225.5,251.46l38.35-23.15.02,9.65-38.37,22.97v-9.47ZM262.38,230.93l-35.39,21.37v6.02s35.4-21.2,35.4-21.2v-6.19Z"/>
    </g>
    <polygon class="cls-3" points="127.83 262.14 133.97 252.27 48.47 202.97 41.86 211.99 127.83 262.14"/>
    <polygon class="cls-3" points="128.09 305.53 166.19 284.04 165.73 234.18 133.97 252.27 127.83 262.14 128.09 305.53"/>
    <g>
      <g>
        <polygon class="cls-3" points="190.43 106.22 190.54 94.6 162.68 110.12 162.68 122.38 190.43 106.22"/>
        <polygon class="cls-1" points="162.68 110.12 137.84 94.6 137.84 107.16 162.68 122.38 162.68 110.12"/>
        <g>
          <polygon class="cls-3" points="190.68 94.6 163.42 78.57 136.15 94.6 162.87 110.12 190.68 94.6"/>
          <polygon class="cls-2" points="190.59 97.56 163.37 81.53 139.11 95.74 162.68 110.12 162.68 113.08 190.59 97.56"/>
          <path class="cls-1" d="M136.57,107.58l25.93,15.66,28.58-16.59.07-12.63-27.74-16.31-26.66,15.68-.18-.11v.22s-1.89,1.11-1.89,1.11l1.89,1.1v11.88ZM189.06,94.51l-26.36,14.66-5.76-3.34-18.76-11.55,25.24-14.84,25.64,15.08ZM163.25,121.09v-10.34s26.41-14.74,26.41-14.74l-.06,9.78-26.36,15.3ZM138.05,106.74v-10.18s18.13,10.52,18.13,10.52l5.59,3.44v10.54s-23.71-14.32-23.71-14.32Z"/>
        </g>
        <g>
          <g>
            <path class="cls-3" d="M161.71,92.57c-2.18.24-3.04,1.21-3.04,2.51,0,.16-.05,0,0,.16l-6.54,3.18c-.66-.94-1.02-1.97-1.02-3.06,0-4.05,5.02-7.36,11.38-7.65l-.78,4.87Z"/>
            <path class="cls-1" d="M151.53,97.36c-.77-1.1-1.15-2.27-1.15-3.49,0-4.47,5.2-8.07,12.09-8.39l.92-.04-.99,6.32-.52.06c-2.38.27-2.3,1.36-2.3,1.78v.05l.08.5-7.76,3.74-.36-.52ZM161.07,90.43l.54-3.41c-5.54.53-9.76,3.44-9.76,6.85,0,.72.19,1.42.56,2.11l5.53-2.69c.09-1,.67-2.41,3.12-2.86Z"/>
          </g>
          <g>
            <path class="cls-3" d="M160.58,97.22c.87.53,1.46.54,2.83.54,1.28,0,1.96-.07,2.81-.54l6.81,2.91c-2.25,1.77-5.72,2.9-9.62,2.9-4.17,0-7.84-1.3-10.07-3.28l7.24-2.54Z"/>
            <path class="cls-1" d="M152.85,98.84l-.94-.84,8.76-3.07.3.18c.68.41,1.1.43,2.45.43,1.23,0,1.76-.07,2.46-.45l.32-.17,8.29,3.55-.98.77c-2.48,1.95-6.15,3.06-10.08,3.06-4.18,0-8.12-1.29-10.56-3.46ZM166.26,96.56c-.84.39-1.6.46-2.84.46s-1.98,0-2.9-.47l-5.63,1.98c2.19,1.45,5.27,2.29,8.53,2.29,3.06,0,5.93-.72,8.09-2.01l-5.25-2.25Z"/>
          </g>
          <g>
            <path class="cls-3" d="M168.16,95.08c.08-.2,0,.21,0,0,0-1.3-.89-2.85-3.06-3.09l-.75-4.28c6.36.3,11.38,3.61,11.38,7.65,0,1.25-.49,2.44-1.35,3.48l-6.22-3.76Z"/>
            <path class="cls-1" d="M167.99,94.39l-.65-.12v-.25s-.15-.11-.15-.11l.22-.44c-.06-.94-.71-2.03-2.4-2.22l-.55-.06-1.01-5.74.92.04c6.89.32,12.08,3.93,12.08,8.39,0,1.37-.52,2.74-1.51,3.95l-.41.5-6.55-3.94ZM165.73,89.86c1.9.42,2.89,1.8,3.12,3.15l.16.24,5.16,3.12c.53-.8.8-1.64.8-2.5,0-3.41-4.21-6.32-9.74-6.85l.5,2.83Z"/>
          </g>
        </g>
        <g>
          <path class="cls-3" d="M158.64,93.6c0,1.48,2.12,2.68,4.74,2.68s4.74-1.2,4.74-2.68c0-1.08-1.25-3.89-2.89-4.31-.6-.16-1.15,1.63-1.86,1.63s-1.21-1.81-1.83-1.64c-1.59.43-2.91,3.26-2.91,4.32Z"/>
          <path class="cls-1" d="M157.9,93.6c0-1.37,1.49-4.5,3.46-5.04.81-.22,1.32.52,1.68,1.06.09.14.23.35.34.48.12-.13.26-.34.36-.48.37-.53.89-1.25,1.68-1.05,2.1.55,3.44,3.8,3.44,5.03,0,1.92-2.41,3.43-5.48,3.43-3.08,0-5.48-1.5-5.48-3.43ZM164.95,90.47c-.37.53-.84,1.18-1.57,1.18s-1.21-.67-1.58-1.21c-.08-.12-.18-.27-.26-.38-1.12.53-2.16,2.79-2.16,3.53,0,.92,1.64,1.94,4,1.94,2.36,0,4-1.02,4-1.94,0-.79-.99-3.02-2.13-3.53-.09.11-.21.28-.3.4Z"/>
        </g>
        <g>
          <path class="cls-2" d="M160.09,90.83c0,1.03,1.48,1.86,3.29,1.86s3.29-.83,3.29-1.86c0-1.03-1.48-1.86-3.29-1.86s-3.29.83-3.29,1.86Z"/>
          <path class="cls-1" d="M159.35,90.83c0-1.46,1.77-2.61,4.04-2.61,2.3,0,4.04,1.12,4.04,2.61,0,1.49-1.74,2.61-4.04,2.61s-4.04-1.14-4.04-2.61ZM160.83,90.83c0,.45,1.02,1.12,2.55,1.12,1.53,0,2.55-.68,2.55-1.12,0-.45-1.02-1.12-2.55-1.12s-2.55.68-2.55,1.12Z"/>
        </g>
      </g>
      <polygon class="cls-1" points="163.38 92.69 163.38 96.28 159.38 95.38 158.37 93.43 160.09 90.83 161.71 92.57 163.38 92.69"/>
    </g>
    <g>
      <path class="cls-1" d="M184.42,185.91c0,.67.66,1.16,1.58,1.16s1.58-.49,1.58-1.16v-7.8s40.52,22.98,40.52,22.98v9.51c0,.67.66,1.16,1.58,1.16.91,0,1.58-.49,1.58-1.16v-9.63s39.76-22.91,39.76-22.91v8.55c0,.67.66,1.16,1.58,1.16s1.58-.49,1.58-1.16v-16.23s-.03-.08-.03-.13c0-.16.02-.32-.01-.45-.08-.27-.24-.49-.47-.61l-.2-.11c-.28-.32-44.4-25.18-44.4-25.18-.57-.32-1.3,0-1.75.76-.05.08-.09.16-.12.25-.21.47-.07,16.52-.07,16.52,0,.67.66,1.16,1.58,1.16s1.58-.49,1.58-1.16v-8.37s34.63,19.64,34.63,19.64l-34.96,20.15-43.55-24.7c-.59-.33-1.34.01-1.79.8-.17.3-.26.61-.28.9-.01.23.12,16.05.12,16.05ZM268.04,170.88l-37.8-21.44v-1.23s38.87,22.05,38.87,22.05l-1.07.62ZM269.47,175.31l-38.22,22.02v-1.61s36.81-21.21,36.81-21.21l1.41.8ZM228.09,197.46l-40.52-22.98v-2.02s40.44,22.94,40.44,22.94c.03.06.04.13.07.19v1.87Z"/>
      <polygon class="cls-3" points="194.54 172.79 194.54 176.32 192.13 175.05 190.17 170.31 194.54 172.79"/>
      <polygon class="cls-3" points="194.54 178.55 194.54 180.67 193.42 180.08 192.62 177.52 194.54 178.55"/>
    </g>
    <g>
      <polygon class="cls-1" points="128.2 262.14 128.66 306.26 44.69 256.5 44.69 211.99 128.2 262.14"/>
      <path class="cls-1" d="M128.1,307.11l-84.57-49.97-.39-.22v-46.24s85.04,50.82,85.04,50.82l.39.21.19,45.01-.66.39ZM44.69,213.3v42.78s82.67,48.87,82.67,48.87l-.26-42.39-82.41-49.26Z"/>
    </g>
    <g>
      <polygon class="cls-3" points="48.47 202.97 80.13 184.48 165.73 234.18 133.97 252.27 48.47 202.97"/>
      <polygon class="cls-2" points="48.47 208.9 80.13 190.41 165.73 240.11 133.97 258.2 48.47 208.9"/>
      <path class="cls-1" d="M41.64,212.72l85.45,49.85.26,42.38,1.41,1.77,38.18-22.26-.47-50.72-86.33-50.12-32.17,18.78-6.25,8.25-.07,2.07ZM42.95,211.77l5.73-7.82,84.26,48.58-5.36,8.61-84.63-49.37ZM157.07,238.25l-23.1,13.16-84.03-48.45,30.18-17.62,84.11,48.83-7.17,4.08ZM128.83,304.97l-.26-42.62,5.93-9.53,22.59-12.87,7.9-4.5.45,48.17-36.61,21.35Z"/>
    </g>
    <path class="cls-1" d="M41.58,256.07v-45.41s14,8.71,14,8.71l-.15,44.76-13.84-8.05Z"/>
    <path class="cls-3" d="M96.55,266.4l12.19,6.89,5.6-3.38v-11.41s-12.04-6.97-12.04-6.97l-5.74,3.04v11.84ZM112.31,258.6l-3.55,1.99-10.16-5.85,3.68-1.95,10.03,5.81ZM109.5,271.1l.03-9.24,3.33-1.86v9.08s-3.35,2.03-3.35,2.03ZM98.04,256.12l9.94,5.73-.02,9.3-9.92-5.61v-9.41Z"/>
    <g>
      <path class="cls-3" d="M61.96,273.53c0-1.64.88-3.83,2.19-4.61h0l16.69-10.1c.11-.06.3-.09.43-.11.91-.13,2.07,1.44,2.23,2.55.14.97.04,1.85-.73,2.15h0s-13.87,7.82-13.87,7.82c-1.61.95-2.1,1.41-2.1,2.74,0,.11-.05.2-.05.3h-.01s.24,22.2.24,22.2c0,.06.02.11.02.17,0,1.03-1.08,1.86-2.41,1.86s-2.4-.73-2.4-1.75c0-.16.03-.41.07-.56l-.31-22.66Z"/>
      <path class="cls-1" d="M61.21,296.75c0-.14-.23-.41-.18-.65l-.81-22.56h0c0-1.84,1.46-4.31,3.05-5.25l17.26-10.14c.22-.11.51-.16.65-.18,1.46-.21,2.87,1.79,3.06,3.18.27,1.94-.5,2.67-1.1,2.9l-13.85,7.81c-1.6.95-1.74,1.2-1.74,2.11,0,.14-.03.26-.05.3v.35s.23,21.78.23,21.78l.02.24c0,1.43-1.41,2.6-3.15,2.6s-3.39-1.07-3.39-2.49ZM68.54,270.59l13.96-7.87c.36-.14.34-.81.27-1.36-.13-.92-1.12-1.98-1.39-1.92-.1.01-.19.03-.15,0l-16.7,10.1c-.97.58-1.83,2.43-1.83,3.97l.31,22.66-.04.24s-.04.21-.04.33c0,.57.73,1.01,1.66,1.01s1.66-.51,1.66-1.11l-.02-.17-.24-22.2v-.57s.07-.02.07-.02c.08-1.53.88-2.17,2.47-3.11Z"/>
    </g>
    <g>
      <path class="cls-3" d="M53.06,267.6c0-1.64.88-3.83,2.19-4.61h0l16.69-10.1c.11-.06.3-.09.43-.11.91-.13,2.07,1.44,2.23,2.55.14.97.04,1.85-.73,2.15h0s-13.87,7.82-13.87,7.82c-1.61.95-2.1,1.41-2.1,2.74,0,.11-.05.2-.05.3h-.01s.24,22.2.24,22.2c0,.06.02.11.02.17,0,1.03-1.08,1.86-2.41,1.86-1.33,0-2.4-.73-2.4-1.75,0-.16.03-.41.07-.56l-.31-22.66Z"/>
      <path class="cls-1" d="M52.6,290.82c0-.14.05-.41.1-.65l-.25-22.56h0c0-1.84.89-4.31,2.49-5.25l16.69-10.14c.22-.11.51-.16.65-.18,1.46-.21,2.87,1.79,3.06,3.18.27,1.94-.5,2.67-1.1,2.9l-13.85,7.81c-1.6.95-1.74,1.2-1.74,2.11,0,.14-.03.26-.05.3v.35s.23,21.78.23,21.78l.02.24c0,1.43-1.41,2.6-3.15,2.6s-3.11-1.07-3.11-2.49ZM59.65,264.66l13.96-7.87c.36-.14.34-.81.27-1.36-.13-.92-1.12-1.98-1.39-1.92-.1.01-.19.03-.15,0l-16.7,10.1c-.97.58-1.83,2.43-1.83,3.97l.31,22.66-.04.24s-.04.21-.04.33c0,.57.73,1.01,1.66,1.01.9,0,1.66-.51,1.66-1.11l-.02-.17-.24-22.2v-.57s.07-.02.07-.02c.08-1.53.88-2.17,2.47-3.11Z"/>
    </g>
    <g>
      <path class="cls-1" d="M56.17,158.53c.81,0,1.45.8,1.45,1.83v41.02c0,1.02-.64,1.83-1.45,1.83s-1.45-.8-1.45-1.83v-41.02c0-1.02.64-1.83,1.45-1.83Z"/>
      <g>
        <path class="cls-2" d="M54,192.77v-26.81s-7.76,1.99-7.76,8.69c0,6.7,0,21.95,0,21.95l7.76-3.84Z"/>
        <path class="cls-1" d="M47.79,171.69c0-7.19,8.09-9.39,8.17-9.41l1.14-.25v28.22s-9.32,4.61-9.32,4.61v-23.17ZM55.56,164.05c-3.11.77-6.21,2.96-6.21,7.64v20.73s6.21-3.07,6.21-3.07v-25.31Z"/>
      </g>
    </g>
    <g>
      <g>
        <g>
          <path class="cls-3" d="M73.33,48.47l21,.12,7,155.87c0,.07.02.57.02.64,0,.02,0,.39,0,.39h0-.01c-.14,6.21-8.17,10.8-18.08,10.8-9.99,0-18.09-5.22-18.09-11.46l8.17-156.36Z"/>
          <path class="cls-1" d="M64.43,204.79l8.16-156.35.04-.7,22.41.15,7.03,156.61c0,.07.02.52.02.59,0,.09,0-1.15-.02.4h0c-.15,6.21-8.6,11.53-18.82,11.53s-18.83-5.51-18.83-12.23ZM100.59,204.49l-6.96-155.16-19.59-.11-8.13,155.54c0,5.87,7.78,10.65,17.35,10.65,9.26,0,17.2-4.68,17.34-10.23v-.28c0-.12,0-.35,0-.4Z"/>
        </g>
        <g>
          <path class="cls-3" d="M71.67,82.84l1.66-33.18,21-.41,1.57,31.78c0,4.18-5.43,7.4-12.12,7.4-6.69,0-12.12-2.16-12.12-6.34,0-.16.02.75.04.75h-.04Z"/>
          <path class="cls-1" d="M71.06,82.84h-.17l.05-.86c0-.09,0-.15,0-.25l1.7-33.15,22.41-.26,1.61,32.6c0,4.59-5.65,8.17-12.86,8.17-6.99,0-11.89-1.6-12.73-6.25ZM74.04,50.05l-1.61,31.83v.16s0,0,0,0c.28,3.31,4.87,5.6,11.36,5.6,6.27,0,11.38-3.01,11.38-6.67l-1.54-31.15-19.59.23Z"/>
        </g>
        <g>
          <path class="cls-3" d="M73.33,48.34c0,3.61,4.68,6.53,10.46,6.53,5.78,0,10.46-2.92,10.46-6.53s-4.68-6.53-10.46-6.53c-5.78,0-10.46,2.92-10.46,6.53Z"/>
          <path class="cls-1" d="M72.59,48.34c0-4.08,4.92-7.27,11.2-7.27,6.28,0,11.2,3.19,11.2,7.27,0,4.08-4.92,7.27-11.2,7.27s-11.2-3.19-11.2-7.27ZM74.07,48.34c0,3.19,4.36,5.79,9.72,5.79,5.36,0,9.72-2.6,9.72-5.79,0-3.19-4.36-5.79-9.72-5.79-5.36,0-9.72,2.6-9.72,5.79Z"/>
        </g>
        <g>
          <ellipse class="cls-3" cx="83.79" cy="48.07" rx="7.29" ry="4.3"/>
          <path class="cls-2" d="M76.5,49.56c0,2.37,3.26,4.3,7.29,4.3,4.03,0,7.29-1.93,7.29-4.3,0-2.38-3.26-4.3-7.29-4.3-4.03,0-7.29,1.93-7.29,4.3Z"/>
          <path class="cls-1" d="M75.76,48.07c0-2.83,3.53-5.04,8.03-5.04,4.5,0,8.03,2.21,8.03,5.04,0,2.83-3.53,5.04-8.03,5.04-4.5,0-8.03-2.21-8.03-5.04ZM77.24,48.07c0,1.93,3,3.56,6.55,3.56s6.55-1.63,6.55-3.56c0-1.93-3-3.56-6.55-3.56s-6.55,1.63-6.55,3.56Z"/>
        </g>
      </g>
      <polygon class="cls-1" points="85.7 43.93 85.7 52.22 89.64 50.67 91.08 48.07 90.34 46.19 88.39 44.74 85.7 43.93"/>
      <polygon class="cls-1" points="85.7 54.87 85.7 88.43 79.88 88.1 75.06 86.49 71.67 82.91 73.33 49.69 75.76 52.53 80.25 54.62 85.7 54.87"/>
      <polygon class="cls-1" points="85.7 88.43 85.88 216.39 80.74 216.39 73.6 214.67 69.07 212.03 66.03 208.17 65.17 204.93 71.47 84.23 72.59 84.82 76.17 87.32 79.88 88.1 84.42 88.34 85.7 88.43"/>
      <path class="cls-3" d="M72.42,82.05h-.01c.28,3.31,4.87,5.6,11.36,5.6.25,0,.49-.03.74-.04v1.48c-.25.01-.49.04-.74.04-5.49,0-9.68-1.1-11.64-3.73l.28-3.52v.16Z"/>
    </g>
    <g>
      <g>
        <g>
          <g>
            <path class="cls-3" d="M117.8,73.66l21,.12,7,155.87c0,.07.02,1.17.02,1.24,0,.02,0,.99,0,.99h0-.01c-.14,4.66-8.17,10.2-18.08,10.2-9.99,0-18.09-5.52-18.09-11.76l8.17-156.66Z"/>
            <path class="cls-1" d="M108.89,230.3l8.16-156.63.04-.66,22.41.22,7.03,156.76c0,.07.02.82.02.89,0,.09,0-.56-.02,1h0c-.15,4.66-8.6,10.94-18.82,10.94-10.38,0-18.83-5.79-18.83-12.52ZM145.06,229.68l-6.96-155.16-19.59-.11-8.13,155.54c0,5.87,7.78,10.65,17.35,10.65,9.26,0,17.2-4.68,17.34-10.23v-.28c0-.12,0-.35,0-.4Z"/>
          </g>
          <g>
            <path class="cls-3" d="M116.14,107.68l1.66-33.01,21-.32,1.57,31.83c0,4.18-5.43,7.43-12.12,7.43-6.69,0-12.12-2.33-12.12-6.51,0-.16.02.58.04.58h-.04Z"/>
            <path class="cls-1" d="M115.53,107.68h-.17l.05-.69c0-.09,0,.02,0-.07l1.7-33.16,22.41-.29,1.61,32.56c0,4.59-5.65,8.08-12.86,8.08-6.99,0-11.89-1.77-12.73-6.43ZM118.5,75.25l-1.61,31.83v.16s0,0,0,0c.28,3.31,4.87,5.6,11.37,5.6,6.27,0,11.38-3.01,11.38-6.67l-1.54-31.15-19.59.23Z"/>
          </g>
          <g>
            <path class="cls-3" d="M117.8,73.54c0,3.61,4.68,6.53,10.46,6.53,5.78,0,10.46-2.92,10.46-6.53s-4.68-6.53-10.46-6.53c-5.78,0-10.46,2.92-10.46,6.53Z"/>
            <path class="cls-1" d="M117.06,73.54c0-4.08,4.92-7.27,11.2-7.27,6.28,0,11.2,3.19,11.2,7.27s-4.92,7.27-11.2,7.27c-6.28,0-11.2-3.19-11.2-7.27ZM118.54,73.54c0,3.19,4.36,5.79,9.72,5.79,5.36,0,9.72-2.6,9.72-5.79,0-3.19-4.36-5.79-9.72-5.79-5.36,0-9.72,2.6-9.72,5.79Z"/>
          </g>
          <g>
            <path class="cls-3" d="M120.97,73.27c0,2.38,3.26,4.3,7.29,4.3,4.03,0,7.29-1.93,7.29-4.3s-3.26-4.3-7.29-4.3c-4.03,0-7.29,1.93-7.29,4.3Z"/>
            <ellipse class="cls-2" cx="128.26" cy="74.75" rx="7.29" ry="4.3"/>
            <path class="cls-1" d="M120.23,73.27c0-2.83,3.53-5.04,8.03-5.04,4.5,0,8.03,2.21,8.03,5.04s-3.53,5.04-8.03,5.04c-4.5,0-8.03-2.21-8.03-5.04ZM121.71,73.27c0,1.93,3,3.56,6.55,3.56,3.55,0,6.55-1.63,6.55-3.56s-3-3.56-6.55-3.56c-3.55,0-6.55,1.63-6.55,3.56Z"/>
          </g>
        </g>
        <polygon class="cls-1" points="130.16 69.12 130.16 77.42 134.1 75.87 135.55 73.27 134.8 71.39 132.85 69.93 130.16 69.12"/>
        <polygon class="cls-1" points="130.16 80.07 130.16 113.63 124.34 113.29 119.53 111.69 116.14 108.11 117.8 74.88 120.23 77.72 124.71 79.82 130.16 80.07"/>
        <polygon class="cls-1" points="130.16 113.63 130.35 241.58 125.2 241.58 118.06 239.87 113.53 237.23 110.49 233.37 109.63 230.13 115.93 109.43 117.06 110.02 120.64 112.52 124.34 113.29 128.88 113.54 130.16 113.63"/>
        <path class="cls-3" d="M116.89,107.24h-.01c.28,3.31,4.87,5.6,11.36,5.6.25,0,.49-.03.74-.04v1.48c-.25.01-.49.04-.74.04-5.49,0-9.68-1.1-11.64-3.73l.28-3.52v.16Z"/>
      </g>
      <polygon class="cls-3" points="114.84 145.87 116.29 117.5 114.81 116.75 113.28 144.96 114.84 145.87"/>
    </g>
    <g>
      <g>
        <polygon class="cls-3" points="191.41 306.26 190.73 286.79 165.95 300.8 165.78 320.07 191.41 306.26"/>
        <polygon class="cls-1" points="165.95 300.8 142.5 286.79 142.5 306.25 165.82 320.07 165.95 300.8"/>
        <g>
          <polygon class="cls-3" points="190.73 286.79 166.1 272.31 141.48 286.79 165.61 300.8 190.73 286.79"/>
          <polygon class="cls-2" points="190.73 289.75 166.1 275.27 143.94 288.31 165.44 300.5 165.61 303.76 190.73 289.75"/>
          <path class="cls-1" d="M141.02,306.68l24.22,14.23,26.18-14.21v-20.37s-25.31-14.88-25.31-14.88l-25.08,14.75v20.48ZM189.21,286.76l-23.61,13.18-1.84-1.07-20.68-12.16,23.02-13.54,23.11,13.59ZM166.03,318.79l.28-17.53,23.61-13.17v17.73s-23.9,12.97-23.9,12.97ZM142.5,305.83v-17.59s20.45,11.87,20.45,11.87l1.88,1.11-.33,17.54-22.01-12.93Z"/>
        </g>
        <g>
          <g>
            <path class="cls-3" d="M164.57,285.1c-1.97.22-2.74,1.09-2.74,2.27,0,.15-.04,0,0,.15l-5.9,2.87c-.59-.85-.92-1.78-.92-2.77,0-3.66,4.53-6.65,10.28-6.91l-.7,4.39Z"/>
            <path class="cls-1" d="M155.31,289.33c-.7-1.01-1.06-2.08-1.06-3.19,0-4.07,4.72-7.36,10.98-7.65l.91-.04-.93,5.85-.55.06c-2.09.23-2.07,1.18-2.07,1.53l.19.53-.1.08v.09l-.34.04-6.67,3.21-.36-.52ZM163.92,282.96l.47-2.93c-4.92.49-8.66,3.08-8.66,6.1,0,.61.16,1.22.46,1.81l4.9-2.38c.1-.92.64-2.18,2.82-2.59Z"/>
          </g>
          <g>
            <path class="cls-3" d="M163.55,289.3c.78.48,1.32.49,2.56.49,1.16,0,1.77-.07,2.54-.49l6.15,2.63c-2.04,1.6-5.17,2.62-8.69,2.62-3.76,0-7.08-1.17-9.09-2.96l6.54-2.29Z"/>
            <path class="cls-1" d="M156.52,290.67l-.94-.84,8.05-2.83.3.18c.6.36.97.38,2.17.38,1.09,0,1.56-.06,2.19-.4l.32-.17,7.63,3.26-.98.77c-2.25,1.77-5.59,2.78-9.15,2.78-3.79,0-7.37-1.18-9.58-3.15ZM168.67,288.64c-.76.35-1.45.41-2.57.41s-1.79,0-2.63-.42l-4.92,1.73c1.95,1.25,4.67,1.98,7.54,1.98,2.69,0,5.23-.62,7.15-1.74l-4.58-1.96Z"/>
          </g>
          <g>
            <path class="cls-3" d="M170.39,287.37c.08-.18,0,.19,0,0,0-1.18-.8-2.57-2.77-2.79l-.68-3.87c5.74.27,10.28,3.26,10.28,6.91,0,1.13-.44,2.2-1.21,3.14l-5.61-3.39Z"/>
            <path class="cls-1" d="M169.87,286.66l-.98-.11v-.25l.19-.12.56-.44c-.06-.81-.63-1.75-2.1-1.92l-.55-.06-.94-5.33.92.04c6.26.29,10.98,3.58,10.98,7.65,0,1.26-.48,2.51-1.38,3.61l-.41.5-6.3-3.58ZM168.26,282.45c1.69.39,2.6,1.63,2.82,2.85l.17.24,4.56,2.76c.45-.69.67-1.42.67-2.16,0-3.02-3.73-5.6-8.64-6.1l.43,2.42Z"/>
          </g>
        </g>
        <g>
          <path class="cls-3" d="M161.79,285.88c0,1.34,1.92,2.42,4.28,2.42,2.37,0,4.28-1.09,4.28-2.42,0-.98-1.13-3.51-2.61-3.89-.54-.14-1.04,1.47-1.68,1.47s-1.09-1.63-1.66-1.48c-1.44.39-2.63,2.94-2.63,3.9Z"/>
          <path class="cls-1" d="M161.05,285.88c0-1.25,1.37-4.13,3.18-4.62.8-.23,1.28.51,1.6.99.07.1.17.25.25.36.09-.11.19-.26.27-.36.35-.5.83-1.18,1.6-.97,1.93.5,3.16,3.49,3.16,4.61,0,1.77-2.21,3.17-5.03,3.17-2.82,0-5.02-1.39-5.02-3.17ZM167.55,283.1c-.35.49-.78,1.1-1.48,1.1s-1.14-.62-1.48-1.12c-.06-.09-.14-.2-.2-.29-.97.51-1.86,2.46-1.86,3.1,0,.79,1.51,1.68,3.54,1.68,2.03,0,3.54-.89,3.54-1.68,0-.67-.87-2.61-1.84-3.1-.07.09-.16.22-.23.31Z"/>
        </g>
        <g>
          <path class="cls-2" d="M163.1,283.38c0,.93,1.33,1.68,2.98,1.68,1.64,0,2.98-.75,2.98-1.68,0-.93-1.33-1.68-2.98-1.68s-2.98.75-2.98,1.68Z"/>
          <path class="cls-1" d="M162.36,283.38c0-1.38,1.6-2.42,3.72-2.42,2.12,0,3.72,1.04,3.72,2.42,0,1.38-1.6,2.43-3.72,2.43-2.12,0-3.72-1.04-3.72-2.43ZM163.84,283.38c0,.38.89.94,2.23.94s2.23-.57,2.23-.94c0-.33-.85-.94-2.23-.94s-2.23.61-2.23.94Z"/>
        </g>
      </g>
      <polygon class="cls-1" points="166.59 284.91 166.59 288.31 163.55 287.82 161.82 286.03 162.78 283.38 164.2 284.68 166.59 284.91"/>
    </g>
    <g>
      <path class="cls-3" d="M179.11,305.63c0-1.54.83-3.61,2.07-4.35h0l15.74-9.53c.11-.05.29-.09.41-.1.86-.12,1.95,1.36,2.1,2.41.13.91.04,1.75-.69,2.03h0s-13.08,7.38-13.08,7.38c-1.52.9-1.98,1.33-1.98,2.59,0,.1-.05.19-.04.28h-.01s.23,10.77.23,10.77c0,.05.01.1.01.16,0,.97-1.02,1.75-2.27,1.75-1.25,0-2.26-.68-2.26-1.65,0-.15.02-.39.07-.53l-.3-11.2Z"/>
      <path class="cls-1" d="M178.56,317.36c0-.13-.03-.39.03-.62l-.38-11.09v-.02c0-1.74.99-4.08,2.51-4.98l15.88-9.55c.16-.08.37-.14.64-.18,1.42-.21,2.75,1.71,2.94,3.04.26,1.86-.48,2.56-1.06,2.78l-13.06,7.37c-1.49.88-1.62,1.12-1.62,1.95,0,.14-.03.25-.05.28v.27s.21,10.42.21,10.42l.02.24c0,1.38-1.35,2.49-3.01,2.49s-3.04-1.03-3.04-2.39ZM185.3,302.83l13.17-7.42c.31-.12.3-.73.23-1.22-.12-.84-.97-1.76-1.26-1.76h0c-.1,0-15.88,9.77-15.88,9.77-.91.54-1.7,1.99-1.71,3.43l.3,11.19-.04.25c-.01.05-.03.2-.03.3,0,.51.67.91,1.52.91.83,0,1.53-.46,1.53-1l-.02-.15-.23-10.76v-.66s.07-.01.07-.01c.11-1.39.86-1.98,2.34-2.86Z"/>
    </g>
  </g>
</svg>