<?xml version="1.0" encoding="UTF-8"?>
<svg id="Layer_1" data-name="Layer 1" xmlns="http://www.w3.org/2000/svg" viewBox="0 0 355.12 324.53">
  <defs>
    <style>
      .cls-1 {
        fill: #df5127;
      }

      .cls-2 {
        fill: #fff8ef;
      }

      .cls-3 {
        fill: #f9a86a;
      }
    </style>
  </defs>
  <g>
    <polygon class="cls-1" points="298.78 188.6 320.29 185.8 323.93 190.92 326.02 203.55 324.39 208.68 320.29 215.62 315.27 218.41 300.41 220.03 298.78 188.6"/>
    <g>
      <path class="cls-2" d="M172.67,297.8l147.62-85.23-146.27-70.04L26.39,213.58c-2.3,1.33-2.01,3.65.64,5.18l136.65,78.67c2.66,1.53,6.68,1.7,8.98.37Z"/>
      <path class="cls-1" d="M163.11,298.44L26.45,219.77c-1.77-1.02-2.78-2.46-2.78-3.94,0-1.31.76-2.47,2.21-3.3l148.13-71.29,148.78,71.24-149.54,86.34c-1.22.71-2.83,1.05-4.49,1.05-1.96,0-4.02-.48-5.65-1.42ZM317.78,212.67l-143.77-68.84L26.98,214.59c-.36.21-.97.65-.97,1.24s.6,1.34,1.61,1.92l136.65,78.67c2.29,1.32,5.87,1.49,7.81.37l145.7-84.12Z"/>
    </g>
    <g>
      <path class="cls-3" d="M36.41,212.08l-.11-18.38,46.46,5,94.31-54.49,75.71,43.37,59.94,5.84c5.12,13.97.96,15.1.96,15.1l-139.22,80.43c-2.3,1.33-6.32,1.16-8.98-.37l-126.99-72.94c-1.76-1.02-2.09-3.57-2.09-3.57Z"/>
      <path class="cls-1" d="M164.9,289.6l-126.99-72.94c-2.24-1.29-2.65-4.31-2.66-4.43l-.13-19.83,47.38,5.1,94.56-54.63,76.07,43.58,60.42,5.89.25.69c2.66,7.26,3.31,12.31,1.92,15-.52,1-1.2,1.4-1.54,1.55l-139.14,80.39c-1.23.71-2.83,1.05-4.49,1.05-1.96,0-4.02-.48-5.65-1.43ZM252.41,188.73l-75.34-43.16-94.06,54.34-45.54-4.9.1,16.99c.1.6.52,2.08,1.5,2.65l126.99,72.94c2.29,1.32,5.87,1.49,7.81.37l139.22-80.43.18-.08s2.57-1.71-1.41-12.91l-59.46-5.79Z"/>
    </g>
    <path class="cls-1" d="M168.95,289.73c-1.24-.18-2.45-.56-3.46-1.15l-126.99-72.94c-1.76-1.02-2.09-3.57-2.09-3.57l-.11-18.38,46.46,5,30.75-17.76,57.2,24.22-1.75,84.57Z"/>
    <g>
      <path class="cls-3" d="M27.04,218.76l136.65,78.67c2.66,1.53,6.68,1.7,8.98.37l143.42-82.8c2.04-1.18,3.52-3.12,4.07-5.41,1.31-5.49,1.24-10.26-.67-16.34-.5-1.6-2.29-2.41-3.74-1.57l-143.32,82.74c-2.3,1.33-6.32,1.16-8.98-.37L26.8,195.39c-2.66-1.53-3.94-10.21-1.64-11.54l.06-.03c-1.17,1.34-.62,3.14,1.58,4.41l136.65,78.67c2.66,1.53,6.68,1.7,8.98.37l135.62-78.3h0l11.68-6.93s8.62-5.8,8.62,14.46c0,20.25-5.1,19.96-8.06,23.26l-147.62,85.23c-2.3,1.33-6.32,1.16-8.98-.37L27.04,225.93c-1.85-1.07-3.71-9.41-1.91-11.15.28.76-.29,2.35,1.91,3.98Z"/>
      <path class="cls-1" d="M163.11,305.61L26.45,226.94c-1.85-1.07-2.84-5.35-3.1-7.46-.23-1.88-.25-4.36.96-5.54l1.29-1.25.62,1.68c.13.34.15.69.18,1.03.05.73.11,1.49,1.28,2.38l136.59,78.63c2.29,1.32,5.87,1.49,7.81.37l143.42-82.8c1.77-1.02,3.05-2.72,3.51-4.66,1.31-5.51,1.13-10.07-.64-15.72-.15-.47-.48-.83-.91-1-.38-.15-.78-.11-1.13.09l-143.32,82.74c-2.67,1.54-7.12,1.37-10.14-.37L26.22,196.4c-2.36-1.36-3.42-6.04-3.42-8.92,0-1.65.31-3.79,1.86-4.69l5.7-3.1-4.26,4.9c-.25.29-.35.58-.3.89.1.58.67,1.21,1.58,1.73l136.65,78.67c2.29,1.32,5.87,1.49,7.81.37l135.61-78.29,11.63-6.89c.11-.08,2.82-1.86,5.59-.39,3.22,1.71,4.85,7.03,4.85,15.81,0,17.23-3.75,20.22-6.77,22.62-.58.46-1.14.9-1.6,1.41l-.12.14-147.78,85.32c-1.22.71-2.83,1.05-4.49,1.05-1.96,0-4.02-.48-5.65-1.43ZM321.29,217.28c2.62-2.09,5.89-4.69,5.89-20.79,0-10.26-2.25-13.02-3.59-13.74-1.53-.82-3.15.21-3.26.29l-11.69,6.94-135.62,78.3c-2.66,1.54-7.12,1.37-10.14-.37L26.22,189.23c-.38-.22-.73-.46-1.04-.72.22,2.78,1.28,5.33,2.21,5.86l136.65,78.67c2.29,1.32,5.86,1.49,7.81.37l143.32-82.74c.96-.56,2.11-.64,3.15-.24,1.1.43,1.93,1.33,2.29,2.48,1.91,6.09,2.1,11.01.69,16.96-.61,2.56-2.3,4.8-4.62,6.15l-143.42,82.8c-2.67,1.54-7.12,1.37-10.15-.37L26.46,219.78l-.11-.08c-.25-.19-.48-.38-.68-.57.36,3.06,1.46,5.48,1.96,5.79l136.65,78.67c2.29,1.32,5.87,1.49,7.81.37l147.47-85.14c.56-.59,1.16-1.07,1.75-1.54Z"/>
    </g>
    <g>
      <g>
        <path class="cls-2" d="M172.11,267.26l149.68-86.32-141.46-81.44c-2.98-1.72-6.65-1.72-9.63,0L25.84,183.04c-2.3,1.33-2.01,3.65.64,5.18l136.65,78.67c2.66,1.53,6.68,1.7,8.98.37Z"/>
        <path class="cls-1" d="M162.55,267.9L25.9,189.23c-1.77-1.02-2.78-2.46-2.78-3.94,0-1.31.76-2.47,2.14-3.26l144.86-83.54c3.33-1.92,7.47-1.92,10.8,0l143.21,82.45-151.43,87.33c-1.22.71-2.83,1.05-4.49,1.05-1.96,0-4.02-.48-5.65-1.42ZM179.75,100.51c-2.61-1.51-5.86-1.51-8.46,0L26.42,184.05c-.36.21-.97.65-.97,1.24,0,.62.6,1.34,1.61,1.92l136.65,78.67c2.29,1.32,5.87,1.49,7.81.37l147.92-85.3-139.7-80.43Z"/>
      </g>
      <g>
        <path class="cls-3" d="M153.34,244.29c7.93-4.4,20.53-4.36,28.35.14l94-54.27c-7.92-4.57-7.92-11.99,0-16.57l-87.6-50.37c-7.92,4.57-20.77,4.57-28.69,0l-93.71,54.1c7.92,4.57,7.92,11.99,0,16.57l87.65,50.4Z"/>
        <path class="cls-1" d="M181.7,245.78l96.34-55.62-1.75-1.01c-3.46-1.99-5.36-4.58-5.36-7.27,0-2.69,1.9-5.28,5.36-7.27l1.76-1.01-89.94-51.72-.58.34c-7.59,4.38-19.94,4.38-27.52,0l-.58-.34-96.05,55.45,1.75,1.01c3.46,1.99,5.36,4.58,5.36,7.27,0,2.69-1.9,5.28-5.36,7.27l1.17,2.02c4.21-2.43,6.53-5.73,6.53-9.3,0-3.07-1.71-5.94-4.87-8.23l91.48-52.82c8.07,4.31,20.6,4.31,28.67,0l85.37,49.09c-3.16,2.29-4.87,5.16-4.87,8.22,0,3.07,1.71,5.94,4.87,8.23l-91.78,52.99c-8.22-4.39-20.76-4.34-28.91.18l1.13,2.04c7.57-4.2,19.77-4.14,27.2.13l.58.34Z"/>
      </g>
    </g>
    <g>
      <path class="cls-1" d="M168.95,275.31c-1.73-.02-3.54-.43-4.96-1.25L27.34,195.39c-2.66-1.53-3.94-10.21-1.64-11.54l.06-.03c-1.17,1.34-.62,3.14,1.58,4.41l136.65,78.67c1.42.82,3.23,1.24,4.96,1.25v7.17Z"/>
      <path class="cls-1" d="M164.23,304.6L27.58,225.94c-1.85-1.07-3.83-7.57-2.03-9.31.28.77.95,1.52,2.03,2.14l136.65,78.67c1.36.78,3.06,1.2,4.72,1.26v7.17c-1.66-.05-3.36-.48-4.72-1.26Z"/>
    </g>
    <path class="cls-3" d="M166.41,275.92l.54-1.71c-2.08-.65-4.09-1.53-5.98-2.62l-122.46-70.48-.9,1.56,122.46,70.48c2,1.15,4.13,2.09,6.34,2.78Z"/>
    <path class="cls-3" d="M166.52,283.97l.32-1.03c-2.11-.66-4.14-1.55-6.05-2.65l-122.46-70.48-.54.94,122.46,70.48c1.98,1.14,4.09,2.07,6.27,2.75Z"/>
    <path class="cls-1" d="M168.18,284.13c2.05,0,4.07-.54,5.84-1.57l140.58-81.25-.67-1.17-140.58,81.25c-1.57.91-3.35,1.39-5.17,1.39v1.35Z"/>
  </g>
  <g>
    <g>
      <path class="cls-2" d="M259.17,289.58l-17.09-9.29c-6.21-3.53-10.93-9.14-13.44-15.83-3.39-9.05-9.88-16.61-18.32-21.33l-43.64-25.3,70.63-40.55,42.25,23.91c8.92,4.8,15.74,12.73,19.14,22.27l.43,1.2c2.53,7.09,7.6,12.99,14.24,16.54l15.13,7.97-69.32,40.39Z"/>
      <path class="cls-1" d="M241.5,281.31c-6.39-3.63-11.35-9.47-13.96-16.44-3.29-8.78-9.61-16.14-17.81-20.72l-45.39-26.31,72.96-41.89,42.8,24.22c9.19,4.94,16.18,13.08,19.68,22.91l.43,1.2c2.43,6.83,7.3,12.48,13.69,15.9l16.99,8.96-71.71,41.78-17.69-9.61ZM312.81,242.25c-6.91-3.7-12.16-9.8-14.79-17.18l-.43-1.2c-3.31-9.29-9.91-16.97-18.61-21.65l-41.67-23.58-68.29,39.21,41.87,24.27c8.67,4.85,15.36,12.64,18.84,21.94,2.42,6.45,7.01,11.86,12.9,15.21l16.51,8.98,66.93-39-13.27-7Z"/>
    </g>
    <g>
      <path class="cls-3" d="M248.87,275.03l53.28-30.38-53.28,30.38Z"/>
      <path class="cls-1" d="M248.43,274.25l3.12-1.78.89,1.56-3.12,1.78-.89-1.56ZM253.11,271.58l3.12-1.78.89,1.56-3.12,1.78-.89-1.56ZM257.8,268.91l3.12-1.78.89,1.56-3.12,1.78-.89-1.56ZM262.48,266.24l3.12-1.78.89,1.56-3.12,1.78-.89-1.56ZM267.16,263.57l3.12-1.78.89,1.56-3.12,1.78-.89-1.56ZM271.85,260.9l3.12-1.78.89,1.56-3.12,1.78-.89-1.56ZM276.53,258.23l3.12-1.78.89,1.56-3.12,1.78-.89-1.56ZM281.22,255.56l3.12-1.78.89,1.56-3.12,1.78-.89-1.56ZM285.9,252.89l3.12-1.78.89,1.56-3.12,1.78-.89-1.56ZM290.59,250.22l3.12-1.78.89,1.56-3.12,1.78-.89-1.56ZM295.27,247.55l3.12-1.78.89,1.56-3.12,1.78-.89-1.56ZM299.95,244.88l1.75-1,.89,1.56-1.75,1-.89-1.56Z"/>
    </g>
    <path class="cls-3" d="M232.92,223.23l-16.92,9.77c-1.39.8-3.81.7-5.41-.22l-19.25-11.11c-1.6-.92-1.78-2.32-.39-3.12l16.92-9.77c1.39-.8,3.81-.7,5.41.22l19.25,11.11c1.6.92,1.78,2.32.39,3.12Z"/>
    <rect class="cls-1" x="228.92" y="235.99" width="58.89" height="1.8" transform="translate(-83.41 159.07) rotate(-29.69)"/>
    <rect class="cls-1" x="223.75" y="229.03" width="58.89" height="1.8" transform="translate(-80.64 155.59) rotate(-29.69)"/>
    <rect class="cls-1" x="220.62" y="197.15" width="25.41" height="1.8" transform="translate(-67.46 141.56) rotate(-29.69)"/>
    <rect class="cls-1" x="229.46" y="202.14" width="25.41" height="1.8" transform="translate(-68.77 146.6) rotate(-29.69)"/>
    <rect class="cls-1" x="238.29" y="207.33" width="25.41" height="1.8" transform="translate(-70.18 151.65) rotate(-29.69)"/>
    <rect class="cls-1" x="253.66" y="262.9" width="58.89" height="1.8" transform="translate(-93.49 174.86) rotate(-29.69)"/>
  </g>
  <g>
    <polygon class="cls-1" points="305.24 114.96 326.74 112.17 330.38 117.29 332.48 129.91 330.85 135.04 326.74 141.98 321.73 144.78 306.87 146.39 305.24 114.96"/>
    <g>
      <path class="cls-2" d="M179.12,224.17l147.62-85.23L170.37,62.99,22.75,134.03c-2.3,1.33-2.01,3.65.64,5.18l146.76,84.58c2.66,1.53,6.68,1.7,8.98.37Z"/>
      <path class="cls-1" d="M169.57,224.81L22.81,140.23c-1.77-1.02-2.78-2.46-2.78-3.94,0-1.31.76-2.47,2.21-3.3L170.37,61.69l158.87,77.16-149.53,86.33c-1.23.71-2.83,1.05-4.49,1.05-1.96,0-4.02-.48-5.65-1.43ZM324.25,139.03l-153.89-74.74L23.33,135.05c-.36.21-.97.65-.97,1.24,0,.62.6,1.34,1.61,1.92l146.76,84.58c2.29,1.32,5.87,1.49,7.81.37l145.71-84.13Z"/>
    </g>
    <g>
      <path class="cls-3" d="M32.76,132.53l-.11-18.38,56.57,10.91,84.21-60.4,85.81,49.28,59.94,5.84c5.12,13.97.96,15.1.96,15.1l-139.22,80.43c-2.3,1.33-6.32,1.16-8.98-.37L34.85,136.1c-1.76-1.02-2.09-3.57-2.09-3.57Z"/>
      <path class="cls-1" d="M171.36,215.96L34.26,137.11c-2.24-1.29-2.65-4.31-2.66-4.43l-.13-19.94,57.47,11.09,84.41-60.54,86.24,49.53,60.42,5.88.25.69c2.66,7.26,3.31,12.31,1.92,15-.52,1-1.2,1.4-1.54,1.55l-139.14,80.39c-1.23.71-2.83,1.05-4.49,1.05-1.96,0-4.02-.48-5.65-1.43ZM258.87,115.09l-85.38-49.03-84.01,60.25-55.66-10.74.1,16.88c.09.57.51,2.07,1.5,2.64l137.1,78.85c2.29,1.32,5.87,1.49,7.81.37l139.22-80.43.18-.08s2.57-1.71-1.41-12.91l-59.46-5.79Z"/>
    </g>
    <path class="cls-1" d="M175.41,216.1c-1.24-.18-2.45-.56-3.46-1.15L34.85,136.1c-1.76-1.02-2.09-3.57-2.09-3.57l-.11-18.38,46.46,5,30.75-17.76,67.3,30.13-1.75,84.57Z"/>
    <g>
      <path class="cls-3" d="M23.39,139.22l146.76,84.58c2.66,1.53,6.68,1.7,8.98.37l143.42-82.8c2.04-1.18,3.52-3.12,4.07-5.41,1.31-5.49,1.24-10.26-.67-16.34-.5-1.6-2.29-2.41-3.74-1.57l-143.32,82.74c-2.3,1.33-6.32,1.16-8.98-.37L23.15,115.84c-2.66-1.53-3.94-10.21-1.64-11.54l.06-.03c-1.17,1.34-.62,3.14,1.58,4.41l146.76,84.58c2.66,1.53,6.68,1.7,8.98.37l135.62-78.3h0l11.68-6.93s8.62-5.8,8.62,14.46c0,20.25-5.1,19.96-8.06,23.26l-147.62,85.23c-2.3,1.33-6.32,1.16-8.98-.37L23.39,146.38c-1.85-1.07-3.71-9.41-1.91-11.15.28.76-.29,2.35,1.91,3.98Z"/>
      <path class="cls-1" d="M169.56,231.97L22.81,147.4c-1.85-1.07-2.84-5.35-3.1-7.46-.23-1.88-.25-4.36.96-5.54l1.29-1.25.62,1.68c.13.34.15.69.18,1.03.05.73.11,1.49,1.28,2.38l146.7,84.54c2.29,1.32,5.87,1.49,7.81.37l143.42-82.8c1.77-1.02,3.05-2.72,3.51-4.66,1.31-5.51,1.13-10.07-.64-15.72-.15-.47-.48-.83-.91-1-.38-.15-.78-.11-1.13.09l-143.32,82.74c-2.67,1.54-7.12,1.37-10.14-.37L22.57,116.85c-2.36-1.36-3.42-6.04-3.42-8.92,0-1.65.31-3.79,1.88-4.7l5.56-2.94-4.13,4.74c-.25.29-.35.58-.3.89.1.58.67,1.21,1.58,1.73l146.76,84.58c2.29,1.32,5.87,1.49,7.81.37l135.61-78.29,11.63-6.89c.11-.08,2.82-1.86,5.59-.39,3.22,1.71,4.85,7.03,4.85,15.81,0,17.23-3.75,20.22-6.77,22.62-.58.46-1.13.9-1.59,1.41l-.12.14-147.78,85.32c-1.23.71-2.83,1.05-4.49,1.05-1.96,0-4.02-.48-5.65-1.43ZM327.75,143.64c2.62-2.09,5.89-4.69,5.89-20.79,0-10.26-2.25-13.02-3.59-13.74-1.53-.82-3.15.21-3.26.29l-11.69,6.94-135.62,78.3c-2.66,1.54-7.12,1.38-10.14-.37L22.57,109.68c-.38-.22-.73-.46-1.04-.72.22,2.78,1.28,5.33,2.21,5.86l146.76,84.58c2.29,1.32,5.87,1.49,7.81.37l143.32-82.74c.97-.56,2.11-.64,3.15-.24,1.1.43,1.93,1.33,2.29,2.48,1.91,6.09,2.1,11.01.69,16.96-.61,2.56-2.3,4.8-4.62,6.15l-143.42,82.8c-2.67,1.54-7.12,1.38-10.14-.37L22.81,140.23l-.11-.07c-.25-.19-.48-.38-.68-.57.36,3.06,1.46,5.48,1.96,5.79l146.76,84.58c2.29,1.32,5.87,1.49,7.81.37l147.47-85.14c.56-.59,1.16-1.07,1.75-1.54Z"/>
    </g>
    <g>
      <g>
        <path class="cls-3" d="M178.57,193.62l149.68-86.32L176.68,19.95c-2.98-1.72-6.65-1.72-9.63,0L22.19,103.49c-2.3,1.33-2.01,3.65.64,5.18l146.76,84.58c2.66,1.53,6.68,1.7,8.98.37Z"/>
        <path class="cls-1" d="M169.01,194.26L22.25,109.68c-1.77-1.02-2.78-2.46-2.78-3.94,0-1.31.76-2.47,2.14-3.26L166.47,18.94c3.33-1.92,7.47-1.92,10.8,0l153.32,88.36-151.43,87.33c-1.22.71-2.83,1.05-4.49,1.05-1.96,0-4.02-.48-5.65-1.43ZM176.1,20.97c-2.61-1.51-5.85-1.51-8.46,0L22.77,104.5c-.36.21-.97.65-.97,1.24,0,.62.6,1.34,1.61,1.92l146.76,84.58c2.29,1.32,5.87,1.49,7.81.37l147.92-85.3L176.1,20.97Z"/>
      </g>
      <g>
        <path class="cls-2" d="M189.38,177.53c-8.7-5-22.69-5.05-31.5-.16l-107.49-61.91c8.8-5.08,8.8-13.32,0-18.41l103.47-59.74c.41-.24.9-.23,1.31-.01,8.84,4.72,22.64,4.59,31.22-.36l107.44,61.88c-8.8,5.08-8.8,13.32,0,18.41l-104.45,60.3Z"/>
        <path class="cls-1" d="M157.86,178.71l.58-.32c8.45-4.69,22.07-4.62,30.35.15l1.17-2.03c-8.89-5.11-22.82-5.28-32.07-.48l-105.26-60.62c3.58-2.54,5.52-5.74,5.52-9.15,0-3.41-1.94-6.61-5.52-9.15l101.81-58.78c9.21,4.83,23,4.77,31.94-.05l105.2,60.59c-3.58,2.54-5.52,5.74-5.52,9.15,0,3.91,2.55,7.54,7.19,10.22l1.17-2.02c-3.88-2.24-6.02-5.15-6.02-8.19,0-3.04,2.14-5.95,6.02-8.19l1.76-1.01-109.78-63.23-.58.34c-8.14,4.7-21.64,4.85-30.09.34-.78-.41-1.69-.4-2.44.03l-105.22,60.75,1.75,1.01c3.88,2.24,6.02,5.15,6.02,8.19s-2.14,5.95-6.02,8.19l-1.75,1.01,109.82,63.25Z"/>
      </g>
    </g>
    <g>
      <path class="cls-1" d="M175.41,201.68c-1.73-.02-3.54-.43-4.96-1.25L23.69,115.85c-2.66-1.53-3.94-10.21-1.64-11.54l.06-.03c-1.17,1.34-.62,3.14,1.58,4.41l146.76,84.58c1.42.82,3.23,1.24,4.96,1.25v7.17Z"/>
      <path class="cls-1" d="M170.69,230.97L23.93,146.39c-1.85-1.07-3.83-7.57-2.03-9.31.28.77.95,1.52,2.03,2.14l146.76,84.58c1.36.78,3.06,1.2,4.72,1.26v7.17c-1.66-.05-3.36-.48-4.72-1.26Z"/>
    </g>
    <path class="cls-3" d="M172.87,202.28l.54-1.71c-2.08-.65-4.09-1.53-5.98-2.62L34.86,121.56l-.9,1.56,132.57,76.38c2,1.15,4.13,2.09,6.34,2.78Z"/>
    <path class="cls-3" d="M172.98,210.34l.32-1.03c-2.11-.66-4.14-1.55-6.05-2.65L34.68,130.27l-.54.93,132.57,76.38c1.98,1.14,4.09,2.07,6.27,2.75Z"/>
    <path class="cls-1" d="M174.63,210.49c2.05,0,4.07-.54,5.84-1.57l140.58-81.25-.67-1.17-140.58,81.25c-1.57.91-3.35,1.39-5.17,1.39v1.35Z"/>
  </g>
</svg>