<?xml version="1.0" encoding="UTF-8"?>
<svg id="Layer_1" data-name="Layer 1" xmlns="http://www.w3.org/2000/svg" viewBox="0 0 355.12 324.53">
  <defs>
    <style>
      .cls-1 {
        fill: #fff8ef;
      }

      .cls-2 {
        fill: #df5327;
      }

      .cls-3 {
        fill: #f9a86b;
      }
    </style>
  </defs>
  <path class="cls-2" d="M185.02,210.35l-1.59-2.24,22.07-15.77,4.91,1.89,5.59-3.98-.33-11.35,32.6-23.15,7.18,6.11,11.58-8.21,1.59,2.25-13.32,9.42-7.18-6.09-29.67,21.06.33,11.33-7.97,5.7-4.91-1.89-20.87,14.9Z"/>
  <path class="cls-2" d="M184.27,221.76l-1.58-2.26,39.28-27.83-.28-10.43,24.8-17.65,8.03,8.25,26.52-19.03,1.61,2.24-28.46,20.4-8.03-8.25-21.68,15.44.28,10.43-40.49,28.69Z"/>
  <path class="cls-2" d="M178.53,239.76l-1.59-2.24,34.82-24.77,8.01,7.77,8.58-6.09,4.62-11.82-6.01-4.25-.37-14.72,16.66-11.81,8.83,8.38,8.03-6.29,1.69,2.16-9.9,7.75-8.91-8.47-13.62,9.66.29,11.88,6.63,4.69-5.68,14.59-11.11,7.9-8.03-7.77-32.95,23.43Z"/>
  <path class="cls-2" d="M190.41,236.77l-1.59-2.24,19.96-14.21,8.8,8.82,13.27-9.46,8.1-20.9,6.73-4.77,1.58,2.24-6.03,4.29-8.1,20.9-15.83,11.29-8.8-8.82-18.07,12.85Z"/>
  <path class="cls-2" d="M182.29,248.16l-1.59-2.24,25.33-18.04,9.53,9.57,18.36-13.13,8.72-22.49,13.34-9.5,1.59,2.24-12.66,9.02-8.72,22.49-20.93,14.96-9.53-9.57-23.44,16.68Z"/>
  <path class="cls-2" d="M267.53,158.38c1.87,0,3.39-1.52,3.39-3.39s-1.52-3.39-3.39-3.39-3.39,1.52-3.39,3.39,1.52,3.39,3.39,3.39Z"/>
  <path class="cls-2" d="M282.54,156.53c1.87,0,3.39-1.52,3.39-3.39s-1.52-3.39-3.39-3.39-3.39,1.52-3.39,3.39,1.52,3.39,3.39,3.39Z"/>
  <path class="cls-2" d="M261.35,178.25c1.87,0,3.39-1.52,3.39-3.39s-1.52-3.39-3.39-3.39-3.39,1.52-3.39,3.39,1.52,3.39,3.39,3.39Z"/>
  <path class="cls-2" d="M246.45,197.8c1.87,0,3.39-1.52,3.39-3.39s-1.52-3.39-3.39-3.39-3.39,1.52-3.39,3.39,1.52,3.39,3.39,3.39Z"/>
  <path class="cls-2" d="M257.16,196.49c1.87,0,3.39-1.52,3.39-3.39s-1.52-3.39-3.39-3.39-3.39,1.52-3.39,3.39,1.52,3.39,3.39,3.39Z"/>
  <path class="cls-2" d="M186.32,62.61l-1.59-2.24,17.34-12.39,4.91,1.89,5.59-3.98-.33-11.35,32.6-23.15,7.18,6.1,11.56-8.19,1.59,2.24-13.31,9.44-7.18-6.1-29.67,21.06.33,11.33-7.97,5.7-4.91-1.89-16.15,11.53Z"/>
  <path class="cls-2" d="M180.84,77.39l-1.58-2.24,39.28-27.85-.27-10.43,24.8-17.65,8.03,8.25,26.52-19.03,1.61,2.24-28.46,20.4-8.03-8.25-21.68,15.44.27,10.43-40.49,28.69Z"/>
  <path class="cls-2" d="M175.09,95.39l-1.59-2.24,34.82-24.77,8.03,7.77,8.58-6.09,4.62-11.82-6.01-4.25-.37-14.72,16.66-11.81,8.83,8.38,8.03-6.29,1.69,2.16-9.9,7.75-8.91-8.47-13.62,9.66.29,11.88,6.63,4.69-5.68,14.59-11.11,7.9-8.05-7.77-32.95,23.43Z"/>
  <path class="cls-2" d="M186.96,92.4l-1.59-2.24,19.98-14.21,8.8,8.82,13.27-9.46,8.1-20.9,6.71-4.77,1.59,2.24-6.03,4.29-8.1,20.9-15.83,11.29-8.8-8.82-18.09,12.85Z"/>
  <path class="cls-2" d="M178.84,103.79l-1.59-2.24,25.35-18.04,9.53,9.57,18.36-13.13,8.72-22.49,13.32-9.5,1.59,2.24-12.65,9.02-8.72,22.5-20.93,14.96-9.53-9.57-23.46,16.68Z"/>
  <path class="cls-2" d="M264.08,14.01c1.87,0,3.39-1.52,3.39-3.39s-1.52-3.39-3.39-3.39-3.39,1.52-3.39,3.39,1.52,3.39,3.39,3.39Z"/>
  <path class="cls-2" d="M279.11,12.16c1.87,0,3.39-1.52,3.39-3.39s-1.52-3.39-3.39-3.39-3.39,1.52-3.39,3.39,1.52,3.39,3.39,3.39Z"/>
  <path class="cls-2" d="M257.93,33.88c1.87,0,3.39-1.52,3.39-3.39s-1.52-3.39-3.39-3.39-3.39,1.52-3.39,3.39,1.52,3.39,3.39,3.39Z"/>
  <path class="cls-2" d="M243.03,53.63c1.87,0,3.39-1.52,3.39-3.39s-1.52-3.39-3.39-3.39-3.39,1.52-3.39,3.39,1.52,3.39,3.39,3.39Z"/>
  <path class="cls-2" d="M253.73,52.12c1.87,0,3.39-1.52,3.39-3.39s-1.52-3.39-3.39-3.39-3.39,1.52-3.39,3.39,1.52,3.39,3.39,3.39Z"/>
  <path class="cls-2" d="M113.82,67.45l30.61-32.49c4.23-4.49,9.05-6.23,12.26-4.86l1.98-2.9.05.04-.07-.06-.6-.33c-4.75-2.04-10.96.13-16.18,5.68l-33.03,35.07,2.05-2.18,2.93,2v.02Z"/>
  <path class="cls-2" d="M154.71,33.15l.09.07c-1.7-.31-4.82.95-7.83,4.14l-30.22,32.1-2.93-2.02,30.61-32.49c3.28-3.48,6.93-5.32,9.88-5.32.86,0,1.65.15,2.36.46l-1.98,2.9.09.05-.07.09Z"/>
  <path class="cls-2" d="M198.47,3.63l-.9.62c.33-.2.66-.38,1.01-.55l-.09-.07h-.02Z"/>
  <path class="cls-3" d="M140.14,229.05c-2.53-3.06-4.67-6.56-6.38-10.43l-7.68,3.67c-4.05,1.94-8.06,1.89-11-.13-.73-.51-1.37-1.12-1.92-1.81l-12.5-8.2-1.26,2.64c-1.85,3.83-1.89,6.8-1.3,8.32.33.82.75,1.08,1.04,1.21l.64.35,32.86,22.33c.33-2.16,1.03-4.45,2.14-6.78l5.37-11.15-.02-.02Z"/>
  <path class="cls-2" d="M148.38,125.02c-4.05,7.15-7.57,14.48-10.46,21.82l-9.79,4.67c-7.2,3.43-13.32,12.34-13.95,20.29l-3.06,38.81-14.97-9.83-17.19-11.84-.29-.49-1.03-.48c-1.41-.66-1.39-2.99-1.32-3.98l3.17-40.11c.09-1.23.42-2.51.9-3.8l35.26,24.27,3.98-5.79-35.74-24.57c1.63-2,3.56-3.68,5.57-4.64l12.32-5.87.51-1.32c2.55-6.66,5.66-13.31,9.26-19.84l35.48,24.38,1.28-1.87.09.16h-.02Z"/>
  <path class="cls-2" d="M143.56,115.85l-28.59-19.67-.18.29-5.72-9.68c-.18-.31-.31-.7-.4-1.1-.04-.15-.04-.29-.07-.44-.04-.29-.07-.61-.07-.94v-.59c.02-.33.05-.66.11-1.01.04-.22.07-.44.11-.68.07-.35.16-.72.27-1.1.07-.24.13-.46.2-.7.15-.42.31-.84.49-1.28.09-.2.15-.4.26-.61.27-.64.6-1.26.97-1.91.07-.13.16-.24.24-.37.27-.46.57-.9.88-1.34l35.87,24.55c-3.87,5.44-5.52,11.71-4.38,16.55h.02Z"/>
  <path class="cls-3" d="M112.08,74.74c-.31.44-.6.88-.88,1.34.27-.46.55-.9.86-1.34h.02Z"/>
  <path class="cls-2" d="M101.5,83.95c.05-3.81,1.47-8.12,4.01-12.06-2.55,3.96-3.96,8.25-4.01,12.06Z"/>
  <path class="cls-2" d="M132.53,251.17l-34.75-23.61c-3.98-1.63-4.77-7.64-1.58-14.3l1.47-3.06-5.42-3.56,1.92-2.93-17.87-12.26c-.09-.07-.15-.16-.2-.27-2.29-1.04-3.63-3.63-3.34-7.43l3.17-40.13c.53-6.71,5.88-14.5,11.97-17.42l11.05-5.28c3.17-8.29,7.15-16.48,11.77-24.4l-4.71-7.96c-2.58-4.36-.18-12.67,5.33-18.53l2.44-2.59-2.93-2-2.05,2.18c-1.26,1.34-2.38,2.77-3.34,4.25-2.55,3.94-3.96,8.25-4.01,12.06-.04,2.38.46,4.58,1.52,6.4l3.67,6.2c-4.07,7.15-7.57,14.48-10.46,21.82l-9.81,4.67c-7.2,3.45-13.32,12.36-13.95,20.31l-3.17,40.13c-.37,4.58,1.23,8.34,4.29,10.3l21.11,14.56-1.65,3.41c-2.42,5.04-2.99,10.1-1.54,13.88.9,2.33,2.46,4.05,4.55,5.02l38.82,26.38h.04c-.48-.55-.9-1.15-1.25-1.83-.62-1.21-.99-2.57-1.15-4.03l.07.02Z"/>
  <path class="cls-2" d="M116.75,69.46l-2.44,2.57-2.93-2,2.44-2.58,2.93,2.02Z"/>
  <path class="cls-3" d="M189.05,56.63c-1.89,1.08-3.74,2.55-5.48,4.4l-31.01,32.93-2.02,2.15c-.13.13-.26.28-.37.42-.82.88-1.56,1.81-2.24,2.77l-35.87-24.55c.55-.79,1.17-1.56,1.87-2.31l.37-.4,2.44-2.57,30.22-32.1c3.01-3.19,6.12-4.46,7.83-4.14l23.17,15.78,11.09,7.63Z"/>
  <path class="cls-2" d="M111.01,101.97l.51.37c-3.59,6.53-6.71,13.18-9.26,19.84l-.51,1.32-12.32,5.87c-2.02.95-3.94,2.64-5.57,4.64l-.26-.18-3.98,5.77.73.49c-.48,1.28-.81,2.57-.9,3.8l-3.17,40.11c-.07.99-.09,3.32,1.32,3.98l1.03.48.29.49,17.19,11.83-1.92,2.93-17.87-12.28s-.15-.16-.2-.26c-2.29-1.06-3.63-3.63-3.34-7.43l3.17-40.13c.53-6.73,5.88-14.52,11.97-17.42l11.05-5.26c3.17-8.29,7.15-16.5,11.77-24.4l-4.71-7.96c-2.58-4.36-.18-12.67,5.33-18.54l2.93,2-.37.4c-.7.75-1.32,1.52-1.87,2.31-.31.44-.59.88-.86,1.34-.07.13-.16.24-.24.37-.37.64-.7,1.26-.97,1.91-.11.2-.16.4-.26.61-.18.44-.35.86-.49,1.28-.07.24-.13.46-.2.7-.11.39-.2.75-.27,1.1-.04.24-.07.46-.11.68-.06.35-.09.68-.11,1.01v.59c0,.33.04.64.07.93.04.15.04.29.07.44.09.4.22.79.4,1.1l5.72,9.68-3.78,5.5h-.04Z"/>
  <path class="cls-2" d="M132.62,246.98l-32.86-22.33-.64-.35c-.29-.13-.71-.37-1.04-1.21-.59-1.52-.53-4.49,1.3-8.32l1.26-2.64-2.97-1.94-1.47,3.06c-3.21,6.66-2.42,12.67,1.58,14.3l34.75,23.61c-.15-1.32-.13-2.71.09-4.18Z"/>
  <path class="cls-1" d="M195.94,224.95l-44.72,21.91-7.37,6.53,27.25,4.62c3.04.46,8.67-3.52,11.64-9.68l7.02-14.58,1.41-.48c3.37-1.14,6.56-2.42,9.73-3.94.16-.07.35-.18.53-.26v-.35l-5.48-3.78h-.02Z"/>
  <path class="cls-1" d="M201.42,204.49v15.73l-2.82-1.96c-1.26-.86-2.88-.99-4.29-.31l-36.6,17.93c3.37-22.37,3.24-22.71,2.95-23.34-.35-1.81-2.8-23.94-4.8-42.18l3.08,2.11c-.46,13.68,3.9,24.35,12.43,30.21,4.45,3.06,9.73,4.6,15.56,4.6,4.55,0,9.42-.94,14.5-2.79Z"/>
  <path class="cls-1" d="M195.85,221.1l-38.76,19.01c-.11.79-.24,1.58-.37,2.4l-.27,1.81-5.21,2.55,44.72-21.91,5.48,3.78v-4.27l-4.82-3.32c-.22-.15-.51-.18-.75-.06h-.02Z"/>
  <path class="cls-1" d="M194.29,217.94l-36.58,17.93c-.2,1.34-.4,2.73-.64,4.22l38.76-19.01c.24-.11.53-.09.75.05l4.82,3.32v-4.25l-2.84-1.94c-1.25-.86-2.88-.99-4.29-.33l.02.02Z"/>
  <path class="cls-1" d="M150.05,239.63c3.13-20.7,3.65-25.15,3.7-26.07-.42-2.59-1.58-12.03-5.74-50.43l-.09-.83,18.46-50.4-12.65-8.65c-3.23,4.56-4.31,9.73-2.97,11.99l5.75,9.73-1.04,1.78c-4.56,7.81-8.43,15.86-11.51,23.89l-.51,1.3-12.32,5.88c-4.97,2.37-9.55,9.02-9.97,14.52l-3.17,40.13c-.15,1.89.24,3.36,1.03,3.89.79.55,2.29.38,4-.42l14.57-6.95,1.3,3.67c1.89,5.28,4.56,9.79,7.95,13.44l1.63,1.76-7.4,15.4c-.84,1.74-1.3,3.28-1.5,4.62l8.34-7.19,2.13-1.04.02-.02Z"/>
  <path class="cls-1" d="M156.43,244.31l.27-1.81c.13-.82.24-1.63.37-2.4l-3.83,1.87-3.87,1.89c-.06.04-.11.07-.16.11l-9.2,8.14c.29.48.66.75,1.23.84l2.62.44,7.37-6.53,5.2-2.55Z"/>
  <path class="cls-1" d="M157.71,235.88c-.2,1.34-.4,2.73-.64,4.22l-3.83,1.89c.22-1.41.44-2.82.64-4.22l3.83-1.89Z"/>
  <path class="cls-1" d="M201.42,68.68v30.51c-8.27,5.79-16.22,13.62-23.04,22.88l-1.76,2.57-2.38,3.43.06.05c-7.31,11.39-12.55,23.96-14.52,36.04-.31,1.85-.53,3.7-.68,5.52-.07.95-.13,1.87-.16,2.79l-3.08-2.11c2,18.24,4.45,40.37,4.8,42.18.29.62.42.97-2.95,23.34l-3.83,1.89c1.81-12.1,3.56-23.98,3.37-24.44-.37-.92-5.75-50.58-5.75-50.58l19.12-52.18-14.61-10.05,2.42-2.55,30.26-32.12c3.19-3.41,6.16-4.47,7.72-4.22.05,0,.07.02.11.02l1.28.88,3.63,6.14Z"/>
  <path class="cls-1" d="M157.25,213.33c.18.46-1.56,12.34-3.37,24.44l-3.83,1.87c3.13-20.7,3.65-25.15,3.7-26.07-.42-2.59-1.58-12.05-5.74-50.43l-.09-.82,18.46-50.4-12.63-8.63c.57-.81,1.19-1.61,1.89-2.35l.37-.4,14.61,10.05-19.12,52.18s5.39,49.66,5.75,50.58Z"/>
  <path class="cls-1" d="M153.24,241.98l-3.87,1.89,3.87-1.89Z"/>
  <path class="cls-1" d="M149.37,243.87l3.87-1.89c.22-1.39.42-2.81.64-4.22l-5.96,2.92-8.34,7.19c-.29,1.87-.09,3.3.33,4.11.04.06.06.09.09.15l9.2-8.14s.11-.07.16-.11Z"/>
  <path class="cls-2" d="M192.28,236.61l-6.38,13.24c-3.5,7.26-10.39,12.47-15.38,11.62l-29.87-5.06s-.11-.04-.16-.04l-.37.31c-.79.72-1.8,1.06-2.82,1.06-.82,0-1.65-.24-2.38-.73,1.32,1.5,3.08,2.49,5.13,2.84l29.87,5.06c.55.09,1.1.13,1.67.13,6.3,0,13.54-5.57,17.45-13.69l5.74-11.92c2.25-.79,4.45-1.7,6.63-2.66v-3.83c-3.12,1.45-6.16,2.64-9.15,3.65l.02.02Z"/>
  <path class="cls-2" d="M192.37,58.92c-2.05.84-4.22,2.36-6.25,4.53l-30.63,32.5-2.93-2,31.01-32.93c1.74-1.85,3.59-3.32,5.48-4.4l3.32,2.29Z"/>
  <path class="cls-2" d="M147.76,117.04l1.67,2.82-5.86-4.01c-1.14-4.84.51-11.11,4.38-16.55l2.9,1.98c-3.87,5.5-5.28,12.04-3.08,15.77Z"/>
  <path class="cls-2" d="M152.45,125c-4.62,7.92-8.58,16.11-11.77,24.4l-11.05,5.26c-6.07,2.9-11.42,10.71-11.95,17.42l-3.17,40.13c-.02.2-.02.4-.02.62l-3.37-2.22,3.06-38.81c.62-7.96,6.74-16.87,13.95-20.29l9.79-4.67c2.9-7.33,6.41-14.67,10.46-21.82l-.09-.16,2.2-3.19,1.96,3.34Z"/>
  <path class="cls-2" d="M144.3,228.49c-3.68-3.96-6.62-8.85-8.69-14.65l-11.05,5.28c-3.96,1.89-7.22,1.23-8.89-1.3l-1.92,2.92-.6-.4c.55.7,1.19,1.32,1.92,1.81,2.93,2.02,6.95,2.05,11,.13l7.68-3.67c1.72,3.87,3.85,7.37,6.38,10.43l-5.37,11.15c-1.12,2.33-1.81,4.62-2.14,6.78l3.32,2.26c.05-2.24.7-4.82,1.98-7.52l6.38-13.24.02.02Z"/>
  <path class="cls-2" d="M155.49,95.96l-2.4,2.55-2.91-1.98c.11-.15.24-.29.37-.42l2.02-2.15,2.93,2Z"/>
  <path class="cls-2" d="M140.14,256.68l.37-.31c-1.43-.28-2.55-1.05-3.32-2.16-.09-.02-.2-.02-.29-.07l-4.36-2.95c.16,1.47.53,2.82,1.15,4.03.35.68.77,1.28,1.25,1.83.73.5,1.56.73,2.38.73,1.03,0,2.02-.37,2.82-1.06v-.04Z"/>
  <path class="cls-2" d="M153.09,98.51c-.82.88-1.58,1.81-2.25,2.77l-2.9-1.98c.68-.95,1.41-1.89,2.24-2.77l2.91,1.98Z"/>
  <path class="cls-2" d="M135.94,249.22l-3.32-2.26c-.22,1.47-.24,2.86-.09,4.18l4.36,2.95s.18.05.29.07c-.86-1.26-1.28-2.97-1.25-4.97v.02Z"/>
  <path class="cls-2" d="M200.91,229.35c-3.19,1.52-6.36,2.81-9.73,3.94l-1.41.48-7.02,14.57c-2.97,6.16-8.6,10.14-11.64,9.68l-27.25-4.62-3.35,2.97s.11.04.17.04l29.87,5.06c5,.84,11.89-4.36,15.38-11.62l6.38-13.24c2.99-.99,6.03-2.2,9.15-3.65v-3.89c-.17.09-.35.18-.53.26v.02Z"/>
  <path class="cls-2" d="M196.51,61.65s-.06-.02-.11-.02c-1.56-.26-4.53.81-7.72,4.22l-30.26,32.12-2.93-2.02,30.63-32.5c2.03-2.16,4.2-3.68,6.25-4.53l3.37,2.31.05-.07.71.49Z"/>
  <path class="cls-2" d="M148.51,227.84l-1.63-1.76c-3.39-3.63-6.07-8.16-7.95-13.44l-1.3-3.67-14.57,6.95c-1.72.82-3.21.97-4,.42-.79-.55-1.19-2-1.03-3.89l3.17-40.13c.42-5.5,5-12.14,9.97-14.52l12.32-5.88.51-1.3c3.08-8.03,6.95-16.06,11.51-23.89l1.04-1.78-5.75-9.73c-1.34-2.25-.26-7.42,2.97-11.99l-2.91-1.98c-3.87,5.48-5.28,12.05-3.1,15.77l1.67,2.82,1.56,1.08-.49.73,1.96,3.34c-4.62,7.92-8.6,16.11-11.77,24.4l-11.05,5.28c-6.08,2.9-11.44,10.69-11.97,17.42l-3.17,40.13c0,.22,0,.42-.02.62l3.1,2.03-1.92,2.93c1.67,2.53,4.95,3.19,8.89,1.3l11.05-5.28c2.07,5.79,5,10.69,8.69,14.65l-6.38,13.24c-1.28,2.68-1.94,5.26-1.98,7.52l1.14.77,2.51-2.15c.2-1.32.66-2.88,1.5-4.62l7.4-15.4h.04Z"/>
  <path class="cls-2" d="M158.43,97.97l-2.42,2.55-2.91-2.02,2.4-2.55,2.93,2.02Z"/>
  <path class="cls-2" d="M141.24,252.94c-.57-.09-.93-.37-1.23-.84l-2.2,1.94c-.18.16-.4.18-.62.15.77,1.12,1.87,1.89,3.32,2.16l3.35-2.97-2.62-.44Z"/>
  <path class="cls-2" d="M156.01,100.52l-2.93-2.02c-.82.88-1.58,1.81-2.25,2.77l2.91,1.98c.57-.81,1.19-1.59,1.89-2.35l.37-.4.02.02Z"/>
  <path class="cls-2" d="M137.81,254.06l2.2-1.94s-.05-.09-.09-.15c-.42-.82-.62-2.24-.33-4.11l-2.51,2.14-1.14-.77c-.06,2,.38,3.7,1.25,4.97.22.04.46,0,.62-.15Z"/>
  <path class="cls-2" d="M168.32,33.57l-9.49-6.47-.11.17,9.4,6.42s.13-.07.2-.09v-.02Z"/>
  <path class="cls-2" d="M177.96,49l-23.17-15.78s.18.02.26.04l22.91,15.75Z"/>
  <path class="cls-2" d="M208.75,61.12v1.61c-.66.37-1.34.73-2.02,1.12l-2.91-4.91c-1.08-1.83-2.68-3.15-4.6-3.83l-24.6-16.9c.11-.06.2-.09.29-.15l33.83,23.06Z"/>
  <path class="cls-2" d="M171.33,35.93s.18-.09.28-.13l-3.28-2.24s-.13.07-.2.09l-9.4-6.42,12.63,8.69h-.02Z"/>
  <path class="cls-2" d="M154.76,33.05l-.07.09.09.06s.18,0,.26.04l-.29-.2.02.02Z"/>
  <path class="cls-2" d="M174.92,38.06l-3.32-2.26s-.18.09-.27.13l3.3,2.27c.09-.05.18-.09.29-.15Z"/>
  <path class="cls-2" d="M197.79,62.5v.04l-1.28-.88c.59.09.97.35,1.28.84Z"/>
  <path class="cls-2" d="M208.09,99.07c-.35.2-.68.4-1.01.64.55-.33,1.12-.68,1.67-.99v4.05c-.18.13-.38.26-.59.38-.06.04-.13.07-.18.13-.77.48-1.54.97-2.31,1.52-.22.13-.42.27-.62.44-.2.15-.42.29-.62.44-.13.11-.27.2-.42.31-.22.16-.44.31-.66.48-.18.13-.35.26-.51.4-.11.09-.24.18-.35.27-.07.04-.13.09-.18.13-.07.05-.15.11-.2.15-.09.09-.2.17-.29.24-.13.09-.26.18-.38.29v-39.29l-3.63-6.14v-.04c-.31-.49-.7-.75-1.28-.84l-.71-.49,1.92-2.82c-1.52-.42-3.34-.24-5.26.55l-3.35-2.29c2.71-1.54,5.48-2.26,8.08-1.94.71.09,1.39.24,2.03.46,1.92.68,3.52,2,4.6,3.83l2.91,4.91c.68-.39,1.36-.75,2.02-1.12v35.93c-.22.13-.44.27-.66.4Z"/>
  <path class="cls-2" d="M208.3,233.46l.46.31v-.59c-.15.09-.31.18-.46.26v.02Z"/>
  <path class="cls-2" d="M201.42,229.09c.09-.05.2-.09.29-.15l-.29-.2v.35Z"/>
  <path class="cls-2" d="M201.42,204.49v15.73l7.24,4.99s.05-.04.09-.06v-23.94c-.73.39-1.47.75-2.2,1.12-1.72.82-3.45,1.54-5.13,2.16Z"/>
  <path class="cls-2" d="M201.42,228.73l.29.2c1.17-.57,2.35-1.17,3.56-1.83l-3.85-2.64v4.27Z"/>
  <path class="cls-2" d="M201.42,220.22v4.25l3.85,2.64c1.12-.6,2.25-1.25,3.39-1.92l-7.24-4.99v.02Z"/>
  <path class="cls-2" d="M208.3,233.45l-3.3-2.26c-.86.44-1.72.92-2.58,1.32-.33.17-.66.29-.99.46v3.83c.84-.37,1.69-.71,2.49-1.12,1.43-.68,2.9-1.43,4.36-2.24h.02Z"/>
  <path class="cls-2" d="M205,231.18l3.3,2.26c.15-.09.31-.17.46-.26v-3.68l-.26-.18c-1.15.66-2.33,1.27-3.5,1.85v.02Z"/>
  <path class="cls-2" d="M208.5,229.33l.26.18v-.33s-.18.11-.26.15Z"/>
  <path class="cls-2" d="M201.42,229.09v3.89c.33-.15.66-.29.99-.46.86-.42,1.72-.88,2.58-1.32l-3.28-2.26c-.09.06-.2.09-.29.15Z"/>
  <path class="cls-2" d="M208.75,225.26v-.11s-.05.04-.09.06l.09.05Z"/>
  <path class="cls-2" d="M205.27,227.11c-1.19.64-2.38,1.25-3.56,1.83l3.28,2.26c1.17-.6,2.33-1.21,3.5-1.85l-3.23-2.22v-.02Z"/>
  <path class="cls-2" d="M208.68,225.19c-1.14.68-2.27,1.32-3.39,1.92l3.23,2.22s.18-.11.26-.15v-3.92l-.09-.06v-.02Z"/>
  <path class="cls-1" d="M197.17,198.51c-8.61,2.77-16.22,2.24-21.83-1.63-5.55-3.81-8.76-10.65-9.31-19.6l31.14,21.23Z"/>
  <path class="cls-2" d="M208.5,197.36c-1.14.64-2.29,1.25-3.45,1.8-1.23.59-2.44,1.08-3.63,1.56v-3.78c-1.43.6-2.86,1.14-4.25,1.58l-31.14-21.23c-.09-1.36-.11-2.75-.07-4.2,1.28-.66,2.57-1.36,3.83-2.11l31.63,21.56,3.81,2.59,3.26,2.24Z"/>
  <path class="cls-2" d="M174.37,128.15c-7.29,11.42-12.48,24.03-14.39,36.13l-.2-.13c1.96-12.08,7.2-24.66,14.52-36.04l.07.04Z"/>
  <path class="cls-2" d="M162.42,174.82l-3.48-2.38c-.46,13.69,3.9,24.36,12.43,30.21,4.45,3.06,9.73,4.6,15.56,4.6,4.55,0,9.42-.93,14.5-2.79v-3.06l-.66-.44c-22.01,8.34-38.14-2.68-38.34-26.14Z"/>
  <path class="cls-2" d="M208.75,197.54v-.33s-.18.09-.27.15l.27.18Z"/>
  <path class="cls-2" d="M201.42,201.41v-.7c-.22.09-.44.18-.66.26l.66.44Z"/>
  <path class="cls-2" d="M162.44,174.51v.31l-3.48-2.37c.04-.92.09-1.83.17-2.79.15-1.81.37-3.67.68-5.52l.2.13c-.33,2.02-.57,4.01-.7,5.99l.09,2.15,3.06,2.09h-.02Z"/>
  <path class="cls-2" d="M208.75,197.54v3.67c-.73.38-1.47.75-2.2,1.1-1.72.82-3.43,1.56-5.13,2.18v-3.78c1.19-.48,2.4-.97,3.63-1.56,1.15-.55,2.31-1.15,3.45-1.8l.26.18Z"/>
  <path class="cls-2" d="M175.34,196.88c-5.55-3.81-8.76-10.65-9.33-19.6l-3.59-2.46c.2,23.45,16.35,34.47,38.34,26.14l-3.59-2.46c-8.63,2.75-16.24,2.22-21.83-1.63Z"/>
  <path class="cls-2" d="M208.75,193.16v4.05s-.16.09-.26.15l-3.26-2.24c1.17-.6,2.36-1.26,3.52-1.96Z"/>
  <path class="cls-2" d="M166.03,177.28l-3.61-2.46v-.31l.26.18,1.83-.88c.48-.24.95-.5,1.43-.73-.04,1.45,0,2.84.07,4.2h.02Z"/>
  <path class="cls-2" d="M201.42,196.94v3.78c-.2.09-.42.18-.64.26l-3.61-2.46c1.39-.44,2.82-.97,4.25-1.58Z"/>
  <path class="cls-2" d="M176.63,124.63c-.81,1.16-1.58,2.31-2.33,3.48l-.06-.06,2.38-3.43Z"/>
  <path class="cls-2" d="M201.42,99.18v.04c-.92.66-1.85,1.34-2.75,2.05-.92.7-1.81,1.43-2.71,2.16-1.03.84-2.03,1.72-3.04,2.62-.99.9-1.98,1.83-2.95,2.79-.51.51-1.04,1.03-1.54,1.56-.09.07-.16.15-.26.24-.11.11-.22.24-.35.37h-.02v.04s0,.04-.04.05c-.22.22-.42.44-.64.66-.24.24-.48.5-.71.75-.71.75-1.39,1.5-2.07,2.29-.77.88-1.54,1.78-2.29,2.71-.26.28-.48.57-.68.84-.49.59-.97,1.19-1.43,1.8-.15.16-.27.35-.38.51-.35.42-.68.86-.99,1.3-.66.88-1.3,1.76-1.92,2.66l1.76-2.57c6.82-9.26,14.77-17.09,23.04-22.88h-.02Z"/>
  <path class="cls-2" d="M195.96,103.44c-8.19,6.77-15.61,15.31-21.64,24.68l.06.04c5.99-9.37,13.4-17.93,21.59-24.73v.02Z"/>
  <path class="cls-3" d="M206.87,104.02c-.81.55-1.63,1.1-2.44,1.67.42-.29.82-.61,1.25-.88.38-.28.79-.53,1.19-.79Z"/>
  <path class="cls-3" d="M198.03,110.81c-.05.06-.11.09-.16.15-.16.15-.33.31-.48.46.22-.2.44-.4.66-.61h-.02Z"/>
  <path class="cls-3" d="M201.42,107.96s-.04,0-.05.04c-.2.16-.4.35-.6.51.22-.18.44-.37.66-.55Z"/>
  <path class="cls-3" d="M197.87,110.97s.11-.09.16-.15c-.05.05-.11.09-.16.15Z"/>
  <path class="cls-3" d="M201.42,107.96s-.04.02-.05.04c0,0,.04-.02.05-.04Z"/>
  <path class="cls-2" d="M169.79,170.98c-1.26.75-2.55,1.45-3.83,2.11.02-.93.07-1.89.15-2.86.04-.42.07-.84.13-1.27.11-.05.22-.13.33-.18l3.23,2.2Z"/>
  <path class="cls-2" d="M177.14,130.06l-2.77-1.91c-7.29,11.42-12.48,24.03-14.39,36.13l3.02,2.07c1.65-12.1,6.8-24.82,14.15-36.28l-.02-.02Z"/>
  <path class="cls-2" d="M163.01,166.36l-3.02-2.07c-.31,2.02-.55,4.01-.68,5.99l.07,2.14,3.06,2.09c0-1.47.04-2.99.16-4.55.09-1.19.24-2.4.4-3.61Z"/>
  <path class="cls-2" d="M163.21,166.48c1.59-12.12,6.69-24.88,14.02-36.35l-.09-.05c-7.35,11.46-12.48,24.18-14.15,36.28l.2.13h.02Z"/>
  <path class="cls-2" d="M164.53,173.82c.48-.24.95-.48,1.43-.73.02-.93.07-1.89.15-2.86.04-.42.09-.84.13-1.26-1.06.59-2.14,1.15-3.23,1.69-.11-.07-.09-.07-.22-.15.09-1.34.24-2.68.42-4.01l-.2-.13c-.17,1.21-.31,2.42-.4,3.61-.13,1.56-.16,3.08-.16,4.55l.27.18,1.83-.88h-.02Z"/>
  <path class="cls-2" d="M201.42,99.22v.04c-.92.66-1.83,1.32-2.75,2.02.9-.71,1.83-1.39,2.75-2.05Z"/>
  <path class="cls-2" d="M201.42,99.26v4.29c-.55.42-1.12.84-1.67,1.26-.55.42-1.08.86-1.63,1.32l-2.82,2.46c-.13.11-.27.22-.4.35-.33.29-.66.61-.99.9-.97.93-1.96,1.87-2.91,2.84-.51.53-1.03,1.06-1.54,1.61-.71.73-1.41,1.5-2.09,2.27-.62.7-1.23,1.39-1.83,2.11-.51.61-1.01,1.21-1.5,1.83-.7.86-1.39,1.76-2.07,2.66-.22.29-.48.59-.7.88l-.27.42c-1.34,1.81-2.62,3.68-3.85,5.59l-2.77-1.91c4.49-7.02,9.79-13.6,15.6-19.3.97-.95,1.96-1.89,2.95-2.79,1.01-.9,2.02-1.78,3.04-2.62.9-.73,1.8-1.47,2.71-2.16.92-.7,1.83-1.36,2.75-2.02Z"/>
  <path class="cls-2" d="M181.96,123.16c.68-.9,1.37-1.8,2.07-2.66-.71.88-1.39,1.76-2.07,2.66Z"/>
  <path class="cls-2" d="M179.16,127.2l-.04-.04,1.87-2.71c-1.34,1.83-2.62,3.7-3.85,5.61l.09.05c.62-.99,1.28-1.96,1.94-2.93l-.02.02Z"/>
  <path class="cls-2" d="M193.91,109.83c.33-.31.64-.6.97-.9-.33.29-.64.6-.97.9Z"/>
  <path class="cls-2" d="M190.99,112.68c.95-.97,1.92-1.91,2.91-2.84-.99.92-1.96,1.87-2.91,2.84Z"/>
  <path class="cls-2" d="M181.26,124.04l-.28.4c.31-.44.64-.86.97-1.3-.22.29-.46.59-.7.88v.02Z"/>
  <path class="cls-2" d="M187.37,116.56c.7-.77,1.39-1.54,2.09-2.29-.71.75-1.41,1.5-2.09,2.29Z"/>
  <path class="cls-2" d="M179.16,127.2c6.27-9.17,13.93-17.4,22.27-23.65-2.24,1.65-4.42,3.46-6.54,5.39-.33.29-.64.61-.97.9-.99.92-1.96,1.87-2.91,2.84-.51.53-1.03,1.06-1.54,1.61-.71.75-1.41,1.5-2.09,2.29-.62.7-1.23,1.39-1.83,2.11-.51.6-1.01,1.21-1.5,1.81-.71.88-1.39,1.76-2.07,2.66-.33.42-.66.86-.97,1.3l-1.87,2.71.04.04v-.02Z"/>
  <path class="cls-2" d="M166.27,168.57c0,.13-.02.26-.04.38.11-.05.22-.13.33-.18l-.29-.2Z"/>
  <path class="cls-2" d="M180.02,132.04l-2.79-1.91c-7.33,11.49-12.43,24.25-14.02,36.35l3.06,2.09c1.3-12.1,6.36-24.99,13.75-36.54Z"/>
  <path class="cls-2" d="M163.21,166.48c-.18,1.36-.33,2.69-.42,4.01.11.07.09.07.22.15,1.08-.51,2.16-1.1,3.23-1.69,0-.13.02-.26.04-.38l-3.06-2.09Z"/>
  <path class="cls-2" d="M200.76,108.51c-.6.49-1.21.95-1.8,1.47-.31.26-.62.55-.92.81.9-.79,1.81-1.56,2.73-2.29l-.02.02Z"/>
  <path class="cls-2" d="M183.99,126.26l.04.04c4-5.44,8.49-10.49,13.34-14.87-.86.79-1.72,1.56-2.57,2.38-.02.02-.06.06-.07.07-3.76,3.67-7.33,7.79-10.65,12.26l-.09.13v-.02Z"/>
  <path class="cls-2" d="M204.01,106c-.51.37-1.01.75-1.52,1.15-.13.07-.26.18-.38.28.42-.31.84-.64,1.25-.95.22-.17.44-.31.66-.48Z"/>
  <path class="cls-2" d="M194.73,113.87s.05-.06.07-.07c-.02.02-.05.06-.07.07Z"/>
  <path class="cls-2" d="M198.05,110.81c.31-.27.6-.55.92-.81-.31.27-.62.55-.92.81Z"/>
  <path class="cls-2" d="M203.35,106.48c-.29.22-.57.44-.86.68-.13.07-.26.18-.38.28.42-.31.84-.64,1.25-.95Z"/>
  <path class="cls-2" d="M182,129.14l-.06-.04c-.66.97-1.3,1.94-1.94,2.93l.07.05c.62-.99,1.25-1.98,1.91-2.95h.02Z"/>
  <path class="cls-2" d="M181.94,129.1l-2.79-1.91c-.66.97-1.3,1.94-1.94,2.93l2.79,1.91c.62-.99,1.26-1.96,1.94-2.93Z"/>
  <path class="cls-2" d="M201.37,108c-.81.64-1.61,1.3-2.4,1.98.59-.51,1.19-.99,1.8-1.47.2-.17.4-.35.6-.51Z"/>
  <path class="cls-2" d="M197.87,110.97c-1.03.92-2.05,1.85-3.06,2.82.84-.82,1.7-1.59,2.57-2.38.16-.15.31-.31.48-.46l.02.02Z"/>
  <path class="cls-2" d="M198.05,110.81l-.02.02.02-.02Z"/>
  <path class="cls-2" d="M184.05,126.3l-.04-.04.09-.13c3.3-4.47,6.89-8.58,10.65-12.26-4.67,4.55-9,9.72-12.79,15.23l.05.04c.66-.97,1.36-1.91,2.03-2.86v.02Z"/>
  <path class="cls-2" d="M201.42,103.55v4.42s0,.02-.04.04c-.22.17-.42.33-.62.51-.6.48-1.19.97-1.8,1.47-.2.18-.38.35-.59.53-.11.09-.22.2-.33.29h-.02l-.16.16c-.17.15-.33.29-.49.46-.86.75-1.72,1.56-2.57,2.37-.02.04-.06.05-.07.07-.95.93-1.91,1.89-2.82,2.88-.46.48-.9.95-1.32,1.45-.6.62-1.15,1.26-1.72,1.92-.33.37-.64.75-.95,1.14-.86,1.01-1.7,2.05-2.49,3.1-.48.59-.92,1.17-1.34,1.78-.75.97-1.45,1.96-2.14,2.97l-2.77-1.91c4.69-6.87,10.17-13.22,16.13-18.61.99-.9,2-1.78,3.02-2.6.48-.4.95-.79,1.43-1.17.55-.42,1.12-.84,1.67-1.26Z"/>
  <path class="cls-2" d="M203.35,106.48c-.29.22-.57.44-.86.68-.13.07-.26.18-.38.28.42-.31.84-.64,1.25-.95Z"/>
  <path class="cls-2" d="M189.11,56.59s-.04.02-.05.04l-11.09-7.63,11.14,7.59Z"/>
  <path class="cls-2" d="M158.72,27.26l-.06-.04-2,2.88.07.06,1.98-2.9Z"/>
  <path class="cls-2" d="M154.76,33.06l1.98-2.9-.07-.06-1.98,2.9.07.06Z"/>
  <path class="cls-2" d="M192.46,58.89s-.05.02-.09.04l-3.32-2.29s.04,0,.05-.04l3.35,2.29Z"/>
  <path class="cls-2" d="M192.37,58.92l3.35,2.31.06-.07-3.34-2.27s-.05.02-.07.04Z"/>
  <path class="cls-2" d="M199.22,55.11c-.64-.22-1.32-.37-2.03-.46-2.6-.31-5.37.4-8.08,1.94l-11.14-7.59-22.91-15.75,12.72,8.65,1.89-1.06c1.65-.93,3.32-1.81,4.97-2.64l24.6,16.9Z"/>
  <path class="cls-2" d="M167.94,37.79c1.14-.64,2.25-1.25,3.39-1.85l-12.63-8.67-1.98,2.9,11.2,7.63h.02Z"/>
  <path class="cls-2" d="M156.74,30.16l-1.98,2.9.29.2,12.7,8.65,1.91-1.06c1.65-.94,3.3-1.81,4.97-2.64l-3.3-2.27c-1.14.59-2.27,1.21-3.39,1.85l-11.2-7.63Z"/>
  <path class="cls-2" d="M197.72,58.34l-1.92,2.82-3.34-2.27c1.92-.79,3.74-.97,5.26-.55Z"/>
  <path class="cls-2" d="M148.29,124.85l-1.28,1.87-35.48-24.38c.73-1.36,1.47-2.71,2.25-4.03l1.04-1.8-.04-.04.18-.29,28.59,19.67c.26,1.06.64,2.07,1.17,2.99l3.56,6.01Z"/>
  <path class="cls-2" d="M114.81,96.51l-.04-.06-3.78,5.5.51.37c.73-1.36,1.47-2.7,2.25-4.03l1.04-1.78Z"/>
  <path class="cls-2" d="M144.74,118.84l3.56,6.03,2.2-3.19-1.06-1.8-5.85-4.01c.26,1.08.62,2.09,1.15,2.99v-.02Z"/>
  <path class="cls-2" d="M150.99,120.94l-1.56-1.08,1.06,1.8.49-.71Z"/>
  <path class="cls-3" d="M119.61,158.56l-3.98,5.79-35.26-24.27c.77-2.13,2-4.25,3.5-6.09l35.74,24.57Z"/>
  <path class="cls-2" d="M83.87,134c-1.5,1.83-2.73,3.96-3.5,6.09l-.73-.49,3.98-5.77.26.18Z"/>
  <path class="cls-2" d="M100.66,212.13l2.97-6.22-7.48-5.13,14.97,9.83-.11,1.32c-.26,3.35.51,6.29,2.14,8.4l-12.5-8.19Z"/>
  <path class="cls-2" d="M94.19,203.7l-1.91,2.93,5.41,3.56,1.48-3.08-4.98-3.41Z"/>
  <path class="cls-2" d="M103.63,205.92l-2.97,6.21-2.97-1.94,1.48-3.08-4.97-3.41,1.92-2.93.02.02,7.48,5.13Z"/>
  <path class="cls-2" d="M111.01,211.93c-.26,3.36.49,6.31,2.14,8.41l.6.4,1.92-2.92c-.81-1.23-1.25-2.92-1.17-4.99l-3.37-2.22-.11,1.32-.02-.02Z"/>
  <path class="cls-2" d="M115.67,217.8l1.92-2.93-3.1-2.03c-.07,2.05.37,3.74,1.17,4.99v-.02Z"/>
  <path class="cls-1" d="M191.14,236.92h-.02s-.05-.07-.09-.09l-2.33-1.65-6.6-4.66-1.3-.92-1.28-.92-1.98-1.39c-.15-.13-.18-.35-.06-.5l3.68-4.29.81-.95c.13-.15.09-.38-.07-.49l-.59-.42s-.02-.02-.04-.02l-3.15-2.15-14.55-10.01s-.07-.02-.11-.04c-.33-.27-.7-.49-1.17-.57l-13.27-2.26c-.55-.09-1.15-.02-1.78.18-.51.18-1.04.46-1.56.82-.26.18-.53.39-.79.61-.07.05-.15.13-.22.2-.22.18-.42.4-.62.62-.27.27-.51.59-.75.9-.2.28-.4.57-.59.88-.05.07-.11.15-.15.24-.04.07-.07.16-.13.24-.09.15-.18.31-.26.48l-2.84,5.88h-.04c-.6.2-1.19.42-1.81.66-.86.35-1.76.73-2.66,1.15-.4.2-.81.39-1.19.62-.51.24-1.03.51-1.52.81l-5.02-3.41c-1.41-.61-3.56.16-5.44,2.16l-13.6,14.43-1.08,1.15c-2.46,2.6-3.52,6.29-2.36,8.23l2.09,3.54c-2.05,3.52-3.83,7.17-5.24,10.84l-4.91,2.35c-2.69,1.3-5.08,4.75-5.31,7.74l-1.39,17.84c-.15,1.69.46,2.84,1.47,3.3.04.06.05.09.09.13l7.94,5.44,2.22,1.52-.66,1.36-.66,1.37c-1.41,2.95-1.06,5.63.7,6.34l15.43,10.51,1.96,1.32s.09.06.15.04c.09,0,.18,0,.26-.07l.97-.86,4.09-3.61s.06-.04.07-.05l1.72-.85,1.7-.82,17.23-8.45c.11-.06.24-.04.35.02l3.85,2.66,1.45.99,4.34,2.99s.04.02.06.02c.18.09.4-.02.46-.22l.29-1.34,1.3-5.87s0-.05.04-.09l19.35-33.51,14.53-28.6.6-1.17s.04-.2,0-.31v-.02ZM122.8,219.71c1.41-1.48,2.86-2.05,3.59-1.83l15.12,10.39c-.84.46-1.67,1.12-2.44,1.96l-13.78,14.63-15.93-10.89,13.43-14.26ZM105.96,241.67c-.16-.29-.26-.68-.26-1.14,0-.18.02-.37.04-.57.09-.75.38-1.65.86-2.53.06-.13.13-.28.22-.4.13-.24.29-.48.46-.71l15.96,10.93c-1.74,2.42-2.46,5.21-1.94,7.35l-12.72-8.74-.09.13-2.53-4.31ZM101.81,302.94l-.27-.15c-.13-.06-.33-.17-.48-.55-.26-.66-.24-2,.59-3.68l.57-1.19,1.32-2.75-3.34-2.29-7.64-5.24-.13-.22-.46-.22c-.62-.29-.6-1.32-.59-1.76l1.41-17.84c.05-.55.18-1.12.4-1.69.33-.95.88-1.89,1.54-2.71.73-.88,1.61-1.63,2.49-2.05l5.48-2.6.22-.59c1.12-2.97,2.49-5.92,4.11-8.82l15.78,10.84.57-.84.06.09c-1.81,3.17-3.37,6.43-4.66,9.7l-4.36,2.07c-1.59.75-3.08,2.13-4.2,3.76-1.12,1.61-1.85,3.48-2,5.26l-1.36,17.25-.05.59c-.11,1.5.22,2.81.97,3.74.22.33.49.59.82.81,1.3.88,3.08.92,4.88.06l3.41-1.63c.77,1.72,1.72,3.28,2.84,4.64l-2.38,4.95c-.49,1.05-.82,2.07-.95,3.02l-14.61-9.94h.02Z"/>
  <path class="cls-2" d="M192,235.6s-.05-.06-.07-.07l-9.15-6.47-1.28-.9-1.3-.92-.66-.48,1.65-1.92,1.69-1.96.29-.33c.33-.42.49-.95.42-1.48-.07-.53-.37-1.01-.81-1.3l-.79-.53s0-.02-.02-.02l-17.52-12.04-.18-.11c-.51-.4-1.1-.66-1.72-.75l-13.27-2.26c-1.12-.18-2.35.07-3.54.7-.13.07-.27.15-.4.22l-.51.35c-.2.15-.42.29-.6.46-.4.31-.79.66-1.15,1.04-.22.24-.44.48-.66.73-.22.26-.42.53-.6.81-.09.13-.2.27-.27.42-.09.15-.18.27-.26.42-.16.27-.33.57-.48.88l-2.55,5.28c-.77.28-1.52.57-2.27.88-.6.26-1.19.53-1.8.81-.64.31-1.3.66-1.96,1.01l-2.29-1.56-1.91-1.3h-.02l-.26-.15c-2.11-.92-4.88.06-7.2,2.51l-14.68,15.58c-2.99,3.19-4.11,7.53-2.58,10.1l1.63,2.75c-1.8,3.19-3.37,6.44-4.66,9.7l-4.34,2.07c-3.21,1.54-5.92,5.5-6.21,9.04l-1.39,17.82c-.16,2.03.53,3.7,1.91,4.58l8.3,5.72,1.08.75-.73,1.52c-1.08,2.24-1.34,4.47-.68,6.16.38,1.05,1.08,1.81,2.02,2.24l17.25,11.73h.04c.31.22.7.33,1.04.33.46,0,.9-.17,1.25-.48l.17-.15,1.5-1.32,3.26-2.9,2.33-1.14,17.56-8.6,2.57,1.76,1.47,1.03h.02l1.43.99,3.56,2.44s.09.05.15.09c.49.27,1.1.31,1.63.11.44-.18.77-.5.97-.9.09-.15.15-.29.18-.46l.26-1.14,1.3-5.87,19.3-33.46,13.4-26.34,1.5-2.92.24-.49c.4-.79.18-1.78-.53-2.33h-.02ZM155.33,299.69l-1.15,4.82-.29,1.19-1.37-.95-.86-.6-1.39-.95-4.49-3.1c-.55-.39-1.28-.44-1.91-.13l-16.27,7.97-1.69.82-1.7.83-.95.47-3.7,3.19-1.12.95-.49-.33-1.48-1.01-14.61-9.94-.27-.15c-.13-.06-.33-.17-.48-.55-.26-.66-.24-2,.59-3.68l.57-1.19,1.32-2.75-3.34-2.29-7.64-5.24-.13-.22-.46-.22c-.62-.29-.6-1.32-.59-1.76l1.41-17.84c.05-.55.18-1.12.4-1.69.33-.95.88-1.89,1.54-2.71.73-.88,1.61-1.63,2.49-2.05l5.48-2.6.22-.59c1.12-2.97,2.49-5.92,4.11-8.82.31-.6.66-1.21,1.01-1.8l.46-.79h-.02l-2.53-4.33c-.16-.29-.26-.68-.26-1.14,0-.18.02-.37.04-.57.09-.75.38-1.65.86-2.53.06-.13.13-.28.22-.4.13-.24.29-.48.46-.71.26-.35.53-.7.84-1.03l.17-.18,1.08-1.14,13.43-14.26c1.41-1.48,2.86-2.05,3.59-1.83l5.64,3.85.84-.48c.73-.42,1.48-.81,2.22-1.17.15-.07.27-.13.42-.2,1.17-.57,2.35-1.06,3.56-1.48h.02c.24-.11.49-.18.75-.27l.62-.2.16-.35,2.95-6.12c.2-.42.44-.82.71-1.21.11-.18.24-.37.38-.53.15-.2.31-.38.48-.57.18-.22.38-.4.59-.59.46-.4.92-.73,1.36-.97.64-.35,1.23-.51,1.67-.44l.57.09h.02l12.68,2.15s.22.05.38.22l12.04,8.25,3.08,2.09,2.35,1.63-.27.31-3.34,3.91c-.35.4-.49.93-.44,1.47.07.51.37.99.79,1.3l2.18,1.54,1.3.92,1.28.92,5.53,3.91,1.48,1.04.84.6-.48.95-14.15,27.79-19.32,33.48Z"/>
  <path class="cls-3" d="M141.51,228.27c-.84.46-1.67,1.12-2.44,1.96l-13.78,14.63-15.93-10.89,13.43-14.26c1.41-1.48,2.86-2.05,3.59-1.83l15.12,10.4Z"/>
  <path class="cls-3" d="M145.69,206.6c-1.36.93-2.66,2.4-3.5,4.16l-2.84,5.88h-.04l27.29,18.77,6.74-9.81-27.66-19.01Z"/>
  <path class="cls-2" d="M167,237.6l-31.16-21.43,2.38-.79,2.55-5.3c.93-1.94,2.36-3.63,4.03-4.77l.88-.6,29.82,20.5-8.5,12.37v.02ZM141.33,216.15l24.87,17.1,4.97-7.24-25.42-17.47c-.88.79-1.63,1.8-2.16,2.9l-2.27,4.71h.02Z"/>
  <path class="cls-3" d="M124.81,275.42l8.5-23.19-6.51-4.45-1.3-.9-1.28-.88-15.94-10.89-1.3-.88c-2.46,2.6-3.52,6.29-2.36,8.23l2.09,3.54c-2.05,3.52-3.83,7.17-5.24,10.84l-4.91,2.35c-2.69,1.3-5.08,4.75-5.31,7.74l-1.39,17.84c-.15,1.69.46,2.84,1.47,3.3.04.06.06.09.09.13l7.94,5.44,2.22,1.52-.66,1.36-.66,1.37c-1.41,2.95-1.06,5.63.7,6.34l15.43,10.51,1.96,1.32s.09.05.15.04c.09,0,.18,0,.26-.07l.97-.86,4.09-3.61s.05-.04.07-.06l1.72-.84c.09-.62.18-1.25.29-1.87.79-5.37,1.56-10.65,1.48-10.85-.17-.42-2.55-22.49-2.55-22.49ZM105.96,241.67c-.16-.29-.26-.68-.26-1.14,0-.18.02-.37.04-.57.09-.75.38-1.65.86-2.53.05-.13.13-.28.22-.4.13-.24.29-.48.46-.71l15.96,10.93c-1.74,2.42-2.46,5.21-1.94,7.35l-12.72-8.74-.09.13-2.53-4.31ZM101.81,302.94l-.28-.15c-.13-.06-.33-.17-.48-.55-.26-.66-.24-2,.59-3.68l.57-1.19,1.32-2.75-3.34-2.29-7.64-5.24-.13-.22-.46-.22c-.62-.29-.6-1.32-.59-1.76l1.41-17.84c.05-.55.18-1.12.4-1.69.33-.95.88-1.89,1.54-2.71.73-.88,1.61-1.63,2.49-2.05l5.48-2.6.22-.59c1.12-2.97,2.49-5.92,4.11-8.82l15.78,10.84.57-.84.05.09c-1.81,3.17-3.37,6.43-4.66,9.7l-4.36,2.07c-1.59.75-3.08,2.13-4.2,3.76-1.12,1.61-1.85,3.48-2,5.26l-1.36,17.25-.06.59c-.11,1.5.22,2.81.97,3.74.22.33.49.59.82.81,1.3.88,3.08.92,4.88.06l3.41-1.63c.77,1.72,1.72,3.28,2.84,4.64l-2.38,4.95c-.49,1.05-.82,2.07-.95,3.02l-14.61-9.94h.02Z"/>
  <path class="cls-2" d="M126.41,275.62l8.78-23.98-7.31-5-1.3-.88-1.28-.9-15.93-10.89-1.3-.9-1.3-.88-.92.95c-2.99,3.19-4.11,7.53-2.58,10.1l1.63,2.75c-1.8,3.19-3.37,6.44-4.66,9.7l-4.34,2.07c-3.21,1.54-5.92,5.5-6.21,9.04l-1.39,17.82c-.16,2.03.53,3.7,1.91,4.58l8.3,5.72,1.08.75-.73,1.52c-1.08,2.24-1.34,4.47-.68,6.16.38,1.05,1.08,1.81,2.02,2.24l17.25,11.73h.04c.31.22.7.33,1.04.33.46,0,.9-.17,1.25-.48l.17-.15,1.5-1.32,3.26-2.9,2.33-1.14.11-.81c.05-.36.11-.71.16-1.06.09-.66.18-1.28.27-1.87,1.5-9.95,1.45-10.1,1.32-10.39-.16-.9-1.56-13.47-2.47-21.93ZM124.17,309.6l-.95.47-3.7,3.19-1.12.95-.49-.33-1.48-1.01-14.61-9.94-.27-.15c-.13-.06-.33-.17-.48-.55-.26-.66-.24-2,.59-3.68l.57-1.19,1.32-2.75-3.34-2.29-7.64-5.24-.13-.22-.46-.22c-.62-.29-.6-1.32-.59-1.76l1.41-17.84c.05-.55.18-1.12.4-1.69.33-.95.88-1.89,1.54-2.71.73-.88,1.61-1.63,2.49-2.05l5.48-2.6.22-.59c1.12-2.97,2.49-5.92,4.11-8.82.31-.6.66-1.21,1.01-1.8l.46-.79h-.02l-2.53-4.33c-.16-.29-.26-.68-.26-1.14,0-.18.02-.37.04-.57.09-.75.38-1.65.86-2.53.06-.13.13-.27.22-.4.13-.24.29-.48.46-.71l15.96,10.93,1.28.86,1.28.88,5.63,3.85-8.21,22.4.04.37c1.85,17.07,2.36,21.27,2.57,22.4-.04.42-.26,2.4-1.65,11.59Z"/>
  <path class="cls-2" d="M119.76,304.9l-2.38,4.95c-.49,1.04-.82,2.07-.95,3.02l-14.61-9.94-.27-.15c-.13-.05-.33-.16-.48-.55-.26-.66-.24-2,.59-3.69l.57-1.19,5.57,3.67c.22.33.49.59.82.81,1.3.88,3.08.92,4.88.05l3.41-1.63c.77,1.72,1.72,3.28,2.84,4.64h.02Z"/>
  <path class="cls-2" d="M121.3,254.59l-12.72-8.74-.09.13-2.53-4.31c-.17-.29-.26-.68-.26-1.14,0-.18.02-.37.04-.57.09-.75.38-1.65.86-2.53.05-.13.13-.27.22-.4.13-.24.29-.48.46-.72l15.96,10.93c-1.74,2.42-2.46,5.21-1.94,7.35Z"/>
  <path class="cls-2" d="M110.23,274.19c-1.12,1.61-1.85,3.48-2,5.26l-1.36,17.25-6.67-4.38-7.64-5.24-.13-.22-.46-.22c-.62-.29-.6-1.32-.59-1.76l1.41-17.84c.05-.55.18-1.12.4-1.69l15.67,10.78,1.36-1.94Z"/>
  <path class="cls-2" d="M123.44,258.66c-1.81,3.17-3.37,6.44-4.66,9.7l-4.36,2.07c-1.59.75-3.08,2.13-4.2,3.76l.42-.62-15.91-10.93c.73-.88,1.61-1.63,2.49-2.05l5.48-2.6.22-.59c1.12-2.97,2.49-5.92,4.11-8.82l15.78,10.83.57-.84.06.09Z"/>
  <path class="cls-1" d="M140.12,314.14l2.84-5.89c1.47-.5,2.97-1.08,4.51-1.81,1.54-.73,3.06-1.58,4.56-2.51l2.09,3.54c1.15,1.95,4.07,1.39,6.52-1.21l14.68-15.58c2.46-2.6,3.52-6.29,2.36-8.23l-2.09-3.54c2.05-3.52,3.81-7.17,5.22-10.85l4.91-2.35c2.69-1.28,5.08-4.75,5.32-7.74l1.41-17.84c.24-2.99-1.76-4.36-4.47-3.08l-4.91,2.35c-.92-2.57-2.22-4.75-3.87-6.51l2.84-5.88c1.56-3.23,1.01-6.16-1.21-6.53l-13.27-2.26c-2.22-.38-5.28,1.94-6.84,5.17l-2.82,5.88c-1.47.5-2.97,1.08-4.51,1.81-1.54.73-3.06,1.58-4.56,2.51l-2.09-3.54c-1.15-1.94-4.07-1.39-6.52,1.21l-14.68,15.58c-2.46,2.6-3.52,6.29-2.36,8.23l2.09,3.54c-2.05,3.52-3.81,7.17-5.22,10.85l-4.91,2.35c-2.69,1.28-5.08,4.75-5.31,7.74l-1.41,17.84c-.24,2.99,1.76,4.36,4.47,3.08l4.91-2.35c.92,2.57,2.22,4.75,3.87,6.51l-2.84,5.89c-1.56,3.23-1.01,6.16,1.21,6.53l13.27,2.25c2.22.39,5.28-1.94,6.84-5.17h-.02Z"/>
  <path class="cls-2" d="M192.2,235.71s-.13-.09-.2-.11c-.93-.57-2.07-.7-3.3-.44-.46.11-.93.28-1.39.5l-.37.16-3.04,1.47c-.77-1.72-1.7-3.26-2.84-4.64l.35-.73.7-1.41.68-1.45.66-1.36c1.21-2.49,1.37-4.93.48-6.67-.42-.82-1.08-1.45-1.92-1.8,0,0,0,0-.02-.02-.28-.11-.57-.2-.88-.26l-2.97-.49-3.67-.62-6.65-1.14c-1.14-.18-2.38.07-3.61.73-.48.24-.95.55-1.41.92-.42.31-.82.68-1.19,1.08-.9.92-1.69,2.04-2.29,3.3l-2.09,4.34-.46.95c-.2.07-.38.15-.59.22-.59.2-1.17.44-1.74.68h-.02c-.59.24-1.14.49-1.7.77-1.08.53-2.2,1.12-3.34,1.78l-1.3-2.18c-.48-.82-1.17-1.39-2.03-1.7h-.02c-.27-.09-.59-.16-.9-.2-1.15-.15-2.4.17-3.61.88-.84.46-1.67,1.12-2.44,1.96l-13.78,14.63-.9.95s-.11.11-.16.18c-.37.4-.7.82-.99,1.25-1.74,2.42-2.46,5.21-1.94,7.35.11.48.28.92.51,1.32l1.58,2.66.05.09c-1.81,3.17-3.37,6.44-4.66,9.7l-4.36,2.07c-1.59.75-3.08,2.13-4.2,3.76-1.12,1.61-1.85,3.48-2,5.26l-1.36,17.25-.06.59c-.11,1.5.22,2.81.97,3.74.22.33.49.59.82.81,1.3.88,3.08.92,4.88.06l3.41-1.63c.77,1.72,1.72,3.28,2.84,4.64l-2.38,4.95c-.49,1.04-.82,2.07-.95,3.02-.09.66-.11,1.28-.05,1.85.07.66.26,1.27.53,1.8.15.29.33.57.53.81h.04c.59.68,1.36,1.12,2.27,1.27l13.27,2.26c.24.04.49.05.75.05,2.8,0,6.01-2.48,7.75-6.09l2.55-5.3c1.39-.48,2.75-1.05,4.05-1.67.64-.31,1.28-.64,1.94-.99.46-.26.93-.51,1.41-.79l1.28,2.18c.27.46.6.84,1.01,1.14.55.42,1.21.7,1.96.77,1.92.22,4.14-.81,6.05-2.84l14.68-15.58c2.99-3.17,4.11-7.52,2.58-10.1l-1.63-2.75c1.81-3.17,3.37-6.44,4.66-9.68l4.34-2.09c3.21-1.52,5.92-5.48,6.21-9.02l1.39-17.84c.16-1.98-.49-3.65-1.8-4.55h.02ZM189.49,257.86c-.2,2.44-2.22,5.39-4.44,6.45l-5.48,2.6-.22.59c-1.36,3.58-3.08,7.13-5.11,10.62l-.46.79,2.55,4.33c.7,1.17-.07,4.16-2.16,6.38l-14.68,15.58c-1.01,1.08-1.98,1.63-2.69,1.82-.29.07-.53.09-.73.05-.29-.04-.48-.15-.62-.39l-.13-.2-1.14-1.96-1.63-2.75-1.36.85c-.31.2-.64.38-.95.58-.51.29-1.03.59-1.52.85-.55.29-1.06.57-1.58.81-.13.07-.24.13-.37.18-1.41.68-2.82,1.25-4.33,1.76l-.62.2-3.12,6.47c-1.32,2.75-3.83,4.51-5.19,4.31l-12.1-2.05-1.17-.2c-.26-.04-.42-.15-.55-.36,0-.02,0-.04-.04-.06-.18-.37-.27-.99-.15-1.83.09-.59.29-1.28.68-2.05l3.28-6.84-.71-.79c-1.52-1.61-2.69-3.63-3.54-5.96l-.59-1.63-6.47,3.08c-.77.37-1.43.44-1.78.18-.35-.24-.53-.88-.46-1.72l1.41-17.84c.18-2.44,2.22-5.39,4.42-6.45l5.48-2.6.22-.59c1.37-3.56,3.1-7.13,5.13-10.61l.46-.79-2.57-4.33c-.59-.99-.11-3.3,1.32-5.33.26-.37.53-.71.84-1.04l.16-.17,1.06-1.14,13.47-14.28c1.41-1.5,2.73-1.98,3.43-1.87.29.04.48.15.6.39l2.91,4.91,1.34-.84c1.52-.93,3.01-1.74,4.42-2.42,1.14-.55,2.31-1.04,3.5-1.45.27-.11.57-.2.84-.29l.62-.22.13-.27.68-1.41,2.31-4.78c.55-1.15,1.3-2.13,2.09-2.84.44-.42.9-.75,1.34-.99.64-.37,1.26-.53,1.74-.48l.42.07,11.91,2.02.95.16c.27.04.44.17.57.42v.04c.22.44.31,1.26,0,2.35-.11.46-.29.95-.55,1.5l-.44.9-.68,1.43-.7,1.41-1.48,3.1.73.79c1.5,1.63,2.69,3.63,3.54,5.98l.57,1.61,6.47-3.08s.11-.05.15-.05c.71-.31,1.3-.37,1.63-.13.04.02.07.05.11.11.29.27.42.86.37,1.61l-.11,1.32-1.3,16.52h.04Z"/>
  <path class="cls-1" d="M148.62,291.61c-11.42,5.44-19.87-.37-18.86-12.98.99-12.61,11.05-27.24,22.47-32.69,11.42-5.44,19.87.37,18.86,12.98-.99,12.61-11.05,27.24-22.47,32.69Z"/>
  <path class="cls-2" d="M140.58,295.22c-2.58,0-4.93-.68-6.93-2.04-4.05-2.77-5.97-7.99-5.44-14.67,1.03-13.09,11.51-28.32,23.35-33.97,6.05-2.88,11.6-2.95,15.63-.17,4.05,2.79,5.97,7.99,5.46,14.67-1.03,13.09-11.51,28.32-23.35,33.97-3.08,1.47-6.03,2.2-8.72,2.2ZM160.26,245.46c-2.22,0-4.71.64-7.37,1.91-10.94,5.22-20.64,19.3-21.59,31.4-.44,5.52,1.03,9.73,4.11,11.84,3.08,2.13,7.53,1.98,12.54-.4,10.94-5.22,20.64-19.3,21.57-31.4.44-5.52-1.03-9.73-4.11-11.84-1.45-.99-3.19-1.48-5.17-1.48l.02-.02Z"/>
  <path class="cls-3" d="M163.74,277.95c4.07-5.92,6.84-12.72,7.33-19.03.99-12.61-7.46-18.43-18.86-12.98-5.26,2.51-10.23,6.99-14.15,12.3l-.95,1.39,26.65,18.31h-.02Z"/>
  <path class="cls-2" d="M164.15,280.11l-29.21-20.09,1.83-2.68c4.27-5.77,9.49-10.3,14.75-12.81,6.05-2.88,11.6-2.93,15.63-.16,4.05,2.79,5.97,7.99,5.46,14.67-.49,6.36-3.21,13.4-7.59,19.8l-.88,1.28ZM139.27,259.21l24.06,16.54c3.57-5.59,5.77-11.57,6.19-16.98.44-5.52-1.03-9.73-4.11-11.84-3.08-2.13-7.53-1.98-12.54.4-4.8,2.29-9.62,6.49-13.56,11.82l-.04.06h-.02Z"/>
  <path class="cls-3" d="M152.32,245.98s-.04-.04-.09-.06c-11.47,5.54-21.55,20.31-22.4,32.96.05.04.04.04.09.06,11.47-5.54,21.55-20.31,22.4-32.96Z"/>
  <path class="cls-2" d="M129.8,280.74l-1.48-1.01-.04-.95c.88-13.13,11.31-28.51,23.28-34.26l.81-.38,1.48,1.01.04.95c-.88,13.13-11.31,28.51-23.28,34.26l-.81.39ZM150.44,248.67c-9.16,5.61-16.92,17.01-18.71,27.52,9.16-5.61,16.92-17.01,18.71-27.52Z"/>
  <path class="cls-2" d="M156.59,223.34l-.88,1.28-.88,1.28-1.48-1.03-1.48-1.01-15.12-10.4-.16-.11.88-1.28.9-1.28,1.91,1.3,3.74,2.59,1.45.99,10.92,7.52h.02l.2.15Z"/>
  <path class="cls-2" d="M134.93,252.45l-.22.31-.97,1.41-.57.84-15.78-10.83-.22-.17,1.67-2.44.09-.13,12.72,8.74,2.6,1.8h.02l.66.46Z"/>
  <path class="cls-3" d="M121,269.17l-.42.62-1.36,1.94-15.67-10.78c.33-.95.88-1.89,1.54-2.71l15.91,10.93Z"/>
  <path class="cls-2" d="M105.09,258.24c-.66.83-1.21,1.76-1.54,2.71l-.33-.22,1.76-2.57.11.07Z"/>
  <path class="cls-3" d="M112.57,292.96l1.32-2.75-3.34-2.29,6.67,4.38-.06.59c-.11,1.5.22,2.81.97,3.74l-5.57-3.67Z"/>
  <path class="cls-2" d="M110.56,287.92l3.34,2.29-1.32,2.75-1.32-.86-2.4-1.58.84-1.3.86-1.3Z"/>
  <path class="cls-2" d="M120.1,294.19l-.86,1.3-.86,1.3-.22-.15c-.75-.95-1.08-2.26-.97-3.76l.05-.59,1.48.97,1.39.92h-.02Z"/>
</svg>