<?xml version="1.0" encoding="UTF-8"?>
<svg id="Layer_1" data-name="Layer 1" xmlns="http://www.w3.org/2000/svg" viewBox="0 0 1080 234.38">
  <defs>
    <style>
      .cls-1 {
        fill: #eb9a37;
      }

      .cls-2 {
        fill: #fff;
      }
    </style>
  </defs>
  <g>
    <path class="cls-2" d="M409.91,79.6v22.52h-7.59v-57.53h21.22c6.3,0,11.23,1.61,14.8,4.82,3.57,3.21,5.35,7.47,5.35,12.76,0,5.58-1.75,9.88-5.24,12.9-3.49,3.02-8.49,4.52-15,4.52h-13.55ZM409.91,73.4h13.63c4.06,0,7.17-.96,9.33-2.87,2.16-1.91,3.24-4.68,3.24-8.29s-1.08-6.17-3.24-8.23c-2.16-2.06-5.12-3.13-8.89-3.21h-14.07v22.6Z"/>
    <path class="cls-2" d="M497.58,102.13h-7.63v-26.59h-29v26.59h-7.59v-57.53h7.59v24.73h29v-24.73h7.63v57.53Z"/>
  </g>
  <g>
    <path class="cls-2" d="M527.97,73.48l15.01-28.88h8.61l-19.83,36.07v21.45h-7.59v-21.45l-19.83-36.07h8.69l14.94,28.88Z"/>
    <path class="cls-2" d="M558.39,60.8l-4.15-2.84c2.45-3.42,3.71-7.03,3.79-10.83v-5.69h7.23v5.14c-.03,2.63-.68,5.26-1.96,7.88-1.28,2.62-2.92,4.74-4.92,6.34Z"/>
    <path class="cls-2" d="M617.66,94.58c-1.95,2.79-4.67,4.88-8.16,6.26s-7.55,2.07-12.19,2.07-8.85-1.1-12.49-3.3c-3.63-2.2-6.45-5.33-8.44-9.38-1.99-4.06-3.01-8.76-3.06-14.11v-5.02c0-8.67,2.02-15.38,6.07-20.15,4.04-4.77,9.73-7.15,17.05-7.15,6.01,0,10.84,1.53,14.5,4.6,3.66,3.07,5.9,7.42,6.72,13.06h-7.59c-1.42-7.64-5.95-11.46-13.59-11.46-5.08,0-8.94,1.79-11.56,5.36-2.62,3.57-3.95,8.75-3.97,15.52v4.71c0,6.46,1.47,11.59,4.42,15.4,2.95,3.81,6.94,5.71,11.97,5.71,2.84,0,5.33-.31,7.47-.95,2.13-.63,3.9-1.7,5.29-3.19v-12.89h-13.32v-6.2h20.86v21.1Z"/>
    <path class="cls-2" d="M638.44,102.13h-7.59v-57.53h7.59v57.53Z"/>
    <path class="cls-2" d="M692.06,50.8h-18.49v51.33h-7.55v-51.33h-18.45v-6.2h44.49v6.2Z"/>
  </g>
  <g>
    <path class="cls-2" d="M731.33,87.07h-24.1l-5.41,15.05h-7.82l21.97-57.53h6.64l22.01,57.53h-7.78l-5.49-15.05ZM709.52,80.87h19.56l-9.8-26.91-9.76,26.91Z"/>
    <path class="cls-2" d="M759.98,95.92h27.26v6.2h-34.89v-57.53h7.62v51.33Z"/>
  </g>
  <g>
    <path class="cls-2" d="M442.07,131.72h-18.49v51.33h-7.55v-51.33h-18.45v-6.2h44.49v6.2Z"/>
    <path class="cls-2" d="M483.12,156.46h-24.93v20.39h28.96v6.2h-36.55v-57.53h36.15v6.2h-28.57v18.53h24.93v6.2Z"/>
    <path class="cls-2" d="M538.91,164.79c-.71,6.08-2.96,10.78-6.74,14.09-3.78,3.31-8.8,4.96-15.07,4.96-6.8,0-12.24-2.44-16.34-7.31-4.1-4.87-6.14-11.39-6.14-19.56v-5.53c0-5.35.95-10.05,2.86-14.11,1.91-4.06,4.62-7.17,8.12-9.34,3.5-2.17,7.56-3.26,12.17-3.26,6.11,0,11.01,1.71,14.7,5.12,3.69,3.41,5.83,8.13,6.44,14.17h-7.63c-.66-4.6-2.09-7.93-4.29-9.99-2.2-2.06-5.28-3.09-9.23-3.09-4.85,0-8.65,1.79-11.4,5.38-2.75,3.59-4.13,8.69-4.13,15.3v5.58c0,6.25,1.3,11.22,3.91,14.91s6.26,5.54,10.94,5.54c4.21,0,7.45-.95,9.7-2.86,2.25-1.91,3.75-5.24,4.48-9.98h7.63Z"/>
    <path class="cls-2" d="M593.48,183.05h-7.63v-26.59h-29v26.59h-7.59v-57.53h7.59v24.73h29v-24.73h7.63v57.53Z"/>
    <path class="cls-2" d="M643.93,157.4c-6.51-1.87-11.24-4.17-14.2-6.9-2.96-2.73-4.45-6.09-4.45-10.09,0-4.53,1.81-8.28,5.43-11.24,3.62-2.96,8.33-4.45,14.12-4.45,3.95,0,7.47.76,10.57,2.29,3.1,1.53,5.49,3.64,7.19,6.32,1.7,2.69,2.55,5.62,2.55,8.81h-7.63c0-3.49-1.11-6.23-3.32-8.23-2.21-2-5.33-2.99-9.36-2.99-3.74,0-6.66.83-8.75,2.47-2.09,1.65-3.14,3.94-3.14,6.87,0,2.35.99,4.34,2.98,5.96,1.99,1.62,5.37,3.11,10.15,4.45s8.52,2.83,11.22,4.45,4.7,3.51,6.01,5.67c1.3,2.16,1.96,4.7,1.96,7.63,0,4.66-1.82,8.4-5.45,11.2-3.64,2.81-8.5,4.21-14.58,4.21-3.95,0-7.64-.76-11.06-2.27s-6.06-3.59-7.92-6.22c-1.86-2.63-2.79-5.62-2.79-8.97h7.62c0,3.48,1.28,6.22,3.85,8.24,2.57,2.01,6,3.02,10.29,3.02,4,0,7.07-.82,9.21-2.45,2.13-1.63,3.2-3.86,3.2-6.68s-.99-5-2.96-6.54-5.56-3.06-10.75-4.56Z"/>
    <path class="cls-2" d="M714.74,131.72h-18.49v51.33h-7.55v-51.33h-18.45v-6.2h44.49v6.2Z"/>
  </g>
  <g>
    <path class="cls-2" d="M752.63,167.99h-24.1l-5.41,15.05h-7.82l21.97-57.53h6.64l22.01,57.53h-7.78l-5.49-15.05ZM730.82,161.79h19.56l-9.8-26.91-9.76,26.91Z"/>
    <path class="cls-2" d="M794.75,159.77h-13.51v23.27h-7.63v-57.53h19.04c6.48,0,11.46,1.48,14.96,4.43,3.49,2.95,5.24,7.24,5.24,12.88,0,3.58-.97,6.7-2.9,9.36-1.94,2.66-4.63,4.65-8.08,5.97l13.51,24.42v.47h-8.14l-12.49-23.27ZM781.24,153.57h11.66c3.77,0,6.76-.98,8.99-2.93,2.23-1.95,3.34-4.57,3.34-7.84,0-3.56-1.06-6.29-3.18-8.19-2.12-1.9-5.18-2.86-9.19-2.89h-11.62v21.85Z"/>
  </g>
  <g>
    <path class="cls-2" d="M862.99,131.72h-18.49v51.33h-7.55v-51.33h-18.45v-6.2h44.49v6.2Z"/>
    <path class="cls-2" d="M912.02,125.52v39.12c-.03,5.43-1.73,9.86-5.12,13.32s-7.97,5.39-13.77,5.81l-2.01.08c-6.3,0-11.31-1.7-15.05-5.1-3.74-3.4-5.64-8.07-5.69-14.03v-39.2h7.51v38.96c0,4.16,1.15,7.4,3.44,9.7,2.29,2.3,5.56,3.46,9.8,3.46s7.58-1.15,9.86-3.44,3.42-5.52,3.42-9.68v-39h7.63Z"/>
    <path class="cls-2" d="M931.58,160.52v22.52h-7.59v-57.53h21.22c6.3,0,11.23,1.61,14.8,4.82,3.57,3.21,5.35,7.47,5.35,12.76,0,5.58-1.75,9.88-5.24,12.9-3.49,3.02-8.49,4.52-14.99,4.52h-13.55ZM931.58,154.32h13.63c4.06,0,7.17-.96,9.33-2.87,2.16-1.91,3.24-4.68,3.24-8.29s-1.08-6.17-3.24-8.23c-2.16-2.06-5.12-3.13-8.89-3.21h-14.07v22.6Z"/>
    <path class="cls-2" d="M991.99,157.4c-6.51-1.87-11.24-4.17-14.2-6.9-2.96-2.73-4.45-6.09-4.45-10.09,0-4.53,1.81-8.28,5.43-11.24,3.62-2.96,8.33-4.45,14.12-4.45,3.95,0,7.47.76,10.57,2.29,3.1,1.53,5.49,3.64,7.19,6.32,1.7,2.69,2.55,5.62,2.55,8.81h-7.63c0-3.49-1.11-6.23-3.32-8.23-2.21-2-5.33-2.99-9.36-2.99-3.74,0-6.66.83-8.75,2.47-2.09,1.65-3.14,3.94-3.14,6.87,0,2.35.99,4.34,2.98,5.96,1.99,1.62,5.37,3.11,10.15,4.45s8.52,2.83,11.22,4.45,4.7,3.51,6.01,5.67c1.3,2.16,1.96,4.7,1.96,7.63,0,4.66-1.82,8.4-5.45,11.2-3.64,2.81-8.5,4.21-14.58,4.21-3.95,0-7.64-.76-11.06-2.27s-6.06-3.59-7.92-6.22c-1.86-2.63-2.79-5.62-2.79-8.97h7.62c0,3.48,1.28,6.22,3.85,8.24,2.57,2.01,6,3.02,10.29,3.02,4,0,7.07-.82,9.21-2.45,2.13-1.63,3.2-3.86,3.2-6.68s-.99-5-2.96-6.54-5.56-3.06-10.75-4.56Z"/>
  </g>
  <g>
    <path class="cls-2" d="M817.8,42.69v10.65h13.04v-10.65h3.29v24.76h-3.29v-11.34h-13.04v11.34h-3.29v-24.76h3.29Z"/>
    <path class="cls-2" d="M854.94,67.38c-.51.3-1.21.45-2.12.45-.76,0-1.37-.21-1.82-.64-.45-.43-.68-1.13-.68-2.1-.81.97-1.75,1.67-2.83,2.1-1.08.43-2.24.64-3.49.64-.81,0-1.58-.09-2.31-.28-.73-.18-1.36-.47-1.89-.87-.53-.39-.95-.91-1.27-1.54-.31-.64-.47-1.4-.47-2.31,0-1.02.17-1.85.52-2.5.35-.65.8-1.17,1.37-1.58.57-.4,1.21-.71,1.94-.92.73-.21,1.47-.38,2.24-.52.81-.16,1.58-.28,2.31-.36.73-.08,1.37-.2,1.92-.35.56-.15.99-.37,1.32-.66.32-.29.49-.71.49-1.27,0-.65-.12-1.17-.36-1.56-.24-.39-.55-.69-.94-.9-.38-.21-.81-.35-1.28-.42s-.94-.1-1.4-.1c-1.25,0-2.29.24-3.12.71-.83.47-1.28,1.37-1.35,2.69h-2.95c.05-1.11.28-2.05.69-2.81.42-.76.97-1.38,1.66-1.86.69-.47,1.49-.81,2.38-1.02.89-.21,1.84-.31,2.86-.31.81,0,1.61.06,2.41.17.8.12,1.52.35,2.17.71.65.36,1.17.86,1.56,1.51.39.65.59,1.49.59,2.53v9.21c0,.69.04,1.2.12,1.52.08.32.35.48.82.48.25,0,.55-.05.9-.14v2.29ZM850.16,58.19c-.37.28-.86.48-1.46.6-.6.13-1.23.23-1.89.31-.66.08-1.32.17-1.99.28-.67.1-1.27.27-1.8.5-.53.23-.97.56-1.3.98-.33.43-.5,1.01-.5,1.74,0,.48.1.89.29,1.23.2.33.45.6.76.81.31.21.68.36,1.09.45.42.09.86.14,1.32.14.97,0,1.8-.13,2.5-.4.69-.26,1.26-.6,1.7-1,.44-.4.76-.84.97-1.31.21-.47.31-.91.31-1.33v-3Z"/>
  </g>
  <path class="cls-2" d="M860.35,49.52v3.78h.07c.72-1.46,1.6-2.53,2.64-3.23,1.04-.69,2.36-1.02,3.95-.97v3.12c-1.18,0-2.18.16-3.02.49s-1.5.8-2.01,1.42c-.51.62-.88,1.38-1.11,2.27-.23.89-.35,1.91-.35,3.07v7.98h-2.95v-17.93h2.77Z"/>
  <path class="cls-2" d="M881.68,67.45v-2.43h-.07c-.49.99-1.25,1.71-2.29,2.15s-2.18.66-3.43.66c-1.39,0-2.6-.25-3.62-.76s-1.88-1.19-2.57-2.05c-.68-.85-1.2-1.85-1.54-2.98-.35-1.13-.52-2.33-.52-3.61s.17-2.47.5-3.61c.33-1.13.84-2.12,1.53-2.96.68-.84,1.54-1.51,2.57-2.01,1.03-.5,2.22-.75,3.59-.75.46,0,.96.05,1.49.14.53.09,1.06.25,1.6.47.53.22,1.03.51,1.51.87.47.36.87.8,1.2,1.33h.07v-9.22h2.95v24.76h-2.95ZM871.09,61.08c.22.8.55,1.51,1.01,2.13.45.62,1.03,1.12,1.73,1.49.71.37,1.53.55,2.48.55s1.84-.2,2.53-.59c.69-.39,1.26-.91,1.7-1.54.44-.64.76-1.36.95-2.17s.29-1.63.29-2.46c0-.88-.1-1.73-.31-2.55s-.54-1.54-.99-2.17c-.45-.62-1.04-1.13-1.75-1.51s-1.58-.57-2.6-.57-1.84.2-2.53.59c-.69.39-1.25.91-1.66,1.56-.42.65-.72,1.39-.9,2.22-.19.83-.28,1.69-.28,2.57,0,.83.11,1.65.33,2.44Z"/>
  <path class="cls-2" d="M903.81,67.45l-3.64-14.25h-.07l-3.61,14.25h-3.19l-5.76-17.93h3.26l4.06,14.67h.07l3.61-14.67h3.23l3.75,14.67h.07l4.02-14.67h3.05l-5.72,17.93h-3.12Z"/>
  <path class="cls-2" d="M931.34,67.38c-.51.3-1.21.45-2.12.45-.76,0-1.37-.21-1.82-.64-.45-.43-.68-1.13-.68-2.1-.81.97-1.75,1.67-2.83,2.1-1.08.43-2.24.64-3.49.64-.81,0-1.58-.09-2.31-.28-.73-.18-1.36-.47-1.89-.87-.53-.39-.95-.91-1.27-1.54-.31-.64-.47-1.4-.47-2.31,0-1.02.17-1.85.52-2.5.35-.65.8-1.17,1.37-1.58.57-.4,1.21-.71,1.94-.92.73-.21,1.47-.38,2.24-.52.81-.16,1.58-.28,2.31-.36.73-.08,1.37-.2,1.92-.35.56-.15.99-.37,1.32-.66.32-.29.49-.71.49-1.27,0-.65-.12-1.17-.36-1.56-.24-.39-.55-.69-.94-.9-.38-.21-.81-.35-1.28-.42s-.94-.1-1.4-.1c-1.25,0-2.29.24-3.12.71-.83.47-1.28,1.37-1.35,2.69h-2.95c.05-1.11.28-2.05.69-2.81.42-.76.97-1.38,1.66-1.86.69-.47,1.49-.81,2.38-1.02.89-.21,1.84-.31,2.86-.31.81,0,1.61.06,2.41.17.8.12,1.52.35,2.17.71.65.36,1.17.86,1.56,1.51.39.65.59,1.49.59,2.53v9.21c0,.69.04,1.2.12,1.52.08.32.35.48.82.48.25,0,.55-.05.9-.14v2.29ZM926.56,58.19c-.37.28-.86.48-1.46.6-.6.13-1.23.23-1.89.31-.66.08-1.32.17-1.99.28-.67.1-1.27.27-1.8.5-.53.23-.97.56-1.3.98-.33.43-.5,1.01-.5,1.74,0,.48.1.89.29,1.23.2.33.45.6.76.81.31.21.68.36,1.09.45.42.09.86.14,1.32.14.97,0,1.8-.13,2.5-.4.69-.26,1.26-.6,1.7-1,.44-.4.76-.84.97-1.31.21-.47.31-.91.31-1.33v-3Z"/>
  <path class="cls-2" d="M936.75,49.52v3.78h.07c.72-1.46,1.6-2.53,2.64-3.23,1.04-.69,2.36-1.02,3.95-.97v3.12c-1.18,0-2.18.16-3.02.49s-1.5.8-2.01,1.42c-.51.62-.88,1.38-1.11,2.27-.23.89-.35,1.91-.35,3.07v7.98h-2.95v-17.93h2.77Z"/>
  <path class="cls-2" d="M957.7,66.3c-1.34,1.02-3.03,1.53-5.06,1.53-1.43,0-2.68-.23-3.73-.69-1.05-.46-1.94-1.11-2.65-1.94-.72-.83-1.25-1.83-1.61-2.98-.36-1.16-.56-2.42-.61-3.78,0-1.36.21-2.61.62-3.75.42-1.13,1-2.12,1.75-2.95.75-.83,1.64-1.48,2.67-1.94,1.03-.46,2.16-.69,3.38-.69,1.59,0,2.92.33,3.97.99,1.05.66,1.9,1.5,2.53,2.51.64,1.02,1.08,2.13,1.32,3.33.24,1.2.34,2.35.29,3.43h-13.42c-.02.79.07,1.53.28,2.24.21.71.54,1.33,1,1.87.46.54,1.05.98,1.77,1.3.72.32,1.56.49,2.53.49,1.25,0,2.27-.29,3.07-.87.8-.58,1.32-1.46,1.58-2.64h2.91c-.39,2.01-1.26,3.53-2.6,4.54ZM956.99,54.79c-.27-.62-.62-1.16-1.08-1.61-.45-.45-.98-.81-1.59-1.08-.61-.27-1.29-.4-2.03-.4s-1.45.13-2.06.4c-.61.27-1.14.63-1.58,1.09-.44.46-.79,1-1.04,1.61-.25.61-.4,1.27-.45,1.96h10.3c-.05-.69-.2-1.35-.47-1.98Z"/>
  <path class="cls-2" d="M973.17,56.42v2.77h-10.02v-2.77h10.02Z"/>
  <path class="cls-2" d="M993.87,42.69v2.77h-12.97v7.87h11.38v2.77h-11.38v11.34h-3.29v-24.76h16.26Z"/>
  <path class="cls-2" d="M997.2,46.29v-3.61h2.95v3.61h-2.95ZM1000.15,49.52v17.93h-2.95v-17.93h2.95Z"/>
  <path class="cls-2" d="M1007.4,49.52v3.78h.07c.72-1.46,1.6-2.53,2.64-3.23,1.04-.69,2.36-1.02,3.95-.97v3.12c-1.18,0-2.18.16-3.02.49s-1.5.8-2.01,1.42c-.51.62-.88,1.38-1.11,2.27-.23.89-.35,1.91-.35,3.07v7.98h-2.95v-17.93h2.77Z"/>
  <g>
    <path class="cls-2" d="M1018.53,63.44c.28.45.64.81,1.09,1.07.45.27.96.46,1.53.57.57.12,1.15.17,1.75.17.46,0,.95-.03,1.46-.1s.98-.2,1.4-.38c.43-.18.78-.46,1.06-.81.28-.36.42-.81.42-1.37,0-.76-.29-1.34-.87-1.73-.58-.39-1.3-.71-2.17-.95s-1.81-.46-2.83-.66c-1.02-.2-1.96-.47-2.83-.83-.87-.36-1.59-.86-2.17-1.51-.58-.65-.87-1.55-.87-2.71,0-.9.2-1.68.61-2.32.4-.65.92-1.17,1.56-1.58.64-.4,1.35-.71,2.15-.9.8-.2,1.59-.29,2.38-.29,1.02,0,1.95.09,2.81.26.85.17,1.61.47,2.27.9s1.18,1.01,1.58,1.73c.39.73.62,1.64.69,2.72h-2.95c-.05-.58-.2-1.06-.45-1.44-.25-.38-.58-.69-.97-.92-.39-.23-.83-.4-1.3-.5-.47-.1-.95-.16-1.44-.16-.44,0-.88.03-1.33.1-.45.07-.86.19-1.23.36-.37.17-.67.4-.9.69-.23.29-.35.67-.35,1.13,0,.51.18.93.54,1.27.36.34.82.61,1.37.83s1.18.4,1.87.55c.69.15,1.39.31,2.08.47.74.16,1.46.36,2.17.59.71.23,1.33.54,1.87.92.54.38.98.86,1.32,1.44.33.58.5,1.29.5,2.15,0,1.09-.23,1.99-.68,2.71-.45.72-1.04,1.3-1.77,1.73-.73.44-1.55.75-2.46.92-.91.17-1.82.26-2.72.26-.99,0-1.94-.1-2.84-.31s-1.7-.55-2.39-1.02c-.69-.47-1.25-1.1-1.67-1.87s-.65-1.72-.69-2.83h2.95c.02.65.17,1.2.45,1.65Z"/>
    <path class="cls-2" d="M1041.28,49.52v2.6h-3.57v11.13c0,.35.03.62.09.83s.17.37.33.49c.16.12.39.19.68.23s.66.05,1.13.05h1.35v2.6h-2.25c-.76,0-1.42-.05-1.96-.16s-.98-.29-1.32-.57c-.34-.28-.58-.67-.75-1.18-.16-.51-.24-1.18-.24-2.01v-11.41h-3.05v-2.6h3.05v-5.38h2.95v5.38h3.57Z"/>
  </g>
  <path class="cls-2" d="M1049.05,63.6v3.5c0,1.32-.3,2.45-.9,3.4-.6.95-1.57,1.62-2.91,2.01v-1.73c.39-.14.72-.34.99-.61.27-.27.48-.55.64-.87.16-.31.27-.63.33-.95.06-.32.08-.62.05-.9h-2.05v-3.85h3.85Z"/>
  <path class="cls-2" d="M823,77.36c3.82,0,6.75.97,8.81,2.91s3.09,4.9,3.09,8.88c0,2.08-.23,3.92-.69,5.53-.46,1.61-1.18,2.96-2.15,4.06-.97,1.1-2.21,1.94-3.71,2.51-1.5.58-3.28.87-5.34.87h-8.5v-24.76h8.5ZM823.28,99.35c.37,0,.83-.03,1.39-.09s1.14-.2,1.77-.42c.62-.22,1.24-.54,1.86-.95.61-.42,1.16-.98,1.65-1.7.49-.72.88-1.61,1.2-2.69.31-1.08.47-2.38.47-3.9s-.14-2.8-.43-3.97c-.29-1.17-.76-2.16-1.42-2.98-.66-.82-1.51-1.44-2.55-1.87-1.04-.43-2.32-.64-3.85-.64h-5.55v19.21h5.48Z"/>
  <g>
    <path class="cls-2" d="M838.61,80.97v-3.61h2.95v3.61h-2.95ZM841.56,84.2v17.93h-2.95v-17.93h2.95Z"/>
    <path class="cls-2" d="M859.59,107.19c-1.34,1.46-3.44,2.18-6.31,2.18-.83,0-1.68-.09-2.55-.28-.87-.19-1.65-.49-2.36-.9s-1.29-.96-1.75-1.63c-.46-.67-.72-1.49-.76-2.46h2.95c.02.53.19.98.5,1.35.31.37.69.67,1.14.9.45.23.94.4,1.47.5s1.04.16,1.53.16c.97,0,1.79-.17,2.46-.5.67-.34,1.23-.8,1.67-1.39.44-.59.76-1.3.95-2.13.2-.83.29-1.75.29-2.74v-1.18h-.07c-.51,1.11-1.28,1.92-2.31,2.44-1.03.52-2.12.78-3.28.78-1.34,0-2.51-.24-3.5-.73-.99-.49-1.83-1.14-2.5-1.96-.67-.82-1.17-1.78-1.51-2.88s-.5-2.26-.5-3.49c0-1.06.14-2.16.42-3.28.28-1.12.74-2.14,1.39-3.05.65-.91,1.5-1.66,2.57-2.25,1.06-.59,2.37-.88,3.92-.88,1.13,0,2.17.25,3.12.75.95.5,1.69,1.24,2.22,2.24h.03v-2.57h2.77v16.4c0,2.94-.67,5.13-2.01,6.59ZM855.83,99.13c.68-.4,1.23-.94,1.65-1.6.42-.66.72-1.4.92-2.24.2-.83.29-1.66.29-2.5,0-.79-.09-1.56-.28-2.32-.19-.76-.48-1.45-.88-2.06-.4-.61-.93-1.1-1.58-1.47-.65-.37-1.43-.55-2.36-.55s-1.76.18-2.43.54c-.67.36-1.22.84-1.65,1.44-.43.6-.74,1.3-.94,2.08-.2.79-.29,1.61-.29,2.46,0,.81.08,1.62.24,2.43.16.81.44,1.54.83,2.2.39.66.91,1.19,1.56,1.6.65.4,1.46.61,2.43.61s1.8-.2,2.48-.61Z"/>
    <path class="cls-2" d="M866.21,80.97v-3.61h2.95v3.61h-2.95ZM869.16,84.2v17.93h-2.95v-17.93h2.95Z"/>
    <path class="cls-2" d="M881.4,84.2v2.6h-3.57v11.13c0,.35.03.62.09.83s.17.37.33.49c.16.12.39.19.68.23s.66.05,1.13.05h1.35v2.6h-2.25c-.76,0-1.42-.05-1.96-.16s-.98-.29-1.32-.57c-.34-.28-.58-.67-.75-1.18-.16-.51-.24-1.18-.24-2.01v-11.41h-3.05v-2.6h3.05v-5.38h2.95v5.38h3.57Z"/>
    <path class="cls-2" d="M900.54,102.06c-.51.3-1.21.45-2.12.45-.76,0-1.37-.21-1.82-.64-.45-.43-.68-1.13-.68-2.1-.81.97-1.75,1.67-2.83,2.1-1.08.43-2.24.64-3.49.64-.81,0-1.58-.09-2.31-.28-.73-.18-1.36-.47-1.89-.87-.53-.39-.95-.91-1.27-1.54-.31-.64-.47-1.4-.47-2.31,0-1.02.17-1.85.52-2.5.35-.65.8-1.17,1.37-1.58.57-.4,1.21-.71,1.94-.92.73-.21,1.47-.38,2.24-.52.81-.16,1.58-.28,2.31-.36.73-.08,1.37-.2,1.92-.35.56-.15.99-.37,1.32-.66.32-.29.49-.71.49-1.27,0-.65-.12-1.17-.36-1.56-.24-.39-.55-.69-.94-.9-.38-.21-.81-.35-1.28-.42s-.94-.1-1.4-.1c-1.25,0-2.29.24-3.12.71-.83.47-1.28,1.37-1.35,2.69h-2.95c.05-1.11.28-2.05.69-2.81.42-.76.97-1.38,1.66-1.86.69-.47,1.49-.81,2.38-1.02.89-.21,1.84-.31,2.86-.31.81,0,1.61.06,2.41.17.8.12,1.52.35,2.17.71.65.36,1.17.86,1.56,1.51.39.65.59,1.49.59,2.53v9.21c0,.69.04,1.2.12,1.52.08.32.35.48.82.48.25,0,.55-.05.9-.14v2.29ZM895.76,92.87c-.37.28-.86.48-1.46.6-.6.13-1.23.23-1.89.31-.66.08-1.32.17-1.99.28-.67.1-1.27.27-1.8.5-.53.23-.97.56-1.3.98-.33.43-.5,1.01-.5,1.74,0,.48.1.89.29,1.23.2.33.45.6.76.81.31.21.68.36,1.09.45.42.09.86.14,1.32.14.97,0,1.8-.13,2.5-.4.69-.26,1.26-.6,1.7-1,.44-.4.76-.84.97-1.31.21-.47.31-.91.31-1.33v-3Z"/>
    <path class="cls-2" d="M906.41,77.36v24.76h-2.95v-24.76h2.95Z"/>
  </g>
  <path class="cls-2" d="M920.52,91.1v2.77h-10.02v-2.77h10.02Z"/>
  <path class="cls-2" d="M935.82,77.36c2.5,0,4.39.64,5.67,1.92s1.92,3.08,1.92,5.39-.64,4.12-1.92,5.41-3.17,1.93-5.67,1.91h-7.56v10.13h-3.29v-24.76h10.85ZM934.71,89.23c1.87.02,3.24-.36,4.11-1.14.87-.79,1.3-1.92,1.3-3.4s-.43-2.61-1.3-3.38c-.87-.77-2.24-1.16-4.11-1.16h-6.45v9.09h6.45Z"/>
  <path class="cls-2" d="M950.07,77.36v24.76h-2.95v-24.76h2.95Z"/>
  <g>
    <path class="cls-2" d="M966.72,102.13v-2.84h-.07c-.62,1.11-1.42,1.92-2.39,2.44-.97.52-2.12.78-3.43.78-1.18,0-2.16-.16-2.95-.47-.79-.31-1.42-.76-1.91-1.33-.49-.58-.83-1.27-1.02-2.06-.2-.8-.29-1.68-.29-2.65v-11.79h2.95v12.14c0,1.11.32,1.99.97,2.64.65.65,1.54.97,2.67.97.9,0,1.68-.14,2.34-.42s1.21-.67,1.65-1.18c.44-.51.77-1.1.99-1.79.22-.68.33-1.43.33-2.24v-10.13h2.95v17.93h-2.77Z"/>
    <path class="cls-2" d="M976.18,98.12c.28.45.64.81,1.09,1.07.45.27.96.46,1.53.57.57.12,1.15.17,1.75.17.46,0,.95-.03,1.46-.1s.98-.2,1.4-.38c.43-.18.78-.46,1.06-.81.28-.36.42-.81.42-1.37,0-.76-.29-1.34-.87-1.73-.58-.39-1.3-.71-2.17-.95s-1.81-.46-2.83-.66c-1.02-.2-1.96-.47-2.83-.83-.87-.36-1.59-.86-2.17-1.51-.58-.65-.87-1.55-.87-2.71,0-.9.2-1.68.61-2.32.4-.65.92-1.17,1.56-1.58.64-.4,1.35-.71,2.15-.9.8-.2,1.59-.29,2.38-.29,1.02,0,1.95.09,2.81.26.85.17,1.61.47,2.27.9s1.18,1.01,1.58,1.73c.39.73.62,1.64.69,2.72h-2.95c-.05-.58-.2-1.06-.45-1.44-.25-.38-.58-.69-.97-.92-.39-.23-.83-.4-1.3-.5-.47-.1-.95-.16-1.44-.16-.44,0-.88.03-1.33.1-.45.07-.86.19-1.23.36-.37.17-.67.4-.9.69-.23.29-.35.67-.35,1.13,0,.51.18.93.54,1.27.36.34.82.61,1.37.83s1.18.4,1.87.55c.69.15,1.39.31,2.08.47.74.16,1.46.36,2.17.59.71.23,1.33.54,1.87.92.54.38.98.86,1.32,1.44.33.58.5,1.29.5,2.15,0,1.09-.23,1.99-.68,2.71-.45.72-1.04,1.3-1.77,1.73-.73.44-1.55.75-2.46.92-.91.17-1.82.26-2.72.26-.99,0-1.94-.1-2.84-.31s-1.7-.55-2.39-1.02c-.69-.47-1.25-1.1-1.67-1.87s-.65-1.72-.69-2.83h2.95c.02.65.17,1.2.45,1.65Z"/>
  </g>
  <path class="cls-1" d="M77.56,40.63h26.22v143.57h-29.13v-113.19l-20.6,13.52v-28.09l23.51-15.81Z"/>
  <path class="cls-1" d="M244.86,84.32v55.97c0,15.12-4.58,26.57-13.73,34.33-8.88,7.63-20.39,11.44-34.54,11.44s-25.73-3.81-34.75-11.44c-9.02-7.77-13.53-19.21-13.53-34.33v-55.77c0-15.81,4.51-27.39,13.53-34.75,9.02-7.35,20.6-11.03,34.75-11.03s25.73,3.68,34.75,11.03c9.02,7.35,13.53,18.87,13.53,34.54ZM215.73,137.8v-50.77c0-15.81-6.38-23.72-19.14-23.72s-19.35,7.91-19.35,23.72v50.77c0,15.81,6.45,23.72,19.35,23.72s19.14-7.91,19.14-23.72Z"/>
  <path class="cls-1" d="M260.05,144.25c0-7.49,2.04-14.39,6.14-20.7,4.09-6.31,9.19-10.92,15.29-13.84-5.83-2.91-10.51-7.25-14.05-13-3.54-5.75-5.31-11.96-5.31-18.62,0-12.07,4.58-21.64,13.73-28.71s20.18-10.61,33.08-10.61,24.07,3.54,33.08,10.61c9.16,6.94,13.73,16.51,13.73,28.71,0,6.66-1.77,12.87-5.31,18.62-3.54,5.76-8.22,10.09-14.04,13,6.24,2.91,11.37,7.49,15.4,13.73,4.02,6.24,6.03,13.18,6.03,20.81,0,12.9-4.72,23.1-14.15,30.59-9.29,7.49-20.88,11.24-34.75,11.24s-25.53-3.75-34.96-11.24c-9.29-7.49-13.94-17.69-13.94-30.59ZM289.18,141.54c0,5.55,1.87,10.3,5.62,14.25,3.75,3.95,8.46,5.93,14.15,5.93s10.26-1.98,14.15-5.93c3.88-3.95,5.83-8.7,5.83-14.25s-2.01-10.44-6.03-14.25c-4.03-3.81-8.67-5.72-13.94-5.72s-10.06,1.87-13.94,5.62c-3.88,3.75-5.83,8.53-5.83,14.36ZM291.05,80.99c0,4.99,1.73,9.26,5.2,12.8,3.47,3.54,7.7,5.31,12.69,5.31s9.05-1.77,12.59-5.31c3.54-3.54,5.31-7.8,5.31-12.8s-1.77-9.02-5.31-12.48c-3.54-3.47-7.73-5.2-12.59-5.2s-9.23,1.74-12.69,5.2c-3.47,3.47-5.2,7.63-5.2,12.48Z"/>
</svg>