<?xml version="1.0" encoding="UTF-8"?>
<svg id="Layer_2" data-name="Layer 2" xmlns="http://www.w3.org/2000/svg" viewBox="0 0 694.19 112.88">
  <defs>
    <style>
      .cls-1 {
        fill: #fff;
      }
    </style>
  </defs>
  <g id="Layer_1-2" data-name="Layer 1">
    <g>
      <path class="cls-1" d="M5.16,28.62v15.78H0V3h13.2c9.54,0,15.06,4.8,15.06,12.84s-5.46,12.78-15.06,12.78H5.16ZM13.2,23.94c7.02,0,9.9-3,9.9-8.1s-2.88-8.16-9.9-8.16H5.16v16.26h8.04Z"/>
      <path class="cls-1" d="M39.84,20.64h17.76V3h5.16v41.4h-5.16v-19.08h-17.76v19.08h-5.16V3h5.16v17.64Z"/>
      <path class="cls-1" d="M74.52,3l9.42,18,9.42-18h6.06l-12.9,23.64v17.76h-5.16v-17.76l-12.9-23.64h6.06Z"/>
      <path class="cls-1" d="M108.78,11.1l-5.16,4.44V0h5.16v11.1Z"/>
      <path class="cls-1" d="M144.78,23.58v2.4c0,13.38-6.06,18.9-15.24,18.9s-15-5.52-15-18.9v-4.56c0-13.38,5.82-18.9,15-18.9,8.04,0,13.56,4.26,14.88,13.38h-5.04c-1.32-6.18-4.56-8.7-9.84-8.7-6.36,0-9.84,3.96-9.84,14.22v4.56c0,10.26,3.48,14.22,9.84,14.22,5.82,0,9.48-3.36,10.02-11.94h-9.84v-4.68h15.06Z"/>
      <path class="cls-1" d="M158.04,44.4h-5.16V3h5.16v41.4Z"/>
      <path class="cls-1" d="M193.8,3v4.68h-12.6v36.72h-5.16V7.68h-12.6V3h30.36Z"/>
      <path class="cls-1" d="M192.3,44.4l14.4-41.4h4.8l14.4,41.4h-5.46l-3.18-9.48h-16.32l-3.18,9.48h-5.46ZM202.56,30.24h13.08l-6.54-19.44-6.54,19.44Z"/>
      <path class="cls-1" d="M236.16,39.72h19.8v4.68h-24.96V3h5.16v36.72Z"/>
      <path class="cls-1" d="M300.41,3v4.68h-12.6v36.72h-5.16V7.68h-12.6V3h30.36Z"/>
      <path class="cls-1" d="M330.17,3v4.68h-19.8v12.96h18v4.68h-18v14.4h19.8v4.68h-24.96V3h24.96Z"/>
      <path class="cls-1" d="M359.81,15.9c-1.44-6.48-4.74-8.7-9.84-8.7-6.36,0-9.84,3.96-9.84,14.22v4.56c0,10.26,3.48,14.22,9.84,14.22,5.4,0,8.46-2.64,9.84-8.7h4.98c-1.32,9.3-6.96,13.38-14.82,13.38-9.18,0-15-5.52-15-18.9v-4.56c0-13.38,5.82-18.9,15-18.9,8.16,0,13.56,4.32,14.88,13.38h-5.04Z"/>
      <path class="cls-1" d="M376.31,20.64h17.76V3h5.16v41.4h-5.16v-19.08h-17.76v19.08h-5.16V3h5.16v17.64Z"/>
      <path class="cls-1" d="M5.76,112.4H.6v-41.4h5.16v41.4Z"/>
      <path class="cls-1" d="M44.04,71v41.4h-5.04l-17.88-31.32v31.32h-5.16v-41.4h4.92l18,31.62v-31.62h5.16Z"/>
      <path class="cls-1" d="M81.72,71v41.4h-5.04l-17.88-31.32v31.32h-5.16v-41.4h4.92l18,31.62v-31.62h5.16Z"/>
      <path class="cls-1" d="M104.22,112.88c-9.18,0-15-5.52-15-18.9v-4.56c0-13.38,5.82-18.9,15-18.9s15,5.52,15,18.9v4.56c0,13.38-5.82,18.9-15,18.9ZM94.38,93.98c0,10.26,3.48,14.22,9.84,14.22s9.84-3.96,9.84-14.22v-4.56c0-10.26-3.48-14.22-9.84-14.22s-9.84,3.96-9.84,14.22v4.56Z"/>
      <path class="cls-1" d="M127.32,71l11.64,33,11.82-33h5.7l-15,41.4h-4.86l-15-41.4h5.7Z"/>
      <path class="cls-1" d="M155.28,112.4l14.4-41.4h4.8l14.4,41.4h-5.46l-3.18-9.48h-16.32l-3.18,9.48h-5.46ZM165.54,98.24h13.08l-6.54-19.44-6.54,19.44Z"/>
      <path class="cls-1" d="M217.74,71v4.68h-12.6v36.72h-5.16v-36.72h-12.6v-4.68h30.36Z"/>
      <path class="cls-1" d="M228.3,112.4h-5.16v-41.4h5.16v41.4Z"/>
      <path class="cls-1" d="M251.39,112.88c-9.18,0-15-5.52-15-18.9v-4.56c0-13.38,5.82-18.9,15-18.9s15,5.52,15,18.9v4.56c0,13.38-5.82,18.9-15,18.9ZM241.55,93.98c0,10.26,3.48,14.22,9.84,14.22s9.84-3.96,9.84-14.22v-4.56c0-10.26-3.48-14.22-9.84-14.22s-9.84,3.96-9.84,14.22v4.56Z"/>
      <path class="cls-1" d="M301.97,71v41.4h-5.04l-17.88-31.32v31.32h-5.16v-41.4h4.92l18,31.62v-31.62h5.16Z"/>
      <path class="cls-1" d="M333.11,80.18c-2.22-2.88-4.62-4.98-9.84-4.98-4.8,0-8.04,2.16-8.04,6.48,0,4.92,3.72,6.6,9.78,7.68,7.98,1.38,12.84,4.26,12.84,11.94,0,5.4-3.6,11.58-13.92,11.58-6.72,0-11.64-2.28-14.76-6.78l4.26-2.94c2.7,3.18,5.1,5.04,10.5,5.04,6.78,0,8.76-3.12,8.76-6.66,0-3.9-1.98-6.54-9.78-7.74-7.8-1.2-12.84-4.92-12.84-12.12,0-5.94,3.9-11.16,13.38-11.16,6.6,0,10.74,2.22,13.68,6.78l-4.02,2.88Z"/>
      <path class="cls-1" d="M364.49,89.06c-2.52-3.06-4.26-5.76-4.26-9.24,0-5.58,4.2-9.3,10.14-9.3,7.5,0,10.02,4.32,10.02,8.1,0,4.68-4.5,7.68-9,10.8l10.86,11.82c1.32-2.46,1.92-5.28,1.92-8.16h4.68c0,4.08-1.08,8.28-3.3,11.76l6.96,7.56h-6.78l-3.42-3.72c-2.94,2.58-6.9,4.2-12,4.2-8.82,0-13.08-5.76-13.08-11.64s3.42-9.3,7.26-12.18ZM379.13,105.2l-11.7-12.9c-3,2.4-5.28,5.16-5.28,8.88,0,4.32,3.3,7.02,8.16,7.02,3.72,0,6.66-1.14,8.82-3ZM368.51,86.3c3.6-2.4,6.72-4.5,6.72-7.32,0-1.62-1.5-3.84-4.86-3.84-2.94,0-4.98,1.86-4.98,4.68,0,2.46,1.68,4.8,3.12,6.48Z"/>
      <path class="cls-1" d="M413.81,71l11.64,33,11.82-33h5.7l-15,41.4h-4.86l-15-41.4h5.7Z"/>
      <path class="cls-1" d="M473.03,71v4.68h-19.8v12.96h18v4.68h-18v14.4h19.8v4.68h-24.96v-41.4h24.96Z"/>
      <path class="cls-1" d="M508.01,71v41.4h-5.04l-17.88-31.32v31.32h-5.16v-41.4h4.92l18,31.62v-31.62h5.16Z"/>
      <path class="cls-1" d="M543.17,71v4.68h-12.6v36.72h-5.16v-36.72h-12.6v-4.68h30.36Z"/>
      <path class="cls-1" d="M577.97,71v24.54c0,12.24-5.82,17.34-15,17.34s-15-5.1-15-17.28v-24.6h5.16v24.6c0,9.06,3.48,12.6,9.84,12.6s9.84-3.54,9.84-12.6v-24.6h5.16Z"/>
      <path class="cls-1" d="M611.15,112.4l-8.64-17.46h-9.78v17.46h-5.16v-41.4h13.2c9.54,0,15.06,3.96,15.06,12,0,5.82-2.88,9.48-8.16,11.04l9.24,18.36h-5.76ZM600.77,90.26c7.02,0,9.9-2.16,9.9-7.26s-2.88-7.32-9.9-7.32h-8.04v14.58h8.04Z"/>
      <path class="cls-1" d="M648.17,71v4.68h-19.8v12.96h18v4.68h-18v14.4h19.8v4.68h-24.96v-41.4h24.96Z"/>
      <path class="cls-1" d="M676.61,80.18c-2.22-2.88-4.62-4.98-9.84-4.98-4.8,0-8.04,2.16-8.04,6.48,0,4.92,3.72,6.6,9.78,7.68,7.98,1.38,12.84,4.26,12.84,11.94,0,5.4-3.6,11.58-13.92,11.58-6.72,0-11.64-2.28-14.76-6.78l4.26-2.94c2.7,3.18,5.1,5.04,10.5,5.04,6.78,0,8.76-3.12,8.76-6.66,0-3.9-1.98-6.54-9.78-7.74-7.8-1.2-12.84-4.92-12.84-12.12,0-5.94,3.9-11.16,13.38-11.16,6.6,0,10.74,2.22,13.68,6.78l-4.02,2.88Z"/>
      <path class="cls-1" d="M694.19,112.4h-6.96v-6.96h6.96v6.96Z"/>
    </g>
    <g>
      <path class="cls-1" d="M426.44,10.94h6.6V3.87h2.9v17.25h-2.9v-7.67h-6.6v7.67h-2.9V3.87h2.9v7.07Z"/>
      <path class="cls-1" d="M437.89,21.12l6-17.25h2.75l6,17.25h-3.07l-1.17-3.57h-6.22l-1.17,3.57h-3.1ZM442.96,15.04h4.6l-2.3-6.97-2.3,6.97Z"/>
      <path class="cls-1" d="M464.19,21.12l-3.32-7h-3.35v7h-2.9V3.87h5.87c3.97,0,6.35,1.72,6.35,5.15,0,2.37-1.12,3.9-3.12,4.62l3.67,7.47h-3.2ZM460.29,11.62c2.45,0,3.65-.65,3.65-2.6s-1.2-2.62-3.65-2.62h-2.77v5.22h2.77Z"/>
      <path class="cls-1" d="M469.89,21.12V3.87h5.82c3.87,0,6.47,2.08,6.47,7.6v2.05c0,5.52-2.6,7.6-6.47,7.6h-5.82ZM479.29,13.52v-2.05c0-3.55-1.1-5.07-3.57-5.07h-2.92v12.22h2.92c2.47,0,3.57-1.55,3.57-5.1Z"/>
      <path class="cls-1" d="M490.46,21.12h-2.8l-4.07-17.25h3.1l2.65,12.32,3.52-12.32h2.67l3.6,12.4,2.65-12.4h3.1l-4.07,17.25h-2.82l-3.77-12.55-3.75,12.55Z"/>
      <path class="cls-1" d="M504.94,21.12l6-17.25h2.75l6,17.25h-3.07l-1.17-3.57h-6.22l-1.17,3.57h-3.1ZM510.01,15.04h4.6l-2.3-6.97-2.3,6.97Z"/>
      <path class="cls-1" d="M531.23,21.12l-3.32-7h-3.35v7h-2.9V3.87h5.87c3.97,0,6.35,1.72,6.35,5.15,0,2.37-1.12,3.9-3.12,4.62l3.67,7.47h-3.2ZM527.34,11.62c2.45,0,3.65-.65,3.65-2.6s-1.2-2.62-3.65-2.62h-2.77v5.22h2.77Z"/>
      <path class="cls-1" d="M547.51,3.87v2.52h-7.67v4.55h6.92v2.5h-6.92v5.17h7.67v2.5h-10.57V3.87h10.57Z"/>
      <path class="cls-1" d="M549.11,11.32h6.47v2.35h-6.47v-2.35Z"/>
      <path class="cls-1" d="M568.81,3.87v2.52h-7.67v4.95h6.92v2.5h-6.92v7.27h-2.9V3.87h10.57Z"/>
      <path class="cls-1" d="M574.51,21.12h-2.9V3.87h2.9v17.25Z"/>
      <path class="cls-1" d="M588.11,21.12l-3.32-7h-3.35v7h-2.9V3.87h5.87c3.97,0,6.35,1.72,6.35,5.15,0,2.37-1.12,3.9-3.12,4.62l3.67,7.47h-3.2ZM584.21,11.62c2.45,0,3.65-.65,3.65-2.6s-1.2-2.62-3.65-2.62h-2.77v5.22h2.77Z"/>
      <path class="cls-1" d="M602.78,8.04c-.85-1.17-1.77-1.87-3.72-1.87-1.77,0-2.82.8-2.82,2.25,0,1.65,1.3,2.3,3.7,2.82,3.47.75,5.27,2.05,5.27,5.15,0,2.57-1.72,4.95-5.87,4.95-2.95,0-5.02-.9-6.45-2.82l2.27-1.57c1.03,1.22,2.05,1.87,4.02,1.87,2.37,0,3.12-1.05,3.12-2.3,0-1.38-.77-2.22-3.77-2.88-3.32-.7-5.2-2.3-5.2-5.22,0-2.6,1.7-4.77,5.75-4.77,2.75,0,4.67.92,5.9,2.82l-2.2,1.57Z"/>
      <path class="cls-1" d="M618.98,3.87v2.52h-4.95v14.72h-2.9V6.39h-4.97v-2.52h12.82Z"/>
      <path class="cls-1" d="M622.21,22.42l-2.95,2.52v-7.27h2.95v4.75Z"/>
      <path class="cls-1" d="M423.54,45.12v-17.25h5.82c3.87,0,6.47,2.08,6.47,7.6v2.05c0,5.52-2.6,7.6-6.47,7.6h-5.82ZM432.94,37.52v-2.05c0-3.55-1.1-5.07-3.57-5.07h-2.92v12.22h2.92c2.47,0,3.57-1.55,3.57-5.1Z"/>
      <path class="cls-1" d="M442.09,45.12h-2.9v-17.25h2.9v17.25Z"/>
      <path class="cls-1" d="M458.21,36.27v1.32c0,5.42-2.47,7.75-6.35,7.75s-6.45-2.32-6.45-7.75v-2.07c0-5.55,2.6-7.87,6.45-7.87,3.5,0,5.72,1.95,6.27,5.57h-2.8c-.42-2-1.52-3.05-3.47-3.05-2.3,0-3.55,1.5-3.55,5.22v2.2c0,3.72,1.25,5.22,3.55,5.22s3.3-1.3,3.5-4.02h-3.42v-2.52h6.27Z"/>
      <path class="cls-1" d="M464.46,45.12h-2.9v-17.25h2.9v17.25Z"/>
      <path class="cls-1" d="M479.58,27.87v2.52h-4.95v14.72h-2.9v-14.72h-4.97v-2.52h12.82Z"/>
      <path class="cls-1" d="M478.96,45.12l6-17.25h2.75l6,17.25h-3.07l-1.17-3.57h-6.22l-1.17,3.57h-3.1ZM484.04,39.04h4.6l-2.3-6.97-2.3,6.97Z"/>
      <path class="cls-1" d="M498.59,42.62h7.67v2.5h-10.57v-17.25h2.9v14.75Z"/>
      <path class="cls-1" d="M506.61,35.32h6.47v2.35h-6.47v-2.35Z"/>
      <path class="cls-1" d="M518.64,38.82v6.3h-2.9v-17.25h5.87c3.97,0,6.35,1.9,6.35,5.45s-2.35,5.5-6.35,5.5h-2.97ZM521.31,36.32c2.65,0,3.75-1.02,3.75-3s-1.1-2.92-3.75-2.92h-2.67v5.92h2.67Z"/>
      <path class="cls-1" d="M533.36,42.62h7.67v2.5h-10.57v-17.25h2.9v14.75Z"/>
      <path class="cls-1" d="M555.93,27.87v10.25c0,5.1-2.62,7.22-6.45,7.22s-6.45-2.12-6.45-7.2v-10.27h2.9v10.27c0,3.3,1.17,4.67,3.55,4.67s3.55-1.37,3.55-4.67v-10.27h2.9Z"/>
      <path class="cls-1" d="M568.71,32.04c-.85-1.17-1.77-1.87-3.72-1.87-1.77,0-2.82.8-2.82,2.25,0,1.65,1.3,2.3,3.7,2.82,3.47.75,5.27,2.05,5.27,5.15,0,2.57-1.72,4.95-5.87,4.95-2.95,0-5.02-.9-6.45-2.82l2.27-1.57c1.03,1.22,2.05,1.87,4.02,1.87,2.37,0,3.12-1.05,3.12-2.3,0-1.38-.77-2.22-3.77-2.88-3.32-.7-5.2-2.3-5.2-5.22,0-2.6,1.7-4.77,5.75-4.77,2.75,0,4.67.92,5.9,2.82l-2.2,1.57Z"/>
    </g>
  </g>
</svg>