<?xml version="1.0" encoding="UTF-8"?>
<svg id="Layer_2" data-name="Layer 2" xmlns="http://www.w3.org/2000/svg" viewBox="0 0 610.52 127.79">
  <defs>
    <style>
      .cls-1 {
        fill: #eb9a37;
      }

      .cls-2 {
        fill: #fff;
      }
    </style>
  </defs>
  <g id="Layer_1-2" data-name="Layer 1">
    <g>
      <path class="cls-2" d="M44.64,127.79C20.52,127.79,0,116.64,0,86.4v-45C0,9.36,20.52,0,44.64,0s44.64,9.36,44.64,41.22v45.18c0,30.24-20.52,41.4-44.64,41.4ZM29.7,82.98c0,13.32,3.6,19.98,14.94,19.98s14.76-6.66,14.76-19.98v-38.16c0-13.32-3.6-19.98-14.76-19.98s-14.94,6.66-14.94,19.98v38.16Z"/>
      <path class="cls-2" d="M174.78,126h-78.3v-17.64l40.5-47.7c7.38-8.64,10.26-15.66,10.26-23.4,0-8.64-6.12-12.78-13.14-12.78-7.38,0-12.42,4.5-13.14,12.78h-25.74C95.22,15.66,113.4,0,135.9,0s41.04,16.74,41.04,37.08c0,17.1-10.8,30.24-18.9,39.6l-21.24,24.48h37.98v24.84Z"/>
    </g>
    <g>
      <path class="cls-1" d="M220.97,58.93l18-51.75h12l18,51.75h-13.27l-2.78-8.85h-15.97l-2.7,8.85h-13.27ZM240.17,39.74h9.52l-4.72-15.3-4.8,15.3Z"/>
      <path class="cls-1" d="M299.65,21.51c-2.03-3.45-4.58-4.73-9.22-4.73-4.12,0-5.92,1.88-5.92,4.5,0,3.08,2.7,4.8,9.22,6.67,11.25,3.22,15.52,7.42,15.52,16.27,0,9.38-6.3,15.45-18.07,15.45-9.45,0-15.82-2.32-20.7-8.47l9.3-6.52c2.55,3.22,5.7,4.65,10.35,4.65s6.67-2.02,6.67-4.5c0-3-2.1-4.5-9.75-6.97-10.5-3.38-15-8.17-15-16.5s5.62-14.92,18.22-14.92c8.25,0,14.92,2.78,18.6,8.47l-9.22,6.6Z"/>
      <path class="cls-1" d="M342.92,21.51c-2.03-3.45-4.58-4.73-9.22-4.73-4.12,0-5.92,1.88-5.92,4.5,0,3.08,2.7,4.8,9.22,6.67,11.25,3.22,15.52,7.42,15.52,16.27,0,9.38-6.3,15.45-18.07,15.45-9.45,0-15.82-2.32-20.7-8.47l9.3-6.52c2.55,3.22,5.7,4.65,10.35,4.65s6.67-2.02,6.67-4.5c0-3-2.1-4.5-9.75-6.97-10.5-3.38-15-8.17-15-16.5s5.62-14.92,18.22-14.92c8.25,0,14.92,2.78,18.6,8.47l-9.22,6.6Z"/>
      <path class="cls-1" d="M372.47,58.93h-12.45V7.19h12.45v51.75Z"/>
      <path class="cls-1" d="M409.15,21.51c-2.03-3.45-4.58-4.73-9.22-4.73-4.12,0-5.92,1.88-5.92,4.5,0,3.08,2.7,4.8,9.22,6.67,11.25,3.22,15.52,7.42,15.52,16.27,0,9.38-6.3,15.45-18.07,15.45-9.45,0-15.82-2.32-20.7-8.47l9.3-6.52c2.55,3.22,5.7,4.65,10.35,4.65s6.67-2.02,6.67-4.5c0-3-2.1-4.5-9.75-6.97-10.5-3.38-15-8.17-15-16.5s5.62-14.92,18.22-14.92c8.25,0,14.92,2.78,18.6,8.47l-9.22,6.6Z"/>
      <path class="cls-1" d="M461.2,7.19v10.35h-13.5v41.4h-12.45V17.54h-13.5V7.19h39.45Z"/>
      <path class="cls-1" d="M479.65,58.93h-12.45V7.19h12.45v51.75Z"/>
      <path class="cls-1" d="M498.47,7.19l9.67,31.27,9.75-31.27h13.57l-17.7,51.75h-11.17l-17.7-51.75h13.57Z"/>
      <path class="cls-1" d="M568.67,7.19v10.35h-20.25v9.45h18v10.35h-18v11.25h20.25v10.35h-32.7V7.19h32.7Z"/>
      <path class="cls-1" d="M238.67,92.21h15.9v-19.8h12.45v51.75h-12.45v-21.6h-15.9v21.6h-12.45v-51.75h12.45v19.8Z"/>
      <path class="cls-1" d="M270.77,124.16l18-51.75h12l18,51.75h-13.27l-2.78-8.85h-15.97l-2.7,8.85h-13.27ZM289.97,104.96h9.52l-4.72-15.3-4.8,15.3Z"/>
      <path class="cls-1" d="M350.05,124.16l-8.62-19.57h-6.45v19.57h-12.45v-51.75h19.5c11.92,0,19.57,5.47,19.57,16.27,0,6.75-3,11.32-8.25,13.72l10.35,21.75h-13.65ZM340.52,94.24c5.02,0,8.62-.67,8.62-5.55s-3.6-5.92-8.62-5.92h-5.55v11.47h5.55Z"/>
      <path class="cls-1" d="M369.32,124.16v-51.75h19.27c11.77,0,20.4,5.77,20.4,22.12v7.5c0,16.2-8.62,22.12-20.4,22.12h-19.27ZM396.54,102.04v-7.5c0-6.97-1.5-11.77-7.95-11.77h-6.83v31.05h6.83c6.45,0,7.95-4.8,7.95-11.77Z"/>
      <path class="cls-1" d="M436,124.16h-11.7l-11.55-51.75h13.5l5.62,30.9,9.15-30.9h10.88l9.38,31.12,5.62-31.12h13.5l-11.55,51.75h-11.77l-10.57-33.45-10.5,33.45Z"/>
      <path class="cls-1" d="M479.27,124.16l18-51.75h12l18,51.75h-13.27l-2.78-8.85h-15.97l-2.7,8.85h-13.27ZM498.47,104.96h9.52l-4.72-15.3-4.8,15.3Z"/>
      <path class="cls-1" d="M558.54,124.16l-8.62-19.57h-6.45v19.57h-12.45v-51.75h19.5c11.92,0,19.57,5.47,19.57,16.27,0,6.75-3,11.32-8.25,13.72l10.35,21.75h-13.65ZM549.02,94.24c5.02,0,8.62-.67,8.62-5.55s-3.6-5.92-8.62-5.92h-5.55v11.47h5.55Z"/>
      <path class="cls-1" d="M610.52,72.41v10.35h-20.25v9.45h18v10.35h-18v11.25h20.25v10.35h-32.7v-51.75h32.7Z"/>
    </g>
  </g>
</svg>