<?xml version="1.0" encoding="UTF-8"?>
<svg id="Layer_2" data-name="Layer 2" xmlns="http://www.w3.org/2000/svg" viewBox="0 0 673.46 127.79">
  <defs>
    <style>
      .cls-1 {
        fill: #eb9a37;
      }

      .cls-2 {
        fill: #fff;
      }
    </style>
  </defs>
  <g id="Layer_1-2" data-name="Layer 1">
    <g>
      <path class="cls-2" d="M44.64,127.79C20.52,127.79,0,116.64,0,86.4v-45C0,9.36,20.52,0,44.64,0s44.64,9.36,44.64,41.22v45.18c0,30.24-20.52,41.4-44.64,41.4ZM29.7,82.98c0,13.32,3.6,19.98,14.94,19.98s14.76-6.66,14.76-19.98v-38.16c0-13.32-3.6-19.98-14.76-19.98s-14.94,6.66-14.94,19.98v38.16Z"/>
      <path class="cls-2" d="M184.5,1.8l-37.44,82.8h17.82v-29.34h29.88v29.34h11.34v24.84h-11.34v16.56h-29.88v-16.56h-55.62v-20.34L151.2,1.8h33.3Z"/>
    </g>
    <g>
      <path class="cls-1" d="M254.37,40.71v17.47h-12.45V6.44h19.5c11.92,0,19.57,5.25,19.57,16.8s-7.57,17.47-19.57,17.47h-7.05ZM259.17,30.36c6.52,0,9.38-1.95,9.38-7.12,0-4.2-2.85-6.45-9.38-6.45h-4.8v13.57h4.8Z"/>
      <path class="cls-1" d="M313.77,58.19l-8.62-19.57h-6.45v19.57h-12.45V6.44h19.5c11.92,0,19.57,5.48,19.57,16.27,0,6.75-3,11.32-8.25,13.72l10.35,21.75h-13.65ZM304.24,28.26c5.02,0,8.62-.67,8.62-5.55s-3.6-5.92-8.62-5.92h-5.55v11.47h5.55Z"/>
      <path class="cls-1" d="M352.02,58.94c-11.78,0-20.4-7.12-20.4-22.57v-8.1c0-15.6,8.62-22.57,20.4-22.57s20.4,6.98,20.4,22.57v8.1c0,15.45-8.62,22.57-20.4,22.57ZM344.07,36.36c0,8.47,2.78,12.22,7.95,12.22s7.95-3.75,7.95-12.22v-8.1c0-8.47-2.77-12.22-7.95-12.22s-7.95,3.75-7.95,12.22v8.1Z"/>
      <path class="cls-1" d="M380.29,58.19V6.44h19.27c11.77,0,20.4,5.77,20.4,22.12v7.5c0,16.2-8.62,22.12-20.4,22.12h-19.27ZM407.51,36.06v-7.5c0-6.97-1.5-11.77-7.95-11.77h-6.83v31.05h6.83c6.45,0,7.95-4.8,7.95-11.77Z"/>
      <path class="cls-1" d="M468.64,6.44v30.82c0,15.3-8.92,21.67-20.4,21.67s-20.4-6.38-20.4-21.6V6.44h12.45v30.9c0,7.57,2.25,11.25,7.95,11.25s7.95-3.67,7.95-11.25V6.44h12.45Z"/>
      <path class="cls-1" d="M504.11,22.41c-.52-3.3-2.77-6.38-7.2-6.38-5.17,0-7.95,3.75-7.95,12.22v8.1c0,8.1,2.7,12.22,7.95,12.22,4.42,0,6.45-2.25,7.2-6.37h11.85c-1.8,11.62-8.1,16.72-19.05,16.72-11.78,0-20.4-7.12-20.4-22.57v-8.1c0-15.6,8.62-22.57,20.4-22.57,10.27,0,17.32,5.48,19.05,16.72h-11.85Z"/>
      <path class="cls-1" d="M556.91,6.44v10.35h-13.5v41.4h-12.45V16.79h-13.5V6.44h39.45Z"/>
      <path class="cls-1" d="M575.36,58.19h-12.45V6.44h12.45v51.75Z"/>
      <path class="cls-1" d="M604.39,58.94c-11.78,0-20.4-7.12-20.4-22.57v-8.1c0-15.6,8.62-22.57,20.4-22.57s20.4,6.98,20.4,22.57v8.1c0,15.45-8.62,22.57-20.4,22.57ZM596.44,36.36c0,8.47,2.78,12.22,7.95,12.22s7.95-3.75,7.95-12.22v-8.1c0-8.47-2.77-12.22-7.95-12.22s-7.95,3.75-7.95,12.22v8.1Z"/>
      <path class="cls-1" d="M673.46,6.44v51.75h-10.05l-19.05-28.65v28.65h-11.7V6.44h9.9l19.2,29.02V6.44h11.7Z"/>
      <path class="cls-1" d="M254.37,91.46h15.9v-19.8h12.45v51.75h-12.45v-21.6h-15.9v21.6h-12.45v-51.75h12.45v19.8Z"/>
      <path class="cls-1" d="M286.47,123.41l18-51.75h12l18,51.75h-13.27l-2.78-8.85h-15.97l-2.7,8.85h-13.27ZM305.67,104.21h9.52l-4.72-15.3-4.8,15.3Z"/>
      <path class="cls-1" d="M365.74,123.41l-8.62-19.57h-6.45v19.57h-12.45v-51.75h19.5c11.92,0,19.57,5.48,19.57,16.27,0,6.75-3,11.32-8.25,13.72l10.35,21.75h-13.65ZM356.22,93.49c5.02,0,8.62-.67,8.62-5.55s-3.6-5.92-8.62-5.92h-5.55v11.47h5.55Z"/>
      <path class="cls-1" d="M385.02,123.41v-51.75h19.27c11.77,0,20.4,5.77,20.4,22.12v7.5c0,16.2-8.62,22.12-20.4,22.12h-19.27ZM412.24,101.29v-7.5c0-6.97-1.5-11.77-7.95-11.77h-6.83v31.05h6.83c6.45,0,7.95-4.8,7.95-11.77Z"/>
      <path class="cls-1" d="M451.69,123.41h-11.7l-11.55-51.75h13.5l5.62,30.9,9.15-30.9h10.88l9.38,31.12,5.62-31.12h13.5l-11.55,51.75h-11.77l-10.57-33.45-10.5,33.45Z"/>
      <path class="cls-1" d="M494.96,123.41l18-51.75h12l18,51.75h-13.27l-2.78-8.85h-15.97l-2.7,8.85h-13.27ZM514.16,104.21h9.52l-4.72-15.3-4.8,15.3Z"/>
      <path class="cls-1" d="M574.24,123.41l-8.62-19.57h-6.45v19.57h-12.45v-51.75h19.5c11.92,0,19.57,5.48,19.57,16.27,0,6.75-3,11.32-8.25,13.72l10.35,21.75h-13.65ZM564.71,93.49c5.02,0,8.62-.67,8.62-5.55s-3.6-5.92-8.62-5.92h-5.55v11.47h5.55Z"/>
      <path class="cls-1" d="M626.21,71.66v10.35h-20.25v9.45h18v10.35h-18v11.25h20.25v10.35h-32.7v-51.75h32.7Z"/>
    </g>
  </g>
</svg>