<?xml version="1.0" encoding="UTF-8"?>
<svg id="Layer_2" data-name="Layer 2" xmlns="http://www.w3.org/2000/svg" viewBox="0 0 629.31 127.79">
  <defs>
    <style>
      .cls-1 {
        fill: #eb9a37;
      }

      .cls-2 {
        fill: #fff;
      }
    </style>
  </defs>
  <g id="Layer_1-2" data-name="Layer 1">
    <g>
      <path class="cls-2" d="M29.7,49.5h9.72c7.56,0,14.4-3.96,14.4-12.78,0-7.74-5.58-12.24-13.14-12.24s-11.7,4.5-13.14,10.98H1.8C3.06,14.94,19.8,0,42.48,0s41.04,16.74,41.04,34.92c0,14.58-9.36,22.68-16.2,26.64,10.08,5.4,18,14.94,18,29.34,0,20.52-14.04,36.9-41.4,36.9S.9,112.5,0,91.62h25.74c1.08,6.84,6.48,11.34,15.84,11.34s14.04-6.3,14.04-14.22c0-9.18-5.22-14.4-16.2-14.4h-9.72v-24.84Z"/>
      <path class="cls-2" d="M121.5,49.5h9.72c7.56,0,14.4-3.96,14.4-12.78,0-7.74-5.58-12.24-13.14-12.24s-11.7,4.5-13.14,10.98h-25.74C94.86,14.94,111.6,0,134.28,0s41.04,16.74,41.04,34.92c0,14.58-9.36,22.68-16.2,26.64,10.08,5.4,18,14.94,18,29.34,0,20.52-14.04,36.9-41.4,36.9s-43.02-15.3-43.92-36.18h25.74c1.08,6.84,6.48,11.34,15.84,11.34s14.04-6.3,14.04-14.22c0-9.18-5.22-14.4-16.2-14.4h-9.72v-24.84Z"/>
    </g>
    <g>
      <path class="cls-1" d="M239.24,58.93h-12.45V7.19h12.45v51.75Z"/>
      <path class="cls-1" d="M289.79,7.19v51.75h-10.05l-19.05-28.65v28.65h-11.7V7.19h9.9l19.2,29.02V7.19h11.7Z"/>
      <path class="cls-1" d="M298.79,58.93V7.19h19.27c11.77,0,20.4,5.77,20.4,22.12v7.5c0,16.2-8.62,22.12-20.4,22.12h-19.27ZM326.02,36.81v-7.5c0-6.97-1.5-11.77-7.95-11.77h-6.83v31.05h6.83c6.45,0,7.95-4.8,7.95-11.77Z"/>
      <path class="cls-1" d="M387.14,7.19v30.82c0,15.3-8.92,21.67-20.4,21.67s-20.4-6.38-20.4-21.6V7.19h12.45v30.9c0,7.58,2.25,11.25,7.95,11.25s7.95-3.67,7.95-11.25V7.19h12.45Z"/>
      <path class="cls-1" d="M423.07,21.51c-2.03-3.45-4.58-4.72-9.22-4.72-4.12,0-5.92,1.88-5.92,4.5,0,3.07,2.7,4.8,9.22,6.67,11.25,3.22,15.52,7.42,15.52,16.27,0,9.37-6.3,15.45-18.07,15.45-9.45,0-15.82-2.33-20.7-8.47l9.3-6.53c2.55,3.23,5.7,4.65,10.35,4.65s6.67-2.03,6.67-4.5c0-3-2.1-4.5-9.75-6.97-10.5-3.38-15-8.17-15-16.5s5.62-14.92,18.22-14.92c8.25,0,14.92,2.77,18.6,8.47l-9.22,6.6Z"/>
      <path class="cls-1" d="M475.12,7.19v10.35h-13.5v41.4h-12.45V17.54h-13.5V7.19h39.45Z"/>
      <path class="cls-1" d="M507.89,58.93l-8.62-19.57h-6.45v19.57h-12.45V7.19h19.5c11.92,0,19.57,5.47,19.57,16.27,0,6.75-3,11.32-8.25,13.72l10.35,21.75h-13.65ZM498.37,29.01c5.02,0,8.62-.67,8.62-5.55s-3.6-5.92-8.62-5.92h-5.55v11.47h5.55Z"/>
      <path class="cls-1" d="M540.36,58.93h-12.45V7.19h12.45v51.75Z"/>
      <path class="cls-1" d="M544.87,58.93l18-51.75h12l18,51.75h-13.27l-2.78-8.85h-15.97l-2.7,8.85h-13.27ZM564.06,39.74h9.52l-4.72-15.3-4.8,15.3Z"/>
      <path class="cls-1" d="M609.06,48.58h20.25v10.35h-32.7V7.19h12.45v41.4Z"/>
      <path class="cls-1" d="M238.49,92.21h15.9v-19.8h12.45v51.75h-12.45v-21.6h-15.9v21.6h-12.45v-51.75h12.45v19.8Z"/>
      <path class="cls-1" d="M270.59,124.16l18-51.75h12l18,51.75h-13.27l-2.78-8.85h-15.97l-2.7,8.85h-13.27ZM289.79,104.96h9.52l-4.72-15.3-4.8,15.3Z"/>
      <path class="cls-1" d="M349.87,124.16l-8.62-19.57h-6.45v19.57h-12.45v-51.75h19.5c11.92,0,19.57,5.48,19.57,16.27,0,6.75-3,11.33-8.25,13.72l10.35,21.75h-13.65ZM340.34,94.24c5.02,0,8.62-.67,8.62-5.55s-3.6-5.92-8.62-5.92h-5.55v11.47h5.55Z"/>
      <path class="cls-1" d="M369.14,124.16v-51.75h19.27c11.77,0,20.4,5.78,20.4,22.12v7.5c0,16.2-8.62,22.12-20.4,22.12h-19.27ZM396.37,102.04v-7.5c0-6.97-1.5-11.77-7.95-11.77h-6.83v31.05h6.83c6.45,0,7.95-4.8,7.95-11.77Z"/>
      <path class="cls-1" d="M435.82,124.16h-11.7l-11.55-51.75h13.5l5.62,30.9,9.15-30.9h10.88l9.38,31.12,5.62-31.12h13.5l-11.55,51.75h-11.77l-10.57-33.45-10.5,33.45Z"/>
      <path class="cls-1" d="M479.09,124.16l18-51.75h12l18,51.75h-13.27l-2.78-8.85h-15.97l-2.7,8.85h-13.27ZM498.29,104.96h9.52l-4.72-15.3-4.8,15.3Z"/>
      <path class="cls-1" d="M558.36,124.16l-8.62-19.57h-6.45v19.57h-12.45v-51.75h19.5c11.92,0,19.57,5.48,19.57,16.27,0,6.75-3,11.33-8.25,13.72l10.35,21.75h-13.65ZM548.84,94.24c5.02,0,8.62-.67,8.62-5.55s-3.6-5.92-8.62-5.92h-5.55v11.47h5.55Z"/>
      <path class="cls-1" d="M610.34,72.41v10.35h-20.25v9.45h18v10.35h-18v11.25h20.25v10.35h-32.7v-51.75h32.7Z"/>
    </g>
  </g>
</svg>