<?xml version="1.0" encoding="UTF-8"?>
<svg id="Layer_2" data-name="Layer 2" xmlns="http://www.w3.org/2000/svg" viewBox="0 0 777.09 182.95">
  <defs>
    <style>
      .cls-1 {
        fill: #eb9a37;
      }

      .cls-2 {
        fill: #fff;
      }
    </style>
  </defs>
  <g id="Layer_1-2" data-name="Layer 1">
    <g>
      <path class="cls-2" d="M44.64,156.93c-24.12,0-44.64-11.16-44.64-41.4v-45C0,38.49,20.52,29.14,44.64,29.14s44.64,9.36,44.64,41.22v45.18c0,30.24-20.52,41.4-44.64,41.4ZM29.7,112.11c0,13.32,3.6,19.98,14.94,19.98s14.76-6.66,14.76-19.98v-38.16c0-13.32-3.6-19.98-14.76-19.98s-14.94,6.66-14.94,19.98v38.16Z"/>
      <path class="cls-2" d="M98.82,73.95V30.94h78.84v19.44l-34.02,104.76h-30.78l34.2-99.36h-23.4v18.18h-24.84Z"/>
    </g>
    <g>
      <path class="cls-1" d="M258.92.75v10.35h-20.25v9.45h18v10.35h-18v11.25h20.25v10.35h-32.7V.75h32.7Z"/>
      <path class="cls-1" d="M306.1.75v51.75h-10.05l-19.05-28.65v28.65h-11.7V.75h9.9l19.2,29.02V.75h11.7Z"/>
      <path class="cls-1" d="M347.8.75v10.35h-20.25v9.45h18v10.35h-18v11.25h20.25v10.35h-32.7V.75h32.7Z"/>
      <path class="cls-1" d="M381.7,52.5l-8.62-19.57h-6.45v19.57h-12.45V.75h19.5c11.92,0,19.57,5.48,19.57,16.27,0,6.75-3,11.33-8.25,13.72l10.35,21.75h-13.65ZM372.17,22.57c5.02,0,8.62-.67,8.62-5.55s-3.6-5.92-8.62-5.92h-5.55v11.47h5.55Z"/>
      <path class="cls-1" d="M439,25.12v5.55c0,15.45-7.27,22.57-19.05,22.57s-20.4-7.12-20.4-22.57v-7.05c0-16.65,8.62-23.62,20.4-23.62s17.55,6.6,19.05,16.72h-11.85c-.52-3.22-2.7-6.38-7.2-6.38-5.17,0-7.95,3.75-7.95,12.22v8.1c0,8.47,2.78,12.22,7.95,12.22s6.67-3.15,7.12-7.42h-6.9v-10.35h18.82Z"/>
      <path class="cls-1" d="M454.45.75l8.02,17.77,8.03-17.77h14.32l-16.12,31.05v20.7h-12.45v-20.7L440.12.75h14.32Z"/>
      <path class="cls-1" d="M514.3,24c-2.85-3.67-4.72-7.42-4.72-12.07,0-7.27,6.37-11.92,14.92-11.92,9.38,0,14.77,4.8,14.77,10.42s-5.25,10.12-10.5,14.17l7.95,8.92c.38-1.5.53-3.23.53-5.17h11.85c0,5.47-1.35,10.5-3.98,14.62l8.55,9.52h-13.72l-2.25-2.47c-3.6,2.1-8.1,3.22-13.27,3.22-11.85,0-18.6-7.05-18.6-14.4,0-6.67,3.9-11.25,8.47-14.85ZM530.42,42l-9.75-10.72c-1.65,1.8-2.7,3.6-2.7,5.47,0,3.67,2.85,6.15,7.12,6.15,2.02,0,3.82-.3,5.32-.9ZM523.3,17.7c2.92-2.17,5.02-4.2,5.02-6.67,0-1.8-1.42-3-3.6-3-1.95,0-3.45,1.05-3.45,3.9,0,1.8.83,3.83,2.03,5.77Z"/>
      <path class="cls-1" d="M253.15,80.3c-2.03-3.45-4.58-4.72-9.22-4.72-4.12,0-5.92,1.88-5.92,4.5,0,3.07,2.7,4.8,9.22,6.67,11.25,3.22,15.52,7.42,15.52,16.27,0,9.37-6.3,15.45-18.07,15.45-9.45,0-15.82-2.33-20.7-8.47l9.3-6.53c2.55,3.23,5.7,4.65,10.35,4.65s6.67-2.03,6.67-4.5c0-3-2.1-4.5-9.75-6.97-10.5-3.38-15-8.17-15-16.5s5.62-14.92,18.22-14.92c8.25,0,14.92,2.77,18.6,8.47l-9.22,6.6Z"/>
      <path class="cls-1" d="M310.3,65.98v30.82c0,15.3-8.92,21.67-20.4,21.67s-20.4-6.38-20.4-21.6v-30.9h12.45v30.9c0,7.58,2.25,11.25,7.95,11.25s7.95-3.67,7.95-11.25v-30.9h12.45Z"/>
      <path class="cls-1" d="M346.22,80.3c-2.03-3.45-4.58-4.72-9.22-4.72-4.12,0-5.92,1.88-5.92,4.5,0,3.07,2.7,4.8,9.22,6.67,11.25,3.22,15.52,7.42,15.52,16.27,0,9.37-6.3,15.45-18.07,15.45-9.45,0-15.82-2.33-20.7-8.47l9.3-6.53c2.55,3.23,5.7,4.65,10.35,4.65s6.67-2.03,6.67-4.5c0-3-2.1-4.5-9.75-6.97-10.5-3.38-15-8.17-15-16.5s5.62-14.92,18.22-14.92c8.25,0,14.92,2.77,18.6,8.47l-9.22,6.6Z"/>
      <path class="cls-1" d="M398.27,65.98v10.35h-13.5v41.4h-12.45v-41.4h-13.5v-10.35h39.45Z"/>
      <path class="cls-1" d="M395.27,117.73l18-51.75h12l18,51.75h-13.27l-2.77-8.85h-15.97l-2.7,8.85h-13.27ZM414.47,98.53h9.52l-4.72-15.3-4.8,15.3Z"/>
      <path class="cls-1" d="M460.22,117.73h-12.45v-51.75h12.45v51.75Z"/>
      <path class="cls-1" d="M510.77,65.98v51.75h-10.05l-19.05-28.65v28.65h-11.7v-51.75h9.9l19.2,29.02v-29.02h11.7Z"/>
      <path class="cls-1" d="M514.52,117.73l18-51.75h12l18,51.75h-13.27l-2.78-8.85h-15.97l-2.7,8.85h-13.27ZM533.72,98.53h9.52l-4.72-15.3-4.8,15.3Z"/>
      <path class="cls-1" d="M584.34,65.98c12.22,0,19.35,4.27,19.35,13.72,0,5.32-2.32,8.4-5.92,10.8,4.73,2.33,7.58,6,7.58,12.38,0,8.25-5.55,14.85-19.35,14.85h-19.72v-51.75h18.07ZM578.72,85.7h5.25c5.02,0,7.27-1.57,7.27-4.57s-1.58-4.88-8.4-4.88h-4.12v9.45ZM578.72,107.38h5.92c5.55,0,8.25-1.88,8.25-5.7,0-4.2-2.85-5.62-9.15-5.62h-5.02v11.33Z"/>
      <path class="cls-1" d="M625.29,117.73h-12.45v-51.75h12.45v51.75Z"/>
      <path class="cls-1" d="M647.49,107.38h20.25v10.35h-32.7v-51.75h12.45v41.4Z"/>
      <path class="cls-1" d="M686.19,117.73h-12.45v-51.75h12.45v51.75Z"/>
      <path class="cls-1" d="M731.64,65.98v10.35h-13.5v41.4h-12.45v-41.4h-13.5v-10.35h39.45Z"/>
      <path class="cls-1" d="M746.72,65.98l8.02,17.77,8.03-17.77h14.32l-16.12,31.05v20.7h-12.45v-20.7l-16.12-31.05h14.32Z"/>
      <path class="cls-1" d="M238.67,151h15.9v-19.8h12.45v51.75h-12.45v-21.6h-15.9v21.6h-12.45v-51.75h12.45v19.8Z"/>
      <path class="cls-1" d="M270.77,182.95l18-51.75h12l18,51.75h-13.27l-2.78-8.85h-15.97l-2.7,8.85h-13.27ZM289.97,163.75h9.52l-4.72-15.3-4.8,15.3Z"/>
      <path class="cls-1" d="M350.05,182.95l-8.62-19.57h-6.45v19.57h-12.45v-51.75h19.5c11.92,0,19.57,5.47,19.57,16.27,0,6.75-3,11.32-8.25,13.72l10.35,21.75h-13.65ZM340.52,153.03c5.02,0,8.62-.67,8.62-5.55s-3.6-5.92-8.62-5.92h-5.55v11.47h5.55Z"/>
      <path class="cls-1" d="M369.32,182.95v-51.75h19.27c11.77,0,20.4,5.77,20.4,22.12v7.5c0,16.2-8.62,22.12-20.4,22.12h-19.27ZM396.54,160.83v-7.5c0-6.97-1.5-11.77-7.95-11.77h-6.83v31.05h6.83c6.45,0,7.95-4.8,7.95-11.77Z"/>
      <path class="cls-1" d="M436,182.95h-11.7l-11.55-51.75h13.5l5.62,30.9,9.15-30.9h10.88l9.38,31.12,5.62-31.12h13.5l-11.55,51.75h-11.77l-10.57-33.45-10.5,33.45Z"/>
      <path class="cls-1" d="M479.27,182.95l18-51.75h12l18,51.75h-13.27l-2.78-8.85h-15.97l-2.7,8.85h-13.27ZM498.47,163.75h9.52l-4.72-15.3-4.8,15.3Z"/>
      <path class="cls-1" d="M558.54,182.95l-8.62-19.57h-6.45v19.57h-12.45v-51.75h19.5c11.92,0,19.57,5.47,19.57,16.27,0,6.75-3,11.32-8.25,13.72l10.35,21.75h-13.65ZM549.02,153.03c5.02,0,8.62-.67,8.62-5.55s-3.6-5.92-8.62-5.92h-5.55v11.47h5.55Z"/>
      <path class="cls-1" d="M610.52,131.2v10.35h-20.25v9.45h18v10.35h-18v11.25h20.25v10.35h-32.7v-51.75h32.7Z"/>
    </g>
  </g>
</svg>