<?xml version="1.0" encoding="UTF-8"?>
<svg id="Layer_2" data-name="Layer 2" xmlns="http://www.w3.org/2000/svg" viewBox="0 0 569.44 127.79">
  <defs>
    <style>
      .cls-1 {
        fill: #eb9a37;
      }

      .cls-2 {
        fill: #fff;
      }
    </style>
  </defs>
  <g id="Layer_1-2" data-name="Layer 1">
    <g>
      <path class="cls-2" d="M47.7,126h-29.88V32.22L0,43.2V15.48L21.42,1.8h26.28v124.19Z"/>
      <path class="cls-2" d="M100.26,49.5h9.72c7.56,0,14.4-3.96,14.4-12.78,0-7.74-5.58-12.24-13.14-12.24s-11.7,4.5-13.14,10.98h-25.74C73.62,14.94,90.36,0,113.04,0s41.04,16.74,41.04,34.92c0,14.58-9.36,22.68-16.2,26.64,10.08,5.4,18,14.94,18,29.34,0,20.52-14.04,36.9-41.4,36.9s-43.02-15.3-43.92-36.18h25.74c1.08,6.84,6.48,11.34,15.84,11.34s14.04-6.3,14.04-14.22c0-9.18-5.22-14.4-16.2-14.4h-9.72v-24.84Z"/>
    </g>
    <g>
      <path class="cls-1" d="M210.72,33.44l13.95-26.25h11.62v51.75h-11.7v-29.25l-10.65,20.7h-6.67l-10.42-20.47v29.02h-11.7V7.19h11.55l14.02,26.25Z"/>
      <path class="cls-1" d="M264.57,59.68c-11.77,0-20.4-7.12-20.4-22.57v-8.1c0-15.6,8.62-22.57,20.4-22.57s20.4,6.98,20.4,22.57v8.1c0,15.45-8.62,22.57-20.4,22.57ZM256.62,37.11c0,8.47,2.78,12.22,7.95,12.22s7.95-3.75,7.95-12.22v-8.1c0-8.47-2.77-12.22-7.95-12.22s-7.95,3.75-7.95,12.22v8.1Z"/>
      <path class="cls-1" d="M310.92,7.19c12.22,0,19.35,4.27,19.35,13.72,0,5.32-2.32,8.4-5.92,10.8,4.73,2.33,7.58,6,7.58,12.37,0,8.25-5.55,14.85-19.35,14.85h-19.72V7.19h18.07ZM305.29,26.91h5.25c5.02,0,7.27-1.57,7.27-4.57s-1.58-4.87-8.4-4.87h-4.12v9.45ZM305.29,48.58h5.92c5.55,0,8.25-1.88,8.25-5.7,0-4.2-2.85-5.62-9.15-5.62h-5.02v11.32Z"/>
      <path class="cls-1" d="M351.87,58.93h-12.45V7.19h12.45v51.75Z"/>
      <path class="cls-1" d="M374.07,48.58h20.25v10.35h-32.7V7.19h12.45v41.4Z"/>
      <path class="cls-1" d="M412.77,58.93h-12.45V7.19h12.45v51.75Z"/>
      <path class="cls-1" d="M458.22,7.19v10.35h-13.5v41.4h-12.45V17.54h-13.5V7.19h39.45Z"/>
      <path class="cls-1" d="M473.29,7.19l8.02,17.77,8.03-17.77h14.32l-16.12,31.05v20.7h-12.45v-20.7l-16.12-31.05h14.32Z"/>
      <path class="cls-1" d="M197.6,92.21h15.9v-19.8h12.45v51.75h-12.45v-21.6h-15.9v21.6h-12.45v-51.75h12.45v19.8Z"/>
      <path class="cls-1" d="M229.7,124.16l18-51.75h12l18,51.75h-13.27l-2.78-8.85h-15.97l-2.7,8.85h-13.27ZM248.89,104.96h9.52l-4.72-15.3-4.8,15.3Z"/>
      <path class="cls-1" d="M308.97,124.16l-8.62-19.57h-6.45v19.57h-12.45v-51.75h19.5c11.92,0,19.57,5.48,19.57,16.27,0,6.75-3,11.32-8.25,13.72l10.35,21.75h-13.65ZM299.44,94.24c5.02,0,8.62-.67,8.62-5.55s-3.6-5.92-8.62-5.92h-5.55v11.47h5.55Z"/>
      <path class="cls-1" d="M328.24,124.16v-51.75h19.27c11.77,0,20.4,5.77,20.4,22.12v7.5c0,16.2-8.62,22.12-20.4,22.12h-19.27ZM355.47,102.04v-7.5c0-6.97-1.5-11.77-7.95-11.77h-6.83v31.05h6.83c6.45,0,7.95-4.8,7.95-11.77Z"/>
      <path class="cls-1" d="M394.92,124.16h-11.7l-11.55-51.75h13.5l5.62,30.9,9.15-30.9h10.88l9.38,31.12,5.62-31.12h13.5l-11.55,51.75h-11.77l-10.57-33.45-10.5,33.45Z"/>
      <path class="cls-1" d="M438.19,124.16l18-51.75h12l18,51.75h-13.27l-2.78-8.85h-15.97l-2.7,8.85h-13.27ZM457.39,104.96h9.52l-4.72-15.3-4.8,15.3Z"/>
      <path class="cls-1" d="M517.47,124.16l-8.62-19.57h-6.45v19.57h-12.45v-51.75h19.5c11.92,0,19.57,5.48,19.57,16.27,0,6.75-3,11.32-8.25,13.72l10.35,21.75h-13.65ZM507.94,94.24c5.02,0,8.62-.67,8.62-5.55s-3.6-5.92-8.62-5.92h-5.55v11.47h5.55Z"/>
      <path class="cls-1" d="M569.44,72.41v10.35h-20.25v9.45h18v10.35h-18v11.25h20.25v10.35h-32.7v-51.75h32.7Z"/>
    </g>
  </g>
</svg>