<?xml version="1.0" encoding="UTF-8"?>
<svg id="Layer_2" data-name="Layer 2" xmlns="http://www.w3.org/2000/svg" viewBox="0 0 610.52 127.79">
  <defs>
    <style>
      .cls-1 {
        fill: #eb9a37;
      }

      .cls-2 {
        fill: #fff;
      }
    </style>
  </defs>
  <g id="Layer_1-2" data-name="Layer 1">
    <g>
      <path class="cls-2" d="M44.64,127.79C20.52,127.79,0,116.64,0,86.4v-45C0,9.36,20.52,0,44.64,0s44.64,9.36,44.64,41.22v45.18c0,30.24-20.52,41.4-44.64,41.4ZM29.7,82.98c0,13.32,3.6,19.98,14.94,19.98s14.76-6.66,14.76-19.98v-38.16c0-13.32-3.6-19.98-14.76-19.98s-14.94,6.66-14.94,19.98v38.16Z"/>
      <path class="cls-2" d="M109.98,61.56c-9.9-5.22-16.38-15.84-16.38-27.54C93.6,11.52,114.12,0,136.44,0s42.84,11.52,42.84,34.02c0,11.7-6.66,22.32-16.56,27.54,10.08,4.68,18.36,16.02,18.36,30.06,0,23.76-19.8,36.18-44.64,36.18s-44.64-12.42-44.64-36.18c0-14.04,8.46-25.38,18.18-30.06ZM136.44,103.14c8.28,0,14.94-6.66,14.94-15.12,0-9.18-7.74-14.94-14.94-14.94s-14.94,5.76-14.94,14.94c0,8.46,6.3,15.12,14.94,15.12ZM136.44,51.12c7.2,0,13.14-5.94,13.14-13.32s-5.94-12.96-13.14-12.96-13.32,5.76-13.32,12.96,5.94,13.32,13.32,13.32Z"/>
    </g>
    <g>
      <path class="cls-1" d="M252.7,21.2c-.52-3.3-2.77-6.38-7.2-6.38-5.17,0-7.95,3.75-7.95,12.22v8.1c0,8.1,2.7,12.22,7.95,12.22,4.42,0,6.45-2.25,7.2-6.38h11.85c-1.8,11.62-8.1,16.72-19.05,16.72-11.78,0-20.4-7.12-20.4-22.57v-8.1c0-15.6,8.62-22.57,20.4-22.57,10.27,0,17.32,5.47,19.05,16.72h-11.85Z"/>
      <path class="cls-1" d="M283.75,46.63h20.25v10.35h-32.7V5.23h12.45v41.4Z"/>
      <path class="cls-1" d="M322.45,56.98h-12.45V5.23h12.45v51.75Z"/>
      <path class="cls-1" d="M357.77,31.48l13.95-26.25h11.62v51.75h-11.7v-29.25l-10.65,20.7h-6.67l-10.42-20.47v29.02h-11.7V5.23h11.55l14.02,26.25Z"/>
      <path class="cls-1" d="M387.1,56.98l18-51.75h12l18,51.75h-13.27l-2.77-8.85h-15.97l-2.7,8.85h-13.27ZM406.3,37.78h9.52l-4.72-15.3-4.8,15.3Z"/>
      <path class="cls-1" d="M471.55,5.23v10.35h-13.5v41.4h-12.45V15.58h-13.5V5.23h39.45Z"/>
      <path class="cls-1" d="M509.5,5.23v10.35h-20.25v9.45h18v10.35h-18v11.25h20.25v10.35h-32.7V5.23h32.7Z"/>
      <path class="cls-1" d="M238.67,90.25h15.9v-19.8h12.45v51.75h-12.45v-21.6h-15.9v21.6h-12.45v-51.75h12.45v19.8Z"/>
      <path class="cls-1" d="M270.77,122.2l18-51.75h12l18,51.75h-13.27l-2.78-8.85h-15.97l-2.7,8.85h-13.27ZM289.97,103h9.52l-4.72-15.3-4.8,15.3Z"/>
      <path class="cls-1" d="M350.05,122.2l-8.62-19.57h-6.45v19.57h-12.45v-51.75h19.5c11.92,0,19.57,5.48,19.57,16.27,0,6.75-3,11.33-8.25,13.72l10.35,21.75h-13.65ZM340.52,92.28c5.02,0,8.62-.67,8.62-5.55s-3.6-5.92-8.62-5.92h-5.55v11.47h5.55Z"/>
      <path class="cls-1" d="M369.32,122.2v-51.75h19.27c11.77,0,20.4,5.78,20.4,22.12v7.5c0,16.2-8.62,22.12-20.4,22.12h-19.27ZM396.54,100.08v-7.5c0-6.97-1.5-11.77-7.95-11.77h-6.83v31.05h6.83c6.45,0,7.95-4.8,7.95-11.77Z"/>
      <path class="cls-1" d="M436,122.2h-11.7l-11.55-51.75h13.5l5.62,30.9,9.15-30.9h10.88l9.38,31.12,5.62-31.12h13.5l-11.55,51.75h-11.77l-10.57-33.45-10.5,33.45Z"/>
      <path class="cls-1" d="M479.27,122.2l18-51.75h12l18,51.75h-13.27l-2.78-8.85h-15.97l-2.7,8.85h-13.27ZM498.47,103h9.52l-4.72-15.3-4.8,15.3Z"/>
      <path class="cls-1" d="M558.54,122.2l-8.62-19.57h-6.45v19.57h-12.45v-51.75h19.5c11.92,0,19.57,5.48,19.57,16.27,0,6.75-3,11.33-8.25,13.72l10.35,21.75h-13.65ZM549.02,92.28c5.02,0,8.62-.67,8.62-5.55s-3.6-5.92-8.62-5.92h-5.55v11.47h5.55Z"/>
      <path class="cls-1" d="M610.52,70.46v10.35h-20.25v9.45h18v10.35h-18v11.25h20.25v10.35h-32.7v-51.75h32.7Z"/>
    </g>
  </g>
</svg>