<?xml version="1.0" encoding="UTF-8"?>
<svg id="Layer_1" xmlns="http://www.w3.org/2000/svg" xmlns:xlink="http://www.w3.org/1999/xlink" version="1.1" viewBox="0 0 3696.7 292.3">
  <!-- Generator: Adobe Illustrator 29.1.0, SVG Export Plug-In . SVG Version: 2.1.0 Build 142)  -->
  <defs>
    <style>
      .st0, .st1 {
        fill: none;
      }

      .st2 {
        fill: #010101;
      }

      .st3 {
        isolation: isolate;
      }

      .st4 {
        fill: #f27c56;
      }

      .st4, .st5, .st6 {
        fill-rule: evenodd;
      }

      .st5 {
        fill: #ee9e36;
      }

      .st6 {
        fill: #f58e6d;
      }

      .st1 {
        stroke: #d06831;
        stroke-miterlimit: 10;
        stroke-width: 14px;
      }

      .st7 {
        fill: #eb6437;
      }

      .st8 {
        clip-path: url(#clippath);
      }
    </style>
    <clipPath id="clippath">
      <polygon class="st0" points="3580.6 18.3 2011 18.3 1970.2 18.3 618.8 18.3 618.8 268.3 1970.2 268.3 2011 268.3 3580.6 268.3 3696.7 144.3 3580.6 18.3"/>
    </clipPath>
  </defs>
  <g class="st3">
    <g class="st3">
      <path class="st7" d="M169.6,85.1h-8v18.2h-10.5v-51.7h18.5c6.1,0,10.9,1.4,14.3,4.2,3.4,2.8,5.1,6.9,5.1,12.3s-1.7,9.5-5.1,12.5c-3.4,3-8.2,4.5-14.2,4.5ZM161.6,60.5v15.7h6.5c3.6,0,6.2-.6,7.9-1.9,1.6-1.3,2.5-3.3,2.5-6.1,0-5.1-3.4-7.6-10.3-7.6h-6.5Z"/>
    </g>
    <g class="st3">
      <path class="st7" d="M224.3,81.3l10.7,22h-11.5l-9.3-20.3h-8.4v20.3h-10.5v-51.7h18.5c6.1,0,10.9,1.4,14.3,4.1,3.4,2.7,5.1,6.6,5.1,11.7s-2.9,11.4-8.8,13.9ZM205.8,60.5v13.6h7c3.4,0,5.9-.5,7.5-1.5,1.5-1,2.3-2.7,2.3-5.2s-.8-4.3-2.4-5.3c-1.6-1-4.1-1.6-7.5-1.6h-7Z"/>
    </g>
    <g class="st3">
      <path class="st7" d="M279.8,73.8v7.3c0,7.5-1.7,13.2-5.2,17-3.5,3.9-8.4,5.8-14.6,5.8s-11.1-1.9-14.6-5.8c-3.5-3.9-5.2-9.5-5.2-17v-7.3c0-7.5,1.7-13.2,5.2-17.1,3.5-3.8,8.3-5.8,14.6-5.8s11.2,1.9,14.6,5.8c3.5,3.8,5.2,9.5,5.2,17.1ZM250.7,73.8v7.3c0,9.3,3.1,14,9.3,14s9.4-4.7,9.4-14v-7.3c0-9.3-3.1-14-9.4-14s-9.3,4.7-9.3,14Z"/>
      <path class="st7" d="M306.8,103.3h-18.4v-51.7h18.4c13.2,0,19.8,7.5,19.8,22.5v6.7c0,15-6.6,22.5-19.8,22.5ZM298.9,94.5h7.9c3.3,0,5.7-1.1,7.2-3.3,1.4-2.2,2.2-5.6,2.2-10.4v-6.7c0-4.7-.7-8.1-2.2-10.3-1.4-2.2-3.8-3.3-7.2-3.3h-7.9v33.9Z"/>
      <path class="st7" d="M364.5,82.4v-30.8h10.5v30.7c0,7.1-1.8,12.5-5.3,16.2-3.5,3.6-8.4,5.5-14.6,5.5s-11-1.8-14.6-5.4c-3.5-3.6-5.3-9-5.3-16.1v-30.8h10.5v30.8c0,4.4.7,7.6,2.2,9.7,1.5,2,3.9,3.1,7.1,3.1s5.6-1,7.1-3.1c1.5-2,2.2-5.3,2.2-9.7Z"/>
    </g>
    <g class="st3">
      <path class="st7" d="M423.7,67.6h-10c-1-5.2-4-7.9-8.9-7.9s-9.3,4.7-9.3,14v7.3c0,9.3,3.1,14,9.3,14s4.5-.6,5.9-1.9c1.4-1.2,2.4-3.2,3-6h10c-1.6,11.1-7.9,16.7-18.9,16.7s-11.1-1.9-14.6-5.8c-3.5-3.9-5.2-9.5-5.2-17v-7.3c0-7.5,1.7-13.2,5.2-17.1,3.5-3.8,8.3-5.8,14.6-5.8s9.6,1.4,12.8,4.2c3.2,2.8,5.3,7,6.1,12.5Z"/>
    </g>
    <g class="st3">
      <path class="st7" d="M425.5,60.5v-8.9h38.9v8.9h-14.2v42.8h-10.5v-42.8h-14.2Z"/>
      <path class="st7" d="M502.4,42.5l-25.2,69.5h-8.6l25.2-69.5h8.6Z"/>
    </g>
    <g class="st3">
      <path class="st7" d="M233.5,132.6l-7.9,5.6c-1.2-1.8-2.6-3.2-4.1-4-1.5-.8-3.6-1.2-6.1-1.2s-4.1.5-5.4,1.5c-1.2,1-1.9,2.4-1.9,4.2s.8,3.4,2.3,4.5c1.5,1.1,4.2,2.1,7.9,3,5.5,1.4,9.5,3.3,12,5.7,2.4,2.3,3.7,5.7,3.7,10.2s-1.5,8.3-4.6,11c-3.1,2.7-7.5,4.1-13.2,4.1-9,0-15.6-2.8-19.9-8.5l8-5.5c1.5,1.8,3.1,3.2,4.8,4s3.9,1.2,6.4,1.2c5.3,0,8-1.9,8-5.8s-.8-3.3-2.3-4.5c-1.5-1.1-4.3-2.2-8.3-3.3-5.2-1.3-9.1-3.3-11.6-5.9-2.5-2.6-3.7-6-3.7-10.2s1.5-8,4.5-10.6c3-2.6,7.4-3.9,13.1-3.9,8.4,0,14.4,2.8,18.1,8.5Z"/>
    </g>
    <g class="st3">
      <path class="st7" d="M237.5,133.8v-8.9h38.9v8.9h-14.2v42.8h-10.5v-42.8h-14.2Z"/>
    </g>
    <g class="st3">
      <path class="st7" d="M288.9,166.7l-3.1,9.8h-11.2l18-51.7h10l18,51.7h-11.2l-3.1-9.8h-17.3ZM303.4,157.9l-5.8-18.2-5.8,18.2h11.7Z"/>
    </g>
    <g class="st3">
      <path class="st7" d="M355.3,154.5l10.7,22h-11.5l-9.3-20.3h-8.4v20.3h-10.5v-51.7h18.5c6.1,0,10.9,1.4,14.3,4.1,3.4,2.7,5.1,6.6,5.1,11.7s-2.9,11.4-8.8,13.9ZM336.8,133.8v13.6h7c3.4,0,5.9-.5,7.5-1.5,1.5-1,2.3-2.7,2.3-5.2s-.8-4.3-2.4-5.3c-1.6-1-4.1-1.6-7.5-1.6h-7Z"/>
    </g>
    <g class="st3">
      <path class="st7" d="M367.9,133.8v-8.9h38.9v8.9h-14.2v42.8h-10.5v-42.8h-14.2Z"/>
      <path class="st7" d="M441.7,155.6v-30.8h10.5v30.7c0,7.1-1.8,12.5-5.3,16.2-3.5,3.6-8.4,5.5-14.6,5.5s-11-1.8-14.6-5.4c-3.5-3.6-5.3-9-5.3-16.1v-30.8h10.5v30.8c0,4.4.7,7.6,2.2,9.7,1.5,2,3.9,3.1,7.1,3.1s5.6-1,7.1-3.1c1.5-2,2.2-5.3,2.2-9.7Z"/>
      <path class="st7" d="M480.9,158.3h-8v18.2h-10.5v-51.7h18.5c6.1,0,10.9,1.4,14.3,4.2,3.4,2.8,5.1,6.9,5.1,12.3s-1.7,9.5-5.1,12.5c-3.4,3-8.2,4.5-14.2,4.5ZM472.9,133.8v15.7h6.5c3.6,0,6.2-.6,7.9-1.9,1.6-1.3,2.5-3.3,2.5-6.1,0-5.1-3.4-7.6-10.3-7.6h-6.5Z"/>
    </g>
    <g class="st3">
      <path class="st7" d="M14.8,240l-3.1,9.8H.5l18-51.7h10l18,51.7h-11.2l-3.1-9.8H14.8ZM29.3,231.1l-5.8-18.2-5.8,18.2h11.7Z"/>
    </g>
    <g class="st3">
      <path class="st7" d="M87.2,214.1h-10c-1-5.2-4-7.9-8.9-7.9s-9.3,4.7-9.3,14v7.3c0,9.3,3.1,14,9.3,14s4.5-.6,5.9-1.9c1.4-1.2,2.4-3.2,3-6h10c-1.6,11.1-7.9,16.7-18.9,16.7s-11.1-1.9-14.6-5.8c-3.5-3.9-5.2-9.5-5.2-17v-7.3c0-7.5,1.7-13.2,5.2-17.1,3.5-3.8,8.3-5.8,14.6-5.8s9.6,1.4,12.8,4.2c3.2,2.8,5.3,7,6.1,12.5Z"/>
    </g>
    <g class="st3">
      <path class="st7" d="M131.5,214.1h-10c-1-5.2-4-7.9-8.9-7.9s-9.3,4.7-9.3,14v7.3c0,9.3,3.1,14,9.3,14s4.5-.6,5.9-1.9c1.4-1.2,2.4-3.2,3-6h10c-1.6,11.1-7.9,16.7-18.9,16.7s-11.1-1.9-14.6-5.8c-3.5-3.9-5.2-9.5-5.2-17v-7.3c0-7.5,1.7-13.2,5.2-17.1,3.5-3.8,8.3-5.8,14.6-5.8s9.6,1.4,12.8,4.2c3.2,2.8,5.3,7,6.1,12.5Z"/>
      <path class="st7" d="M138.8,249.8v-51.7h32.2v8.9h-21.7v11.6h19.5v8.8h-19.5v13.5h21.7v8.8h-32.2Z"/>
      <path class="st7" d="M178.3,198.1h10.5v42.8h21.7v8.8h-32.2v-51.7Z"/>
      <path class="st7" d="M216,249.8v-51.7h32.2v8.9h-21.7v11.6h19.5v8.8h-19.5v13.5h21.7v8.8h-32.2Z"/>
    </g>
    <g class="st3">
      <path class="st7" d="M284.3,227.8l10.7,22h-11.5l-9.3-20.3h-8.4v20.3h-10.5v-51.7h18.5c6.1,0,10.9,1.4,14.3,4.1,3.4,2.7,5.1,6.6,5.1,11.7s-2.9,11.4-8.8,13.9ZM265.8,207v13.6h7c3.4,0,5.9-.5,7.5-1.5,1.5-1,2.3-2.7,2.3-5.2s-.8-4.3-2.4-5.3c-1.6-1-4.1-1.6-7.5-1.6h-7Z"/>
    </g>
    <g class="st3">
      <path class="st7" d="M311.8,240l-3.1,9.8h-11.2l18-51.7h10l18,51.7h-11.2l-3.1-9.8h-17.3ZM326.2,231.1l-5.8-18.2-5.8,18.2h11.7Z"/>
    </g>
    <g class="st3">
      <path class="st7" d="M341.7,207v-8.9h38.9v8.9h-14.2v42.8h-10.5v-42.8h-14.2Z"/>
      <path class="st7" d="M387.1,198.1h10.5v51.7h-10.5v-51.7Z"/>
      <path class="st7" d="M446.6,220.3v7.3c0,7.5-1.7,13.2-5.2,17-3.5,3.9-8.4,5.8-14.6,5.8s-11.1-1.9-14.6-5.8c-3.5-3.9-5.2-9.5-5.2-17v-7.3c0-7.5,1.7-13.2,5.2-17.1,3.5-3.8,8.3-5.8,14.6-5.8s11.2,1.9,14.6,5.8c3.5,3.8,5.2,9.5,5.2,17.1ZM417.4,220.3v7.3c0,9.3,3.1,14,9.3,14s9.4-4.7,9.4-14v-7.3c0-9.3-3.1-14-9.4-14s-9.3,4.7-9.3,14Z"/>
      <path class="st7" d="M484.1,230.5v-32.4h10v51.7h-8.8l-20.1-32v32h-10v-51.7h8.7l20.2,32.4Z"/>
    </g>
  </g>
  <path class="st4" d="M2649,268.3l116.1-124-115.7-126h-917.8l115.7,126-115.7,124h917.4Z"/>
  <path class="st5" d="M3571.9,268.3l115.7-124-115.7-126h-908.8l115.7,126-115.7,124h908.8Z"/>
  <path class="st6" d="M1723.2,18.3H619.6v250h1102.2l115.9-124s-114.6-126-114.6-126Z"/>
  <g class="st8">
    <g>
      <polyline class="st1" points="1704.4 -2.2 1838.8 144.4 1711.2 279.5"/>
      <polyline class="st1" points="2636.4 -1.3 2770.8 145.3 2643.2 280.5"/>
    </g>
  </g>
  <path class="st2" d="M1934.6,70.6c1.7,1.8,2.6,3.9,2.6,6.4s-.9,4.6-2.6,6.4c-1.7,1.8-4.1,2.7-7.1,2.7h-4.2v10.1h-6.9v-28.2h11.2c3,0,5.3.9,7.1,2.7h0ZM1929.4,79c.6-.6.8-1.2.8-2s-.3-1.4-.8-2c-.6-.6-1.3-.9-2.2-.9h-3.9v5.7h3.9c.9,0,1.6-.3,2.2-.8ZM1963.5,96.1h-8.1l-5-10.5h-2.3v10.5h-6.9v-28.2h11.2c3,0,5.3.9,7,2.7,1.7,1.8,2.6,3.9,2.6,6.4s-.4,3.3-1.3,4.6c-.9,1.2-2,2.2-3.2,2.8,0,0,6.1,11.8,6.1,11.8ZM1954.2,79c.6-.6.8-1.2.8-2s-.3-1.4-.8-2c-.6-.6-1.3-.9-2.2-.9h-3.9v5.7h3.9c.9,0,1.6-.3,2.2-.8ZM1987.1,78.5c0,.8,0,1.9,0,3.4s0,2.7,0,3.4c0,.8-.1,1.7-.3,2.8-.2,1.1-.5,2-.9,2.8s-1,1.5-1.7,2.2c-2.1,2.1-4.7,3.1-7.8,3.1s-5.8-1-7.8-3.1c-.7-.7-1.2-1.4-1.7-2.2-.4-.8-.7-1.7-.9-2.8-.2-1.1-.3-2-.3-2.8,0-.8,0-1.9,0-3.4s0-2.7,0-3.4c0-.8.2-1.7.3-2.8.2-1.1.4-2,.9-2.8s1-1.5,1.7-2.2c2-2.1,4.7-3.1,7.8-3.1s5.8,1,7.8,3.1c.7.7,1.2,1.4,1.7,2.2.4.8.7,1.7.9,2.8.2,1.1.2,2,.3,2.8ZM1980,86.8c.2-.9.2-2.5.2-4.9s0-4-.2-4.9c-.2-.9-.4-1.6-.8-2.1-.6-.8-1.6-1.2-2.8-1.2s-2.1.4-2.8,1.2c-.4.5-.6,1.2-.8,2.1-.2.9-.2,2.5-.2,4.9s0,4,.2,4.9.4,1.5.8,2c.6.8,1.6,1.3,2.8,1.3s2.1-.4,2.8-1.3c.4-.5.6-1.2.8-2ZM2012.7,76c.2,1.2.2,3.2.2,6s0,4.8-.2,6c-.1,1.2-.5,2.3-1.1,3.3-2,3.2-5,4.8-9.2,4.8h-10.4v-28.2h10.4c4.2,0,7.2,1.6,9.2,4.8.6,1,1,2.2,1.1,3.4ZM2005.9,86.5c.1-.8.2-2.3.2-4.6s0-3.8-.2-4.6c-.1-.8-.3-1.4-.6-1.8-.7-1.1-1.8-1.6-3.3-1.6h-3.1v15.8h3.1c1.5,0,2.6-.5,3.3-1.6.3-.4.5-1,.6-1.8h0ZM2038.7,86.2c0,3-1,5.4-3.1,7.3-2.1,1.9-4.6,2.8-7.6,2.8s-5.5-.9-7.6-2.8c-2.1-1.9-3.1-4.3-3.1-7.3v-18.3h6.9v18.1c0,1.3.3,2.3,1,3.1.7.7,1.6,1.1,2.7,1.1s2.1-.4,2.8-1.1c.7-.7,1-1.8,1-3.1v-18.1h6.9v18.3h0ZM2064.4,87.1c-.5,3-1.7,5.3-3.6,6.8s-4.2,2.3-7,2.3-5.8-1-7.8-3.1c-.7-.7-1.2-1.4-1.7-2.2-.4-.8-.7-1.7-.9-2.8-.2-1.1-.3-2-.3-2.8,0-.8,0-1.9,0-3.4s0-2.7,0-3.4c0-.8.2-1.7.3-2.8.2-1.1.4-2,.9-2.8s1-1.5,1.7-2.2c2-2.1,4.7-3.1,7.8-3.1s5.1.8,7,2.3,3.1,3.8,3.6,6.8h-7c-.6-2-1.8-3-3.6-3s-2.1.4-2.7,1.2c-.4.5-.6,1.2-.8,2.1-.1.9-.2,2.5-.2,4.9s0,4,.2,4.9c.2.9.5,1.6.8,2.1.6.8,1.5,1.2,2.7,1.2,1.9,0,3.1-1,3.6-3h7ZM2086.8,74.1h-6.9v22h-6.9v-22h-6.9v-6.2h20.8v6.2h0ZM2122.6,96.1h-7.2l-1.3-4.2h-8.7l-1.4,4.2h-7.2l10.2-28.2h5.3l10.2,28.2h0ZM2112.2,86.1l-2.4-7.5-2.5,7.5h4.9ZM2145.5,87.1c-.5,3-1.7,5.3-3.6,6.8s-4.2,2.3-7,2.3-5.8-1-7.8-3.1c-.7-.7-1.2-1.4-1.7-2.2-.4-.8-.7-1.7-.9-2.8-.1-1.1-.3-2-.3-2.8,0-.8,0-1.9,0-3.4s0-2.7,0-3.4c0-.8.1-1.7.3-2.8.2-1.1.5-2,.9-2.8s1-1.5,1.7-2.2c2.1-2.1,4.7-3.1,7.8-3.1s5.1.8,7,2.3,3.1,3.8,3.6,6.8h-7c-.6-2-1.8-3-3.6-3s-2.1.4-2.7,1.2c-.4.5-.7,1.2-.8,2.1-.1.9-.2,2.5-.2,4.9s0,4,.2,4.9c.2.9.5,1.6.8,2.1.6.8,1.5,1.2,2.7,1.2,1.9,0,3.1-1,3.6-3h7ZM2169.8,87.1c-.5,3-1.7,5.3-3.6,6.8-1.9,1.6-4.2,2.3-7,2.3s-5.8-1-7.9-3.1c-.7-.7-1.2-1.4-1.6-2.2-.4-.8-.7-1.7-.9-2.8-.1-1.1-.3-2-.3-2.8,0-.8,0-1.9,0-3.4s0-2.7,0-3.4c0-.8.1-1.7.3-2.8.1-1.1.4-2,.9-2.8.4-.8,1-1.5,1.6-2.2,2.1-2.1,4.7-3.1,7.9-3.1s5.1.8,7,2.3c1.9,1.6,3.1,3.8,3.6,6.8h-7.1c-.6-2-1.7-3-3.6-3s-2.1.4-2.8,1.2c-.4.5-.6,1.2-.8,2.1-.2.9-.2,2.5-.2,4.9s0,4,.2,4.9c.2.9.5,1.6.8,2.1.6.8,1.5,1.2,2.8,1.2,1.9,0,3-1,3.6-3h7.1ZM2192.6,96.1h-19.1v-28.2h19.1v6.2h-12.2v4.7h10.4v6.2h-10.4v4.9h12.2v6.2h0ZM2216.3,96.1h-18.8v-28.2h6.9v22h11.8v6.2ZM2239.5,96.1h-19.1v-28.2h19.1v6.2h-12.2v4.7h10.4v6.2h-10.4v4.9h12.2v6.2h0ZM2266.7,96.1h-8.1l-5-10.5h-2.4v10.5h-6.9v-28.2h11.2c3,0,5.3.9,7,2.7,1.7,1.8,2.6,3.9,2.6,6.4s-.4,3.3-1.3,4.6c-.9,1.2-2,2.2-3.2,2.8,0,0,6.1,11.8,6.1,11.8ZM2257.5,79c.6-.6.8-1.2.8-2s-.3-1.4-.8-2c-.6-.6-1.3-.9-2.2-.9h-3.9v5.7h3.9c.9,0,1.6-.3,2.2-.8ZM2293.2,96.1h-7.2l-1.3-4.2h-8.7l-1.4,4.2h-7.2l10.2-28.2h5.3l10.2,28.2h0ZM2282.9,86.1l-2.4-7.5-2.5,7.5h4.9ZM2312.4,74.1h-6.9v22h-6.9v-22h-6.9v-6.2h20.8v6.2h0ZM2323.4,96.1h-6.9v-28.2h6.9v28.2ZM2349.6,78.5c0,.8,0,1.9,0,3.4s0,2.7,0,3.4c0,.8-.1,1.7-.3,2.8-.1,1.1-.5,2-.9,2.8s-1,1.5-1.6,2.2c-2.1,2.1-4.7,3.1-7.9,3.1s-5.8-1-7.8-3.1c-.7-.7-1.2-1.4-1.7-2.2-.4-.8-.7-1.7-.9-2.8-.2-1.1-.3-2-.3-2.8,0-.8,0-1.9,0-3.4s0-2.7,0-3.4c0-.8.1-1.7.3-2.8.1-1.1.4-2,.9-2.8.4-.8,1-1.5,1.7-2.2,2.1-2.1,4.7-3.1,7.8-3.1s5.8,1,7.9,3.1c.7.7,1.2,1.4,1.6,2.2.4.8.7,1.7.9,2.8.1,1.1.2,2,.3,2.8ZM2342.5,86.8c.1-.9.2-2.5.2-4.9s0-4-.2-4.9c-.1-.9-.4-1.6-.8-2.1-.6-.8-1.6-1.2-2.8-1.2s-2.1.4-2.8,1.2c-.4.5-.6,1.2-.8,2.1-.1.9-.2,2.5-.2,4.9s0,4,.2,4.9.4,1.5.8,2c.6.8,1.6,1.3,2.8,1.3s2.1-.4,2.8-1.3c.4-.5.6-1.2.8-2ZM2376.5,96.1h-6.1l-9-14.2v14.2h-6.9v-28.2h6.1l9,14.2v-14.2h6.9v28.2ZM2400.1,99h-8.6v-34h8.6v3.6h-4.6v26.8h4.6v3.6ZM2423.1,88c0,2.6-.9,4.6-2.8,6.1-1.9,1.5-4.3,2.2-7.3,2.2s-4.1-.3-5.6-.8c-1.6-.6-3-1.5-4.4-2.9l2.8-2.8c1.8,1.8,4.2,2.7,7.2,2.7s3.3-.4,4.3-1.1c1-.8,1.5-1.8,1.5-3.2s-.4-2.3-1.1-2.9c-.7-.6-1.7-1-3.1-1.2l-3.3-.5c-2.4-.4-4.1-1.1-5.3-2.3-1.4-1.3-2.1-3.1-2.1-5.4s.9-4.5,2.5-6c1.7-1.5,4-2.3,6.9-2.3s3.5.2,4.9.8,2.7,1.3,3.9,2.4l-2.7,2.7c-1.5-1.4-3.6-2.2-6.2-2.2s-2.9.4-3.8,1.2c-.9.8-1.3,1.8-1.3,3.2s.4,2,1,2.6c.7.6,1.7,1.1,3.1,1.3l3.4.5c2.3.4,4.1,1.1,5.2,2.1,1.5,1.4,2.3,3.3,2.3,5.8h0ZM2446.9,96.1h-18v-28.2h18v3.8h-13.7v8.2h11.7v3.8h-11.7v8.5h13.7v3.8ZM2473.2,96.1h-5l-5.9-11.9h-5.3v11.9h-4.3v-28.2h10.9c2.6,0,4.8.8,6.3,2.3,1.6,1.5,2.4,3.5,2.4,5.9s-.5,3.6-1.6,4.9c-1,1.3-2.4,2.2-4,2.6l6.5,12.5h0ZM2466.8,79.4c.9-.8,1.3-1.9,1.3-3.2s-.4-2.4-1.3-3.2c-.9-.8-2-1.2-3.5-1.2h-6.3v8.8h6.3c1.4,0,2.6-.4,3.5-1.2h0ZM2496.9,67.9l-9.4,28.2h-3.3l-9.3-28.2h4.4l6.5,20.5,6.5-20.5h4.5ZM2505.1,96.1h-4.3v-28.2h4.3v28.2ZM2531.6,87.6c-.5,2.7-1.6,4.9-3.4,6.4-1.8,1.5-4,2.3-6.6,2.3s-5.4-.9-7.3-2.8c-1.2-1.3-2.1-2.7-2.4-4.2-.3-1.5-.5-4-.5-7.3s.1-5.7.5-7.2c.3-1.5,1.1-2.9,2.4-4.2,1.9-1.9,4.3-2.8,7.3-2.8s4.9.8,6.6,2.3c1.8,1.5,2.9,3.6,3.4,6.4h-4.4c-.3-1.5-1-2.7-2-3.6-1-.9-2.2-1.3-3.8-1.3s-3.1.6-4.2,1.7c-.7.7-1.2,1.7-1.4,2.8-.2,1.1-.3,3.1-.3,5.9s.1,4.8.3,6c.2,1.1.7,2.1,1.4,2.8,1.1,1.2,2.5,1.7,4.2,1.7s2.8-.4,3.8-1.3c1-.9,1.7-2.1,2-3.6h4.3ZM2555.3,96.1h-18v-28.2h18v3.8h-13.7v8.2h11.7v3.8h-11.7v8.5h13.7v3.8ZM2578.7,88c0,2.6-.9,4.6-2.8,6.1-1.9,1.5-4.3,2.2-7.3,2.2s-4-.3-5.6-.8c-1.6-.6-3-1.5-4.4-2.9l2.8-2.8c1.8,1.8,4.2,2.7,7.2,2.7s3.3-.4,4.3-1.1c1-.8,1.6-1.8,1.6-3.2s-.4-2.3-1.1-2.9c-.7-.6-1.7-1-3.1-1.2l-3.3-.5c-2.4-.4-4.1-1.1-5.3-2.3-1.4-1.3-2.1-3.1-2.1-5.4s.8-4.5,2.5-6c1.7-1.5,4-2.3,6.9-2.3s3.5.2,4.9.8c1.4.5,2.7,1.3,3.9,2.4l-2.7,2.7c-1.5-1.4-3.6-2.2-6.2-2.2s-2.9.4-3.8,1.2c-.9.8-1.3,1.8-1.3,3.2s.4,2,1,2.6c.7.6,1.7,1.1,3.1,1.3l3.4.5c2.3.4,4.1,1.1,5.2,2.1,1.5,1.4,2.3,3.3,2.3,5.8h0ZM2591.1,99h-8.6v-3.6h4.7v-26.9h-4.7v-3.6h8.6s0,34,0,34Z"/>
  <path class="st2" d="M1947.8,128.9c1.3,1.2,1.9,2.8,1.9,4.6s-.6,3.3-1.9,4.6c-1.2,1.2-2.8,1.9-4.6,1.9s-3.3-.6-4.6-1.9c-1.2-1.3-1.8-2.8-1.8-4.6s.6-3.3,1.8-4.6c1.3-1.3,2.8-1.9,4.6-1.9s3.3.6,4.6,1.9ZM1994.2,138.6c0,2.6-.9,4.6-2.8,6.1-1.9,1.5-4.3,2.2-7.3,2.2s-4.1-.3-5.6-.8c-1.6-.6-3-1.5-4.3-2.9l2.8-2.8c1.8,1.8,4.2,2.7,7.2,2.7s3.3-.4,4.3-1.1c1-.8,1.5-1.9,1.5-3.2s-.4-2.3-1.1-2.9c-.7-.6-1.7-1-3.1-1.2l-3.3-.5c-2.3-.4-4.1-1.1-5.3-2.3-1.4-1.3-2.1-3.1-2.1-5.4s.9-4.5,2.5-6c1.7-1.5,4-2.3,6.9-2.3s3.5.2,4.9.8,2.7,1.3,3.9,2.4l-2.7,2.7c-1.5-1.4-3.6-2.2-6.2-2.2s-2.9.4-3.8,1.2c-.9.8-1.3,1.8-1.3,3.2s.3,2,1,2.6c.7.6,1.7,1.1,3.1,1.3l3.4.5c2.3.4,4.1,1.1,5.2,2.1,1.5,1.4,2.3,3.3,2.3,5.8h0ZM2017.3,122.3h-7.8v24.3h-4.3v-24.3h-7.8v-3.8h19.8v3.8ZM2040.5,146.6h-4.6l-1.9-5.7h-11.1l-1.9,5.7h-4.6l10.3-28.2h3.4l10.3,28.2h0ZM2032.8,137.4l-4.3-12.5-4.4,12.5h8.7ZM2065,146.6h-5l-5.9-11.9h-5.3v11.9h-4.3v-28.2h10.9c2.6,0,4.8.8,6.3,2.3,1.6,1.5,2.4,3.5,2.4,5.9s-.5,3.5-1.6,4.9c-1,1.3-2.4,2.2-4.1,2.6l6.5,12.5h0ZM2058.6,130c.9-.8,1.3-1.9,1.3-3.2s-.4-2.4-1.3-3.2c-.9-.8-2-1.2-3.5-1.2h-6.3v8.8h6.3c1.4,0,2.6-.4,3.5-1.1h0ZM2087.2,122.3h-7.8v24.3h-4.3v-24.3h-7.8v-3.8h19.8v3.8ZM2111.8,137.1c0,2.9-.9,5.2-2.9,7.1-1.9,1.8-4.3,2.7-7.2,2.7s-5.3-.9-7.3-2.7c-1.9-1.8-2.8-4.2-2.8-7.1v-18.7h4.3v18.5c0,1.9.5,3.4,1.6,4.5,1.1,1.1,2.5,1.6,4.2,1.6s3.2-.5,4.2-1.6c1.1-1.1,1.6-2.6,1.6-4.5v-18.5h4.3v18.7ZM2135.9,120.9c1.7,1.6,2.5,3.7,2.5,6.1s-.8,4.5-2.5,6.1c-1.6,1.6-3.8,2.4-6.5,2.4h-6.4v11.1h-4.3v-28.2h10.7c2.7,0,4.9.8,6.5,2.4ZM2132.8,130.5c.9-.8,1.3-2,1.3-3.5s-.4-2.6-1.3-3.4c-.9-.8-2.1-1.3-3.6-1.3h-6.2v9.4h6.2c1.5,0,2.8-.4,3.6-1.2ZM2170.3,120.9c1.6,1.6,2.5,3.7,2.5,6.1s-.8,4.5-2.5,6.1c-1.6,1.6-3.8,2.4-6.5,2.4h-6.4v11.1h-4.3v-28.2h10.7c2.7,0,4.9.8,6.5,2.4ZM2167.2,130.5c.9-.8,1.4-2,1.4-3.5s-.5-2.6-1.4-3.4c-.9-.8-2.1-1.3-3.6-1.3h-6.2v9.4h6.2c1.5,0,2.8-.4,3.6-1.2ZM2198.6,146.6h-5l-5.9-11.9h-5.3v11.9h-4.3v-28.2h10.9c2.6,0,4.8.8,6.3,2.3,1.6,1.5,2.4,3.5,2.4,5.9s-.5,3.5-1.6,4.9c-1,1.3-2.4,2.2-4,2.6l6.5,12.5h0ZM2192.1,130c.9-.8,1.3-1.9,1.3-3.2s-.4-2.4-1.3-3.2c-.9-.8-2-1.2-3.5-1.2h-6.3v8.8h6.3c1.4,0,2.6-.4,3.5-1.1h0ZM2222.3,125.3c.3,1.5.5,3.9.5,7.3s-.1,5.8-.5,7.3c-.3,1.5-1.1,2.9-2.4,4.2-1.9,1.9-4.3,2.9-7.3,2.9s-5.4-.9-7.3-2.9c-1.3-1.3-2.1-2.7-2.4-4.2-.3-1.5-.4-3.9-.4-7.3s.1-5.8.4-7.3,1.1-2.9,2.4-4.2c1.9-1.9,4.3-2.8,7.3-2.8s5.4.9,7.3,2.8c1.3,1.3,2.1,2.7,2.4,4.2ZM2218.2,138.5c.2-1.1.3-3.1.3-6s-.1-4.8-.3-6c-.2-1.2-.7-2.1-1.4-2.8-1.1-1.2-2.5-1.7-4.2-1.7s-3.1.6-4.2,1.7c-.7.7-1.1,1.7-1.3,2.8-.2,1.1-.3,3.1-.3,5.9s.1,4.8.3,5.9c.2,1.1.7,2.1,1.3,2.8,1.1,1.2,2.5,1.8,4.2,1.8s3.1-.6,4.2-1.8c.7-.7,1.1-1.6,1.4-2.8ZM2248.8,126.1c.3,1.6.4,3.7.4,6.4s-.1,4.9-.4,6.5c-.2,1.6-.8,2.9-1.7,4-1.9,2.4-4.6,3.6-8,3.6h-9.9v-28.2h9.9c3.4,0,6.1,1.2,8,3.6.9,1.1,1.5,2.5,1.7,4.1ZM2244.6,138c.2-1.2.3-3.1.3-5.5s-.1-4.2-.3-5.4c-.2-1.2-.6-2.2-1.2-2.9-1.1-1.3-2.7-1.9-4.8-1.9h-5.1v20.6h5.1c2.1,0,3.7-.6,4.8-1.9.6-.7,1.1-1.7,1.2-2.9h0ZM2275.3,137.1c0,2.9-1,5.2-2.9,7.1-1.9,1.8-4.4,2.7-7.3,2.7s-5.3-.9-7.2-2.7c-1.9-1.8-2.9-4.2-2.9-7.1v-18.7h4.3v18.5c0,1.9.5,3.4,1.6,4.5,1.1,1.1,2.5,1.6,4.2,1.6s3.2-.5,4.2-1.6c1.1-1.1,1.6-2.6,1.6-4.5v-18.5h4.3v18.7ZM2301.4,138.2c-.5,2.7-1.6,4.9-3.4,6.4-1.8,1.5-4,2.3-6.6,2.3s-5.4-.9-7.3-2.9c-1.2-1.3-2-2.7-2.4-4.2-.3-1.5-.5-4-.5-7.3s.1-5.7.5-7.2c.3-1.5,1.1-2.9,2.4-4.2,1.9-1.9,4.3-2.8,7.3-2.8s4.8.8,6.6,2.3c1.8,1.5,2.9,3.6,3.4,6.4h-4.4c-.3-1.5-1-2.7-1.9-3.6-1-.9-2.2-1.3-3.8-1.3s-3.1.6-4.2,1.7c-.7.7-1.2,1.7-1.4,2.8-.2,1.1-.3,3.1-.3,5.9s.1,4.8.3,6c.2,1.1.7,2.1,1.4,2.8,1.1,1.2,2.5,1.7,4.2,1.7s2.8-.4,3.8-1.3,1.7-2.1,2-3.6h4.3ZM2323.6,122.3h-7.7v24.3h-4.3v-24.3h-7.8v-3.8h19.8v3.8ZM2362.8,146.6h-4.3v-18.8l-6.5,13.7h-3.2l-6.6-13.7v18.8h-4.3v-28.2h4.3l8.2,17.5,8.1-17.5h4.3v28.2h0ZM2390.9,146.6h-4.6l-1.9-5.7h-11.1l-1.9,5.7h-4.6l10.3-28.2h3.4l10.3,28.2h0ZM2383.2,137.4l-4.3-12.5-4.4,12.5h8.7ZM2416.1,146.6h-3.9l-13-19.8v19.8h-4.3v-28.2h3.9l13,19.8v-19.8h4.3v28.2ZM2444.2,146.6h-4.6l-1.9-5.7h-11.1l-1.9,5.7h-4.6l10.3-28.2h3.4l10.3,28.2h0ZM2436.5,137.4l-4.3-12.5-4.4,12.5h8.7ZM2467.2,135.7c0,1.9-.2,3.4-.6,4.6-.4,1.2-1,2.3-1.9,3.3-2,2.1-4.6,3.2-7.8,3.2s-5.4-.9-7.3-2.9c-1.3-1.3-2.1-2.7-2.4-4.2-.3-1.5-.5-4-.5-7.3s.2-5.7.5-7.2c.3-1.5,1.1-2.9,2.4-4.2,1.9-1.9,4.3-2.8,7.3-2.8s5.2.8,6.9,2.4c1.8,1.6,2.9,3.7,3.3,6.2h-4.3c-.4-1.6-1.1-2.8-2.1-3.6-1-.9-2.3-1.3-3.9-1.3s-3.1.6-4.2,1.7c-.7.7-1.1,1.7-1.3,2.8-.2,1.1-.3,3.1-.3,5.9s.1,4.8.3,6c.2,1.1.7,2.1,1.3,2.8,1.1,1.2,2.5,1.7,4.2,1.7s3.5-.7,4.6-2c.9-1.1,1.4-2.5,1.4-4.4v-1.6h-6v-3.6h10.3v4.3h0ZM2491.5,146.6h-18v-28.2h18v3.8h-13.7v8.2h11.7v3.8h-11.7v8.5h13.7v3.8ZM2522.2,146.6h-4.3v-18.8l-6.5,13.7h-3.2l-6.6-13.7v18.8h-4.3v-28.2h4.3l8.2,17.5,8.1-17.5h4.3v28.2h0ZM2547.6,146.6h-18v-28.2h18v3.8h-13.7v8.2h11.7v3.8h-11.7v8.5h13.7v3.8ZM2574.6,146.6h-3.9l-13-19.8v19.8h-4.3v-28.2h3.9l13,19.8v-19.8h4.3v28.2h0ZM2599.3,122.3h-7.8v24.3h-4.3v-24.3h-7.8v-3.8h19.8v3.8ZM1947.8,168.5c1.3,1.2,1.9,2.8,1.9,4.6s-.6,3.3-1.9,4.6c-1.2,1.2-2.8,1.9-4.6,1.9s-3.3-.6-4.6-1.9c-1.2-1.3-1.8-2.8-1.8-4.6s.6-3.3,1.8-4.6c1.3-1.3,2.8-1.9,4.6-1.9s3.3.6,4.6,1.9ZM1980.9,186.2h-4.3v-28.2h4.3v28.2h0ZM2009.5,186.2h-3.9l-13-19.8v19.8h-4.3v-28.2h3.9l13,19.8v-19.8h4.3v28.2h0ZM2036.4,165.7c.3,1.6.4,3.7.4,6.4s-.1,4.9-.4,6.5c-.2,1.6-.8,2.9-1.7,4-1.9,2.4-4.6,3.6-8,3.6h-9.9v-28.2h9.9c3.4,0,6.1,1.2,8,3.6.9,1.1,1.5,2.5,1.7,4.1h0ZM2032.3,177.6c.2-1.2.3-3.1.3-5.5s0-4.2-.3-5.4c-.2-1.2-.6-2.2-1.2-2.9-1.1-1.3-2.7-1.9-4.8-1.9h-5.2v20.6h5.2c2.1,0,3.7-.6,4.8-1.9.6-.7,1-1.7,1.2-2.9ZM2063,176.7c0,2.9-.9,5.2-2.9,7.1-1.9,1.8-4.3,2.7-7.2,2.7s-5.3-.9-7.3-2.7c-1.9-1.8-2.8-4.2-2.8-7.1v-18.7h4.3v18.5c0,1.9.5,3.4,1.6,4.5,1.1,1.1,2.5,1.6,4.2,1.6s3.2-.5,4.2-1.6c1.1-1.1,1.6-2.6,1.6-4.5v-18.5h4.3v18.7h0ZM2087.5,178.2c0,2.6-.9,4.6-2.8,6.1-1.9,1.5-4.3,2.2-7.3,2.2s-4-.3-5.6-.8c-1.6-.6-3-1.5-4.4-2.9l2.8-2.8c1.8,1.8,4.2,2.7,7.3,2.7s3.3-.4,4.3-1.1c1-.8,1.5-1.9,1.5-3.2s-.4-2.3-1.1-2.9c-.7-.6-1.7-1-3.1-1.2l-3.3-.5c-2.3-.4-4.1-1.1-5.3-2.3-1.4-1.3-2.1-3.1-2.1-5.4s.8-4.5,2.5-6c1.7-1.5,4-2.3,6.9-2.3s3.5.2,4.9.8c1.4.5,2.7,1.3,3.9,2.4l-2.7,2.7c-1.5-1.4-3.6-2.2-6.2-2.2s-2.9.4-3.8,1.2c-.9.8-1.3,1.9-1.3,3.2s.3,2,1,2.6c.7.6,1.7,1.1,3.1,1.3l3.4.5c2.3.4,4.1,1.1,5.2,2.1,1.5,1.4,2.3,3.3,2.3,5.8h0ZM2110.5,161.9h-7.7v24.3h-4.3v-24.3h-7.8v-3.8h19.8v3.8ZM2135.9,186.2h-5l-5.9-11.9h-5.3v11.9h-4.3v-28.2h10.9c2.6,0,4.8.8,6.3,2.3,1.6,1.5,2.4,3.5,2.4,5.9s-.5,3.6-1.6,4.9c-1,1.3-2.4,2.2-4.1,2.6l6.5,12.5h0ZM2129.5,169.6c.9-.8,1.3-1.9,1.3-3.2s-.4-2.4-1.3-3.2c-.9-.8-2-1.2-3.5-1.2h-6.3v8.8h6.3c1.4,0,2.6-.4,3.5-1.1h0ZM2145.6,186.2h-4.3v-28.2h4.3v28.2h0ZM2173.7,186.2h-4.6l-1.9-5.7h-11.1l-1.9,5.7h-4.6l10.3-28.2h3.4l10.3,28.2h0ZM2166,176.9l-4.3-12.5-4.4,12.5h8.7ZM2195.6,186.2h-17.8v-28.2h4.3v24.3h13.6v3.8h0ZM2227.2,160.5c1.6,1.6,2.5,3.6,2.5,6.1s-.8,4.5-2.5,6.1c-1.6,1.6-3.8,2.4-6.5,2.4h-6.4v11.1h-4.3v-28.2h10.7c2.7,0,4.9.8,6.5,2.4h0ZM2224,170.1c.9-.8,1.4-2,1.4-3.5s-.5-2.6-1.4-3.4c-.9-.8-2.1-1.3-3.6-1.3h-6.2v9.4h6.2c1.5,0,2.8-.4,3.6-1.2ZM2239.1,186.2h-4.3v-28.2h4.3v28.2h0ZM2264.3,186.2h-17.8v-28.2h4.3v24.3h13.6v3.8h0ZM2286.4,164.9c.3,1.5.5,3.9.5,7.3s-.1,5.8-.5,7.3c-.3,1.5-1.1,2.9-2.4,4.2-1.9,1.9-4.3,2.9-7.3,2.9s-5.4-.9-7.3-2.9c-1.3-1.3-2.1-2.7-2.4-4.2-.3-1.5-.4-3.9-.4-7.3s.1-5.8.4-7.3c.3-1.5,1.1-2.9,2.4-4.2,1.9-1.9,4.3-2.9,7.3-2.9s5.4.9,7.3,2.9c1.3,1.3,2.1,2.7,2.4,4.2ZM2282.2,178.1c.2-1.1.3-3.1.3-6s-.1-4.8-.3-6c-.2-1.2-.7-2.1-1.3-2.8-1.1-1.2-2.5-1.7-4.2-1.7s-3.1.6-4.2,1.7c-.7.7-1.1,1.7-1.3,2.9-.2,1.1-.3,3.1-.3,5.9s.1,4.8.3,5.9c.2,1.1.7,2.1,1.3,2.8,1.1,1.2,2.6,1.8,4.2,1.8s3.1-.6,4.2-1.8c.7-.7,1.1-1.6,1.3-2.8h0ZM2309.7,161.9h-7.7v24.3h-4.3v-24.3h-7.8v-3.8h19.8v3.8ZM2341.3,160.5c1.7,1.6,2.5,3.6,2.5,6.1s-.8,4.5-2.5,6.1c-1.6,1.6-3.8,2.4-6.5,2.4h-6.4v11.1h-4.3v-28.2h10.7c2.7,0,4.9.8,6.5,2.4h0ZM2338.2,170.1c.9-.8,1.3-2,1.3-3.5s-.4-2.6-1.3-3.4c-.9-.8-2.1-1.3-3.6-1.3h-6.2v9.4h6.2c1.5,0,2.7-.4,3.6-1.2ZM2369.5,186.2h-5l-5.9-11.9h-5.3v11.9h-4.3v-28.2h10.9c2.6,0,4.8.8,6.3,2.3,1.6,1.5,2.4,3.5,2.4,5.9s-.5,3.6-1.6,4.9c-1,1.3-2.4,2.2-4.1,2.6l6.5,12.5h0ZM2363.1,169.6c.9-.8,1.3-1.9,1.3-3.2s-.4-2.4-1.3-3.2c-.9-.8-2-1.2-3.5-1.2h-6.3v8.8h6.3c1.4,0,2.6-.4,3.5-1.1h0ZM2393.3,164.9c.3,1.5.5,3.9.5,7.3s-.1,5.8-.5,7.3-1.1,2.9-2.4,4.2c-1.9,1.9-4.3,2.9-7.3,2.9s-5.4-.9-7.3-2.9c-1.3-1.3-2.1-2.7-2.4-4.2-.3-1.5-.4-3.9-.4-7.3s.1-5.8.4-7.3c.3-1.5,1.1-2.9,2.4-4.2,1.9-1.9,4.3-2.9,7.3-2.9s5.4.9,7.3,2.9c1.3,1.3,2.1,2.7,2.4,4.2ZM2389.2,178.1c.2-1.1.3-3.1.3-6s-.1-4.8-.3-6c-.2-1.2-.7-2.1-1.3-2.8-1.1-1.2-2.5-1.7-4.2-1.7s-3.1.6-4.2,1.7c-.7.7-1.1,1.7-1.4,2.9-.2,1.1-.3,3.1-.3,5.9s.1,4.8.3,5.9c.2,1.1.7,2.1,1.4,2.8,1.1,1.2,2.5,1.8,4.2,1.8s3.1-.6,4.2-1.8c.7-.7,1.1-1.6,1.3-2.8h0ZM2411.8,177.3c0,2.8-.9,5.1-2.7,6.7-1.8,1.6-4,2.4-6.7,2.4s-5-.9-6.8-2.7l2.8-2.8c.6.6,1.2,1,1.7,1.3.6.3,1.3.4,2.3.4,1.6,0,2.9-.5,3.8-1.4.9-1,1.3-2.4,1.3-4.2v-19h4.3v19.3h0ZM2436.8,186.2h-18v-28.2h18v3.8h-13.7v8.2h11.7v3.8h-11.7v8.5h13.7v3.8h0ZM2461.8,177.8c-.5,2.7-1.6,4.9-3.4,6.4-1.8,1.5-4,2.3-6.6,2.3s-5.4-.9-7.3-2.9c-1.3-1.3-2.1-2.7-2.4-4.2-.3-1.5-.5-4-.5-7.3s.1-5.7.5-7.2c.3-1.5,1.1-2.9,2.4-4.2,1.9-1.9,4.3-2.9,7.3-2.9s4.8.8,6.6,2.3c1.8,1.5,2.9,3.6,3.4,6.4h-4.4c-.3-1.5-1-2.7-1.9-3.6-1-.9-2.2-1.3-3.8-1.3s-3.1.6-4.2,1.7c-.7.7-1.2,1.7-1.4,2.9-.2,1.1-.3,3.1-.3,5.9s.1,4.8.3,6c.2,1.1.7,2.1,1.4,2.8,1.1,1.2,2.5,1.7,4.2,1.7s2.8-.4,3.8-1.3,1.7-2.1,2-3.6h4.3ZM2484,161.9h-7.8v24.3h-4.3v-24.3h-7.7v-3.8h19.8v3.8ZM2506.4,178.2c0,2.6-.9,4.6-2.8,6.1-1.9,1.5-4.3,2.2-7.3,2.2s-4-.3-5.6-.8c-1.6-.6-3-1.5-4.4-2.9l2.8-2.8c1.8,1.8,4.2,2.7,7.2,2.7s3.3-.4,4.3-1.1c1-.8,1.6-1.9,1.6-3.2s-.4-2.3-1.1-2.9c-.7-.6-1.7-1-3.1-1.2l-3.3-.5c-2.4-.4-4.1-1.1-5.3-2.3-1.4-1.3-2.1-3.1-2.1-5.4s.8-4.5,2.5-6c1.7-1.5,4-2.3,6.9-2.3s3.5.2,4.9.8c1.4.5,2.7,1.3,3.9,2.4l-2.7,2.7c-1.5-1.4-3.6-2.2-6.2-2.2s-2.9.4-3.8,1.2c-.9.8-1.3,1.9-1.3,3.2s.4,2,1,2.6c.7.6,1.7,1.1,3.1,1.3l3.4.5c2.3.4,4.1,1.1,5.2,2.1,1.5,1.4,2.3,3.3,2.3,5.8h0ZM1947.8,208c1.3,1.2,1.9,2.8,1.9,4.6s-.6,3.3-1.9,4.6c-1.2,1.2-2.8,1.9-4.6,1.9s-3.3-.6-4.6-1.9c-1.2-1.3-1.8-2.8-1.8-4.6s.6-3.3,1.8-4.6c1.3-1.3,2.8-1.9,4.6-1.9s3.3.6,4.6,1.9ZM1993.8,200.1c1.7,1.6,2.5,3.6,2.5,6.1s-.8,4.5-2.5,6.1c-1.6,1.6-3.8,2.4-6.5,2.4h-6.4v11.1h-4.3v-28.2h10.7c2.7,0,4.9.8,6.5,2.4h0ZM1990.7,209.7c.9-.8,1.3-2,1.3-3.5s-.4-2.6-1.3-3.4c-.9-.8-2.1-1.3-3.6-1.3h-6.2v9.4h6.2c1.5,0,2.7-.4,3.6-1.2ZM2022.1,225.8h-5l-5.9-11.9h-5.3v11.9h-4.3v-28.2h10.9c2.6,0,4.8.8,6.3,2.3,1.6,1.5,2.4,3.5,2.4,5.9s-.5,3.6-1.6,4.9c-1,1.3-2.4,2.2-4.1,2.6l6.5,12.5h0ZM2015.6,209.1c.9-.8,1.3-1.9,1.3-3.2s-.4-2.4-1.3-3.2c-.9-.8-2-1.2-3.5-1.2h-6.3v8.8h6.3c1.4,0,2.6-.4,3.5-1.1h0ZM2045.8,204.4c.3,1.5.5,3.9.5,7.3s-.2,5.8-.5,7.3c-.3,1.5-1.1,2.9-2.4,4.2-1.9,1.9-4.3,2.9-7.3,2.9s-5.4-.9-7.3-2.9c-1.3-1.3-2.1-2.7-2.4-4.2-.3-1.5-.4-3.9-.4-7.3s.1-5.8.4-7.3c.3-1.5,1.1-2.9,2.4-4.2,1.9-1.9,4.3-2.9,7.3-2.9s5.4.9,7.3,2.9c1.3,1.3,2.1,2.7,2.4,4.2ZM2041.7,217.7c.2-1.1.3-3.1.3-6s-.1-4.8-.3-6c-.2-1.2-.7-2.1-1.3-2.8-1.1-1.2-2.5-1.7-4.2-1.7s-3.1.6-4.2,1.7c-.7.7-1.1,1.7-1.4,2.9-.2,1.1-.3,3.1-.3,5.9s.1,4.8.3,5.9c.2,1.1.7,2.1,1.4,2.8,1.1,1.2,2.5,1.8,4.2,1.8s3.1-.6,4.2-1.8c.7-.7,1.1-1.6,1.3-2.8h0ZM2072.3,205.3c.3,1.6.4,3.7.4,6.4s-.1,4.9-.4,6.5c-.2,1.6-.8,2.9-1.7,4-1.9,2.4-4.6,3.6-8,3.6h-9.9v-28.2h9.9c3.4,0,6.1,1.2,8,3.6.9,1.1,1.5,2.5,1.7,4.1ZM2068.1,217.2c.2-1.2.3-3.1.3-5.5s0-4.2-.3-5.4c-.2-1.2-.6-2.2-1.2-2.9-1.1-1.3-2.7-1.9-4.8-1.9h-5.1v20.6h5.1c2.1,0,3.7-.6,4.8-1.9.6-.7,1-1.7,1.2-2.9ZM2098.8,216.3c0,2.9-1,5.2-2.9,7.1-1.9,1.8-4.3,2.7-7.2,2.7s-5.3-.9-7.2-2.7c-1.9-1.8-2.9-4.2-2.9-7.1v-18.7h4.3v18.5c0,1.9.5,3.4,1.6,4.5,1.1,1.1,2.5,1.6,4.2,1.6s3.2-.5,4.2-1.6c1.1-1.1,1.6-2.6,1.6-4.5v-18.5h4.3v18.7h0ZM2124.9,217.4c-.5,2.7-1.6,4.9-3.4,6.4-1.8,1.5-4,2.3-6.6,2.3s-5.4-.9-7.3-2.9c-1.2-1.3-2-2.7-2.4-4.2-.3-1.5-.5-4-.5-7.3s.1-5.7.5-7.2c.3-1.5,1.1-2.9,2.4-4.2,1.9-1.9,4.3-2.9,7.3-2.9s4.9.8,6.6,2.3c1.8,1.5,2.9,3.6,3.4,6.4h-4.4c-.3-1.5-1-2.7-2-3.6-1-.9-2.2-1.3-3.8-1.3s-3.1.6-4.2,1.7c-.7.7-1.2,1.7-1.4,2.9-.2,1.1-.3,3.1-.3,5.9s.1,4.8.3,6c.2,1.1.7,2.1,1.4,2.8,1.1,1.2,2.5,1.7,4.2,1.7s2.8-.4,3.8-1.3c1-.9,1.7-2.1,2-3.6h4.3ZM2147.1,201.5h-7.8v24.3h-4.3v-24.3h-7.8v-3.8h19.8v3.8ZM2181.1,205.3c.3,1.6.4,3.7.4,6.4s-.1,4.9-.4,6.5c-.2,1.6-.8,2.9-1.7,4-1.9,2.4-4.6,3.6-8,3.6h-9.9v-28.2h9.9c3.4,0,6.1,1.2,8,3.6.9,1.1,1.5,2.5,1.7,4.1ZM2176.9,217.2c.2-1.2.3-3.1.3-5.5s-.1-4.2-.3-5.4c-.2-1.2-.6-2.2-1.2-2.9-1.1-1.3-2.7-1.9-4.8-1.9h-5.1v20.6h5.1c2.1,0,3.7-.6,4.8-1.9.6-.7,1.1-1.7,1.2-2.9ZM2205.8,225.8h-18v-28.2h18v3.8h-13.7v8.2h11.7v3.8h-11.7v8.5h13.7v3.8ZM2236.5,225.8h-4.3v-18.8l-6.5,13.7h-3.2l-6.6-13.7v18.8h-4.3v-28.2h4.3l8.2,17.5,8.1-17.5h4.3v28.2h0ZM2262.6,204.4c.3,1.5.5,3.9.5,7.3s-.1,5.8-.5,7.3c-.3,1.5-1.1,2.9-2.4,4.2-1.9,1.9-4.3,2.9-7.3,2.9s-5.4-.9-7.3-2.9c-1.3-1.3-2.1-2.7-2.4-4.2-.3-1.5-.4-3.9-.4-7.3s.1-5.8.4-7.3c.3-1.5,1.1-2.9,2.4-4.2,1.9-1.9,4.3-2.9,7.3-2.9s5.4.9,7.3,2.9c1.3,1.3,2.1,2.7,2.4,4.2ZM2258.5,217.7c.2-1.1.3-3.1.3-6s0-4.8-.3-6c-.2-1.2-.7-2.1-1.3-2.8-1.1-1.2-2.5-1.7-4.2-1.7s-3.1.6-4.2,1.7c-.7.7-1.1,1.7-1.3,2.9-.2,1.1-.3,3.1-.3,5.9s0,4.8.3,5.9c.2,1.1.7,2.1,1.3,2.8,1.1,1.2,2.5,1.8,4.2,1.8s3.1-.6,4.2-1.8c.7-.7,1.1-1.6,1.3-2.8h0ZM2296.8,225.8h-17.9v-28.2h4.3v24.3h13.6v3.8ZM2322.4,225.8h-4.6l-1.9-5.7h-11.1l-1.9,5.7h-4.6l10.3-28.2h3.4l10.3,28.2h0ZM2314.8,216.5l-4.3-12.5-4.4,12.5h8.7ZM2346.4,217.9c0,2.5-.8,4.5-2.3,5.9-1.6,1.4-3.6,2.1-6.2,2.1h-11.4v-28.2h10.9c2.6,0,4.7.7,6.2,2.1,1.5,1.4,2.3,3.2,2.3,5.6s-.4,2.7-1.1,3.8c-.8,1.1-1.6,1.8-2.7,2.2,1.2.5,2.2,1.3,3,2.4.8,1.1,1.2,2.5,1.2,4.2h0ZM2342.1,217.7c0-1.3-.4-2.3-1.2-3.1s-2-1.2-3.4-1.2h-6.7v8.6h6.7c1.4,0,2.6-.4,3.4-1.2.8-.8,1.2-1.8,1.2-3.1h0ZM2340.4,208.5c.9-.7,1.3-1.7,1.3-3s-.4-2.3-1.3-3c-.8-.7-1.9-1.1-3.3-1.1h-6.3v8.1h6.3c1.4,0,2.5-.3,3.3-1h0ZM2370.3,217.8c0,2.6-.9,4.6-2.8,6.1-1.9,1.5-4.3,2.2-7.3,2.2s-4-.3-5.6-.8c-1.6-.6-3-1.5-4.4-2.9l2.8-2.8c1.8,1.8,4.2,2.7,7.2,2.7s3.3-.4,4.3-1.1c1-.8,1.6-1.9,1.6-3.2s-.4-2.3-1.1-2.9c-.7-.6-1.7-1-3.1-1.2l-3.3-.5c-2.4-.4-4.1-1.1-5.3-2.3-1.4-1.3-2.1-3.1-2.1-5.4s.8-4.5,2.5-6c1.7-1.5,4-2.3,6.9-2.3s3.5.2,4.9.8c1.4.5,2.7,1.3,3.9,2.4l-2.7,2.7c-1.5-1.4-3.6-2.2-6.2-2.2s-2.9.4-3.8,1.2c-.9.8-1.3,1.9-1.3,3.2s.4,2,1,2.6c.7.6,1.7,1.1,3.1,1.3l3.4.5c2.3.4,4.1,1.1,5.2,2.1,1.5,1.4,2.3,3.3,2.3,5.8h0Z"/>
  <path class="st2" d="M777.3,66.2c1.7,1.8,2.6,3.9,2.6,6.4s-.9,4.6-2.6,6.4c-1.7,1.8-4.1,2.7-7,2.7h-4.2v10.1h-6.9v-28.2h11.2c3,0,5.3.9,7,2.7h0ZM772.1,74.6c.5-.6.8-1.2.8-2s-.3-1.4-.8-2c-.5-.6-1.3-.9-2.2-.9h-3.9v5.7h3.9c.9,0,1.6-.3,2.2-.8ZM806.2,91.7h-8l-5-10.5h-2.3v10.5h-6.9v-28.2h11.2c3,0,5.3.9,7,2.7,1.7,1.8,2.6,3.9,2.6,6.4s-.5,3.3-1.3,4.6c-.9,1.2-2,2.2-3.2,2.8l6.1,11.8h0ZM797,74.6c.5-.6.8-1.2.8-2s-.3-1.4-.8-2c-.5-.6-1.3-.9-2.2-.9h-3.9v5.7h3.9c.9,0,1.6-.3,2.2-.8ZM829.8,74.1c0,.8,0,1.9,0,3.4s0,2.7,0,3.4c0,.8-.1,1.7-.3,2.8-.2,1.1-.5,2-.9,2.8s-1,1.5-1.7,2.2c-2.1,2.1-4.7,3.1-7.8,3.1s-5.8-1-7.8-3.1-1.2-1.4-1.7-2.2c-.4-.8-.7-1.7-.9-2.8-.2-1.1-.3-2-.3-2.8,0-.8,0-1.9,0-3.4s0-2.7,0-3.4c0-.8.2-1.7.3-2.8.2-1.1.5-2,.9-2.8s1-1.5,1.7-2.2c2.1-2.1,4.7-3.1,7.8-3.1s5.8,1,7.8,3.1,1.2,1.4,1.7,2.2c.4.8.7,1.7.9,2.8.2,1.1.2,2,.3,2.8ZM822.8,82.4c.2-.9.2-2.5.2-4.9s0-4-.2-4.9c-.2-.9-.4-1.6-.8-2.1-.6-.8-1.6-1.2-2.8-1.2s-2.1.4-2.8,1.2c-.4.5-.6,1.2-.8,2.1-.2.9-.2,2.5-.2,4.9s0,4,.2,4.9.4,1.5.8,2c.6.8,1.6,1.3,2.8,1.3s2.1-.4,2.8-1.3c.4-.5.6-1.2.8-2ZM855.4,71.6c.2,1.2.2,3.2.2,6s0,4.8-.2,6c-.1,1.2-.5,2.3-1.2,3.3-2,3.2-5,4.8-9.1,4.8h-10.5v-28.2h10.5c4.1,0,7.2,1.6,9.1,4.8.6,1,1,2.2,1.2,3.4ZM848.6,82.1c.1-.8.2-2.3.2-4.6s0-3.8-.2-4.6c-.1-.8-.3-1.4-.6-1.8-.7-1.1-1.8-1.6-3.3-1.6h-3v15.8h3c1.5,0,2.6-.5,3.3-1.6.3-.4.5-1,.6-1.8h0ZM881.4,81.8c0,3-1,5.4-3.1,7.3-2.1,1.9-4.6,2.8-7.6,2.8s-5.5-.9-7.6-2.8c-2-1.9-3-4.3-3-7.3v-18.3h6.9v18.1c0,1.3.3,2.3,1,3.1.7.7,1.6,1.1,2.7,1.1s2.1-.4,2.8-1.1c.7-.7,1-1.8,1-3.1v-18.1h6.9v18.3h0ZM907.1,82.7c-.5,3-1.7,5.3-3.6,6.8-1.9,1.6-4.2,2.3-7,2.3s-5.8-1-7.8-3.1-1.2-1.4-1.7-2.2c-.4-.8-.7-1.7-.9-2.8-.2-1.1-.3-2-.3-2.8,0-.8,0-1.9,0-3.4s0-2.7,0-3.4c0-.8.2-1.7.3-2.8.2-1.1.5-2,.9-2.8s1-1.5,1.7-2.2c2.1-2.1,4.7-3.1,7.8-3.1s5.1.8,7,2.3c1.9,1.6,3.1,3.8,3.6,6.8h-7c-.5-2-1.8-3-3.6-3s-2.1.4-2.7,1.2c-.4.5-.7,1.2-.8,2.1-.2.9-.2,2.5-.2,4.9s0,4,.2,4.9c.2.9.5,1.6.8,2.1.6.8,1.5,1.2,2.7,1.2,1.8,0,3-1,3.6-3h7ZM929.5,69.7h-6.9v22h-6.9v-22h-6.9v-6.2h20.8v6.2h0ZM965.3,91.7h-7.2l-1.3-4.2h-8.7l-1.4,4.2h-7.2l10.2-28.2h5.3l10.2,28.2h0ZM954.9,81.7l-2.4-7.5-2.5,7.5h4.9,0ZM988.2,82.7c-.5,3-1.7,5.3-3.6,6.8-1.9,1.6-4.2,2.3-7,2.3s-5.8-1-7.8-3.1-1.2-1.4-1.7-2.2c-.4-.8-.7-1.7-.9-2.8-.2-1.1-.3-2-.3-2.8,0-.8,0-1.9,0-3.4s0-2.7,0-3.4c0-.8.2-1.7.3-2.8.2-1.1.5-2,.9-2.8s1-1.5,1.7-2.2c2.1-2.1,4.7-3.1,7.8-3.1s5.1.8,7,2.3c1.9,1.6,3.1,3.8,3.6,6.8h-7c-.5-2-1.8-3-3.6-3s-2.1.4-2.7,1.2c-.4.5-.7,1.2-.8,2.1-.2.9-.2,2.5-.2,4.9s0,4,.2,4.9c.2.9.5,1.6.8,2.1.6.8,1.5,1.2,2.7,1.2,1.8,0,3-1,3.6-3h7ZM1012.5,82.7c-.5,3-1.7,5.3-3.6,6.8-1.9,1.6-4.2,2.3-7,2.3s-5.8-1-7.8-3.1-1.2-1.4-1.7-2.2c-.4-.8-.7-1.7-.9-2.8-.2-1.1-.3-2-.3-2.8,0-.8,0-1.9,0-3.4s0-2.7,0-3.4c0-.8.2-1.7.3-2.8.2-1.1.5-2,.9-2.8s1-1.5,1.7-2.2c2.1-2.1,4.7-3.1,7.8-3.1s5.1.8,7,2.3c1.9,1.6,3.1,3.8,3.6,6.8h-7c-.5-2-1.8-3-3.6-3s-2.1.4-2.7,1.2c-.4.5-.7,1.2-.8,2.1-.2.9-.2,2.5-.2,4.9s0,4,.2,4.9c.2.9.5,1.6.8,2.1.6.8,1.5,1.2,2.7,1.2,1.8,0,3-1,3.6-3h7ZM1035.3,91.7h-19.2v-28.2h19.2v6.2h-12.2v4.7h10.4v6.2h-10.5v4.9h12.2v6.2h0ZM1059,91.7h-18.8v-28.2h6.9v22h11.8v6.2h0ZM1082.2,91.7h-19.2v-28.2h19.2v6.2h-12.2v4.7h10.4v6.2h-10.4v4.9h12.2v6.2h0ZM1109.4,91.7h-8l-5-10.5h-2.3v10.5h-6.9v-28.2h11.2c3,0,5.3.9,7.1,2.7,1.7,1.8,2.6,3.9,2.6,6.4s-.4,3.3-1.3,4.6c-.9,1.2-2,2.2-3.2,2.8l6.1,11.8h0ZM1100.2,74.6c.6-.6.8-1.2.8-2s-.3-1.4-.8-2c-.6-.6-1.3-.9-2.2-.9h-3.9v5.7h3.9c.9,0,1.6-.3,2.2-.8ZM1136,91.7h-7.2l-1.3-4.2h-8.7l-1.4,4.2h-7.2l10.2-28.2h5.3l10.2,28.2h0ZM1125.6,81.7l-2.4-7.5-2.5,7.5h4.9,0ZM1155.2,69.7h-6.9v22h-6.9v-22h-6.9v-6.2h20.8v6.2h0ZM1166.1,91.7h-6.9v-28.2h6.9v28.2ZM1192.3,74.1c0,.8,0,1.9,0,3.4s0,2.7,0,3.4c0,.8-.1,1.7-.3,2.8-.2,1.1-.4,2-.9,2.8s-1,1.5-1.7,2.2c-2.1,2.1-4.7,3.1-7.8,3.1s-5.8-1-7.8-3.1c-.7-.7-1.2-1.4-1.7-2.2-.4-.8-.7-1.7-.9-2.8-.2-1.1-.3-2-.3-2.8,0-.8,0-1.9,0-3.4s0-2.7,0-3.4c0-.8.2-1.7.3-2.8.2-1.1.4-2,.9-2.8s1-1.5,1.7-2.2c2.1-2.1,4.7-3.1,7.8-3.1s5.8,1,7.8,3.1c.7.7,1.2,1.4,1.7,2.2.4.8.7,1.7.9,2.8.2,1.1.2,2,.3,2.8ZM1185.2,82.4c.2-.9.2-2.5.2-4.9s0-4-.2-4.9c-.2-.9-.4-1.6-.8-2.1-.6-.8-1.6-1.2-2.8-1.2s-2.1.4-2.8,1.2c-.4.5-.6,1.2-.8,2.1-.2.9-.2,2.5-.2,4.9s0,4,.2,4.9.4,1.5.8,2c.6.8,1.6,1.3,2.8,1.3s2.1-.4,2.8-1.3c.4-.5.6-1.2.8-2ZM1219.2,91.7h-6.1l-9-14.2v14.2h-6.9v-28.2h6.1l9,14.2v-14.2h6.9v28.2ZM1243.6,94.6h-8.6v-34h8.6v3.6h-4.6v26.8h4.6v3.6ZM1253.2,91.7h-4.3v-28.2h4.3v28.2ZM1281.8,91.7h-3.9l-13-19.8v19.8h-4.3v-28.2h3.9l13,19.8v-19.8h4.3v28.2ZM1307.1,67.3h-13.7v8.6h11.7v3.8h-11.7v11.9h-4.3v-28.2h18v3.8h0ZM1332.8,91.7h-5l-5.9-11.9h-5.3v11.9h-4.3v-28.2h10.9c2.6,0,4.8.8,6.3,2.3,1.6,1.5,2.4,3.5,2.4,5.9s-.5,3.6-1.6,4.9c-1,1.3-2.4,2.2-4,2.6l6.5,12.5h0ZM1326.4,75c.9-.8,1.3-1.9,1.3-3.2s-.4-2.4-1.3-3.2c-.9-.8-2-1.2-3.5-1.2h-6.3v8.8h6.3c1.4,0,2.6-.4,3.5-1.2h0ZM1359,91.7h-4.6l-1.9-5.7h-11.1l-1.9,5.7h-4.6l10.3-28.2h3.4l10.3,28.2h0ZM1351.3,82.4l-4.3-12.5-4.4,12.5h8.7,0ZM1395.9,91.7h-5.2l-2.3-2.8c-2.3,2-4.9,3-7.8,3s-5.2-.8-6.7-2.3c-1.6-1.5-2.4-3.6-2.4-6.1s.5-3.2,1.5-4.4c1-1.2,2.4-2.4,4.1-3.5-.6-.7-1-1.2-1.4-1.7-.3-.5-.7-1.1-1-1.9-.3-.8-.5-1.6-.5-2.4,0-1.8.6-3.3,1.9-4.5,1.3-1.2,2.9-1.8,5-1.8s3.6.6,4.8,1.8c1.2,1.2,1.9,2.7,1.9,4.5s-1,3.6-3,5l-2.1,1.4,5.9,7.1c1-1.4,1.5-3.3,1.5-5.7h3.9c-.1,3.8-1.1,6.6-2.8,8.7l4.7,5.6h0ZM1386,86.1l-6.7-8c-.8.6-1.5,1.1-1.9,1.5-.4.4-.9.9-1.3,1.6-.4.7-.6,1.4-.6,2.3,0,1.4.5,2.6,1.4,3.4,1,.9,2.2,1.3,3.7,1.3s3.8-.7,5.4-2.2h0ZM1383.8,69.6c0-.8-.3-1.4-.8-2-.5-.6-1.2-.8-2-.8s-1.5.3-2,.8c-.5.5-.8,1.2-.8,2s.7,2.2,2.2,3.9l1.3-.9c1.4-.9,2.1-1.9,2.1-2.9h0ZM1431.4,91.7h-5l-5.9-11.9h-5.3v11.9h-4.3v-28.2h10.9c2.6,0,4.8.8,6.3,2.3,1.6,1.5,2.4,3.5,2.4,5.9s-.5,3.6-1.6,4.9c-1,1.3-2.4,2.2-4,2.6l6.5,12.5h0ZM1425,75c.9-.8,1.3-1.9,1.3-3.2s-.4-2.4-1.3-3.2c-.9-.8-2-1.2-3.5-1.2h-6.3v8.8h6.3c1.4,0,2.6-.4,3.5-1.2h0ZM1454.8,91.7h-18v-28.2h18v3.8h-13.7v8.2h11.7v3.8h-11.7v8.5h13.7v3.8ZM1478.3,83.6c0,2.6-.9,4.6-2.8,6.1-1.9,1.5-4.3,2.2-7.3,2.2s-4-.3-5.6-.8c-1.6-.6-3-1.5-4.3-2.9l2.8-2.8c1.8,1.8,4.2,2.7,7.2,2.7s3.3-.4,4.3-1.1c1-.8,1.5-1.8,1.5-3.2s-.4-2.3-1.1-2.9c-.7-.6-1.7-1-3.1-1.2l-3.3-.5c-2.3-.4-4.1-1.1-5.3-2.3-1.4-1.3-2.1-3.1-2.1-5.4s.8-4.5,2.5-6c1.7-1.5,4-2.3,6.9-2.3s3.5.2,4.9.8c1.4.5,2.7,1.3,3.9,2.5l-2.7,2.7c-1.5-1.4-3.6-2.2-6.2-2.2s-2.9.4-3.8,1.2c-.9.8-1.3,1.8-1.3,3.2s.3,2,1,2.6c.7.6,1.7,1.1,3.1,1.3l3.4.5c2.3.4,4.1,1.1,5.2,2.1,1.5,1.4,2.3,3.3,2.3,5.8h0ZM1502.8,70.3c.3,1.5.5,3.9.5,7.3s-.2,5.8-.5,7.3c-.3,1.5-1.1,2.9-2.4,4.2-1.9,1.9-4.3,2.8-7.3,2.8s-5.4-.9-7.3-2.8c-1.3-1.3-2.1-2.7-2.4-4.2-.3-1.5-.4-3.9-.4-7.3s.2-5.8.4-7.3c.3-1.5,1.1-2.9,2.4-4.2,1.9-1.9,4.3-2.8,7.3-2.8s5.4.9,7.3,2.8c1.3,1.3,2.1,2.7,2.4,4.2ZM1498.7,83.6c.2-1.1.3-3.1.3-6s-.1-4.8-.3-6c-.2-1.2-.7-2.1-1.3-2.8-1.1-1.2-2.5-1.7-4.2-1.7s-3.1.6-4.2,1.7c-.7.7-1.1,1.7-1.3,2.8-.2,1.1-.3,3.1-.3,5.9s.1,4.8.3,5.9c.2,1.1.7,2.1,1.3,2.8,1.1,1.2,2.5,1.8,4.2,1.8s3.1-.6,4.2-1.8c.7-.7,1.1-1.6,1.3-2.8ZM1529.4,82.2c0,2.9-1,5.2-2.9,7.1-1.9,1.8-4.3,2.7-7.2,2.7s-5.3-.9-7.2-2.7c-1.9-1.8-2.8-4.2-2.8-7.1v-18.7h4.3v18.5c0,1.9.5,3.4,1.6,4.5,1.1,1.1,2.5,1.6,4.2,1.6s3.2-.5,4.2-1.6c1.1-1.1,1.6-2.6,1.6-4.5v-18.5h4.3v18.7ZM1556.9,91.7h-5l-5.9-11.9h-5.3v11.9h-4.3v-28.2h10.9c2.6,0,4.8.8,6.3,2.3,1.6,1.5,2.4,3.5,2.4,5.9s-.5,3.6-1.6,4.9c-1,1.3-2.4,2.2-4,2.6l6.5,12.5h0ZM1550.4,75c.9-.8,1.3-1.9,1.3-3.2s-.4-2.4-1.3-3.2c-.9-.8-2-1.2-3.5-1.2h-6.3v8.8h6.3c1.4,0,2.6-.4,3.5-1.2h0ZM1581.2,83.2c-.5,2.7-1.6,4.9-3.4,6.4-1.8,1.5-4,2.3-6.6,2.3s-5.4-.9-7.3-2.8c-1.3-1.3-2.1-2.7-2.4-4.2-.3-1.5-.5-4-.5-7.3s.2-5.7.5-7.2c.3-1.5,1.1-2.9,2.4-4.2,1.9-1.9,4.3-2.8,7.3-2.8s4.8.8,6.6,2.3c1.8,1.5,2.9,3.6,3.4,6.4h-4.3c-.3-1.5-1-2.7-1.9-3.6-1-.9-2.2-1.3-3.8-1.3s-3.1.6-4.2,1.7c-.7.7-1.2,1.7-1.4,2.8-.2,1.1-.3,3.1-.3,5.9s.1,4.8.3,6c.2,1.1.7,2.1,1.4,2.8,1.1,1.2,2.5,1.7,4.2,1.7s2.8-.4,3.8-1.3c1-.9,1.7-2.1,2-3.6h4.3,0ZM1604.9,91.7h-18v-28.2h18v3.8h-13.7v8.2h11.7v3.8h-11.7v8.5h13.7v3.8ZM1628.4,83.6c0,2.6-.9,4.6-2.8,6.1-1.9,1.5-4.3,2.2-7.3,2.2s-4-.3-5.6-.8c-1.6-.6-3-1.5-4.3-2.9l2.8-2.8c1.8,1.8,4.2,2.7,7.2,2.7s3.3-.4,4.3-1.1c1-.8,1.5-1.8,1.5-3.2s-.4-2.3-1.1-2.9c-.7-.6-1.7-1-3.1-1.2l-3.3-.5c-2.3-.4-4.1-1.1-5.3-2.3-1.4-1.3-2.1-3.1-2.1-5.4s.8-4.5,2.5-6c1.7-1.5,4-2.3,6.9-2.3s3.5.2,4.9.8c1.4.5,2.7,1.3,3.9,2.5l-2.7,2.7c-1.5-1.4-3.6-2.2-6.2-2.2s-2.9.4-3.8,1.2c-.9.8-1.3,1.8-1.3,3.2s.3,2,1,2.6c.7.6,1.7,1.1,3.1,1.3l3.4.5c2.3.4,4.1,1.1,5.2,2.1,1.5,1.4,2.3,3.3,2.3,5.8h0ZM1640.8,94.6h-8.6v-3.6h4.7v-26.9h-4.7v-3.6h8.6s0,34,0,34Z"/>
  <path class="st2" d="M790.5,124.5c1.3,1.2,1.9,2.8,1.9,4.5s-.6,3.3-1.9,4.6c-1.2,1.2-2.8,1.9-4.5,1.9s-3.3-.6-4.6-1.9c-1.2-1.3-1.9-2.8-1.9-4.6s.6-3.3,1.9-4.6,2.8-1.9,4.6-1.9,3.3.6,4.5,1.9ZM836.5,116.5c1.7,1.6,2.5,3.7,2.5,6.1s-.8,4.5-2.5,6.1c-1.6,1.6-3.8,2.4-6.5,2.4h-6.4v11.1h-4.3v-28.2h10.7c2.7,0,4.9.8,6.5,2.4h0ZM833.4,126.1c.9-.8,1.3-2,1.3-3.5s-.5-2.6-1.3-3.4c-.9-.8-2.1-1.3-3.6-1.3h-6.2v9.4h6.2c1.5,0,2.7-.4,3.6-1.2ZM864.8,142.2h-5l-5.9-11.9h-5.3v11.9h-4.3v-28.2h10.9c2.6,0,4.8.8,6.3,2.3,1.6,1.5,2.4,3.5,2.4,5.9s-.5,3.6-1.6,4.9c-1,1.3-2.4,2.2-4,2.6l6.5,12.5h0ZM858.3,125.6c.9-.8,1.3-1.9,1.3-3.2s-.4-2.4-1.3-3.2c-.9-.8-2-1.2-3.5-1.2h-6.3v8.8h6.3c1.5,0,2.6-.4,3.5-1.2h0ZM888.5,120.9c.3,1.5.5,3.9.5,7.3s-.2,5.8-.5,7.3c-.3,1.5-1.1,2.9-2.4,4.2-1.9,1.9-4.3,2.9-7.3,2.9s-5.4-.9-7.3-2.9c-1.3-1.3-2.1-2.7-2.4-4.2-.3-1.5-.4-3.9-.4-7.3s.2-5.8.4-7.3c.3-1.5,1.1-2.9,2.4-4.2,1.9-1.9,4.3-2.8,7.3-2.8s5.4.9,7.3,2.8c1.3,1.3,2.1,2.7,2.4,4.2ZM884.4,134.1c.2-1.1.3-3.1.3-6s-.1-4.8-.3-6c-.2-1.2-.7-2.1-1.3-2.8-1.1-1.2-2.5-1.7-4.2-1.7s-3.1.6-4.2,1.7c-.7.7-1.1,1.7-1.3,2.8-.2,1.1-.3,3.1-.3,5.9s.1,4.8.3,5.9c.2,1.1.7,2.1,1.3,2.8,1.1,1.2,2.5,1.8,4.2,1.8s3.1-.6,4.2-1.8c.7-.7,1.1-1.6,1.3-2.8ZM915,121.7c.3,1.6.4,3.7.4,6.5s-.1,4.9-.4,6.5c-.2,1.6-.8,2.9-1.7,4-1.9,2.4-4.6,3.6-8,3.6h-9.9v-28.2h9.9c3.4,0,6.1,1.2,8,3.6.9,1.1,1.5,2.5,1.7,4.1ZM910.8,133.6c.2-1.2.3-3.1.3-5.5s0-4.2-.3-5.4c-.2-1.2-.6-2.2-1.2-2.9-1.1-1.3-2.7-1.9-4.8-1.9h-5.2v20.6h5.2c2.1,0,3.7-.6,4.8-1.9.6-.7,1-1.7,1.2-2.9h0ZM941.5,132.8c0,2.9-1,5.2-2.9,7.1-1.9,1.8-4.3,2.7-7.2,2.7s-5.3-.9-7.2-2.7c-1.9-1.8-2.8-4.2-2.8-7.1v-18.7h4.3v18.5c0,1.9.5,3.4,1.6,4.5,1.1,1.1,2.5,1.6,4.2,1.6s3.2-.5,4.2-1.6c1.1-1.1,1.6-2.6,1.6-4.5v-18.5h4.3v18.7h0ZM967.6,133.8c-.5,2.7-1.6,4.9-3.4,6.4-1.8,1.5-4,2.3-6.6,2.3s-5.4-.9-7.3-2.9c-1.3-1.3-2.1-2.7-2.4-4.2-.3-1.5-.5-4-.5-7.3s.2-5.7.5-7.2c.3-1.5,1.1-2.9,2.4-4.2,1.9-1.9,4.3-2.8,7.3-2.8s4.8.8,6.6,2.3c1.8,1.5,2.9,3.6,3.4,6.4h-4.3c-.3-1.5-1-2.7-1.9-3.6-1-.9-2.2-1.3-3.8-1.3s-3.1.6-4.2,1.7c-.7.7-1.2,1.7-1.4,2.8-.2,1.1-.3,3.1-.3,5.9s.1,4.8.3,6c.2,1.1.7,2.1,1.4,2.8,1.1,1.2,2.5,1.7,4.2,1.7s2.8-.4,3.8-1.3c1-.9,1.7-2.1,2-3.6h4.3,0ZM989.8,117.9h-7.8v24.3h-4.3v-24.3h-7.8v-3.8h19.8v3.8h0ZM1008.4,142.2h-4.3v-28.2h4.3v28.2ZM1037,142.2h-3.9l-13-19.8v19.8h-4.3v-28.2h3.9l13,19.8v-19.8h4.3v28.2h0ZM1065.6,142.2h-3.9l-13-19.8v19.8h-4.3v-28.2h3.9l13,19.8v-19.8h4.3v28.2ZM1091.7,120.9c.3,1.5.5,3.9.5,7.3s-.2,5.8-.5,7.3c-.3,1.5-1.1,2.9-2.4,4.2-1.9,1.9-4.3,2.9-7.3,2.9s-5.4-.9-7.3-2.9c-1.3-1.3-2.1-2.7-2.4-4.2-.3-1.5-.4-3.9-.4-7.3s.2-5.8.4-7.3c.3-1.5,1.1-2.9,2.4-4.2,1.9-1.9,4.3-2.8,7.3-2.8s5.4.9,7.3,2.8c1.3,1.3,2.1,2.7,2.4,4.2ZM1087.6,134.1c.2-1.1.3-3.1.3-6s-.1-4.8-.3-6c-.2-1.2-.7-2.1-1.3-2.8-1.1-1.2-2.5-1.7-4.2-1.7s-3.1.6-4.2,1.7c-.7.7-1.1,1.7-1.3,2.8-.2,1.1-.3,3.1-.3,5.9s.1,4.8.3,5.9c.2,1.1.7,2.1,1.3,2.8,1.1,1.2,2.5,1.8,4.2,1.8s3.1-.6,4.2-1.8c.7-.7,1.1-1.6,1.3-2.8ZM1116.6,114.1l-9.3,28.2h-3.3l-9.3-28.2h4.4l6.5,20.5,6.5-20.5h4.5,0ZM1139.8,142.2h-4.6l-1.9-5.7h-11.1l-1.9,5.7h-4.6l10.3-28.2h3.4l10.3,28.2h0ZM1132.2,132.9l-4.3-12.5-4.4,12.5h8.7,0ZM1158.8,117.9h-7.8v24.3h-4.3v-24.3h-7.8v-3.8h19.8v3.8ZM1167.9,142.2h-4.3v-28.2h4.3v28.2ZM1194,120.9c.3,1.5.5,3.9.5,7.3s-.2,5.8-.5,7.3c-.3,1.5-1.1,2.9-2.4,4.2-1.9,1.9-4.3,2.9-7.3,2.9s-5.4-.9-7.3-2.9c-1.3-1.3-2.1-2.7-2.4-4.2-.3-1.5-.4-3.9-.4-7.3s.2-5.8.4-7.3c.3-1.5,1.1-2.9,2.4-4.2,1.9-1.9,4.3-2.8,7.3-2.8s5.4.9,7.3,2.8c1.3,1.3,2.1,2.7,2.4,4.2ZM1189.9,134.1c.2-1.1.3-3.1.3-6s-.1-4.8-.3-6c-.2-1.2-.7-2.1-1.3-2.8-1.1-1.2-2.5-1.7-4.2-1.7s-3.1.6-4.2,1.7c-.7.7-1.1,1.7-1.3,2.8-.2,1.1-.3,3.1-.3,5.9s.1,4.8.3,5.9c.2,1.1.7,2.1,1.3,2.8,1.1,1.2,2.5,1.8,4.2,1.8s3.1-.6,4.2-1.8c.7-.7,1.1-1.6,1.3-2.8ZM1222.1,142.2h-3.9l-13-19.8v19.8h-4.3v-28.2h3.9l13,19.8v-19.8h4.3v28.2ZM1233.4,144.6l-4.6,3.8v-10.7h4.6v7ZM1268.9,133.8c-.5,2.7-1.6,4.9-3.4,6.4-1.8,1.5-4,2.3-6.6,2.3s-5.4-.9-7.3-2.9c-1.3-1.3-2.1-2.7-2.4-4.2-.3-1.5-.5-4-.5-7.3s.2-5.7.5-7.2c.3-1.5,1.1-2.9,2.4-4.2,1.9-1.9,4.3-2.8,7.3-2.8s4.8.8,6.6,2.3c1.8,1.5,2.9,3.6,3.4,6.4h-4.3c-.3-1.5-1-2.7-1.9-3.6-1-.9-2.2-1.3-3.8-1.3s-3.1.6-4.2,1.7c-.7.7-1.2,1.7-1.4,2.8-.2,1.1-.3,3.1-.3,5.9s.1,4.8.3,6c.2,1.1.7,2.1,1.4,2.8,1.1,1.2,2.5,1.7,4.2,1.7s2.8-.4,3.8-1.3c1-.9,1.7-2.1,2-3.6h4.3,0ZM1292.9,120.9c.3,1.5.5,3.9.5,7.3s-.2,5.8-.5,7.3c-.3,1.5-1.1,2.9-2.4,4.2-1.9,1.9-4.3,2.9-7.3,2.9s-5.4-.9-7.3-2.9c-1.3-1.3-2.1-2.7-2.4-4.2-.3-1.5-.4-3.9-.4-7.3s.2-5.8.4-7.3c.3-1.5,1.1-2.9,2.4-4.2,1.9-1.9,4.3-2.8,7.3-2.8s5.4.9,7.3,2.8c1.3,1.3,2.1,2.7,2.4,4.2ZM1288.8,134.1c.2-1.1.3-3.1.3-6s-.1-4.8-.3-6c-.2-1.2-.7-2.1-1.3-2.8-1.1-1.2-2.5-1.7-4.2-1.7s-3.1.6-4.2,1.7c-.7.7-1.1,1.7-1.3,2.8-.2,1.1-.3,3.1-.3,5.9s.1,4.8.3,5.9c.2,1.1.7,2.1,1.3,2.8,1.1,1.2,2.5,1.8,4.2,1.8s3.1-.6,4.2-1.8c.7-.7,1.1-1.6,1.3-2.8ZM1324.6,142.2h-4.3v-18.8l-6.5,13.7h-3.2l-6.7-13.7v18.8h-4.3v-28.2h4.3l8.2,17.5,8.1-17.5h4.3v28.2h0ZM1349.2,116.5c1.7,1.6,2.5,3.7,2.5,6.1s-.8,4.5-2.5,6.1c-1.6,1.6-3.8,2.4-6.5,2.4h-6.4v11.1h-4.3v-28.2h10.7c2.7,0,4.9.8,6.5,2.4h0ZM1346.1,126.1c.9-.8,1.3-2,1.3-3.5s-.4-2.6-1.3-3.4c-.9-.8-2.1-1.3-3.6-1.3h-6.2v9.4h6.2c1.5,0,2.7-.4,3.6-1.2ZM1374.7,142.2h-17.8v-28.2h4.3v24.3h13.6v3.8ZM1383.8,142.2h-4.3v-28.2h4.3v28.2ZM1411.9,142.2h-4.6l-1.9-5.7h-11.1l-1.9,5.7h-4.6l10.3-28.2h3.4l10.3,28.2h0ZM1404.3,132.9l-4.3-12.5-4.4,12.5h8.7,0ZM1437.2,142.2h-3.9l-13-19.8v19.8h-4.3v-28.2h3.9l13,19.8v-19.8h4.3v28.2ZM1463.7,133.8c-.5,2.7-1.6,4.9-3.4,6.4-1.8,1.5-4,2.3-6.6,2.3s-5.4-.9-7.3-2.9c-1.3-1.3-2.1-2.7-2.4-4.2-.3-1.5-.5-4-.5-7.3s.2-5.7.5-7.2c.3-1.5,1.1-2.9,2.4-4.2,1.9-1.9,4.3-2.8,7.3-2.8s4.8.8,6.6,2.3c1.8,1.5,2.9,3.6,3.4,6.4h-4.3c-.3-1.5-1-2.7-1.9-3.6-1-.9-2.2-1.3-3.8-1.3s-3.1.6-4.2,1.7c-.7.7-1.2,1.7-1.4,2.8-.2,1.1-.3,3.1-.3,5.9s.1,4.8.3,6c.2,1.1.7,2.1,1.4,2.8,1.1,1.2,2.5,1.7,4.2,1.7s2.8-.4,3.8-1.3c1-.9,1.7-2.1,2-3.6h4.3,0ZM1487.4,142.2h-18v-28.2h18v3.8h-13.7v8.2h11.7v3.8h-11.7v8.5h13.7v3.8ZM1497.2,144.6l-4.6,3.8v-10.7h4.6v7ZM838.5,173.4c-.5,2.7-1.6,4.9-3.4,6.4-1.8,1.5-4,2.3-6.6,2.3s-5.4-.9-7.3-2.9c-1.3-1.3-2.1-2.7-2.4-4.2-.3-1.5-.5-4-.5-7.3s.2-5.7.5-7.2c.3-1.5,1.1-2.9,2.4-4.2,1.9-1.9,4.3-2.9,7.3-2.9s4.8.8,6.6,2.3c1.8,1.5,2.9,3.6,3.4,6.4h-4.3c-.3-1.5-1-2.7-1.9-3.6s-2.2-1.3-3.8-1.3-3.1.6-4.2,1.7c-.7.7-1.2,1.7-1.4,2.9-.2,1.1-.3,3.1-.3,5.9s.1,4.8.3,6c.2,1.1.7,2.1,1.4,2.8,1.1,1.2,2.5,1.7,4.2,1.7s2.8-.4,3.8-1.3c1-.9,1.7-2.1,2-3.6h4.3,0ZM862.2,181.8h-18v-28.2h18v3.8h-13.7v8.2h11.7v3.8h-11.7v8.5h13.7v3.8h0ZM888.6,181.8h-5l-5.9-11.9h-5.3v11.9h-4.3v-28.2h10.9c2.6,0,4.8.8,6.3,2.3,1.6,1.5,2.4,3.5,2.4,5.9s-.5,3.6-1.6,4.9c-1,1.3-2.4,2.2-4,2.6l6.5,12.5h0ZM882.1,165.2c.9-.8,1.3-1.9,1.3-3.2s-.4-2.4-1.3-3.2c-.9-.8-2-1.2-3.5-1.2h-6.3v8.8h6.3c1.5,0,2.6-.4,3.5-1.1h0ZM910.7,157.5h-7.8v24.3h-4.3v-24.3h-7.8v-3.8h19.8v3.8h0ZM919.8,181.8h-4.3v-28.2h4.3v28.2h0ZM945.2,157.5h-13.7v8.6h11.7v3.8h-11.7v11.9h-4.3v-28.2h18v3.8h0ZM954.6,181.8h-4.3v-28.2h4.3v28.2h0ZM981.1,173.4c-.5,2.7-1.6,4.9-3.4,6.4-1.8,1.5-4,2.3-6.6,2.3s-5.4-.9-7.3-2.9c-1.3-1.3-2.1-2.7-2.4-4.2-.3-1.5-.5-4-.5-7.3s.2-5.7.5-7.2c.3-1.5,1.1-2.9,2.4-4.2,1.9-1.9,4.3-2.9,7.3-2.9s4.8.8,6.6,2.3c1.8,1.5,2.9,3.6,3.4,6.4h-4.3c-.3-1.5-1-2.7-1.9-3.6s-2.2-1.3-3.8-1.3-3.1.6-4.2,1.7c-.7.7-1.2,1.7-1.4,2.9-.2,1.1-.3,3.1-.3,5.9s.1,4.8.3,6c.2,1.1.7,2.1,1.4,2.8,1.1,1.2,2.5,1.7,4.2,1.7s2.8-.4,3.8-1.3c1-.9,1.7-2.1,2-3.6h4.3,0ZM1007.2,181.8h-4.5l-1.9-5.7h-11.1l-1.9,5.7h-4.5l10.3-28.2h3.4l10.3,28.2h0ZM999.5,172.5l-4.3-12.5-4.4,12.5h8.7,0ZM1026.1,157.5h-7.8v24.3h-4.3v-24.3h-7.8v-3.8h19.8v3.8ZM1035.2,181.8h-4.3v-28.2h4.3v28.2h0ZM1061.3,160.5c.3,1.5.5,3.9.5,7.3s-.2,5.8-.5,7.3c-.3,1.5-1.1,2.9-2.4,4.2-1.9,1.9-4.3,2.9-7.3,2.9s-5.4-.9-7.3-2.9c-1.3-1.3-2.1-2.7-2.4-4.2-.3-1.5-.4-3.9-.4-7.3s.2-5.8.4-7.3c.3-1.5,1.1-2.9,2.4-4.2,1.9-1.9,4.3-2.9,7.3-2.9s5.4.9,7.3,2.9c1.3,1.3,2.1,2.7,2.4,4.2ZM1057.2,173.7c.2-1.1.3-3.1.3-6s-.1-4.8-.3-6c-.2-1.2-.7-2.1-1.3-2.8-1.1-1.2-2.5-1.7-4.2-1.7s-3.1.6-4.2,1.7c-.7.7-1.1,1.7-1.3,2.9-.2,1.1-.3,3.1-.3,5.9s.1,4.8.3,5.9c.2,1.1.7,2.1,1.3,2.8,1.1,1.2,2.5,1.8,4.2,1.8s3.1-.6,4.2-1.8c.7-.7,1.1-1.6,1.3-2.8h0ZM1089.4,181.8h-3.9l-13-19.8v19.8h-4.3v-28.2h3.9l13,19.8v-19.8h4.3v28.2h0ZM1114.4,173.8c0,2.6-.9,4.6-2.8,6.1-1.9,1.5-4.3,2.2-7.3,2.2s-4-.3-5.6-.8c-1.6-.6-3-1.5-4.3-2.9l2.8-2.8c1.8,1.8,4.2,2.7,7.2,2.7s3.3-.4,4.3-1.1c1-.8,1.5-1.9,1.5-3.2s-.4-2.3-1.1-2.9c-.7-.6-1.7-1-3.1-1.2l-3.3-.5c-2.3-.4-4.1-1.1-5.3-2.3-1.4-1.3-2.1-3.1-2.1-5.4s.8-4.5,2.5-6c1.7-1.5,4-2.3,6.9-2.3s3.5.2,4.9.8,2.7,1.3,3.9,2.4l-2.7,2.7c-1.5-1.4-3.6-2.2-6.2-2.2s-2.9.4-3.8,1.2c-.9.8-1.3,1.9-1.3,3.2s.3,2,1,2.6c.7.6,1.7,1.1,3.1,1.3l3.4.5c2.3.4,4.1,1.1,5.2,2.1,1.5,1.4,2.3,3.3,2.3,5.8h0ZM1147.4,181.8h-17.8v-28.2h4.3v24.3h13.6v3.8h0ZM1173.1,181.8h-4.6l-1.9-5.7h-11.1l-1.9,5.7h-4.6l10.3-28.2h3.4l10.3,28.2h0ZM1165.4,172.5l-4.3-12.5-4.4,12.5h8.7,0ZM1197,173.9c0,2.5-.8,4.5-2.3,5.9-1.6,1.4-3.6,2.1-6.2,2.1h-11.4v-28.2h11c2.6,0,4.7.7,6.2,2.1,1.5,1.4,2.3,3.2,2.3,5.6s-.4,2.7-1.2,3.8c-.7,1.1-1.6,1.8-2.7,2.2,1.2.5,2.2,1.3,3,2.4.8,1.1,1.2,2.5,1.2,4.2h0ZM1192.7,173.7c0-1.3-.4-2.3-1.2-3.1s-1.9-1.2-3.4-1.2h-6.7v8.6h6.7c1.4,0,2.6-.4,3.4-1.2.8-.8,1.2-1.8,1.2-3.1h0ZM1191,164.5c.8-.7,1.3-1.7,1.3-3s-.4-2.3-1.3-3c-.8-.7-1.9-1.1-3.3-1.1h-6.3v8.1h6.3c1.4,0,2.5-.3,3.3-1h0ZM1220.9,173.8c0,2.6-.9,4.6-2.8,6.1-1.9,1.5-4.3,2.2-7.3,2.2s-4-.3-5.6-.8c-1.6-.6-3-1.5-4.3-2.9l2.8-2.8c1.8,1.8,4.2,2.7,7.2,2.7s3.3-.4,4.3-1.1c1-.8,1.5-1.9,1.5-3.2s-.4-2.3-1.1-2.9c-.7-.6-1.7-1-3.1-1.2l-3.3-.5c-2.3-.4-4.1-1.1-5.3-2.3-1.4-1.3-2.1-3.1-2.1-5.4s.8-4.5,2.5-6c1.7-1.5,4-2.3,6.9-2.3s3.5.2,4.9.8,2.7,1.3,3.9,2.4l-2.7,2.7c-1.5-1.4-3.6-2.2-6.2-2.2s-2.9.4-3.8,1.2c-.9.8-1.3,1.9-1.3,3.2s.3,2,1,2.6c.7.6,1.7,1.1,3.1,1.3l3.4.5c2.3.4,4.1,1.1,5.2,2.1,1.5,1.4,2.3,3.3,2.3,5.8h0ZM790.5,203.6c1.3,1.2,1.9,2.8,1.9,4.6s-.6,3.3-1.9,4.6c-1.2,1.2-2.8,1.9-4.5,1.9s-3.3-.6-4.6-1.9c-1.2-1.3-1.9-2.8-1.9-4.6s.6-3.3,1.9-4.6,2.8-1.9,4.6-1.9,3.3.6,4.5,1.9ZM836.5,195.6c1.7,1.6,2.5,3.6,2.5,6.1s-.8,4.5-2.5,6.1c-1.6,1.6-3.8,2.4-6.5,2.4h-6.4v11.1h-4.3v-28.2h10.7c2.7,0,4.9.8,6.5,2.4h0ZM833.4,205.3c.9-.8,1.3-2,1.3-3.5s-.5-2.6-1.3-3.4c-.9-.8-2.1-1.3-3.6-1.3h-6.2v9.4h6.2c1.5,0,2.7-.4,3.6-1.2ZM848.5,221.4h-4.3v-28.2h4.3v28.2h0ZM873.7,221.4h-17.8v-28.2h4.3v24.3h13.6v3.8h0ZM895.8,200c.3,1.5.5,3.9.5,7.3s-.2,5.8-.5,7.3c-.3,1.5-1.1,2.9-2.4,4.2-1.9,1.9-4.3,2.9-7.3,2.9s-5.4-.9-7.3-2.9c-1.3-1.3-2.1-2.7-2.4-4.2-.3-1.5-.4-3.9-.4-7.3s.2-5.8.4-7.3c.3-1.5,1.1-2.9,2.4-4.2,1.9-1.9,4.3-2.9,7.3-2.9s5.4.9,7.3,2.9c1.3,1.3,2.1,2.7,2.4,4.2ZM891.6,213.3c.2-1.1.3-3.1.3-6s-.1-4.8-.3-6c-.2-1.2-.7-2.1-1.3-2.8-1.1-1.2-2.5-1.7-4.2-1.7s-3.1.6-4.2,1.7c-.7.7-1.1,1.7-1.3,2.9-.2,1.1-.3,3.1-.3,5.9s.1,4.8.3,5.9c.2,1.1.7,2.1,1.3,2.8,1.1,1.2,2.5,1.8,4.2,1.8s3.1-.6,4.2-1.8c.7-.7,1.1-1.6,1.3-2.8h0ZM919.1,197.1h-7.8v24.3h-4.3v-24.3h-7.8v-3.8h19.8v3.8h0ZM950.7,195.6c1.7,1.6,2.5,3.6,2.5,6.1s-.8,4.5-2.5,6.1c-1.6,1.6-3.8,2.4-6.5,2.4h-6.4v11.1h-4.3v-28.2h10.7c2.7,0,4.9.8,6.5,2.4h0ZM947.6,205.3c.9-.8,1.3-2,1.3-3.5s-.5-2.6-1.3-3.4c-.9-.8-2.1-1.3-3.6-1.3h-6.2v9.4h6.2c1.5,0,2.7-.4,3.6-1.2ZM978.9,221.4h-5l-5.9-11.9h-5.3v11.9h-4.3v-28.2h10.9c2.6,0,4.8.8,6.3,2.3,1.6,1.5,2.4,3.5,2.4,5.9s-.5,3.6-1.6,4.9c-1,1.3-2.4,2.2-4,2.6l6.5,12.5h0ZM972.5,204.8c.9-.8,1.3-1.9,1.3-3.2s-.4-2.4-1.3-3.2c-.9-.8-2-1.2-3.5-1.2h-6.3v8.8h6.3c1.5,0,2.6-.4,3.5-1.1h0ZM1002.7,200c.3,1.5.5,3.9.5,7.3s-.2,5.8-.5,7.3c-.3,1.5-1.1,2.9-2.4,4.2-1.9,1.9-4.3,2.9-7.3,2.9s-5.4-.9-7.3-2.9c-1.3-1.3-2.1-2.7-2.4-4.2-.3-1.5-.4-3.9-.4-7.3s.2-5.8.4-7.3c.3-1.5,1.1-2.9,2.4-4.2,1.9-1.9,4.3-2.9,7.3-2.9s5.4.9,7.3,2.9c1.3,1.3,2.1,2.7,2.4,4.2ZM998.6,213.3c.2-1.1.3-3.1.3-6s-.1-4.8-.3-6c-.2-1.2-.7-2.1-1.3-2.8-1.1-1.2-2.5-1.7-4.2-1.7s-3.1.6-4.2,1.7c-.7.7-1.1,1.7-1.3,2.9-.2,1.1-.3,3.1-.3,5.9s.1,4.8.3,5.9c.2,1.1.7,2.1,1.3,2.8,1.1,1.2,2.5,1.8,4.2,1.8s3.1-.6,4.2-1.8c.7-.7,1.1-1.6,1.3-2.8h0ZM1029.1,200.9c.3,1.6.4,3.7.4,6.4s-.1,4.9-.4,6.5c-.2,1.6-.8,2.9-1.7,4-1.9,2.4-4.6,3.6-8,3.6h-9.9v-28.2h9.9c3.4,0,6.1,1.2,8,3.6.9,1.1,1.5,2.5,1.7,4.1h0ZM1025,212.8c.2-1.2.3-3.1.3-5.5s0-4.2-.3-5.4c-.2-1.2-.6-2.2-1.2-2.9-1.1-1.3-2.7-1.9-4.8-1.9h-5.2v20.6h5.2c2.1,0,3.7-.6,4.8-1.9.6-.7,1-1.7,1.2-2.9ZM1055.7,211.9c0,2.9-1,5.2-2.9,7.1-1.9,1.8-4.3,2.7-7.2,2.7s-5.3-.9-7.2-2.7c-1.9-1.8-2.8-4.2-2.8-7.1v-18.7h4.3v18.5c0,1.9.5,3.4,1.6,4.5,1.1,1.1,2.5,1.6,4.2,1.6s3.2-.5,4.2-1.6c1.1-1.1,1.6-2.6,1.6-4.5v-18.5h4.3v18.7h0ZM1081.7,213c-.5,2.7-1.6,4.9-3.4,6.4-1.8,1.5-4,2.3-6.6,2.3s-5.4-.9-7.3-2.9c-1.3-1.3-2.1-2.7-2.4-4.2-.3-1.5-.5-4-.5-7.3s.2-5.7.5-7.2c.3-1.5,1.1-2.9,2.4-4.2,1.9-1.9,4.3-2.9,7.3-2.9s4.8.8,6.6,2.3c1.8,1.5,2.9,3.6,3.4,6.4h-4.3c-.3-1.5-1-2.7-1.9-3.6s-2.2-1.3-3.8-1.3-3.1.6-4.2,1.7c-.7.7-1.2,1.7-1.4,2.9-.2,1.1-.3,3.1-.3,5.9s.1,4.8.3,6c.2,1.1.7,2.1,1.4,2.8,1.1,1.2,2.5,1.7,4.2,1.7s2.8-.4,3.8-1.3c1-.9,1.7-2.1,2-3.6h4.3,0ZM1103.9,197.1h-7.8v24.3h-4.3v-24.3h-7.8v-3.8h19.8v3.8ZM1113.1,221.4h-4.3v-28.2h4.3v28.2h0ZM1139.2,200c.3,1.5.5,3.9.5,7.3s-.2,5.8-.5,7.3c-.3,1.5-1.1,2.9-2.4,4.2-1.9,1.9-4.3,2.9-7.3,2.9s-5.4-.9-7.3-2.9c-1.3-1.3-2.1-2.7-2.4-4.2-.3-1.5-.4-3.9-.4-7.3s.2-5.8.4-7.3c.3-1.5,1.1-2.9,2.4-4.2,1.9-1.9,4.3-2.9,7.3-2.9s5.4.9,7.3,2.9c1.3,1.3,2.1,2.7,2.4,4.2ZM1135.1,213.3c.2-1.1.3-3.1.3-6s-.1-4.8-.3-6c-.2-1.2-.7-2.1-1.3-2.8-1.1-1.2-2.5-1.7-4.2-1.7s-3.1.6-4.2,1.7c-.7.7-1.1,1.7-1.3,2.9-.2,1.1-.3,3.1-.3,5.9s.1,4.8.3,5.9c.2,1.1.7,2.1,1.3,2.8,1.1,1.2,2.5,1.8,4.2,1.8s3.1-.6,4.2-1.8c.7-.7,1.1-1.6,1.3-2.8h0ZM1167.2,221.4h-3.9l-13-19.8v19.8h-4.3v-28.2h3.9l13,19.8v-19.8h4.3v28.2h0ZM1202.1,197.1h-13.7v8.6h11.7v3.8h-11.7v11.9h-4.3v-28.2h18v3.8h0ZM1225.6,221.4h-4.6l-1.9-5.7h-11.1l-1.9,5.7h-4.6l10.3-28.2h3.4l10.3,28.2h0ZM1218,212.1l-4.3-12.5-4.4,12.5h8.7,0ZM1248.4,213c-.5,2.7-1.6,4.9-3.4,6.4-1.8,1.5-4,2.3-6.6,2.3s-5.4-.9-7.3-2.9c-1.3-1.3-2.1-2.7-2.4-4.2-.3-1.5-.5-4-.5-7.3s.2-5.7.5-7.2c.3-1.5,1.1-2.9,2.4-4.2,1.9-1.9,4.3-2.9,7.3-2.9s4.8.8,6.6,2.3c1.8,1.5,2.9,3.6,3.4,6.4h-4.3c-.3-1.5-1-2.7-1.9-3.6s-2.2-1.3-3.8-1.3-3.1.6-4.2,1.7c-.7.7-1.2,1.7-1.4,2.9-.2,1.1-.3,3.1-.3,5.9s.1,4.8.3,6c.2,1.1.7,2.1,1.4,2.8,1.1,1.2,2.5,1.7,4.2,1.7s2.8-.4,3.8-1.3c1-.9,1.7-2.1,2-3.6h4.3,0ZM1270.6,197.1h-7.8v24.3h-4.3v-24.3h-7.8v-3.8h19.8v3.8ZM1293.5,200c.3,1.5.5,3.9.5,7.3s-.2,5.8-.5,7.3c-.3,1.5-1.1,2.9-2.4,4.2-1.9,1.9-4.3,2.9-7.3,2.9s-5.4-.9-7.3-2.9c-1.3-1.3-2.1-2.7-2.4-4.2-.3-1.5-.4-3.9-.4-7.3s.2-5.8.4-7.3c.3-1.5,1.1-2.9,2.4-4.2,1.9-1.9,4.3-2.9,7.3-2.9s5.4.9,7.3,2.9c1.3,1.3,2.1,2.7,2.4,4.2ZM1289.3,213.3c.2-1.1.3-3.1.3-6s-.1-4.8-.3-6c-.2-1.2-.7-2.1-1.3-2.8-1.1-1.2-2.5-1.7-4.2-1.7s-3.1.6-4.2,1.7c-.7.7-1.1,1.7-1.3,2.9-.2,1.1-.3,3.1-.3,5.9s.1,4.8.3,5.9c.2,1.1.7,2.1,1.3,2.8,1.1,1.2,2.5,1.8,4.2,1.8s3.1-.6,4.2-1.8c.7-.7,1.1-1.6,1.3-2.8h0ZM1320.8,221.4h-5l-5.9-11.9h-5.3v11.9h-4.3v-28.2h10.9c2.6,0,4.8.8,6.3,2.3,1.6,1.5,2.4,3.5,2.4,5.9s-.5,3.6-1.6,4.9c-1,1.3-2.4,2.2-4,2.6l6.5,12.5h0ZM1314.4,204.8c.9-.8,1.3-1.9,1.3-3.2s-.4-2.4-1.3-3.2c-.9-.8-2-1.2-3.5-1.2h-6.3v8.8h6.3c1.4,0,2.6-.4,3.5-1.1h0ZM1343.7,193.2l-8.4,16.6v11.6h-4.3v-11.6l-8.4-16.6h4.7l5.9,12.4,5.9-12.4h4.7,0Z"/>
  <path class="st2" d="M2855.9,89.6c0,2.8-1,4.9-3.1,6.5-2.1,1.6-4.6,2.3-7.8,2.3s-4.4-.3-6.1-.8c-1.7-.6-3.2-1.5-4.6-2.9l4.4-4.4c1.3,1.3,3.4,2,6.3,2s4-.8,4-2.5-.2-1.3-.6-1.7c-.4-.4-1-.7-1.9-.8l-3.4-.5c-2.5-.4-4.4-1.2-5.7-2.5-1.3-1.3-1.9-3.2-1.9-5.7s.9-4.8,2.8-6.4c1.9-1.7,4.4-2.5,7.5-2.5s7.3,1.1,9.5,3.4l-4.4,4.3c-.7-.7-1.4-1.1-2.2-1.3-.8-.2-1.8-.3-3.1-.3s-2,.3-2.5.8-.9,1.1-.9,1.8.2.9.6,1.3c.4.4,1.1.7,1.9.8l3.4.5c2.5.3,4.3,1.1,5.5,2.3,1.4,1.4,2.1,3.4,2.1,6.2h0ZM2879.6,76.3h-6.9v22h-6.9v-22h-6.9v-6.2h20.8v6.2h0ZM2903.9,98.3h-7.3l-1.3-4.2h-8.7l-1.4,4.2h-7.3l10.3-28.2h5.3l10.2,28.2h0ZM2893.5,88.3l-2.4-7.5-2.5,7.5h4.9ZM2929,98.3h-8l-5-10.5h-2.3v10.5h-6.9v-28.2h11.2c3,0,5.3.9,7,2.7,1.7,1.8,2.6,3.9,2.6,6.4s-.4,3.3-1.3,4.6c-.9,1.2-2,2.2-3.2,2.8,0,0,6.1,11.8,6.1,11.8ZM2919.7,81.2c.6-.6.8-1.2.8-2s-.3-1.4-.8-2c-.6-.6-1.3-.9-2.2-.9h-3.9v5.7h3.9c.9,0,1.6-.3,2.2-.8ZM2951.1,76.3h-6.9v22h-6.9v-22h-6.9v-6.2h20.8v6.2h0ZM2976,88.4c0,3-1,5.4-3.1,7.3-2.1,1.9-4.6,2.8-7.6,2.8s-5.5-.9-7.6-2.8c-2.1-1.9-3.1-4.3-3.1-7.3v-18.3h6.9v18.1c0,1.3.3,2.3,1,3.1.7.7,1.6,1.1,2.7,1.1s2.1-.4,2.8-1.1c.7-.7,1-1.8,1-3.1v-18.1h6.9v18.3h0ZM2999.4,72.8c1.7,1.8,2.6,3.9,2.6,6.4s-.9,4.6-2.6,6.4c-1.7,1.8-4.1,2.7-7,2.7h-4.2v10.1h-6.9v-28.2h11.2c3,0,5.3.9,7,2.7h0ZM2994.2,81.2c.6-.6.8-1.2.8-2s-.3-1.4-.8-2c-.6-.6-1.3-.9-2.2-.9h-3.9v5.7h3.9c.9,0,1.6-.3,2.2-.8ZM3037.8,98.3h-7.2l-1.3-4.2h-8.7l-1.4,4.2h-7.2l10.2-28.2h5.3l10.2,28.2h0ZM3027.4,88.3l-2.4-7.5-2.5,7.5h4.9ZM3060.8,89.3c-.5,3-1.7,5.3-3.6,6.8-1.9,1.6-4.2,2.3-7,2.3s-5.8-1-7.8-3.1c-.7-.7-1.2-1.4-1.7-2.2-.4-.8-.7-1.7-.9-2.8-.1-1.1-.3-2-.3-2.8,0-.8,0-1.9,0-3.4s0-2.7,0-3.4c0-.8.2-1.7.3-2.8.1-1.1.4-2,.9-2.8.4-.8,1-1.5,1.7-2.2,2.1-2.1,4.7-3.1,7.8-3.1s5.1.8,7,2.3c1.9,1.6,3.1,3.8,3.6,6.8h-7.1c-.6-2-1.8-3-3.6-3s-2.1.4-2.7,1.2c-.4.5-.6,1.2-.8,2.1-.1.9-.2,2.5-.2,4.9s0,4,.2,4.9c.2.9.5,1.6.8,2.1.6.8,1.5,1.2,2.7,1.2,1.9,0,3.1-1,3.6-3h7.1ZM3085.1,89.3c-.5,3-1.7,5.3-3.6,6.8s-4.2,2.3-7,2.3-5.8-1-7.8-3.1c-.7-.7-1.2-1.4-1.7-2.2-.4-.8-.7-1.7-.9-2.8-.1-1.1-.3-2-.3-2.8,0-.8,0-1.9,0-3.4s0-2.7,0-3.4c0-.8.1-1.7.3-2.8.2-1.1.5-2,.9-2.8s1-1.5,1.7-2.2c2.1-2.1,4.7-3.1,7.8-3.1s5.1.8,7,2.3,3.1,3.8,3.6,6.8h-7c-.6-2-1.8-3-3.6-3s-2.1.4-2.7,1.2c-.4.5-.7,1.2-.8,2.1-.1.9-.2,2.5-.2,4.9s0,4,.2,4.9c.2.9.5,1.6.8,2.1.6.8,1.5,1.2,2.7,1.2,1.9,0,3.1-1,3.6-3h7ZM3107.9,98.3h-19.2v-28.2h19.2v6.2h-12.2v4.7h10.5v6.2h-10.5v4.9h12.2v6.2h0ZM3131.6,98.3h-18.8v-28.2h6.9v22h11.8v6.2ZM3154.8,98.3h-19.1v-28.2h19.1v6.2h-12.2v4.7h10.4v6.2h-10.4v4.9h12.2v6.2h0ZM3182,98.3h-8l-5-10.5h-2.3v10.5h-6.9v-28.2h11.1c3,0,5.3.9,7.1,2.7,1.7,1.8,2.6,3.9,2.6,6.4s-.5,3.3-1.3,4.6c-.9,1.2-2,2.2-3.2,2.8,0,0,6.1,11.8,6.1,11.8ZM3172.7,81.2c.6-.6.8-1.2.8-2s-.3-1.4-.8-2c-.6-.6-1.3-.9-2.2-.9h-3.9v5.7h3.9c.9,0,1.6-.3,2.2-.8ZM3208.5,98.3h-7.3l-1.3-4.2h-8.7l-1.4,4.2h-7.3l10.3-28.2h5.3l10.2,28.2h0ZM3198.1,88.3l-2.4-7.5-2.5,7.5h4.9ZM3227.7,76.3h-6.9v22h-6.9v-22h-6.9v-6.2h20.8v6.2h0ZM3238.7,98.3h-6.9v-28.2h6.9v28.2ZM3264.9,80.7c0,.8,0,1.9,0,3.4s0,2.7,0,3.4c0,.8-.1,1.7-.3,2.8-.1,1.1-.4,2-.9,2.8-.4.8-1,1.5-1.7,2.2-2.1,2.1-4.7,3.1-7.8,3.1s-5.8-1-7.9-3.1c-.7-.7-1.2-1.4-1.6-2.2-.4-.8-.7-1.7-.9-2.8-.1-1.1-.3-2-.3-2.8,0-.8,0-1.9,0-3.4s0-2.7,0-3.4c0-.8.1-1.7.3-2.8.1-1.1.4-2,.9-2.8.4-.8,1-1.5,1.6-2.2,2.1-2.1,4.7-3.1,7.9-3.1s5.8,1,7.8,3.1c.7.7,1.2,1.4,1.7,2.2.4.8.7,1.7.9,2.8.1,1.1.3,2,.3,2.8ZM3257.8,89.1c.1-.9.2-2.5.2-4.9s0-4-.2-4.9c-.2-.9-.4-1.6-.8-2.1-.6-.8-1.6-1.2-2.8-1.2s-2.1.4-2.8,1.2c-.4.5-.6,1.2-.8,2.1-.2.9-.2,2.5-.2,4.9s0,4,.2,4.9c.1.9.4,1.5.8,2,.6.8,1.5,1.3,2.8,1.3s2.1-.4,2.8-1.3c.4-.5.6-1.2.8-2ZM3291.7,98.3h-6.1l-9-14.2v14.2h-6.9v-28.2h6.1l9,14.2v-14.2h6.9v28.2Z"/>
  <path class="st2" d="M2868.4,126.4c1.3,1.2,1.9,2.8,1.9,4.5s-.6,3.3-1.9,4.6c-1.2,1.2-2.8,1.9-4.6,1.9s-3.3-.6-4.6-1.9c-1.2-1.3-1.9-2.8-1.9-4.6s.6-3.3,1.9-4.6c1.3-1.3,2.8-1.9,4.6-1.9s3.3.6,4.6,1.9ZM2914.8,136.1c0,2.6-.9,4.6-2.8,6.1-1.9,1.5-4.3,2.2-7.3,2.2s-4.1-.3-5.6-.8c-1.6-.6-3-1.5-4.4-2.9l2.8-2.8c1.8,1.8,4.2,2.7,7.2,2.7s3.3-.4,4.3-1.1c1-.8,1.5-1.9,1.5-3.2s-.4-2.3-1.1-2.9c-.7-.6-1.7-1-3.1-1.2l-3.3-.5c-2.4-.4-4.1-1.1-5.3-2.3-1.4-1.3-2.1-3.1-2.1-5.4s.9-4.5,2.5-6c1.7-1.5,4-2.3,6.9-2.3s3.5.2,4.9.8,2.7,1.3,3.9,2.4l-2.7,2.7c-1.5-1.4-3.6-2.2-6.2-2.2s-2.9.4-3.8,1.2c-.9.8-1.3,1.8-1.3,3.2s.4,2,1,2.6c.7.6,1.7,1.1,3.1,1.3l3.4.5c2.3.4,4.1,1.1,5.2,2.1,1.5,1.4,2.3,3.3,2.3,5.8h0ZM2937.9,119.8h-7.8v24.3h-4.3v-24.3h-7.8v-3.8h19.8v3.8ZM2963.3,144.1h-5l-5.9-11.9h-5.3v11.9h-4.3v-28.2h10.9c2.6,0,4.8.8,6.3,2.3,1.6,1.5,2.4,3.5,2.4,5.9s-.5,3.6-1.6,4.9c-1,1.3-2.4,2.2-4.1,2.6l6.5,12.5h0ZM2956.8,127.5c.9-.8,1.3-1.9,1.3-3.2s-.4-2.4-1.3-3.2c-.9-.8-2-1.2-3.5-1.2h-6.3v8.8h6.3c1.4,0,2.6-.4,3.5-1.2h0ZM2989.4,144.1h-4.6l-1.9-5.7h-11.1l-1.9,5.7h-4.6l10.3-28.2h3.4l10.3,28.2h0ZM2981.7,134.9l-4.3-12.5-4.4,12.5h8.7ZM3008.3,119.8h-7.8v24.3h-4.3v-24.3h-7.8v-3.8h19.8v3.8ZM3031.2,144.1h-18v-28.2h18v3.8h-13.7v8.2h11.7v3.8h-11.7v8.5h13.7v3.8ZM3056.4,133.2c0,1.9-.2,3.4-.6,4.6-.4,1.2-1,2.3-1.9,3.3-2,2.1-4.6,3.2-7.8,3.2s-5.4-.9-7.3-2.9c-1.2-1.3-2-2.7-2.4-4.2-.3-1.5-.5-4-.5-7.3s.1-5.7.5-7.2c.3-1.5,1.1-2.9,2.4-4.2,1.9-1.9,4.3-2.8,7.3-2.8s5.2.8,6.9,2.4c1.8,1.6,2.9,3.7,3.3,6.2h-4.3c-.4-1.6-1.1-2.8-2.1-3.6-1-.9-2.3-1.3-3.9-1.3s-3.1.6-4.2,1.7c-.7.7-1.1,1.7-1.4,2.8-.2,1.1-.3,3.1-.3,5.9s.1,4.8.3,6c.2,1.1.7,2.1,1.4,2.8,1.1,1.2,2.5,1.7,4.2,1.7s3.5-.7,4.6-2c.9-1.1,1.4-2.5,1.4-4.4v-1.6h-6v-3.6h10.3v4.3h0ZM3067,144.1h-4.3v-28.2h4.3v28.2ZM3093.5,135.7c-.5,2.7-1.6,4.9-3.4,6.4-1.8,1.5-4,2.3-6.6,2.3s-5.4-.9-7.3-2.9c-1.2-1.3-2.1-2.7-2.4-4.2-.3-1.5-.5-4-.5-7.3s.1-5.7.5-7.2c.3-1.5,1.1-2.9,2.4-4.2,1.9-1.9,4.3-2.8,7.3-2.8s4.9.8,6.6,2.3c1.8,1.5,2.9,3.6,3.4,6.4h-4.4c-.3-1.5-1-2.7-2-3.6-1-.9-2.2-1.3-3.8-1.3s-3.1.6-4.2,1.7c-.7.7-1.2,1.7-1.4,2.8-.2,1.1-.3,3.1-.3,5.9s.1,4.8.3,6c.2,1.1.7,2.1,1.4,2.8,1.1,1.2,2.5,1.7,4.2,1.7s2.8-.4,3.8-1.3c1-.9,1.7-2.1,2-3.6h4.3ZM3129.5,144.1h-4.6l-1.9-5.7h-11.1l-1.9,5.7h-4.6l10.3-28.2h3.4l10.3,28.2h0ZM3121.8,134.9l-4.3-12.5-4.4,12.5h8.7ZM3153.1,123.6c.3,1.6.4,3.7.4,6.4s-.1,4.9-.4,6.5c-.2,1.6-.8,2.9-1.7,4-1.9,2.4-4.6,3.6-8,3.6h-9.9v-28.2h9.9c3.4,0,6.1,1.2,8,3.6.9,1.1,1.5,2.5,1.7,4.1ZM3148.9,135.5c.2-1.2.3-3.1.3-5.5s-.1-4.2-.3-5.4c-.2-1.2-.6-2.2-1.2-2.9-1.1-1.3-2.7-1.9-4.8-1.9h-5.1v20.6h5.1c2.1,0,3.7-.6,4.8-1.9.6-.7,1.1-1.7,1.2-2.9h0ZM3177.9,116l-9.4,28.2h-3.3l-9.3-28.2h4.4l6.5,20.5,6.5-20.5h4.5ZM3186.1,144.1h-4.3v-28.2h4.3v28.2ZM3211.1,136.1c0,2.6-.9,4.6-2.8,6.1-1.9,1.5-4.3,2.2-7.3,2.2s-4.1-.3-5.6-.8c-1.6-.6-3-1.5-4.4-2.9l2.8-2.8c1.8,1.8,4.2,2.7,7.2,2.7s3.3-.4,4.3-1.1c1-.8,1.5-1.9,1.5-3.2s-.4-2.3-1.1-2.9c-.7-.6-1.7-1-3.1-1.2l-3.3-.5c-2.4-.4-4.1-1.1-5.3-2.3-1.4-1.3-2.1-3.1-2.1-5.4s.9-4.5,2.6-6c1.7-1.5,4-2.3,6.9-2.3s3.5.2,4.9.8c1.4.5,2.7,1.3,3.9,2.4l-2.7,2.7c-1.5-1.4-3.6-2.2-6.2-2.2s-2.9.4-3.8,1.2c-.9.8-1.3,1.8-1.3,3.2s.4,2,1,2.6c.7.6,1.7,1.1,3.1,1.3l3.4.5c2.3.4,4.1,1.1,5.2,2.1,1.5,1.4,2.3,3.3,2.3,5.8h0ZM3235.5,122.8c.3,1.5.5,3.9.5,7.3s-.1,5.8-.5,7.3c-.3,1.5-1.1,2.9-2.4,4.2-1.9,1.9-4.3,2.9-7.3,2.9s-5.4-.9-7.3-2.9c-1.3-1.3-2.1-2.7-2.4-4.2-.3-1.5-.4-3.9-.4-7.3s.1-5.8.4-7.3c.3-1.5,1.1-2.9,2.4-4.2,1.9-1.9,4.3-2.8,7.3-2.8s5.4.9,7.3,2.8c1.3,1.3,2.1,2.7,2.4,4.2ZM3231.4,136c.2-1.1.3-3.1.3-6s-.1-4.8-.3-6c-.2-1.2-.7-2.1-1.3-2.8-1.1-1.2-2.5-1.7-4.2-1.7s-3.1.6-4.2,1.7c-.7.7-1.1,1.7-1.3,2.8-.2,1.1-.3,3.1-.3,5.9s.1,4.8.3,5.9c.2,1.1.7,2.1,1.3,2.8,1.1,1.2,2.6,1.8,4.2,1.8s3.1-.6,4.2-1.8c.7-.7,1.1-1.6,1.3-2.8ZM3262.9,144.1h-5l-5.9-11.9h-5.3v11.9h-4.3v-28.2h10.9c2.6,0,4.8.8,6.3,2.3,1.6,1.5,2.4,3.5,2.4,5.9s-.5,3.6-1.6,4.9c-1,1.3-2.4,2.2-4.1,2.6l6.5,12.5h0ZM3256.5,127.5c.9-.8,1.3-1.9,1.3-3.2s-.4-2.4-1.3-3.2c-.9-.8-2.1-1.2-3.5-1.2h-6.3v8.8h6.3c1.4,0,2.6-.4,3.5-1.2h0ZM3285.8,116l-8.4,16.6v11.6h-4.3v-11.6l-8.4-16.6h4.7l5.9,12.4,5.9-12.4h4.7ZM2868.4,166c1.3,1.2,1.9,2.8,1.9,4.6s-.6,3.3-1.9,4.6c-1.2,1.2-2.8,1.9-4.6,1.9s-3.3-.6-4.6-1.9c-1.2-1.3-1.9-2.8-1.9-4.6s.6-3.3,1.9-4.6c1.3-1.3,2.8-1.9,4.6-1.9s3.3.6,4.6,1.9ZM2917.1,175.8c0,2.5-.8,4.5-2.3,5.9-1.6,1.4-3.6,2.1-6.2,2.1h-11.4v-28.2h11c2.6,0,4.7.7,6.2,2.1,1.5,1.4,2.3,3.2,2.3,5.6s-.4,2.7-1.1,3.8c-.8,1.1-1.6,1.8-2.7,2.2,1.2.5,2.2,1.3,3,2.4.8,1.1,1.2,2.5,1.2,4.2h0ZM2912.8,175.6c0-1.3-.4-2.3-1.2-3.1-.8-.8-2-1.2-3.4-1.2h-6.7v8.6h6.7c1.4,0,2.6-.4,3.4-1.2.8-.8,1.2-1.8,1.2-3.1h0ZM2911.1,166.4c.8-.7,1.3-1.7,1.3-3s-.4-2.3-1.3-3c-.8-.7-1.9-1.1-3.3-1.1h-6.3v8.1h6.3c1.4,0,2.5-.3,3.3-1h0ZM2943.2,174.2c0,2.9-1,5.2-2.9,7.1-1.9,1.8-4.4,2.7-7.3,2.7s-5.3-.9-7.2-2.7c-1.9-1.8-2.9-4.2-2.9-7.1v-18.7h4.3v18.5c0,1.9.5,3.4,1.6,4.5,1.1,1.1,2.5,1.6,4.2,1.6s3.2-.5,4.2-1.6c1.1-1.1,1.6-2.6,1.6-4.5v-18.5h4.3v18.7h0ZM2967.8,175.7c0,2.6-.9,4.6-2.8,6.1-1.9,1.5-4.3,2.2-7.3,2.2s-4.1-.3-5.6-.8c-1.6-.6-3-1.5-4.4-2.9l2.8-2.8c1.8,1.8,4.2,2.7,7.2,2.7s3.3-.4,4.3-1.1c1-.8,1.5-1.9,1.5-3.2s-.4-2.3-1.1-2.9c-.7-.6-1.7-1-3.1-1.2l-3.3-.5c-2.4-.4-4.1-1.1-5.3-2.3-1.4-1.3-2.1-3.1-2.1-5.4s.9-4.5,2.6-6c1.7-1.5,4-2.3,6.9-2.3s3.5.2,4.9.8c1.4.5,2.7,1.3,3.9,2.4l-2.7,2.7c-1.5-1.4-3.6-2.2-6.2-2.2s-2.9.4-3.8,1.2c-.9.8-1.3,1.9-1.3,3.2s.4,2,1,2.6c.7.6,1.7,1.1,3.1,1.3l3.4.5c2.3.4,4.1,1.1,5.2,2.1,1.5,1.4,2.3,3.3,2.3,5.8h0ZM2977.8,183.7h-4.3v-28.2h4.3v28.2h0ZM3006.4,183.7h-3.9l-13-19.8v19.8h-4.3v-28.2h3.9l13,19.8v-19.8h4.3v28.2h0ZM3031.7,183.7h-18v-28.2h18v3.8h-13.7v8.2h11.7v3.8h-11.7v8.5h13.7v3.8h0ZM3055.2,175.7c0,2.6-.9,4.6-2.8,6.1-1.9,1.5-4.3,2.2-7.3,2.2s-4-.3-5.6-.8c-1.6-.6-3-1.5-4.4-2.9l2.8-2.8c1.8,1.8,4.2,2.7,7.3,2.7s3.3-.4,4.3-1.1c1-.8,1.5-1.9,1.5-3.2s-.4-2.3-1.1-2.9c-.7-.6-1.7-1-3.1-1.2l-3.3-.5c-2.3-.4-4.1-1.1-5.3-2.3-1.4-1.3-2.1-3.1-2.1-5.4s.8-4.5,2.5-6c1.7-1.5,4-2.3,6.9-2.3s3.5.2,4.9.8c1.4.5,2.7,1.3,3.9,2.4l-2.7,2.7c-1.5-1.4-3.6-2.2-6.2-2.2s-2.9.4-3.8,1.2c-.9.8-1.3,1.9-1.3,3.2s.3,2,1,2.6c.7.6,1.7,1.1,3.1,1.3l3.4.5c2.3.4,4.1,1.1,5.2,2.1,1.5,1.4,2.3,3.3,2.3,5.8h0ZM3078.3,175.7c0,2.6-.9,4.6-2.8,6.1-1.9,1.5-4.3,2.2-7.3,2.2s-4-.3-5.6-.8c-1.6-.6-3-1.5-4.4-2.9l2.8-2.8c1.8,1.8,4.2,2.7,7.3,2.7s3.3-.4,4.3-1.1c1-.8,1.5-1.9,1.5-3.2s-.4-2.3-1.1-2.9c-.7-.6-1.7-1-3.1-1.2l-3.3-.5c-2.3-.4-4.1-1.1-5.3-2.3-1.4-1.3-2.1-3.1-2.1-5.4s.8-4.5,2.5-6c1.7-1.5,4-2.3,6.9-2.3s3.5.2,4.9.8c1.4.5,2.7,1.3,3.9,2.4l-2.7,2.7c-1.5-1.4-3.6-2.2-6.2-2.2s-2.9.4-3.8,1.2c-.9.8-1.3,1.9-1.3,3.2s.3,2,1,2.6c.7.6,1.7,1.1,3.1,1.3l3.4.5c2.3.4,4.1,1.1,5.2,2.1,1.5,1.4,2.3,3.3,2.3,5.8h0ZM3117,183.7h-5.2l-2.3-2.8c-2.3,2-4.9,3-7.8,3s-5.1-.8-6.7-2.3c-1.6-1.5-2.4-3.6-2.4-6.1s.5-3.2,1.5-4.4c1-1.2,2.4-2.4,4.1-3.5-.6-.7-1.1-1.2-1.4-1.7-.3-.5-.7-1.1-1-1.9-.4-.8-.5-1.6-.5-2.4,0-1.8.6-3.3,1.9-4.5,1.3-1.2,2.9-1.8,5-1.8s3.6.6,4.8,1.8c1.2,1.2,1.9,2.7,1.9,4.5s-1,3.6-3,5l-2.1,1.4,5.9,7.1c1-1.4,1.5-3.3,1.5-5.7h3.9c-.1,3.8-1.1,6.6-2.8,8.7l4.7,5.6h0ZM3107.1,178.1l-6.7-8c-.9.6-1.5,1.1-2,1.5-.4.4-.9.9-1.2,1.6-.4.7-.6,1.4-.6,2.3,0,1.4.5,2.6,1.4,3.4,1,.9,2.2,1.4,3.7,1.4s3.7-.7,5.4-2.2h0ZM3104.9,161.6c0-.8-.3-1.4-.8-2-.5-.6-1.2-.8-2-.8s-1.5.3-2,.8c-.5.5-.8,1.2-.8,2s.7,2.2,2.2,3.9l1.3-.9c1.4-.9,2.1-1.9,2.1-2.9h0ZM3150,159.4h-13.7v8.6h11.7v3.8h-11.7v11.9h-4.3v-28.2h18v3.8h0ZM3159.4,183.7h-4.3v-28.2h4.3v28.2h0ZM3188,183.7h-3.9l-13-19.8v19.8h-4.3v-28.2h3.9l13,19.8v-19.8h4.3v28.2h0ZM3216.1,183.7h-4.6l-2-5.7h-11.1l-2,5.7h-4.6l10.3-28.2h3.4l10.3,28.2h0ZM3208.4,174.4l-4.3-12.5-4.4,12.5h8.7ZM3241.3,183.7h-3.9l-13-19.8v19.8h-4.3v-28.2h3.9l13,19.8v-19.8h4.3v28.2h0ZM3267.8,175.3c-.5,2.7-1.6,4.9-3.4,6.4-1.8,1.5-4,2.3-6.6,2.3s-5.4-.9-7.3-2.9c-1.2-1.3-2-2.7-2.4-4.2-.3-1.5-.5-4-.5-7.3s.1-5.7.5-7.2c.3-1.5,1.1-2.9,2.4-4.2,1.9-1.9,4.3-2.9,7.3-2.9s4.9.8,6.6,2.3c1.8,1.5,2.9,3.6,3.4,6.4h-4.4c-.3-1.5-1-2.7-2-3.6-1-.9-2.2-1.3-3.8-1.3s-3.1.6-4.2,1.7c-.7.7-1.2,1.7-1.4,2.9-.2,1.1-.3,3.1-.3,5.9s.1,4.8.3,6c.2,1.1.7,2.1,1.4,2.8,1.1,1.2,2.5,1.7,4.2,1.7s2.8-.4,3.8-1.3c1-.9,1.7-2.1,2-3.6h4.3ZM3277.8,183.7h-4.3v-28.2h4.3v28.2h0ZM3305.9,183.7h-4.6l-1.9-5.7h-11.1l-1.9,5.7h-4.6l10.3-28.2h3.4l10.3,28.2h0ZM3298.2,174.4l-4.3-12.5-4.4,12.5h8.7ZM3327.8,183.7h-17.9v-28.2h4.3v24.3h13.6v3.8h0ZM3359.4,158c1.6,1.6,2.5,3.6,2.5,6.1s-.8,4.5-2.5,6.1c-1.6,1.6-3.8,2.4-6.5,2.4h-6.4v11.1h-4.3v-28.2h10.7c2.7,0,4.9.8,6.5,2.4ZM3356.2,167.6c.9-.8,1.3-2,1.3-3.5s-.5-2.6-1.3-3.4c-.9-.8-2.1-1.3-3.6-1.3h-6.2v9.4h6.2c1.5,0,2.8-.4,3.6-1.2ZM3384.9,183.7h-17.9v-28.2h4.3v24.3h13.6v3.8h0ZM3410.5,183.7h-4.6l-2-5.7h-11.1l-2,5.7h-4.6l10.3-28.2h3.4l10.3,28.2h0ZM3402.8,174.4l-4.3-12.5-4.4,12.5h8.7ZM3435.7,183.7h-3.9l-13-19.8v19.8h-4.3v-28.2h3.9l13,19.8v-19.8h4.3v28.2h0ZM3464.3,183.7h-3.9l-13-19.8v19.8h-4.3v-28.2h3.9l13,19.8v-19.8h4.3v28.2h0ZM3475.9,183.7h-4.3v-28.2h4.3v28.2h0ZM3504.5,183.7h-3.9l-13-19.8v19.8h-4.3v-28.2h3.9l13,19.8v-19.8h4.3v28.2h0ZM3531.2,172.8c0,1.9-.2,3.4-.6,4.6-.4,1.2-1,2.3-2,3.3-2,2.1-4.6,3.2-7.7,3.2s-5.4-.9-7.3-2.9c-1.2-1.3-2-2.7-2.4-4.2-.3-1.5-.5-4-.5-7.3s.1-5.7.5-7.2c.3-1.5,1.1-2.9,2.4-4.2,1.9-1.9,4.3-2.9,7.3-2.9s5.1.8,6.9,2.4c1.8,1.6,2.9,3.7,3.3,6.2h-4.3c-.4-1.6-1.1-2.8-2.1-3.6-1-.9-2.3-1.3-3.8-1.3s-3.1.6-4.2,1.7c-.7.7-1.1,1.7-1.3,2.9-.2,1.1-.3,3.1-.3,5.9s.1,4.8.3,6c.2,1.1.7,2.1,1.3,2.8,1.1,1.2,2.5,1.7,4.2,1.7s3.5-.7,4.6-2c.9-1.1,1.4-2.5,1.4-4.4v-1.6h-6v-3.6h10.3v4.3h0ZM2868.4,205.5c1.3,1.2,1.9,2.8,1.9,4.6s-.6,3.3-1.9,4.6c-1.2,1.2-2.8,1.9-4.6,1.9s-3.3-.6-4.6-1.9c-1.2-1.3-1.9-2.8-1.9-4.6s.6-3.3,1.9-4.6c1.3-1.3,2.8-1.9,4.6-1.9s3.3.6,4.6,1.9ZM2915.2,223.3h-18v-28.2h18v3.8h-13.7v8.2h11.7v3.8h-11.7v8.5h13.7v3.8ZM2939.9,223.3h-4.9l-6.1-10.8-6.1,10.8h-4.9l8.7-14.4-8.2-13.7h4.9l5.5,10.1,5.6-10.1h4.9l-8.2,13.7,8.8,14.4h0ZM2962,223.3h-18v-28.2h18v3.8h-13.7v8.2h11.7v3.8h-11.7v8.5h13.7v3.8ZM2986.9,214.9c-.5,2.7-1.6,4.9-3.4,6.4-1.8,1.5-4,2.3-6.6,2.3s-5.4-.9-7.3-2.9c-1.3-1.3-2.1-2.7-2.4-4.2-.3-1.5-.5-4-.5-7.3s.2-5.7.5-7.2c.3-1.5,1.1-2.9,2.4-4.2,1.9-1.9,4.3-2.9,7.3-2.9s4.8.8,6.6,2.3c1.8,1.5,2.9,3.6,3.4,6.4h-4.4c-.3-1.5-.9-2.7-1.9-3.6-1-.9-2.2-1.3-3.8-1.3s-3.1.6-4.2,1.7c-.7.7-1.2,1.7-1.4,2.9-.2,1.1-.3,3.1-.3,5.9s.1,4.8.3,6c.2,1.1.7,2.1,1.4,2.8,1.1,1.2,2.5,1.7,4.2,1.7s2.8-.4,3.8-1.3c1-.9,1.7-2.1,2-3.6h4.3ZM3012.4,213.8c0,2.9-.9,5.2-2.9,7.1-1.9,1.8-4.3,2.7-7.2,2.7s-5.3-.9-7.3-2.7c-1.9-1.8-2.8-4.2-2.8-7.1v-18.7h4.3v18.5c0,1.9.5,3.4,1.6,4.5,1.1,1.1,2.5,1.6,4.2,1.6s3.2-.5,4.2-1.6c1.1-1.1,1.6-2.6,1.6-4.5v-18.5h4.3v18.7ZM3036.7,199h-7.8v24.3h-4.3v-24.3h-7.7v-3.8h19.8v3.8ZM3045.8,223.3h-4.3v-28.2h4.3v28.2ZM3071.9,201.9c.3,1.5.5,3.9.5,7.3s-.1,5.8-.5,7.3-1.1,2.9-2.4,4.2c-1.9,1.9-4.3,2.9-7.3,2.9s-5.4-.9-7.3-2.9c-1.3-1.3-2.1-2.7-2.4-4.2-.3-1.5-.4-3.9-.4-7.3s.1-5.8.4-7.3c.3-1.5,1.1-2.9,2.4-4.2,1.9-1.9,4.3-2.9,7.3-2.9s5.4.9,7.3,2.9c1.3,1.3,2.1,2.7,2.4,4.2ZM3067.8,215.2c.2-1.1.3-3.1.3-6s-.1-4.8-.3-6c-.2-1.2-.7-2.1-1.3-2.8-1.1-1.2-2.5-1.7-4.2-1.7s-3.1.6-4.2,1.7c-.7.7-1.1,1.7-1.4,2.9-.2,1.1-.3,3.1-.3,5.9s.1,4.8.3,5.9c.2,1.1.7,2.1,1.4,2.8,1.1,1.2,2.5,1.8,4.2,1.8s3.1-.6,4.2-1.8c.7-.7,1.1-1.6,1.3-2.8h0ZM3099.9,223.3h-3.9l-13-19.8v19.8h-4.3v-28.2h3.9l13,19.8v-19.8h4.3v28.2ZM3134.8,223.3h-18v-28.2h18v3.8h-13.7v8.2h11.7v3.8h-11.7v8.5h13.7v3.8ZM3159.5,223.3h-4.9l-6.1-10.8-6.1,10.8h-4.9l8.7-14.4-8.2-13.7h4.9l5.5,10.1,5.6-10.1h4.9l-8.2,13.7,8.8,14.4h0ZM3181.9,214.9c-.5,2.7-1.6,4.9-3.4,6.4-1.8,1.5-4,2.3-6.6,2.3s-5.4-.9-7.3-2.9c-1.2-1.3-2.1-2.7-2.4-4.2-.3-1.5-.5-4-.5-7.3s.1-5.7.5-7.2c.3-1.5,1.1-2.9,2.4-4.2,1.9-1.9,4.3-2.9,7.3-2.9s4.8.8,6.6,2.3c1.8,1.5,2.9,3.6,3.4,6.4h-4.4c-.3-1.5-1-2.7-1.9-3.6-1-.9-2.2-1.3-3.8-1.3s-3.1.6-4.2,1.7c-.7.7-1.2,1.7-1.4,2.9-.2,1.1-.3,3.1-.3,5.9s.1,4.8.3,6c.2,1.1.7,2.1,1.4,2.8,1.1,1.2,2.5,1.7,4.2,1.7s2.8-.4,3.8-1.3,1.7-2.1,2-3.6h4.3ZM3205.6,223.3h-18v-28.2h18v3.8h-13.7v8.2h11.7v3.8h-11.7v8.5h13.7v3.8ZM3229.3,223.3h-17.9v-28.2h4.3v24.3h13.6v3.8ZM3252.1,223.3h-17.9v-28.2h4.3v24.3h13.6v3.8ZM3274.9,223.3h-18v-28.2h18v3.8h-13.7v8.2h11.7v3.8h-11.7v8.5h13.7v3.8ZM3302,223.3h-3.9l-13-19.8v19.8h-4.3v-28.2h3.9l13,19.8v-19.8h4.3v28.2ZM3328.5,214.9c-.5,2.7-1.6,4.9-3.4,6.4-1.8,1.5-4,2.3-6.6,2.3s-5.4-.9-7.3-2.9c-1.3-1.3-2.1-2.7-2.4-4.2-.3-1.5-.5-4-.5-7.3s.2-5.7.5-7.2c.3-1.5,1.1-2.9,2.4-4.2,1.9-1.9,4.3-2.9,7.3-2.9s4.8.8,6.6,2.3c1.8,1.5,2.9,3.6,3.4,6.4h-4.4c-.3-1.5-.9-2.7-1.9-3.6-1-.9-2.2-1.3-3.8-1.3s-3.1.6-4.2,1.7c-.7.7-1.2,1.7-1.4,2.9-.2,1.1-.3,3.1-.3,5.9s.1,4.8.3,6c.2,1.1.7,2.1,1.4,2.8,1.1,1.2,2.5,1.7,4.2,1.7s2.8-.4,3.8-1.3c1-.9,1.7-2.1,2-3.6h4.3ZM3352.2,223.3h-18v-28.2h18v3.8h-13.7v8.2h11.7v3.8h-11.7v8.5h13.7v3.8ZM3384.9,199h-7.8v24.3h-4.3v-24.3h-7.8v-3.8h19.8v3.8ZM3407.7,201.9c.3,1.5.5,3.9.5,7.3s-.1,5.8-.5,7.3c-.3,1.5-1.1,2.9-2.4,4.2-1.9,1.9-4.3,2.9-7.3,2.9s-5.4-.9-7.3-2.9c-1.3-1.3-2.1-2.7-2.4-4.2s-.4-3.9-.4-7.3.1-5.8.4-7.3,1.1-2.9,2.4-4.2c1.9-1.9,4.3-2.9,7.3-2.9s5.4.9,7.3,2.9c1.3,1.3,2.1,2.7,2.4,4.2ZM3403.6,215.2c.2-1.1.3-3.1.3-6s-.1-4.8-.3-6c-.2-1.2-.7-2.1-1.4-2.8-1.1-1.2-2.5-1.7-4.2-1.7s-3.1.6-4.2,1.7c-.7.7-1.1,1.7-1.3,2.9-.2,1.1-.3,3.1-.3,5.9s.1,4.8.3,5.9c.2,1.1.7,2.1,1.3,2.8,1.1,1.2,2.5,1.8,4.2,1.8s3.1-.6,4.2-1.8c.7-.7,1.1-1.6,1.4-2.8h0ZM3432.9,201.9c.3,1.5.5,3.9.5,7.3s-.1,5.8-.5,7.3c-.3,1.5-1.1,2.9-2.4,4.2-1.9,1.9-4.3,2.9-7.3,2.9s-5.4-.9-7.3-2.9c-1.3-1.3-2.1-2.7-2.4-4.2-.3-1.5-.4-3.9-.4-7.3s.1-5.8.4-7.3,1.1-2.9,2.4-4.2c1.9-1.9,4.3-2.9,7.3-2.9s5.4.9,7.3,2.9c1.3,1.3,2.1,2.7,2.4,4.2ZM3428.8,215.2c.2-1.1.3-3.1.3-6s-.1-4.8-.3-6c-.2-1.2-.7-2.1-1.4-2.8-1.1-1.2-2.5-1.7-4.2-1.7s-3.1.6-4.2,1.7c-.7.7-1.1,1.7-1.3,2.9-.2,1.1-.3,3.1-.3,5.9s.1,4.8.3,5.9c.2,1.1.7,2.1,1.3,2.8,1.1,1.2,2.5,1.8,4.2,1.8s3.1-.6,4.2-1.8c.7-.7,1.1-1.6,1.4-2.8h0ZM3457.6,223.3h-17.9v-28.2h4.3v24.3h13.6v3.8ZM3480.1,215.3c0,2.6-.9,4.6-2.8,6.1-1.9,1.5-4.3,2.2-7.3,2.2s-4.1-.3-5.6-.8c-1.5-.6-3-1.5-4.4-2.9l2.8-2.8c1.8,1.8,4.2,2.7,7.3,2.7s3.2-.4,4.3-1.1c1-.8,1.5-1.9,1.5-3.2s-.4-2.3-1.1-2.9c-.7-.6-1.7-1-3.1-1.2l-3.3-.5c-2.4-.4-4.1-1.1-5.3-2.3-1.4-1.3-2.1-3.1-2.1-5.4s.8-4.5,2.5-6c1.7-1.5,4-2.3,6.9-2.3s3.5.2,4.9.8c1.4.5,2.7,1.3,3.9,2.4l-2.7,2.7c-1.5-1.4-3.6-2.2-6.2-2.2s-2.9.4-3.8,1.2c-.9.8-1.3,1.9-1.3,3.2s.3,2,1,2.6c.7.6,1.8,1.1,3.1,1.3l3.4.5c2.3.4,4.1,1.1,5.2,2.1,1.5,1.4,2.3,3.3,2.3,5.8h0Z"/>
</svg>