<?xml version="1.0" encoding="UTF-8"?>
<svg id="Layer_1" xmlns="http://www.w3.org/2000/svg" xmlns:xlink="http://www.w3.org/1999/xlink" version="1.1" viewBox="0 0 2292.6 275.1">
  <!-- Generator: Adobe Illustrator 29.1.0, SVG Export Plug-In . SVG Version: 2.1.0 Build 142)  -->
  <defs>
    <style>
      .st0, .st1 {
        fill: none;
      }

      .st2 {
        fill: #010101;
      }

      .st1 {
        stroke: #af2836;
        stroke-miterlimit: 10;
        stroke-width: 14px;
      }

      .st3 {
        isolation: isolate;
      }

      .st4 {
        fill: #ce3d46;
      }

      .st5 {
        fill: #d1616b;
      }

      .st6 {
        clip-path: url(#clippath);
      }
    </style>
    <clipPath id="clippath">
      <polygon class="st0" points="2186.8 12.5 1326.8 12.5 611.3 12.5 611.3 262.5 1333.9 262.5 2187.9 262.5 2291.1 137.5 2186.8 12.5"/>
    </clipPath>
  </defs>
  <g class="st3">
    <g class="st3">
      <path class="st4" d="M211.7,103.5l10.7,22h-11.5l-9.3-20.3h-8.4v20.3h-10.5v-51.7h18.5c6.1,0,10.9,1.4,14.3,4.1s5.1,6.6,5.1,11.7-2.9,11.4-8.8,13.9ZM193.2,82.7v13.6h7c3.4,0,5.9-.5,7.5-1.5,1.5-1,2.3-2.7,2.3-5.2s-.8-4.3-2.4-5.3c-1.6-1-4.1-1.6-7.5-1.6h-7Z"/>
      <path class="st4" d="M228.9,125.5v-51.7h32.2v8.9h-21.7v11.6h19.5v8.8h-19.5v13.5h21.7v8.8h-32.2Z"/>
      <path class="st4" d="M303.1,81.6l-7.9,5.6c-1.2-1.8-2.6-3.2-4.1-4-1.5-.8-3.6-1.2-6.1-1.2s-4.1.5-5.4,1.5c-1.2,1-1.9,2.4-1.9,4.2s.8,3.4,2.3,4.5c1.5,1.1,4.2,2.1,7.9,3,5.5,1.4,9.5,3.3,12,5.7,2.4,2.3,3.7,5.7,3.7,10.2s-1.5,8.3-4.6,11c-3.1,2.7-7.5,4.1-13.2,4.1-9,0-15.6-2.8-19.9-8.5l8-5.5c1.5,1.8,3.1,3.2,4.8,4s3.9,1.2,6.4,1.2c5.3,0,8-1.9,8-5.8s-.8-3.3-2.3-4.5c-1.5-1.1-4.3-2.2-8.3-3.3-5.2-1.3-9.1-3.3-11.6-5.9-2.5-2.6-3.7-6-3.7-10.2s1.5-8,4.5-10.6c3-2.6,7.4-3.9,13.1-3.9,8.4,0,14.4,2.8,18.1,8.5Z"/>
      <path class="st4" d="M349.5,96v7.3c0,7.5-1.7,13.2-5.2,17-3.5,3.9-8.4,5.8-14.6,5.8s-11.1-1.9-14.6-5.8c-3.5-3.9-5.2-9.5-5.2-17v-7.3c0-7.5,1.7-13.2,5.2-17.1,3.5-3.8,8.3-5.8,14.6-5.8s11.2,1.9,14.6,5.8c3.5,3.8,5.2,9.5,5.2,17.1ZM320.4,96v7.3c0,9.3,3.1,14,9.3,14s9.4-4.7,9.4-14v-7.3c0-9.3-3.1-14-9.4-14s-9.3,4.7-9.3,14Z"/>
      <path class="st4" d="M387.3,104.6v-30.8h10.5v30.7c0,7.1-1.8,12.5-5.3,16.2-3.5,3.6-8.4,5.5-14.6,5.5s-11-1.8-14.6-5.4c-3.5-3.6-5.3-9-5.3-16.1v-30.8h10.5v30.8c0,4.4.7,7.6,2.2,9.7,1.5,2,3.9,3.1,7.1,3.1s5.6-1,7.1-3.1c1.5-2,2.2-5.3,2.2-9.7Z"/>
    </g>
    <g class="st3">
      <path class="st4" d="M437.9,103.5l10.7,22h-11.5l-9.3-20.3h-8.4v20.3h-10.5v-51.7h18.5c6.1,0,10.9,1.4,14.3,4.1s5.1,6.6,5.1,11.7-2.9,11.4-8.8,13.9ZM419.4,82.7v13.6h7c3.4,0,5.9-.5,7.5-1.5,1.5-1,2.3-2.7,2.3-5.2s-.8-4.3-2.4-5.3c-1.6-1-4.1-1.6-7.5-1.6h-7Z"/>
    </g>
    <g class="st3">
      <path class="st4" d="M492.5,89.8h-10c-1-5.2-4-7.9-8.9-7.9s-9.3,4.7-9.3,14v7.3c0,9.3,3.1,14,9.3,14s4.5-.6,5.9-1.9c1.4-1.2,2.4-3.2,3-6h10c-1.6,11.1-7.9,16.7-18.9,16.7s-11.1-1.9-14.6-5.8c-3.5-3.9-5.2-9.5-5.2-17v-7.3c0-7.5,1.7-13.2,5.2-17.1,3.5-3.8,8.3-5.8,14.6-5.8s9.6,1.4,12.8,4.2c3.2,2.8,5.3,7,6.1,12.5Z"/>
      <path class="st4" d="M499.8,125.5v-51.7h32.2v8.9h-21.7v11.6h19.5v8.8h-19.5v13.5h21.7v8.8h-32.2Z"/>
    </g>
    <g class="st3">
      <path class="st4" d="M14.8,188.9l-3.1,9.8H.5l18-51.7h10l18,51.7h-11.2l-3.1-9.8H14.8ZM29.3,180.1l-5.8-18.2-5.8,18.2h11.7Z"/>
      <path class="st4" d="M80.3,177.8v-30.8h10.5v30.7c0,7.1-1.8,12.5-5.3,16.2-3.5,3.6-8.4,5.5-14.6,5.5s-11-1.8-14.6-5.4c-3.5-3.6-5.3-9-5.3-16.1v-30.8h10.5v30.8c0,4.4.7,7.6,2.2,9.7,1.5,2,3.9,3.1,7.1,3.1s5.6-1,7.1-3.1c1.5-2,2.2-5.3,2.2-9.7Z"/>
      <path class="st4" d="M119.4,180.7v-8.8h18.8v4.7c0,7.6-1.6,13.3-4.9,17.1-3.3,3.8-8,5.7-14.1,5.7s-11.1-1.9-14.6-5.8c-3.5-3.9-5.2-9.5-5.2-17v-6.6c0-7.9,1.7-13.8,5.2-17.7,3.4-3.9,8.3-5.9,14.6-5.9s9.6,1.4,12.9,4.3c3.2,2.9,5.3,7,6.1,12.4h-10c-1-5.2-4-7.9-8.9-7.9s-9.3,4.7-9.3,14v7.3c0,9.3,3.1,14,9.3,14s4.9-.8,6.3-2.4c1.4-1.6,2.3-4.1,2.6-7.5h-8.7Z"/>
      <path class="st4" d="M146.8,147h9.8l14.5,28.2,14.4-28.2h10v51.7h-10v-32.1l-11.2,22.8h-6.4l-11.1-22.5v31.8h-10v-51.7Z"/>
      <path class="st4" d="M205.7,198.7v-51.7h32.2v8.9h-21.7v11.6h19.5v8.8h-19.5v13.5h21.7v8.8h-32.2Z"/>
      <path class="st4" d="M274.1,179.5v-32.4h10v51.7h-8.8l-20.1-32v32h-10v-51.7h8.7l20.2,32.4Z"/>
    </g>
    <g class="st3">
      <path class="st4" d="M292.5,156v-8.9h38.9v8.9h-14.2v42.8h-10.5v-42.8h-14.2Z"/>
      <path class="st4" d="M343.4,188.9l-3.1,9.8h-11.2l18-51.7h10l18,51.7h-11.2l-3.1-9.8h-17.3ZM357.8,180.1l-5.8-18.2-5.8,18.2h11.7Z"/>
    </g>
    <g class="st3">
      <path class="st4" d="M373.8,156v-8.9h38.9v8.9h-14.2v42.8h-10.5v-42.8h-14.2Z"/>
      <path class="st4" d="M419.2,147h10.5v51.7h-10.5v-51.7Z"/>
      <path class="st4" d="M478.7,169.2v7.3c0,7.5-1.7,13.2-5.2,17-3.5,3.9-8.4,5.8-14.6,5.8s-11.1-1.9-14.6-5.8c-3.5-3.9-5.2-9.5-5.2-17v-7.3c0-7.5,1.7-13.2,5.2-17.1,3.5-3.8,8.3-5.8,14.6-5.8s11.2,1.9,14.6,5.8c3.5,3.8,5.2,9.5,5.2,17.1ZM449.6,169.2v7.3c0,9.3,3.1,14,9.3,14s9.4-4.7,9.4-14v-7.3c0-9.3-3.1-14-9.4-14s-9.3,4.7-9.3,14Z"/>
      <path class="st4" d="M516.2,179.5v-32.4h10v51.7h-8.8l-20.1-32v32h-10v-51.7h8.7l20.2,32.4Z"/>
    </g>
  </g>
  <polygon class="st5" points="1455.3 142.9 1335.4 262.5 612.8 262.5 612.8 12.5 1328.3 12.5 1455.3 142.9"/>
  <polygon class="st4" points="2292.6 137.5 2189.4 262.5 1335.4 262.5 1455.3 142.9 1328.3 12.5 2188.3 12.5 2292.6 137.5"/>
  <g class="st6">
    <polyline class="st1" points="1319.4 4.9 1453.8 142.9 1326.2 270.1"/>
  </g>
  <path class="st2" d="M784.2,72.9h-6.9v22h-6.9v-22h-6.9v-6.2h20.8v6.2h0ZM807.3,94.9h-19.2v-28.2h19.2v6.2h-12.2v4.7h10.5v6.2h-10.5v4.9h12.2v6.2h0ZM832.7,85.9c-.5,3-1.7,5.3-3.6,6.8-1.9,1.6-4.2,2.3-7,2.3s-5.8-1-7.8-3.1-1.2-1.4-1.7-2.2c-.4-.8-.7-1.7-.9-2.8-.2-1.1-.3-2-.3-2.8,0-.8,0-1.9,0-3.4s0-2.7,0-3.4c0-.8.2-1.7.3-2.8.2-1.1.5-2,.9-2.8s1-1.5,1.7-2.2c2.1-2.1,4.7-3.1,7.8-3.1s5.1.8,7,2.3c1.9,1.6,3.1,3.8,3.6,6.8h-7c-.5-2-1.8-3-3.6-3s-2.1.4-2.7,1.2c-.4.5-.7,1.2-.8,2.1-.2.9-.2,2.5-.2,4.9s0,4,.2,4.9c.2.9.5,1.6.8,2.1.6.8,1.5,1.2,2.7,1.2,1.8,0,3-1,3.6-3h7ZM857.6,94.9h-6.9v-11.2h-7.4v11.2h-6.9v-28.2h6.9v10.8h7.4v-10.8h6.9s0,28.2,0,28.2ZM885.3,94.9h-6.1l-9-14.2v14.2h-6.9v-28.2h6.1l9,14.2v-14.2h6.9v28.2ZM897.9,94.9h-6.9v-28.2h6.9v28.2ZM924.1,85.9c-.5,3-1.7,5.3-3.6,6.8-1.9,1.6-4.2,2.3-7,2.3s-5.8-1-7.8-3.1-1.2-1.4-1.7-2.2c-.4-.8-.7-1.7-.9-2.8-.2-1.1-.3-2-.3-2.8,0-.8,0-1.9,0-3.4s0-2.7,0-3.4c0-.8.2-1.7.3-2.8.2-1.1.5-2,.9-2.8s1-1.5,1.7-2.2c2.1-2.1,4.7-3.1,7.8-3.1s5.1.8,7,2.3c1.9,1.6,3.1,3.8,3.6,6.8h-7c-.5-2-1.8-3-3.6-3s-2.1.4-2.7,1.2c-.4.5-.7,1.2-.8,2.1-.2.9-.2,2.5-.2,4.9s0,4,.2,4.9c.2.9.5,1.6.8,2.1.6.8,1.5,1.2,2.7,1.2,1.8,0,3-1,3.6-3h7ZM950.4,94.9h-7.2l-1.3-4.2h-8.7l-1.4,4.2h-7.2l10.2-28.2h5.3l10.2,28.2h0ZM940,84.9l-2.4-7.5-2.5,7.5h4.9,0ZM972,94.9h-18.8v-28.2h6.9v22h11.8v6.2h0ZM1007.1,94.9h-8l-5-10.5h-2.3v10.5h-6.9v-28.2h11.2c3,0,5.3.9,7,2.7,1.7,1.8,2.6,3.9,2.6,6.4s-.5,3.3-1.3,4.6c-.9,1.2-2,2.2-3.2,2.8l6.1,11.8h0ZM997.8,77.8c.5-.6.8-1.2.8-2s-.3-1.4-.8-2c-.5-.6-1.3-.9-2.2-.9h-3.9v5.7h3.9c.9,0,1.6-.3,2.2-.8ZM1029.8,94.9h-19.2v-28.2h19.2v6.2h-12.2v4.7h10.4v6.2h-10.5v4.9h12.2v6.2h0ZM1053.6,86.2c0,2.8-1,4.9-3.1,6.5-2.1,1.6-4.6,2.3-7.8,2.3s-4.3-.3-6.1-.8c-1.7-.6-3.2-1.5-4.6-2.9l4.4-4.4c1.3,1.3,3.4,2,6.3,2s4-.8,4-2.5-.2-1.3-.6-1.7c-.4-.4-1-.7-1.9-.8l-3.4-.5c-2.5-.4-4.4-1.2-5.7-2.5-1.3-1.3-1.9-3.2-1.9-5.7s.9-4.8,2.8-6.4c1.9-1.7,4.4-2.5,7.5-2.5s7.3,1.1,9.5,3.4l-4.3,4.3c-.7-.7-1.4-1.1-2.3-1.3-.8-.2-1.8-.3-3.1-.3s-1.9.3-2.5.8c-.6.5-.9,1.1-.9,1.8s.2.9.6,1.3c.4.4,1.1.7,1.9.8l3.4.5c2.5.3,4.3,1.1,5.5,2.3,1.4,1.4,2.1,3.4,2.1,6.2h0ZM1078.7,77.3c0,.8,0,1.9,0,3.4s0,2.7,0,3.4c0,.8-.1,1.7-.3,2.8-.2,1.1-.4,2-.9,2.8s-1,1.5-1.7,2.2c-2.1,2.1-4.7,3.1-7.8,3.1s-5.8-1-7.8-3.1c-.7-.7-1.2-1.4-1.7-2.2-.4-.8-.7-1.7-.9-2.8-.2-1.1-.3-2-.3-2.8,0-.8,0-1.9,0-3.4s0-2.7,0-3.4c0-.8.2-1.7.3-2.8.2-1.1.4-2,.9-2.8s1-1.5,1.7-2.2c2.1-2.1,4.7-3.1,7.8-3.1s5.8,1,7.8,3.1c.7.7,1.2,1.4,1.7,2.2.4.8.7,1.7.9,2.8.2,1.1.2,2,.3,2.8ZM1071.6,85.7c.2-.9.2-2.5.2-4.9s0-4-.2-4.9c-.2-.9-.4-1.6-.8-2.1-.6-.8-1.6-1.2-2.8-1.2s-2.1.4-2.8,1.2c-.4.5-.6,1.2-.8,2.1-.2.9-.2,2.5-.2,4.9s0,4,.2,4.9.4,1.5.8,2c.6.8,1.6,1.3,2.8,1.3s2.1-.4,2.8-1.3c.4-.5.6-1.2.8-2ZM1104.4,85c0,3-1,5.4-3.1,7.3-2.1,1.9-4.6,2.8-7.6,2.8s-5.5-.9-7.6-2.8c-2-1.9-3.1-4.3-3.1-7.3v-18.3h6.9v18.1c0,1.3.3,2.3,1,3.1.7.7,1.6,1.1,2.7,1.1s2.1-.4,2.8-1.1c.7-.7,1-1.8,1-3.1v-18.1h6.9v18.3h0ZM1131.9,94.9h-8l-5-10.5h-2.3v10.5h-6.9v-28.2h11.2c3,0,5.3.9,7.1,2.7,1.7,1.8,2.6,3.9,2.6,6.4s-.4,3.3-1.3,4.6c-.9,1.2-2,2.2-3.2,2.8l6.1,11.8h0ZM1122.7,77.8c.6-.6.8-1.2.8-2s-.3-1.4-.8-2c-.6-.6-1.3-.9-2.2-.9h-3.9v5.7h3.9c.9,0,1.6-.3,2.2-.8ZM1155.5,85.9c-.5,3-1.7,5.3-3.6,6.8-1.9,1.6-4.2,2.3-7,2.3s-5.8-1-7.8-3.1c-.7-.7-1.2-1.4-1.7-2.2-.4-.8-.7-1.7-.9-2.8-.2-1.1-.3-2-.3-2.8,0-.8,0-1.9,0-3.4s0-2.7,0-3.4c0-.8.2-1.7.3-2.8.2-1.1.4-2,.9-2.8s1-1.5,1.7-2.2c2.1-2.1,4.7-3.1,7.8-3.1s5.1.8,7,2.3c1.9,1.6,3.1,3.8,3.6,6.8h-7.1c-.6-2-1.8-3-3.6-3s-2.1.4-2.7,1.2c-.4.5-.7,1.2-.8,2.1-.2.9-.2,2.5-.2,4.9s0,4,.2,4.9c.2.9.5,1.6.8,2.1.6.8,1.5,1.2,2.7,1.2,1.8,0,3.1-1,3.6-3h7.1ZM1178.3,94.9h-19.2v-28.2h19.2v6.2h-12.2v4.7h10.4v6.2h-10.4v4.9h12.2v6.2h0ZM854.7,134.5h-7.2l-1.3-4.2h-8.7l-1.4,4.2h-7.2l10.2-28.2h5.3l10.2,28.2h0ZM844.3,124.5l-2.4-7.5-2.5,7.5h4.9,0ZM878.5,124.6c0,3-1,5.5-3.1,7.3-2.1,1.9-4.6,2.8-7.6,2.8s-5.5-.9-7.6-2.8c-2-1.9-3-4.3-3-7.3v-18.3h6.9v18.1c0,1.3.3,2.3,1,3.1.7.7,1.6,1.1,2.7,1.1s2.1-.4,2.8-1.1c.7-.7,1-1.8,1-3.1v-18.1h6.9v18.3h0ZM904.5,122.2c0,2.3-.2,4.2-.6,5.6-.4,1.4-1.2,2.7-2.2,3.8-2,2.1-4.8,3.2-8.2,3.2s-5.7-1-7.8-3.1-1.2-1.4-1.7-2.2c-.4-.8-.7-1.7-.9-2.8-.2-1.1-.3-2-.3-2.8,0-.8,0-1.9,0-3.4s0-2.7,0-3.4c0-.8.2-1.7.3-2.8.2-1.1.5-2,.9-2.8s1-1.5,1.7-2.2c2.1-2.1,4.7-3.1,7.8-3.1s5.9.9,7.7,2.7c1.8,1.8,2.9,4,3.3,6.7h-7c-.3-1.1-.8-1.9-1.4-2.4-.6-.5-1.5-.8-2.7-.8s-2.1.4-2.7,1.2c-.4.5-.6,1.2-.8,2.1-.2.9-.2,2.5-.2,4.9s0,4,.2,4.9c.2.9.4,1.6.8,2.1.6.8,1.5,1.2,2.7,1.2s2.4-.4,3.1-1.1c.7-.7,1.1-1.7,1.1-3v-.4h-4.2v-5.8h11v3.9h0ZM935.6,134.5h-6.9v-13.5l-4,7h-4.4l-4-7v13.5h-6.9v-28.2h6.8l6.3,12.4,6.3-12.4h6.8v28.2h0ZM960.5,134.5h-19.2v-28.2h19.2v6.2h-12.2v4.7h10.5v6.2h-10.5v4.9h12.2v6.2h0ZM987.4,134.5h-6.1l-9-14.2v14.2h-6.9v-28.2h6.1l9,14.2v-14.2h6.9v28.2ZM1012.2,112.5h-6.9v22h-6.9v-22h-6.9v-6.2h20.8v6.2h0ZM1036.5,134.5h-7.2l-1.3-4.2h-8.7l-1.4,4.2h-7.2l10.2-28.2h5.3l10.2,28.2h0ZM1026.1,124.5l-2.4-7.5-2.5,7.5h4.9,0ZM1055.7,112.5h-6.9v22h-6.9v-22h-6.9v-6.2h20.8v6.2h0ZM1066.6,134.5h-6.9v-28.2h6.9v28.2ZM1092.8,116.9c0,.8,0,1.9,0,3.4s0,2.7,0,3.4c0,.8-.1,1.7-.3,2.8-.2,1.1-.4,2-.9,2.8s-1,1.5-1.7,2.2c-2.1,2.1-4.7,3.1-7.8,3.1s-5.8-1-7.8-3.1c-.7-.7-1.2-1.4-1.7-2.2-.4-.8-.7-1.7-.9-2.8-.2-1.1-.3-2-.3-2.8,0-.8,0-1.9,0-3.4s0-2.7,0-3.4c0-.8.2-1.7.3-2.8.2-1.1.4-2,.9-2.8s1-1.5,1.7-2.2c2.1-2.1,4.7-3.1,7.8-3.1s5.8,1,7.8,3.1c.7.7,1.2,1.4,1.7,2.2.4.8.7,1.7.9,2.8.2,1.1.2,2,.3,2.8ZM1085.7,125.2c.2-.9.2-2.5.2-4.9s0-4-.2-4.9c-.2-.9-.4-1.6-.8-2.1-.6-.8-1.6-1.2-2.8-1.2s-2.1.4-2.8,1.2c-.4.5-.6,1.2-.8,2.1-.2.9-.2,2.5-.2,4.9s0,4,.2,4.9.4,1.5.8,2c.6.8,1.6,1.3,2.8,1.3s2.1-.4,2.8-1.3c.4-.5.6-1.2.8-2ZM1119.7,134.5h-6.1l-9-14.2v14.2h-6.9v-28.2h6.1l9,14.2v-14.2h6.9v28.2ZM748.8,177h-8.6v-34h8.6v3.6h-4.6v26.8h4.6v3.6ZM771.8,166c0,2.6-.9,4.6-2.8,6.1s-4.3,2.2-7.3,2.2-4-.3-5.6-.8c-1.6-.6-3-1.5-4.3-2.9l2.8-2.8c1.8,1.8,4.2,2.7,7.2,2.7s3.3-.4,4.3-1.1c1-.8,1.5-1.9,1.5-3.2s-.4-2.3-1.1-2.9c-.7-.6-1.7-1-3.1-1.2l-3.3-.5c-2.3-.4-4.1-1.1-5.3-2.3-1.4-1.3-2.1-3.1-2.1-5.4s.8-4.5,2.5-6c1.7-1.5,4-2.3,6.9-2.3s3.5.2,4.9.8,2.7,1.3,3.9,2.4l-2.7,2.7c-1.5-1.4-3.6-2.2-6.2-2.2s-2.9.4-3.8,1.2c-.9.8-1.3,1.9-1.3,3.2s.3,2,1,2.6c.7.6,1.7,1.1,3.1,1.3l3.4.5c2.3.4,4.1,1.1,5.2,2.1,1.5,1.4,2.3,3.3,2.3,5.8h0ZM794.8,149.7h-7.8v24.3h-4.3v-24.3h-7.8v-3.8h19.8v3.8h0ZM819.5,164.6c0,2.9-1,5.2-2.9,7.1-1.9,1.8-4.3,2.7-7.2,2.7s-5.3-.9-7.2-2.7c-1.9-1.8-2.8-4.2-2.8-7.1v-18.7h4.3v18.5c0,1.9.5,3.4,1.6,4.5,1.1,1.1,2.5,1.6,4.2,1.6s3.2-.5,4.2-1.6c1.1-1.1,1.6-2.6,1.6-4.5v-18.5h4.3v18.7h0ZM846,153.5c.3,1.6.4,3.7.4,6.4s-.1,4.9-.4,6.5c-.2,1.6-.8,2.9-1.7,4-1.9,2.4-4.6,3.6-8,3.6h-9.9v-28.2h9.9c3.4,0,6.1,1.2,8,3.6.9,1.1,1.5,2.5,1.7,4.1h0ZM841.8,165.4c.2-1.2.3-3.1.3-5.5s0-4.2-.3-5.4c-.2-1.2-.6-2.2-1.2-2.9-1.1-1.3-2.7-1.9-4.8-1.9h-5.2v20.6h5.2c2.1,0,3.7-.6,4.8-1.9.6-.7,1-1.7,1.2-2.9ZM870.7,174.1h-18v-28.2h18v3.8h-13.7v8.2h11.7v3.8h-11.7v8.5h13.7v3.8h0ZM897.8,174.1h-3.9l-13-19.8v19.8h-4.3v-28.2h3.9l13,19.8v-19.8h4.3v28.2h0ZM922.5,149.7h-7.8v24.3h-4.3v-24.3h-7.8v-3.8h19.8v3.8h0ZM941.1,174.1h-4.3v-28.2h4.3v28.2h0ZM969.7,174.1h-3.9l-13-19.8v19.8h-4.3v-28.2h3.9l13,19.8v-19.8h4.3v28.2h0ZM998.2,174.1h-3.9l-13-19.8v19.8h-4.3v-28.2h3.9l13,19.8v-19.8h4.3v28.2h0ZM1024.3,152.7c.3,1.5.5,3.9.5,7.3s-.2,5.8-.5,7.3c-.3,1.5-1.1,2.9-2.4,4.2-1.9,1.9-4.3,2.9-7.3,2.9s-5.4-.9-7.3-2.9c-1.3-1.3-2.1-2.7-2.4-4.2-.3-1.5-.4-3.9-.4-7.3s.2-5.8.4-7.3c.3-1.5,1.1-2.9,2.4-4.2,1.9-1.9,4.3-2.9,7.3-2.9s5.4.9,7.3,2.9c1.3,1.3,2.1,2.7,2.4,4.2ZM1020.2,165.9c.2-1.1.3-3.1.3-6s-.1-4.8-.3-6c-.2-1.2-.7-2.1-1.3-2.8-1.1-1.2-2.5-1.7-4.2-1.7s-3.1.6-4.2,1.7c-.7.7-1.1,1.7-1.3,2.9-.2,1.1-.3,3.1-.3,5.9s.1,4.8.3,5.9c.2,1.1.7,2.1,1.3,2.8,1.1,1.2,2.5,1.8,4.2,1.8s3.1-.6,4.2-1.8c.7-.7,1.1-1.6,1.3-2.8h0ZM1049.2,145.9l-9.3,28.2h-3.3l-9.3-28.2h4.4l6.5,20.5,6.5-20.5h4.5,0ZM1072.5,174.1h-4.6l-1.9-5.7h-11.1l-1.9,5.7h-4.6l10.3-28.2h3.4l10.3,28.2h0ZM1064.8,164.7l-4.3-12.5-4.4,12.5h8.7,0ZM1091.4,149.7h-7.8v24.3h-4.3v-24.3h-7.8v-3.8h19.8v3.8ZM1114.2,152.7c.3,1.5.5,3.9.5,7.3s-.2,5.8-.5,7.3c-.3,1.5-1.1,2.9-2.4,4.2-1.9,1.9-4.3,2.9-7.3,2.9s-5.4-.9-7.3-2.9c-1.3-1.3-2.1-2.7-2.4-4.2-.3-1.5-.4-3.9-.4-7.3s.2-5.8.4-7.3c.3-1.5,1.1-2.9,2.4-4.2,1.9-1.9,4.3-2.9,7.3-2.9s5.4.9,7.3,2.9c1.3,1.3,2.1,2.7,2.4,4.2ZM1110.1,165.9c.2-1.1.3-3.1.3-6s-.1-4.8-.3-6c-.2-1.2-.7-2.1-1.3-2.8-1.1-1.2-2.5-1.7-4.2-1.7s-3.1.6-4.2,1.7c-.7.7-1.1,1.7-1.3,2.9-.2,1.1-.3,3.1-.3,5.9s.1,4.8.3,5.9c.2,1.1.7,2.1,1.3,2.8,1.1,1.2,2.5,1.8,4.2,1.8s3.1-.6,4.2-1.8c.7-.7,1.1-1.6,1.3-2.8h0ZM1141.6,174.1h-5l-5.9-11.9h-5.3v11.9h-4.3v-28.2h10.9c2.6,0,4.8.8,6.3,2.3,1.6,1.5,2.4,3.5,2.4,5.9s-.5,3.6-1.6,4.9c-1,1.3-2.4,2.2-4,2.6l6.5,12.5h0ZM1135.2,157.4c.9-.8,1.3-1.9,1.3-3.2s-.4-2.4-1.3-3.2c-.9-.8-2-1.2-3.5-1.2h-6.3v8.8h6.3c1.4,0,2.6-.4,3.5-1.1h0ZM1164.6,166c0,2.6-.9,4.6-2.8,6.1-1.9,1.5-4.3,2.2-7.3,2.2s-4-.3-5.6-.8c-1.6-.6-3-1.5-4.3-2.9l2.8-2.8c1.8,1.8,4.2,2.7,7.2,2.7s3.3-.4,4.3-1.1c1-.8,1.5-1.9,1.5-3.2s-.4-2.3-1.1-2.9c-.7-.6-1.7-1-3.1-1.2l-3.3-.5c-2.3-.4-4.1-1.1-5.3-2.3-1.4-1.3-2.1-3.1-2.1-5.4s.8-4.5,2.5-6c1.7-1.5,4-2.3,6.9-2.3s3.5.2,4.9.8,2.7,1.3,3.9,2.4l-2.7,2.7c-1.5-1.4-3.6-2.2-6.2-2.2s-2.9.4-3.8,1.2c-.9.8-1.3,1.9-1.3,3.2s.3,2,1,2.6c.7.6,1.7,1.1,3.1,1.3l3.4.5c2.3.4,4.1,1.1,5.2,2.1,1.5,1.4,2.3,3.3,2.3,5.8h0ZM1203.3,174.1h-5.2l-2.3-2.8c-2.3,2-4.9,3-7.8,3s-5.2-.8-6.7-2.3c-1.6-1.5-2.4-3.6-2.4-6.1s.5-3.2,1.5-4.4c1-1.2,2.4-2.4,4.1-3.5-.6-.7-1-1.2-1.4-1.7-.3-.5-.7-1.1-1-1.9-.3-.8-.5-1.6-.5-2.4,0-1.8.6-3.3,1.9-4.5,1.3-1.2,2.9-1.8,5-1.8s3.6.6,4.8,1.8,1.9,2.7,1.9,4.5-1,3.6-3,5l-2.1,1.4,5.9,7.1c1-1.4,1.5-3.3,1.5-5.7h3.9c-.1,3.8-1.1,6.6-2.8,8.7l4.7,5.6h0ZM1193.4,168.4l-6.7-8c-.8.6-1.5,1.1-1.9,1.5-.4.4-.9.9-1.3,1.6-.4.7-.6,1.4-.6,2.3,0,1.4.5,2.6,1.4,3.4,1,.9,2.2,1.4,3.7,1.4s3.8-.7,5.4-2.2h0ZM1191.2,152c0-.8-.3-1.4-.8-2-.5-.6-1.2-.8-2-.8s-1.5.3-2,.8c-.5.5-.8,1.2-.8,2s.7,2.2,2.2,3.9l1.3-.9c1.4-.9,2.1-1.9,2.1-2.9h0ZM812.3,213.6h-5l-5.9-11.9h-5.3v11.9h-4.3v-28.2h10.9c2.6,0,4.8.8,6.3,2.3,1.6,1.5,2.4,3.5,2.4,5.9s-.5,3.6-1.6,4.9c-1,1.3-2.4,2.2-4,2.6l6.5,12.5h0ZM805.8,197c.9-.8,1.3-1.9,1.3-3.2s-.4-2.4-1.3-3.2c-.9-.8-2-1.2-3.5-1.2h-6.3v8.8h6.3c1.5,0,2.6-.4,3.5-1.1h0ZM835.7,213.6h-18v-28.2h18v3.8h-13.7v8.2h11.7v3.8h-11.7v8.5h13.7v3.8ZM859.1,205.6c0,2.6-.9,4.6-2.8,6.1s-4.3,2.2-7.3,2.2-4-.3-5.6-.8c-1.6-.6-3-1.5-4.3-2.9l2.8-2.8c1.8,1.8,4.2,2.7,7.2,2.7s3.3-.4,4.3-1.1c1-.8,1.5-1.9,1.5-3.2s-.4-2.3-1.1-2.9c-.7-.6-1.7-1-3.1-1.2l-3.3-.5c-2.3-.4-4.1-1.1-5.3-2.3-1.4-1.3-2.1-3.1-2.1-5.4s.8-4.5,2.5-6c1.7-1.5,4-2.3,6.9-2.3s3.5.2,4.9.8,2.7,1.3,3.9,2.4l-2.7,2.7c-1.5-1.4-3.6-2.2-6.2-2.2s-2.9.4-3.8,1.2c-.9.8-1.3,1.9-1.3,3.2s.3,2,1,2.6c.7.6,1.7,1.1,3.1,1.3l3.4.5c2.3.4,4.1,1.1,5.2,2.1,1.5,1.4,2.3,3.3,2.3,5.8h0ZM869.2,213.6h-4.3v-28.2h4.3v28.2ZM896.1,193.1c.3,1.6.4,3.7.4,6.4s-.1,4.9-.4,6.5c-.2,1.6-.8,2.9-1.7,4-1.9,2.4-4.6,3.6-8,3.6h-9.9v-28.2h9.9c3.4,0,6.1,1.2,8,3.6.9,1.1,1.5,2.5,1.7,4.1ZM892,205c.2-1.2.3-3.1.3-5.5s0-4.2-.3-5.4c-.2-1.2-.6-2.2-1.2-2.9-1.1-1.3-2.7-1.9-4.8-1.9h-5.2v20.6h5.2c2.1,0,3.7-.6,4.8-1.9.6-.7,1-1.7,1.2-2.9ZM920.9,213.6h-18v-28.2h18v3.8h-13.7v8.2h11.7v3.8h-11.7v8.5h13.7v3.8ZM947.9,213.6h-3.9l-13-19.8v19.8h-4.3v-28.2h3.9l13,19.8v-19.8h4.3v28.2ZM972.6,189.3h-7.8v24.3h-4.3v-24.3h-7.8v-3.8h19.8v3.8h0ZM1005,213.6h-18v-28.2h18v3.8h-13.7v8.2h11.7v3.8h-11.7v8.5h13.7v3.8ZM1029.6,213.6h-4.9l-6.1-10.8-6.1,10.8h-4.9l8.7-14.4-8.2-13.7h4.9l5.5,10.1,5.6-10.1h4.9l-8.2,13.7,8.8,14.4ZM1050.9,187.9c1.7,1.6,2.5,3.6,2.5,6.1s-.8,4.5-2.5,6.1c-1.6,1.6-3.8,2.4-6.5,2.4h-6.4v11.1h-4.3v-28.2h10.7c2.7,0,4.9.8,6.5,2.4h0ZM1047.8,197.5c.9-.8,1.3-2,1.3-3.5s-.4-2.6-1.3-3.4c-.9-.8-2.1-1.3-3.6-1.3h-6.2v9.4h6.2c1.5,0,2.7-.4,3.6-1.2ZM1076.6,213.6h-18v-28.2h18v3.8h-13.7v8.2h11.7v3.8h-11.7v8.5h13.7v3.8ZM1103,213.6h-5l-5.9-11.9h-5.3v11.9h-4.3v-28.2h10.9c2.6,0,4.8.8,6.3,2.3,1.6,1.5,2.4,3.5,2.4,5.9s-.5,3.6-1.6,4.9c-1,1.3-2.4,2.2-4,2.6l6.5,12.5h0ZM1096.5,197c.9-.8,1.3-1.9,1.3-3.2s-.4-2.4-1.3-3.2c-.9-.8-2-1.2-3.5-1.2h-6.3v8.8h6.3c1.4,0,2.6-.4,3.5-1.1h0ZM1125.1,189.3h-7.8v24.3h-4.3v-24.3h-7.8v-3.8h19.8v3.8ZM1147.5,205.6c0,2.6-.9,4.6-2.8,6.1-1.9,1.5-4.3,2.2-7.3,2.2s-4-.3-5.6-.8c-1.6-.6-3-1.5-4.3-2.9l2.8-2.8c1.8,1.8,4.2,2.7,7.2,2.7s3.3-.4,4.3-1.1c1-.8,1.5-1.9,1.5-3.2s-.4-2.3-1.1-2.9c-.7-.6-1.7-1-3.1-1.2l-3.3-.5c-2.3-.4-4.1-1.1-5.3-2.3-1.4-1.3-2.1-3.1-2.1-5.4s.8-4.5,2.5-6c1.7-1.5,4-2.3,6.9-2.3s3.5.2,4.9.8,2.7,1.3,3.9,2.4l-2.7,2.7c-1.5-1.4-3.6-2.2-6.2-2.2s-2.9.4-3.8,1.2c-.9.8-1.3,1.9-1.3,3.2s.3,2,1,2.6c.7.6,1.7,1.1,3.1,1.3l3.4.5c2.3.4,4.1,1.1,5.2,2.1,1.5,1.4,2.3,3.3,2.3,5.8h0ZM1159.9,216.6h-8.6v-3.6h4.7v-26.9h-4.7v-3.6h8.6v34Z"/>
  <path class="st2" d="M1626.6,94.9h-6.9v-13.5l-4,7h-4.4l-4-7v13.5h-6.9v-28.2h6.8l6.3,12.4,6.3-12.4h6.8v28.2h0ZM1655.3,94.9h-7.2l-1.3-4.2h-8.7l-1.4,4.2h-7.2l10.2-28.2h5.3l10.2,28.2h0ZM1644.9,84.9l-2.4-7.5-2.5,7.5h4.9,0ZM1680.2,94.9h-6.1l-9-14.2v14.2h-6.9v-28.2h6.1l9,14.2v-14.2h6.9v28.2ZM1708.8,94.9h-7.2l-1.3-4.2h-8.7l-1.4,4.2h-7.2l10.2-28.2h5.3l10.2,28.2h0ZM1698.5,84.9l-2.4-7.5-2.5,7.5h4.9,0ZM1732.2,82.6c0,2.3-.2,4.2-.6,5.6-.4,1.4-1.2,2.7-2.2,3.8-2,2.1-4.8,3.2-8.2,3.2s-5.7-1-7.8-3.1c-.7-.7-1.2-1.4-1.7-2.2-.4-.8-.7-1.7-.9-2.8-.2-1.1-.3-2-.3-2.8,0-.8,0-1.9,0-3.4s0-2.7,0-3.4c0-.8.2-1.7.3-2.8.2-1.1.4-2,.9-2.8s1-1.5,1.7-2.2c2.1-2.1,4.7-3.1,7.8-3.1s5.9.9,7.7,2.7c1.8,1.8,2.9,4,3.3,6.7h-7c-.3-1.1-.8-1.9-1.4-2.4-.6-.5-1.5-.8-2.7-.8s-2.1.4-2.7,1.2c-.4.5-.6,1.2-.8,2.1-.2.9-.2,2.5-.2,4.9s0,4,.2,4.9.4,1.6.8,2.1c.6.8,1.5,1.2,2.7,1.2s2.4-.4,3.1-1.1c.7-.7,1.1-1.7,1.1-3v-.4h-4.2v-5.8h11v3.9h0ZM1756.1,94.9h-19.2v-28.2h19.2v6.2h-12.2v4.7h10.4v6.2h-10.4v4.9h12.2v6.2h0ZM1783.3,94.9h-8l-5-10.5h-2.3v10.5h-6.9v-28.2h11.2c3,0,5.3.9,7.1,2.7,1.7,1.8,2.6,3.9,2.6,6.4s-.5,3.3-1.3,4.6c-.9,1.2-2,2.2-3.2,2.8,0,0,6.1,11.8,6.1,11.8ZM1774.1,77.8c.6-.6.8-1.2.8-2s-.3-1.4-.8-2c-.6-.6-1.3-.9-2.2-.9h-3.9v5.7h3.9c.9,0,1.6-.3,2.2-.8ZM1793.8,94.9h-6.9v-28.2h6.9v28.2ZM1822.5,94.9h-7.3l-1.3-4.2h-8.7l-1.4,4.2h-7.3l10.2-28.2h5.3l10.3,28.2h0ZM1812.1,84.9l-2.4-7.5-2.5,7.5h4.9ZM1844.1,94.9h-18.8v-28.2h6.9v22h11.8v6.2ZM1888,94.9h-8l-5-10.5h-2.3v10.5h-6.9v-28.2h11.2c3,0,5.3.9,7.1,2.7,1.7,1.8,2.6,3.9,2.6,6.4s-.5,3.3-1.3,4.6c-.9,1.2-2,2.2-3.2,2.8,0,0,6.1,11.8,6.1,11.8ZM1878.7,77.8c.6-.6.8-1.2.8-2s-.3-1.4-.8-2c-.6-.6-1.3-.9-2.2-.9h-3.9v5.7h3.9c.9,0,1.6-.3,2.2-.8ZM1910.7,94.9h-19.2v-28.2h19.2v6.2h-12.2v4.7h10.4v6.2h-10.4v4.9h12.2v6.2h0ZM1934.5,86.2c0,2.8-1.1,4.9-3.1,6.5-2.1,1.6-4.6,2.3-7.7,2.3s-4.3-.3-6.1-.8c-1.7-.6-3.2-1.5-4.6-2.9l4.4-4.4c1.3,1.3,3.4,2,6.3,2s4.1-.8,4.1-2.5-.2-1.3-.6-1.7c-.4-.4-1-.7-1.9-.8l-3.4-.5c-2.5-.4-4.4-1.2-5.7-2.5-1.3-1.3-1.9-3.2-1.9-5.7s.9-4.8,2.8-6.4c1.9-1.7,4.4-2.5,7.5-2.5s7.3,1.1,9.5,3.4l-4.3,4.3c-.7-.7-1.4-1.1-2.3-1.3-.8-.2-1.8-.3-3.1-.3s-2,.3-2.5.8c-.6.5-.9,1.1-.9,1.8s.2.9.6,1.3c.5.4,1.1.7,1.9.8l3.4.5c2.5.3,4.3,1.1,5.5,2.3,1.4,1.4,2.1,3.4,2.1,6.2h0ZM1959.6,77.3c0,.8,0,1.9,0,3.4s0,2.7,0,3.4c0,.8-.1,1.7-.3,2.8-.2,1.1-.4,2-.9,2.8-.4.8-1,1.5-1.7,2.2-2.1,2.1-4.7,3.1-7.8,3.1s-5.8-1-7.8-3.1c-.7-.7-1.2-1.4-1.7-2.2-.4-.8-.7-1.7-.9-2.8-.2-1.1-.3-2-.3-2.8,0-.8,0-1.9,0-3.4s0-2.7,0-3.4.2-1.7.3-2.8c.2-1.1.4-2,.9-2.8.4-.8,1-1.5,1.7-2.2,2.1-2.1,4.7-3.1,7.8-3.1s5.8,1,7.8,3.1c.7.7,1.2,1.4,1.7,2.2.4.8.7,1.7.9,2.8.2,1.1.3,2,.3,2.8ZM1952.5,85.7c.2-.9.2-2.5.2-4.9s0-4-.2-4.9c-.2-.9-.4-1.6-.8-2.1-.6-.8-1.6-1.2-2.8-1.2s-2.2.4-2.8,1.2c-.4.5-.6,1.2-.8,2.1-.2.9-.2,2.5-.2,4.9s0,4,.2,4.9c.2.9.4,1.5.8,2,.6.8,1.5,1.3,2.8,1.3s2.1-.4,2.8-1.3c.3-.5.6-1.2.8-2ZM1985.3,85c0,3-1,5.4-3.1,7.3-2.1,1.9-4.6,2.8-7.6,2.8s-5.5-.9-7.6-2.8c-2-1.9-3.1-4.3-3.1-7.3v-18.3h6.9v18.1c0,1.3.3,2.3,1,3.1.7.7,1.6,1.1,2.7,1.1s2.1-.4,2.8-1.1c.7-.7,1-1.8,1-3.1v-18.1h6.9v18.3h0ZM2012.8,94.9h-8l-5-10.5h-2.3v10.5h-6.9v-28.2h11.2c3,0,5.3.9,7.1,2.7,1.7,1.8,2.6,3.9,2.6,6.4s-.5,3.3-1.3,4.6c-.9,1.2-2,2.2-3.2,2.8,0,0,6.1,11.8,6.1,11.8ZM2003.6,77.8c.6-.6.8-1.2.8-2s-.3-1.4-.8-2c-.6-.6-1.3-.9-2.2-.9h-3.9v5.7h3.9c.9,0,1.6-.3,2.2-.8ZM2036.4,85.9c-.5,3-1.7,5.3-3.7,6.8-1.9,1.6-4.2,2.3-7,2.3s-5.8-1-7.8-3.1c-.7-.7-1.2-1.4-1.7-2.2-.4-.8-.7-1.7-.9-2.8-.2-1.1-.3-2-.3-2.8,0-.8,0-1.9,0-3.4s0-2.7,0-3.4c0-.8.2-1.7.3-2.8.2-1.1.5-2,.9-2.8s1-1.5,1.7-2.2c2.1-2.1,4.7-3.1,7.8-3.1s5.1.8,7,2.3c1.9,1.6,3.1,3.8,3.7,6.8h-7c-.6-2-1.8-3-3.6-3s-2.1.4-2.7,1.2c-.4.5-.7,1.2-.8,2.1-.2.9-.2,2.5-.2,4.9s0,4,.2,4.9c.2.9.5,1.6.8,2.1.6.8,1.5,1.2,2.7,1.2,1.8,0,3-1,3.6-3h7ZM2059.2,94.9h-19.2v-28.2h19.2v6.2h-12.2v4.7h10.5v6.2h-10.5v4.9h12.2v6.2h0ZM1708.4,134.5h-7.2l-1.3-4.2h-8.7l-1.4,4.2h-7.2l10.2-28.2h5.3l10.2,28.2h0ZM1698,124.5l-2.4-7.5-2.5,7.5h4.9,0ZM1732.2,124.6c0,3-1,5.5-3.1,7.3-2.1,1.9-4.6,2.8-7.6,2.8s-5.5-.9-7.6-2.8c-2-1.9-3.1-4.3-3.1-7.3v-18.3h6.9v18.1c0,1.3.3,2.3,1,3.1.7.7,1.6,1.1,2.7,1.1s2.1-.4,2.8-1.1c.7-.7,1-1.8,1-3.1v-18.1h6.9v18.3h0ZM1758.2,122.2c0,2.3-.2,4.2-.6,5.6-.4,1.4-1.2,2.7-2.2,3.8-2,2.1-4.8,3.2-8.2,3.2s-5.7-1-7.8-3.1c-.7-.7-1.2-1.4-1.7-2.2-.4-.8-.7-1.7-.9-2.8-.2-1.1-.3-2-.3-2.8,0-.8,0-1.9,0-3.4s0-2.7,0-3.4c0-.8.2-1.7.3-2.8.2-1.1.4-2,.9-2.8s1-1.5,1.7-2.2c2.1-2.1,4.7-3.1,7.8-3.1s5.9.9,7.7,2.7c1.8,1.8,2.9,4,3.3,6.7h-7c-.3-1.1-.8-1.9-1.4-2.4-.6-.5-1.5-.8-2.7-.8s-2.1.4-2.7,1.2c-.4.5-.6,1.2-.8,2.1-.2.9-.2,2.5-.2,4.9s0,4,.2,4.9c.2.9.4,1.6.8,2.1.6.8,1.5,1.2,2.7,1.2s2.4-.4,3.1-1.1c.7-.7,1.1-1.7,1.1-3v-.4h-4.2v-5.8h11.1v3.9h0ZM1789.3,134.5h-6.9v-13.5l-4,7h-4.4l-4-7v13.5h-6.9v-28.2h6.8l6.3,12.4,6.3-12.4h6.8v28.2h0ZM1814.2,134.5h-19.2v-28.2h19.2v6.2h-12.2v4.7h10.4v6.2h-10.4v4.9h12.2v6.2h0ZM1841.1,134.5h-6.1l-9-14.2v14.2h-6.9v-28.2h6.1l9,14.2v-14.2h6.9v28.2h0ZM1865.9,112.5h-6.9v22h-6.9v-22h-6.9v-6.2h20.8v6.2h0ZM1890.2,134.5h-7.3l-1.3-4.2h-8.7l-1.4,4.2h-7.3l10.2-28.2h5.3l10.3,28.2h0ZM1879.8,124.5l-2.4-7.5-2.5,7.5h4.9ZM1909.4,112.5h-6.9v22h-6.9v-22h-6.9v-6.2h20.8v6.2h0ZM1920.3,134.5h-6.9v-28.2h6.9v28.2ZM1946.5,116.9c0,.8,0,1.9,0,3.4s0,2.7,0,3.4c0,.8-.1,1.7-.3,2.8-.2,1.1-.4,2-.9,2.8-.4.8-1,1.5-1.7,2.2-2.1,2.1-4.7,3.1-7.8,3.1s-5.8-1-7.8-3.1c-.7-.7-1.2-1.4-1.7-2.2-.4-.8-.7-1.7-.9-2.8-.2-1.1-.3-2-.3-2.8,0-.8,0-1.9,0-3.4s0-2.7,0-3.4c0-.8.2-1.7.3-2.8.2-1.1.4-2,.9-2.8.4-.8,1-1.5,1.7-2.2,2.1-2.1,4.7-3.1,7.8-3.1s5.8,1,7.8,3.1c.7.7,1.2,1.4,1.7,2.2.4.8.7,1.7.9,2.8.2,1.1.2,2,.3,2.8ZM1939.4,125.2c.2-.9.2-2.5.2-4.9s0-4-.2-4.9c-.2-.9-.4-1.6-.8-2.1-.6-.8-1.5-1.2-2.8-1.2s-2.1.4-2.8,1.2c-.3.5-.6,1.2-.8,2.1-.2.9-.2,2.5-.2,4.9s0,4,.2,4.9c.2.9.4,1.5.8,2,.6.8,1.6,1.3,2.8,1.3s2.2-.4,2.8-1.3c.4-.5.6-1.2.8-2ZM1973.4,134.5h-6.1l-9-14.2v14.2h-6.9v-28.2h6.1l9,14.2v-14.2h6.9v28.2h0ZM1569.3,177h-8.6v-34h8.6v3.6h-4.6v26.8h4.6v3.6ZM1591.9,148.3c1.7,1.6,2.5,3.6,2.5,6.1s-.8,4.5-2.5,6.1c-1.6,1.6-3.8,2.4-6.5,2.4h-6.4v11.1h-4.3v-28.2h10.7c2.7,0,4.9.8,6.5,2.4h0ZM1588.8,157.9c.9-.8,1.3-2,1.3-3.5s-.4-2.6-1.3-3.4c-.9-.8-2.1-1.3-3.6-1.3h-6.2v9.4h6.2c1.5,0,2.7-.4,3.6-1.2ZM1620.1,174.1h-5l-5.9-11.9h-5.3v11.9h-4.3v-28.2h10.9c2.6,0,4.8.8,6.3,2.3,1.6,1.5,2.4,3.5,2.4,5.9s-.5,3.6-1.6,4.9c-1,1.3-2.4,2.2-4,2.6l6.5,12.5h0ZM1613.7,157.4c.9-.8,1.3-1.9,1.3-3.2s-.4-2.4-1.3-3.2c-.9-.8-2-1.2-3.5-1.2h-6.3v8.8h6.3c1.4,0,2.6-.4,3.5-1.1h0ZM1643.9,152.7c.3,1.5.5,3.9.5,7.3s-.2,5.8-.5,7.3c-.3,1.5-1.1,2.9-2.4,4.2-1.9,1.9-4.3,2.9-7.3,2.9s-5.4-.9-7.3-2.9c-1.3-1.3-2.1-2.7-2.4-4.2-.3-1.5-.4-3.9-.4-7.3s.2-5.8.4-7.3c.3-1.5,1.1-2.9,2.4-4.2,1.9-1.9,4.3-2.9,7.3-2.9s5.4.9,7.3,2.9c1.3,1.3,2.1,2.7,2.4,4.2ZM1639.8,165.9c.2-1.1.3-3.1.3-6s-.1-4.8-.3-6c-.2-1.2-.7-2.1-1.3-2.8-1.1-1.2-2.5-1.7-4.2-1.7s-3.1.6-4.2,1.7c-.7.7-1.1,1.7-1.3,2.9-.2,1.1-.3,3.1-.3,5.9s.1,4.8.3,5.9c.2,1.1.7,2.1,1.3,2.8,1.1,1.2,2.5,1.8,4.2,1.8s3.1-.6,4.2-1.8c.7-.7,1.1-1.6,1.3-2.8h0ZM1668.7,149.7h-13.7v8.6h11.7v3.8h-11.7v11.9h-4.3v-28.2h18v3.8h0ZM1691.9,174.1h-18v-28.2h18v3.8h-13.7v8.2h11.7v3.8h-11.7v8.5h13.7v3.8h0ZM1715.3,166c0,2.6-.9,4.6-2.8,6.1-1.9,1.5-4.3,2.2-7.3,2.2s-4-.3-5.6-.8c-1.6-.6-3-1.5-4.3-2.9l2.8-2.8c1.8,1.8,4.2,2.7,7.2,2.7s3.3-.4,4.3-1.1c1-.8,1.5-1.9,1.5-3.2s-.4-2.3-1.1-2.9c-.7-.6-1.7-1-3.1-1.2l-3.3-.5c-2.3-.4-4.1-1.1-5.3-2.3-1.4-1.3-2.1-3.1-2.1-5.4s.8-4.5,2.5-6c1.7-1.5,4-2.3,6.9-2.3s3.5.2,4.9.8,2.7,1.3,3.9,2.4l-2.7,2.7c-1.5-1.4-3.6-2.2-6.2-2.2s-2.9.4-3.8,1.2c-.9.8-1.3,1.9-1.3,3.2s.3,2,1,2.6c.7.6,1.7,1.1,3.1,1.3l3.4.5c2.3.4,4.1,1.1,5.2,2.1,1.5,1.4,2.3,3.3,2.3,5.8h0ZM1738.5,166c0,2.6-.9,4.6-2.8,6.1-1.9,1.5-4.3,2.2-7.3,2.2s-4-.3-5.6-.8c-1.6-.6-3-1.5-4.3-2.9l2.8-2.8c1.8,1.8,4.2,2.7,7.2,2.7s3.3-.4,4.3-1.1c1-.8,1.5-1.9,1.5-3.2s-.4-2.3-1.1-2.9c-.7-.6-1.7-1-3.1-1.2l-3.3-.5c-2.3-.4-4.1-1.1-5.3-2.3-1.4-1.3-2.1-3.1-2.1-5.4s.8-4.5,2.5-6c1.7-1.5,4-2.3,6.9-2.3s3.5.2,4.9.8,2.7,1.3,3.9,2.4l-2.7,2.7c-1.5-1.4-3.6-2.2-6.2-2.2s-2.9.4-3.8,1.2c-.9.8-1.3,1.9-1.3,3.2s.3,2,1,2.6c.7.6,1.7,1.1,3.1,1.3l3.4.5c2.3.4,4.1,1.1,5.2,2.1,1.5,1.4,2.3,3.3,2.3,5.8h0ZM1748.5,174.1h-4.3v-28.2h4.3v28.2h0ZM1774.6,152.7c.3,1.5.5,3.9.5,7.3s-.2,5.8-.5,7.3c-.3,1.5-1.1,2.9-2.4,4.2-1.9,1.9-4.3,2.9-7.3,2.9s-5.4-.9-7.3-2.9c-1.3-1.3-2.1-2.7-2.4-4.2-.3-1.5-.4-3.9-.4-7.3s.2-5.8.4-7.3c.3-1.5,1.1-2.9,2.4-4.2,1.9-1.9,4.3-2.9,7.3-2.9s5.4.9,7.3,2.9c1.3,1.3,2.1,2.7,2.4,4.2ZM1770.5,165.9c.2-1.1.3-3.1.3-6s-.1-4.8-.3-6c-.2-1.2-.7-2.1-1.3-2.8-1.1-1.2-2.5-1.7-4.2-1.7s-3.1.6-4.2,1.7c-.7.7-1.1,1.7-1.3,2.9-.2,1.1-.3,3.1-.3,5.9s.1,4.8.3,5.9c.2,1.1.7,2.1,1.3,2.8,1.1,1.2,2.6,1.8,4.2,1.8s3.1-.6,4.2-1.8c.7-.7,1.1-1.6,1.3-2.8h0ZM1802.7,174.1h-3.9l-13-19.8v19.8h-4.3v-28.2h3.9l13,19.8v-19.8h4.3v28.2h0ZM1830.8,174.1h-4.6l-1.9-5.7h-11.1l-1.9,5.7h-4.6l10.3-28.2h3.4l10.3,28.2h0ZM1823.1,164.7l-4.3-12.5-4.4,12.5h8.7ZM1852.6,174.1h-17.9v-28.2h4.3v24.3h13.6v3.8h0ZM1884.6,166c0,2.6-.9,4.6-2.8,6.1-1.9,1.5-4.3,2.2-7.3,2.2s-4.1-.3-5.6-.8c-1.5-.6-3-1.5-4.3-2.9l2.8-2.8c1.8,1.8,4.2,2.7,7.3,2.7s3.2-.4,4.3-1.1c1-.8,1.5-1.9,1.5-3.2s-.4-2.3-1.1-2.9c-.7-.6-1.7-1-3.1-1.2l-3.3-.5c-2.3-.4-4.1-1.1-5.3-2.3-1.4-1.3-2.1-3.1-2.1-5.4s.8-4.5,2.5-6c1.7-1.5,4-2.3,6.9-2.3s3.5.2,4.9.8c1.4.5,2.7,1.3,3.9,2.4l-2.7,2.7c-1.5-1.4-3.6-2.2-6.2-2.2s-2.9.4-3.8,1.2c-.9.8-1.3,1.9-1.3,3.2s.3,2,1,2.6c.7.6,1.8,1.1,3.1,1.3l3.4.5c2.3.4,4.1,1.1,5.2,2.1,1.5,1.4,2.3,3.3,2.3,5.8h0ZM1908.3,174.1h-18v-28.2h18v3.8h-13.7v8.2h11.7v3.8h-11.7v8.5h13.7v3.8h0ZM1934.7,174.1h-5l-5.9-11.9h-5.3v11.9h-4.3v-28.2h10.9c2.6,0,4.8.8,6.3,2.3,1.6,1.5,2.4,3.5,2.4,5.9s-.5,3.6-1.6,4.9c-1,1.3-2.4,2.2-4.1,2.6l6.5,12.5h0ZM1928.3,157.4c.9-.8,1.3-1.9,1.3-3.2s-.4-2.4-1.3-3.2c-.9-.8-2-1.2-3.5-1.2h-6.3v8.8h6.3c1.4,0,2.6-.4,3.5-1.1h0ZM1958.4,145.9l-9.3,28.2h-3.3l-9.3-28.2h4.4l6.5,20.5,6.5-20.5h4.5ZM1966.5,174.1h-4.3v-28.2h4.3v28.2h0ZM1993.1,165.6c-.5,2.7-1.6,4.9-3.4,6.4-1.8,1.5-4,2.3-6.6,2.3s-5.4-.9-7.3-2.9c-1.3-1.3-2.1-2.7-2.4-4.2-.3-1.5-.5-4-.5-7.3s.2-5.7.5-7.2c.3-1.5,1.1-2.9,2.4-4.2,1.9-1.9,4.3-2.9,7.3-2.9s4.8.8,6.6,2.3c1.8,1.5,2.9,3.6,3.4,6.4h-4.3c-.3-1.5-1-2.7-1.9-3.6s-2.2-1.3-3.8-1.3-3.1.6-4.2,1.7c-.7.7-1.2,1.7-1.4,2.9-.2,1.1-.3,3.1-.3,5.9s0,4.8.3,6c.2,1.1.7,2.1,1.4,2.8,1.1,1.2,2.5,1.7,4.2,1.7s2.8-.4,3.8-1.3c1-.9,1.7-2.1,2-3.6h4.3,0ZM2016.8,174.1h-18v-28.2h18v3.8h-13.7v8.2h11.7v3.8h-11.7v8.5h13.7v3.8h0ZM2040.2,166c0,2.6-.9,4.6-2.8,6.1-1.9,1.5-4.3,2.2-7.3,2.2s-4.1-.3-5.6-.8c-1.5-.6-3-1.5-4.3-2.9l2.8-2.8c1.8,1.8,4.2,2.7,7.3,2.7s3.2-.4,4.3-1.1c1-.8,1.5-1.9,1.5-3.2s-.4-2.3-1.1-2.9c-.7-.6-1.7-1-3.1-1.2l-3.3-.5c-2.3-.4-4.1-1.1-5.3-2.3-1.4-1.3-2.1-3.1-2.1-5.4s.8-4.5,2.5-6c1.7-1.5,4-2.3,6.9-2.3s3.5.2,4.9.8c1.4.5,2.7,1.3,3.9,2.4l-2.7,2.7c-1.5-1.4-3.6-2.2-6.2-2.2s-2.9.4-3.8,1.2c-.9.8-1.3,1.9-1.3,3.2s.3,2,1,2.6c.7.6,1.8,1.1,3.1,1.3l3.4.5c2.3.4,4.1,1.1,5.2,2.1,1.5,1.4,2.3,3.3,2.3,5.8h0ZM2059.7,174.1h-4.3v-28.2h4.3v28.2h0ZM2088.3,174.1h-3.9l-13-19.8v19.8h-4.3v-28.2h3.9l13,19.8v-19.8h4.3v28.2h0ZM1528,187.9c1.7,1.6,2.5,3.6,2.5,6.1s-.8,4.5-2.5,6.1c-1.6,1.6-3.8,2.4-6.5,2.4h-6.4v11.1h-4.3v-28.2h10.7c2.7,0,4.9.8,6.5,2.4h0ZM1524.9,197.5c.9-.8,1.3-2,1.3-3.5s-.4-2.6-1.3-3.4c-.9-.8-2.1-1.3-3.6-1.3h-6.2v9.4h6.2c1.5,0,2.7-.4,3.6-1.2ZM1556.2,213.6h-5l-5.9-11.9h-5.3v11.9h-4.3v-28.2h10.9c2.6,0,4.8.8,6.3,2.3,1.6,1.5,2.4,3.5,2.4,5.9s-.5,3.6-1.6,4.9c-1,1.3-2.4,2.2-4,2.6l6.5,12.5h0ZM1549.8,197c.9-.8,1.3-1.9,1.3-3.2s-.4-2.4-1.3-3.2c-.9-.8-2-1.2-3.5-1.2h-6.3v8.8h6.3c1.4,0,2.6-.4,3.5-1.1h0ZM1580,192.2c.3,1.5.5,3.9.5,7.3s-.2,5.8-.5,7.3c-.3,1.5-1.1,2.9-2.4,4.2-1.9,1.9-4.3,2.9-7.3,2.9s-5.4-.9-7.3-2.9c-1.3-1.3-2.1-2.7-2.4-4.2-.3-1.5-.4-3.9-.4-7.3s.2-5.8.4-7.3c.3-1.5,1.1-2.9,2.4-4.2,1.9-1.9,4.3-2.9,7.3-2.9s5.4.9,7.3,2.9c1.3,1.3,2.1,2.7,2.4,4.2ZM1575.9,205.5c.2-1.1.3-3.1.3-6s-.1-4.8-.3-6c-.2-1.2-.7-2.1-1.3-2.8-1.1-1.2-2.5-1.7-4.2-1.7s-3.1.6-4.2,1.7c-.7.7-1.1,1.7-1.3,2.9-.2,1.1-.3,3.1-.3,5.9s.1,4.8.3,5.9.7,2.1,1.3,2.8c1.1,1.2,2.5,1.8,4.2,1.8s3.1-.6,4.2-1.8c.7-.7,1.1-1.6,1.3-2.8h0ZM1598.5,204.7c0,2.8-.9,5.1-2.7,6.7-1.8,1.6-4,2.4-6.7,2.4s-5-.9-6.8-2.7l2.8-2.8c.6.6,1.2,1,1.7,1.3.6.3,1.3.4,2.3.4,1.6,0,2.9-.5,3.8-1.4.9-1,1.3-2.4,1.3-4.2v-19h4.3v19.3h0ZM1623.5,213.6h-18v-28.2h18v3.8h-13.7v8.2h11.7v3.8h-11.7v8.5h13.7v3.8ZM1648.5,205.2c-.5,2.7-1.6,4.9-3.4,6.4-1.8,1.5-4,2.3-6.6,2.3s-5.4-.9-7.3-2.9c-1.3-1.3-2.1-2.7-2.4-4.2-.3-1.5-.5-4-.5-7.3s.2-5.7.5-7.2c.3-1.5,1.1-2.9,2.4-4.2,1.9-1.9,4.3-2.9,7.3-2.9s4.8.8,6.6,2.3c1.8,1.5,2.9,3.6,3.4,6.4h-4.3c-.3-1.5-1-2.7-1.9-3.6s-2.2-1.3-3.8-1.3-3.1.6-4.2,1.7c-.7.7-1.2,1.7-1.4,2.9-.2,1.1-.3,3.1-.3,5.9s.1,4.8.3,6c.2,1.1.7,2.1,1.4,2.8,1.1,1.2,2.5,1.7,4.2,1.7s2.8-.4,3.8-1.3c1-.9,1.7-2.1,2-3.6h4.3,0ZM1670.7,189.3h-7.8v24.3h-4.3v-24.3h-7.8v-3.8h19.8v3.8ZM1687,182.5l-11.3,34h-3.9l11.3-34h3.9ZM1707.8,187.9c1.7,1.6,2.5,3.6,2.5,6.1s-.8,4.5-2.5,6.1c-1.6,1.6-3.8,2.4-6.5,2.4h-6.4v11.1h-4.3v-28.2h10.7c2.7,0,4.9.8,6.5,2.4h0ZM1704.7,197.5c.9-.8,1.3-2,1.3-3.5s-.4-2.6-1.3-3.4c-.9-.8-2.1-1.3-3.6-1.3h-6.2v9.4h6.2c1.5,0,2.7-.4,3.6-1.2ZM1736,213.6h-5l-5.9-11.9h-5.3v11.9h-4.3v-28.2h10.9c2.6,0,4.8.8,6.3,2.3,1.6,1.5,2.4,3.5,2.4,5.9s-.5,3.6-1.6,4.9c-1,1.3-2.4,2.2-4,2.6l6.5,12.5h0ZM1729.6,197c.9-.8,1.3-1.9,1.3-3.2s-.4-2.4-1.3-3.2c-.9-.8-2-1.2-3.5-1.2h-6.3v8.8h6.3c1.4,0,2.6-.4,3.5-1.1h0ZM1759.8,192.2c.3,1.5.5,3.9.5,7.3s-.2,5.8-.5,7.3c-.3,1.5-1.1,2.9-2.4,4.2-1.9,1.9-4.3,2.9-7.3,2.9s-5.4-.9-7.3-2.9c-1.3-1.3-2.1-2.7-2.4-4.2-.3-1.5-.4-3.9-.4-7.3s.2-5.8.4-7.3c.3-1.5,1.1-2.9,2.4-4.2,1.9-1.9,4.3-2.9,7.3-2.9s5.4.9,7.3,2.9c1.3,1.3,2.1,2.7,2.4,4.2ZM1755.7,205.5c.2-1.1.3-3.1.3-6s0-4.8-.3-6c-.2-1.2-.7-2.1-1.3-2.8-1.1-1.2-2.5-1.7-4.2-1.7s-3.1.6-4.2,1.7c-.7.7-1.1,1.7-1.3,2.9-.2,1.1-.3,3.1-.3,5.9s.1,4.8.3,5.9.7,2.1,1.3,2.8c1.1,1.2,2.5,1.8,4.2,1.8s3.1-.6,4.2-1.8c.7-.7,1.1-1.6,1.3-2.8h0ZM1786.3,193.1c.3,1.6.4,3.7.4,6.4s-.1,4.9-.4,6.5c-.2,1.6-.8,2.9-1.8,4-1.9,2.4-4.6,3.6-8,3.6h-9.9v-28.2h9.9c3.4,0,6.1,1.2,8,3.6.9,1.1,1.5,2.5,1.8,4.1ZM1782.1,205c.2-1.2.3-3.1.3-5.5s0-4.2-.3-5.4c-.2-1.2-.6-2.2-1.2-2.9-1.1-1.3-2.7-1.9-4.8-1.9h-5.2v20.6h5.2c2.1,0,3.7-.6,4.8-1.9.6-.7,1-1.7,1.2-2.9ZM1812.8,204.1c0,2.9-1,5.2-2.9,7.1-1.9,1.8-4.3,2.7-7.2,2.7s-5.3-.9-7.3-2.7c-1.9-1.8-2.8-4.2-2.8-7.1v-18.7h4.3v18.5c0,1.9.5,3.4,1.6,4.5,1.1,1.1,2.5,1.6,4.2,1.6s3.2-.5,4.2-1.6c1.1-1.1,1.6-2.6,1.6-4.5v-18.5h4.3v18.7ZM1838.8,205.2c-.5,2.7-1.6,4.9-3.4,6.4-1.8,1.5-4,2.3-6.6,2.3s-5.4-.9-7.3-2.9c-1.3-1.3-2.1-2.7-2.4-4.2-.3-1.5-.5-4-.5-7.3s.2-5.7.5-7.2c.3-1.5,1.1-2.9,2.4-4.2,1.9-1.9,4.3-2.9,7.3-2.9s4.8.8,6.6,2.3c1.8,1.5,2.9,3.6,3.4,6.4h-4.3c-.3-1.5-.9-2.7-1.9-3.6-1-.9-2.2-1.3-3.8-1.3s-3.1.6-4.2,1.7c-.7.7-1.2,1.7-1.4,2.9-.2,1.1-.3,3.1-.3,5.9s.1,4.8.3,6c.2,1.1.7,2.1,1.4,2.8,1.1,1.2,2.5,1.7,4.2,1.7s2.8-.4,3.8-1.3c1-.9,1.7-2.1,2-3.6h4.3,0ZM1861.1,189.3h-7.8v24.3h-4.3v-24.3h-7.8v-3.8h19.8v3.8ZM1900.3,213.6h-4.3v-18.8l-6.5,13.7h-3.2l-6.7-13.7v18.8h-4.3v-28.2h4.3l8.2,17.5,8.1-17.5h4.3v28.2h0ZM1928.4,213.6h-4.6l-1.9-5.7h-11.1l-1.9,5.7h-4.6l10.3-28.2h3.4l10.3,28.2h0ZM1920.7,204.3l-4.3-12.5-4.4,12.5h8.7ZM1953.6,213.6h-3.9l-13-19.8v19.8h-4.3v-28.2h3.9l13,19.8v-19.8h4.3v28.2ZM1981.7,213.6h-4.6l-1.9-5.7h-11.1l-1.9,5.7h-4.6l10.3-28.2h3.4l10.3,28.2h0ZM1974,204.3l-4.3-12.5-4.4,12.5h8.7ZM2004.7,202.7c0,1.9-.2,3.4-.6,4.6-.4,1.2-1,2.3-2,3.3-2,2.1-4.6,3.2-7.7,3.2s-5.4-.9-7.3-2.9c-1.2-1.3-2-2.7-2.4-4.2-.3-1.5-.5-4-.5-7.3s.2-5.7.5-7.2c.3-1.5,1.1-2.9,2.4-4.2,1.9-1.9,4.3-2.9,7.3-2.9s5.2.8,6.9,2.4c1.8,1.6,2.9,3.7,3.3,6.2h-4.3c-.4-1.6-1.1-2.8-2.1-3.6-1-.9-2.3-1.3-3.8-1.3s-3.1.6-4.2,1.7c-.7.7-1.1,1.7-1.3,2.9-.2,1.1-.3,3.1-.3,5.9s.1,4.8.3,6c.2,1.1.7,2.1,1.3,2.8,1.1,1.2,2.5,1.7,4.2,1.7s3.5-.7,4.6-2c.9-1.1,1.4-2.5,1.4-4.4v-1.6h-6v-3.6h10.3v4.3h0ZM2029,213.6h-18v-28.2h18v3.8h-13.7v8.2h11.7v3.8h-11.7v8.5h13.7v3.8ZM2059.7,213.6h-4.3v-18.8l-6.5,13.7h-3.2l-6.6-13.7v18.8h-4.3v-28.2h4.3l8.2,17.5,8.1-17.5h4.3v28.2h0ZM2085,213.6h-18v-28.2h18v3.8h-13.7v8.2h11.7v3.8h-11.7v8.5h13.7v3.8ZM2112.1,213.6h-3.9l-13-19.8v19.8h-4.3v-28.2h3.9l13,19.8v-19.8h4.3v28.2ZM2136.8,189.3h-7.8v24.3h-4.3v-24.3h-7.7v-3.8h19.8v3.8ZM2148.3,216.6h-8.6v-3.6h4.7v-26.9h-4.7v-3.6h8.6v34Z"/>
</svg>