<?xml version="1.0" encoding="UTF-8"?>
<svg id="Layer_2" data-name="Layer 2" xmlns="http://www.w3.org/2000/svg" xmlns:xlink="http://www.w3.org/1999/xlink" viewBox="0 0 380.96 63.32">
  <defs>
    <style>
      .cls-1, .cls-2 {
        fill: none;
      }

      .cls-2 {
        stroke: #595b5d;
      }

      .cls-3 {
        fill: #cc2128;
      }

      .cls-4 {
        fill: #231f20;
      }

      .cls-5 {
        fill: #ec2027;
      }

      .cls-6 {
        fill: #fff;
      }

      .cls-7 {
        fill: #221f1f;
      }

      .cls-8 {
        fill: #374a9b;
      }

      .cls-9 {
        fill: #139a49;
      }

      .cls-10 {
        clip-path: url(#clippath);
      }
    </style>
    <clipPath id="clippath">
      <rect class="cls-1" x="291.68" width="89.27" height="30.69"/>
    </clipPath>
  </defs>
  <g id="Layer_2-2" data-name="Layer 2">
    <g>
      <g>
        <g>
          <path class="cls-4" d="M232.43,50.02v-7h1.06v7h-1.06Z"/>
          <path class="cls-4" d="M238.24,50.02v-3.04c0-.78-.44-1.11-1-1.11s-1.03.34-1.03,1.11v3.04h-1v-4.98h.98v.5c.34-.37.83-.56,1.33-.56s.93.17,1.23.45c.38.37.5.84.5,1.4v3.18h-1Z"/>
          <path class="cls-4" d="M243.64,50.02v-.53c-.37.45-.78.59-1.32.59-.5,0-.94-.17-1.22-.44-.48-.49-.56-1.29-.56-2.11s.08-1.61.56-2.1c.28-.27.71-.44,1.21-.44.53,0,.94.13,1.31.56v-2.52h1v7h-.98ZM242.59,45.87c-.91,0-1.04.77-1.04,1.65s.13,1.66,1.04,1.66,1.03-.78,1.03-1.66-.13-1.65-1.03-1.65Z"/>
          <path class="cls-4" d="M246.18,44.05v-1.06h1.06v1.06h-1.06ZM246.21,50.02v-4.98h1v4.98h-1Z"/>
          <path class="cls-4" d="M251.48,50.02v-.45c-.36.36-.71.51-1.33.51s-1.03-.15-1.34-.45c-.25-.27-.39-.65-.39-1.07,0-.83.58-1.43,1.73-1.43h1.31v-.35c0-.64-.3-.93-1.09-.93-.53,0-.81.14-1.09.49l-.65-.62c.46-.55.94-.73,1.78-.73,1.38,0,2.05.59,2.05,1.71v3.33h-.98ZM251.46,47.81h-1.15c-.61,0-.91.26-.91.72s.29.71.94.71c.35,0,.64-.04.9-.28.16-.15.22-.38.22-.74v-.4Z"/>
          <path class="cls-4" d="M253.98,44.94v-1.93h1.1v1.03l-1.1.89Z"/>
          <path class="cls-4" d="M258.25,50.07c-.82,0-1.5-.14-2.09-.72l.66-.66c.4.41.94.52,1.43.52.62,0,1.09-.22,1.09-.69,0-.34-.19-.54-.67-.59l-.8-.07c-.94-.09-1.47-.5-1.47-1.38,0-.98.84-1.52,1.88-1.52.76,0,1.39.16,1.85.56l-.63.64c-.31-.27-.76-.36-1.23-.36-.61,0-.9.26-.9.64,0,.34.2.52.69.57l.7.06c1.03.09,1.57.54,1.57,1.42,0,1.04-.88,1.58-2.07,1.58Z"/>
          <path class="cls-4" d="M264.01,50.02v-7h1.06v6.04h3.37v.95h-4.43Z"/>
          <path class="cls-4" d="M272.21,50.02v-.45c-.36.36-.71.51-1.33.51s-1.03-.15-1.34-.45c-.26-.27-.39-.65-.39-1.07,0-.83.58-1.43,1.73-1.43h1.31v-.35c0-.64-.3-.93-1.09-.93-.53,0-.81.14-1.09.49l-.65-.62c.46-.55.94-.73,1.78-.73,1.38,0,2.05.59,2.05,1.71v3.33h-.98ZM272.19,47.81h-1.15c-.61,0-.91.26-.91.72s.28.71.94.71c.35,0,.64-.04.9-.28.16-.15.22-.38.22-.74v-.4Z"/>
          <path class="cls-4" d="M277.48,46.2c-.23-.23-.4-.33-.75-.33-.54,0-.99.43-.99,1.12v3.03h-1v-4.98h.98v.54c.26-.35.77-.6,1.33-.6.48,0,.84.13,1.19.47l-.76.76Z"/>
          <path class="cls-4" d="M280.71,52.09c-.76,0-1.24-.18-1.76-.66l.64-.64c.31.29.59.44,1.08.44.85,0,1.17-.6,1.17-1.27v-.64c-.36.43-.78.57-1.29.57s-.91-.17-1.19-.44c-.48-.48-.56-1.18-.56-2.02s.08-1.54.56-2.02c.28-.27.7-.43,1.2-.43.53,0,.93.14,1.31.59v-.53h.97v4.95c0,1.22-.81,2.1-2.13,2.1ZM280.83,45.87c-.9,0-1.02.78-1.02,1.56s.12,1.56,1.02,1.56,1.01-.78,1.01-1.56-.11-1.56-1.01-1.56Z"/>
          <path class="cls-4" d="M285.17,47.81c0,.86.44,1.4,1.27,1.4.56,0,.85-.16,1.21-.51l.64.6c-.51.51-.99.78-1.87.78-1.25,0-2.24-.66-2.24-2.56,0-1.62.84-2.54,2.11-2.54s2.11.96,2.11,2.42v.42h-3.23ZM287.28,46.44c-.17-.37-.51-.63-.98-.63s-.83.26-.99.63c-.1.22-.12.37-.13.68h2.24c-.02-.3-.04-.46-.14-.68Z"/>
          <path class="cls-4" d="M291.34,50.07c-.82,0-1.5-.14-2.09-.72l.66-.66c.4.41.94.52,1.43.52.62,0,1.09-.22,1.09-.69,0-.34-.19-.54-.67-.59l-.8-.07c-.94-.09-1.47-.5-1.47-1.38,0-.98.84-1.52,1.88-1.52.76,0,1.39.16,1.85.56l-.63.64c-.31-.27-.76-.36-1.23-.36-.61,0-.9.26-.9.64,0,.34.2.52.69.57l.7.06c1.03.09,1.57.54,1.57,1.42,0,1.04-.88,1.58-2.07,1.58Z"/>
          <path class="cls-4" d="M296.11,50.02c-.93,0-1.37-.67-1.37-1.39v-2.83h-.57v-.77h.57v-1.42h1v1.42h.96v.77h-.96v2.78c0,.36.18.58.55.58h.41v.85h-.6Z"/>
          <path class="cls-4" d="M301.52,43.97v2.13h2.91v.95h-2.91v2.96h-1.06v-7h4.47v.95h-3.41Z"/>
          <path class="cls-4" d="M308.77,50.02v-.45c-.36.36-.71.51-1.33.51s-1.03-.15-1.34-.45c-.26-.27-.39-.65-.39-1.07,0-.83.58-1.43,1.73-1.43h1.31v-.35c0-.64-.3-.93-1.09-.93-.53,0-.81.14-1.09.49l-.65-.62c.46-.55.94-.73,1.78-.73,1.38,0,2.05.59,2.05,1.71v3.33h-.98ZM308.75,47.81h-1.15c-.61,0-.91.26-.91.72s.28.71.94.71c.35,0,.64-.04.9-.28.16-.15.22-.38.22-.74v-.4Z"/>
          <path class="cls-4" d="M314.81,49.63c-.28.28-.72.44-1.22.44-.53,0-.94-.14-1.32-.59v.53h-.98v-7h1v2.52c.36-.43.78-.56,1.31-.56.5,0,.93.17,1.21.44.48.49.56,1.29.56,2.1s-.08,1.62-.56,2.11ZM313.33,45.87c-.91,0-1.04.77-1.04,1.65s.13,1.66,1.04,1.66,1.03-.78,1.03-1.66-.13-1.65-1.03-1.65Z"/>
          <path class="cls-4" d="M316.84,50.02v-7h1.06v6.04h3.37v.95h-4.43Z"/>
          <path class="cls-4" d="M325.04,50.02v-.45c-.36.36-.71.51-1.33.51s-1.03-.15-1.34-.45c-.25-.27-.39-.65-.39-1.07,0-.83.58-1.43,1.73-1.43h1.31v-.35c0-.64-.3-.93-1.09-.93-.53,0-.81.14-1.09.49l-.65-.62c.46-.55.94-.73,1.78-.73,1.38,0,2.05.59,2.05,1.71v3.33h-.98ZM325.02,47.81h-1.15c-.61,0-.91.26-.91.72s.29.71.94.71c.35,0,.64-.04.9-.28.16-.15.22-.38.22-.74v-.4Z"/>
          <path class="cls-4" d="M331.08,49.63c-.28.28-.72.44-1.22.44-.53,0-.94-.14-1.32-.59v.53h-.98v-7h1v2.52c.36-.43.78-.56,1.31-.56.5,0,.93.17,1.21.44.48.49.56,1.29.56,2.1s-.08,1.62-.56,2.11ZM329.6,45.87c-.91,0-1.04.77-1.04,1.65s.13,1.66,1.04,1.66,1.03-.78,1.03-1.66-.13-1.65-1.03-1.65Z"/>
          <path class="cls-4" d="M339.76,50.02l-3.23-4.92v4.92h-1.06v-7h.97l3.23,4.91v-4.91h1.06v7h-.97Z"/>
          <path class="cls-4" d="M343.17,47.81c0,.86.44,1.4,1.27,1.4.56,0,.85-.16,1.21-.51l.64.6c-.51.51-.99.78-1.87.78-1.25,0-2.24-.66-2.24-2.56,0-1.62.84-2.54,2.11-2.54s2.11.96,2.11,2.42v.42h-3.23ZM345.28,46.44c-.17-.37-.51-.63-.98-.63s-.83.26-.99.63c-.1.22-.12.37-.13.68h2.24c-.02-.3-.04-.46-.14-.68Z"/>
          <path class="cls-4" d="M349.21,50.02c-.93,0-1.37-.67-1.37-1.39v-2.83h-.57v-.77h.57v-1.42h1v1.42h.96v.77h-.96v2.78c0,.36.18.58.55.58h.41v.85h-.6Z"/>
          <path class="cls-4" d="M355.96,50.02h-.85l-1.17-3.48-1.16,3.48h-.86l-1.54-4.98h1.06l.96,3.51,1.16-3.51h.78l1.15,3.51.96-3.51h1.07l-1.55,4.98Z"/>
          <path class="cls-4" d="M361.71,49.48c-.32.33-.82.59-1.49.59s-1.16-.26-1.48-.59c-.47-.49-.59-1.12-.59-1.97s.12-1.46.59-1.96c.32-.33.81-.59,1.48-.59s1.17.26,1.49.59c.47.49.59,1.12.59,1.96s-.12,1.47-.59,1.97ZM360.96,46.15c-.19-.19-.44-.29-.74-.29s-.54.1-.73.29c-.3.3-.34.83-.34,1.37s.04,1.06.34,1.37c.19.19.43.29.73.29s.55-.11.74-.29c.3-.3.34-.83.34-1.37s-.04-1.06-.34-1.37Z"/>
          <path class="cls-4" d="M366.4,46.2c-.23-.23-.4-.33-.75-.33-.54,0-.99.43-.99,1.12v3.03h-1v-4.98h.98v.54c.26-.35.77-.6,1.33-.6.48,0,.84.13,1.19.47l-.76.76Z"/>
          <path class="cls-4" d="M371.1,50.02l-1.4-2.3-.74.83v1.46h-1v-7h1v4.31l1.94-2.3h1.22l-1.73,1.96,1.95,3.03h-1.24Z"/>
        </g>
        <g>
          <path class="cls-5" d="M230.71,25.28h-3.94l6.45-16.61h-5.25v3.13h-3.46v-6.39h12.64v3.27l-6.45,16.61Z"/>
          <g>
            <path class="cls-4" d="M275.72,12.95v-4.08l-1.34,2.65h-.92l-1.35-2.65v4.08h-1.37v-7h1.35l1.83,3.78,1.82-3.78h1.35v7h-1.37Z"/>
            <path class="cls-4" d="M278.91,12.95v-7h1.37v7h-1.37Z"/>
            <path class="cls-4" d="M284.78,7.17v5.78h-1.37v-5.78h-1.83v-1.22h5.02v1.22h-1.83Z"/>
          </g>
          <g>
            <path class="cls-4" d="M244.19,24.73l-.41-1.24h-2.49l-.42,1.24h-1.42l2.54-7h1.07l2.55,7h-1.42ZM242.55,19.8l-.88,2.55h1.74l-.85-2.55Z"/>
            <path class="cls-4" d="M248.41,24.79c-1.02,0-2.29-.55-2.29-2.62s1.27-2.61,2.29-2.61c.71,0,1.24.22,1.69.69l-.86.86c-.27-.29-.49-.4-.83-.4-.3,0-.54.11-.73.33-.2.25-.29.59-.29,1.13s.09.89.29,1.14c.19.23.42.33.73.33.33,0,.56-.12.83-.4l.86.85c-.45.47-.98.7-1.69.7Z"/>
            <path class="cls-4" d="M252.98,24.79c-1.02,0-2.29-.55-2.29-2.62s1.27-2.61,2.29-2.61c.71,0,1.24.22,1.69.69l-.86.86c-.27-.29-.49-.4-.83-.4-.3,0-.54.11-.73.33-.2.25-.29.59-.29,1.13s.09.89.29,1.14c.19.23.42.33.73.33.33,0,.56-.12.83-.4l.86.85c-.45.47-.98.7-1.69.7Z"/>
            <path class="cls-4" d="M258.44,21.01c-.2-.2-.36-.3-.68-.3-.39,0-.83.29-.83.94v3.09h-1.28v-5.12h1.25v.49c.25-.29.74-.55,1.29-.55.5,0,.85.13,1.21.48l-.96.97Z"/>
            <path class="cls-4" d="M260.85,22.57c0,.67.39,1.14,1.12,1.14.56,0,.84-.17,1.16-.48l.78.76c-.52.53-1.02.81-1.95.81-1.21,0-2.37-.55-2.37-2.62,0-1.67.9-2.61,2.23-2.61,1.42,0,2.23,1.02,2.23,2.48v.54h-3.2ZM262.67,21.14c-.14-.3-.42-.53-.86-.53s-.72.23-.85.53c-.09.19-.11.32-.12.55h1.95c0-.23-.03-.36-.12-.55Z"/>
            <path class="cls-4" d="M268.05,24.73v-.48c-.35.39-.73.54-1.27.54-.51,0-.96-.17-1.25-.46-.49-.5-.53-1.3-.53-2.16s.04-1.65.53-2.15c.29-.29.73-.46,1.24-.46s.91.14,1.25.51v-2.33h1.28v7h-1.25ZM267.15,20.7c-.77,0-.86.64-.86,1.46s.1,1.47.86,1.47.88-.65.88-1.47-.11-1.46-.88-1.46Z"/>
            <path class="cls-4" d="M270.71,18.74v-1.04h1.31v1.04h-1.31ZM270.73,24.73v-4.97h1.28v4.97h-1.28Z"/>
            <path class="cls-4" d="M275.04,24.73c-1.04,0-1.48-.74-1.48-1.46v-2.54h-.54v-.97h.54v-1.51h1.28v1.51h.9v.97h-.9v2.46c0,.29.14.46.44.46h.46v1.08h-.7Z"/>
            <path class="cls-4" d="M277.85,22.57c0,.67.39,1.14,1.12,1.14.56,0,.83-.17,1.16-.48l.78.76c-.52.53-1.02.81-1.95.81-1.21,0-2.37-.55-2.37-2.62,0-1.67.9-2.61,2.23-2.61,1.42,0,2.23,1.02,2.23,2.48v.54h-3.2ZM279.68,21.14c-.14-.3-.42-.53-.85-.53s-.72.23-.86.53c-.09.19-.11.32-.12.55h1.95c0-.23-.03-.36-.12-.55Z"/>
            <path class="cls-4" d="M285.06,24.73v-.48c-.35.39-.73.54-1.27.54-.51,0-.96-.17-1.25-.46-.49-.5-.53-1.3-.53-2.16s.04-1.65.53-2.15c.29-.29.73-.46,1.24-.46s.91.14,1.25.51v-2.33h1.28v7h-1.25ZM284.16,20.7c-.77,0-.87.64-.87,1.46s.1,1.47.87,1.47.87-.65.87-1.47-.11-1.46-.87-1.46Z"/>
          </g>
          <g class="cls-10">
            <path class="cls-6" d="M302.14,4.63s.04-.03.06-.04c1.17-.67,2.34-1.34,3.51-2.01.05-.03.09-.01.13,0,1.66.97,3.33,1.93,4.99,2.9,1.87,1.09,3.74,2.17,5.6,3.26.04.02.07.03.12,0,.37-.21.74-.41,1.11-.61.06-.03.06-.05.03-.1-.45-.73-.96-1.41-1.53-2.04-1.52-1.67-3.34-2.9-5.44-3.71-1.35-.51-2.74-.81-4.18-.88-1.23-.07-2.45.03-3.66.29-1.37.29-2.68.77-3.9,1.46-2.09,1.16-3.77,2.76-5.05,4.78-.03.06-.03.08.03.11.36.22.72.45,1.08.68.06.04.1.03.16,0,1.06-.65,2.12-1.3,3.18-1.95.05-.03.09-.04.14,0,.07.05.15.09.22.13.58.35,1.17.69,1.75,1.04.04.03.06.05.05.1-.01.15-.02.29-.03.44,0,.21-.01.42.02.63.07.47.29.88.6,1.23.49.56,1.11.93,1.8,1.2.75.3,1.53.46,2.34.5.95.05,1.88-.07,2.76-.43.72-.3,1.35-.72,1.83-1.34.32-.41.53-.87.55-1.4.03-.64-.16-1.22-.53-1.74-.4-.56-.94-.95-1.56-1.23-.57-.26-1.17-.41-1.79-.48-.56-.06-1.11-.06-1.66,0-.38.04-.76.11-1.13.18-.04,0-.08,0-.11-.02-.49-.31-.98-.63-1.47-.94h0ZM316.88,17.48s0,.04,0,.05c0,1.38,0,2.77-.01,4.15,0,.06-.03.08-.07.11-1.62.94-3.24,1.89-4.85,2.83-1.9,1.11-3.81,2.22-5.71,3.33-.04.03-.07.05-.07.1,0,.42,0,.85,0,1.27,0,.07.02.08.08.08.3-.02.59-.03.89-.06.81-.08,1.61-.22,2.39-.45,3.05-.88,5.55-2.56,7.45-5.1,1.73-2.31,2.64-4.93,2.78-7.81.05-1.02-.02-2.03-.2-3.03-.26-1.45-.74-2.83-1.44-4.13-.03-.06-.05-.06-.11-.03-.36.2-.72.4-1.08.59-.06.03-.08.07-.08.14,0,1.3,0,2.61,0,3.91,0,.04,0,.08-.05.11-.73.38-1.45.76-2.18,1.14-.04.02-.08.02-.11,0-.13-.11-.27-.21-.4-.33-.35-.32-.78-.44-1.24-.48-.64-.05-1.24.12-1.8.42-.89.46-1.59,1.14-2.15,1.96-.72,1.05-1.17,2.2-1.27,3.47-.05.64,0,1.28.25,1.88.39.95,1.09,1.47,2.12,1.55.55.04,1.07-.08,1.57-.29.77-.33,1.41-.85,1.95-1.49.35-.41.66-.85.87-1.34.19-.43.33-.88.48-1.33.02-.06.05-.1.1-.13.38-.22.76-.44,1.14-.66.24-.14.48-.28.73-.42ZM294.69,15.63c0-2.02,0-4.05,0-6.07,0-.06-.02-.1-.07-.13-.35-.23-.7-.46-1.04-.69-.06-.04-.11-.03-.15.03-.94,1.76-1.48,3.63-1.63,5.61-.08,1.06-.03,2.12.13,3.17.19,1.21.52,2.39,1.03,3.5,1.54,3.39,4.02,5.81,7.44,7.27,1.02.44,2.09.73,3.18.9.54.08,1.09.13,1.64.16.06,0,.07-.02.07-.07,0-.42,0-.85,0-1.27,0-.07-.02-.11-.08-.14-.91-.53-1.82-1.06-2.73-1.59-.04-.02-.06-.04-.06-.1,0-1.07,0-2.15,0-3.22,0-.04.01-.06.05-.08.13-.05.26-.12.38-.19.6-.39.93-.97,1.1-1.64.19-.75.16-1.5,0-2.24-.36-1.54-1.13-2.82-2.34-3.83-.66-.55-1.4-.94-2.27-1.05-.57-.07-1.12.02-1.62.33-.63.39-.98.98-1.16,1.68-.18.74-.15,1.48,0,2.21.25,1.13.76,2.12,1.5,3.01.04.05.06.09.06.15,0,.77,0,1.53,0,2.3q0,.1-.08.05c-1.09-.62-2.18-1.25-3.27-1.87-.06-.03-.08-.07-.08-.14,0-2.02,0-4.04,0-6.05h0Z"/>
            <path class="cls-9" d="M294.69,15.63c0,2.02,0,4.04,0,6.05,0,.07.02.1.08.14,1.09.62,2.18,1.25,3.27,1.87.08.05.08.05.08-.05,0-.77,0-1.53,0-2.3,0-.06-.02-.11-.06-.15-.74-.88-1.25-1.88-1.5-3.01-.16-.74-.19-1.48,0-2.21.18-.7.52-1.29,1.16-1.68.5-.31,1.04-.4,1.62-.33.87.11,1.61.5,2.27,1.05,1.21,1.01,1.99,2.3,2.34,3.83.17.74.2,1.49,0,2.24-.17.68-.51,1.25-1.1,1.64-.12.08-.24.14-.38.2-.04.02-.05.04-.05.08,0,1.07,0,2.15,0,3.22,0,.05.02.07.06.1.91.53,1.82,1.06,2.73,1.59.06.04.09.07.08.14,0,.43,0,.85,0,1.27,0,.05,0,.08-.07.07-.55-.03-1.09-.08-1.64-.16-1.1-.17-2.16-.46-3.18-.9-3.42-1.46-5.9-3.89-7.44-7.28-.51-1.12-.84-2.29-1.03-3.51-.16-1.05-.21-2.11-.13-3.17.15-1.99.69-3.86,1.63-5.61.04-.07.08-.08.15-.03.35.23.69.46,1.04.69.05.03.07.07.07.13,0,2.02,0,4.05,0,6.07h0Z"/>
            <path class="cls-8" d="M316.88,17.48c-.25.15-.49.28-.73.42-.38.22-.76.44-1.14.66-.05.03-.08.07-.1.13-.15.45-.29.9-.48,1.33-.22.49-.53.93-.87,1.34-.54.64-1.18,1.16-1.96,1.49-.5.22-1.02.34-1.57.29-1.02-.08-1.73-.6-2.12-1.55-.24-.6-.3-1.24-.25-1.88.1-1.28.55-2.43,1.26-3.47.56-.82,1.26-1.5,2.15-1.96.56-.29,1.16-.46,1.8-.42.46.03.89.16,1.24.48.13.12.27.22.4.33.04.03.07.03.12,0,.73-.38,1.45-.76,2.18-1.14.06-.03.05-.07.05-.11,0-1.3,0-2.61,0-3.91,0-.07.02-.11.08-.14.36-.19.72-.39,1.08-.59.05-.03.08-.03.11.03.69,1.3,1.17,2.68,1.43,4.13.18,1,.25,2.01.2,3.03-.13,2.88-1.05,5.5-2.78,7.81-1.9,2.54-4.4,4.23-7.45,5.1-.78.22-1.58.37-2.39.45-.3.03-.59.04-.89.06-.06,0-.08,0-.08-.08,0-.42,0-.84,0-1.27,0-.06.02-.08.07-.1,1.9-1.11,3.81-2.22,5.71-3.33,1.62-.94,3.24-1.89,4.85-2.83.04-.03.07-.05.07-.11,0-1.38,0-2.77.01-4.15,0-.01,0-.02,0-.05Z"/>
            <path class="cls-3" d="M302.14,4.63c.5.32.99.63,1.47.95.03.02.07.03.11.02.38-.07.75-.14,1.13-.18.56-.06,1.11-.06,1.66,0,.62.07,1.22.22,1.8.48.62.28,1.16.67,1.56,1.23.37.52.55,1.1.53,1.74-.02.53-.23.99-.55,1.4-.48.62-1.11,1.05-1.83,1.34-.89.36-1.81.48-2.76.43-.81-.04-1.59-.2-2.34-.5-.68-.27-1.3-.64-1.8-1.2-.31-.36-.53-.76-.6-1.23-.03-.21-.03-.42-.02-.63,0-.15.02-.29.03-.44,0-.05,0-.07-.05-.1-.58-.34-1.17-.69-1.75-1.04-.07-.04-.15-.08-.22-.13-.05-.04-.09-.03-.14,0-1.06.65-2.12,1.3-3.18,1.95-.06.04-.1.04-.16,0-.36-.23-.72-.46-1.08-.68-.06-.03-.06-.06-.03-.11,1.28-2.02,2.96-3.62,5.05-4.78,1.23-.68,2.53-1.17,3.9-1.46,1.21-.26,2.43-.35,3.66-.29,1.44.08,2.84.37,4.18.88,2.11.81,3.93,2.04,5.44,3.71.57.63,1.08,1.32,1.53,2.04.03.05.03.07-.03.1-.37.2-.74.4-1.11.61-.05.03-.08.02-.12,0-1.87-1.09-3.74-2.17-5.6-3.26-1.66-.97-3.33-1.93-4.99-2.9-.04-.03-.08-.04-.13-.01-1.17.67-2.34,1.34-3.51,2.01-.02.01-.04.02-.06.04h0Z"/>
          </g>
          <path class="cls-7" d="M324.34,20.38v-10.07h6.9v1.7h-4.87v2.38h4.2v1.7h-4.2v4.28h-2.03Z"/>
          <g>
            <path class="cls-7" d="M341.22,20.38h-2.21l-.88-2.29h-4.02l-.83,2.29h-2.16l3.92-10.07h2.15l4.03,10.07ZM337.48,16.4l-1.39-3.74-1.36,3.74h2.75Z"/>
            <path class="cls-7" d="M342.31,10.31h4.02c.8,0,1.39.03,1.78.1s.74.21,1.05.42c.31.21.57.49.77.84s.31.74.31,1.18c0,.47-.13.9-.38,1.3-.25.39-.6.69-1.03.89.61.18,1.08.48,1.42.91.33.43.49.94.49,1.52,0,.46-.11.9-.32,1.34-.21.43-.5.78-.87,1.04-.37.26-.82.42-1.36.48-.34.04-1.16.06-2.45.07h-3.43v-10.07ZM344.34,11.99v2.33h1.33c.79,0,1.28-.01,1.48-.03.35-.04.62-.16.82-.36s.3-.46.3-.79-.09-.56-.26-.76-.43-.31-.77-.35c-.2-.02-.78-.03-1.74-.03h-1.17ZM344.34,15.99v2.69h1.88c.73,0,1.2-.02,1.39-.06.3-.06.55-.19.74-.4.19-.21.29-.5.29-.85,0-.3-.07-.56-.22-.77-.15-.21-.36-.36-.64-.46s-.88-.14-1.8-.14h-1.64Z"/>
          </g>
          <g>
            <path class="cls-7" d="M352.46,20.38v-10.07h1.33v8.88h4.96v1.19h-6.29Z"/>
            <path class="cls-7" d="M359.24,20.38l3.87-10.07h1.44l4.12,10.07h-1.52l-1.17-3.05h-4.21l-1.11,3.05h-1.42ZM362.14,16.25h3.41l-1.05-2.79c-.32-.85-.56-1.54-.71-2.09-.13.65-.31,1.29-.54,1.92l-1.11,2.95Z"/>
            <path class="cls-7" d="M369.67,20.38v-10.07h3.78c.77,0,1.39.1,1.85.31s.83.52,1.09.94.39.87.39,1.33c0,.43-.12.84-.35,1.22-.23.38-.59.69-1.06.92.61.18,1.08.48,1.4.91.33.43.49.94.49,1.52,0,.47-.1.91-.3,1.31s-.45.72-.74.94c-.29.22-.66.39-1.1.5-.44.11-.98.17-1.62.17h-3.84ZM371,14.54h2.18c.59,0,1.01-.04,1.27-.12.34-.1.59-.27.77-.5s.26-.53.26-.88c0-.33-.08-.63-.24-.88-.16-.25-.39-.43-.69-.52-.3-.09-.81-.14-1.53-.14h-2.01v3.04ZM371,19.19h2.51c.43,0,.73-.02.91-.05.31-.06.56-.15.77-.27.21-.13.38-.31.51-.56s.2-.53.2-.85c0-.38-.1-.7-.29-.98s-.46-.47-.8-.58c-.34-.11-.83-.17-1.47-.17h-2.33v3.46Z"/>
          </g>
        </g>
        <line class="cls-2" x1="223.66" y1="36.85" x2="380.41" y2="36.85"/>
      </g>
      <g>
        <g>
          <path class="cls-5" d="M15.46,50.76l-.45,3.01h1.93v3.4h-2.48l-.84,5.3h-3.82l.87-5.3h-3.24l-.84,5.3h-3.82l.84-5.3h-1.93v-3.4h2.48l.45-3.01h-1.95v-3.38h2.48l.78-4.94h3.82l-.78,4.94h3.24l.78-4.94h3.79l-.75,4.94h1.92v3.38h-2.48ZM8.43,50.76l-.47,3.01h3.24l.45-3.01h-3.21Z"/>
          <path class="cls-5" d="M26.2,62.48v-15.96l-4.05,3.52v-3.91l4.05-3.52h3.63v19.87h-3.63Z"/>
        </g>
        <g>
          <path class="cls-4" d="M38.21,46.97h-1.35v2.63h-1.37v-7h2.71c1.45,0,2.31.99,2.31,2.18s-.85,2.18-2.31,2.18ZM38.14,43.83h-1.28v1.92h1.28c.62,0,1.01-.38,1.01-.95s-.39-.96-1.01-.96Z"/>
          <path class="cls-4" d="M44.35,45.88c-.2-.2-.36-.3-.68-.3-.39,0-.83.29-.83.94v3.09h-1.28v-5.12h1.25v.49c.25-.29.74-.55,1.29-.55.5,0,.86.13,1.21.48l-.96.97Z"/>
          <path class="cls-4" d="M46.02,43.61v-1.04h1.31v1.04h-1.31ZM46.04,49.6v-4.97h1.28v4.97h-1.28Z"/>
          <path class="cls-4" d="M50.95,49.6h-1l-1.89-5.12h1.35l1.04,3.16,1.03-3.16h1.35l-1.88,5.12Z"/>
          <path class="cls-4" d="M56.15,49.6v-.44c-.34.34-.67.49-1.26.49s-1.01-.16-1.31-.45c-.28-.29-.42-.7-.42-1.15,0-.82.56-1.48,1.77-1.48h1.19v-.26c0-.56-.27-.81-.95-.81-.46,0-.71.13-.98.44l-.81-.8c.5-.55.98-.73,1.84-.73,1.44,0,2.18.61,2.18,1.81v3.37h-1.25ZM56.12,47.44h-.97c-.51,0-.76.21-.76.59,0,.35.25.58.78.58.31,0,.54-.04.76-.25.15-.13.2-.32.2-.65v-.28Z"/>
          <path class="cls-4" d="M60.37,49.6c-1.04,0-1.48-.74-1.48-1.46v-2.54h-.54v-.97h.54v-1.51h1.28v1.51h.9v.97h-.9v2.46c0,.29.14.46.44.46h.46v1.08h-.7Z"/>
          <path class="cls-4" d="M63.19,47.44c0,.67.39,1.14,1.12,1.14.56,0,.84-.17,1.16-.48l.78.76c-.52.53-1.02.81-1.95.81-1.21,0-2.37-.55-2.37-2.62,0-1.67.9-2.61,2.23-2.61,1.42,0,2.23,1.02,2.23,2.48v.54h-3.2ZM65.02,46.02c-.14-.3-.42-.53-.85-.53s-.72.23-.86.53c-.09.19-.11.32-.12.55h1.95c0-.23-.03-.36-.12-.55Z"/>
          <path class="cls-4" d="M71.87,49.66c-1.06,0-1.87-.23-2.55-.92l.88-.88c.44.44,1.04.59,1.68.59.82,0,1.25-.31,1.25-.87,0-.24-.07-.43-.22-.58-.14-.13-.27-.19-.63-.24l-.83-.13c-.62-.09-1.04-.27-1.36-.58-.33-.32-.5-.79-.5-1.38,0-1.25.92-2.12,2.44-2.12.96,0,1.66.24,2.26.82l-.87.85c-.43-.42-.97-.48-1.43-.48-.73,0-1.07.4-1.07.88,0,.19.05.36.2.5.14.13.34.23.64.27l.83.13c.64.09,1.03.26,1.34.55.37.34.54.85.54,1.47,0,1.36-1.12,2.12-2.59,2.12Z"/>
          <path class="cls-4" d="M76.65,47.44c0,.67.39,1.14,1.12,1.14.56,0,.83-.17,1.16-.48l.78.76c-.52.53-1.02.81-1.95.81-1.21,0-2.37-.55-2.37-2.62,0-1.67.9-2.61,2.23-2.61,1.42,0,2.23,1.02,2.23,2.48v.54h-3.2ZM78.48,46.02c-.14-.3-.42-.53-.86-.53s-.72.23-.86.53c-.09.19-.11.32-.12.55h1.95c0-.23-.03-.36-.12-.55Z"/>
          <path class="cls-4" d="M83.06,49.66c-1.02,0-2.29-.55-2.29-2.62s1.27-2.61,2.29-2.61c.71,0,1.24.22,1.69.69l-.86.86c-.27-.29-.49-.4-.83-.4-.3,0-.54.11-.73.33-.2.25-.29.59-.29,1.13s.09.89.29,1.14c.19.23.42.33.73.33.33,0,.56-.12.83-.4l.86.85c-.45.47-.98.7-1.69.7Z"/>
          <path class="cls-4" d="M87.34,49.6c-1.04,0-1.48-.74-1.48-1.46v-2.54h-.54v-.97h.54v-1.51h1.28v1.51h.9v.97h-.9v2.46c0,.29.14.46.44.46h.46v1.08h-.7Z"/>
          <path class="cls-4" d="M92.7,49.03c-.32.33-.83.63-1.59.63s-1.26-.29-1.58-.63c-.46-.49-.58-1.07-.58-2s.12-1.49.58-1.98c.32-.33.83-.63,1.58-.63s1.27.29,1.59.63c.46.49.58,1.06.58,1.98s-.11,1.51-.58,2ZM91.71,45.8c-.15-.15-.34-.23-.6-.23s-.44.08-.59.23c-.26.26-.29.72-.29,1.24s.03.99.29,1.25c.15.15.34.23.59.23s.45-.08.6-.23c.26-.26.29-.72.29-1.25s-.03-.98-.29-1.24Z"/>
          <path class="cls-4" d="M97.27,45.88c-.2-.2-.36-.3-.68-.3-.39,0-.83.29-.83.94v3.09h-1.28v-5.12h1.25v.49c.25-.29.74-.55,1.29-.55.5,0,.86.13,1.21.48l-.96.97Z"/>
          <path class="cls-4" d="M101.33,49.6v-7h1.37v7h-1.37Z"/>
          <path class="cls-4" d="M107.21,49.6v-3.1c0-.7-.44-.93-.85-.93s-.86.24-.86.93v3.1h-1.28v-5.12h1.25v.47c.33-.35.81-.53,1.28-.53.51,0,.92.17,1.21.45.41.41.52.89.52,1.45v3.27h-1.28Z"/>
          <path class="cls-4" d="M111.89,49.66c-1.02,0-2.29-.55-2.29-2.62s1.27-2.61,2.29-2.61c.71,0,1.24.22,1.69.69l-.87.86c-.27-.29-.49-.4-.83-.4-.3,0-.54.11-.73.33-.2.25-.29.59-.29,1.13s.09.89.29,1.14c.19.23.42.33.73.33.33,0,.56-.12.83-.4l.87.85c-.45.47-.98.7-1.69.7Z"/>
          <path class="cls-4" d="M117.52,49.6v-.47c-.33.35-.81.53-1.28.53-.51,0-.92-.17-1.21-.45-.41-.41-.52-.89-.52-1.45v-3.27h1.28v3.1c0,.7.44.93.84.93s.85-.24.85-.93v-3.1h1.28v5.12h-1.25Z"/>
          <path class="cls-4" d="M123.95,49.2c-.29.29-.74.46-1.24.46-.55,0-.92-.15-1.28-.54v.48h-1.24v-7h1.28v2.33c.32-.37.72-.51,1.24-.51s.95.17,1.24.46c.49.5.53,1.3.53,2.15s-.04,1.66-.53,2.16ZM122.34,45.58c-.77,0-.86.64-.86,1.46s.1,1.47.86,1.47.86-.65.86-1.47-.1-1.46-.86-1.46Z"/>
          <path class="cls-4" d="M128.32,49.6v-.44c-.34.34-.67.49-1.26.49s-1.01-.16-1.31-.45c-.28-.29-.42-.7-.42-1.15,0-.82.56-1.48,1.77-1.48h1.19v-.26c0-.56-.27-.81-.95-.81-.46,0-.71.13-.98.44l-.81-.8c.5-.55.98-.73,1.84-.73,1.44,0,2.18.61,2.18,1.81v3.37h-1.25ZM128.29,47.44h-.97c-.51,0-.76.21-.76.59,0,.35.25.58.78.58.31,0,.54-.04.76-.25.15-.13.2-.32.2-.65v-.28Z"/>
          <path class="cls-4" d="M132.54,49.6c-1.04,0-1.48-.74-1.48-1.46v-2.54h-.54v-.97h.54v-1.51h1.28v1.51h.9v.97h-.9v2.46c0,.29.14.46.44.46h.46v1.08h-.7Z"/>
          <path class="cls-4" d="M137.89,49.03c-.32.33-.83.63-1.59.63s-1.26-.29-1.58-.63c-.46-.49-.58-1.07-.58-2s.12-1.49.58-1.98c.32-.33.83-.63,1.58-.63s1.27.29,1.59.63c.46.49.58,1.06.58,1.98s-.11,1.51-.58,2ZM136.9,45.8c-.15-.15-.34-.23-.6-.23s-.44.08-.59.23c-.26.26-.29.72-.29,1.24s.03.99.29,1.25c.15.15.34.23.59.23s.45-.08.6-.23c.26-.26.29-.72.29-1.25s-.03-.98-.29-1.24Z"/>
          <path class="cls-4" d="M142.47,45.88c-.2-.2-.36-.3-.68-.3-.39,0-.83.29-.83.94v3.09h-1.28v-5.12h1.25v.49c.25-.29.74-.55,1.29-.55.5,0,.86.13,1.21.48l-.96.97Z"/>
          <path class="cls-4" d="M151.57,49.6h-1.05l-1.07-3.21-1.07,3.21h-1.05l-1.57-5.12h1.36l.83,3.16,1.04-3.16h.93l1.05,3.16.83-3.16h1.35l-1.56,5.12Z"/>
          <path class="cls-4" d="M153.87,43.61v-1.04h1.31v1.04h-1.31ZM153.89,49.6v-4.97h1.28v4.97h-1.28Z"/>
          <path class="cls-4" d="M158.19,49.6c-1.04,0-1.48-.74-1.48-1.46v-2.54h-.54v-.97h.54v-1.51h1.28v1.51h.9v.97h-.9v2.46c0,.29.14.46.44.46h.46v1.08h-.7Z"/>
          <path class="cls-4" d="M163.02,49.6v-3.1c0-.7-.44-.93-.85-.93s-.85.24-.85.93v3.1h-1.28v-7h1.28v2.35c.32-.35.76-.53,1.25-.53s.92.17,1.21.45c.41.41.52.89.52,1.45v3.27h-1.28Z"/>
        </g>
        <g>
          <path class="cls-4" d="M37,61.39c-1.04,0-1.48-.74-1.48-1.46v-2.54h-.54v-.97h.54v-1.51h1.28v1.51h.9v.97h-.9v2.46c0,.29.14.46.44.46h.46v1.08h-.7Z"/>
          <path class="cls-4" d="M41.83,61.39v-3.1c0-.7-.44-.93-.85-.93s-.85.24-.85.93v3.1h-1.28v-7h1.28v2.35c.32-.35.76-.53,1.25-.53s.92.17,1.21.45c.41.41.52.89.52,1.45v3.27h-1.28Z"/>
          <path class="cls-4" d="M45.49,59.23c0,.67.39,1.14,1.12,1.14.56,0,.84-.17,1.16-.48l.78.76c-.52.53-1.02.81-1.95.81-1.21,0-2.37-.55-2.37-2.62,0-1.67.9-2.61,2.23-2.61,1.42,0,2.23,1.02,2.23,2.48v.54h-3.2ZM47.31,57.8c-.14-.3-.42-.53-.85-.53s-.72.23-.85.53c-.09.19-.11.32-.12.55h1.95c-.01-.23-.03-.36-.12-.55Z"/>
          <path class="cls-4" d="M53.59,61.39c-1.05,0-1.49-.74-1.49-1.46v-5.53h1.28v5.45c0,.3.13.46.45.46h.49v1.08h-.73Z"/>
          <path class="cls-4" d="M57.96,61.39v-.44c-.34.34-.67.49-1.26.49s-1.01-.16-1.31-.45c-.28-.29-.42-.7-.42-1.15,0-.82.56-1.48,1.77-1.48h1.19v-.26c0-.56-.28-.81-.95-.81-.46,0-.71.13-.98.44l-.81-.8c.5-.55.98-.73,1.84-.73,1.44,0,2.18.61,2.18,1.81v3.37h-1.25ZM57.93,59.23h-.97c-.51,0-.76.21-.76.59,0,.35.25.58.78.58.31,0,.54-.04.76-.25.15-.13.2-.32.2-.65v-.27Z"/>
          <path class="cls-4" d="M63.36,57.66c-.2-.2-.36-.3-.68-.3-.39,0-.83.29-.83.94v3.09h-1.28v-5.12h1.25v.49c.25-.29.74-.55,1.29-.55.5,0,.86.13,1.21.48l-.96.97Z"/>
          <path class="cls-4" d="M66.52,63.32c-.79,0-1.33-.16-1.86-.67l.8-.81c.29.27.57.39,1,.39.77,0,1.03-.54,1.03-1.06v-.52c-.33.37-.72.51-1.22.51s-.93-.17-1.22-.45c-.48-.48-.52-1.14-.52-2.03s.04-1.54.52-2.02c.29-.29.73-.45,1.23-.45.54,0,.89.15,1.25.54v-.48h1.24v4.93c0,1.23-.87,2.12-2.25,2.12ZM66.65,57.36c-.76,0-.83.65-.83,1.33s.08,1.34.83,1.34.84-.66.84-1.34-.09-1.33-.84-1.33Z"/>
          <path class="cls-4" d="M71.2,59.23c0,.67.39,1.14,1.12,1.14.56,0,.83-.17,1.16-.48l.78.76c-.52.53-1.02.81-1.95.81-1.21,0-2.37-.55-2.37-2.62,0-1.67.9-2.61,2.23-2.61,1.42,0,2.23,1.02,2.23,2.48v.54h-3.2ZM73.03,57.8c-.14-.3-.42-.53-.86-.53s-.72.23-.86.53c-.09.19-.11.32-.12.55h1.95c0-.23-.03-.36-.12-.55Z"/>
          <path class="cls-4" d="M77.26,61.45c-.81,0-1.52-.09-2.18-.74l.84-.83c.41.42.97.48,1.37.48.44,0,.9-.15.9-.53,0-.26-.13-.43-.54-.47l-.82-.08c-.9-.09-1.47-.49-1.47-1.43,0-1.07.93-1.63,1.97-1.63.81,0,1.46.15,1.96.6l-.79.8c-.29-.27-.74-.34-1.19-.34-.51,0-.73.24-.73.49s.15.4.53.44l.81.08c1.01.1,1.52.63,1.52,1.5,0,1.13-.96,1.67-2.17,1.67Z"/>
          <path class="cls-4" d="M82.01,61.39c-1.04,0-1.48-.74-1.48-1.46v-2.54h-.54v-.97h.54v-1.51h1.28v1.51h.9v.97h-.9v2.46c0,.29.14.46.44.46h.46v1.08h-.7Z"/>
          <path class="cls-4" d="M89.9,60.98c-.29.29-.74.46-1.24.46s-.91-.14-1.24-.51v2.33h-1.28v-7h1.24v.48c.35-.39.73-.54,1.28-.54.5,0,.95.17,1.24.46.49.5.53,1.3.53,2.15s-.04,1.66-.53,2.16ZM88.29,57.36c-.77,0-.87.64-.87,1.46s.1,1.47.87,1.47.86-.65.86-1.47-.1-1.46-.86-1.46Z"/>
          <path class="cls-4" d="M94.62,61.39v-3.1c0-.7-.44-.93-.85-.93s-.86.24-.86.93v3.1h-1.28v-7h1.28v2.35c.33-.35.76-.53,1.25-.53s.92.17,1.21.45c.41.41.52.89.52,1.45v3.27h-1.28Z"/>
          <path class="cls-4" d="M99.14,62.21c-.11.28-.23.5-.38.66-.29.29-.68.39-1.1.39h-.5v-1.15h.29c.36,0,.51-.09.64-.46l.22-.63-1.75-4.76h1.35l1.06,3.16,1.02-3.16h1.35l-2.19,5.95Z"/>
          <path class="cls-4" d="M103.72,61.45c-.81,0-1.52-.09-2.18-.74l.83-.83c.41.42.97.48,1.37.48.44,0,.9-.15.9-.53,0-.26-.13-.43-.54-.47l-.83-.08c-.9-.09-1.47-.49-1.47-1.43,0-1.07.93-1.63,1.98-1.63.81,0,1.46.15,1.96.6l-.79.8c-.29-.27-.74-.34-1.19-.34-.51,0-.73.24-.73.49s.15.4.53.44l.81.08c1.01.1,1.52.63,1.52,1.5,0,1.13-.96,1.67-2.17,1.67Z"/>
          <path class="cls-4" d="M106.94,55.39v-1.04h1.31v1.04h-1.31ZM106.96,61.39v-4.97h1.28v4.97h-1.28Z"/>
          <path class="cls-4" d="M111.7,61.45c-1.02,0-2.29-.55-2.29-2.62s1.27-2.61,2.29-2.61c.71,0,1.24.22,1.69.69l-.87.86c-.26-.29-.49-.4-.83-.4-.3,0-.54.11-.73.33-.2.25-.29.59-.29,1.13s.09.89.29,1.14c.19.23.42.33.73.33.33,0,.56-.12.83-.4l.87.85c-.45.47-.98.7-1.69.7Z"/>
          <path class="cls-4" d="M116.96,61.39v-.44c-.34.34-.67.49-1.26.49s-1.01-.16-1.31-.45c-.28-.29-.42-.7-.42-1.15,0-.82.56-1.48,1.77-1.48h1.19v-.26c0-.56-.28-.81-.95-.81-.46,0-.71.13-.98.44l-.81-.8c.5-.55.98-.73,1.84-.73,1.44,0,2.18.61,2.18,1.81v3.37h-1.25ZM116.93,59.23h-.97c-.51,0-.76.21-.76.59,0,.35.25.58.78.58.31,0,.54-.04.76-.25.15-.13.2-.32.2-.65v-.27Z"/>
          <path class="cls-4" d="M121.02,61.39c-1.05,0-1.49-.74-1.49-1.46v-5.53h1.28v5.45c0,.3.13.46.45.46h.49v1.08h-.73Z"/>
          <path class="cls-4" d="M126.73,61.45c-.81,0-1.52-.09-2.18-.74l.83-.83c.41.42.97.48,1.37.48.44,0,.9-.15.9-.53,0-.26-.13-.43-.54-.47l-.83-.08c-.9-.09-1.47-.49-1.47-1.43,0-1.07.93-1.63,1.98-1.63.81,0,1.46.15,1.96.6l-.79.8c-.29-.27-.74-.34-1.19-.34-.51,0-.73.24-.73.49s.15.4.53.44l.81.08c1.01.1,1.52.63,1.52,1.5,0,1.13-.96,1.67-2.17,1.67Z"/>
          <path class="cls-4" d="M133.72,60.98c-.29.29-.74.46-1.24.46s-.91-.14-1.24-.51v2.33h-1.28v-7h1.24v.48c.35-.39.73-.54,1.28-.54.5,0,.95.17,1.24.46.49.5.53,1.3.53,2.15s-.04,1.66-.53,2.16ZM132.11,57.36c-.77,0-.87.64-.87,1.46s.1,1.47.87,1.47.86-.65.86-1.47-.1-1.46-.86-1.46Z"/>
          <path class="cls-4" d="M138.09,61.39v-.44c-.34.34-.67.49-1.26.49s-1.01-.16-1.31-.45c-.28-.29-.42-.7-.42-1.15,0-.82.56-1.48,1.77-1.48h1.19v-.26c0-.56-.27-.81-.95-.81-.46,0-.71.13-.98.44l-.81-.8c.5-.55.98-.73,1.84-.73,1.44,0,2.18.61,2.18,1.81v3.37h-1.25ZM138.06,59.23h-.97c-.51,0-.76.21-.76.59,0,.35.25.58.78.58.31,0,.54-.04.76-.25.15-.13.2-.32.2-.65v-.27Z"/>
          <path class="cls-4" d="M142.74,61.45c-1.02,0-2.29-.55-2.29-2.62s1.27-2.61,2.29-2.61c.71,0,1.24.22,1.69.69l-.86.86c-.27-.29-.49-.4-.83-.4-.3,0-.54.11-.73.33-.2.25-.29.59-.29,1.13s.09.89.29,1.14c.19.23.42.33.73.33.33,0,.56-.12.83-.4l.86.85c-.45.47-.98.7-1.69.7Z"/>
          <path class="cls-4" d="M146.28,59.23c0,.67.39,1.14,1.12,1.14.56,0,.84-.17,1.16-.48l.78.76c-.52.53-1.02.81-1.95.81-1.21,0-2.37-.55-2.37-2.62,0-1.67.9-2.61,2.23-2.61,1.42,0,2.23,1.02,2.23,2.48v.54h-3.2ZM148.11,57.8c-.14-.3-.42-.53-.85-.53s-.72.23-.86.53c-.09.19-.11.32-.12.55h1.95c0-.23-.03-.36-.12-.55Z"/>
        </g>
        <g>
          <path class="cls-5" d="M6.92,30.27v-15.96l-4.05,3.52v-3.91l4.05-3.52h3.63v19.87h-3.63Z"/>
          <path class="cls-5" d="M17.05,34.88v-8.57h3.99v5.5l-3.99,3.07Z"/>
          <path class="cls-5" d="M30.53,30.44c-3.52,0-6.36-2.09-6.36-5.94,0-2.43,1.4-3.74,2.48-4.47-1-.7-2.23-2.01-2.23-4.13,0-3.52,2.79-5.67,6.11-5.67s6.08,2.15,6.08,5.67c0,2.12-1.23,3.43-2.23,4.13,1.09.73,2.51,2.04,2.51,4.47,0,3.85-2.85,5.94-6.36,5.94ZM30.53,21.68c-1.54,0-2.73,1.23-2.73,2.76s1.2,2.74,2.73,2.74,2.74-1.2,2.74-2.74-1.2-2.76-2.74-2.76ZM30.53,13.5c-1.42,0-2.48,1.09-2.48,2.51s1.06,2.51,2.48,2.51,2.46-1.06,2.46-2.51-1.03-2.51-2.46-2.51Z"/>
          <path class="cls-5" d="M45.68,30.44c-3.24,0-6.06-2.12-6.06-5.92v-8.37c0-3.8,2.82-5.92,6.06-5.92s6.03,2.12,6.03,5.92v8.37c0,3.8-2.79,5.92-6.03,5.92ZM48.08,16.21c0-1.67-.95-2.71-2.4-2.71s-2.43,1.03-2.43,2.71v8.29c0,1.67.98,2.68,2.43,2.68s2.4-1,2.4-2.68v-8.29Z"/>
          <path class="cls-5" d="M55.14,34.88v-8.57h3.99v5.5l-3.99,3.07Z"/>
          <path class="cls-5" d="M68.62,30.44c-3.24,0-6.06-2.12-6.06-5.92v-8.37c0-3.8,2.82-5.92,6.06-5.92s6.03,2.12,6.03,5.92v8.37c0,3.8-2.79,5.92-6.03,5.92ZM71.02,16.21c0-1.67-.95-2.71-2.4-2.71s-2.43,1.03-2.43,2.71v8.29c0,1.67.98,2.68,2.43,2.68s2.4-1,2.4-2.68v-8.29Z"/>
          <path class="cls-5" d="M83.77,30.44c-3.24,0-6.06-2.12-6.06-5.92v-8.37c0-3.8,2.82-5.92,6.06-5.92s6.03,2.12,6.03,5.92v8.37c0,3.8-2.79,5.92-6.03,5.92ZM86.17,16.21c0-1.67-.95-2.71-2.4-2.71s-2.43,1.03-2.43,2.71v8.29c0,1.67.98,2.68,2.43,2.68s2.4-1,2.4-2.68v-8.29Z"/>
          <path class="cls-5" d="M98.92,30.44c-3.24,0-6.06-2.12-6.06-5.92v-8.37c0-3.8,2.82-5.92,6.06-5.92s6.03,2.12,6.03,5.92v8.37c0,3.8-2.79,5.92-6.03,5.92ZM101.32,16.21c0-1.67-.95-2.71-2.4-2.71s-2.43,1.03-2.43,2.71v8.29c0,1.67.98,2.68,2.43,2.68s2.4-1,2.4-2.68v-8.29Z"/>
          <path class="cls-5" d="M115.78,24.25v4.47h-3.41v-4.47h-4.49v-3.4h4.49v-4.47h3.41v4.47h4.47v3.4h-4.47Z"/>
        </g>
        <g>
          <path class="cls-4" d="M128.64,29.6c-1.06,0-1.87-.23-2.56-.92l.88-.88c.44.44,1.04.59,1.68.59.81,0,1.25-.31,1.25-.87,0-.24-.07-.43-.22-.58-.14-.13-.28-.19-.63-.24l-.83-.13c-.62-.09-1.04-.27-1.36-.58-.33-.32-.5-.79-.5-1.38,0-1.25.92-2.12,2.44-2.12.96,0,1.66.24,2.26.82l-.86.85c-.43-.42-.97-.48-1.44-.48-.73,0-1.07.4-1.07.88,0,.19.05.36.2.5.14.13.34.23.64.27l.84.13c.64.09,1.03.26,1.34.55.37.34.54.85.54,1.47,0,1.36-1.12,2.12-2.59,2.12Z"/>
          <path class="cls-4" d="M135.21,31.41v-2.33c-.33.37-.73.51-1.25.51s-.95-.17-1.24-.46c-.49-.5-.53-1.31-.53-2.16s.04-1.65.53-2.15c.29-.29.74-.46,1.25-.46.54,0,.91.15,1.27.54v-.48h1.25v7h-1.28ZM134.34,25.51c-.77,0-.86.64-.86,1.46s.1,1.47.86,1.47.87-.64.87-1.47-.11-1.46-.87-1.46Z"/>
          <path class="cls-4" d="M137.87,29.54v-1.45h1.46v1.45h-1.46Z"/>
          <path class="cls-4" d="M144.43,25.54v4h-1.28v-4h-.53v-.97h.53v-.64c0-.73.45-1.46,1.49-1.46h.73v1.08h-.5c-.3,0-.44.17-.44.46v.56h.94v.97h-.94Z"/>
          <path class="cls-4" d="M147.96,29.54c-1.04,0-1.48-.74-1.48-1.46v-2.54h-.54v-.97h.54v-1.51h1.28v1.51h.9v.97h-.9v2.46c0,.29.14.46.44.46h.46v1.08h-.7Z"/>
          <path class="cls-4" d="M149.76,29.54v-1.45h1.46v1.45h-1.46Z"/>
        </g>
        <line class="cls-2" y1="36.44" x2="164.98" y2="36.44"/>
      </g>
    </g>
  </g>
</svg>