<?xml version="1.0" encoding="UTF-8"?>
<svg id="Layer_2" data-name="Layer 2" xmlns="http://www.w3.org/2000/svg" viewBox="0 0 164.98 53.09">
  <defs>
    <style>
      .cls-1 {
        fill: none;
        stroke: #595b5d;
      }

      .cls-2 {
        fill: #231f20;
      }

      .cls-3 {
        fill: #ec2027;
      }
    </style>
  </defs>
  <g id="Layer_2-2" data-name="Layer 2">
    <g>
      <g>
        <path class="cls-3" d="M15.46,40.52l-.45,3.01h1.93v3.4h-2.48l-.84,5.3h-3.82l.87-5.3h-3.24l-.84,5.3h-3.82l.84-5.3h-1.93v-3.4h2.48l.45-3.01h-1.95v-3.38h2.48l.78-4.94h3.82l-.78,4.94h3.24l.78-4.94h3.79l-.75,4.94h1.92v3.38h-2.48ZM8.43,40.52l-.47,3.01h3.24l.45-3.01h-3.21Z"/>
        <path class="cls-3" d="M26.2,52.24v-15.96l-4.05,3.52v-3.91l4.05-3.52h3.63v19.87h-3.63Z"/>
      </g>
      <g>
        <path class="cls-2" d="M38.21,36.73h-1.35v2.63h-1.37v-7h2.71c1.45,0,2.31.99,2.31,2.18s-.85,2.18-2.31,2.18ZM38.14,33.59h-1.28v1.92h1.28c.62,0,1.01-.38,1.01-.95s-.39-.96-1.01-.96Z"/>
        <path class="cls-2" d="M44.35,35.64c-.2-.2-.36-.3-.68-.3-.39,0-.83.29-.83.94v3.09h-1.28v-5.12h1.25v.49c.25-.29.74-.55,1.29-.55.5,0,.86.13,1.21.48l-.96.97Z"/>
        <path class="cls-2" d="M46.02,33.37v-1.04h1.31v1.04h-1.31ZM46.04,39.37v-4.97h1.28v4.97h-1.28Z"/>
        <path class="cls-2" d="M50.95,39.37h-1l-1.89-5.12h1.35l1.04,3.16,1.03-3.16h1.35l-1.88,5.12Z"/>
        <path class="cls-2" d="M56.15,39.37v-.44c-.34.34-.67.49-1.26.49s-1.01-.16-1.31-.45c-.28-.29-.42-.7-.42-1.15,0-.82.56-1.48,1.77-1.48h1.19v-.26c0-.56-.27-.81-.95-.81-.46,0-.71.13-.98.44l-.81-.8c.5-.55.98-.73,1.84-.73,1.44,0,2.18.61,2.18,1.81v3.37h-1.25ZM56.12,37.21h-.97c-.51,0-.76.21-.76.59,0,.35.25.58.78.58.31,0,.54-.04.76-.25.15-.13.2-.32.2-.65v-.28Z"/>
        <path class="cls-2" d="M60.37,39.37c-1.04,0-1.48-.74-1.48-1.46v-2.54h-.54v-.97h.54v-1.51h1.28v1.51h.9v.97h-.9v2.46c0,.29.14.46.44.46h.46v1.08h-.7Z"/>
        <path class="cls-2" d="M63.19,37.21c0,.67.39,1.14,1.12,1.14.56,0,.84-.17,1.16-.48l.78.76c-.52.53-1.02.81-1.95.81-1.21,0-2.37-.55-2.37-2.62,0-1.67.9-2.61,2.23-2.61,1.42,0,2.23,1.02,2.23,2.48v.54h-3.2ZM65.02,35.78c-.14-.3-.42-.53-.85-.53s-.72.23-.86.53c-.09.19-.11.32-.12.55h1.95c0-.23-.03-.36-.12-.55Z"/>
        <path class="cls-2" d="M71.87,39.43c-1.06,0-1.87-.23-2.55-.92l.88-.88c.44.44,1.04.59,1.68.59.82,0,1.25-.31,1.25-.87,0-.24-.07-.43-.22-.58-.14-.13-.27-.19-.63-.24l-.83-.13c-.62-.09-1.04-.27-1.36-.58-.33-.32-.5-.79-.5-1.38,0-1.25.92-2.12,2.44-2.12.96,0,1.66.24,2.26.82l-.87.85c-.43-.42-.97-.48-1.43-.48-.73,0-1.07.4-1.07.88,0,.19.05.36.2.5.14.13.34.23.64.27l.83.13c.64.09,1.03.26,1.34.55.37.34.54.85.54,1.47,0,1.36-1.12,2.12-2.59,2.12Z"/>
        <path class="cls-2" d="M76.65,37.21c0,.67.39,1.14,1.12,1.14.56,0,.83-.17,1.16-.48l.78.76c-.52.53-1.02.81-1.95.81-1.21,0-2.37-.55-2.37-2.62,0-1.67.9-2.61,2.23-2.61,1.42,0,2.23,1.02,2.23,2.48v.54h-3.2ZM78.48,35.78c-.14-.3-.42-.53-.86-.53s-.72.23-.86.53c-.09.19-.11.32-.12.55h1.95c0-.23-.03-.36-.12-.55Z"/>
        <path class="cls-2" d="M83.06,39.43c-1.02,0-2.29-.55-2.29-2.62s1.27-2.61,2.29-2.61c.71,0,1.24.22,1.69.69l-.86.86c-.27-.29-.49-.4-.83-.4-.3,0-.54.11-.73.33-.2.25-.29.59-.29,1.13s.09.89.29,1.14c.19.23.42.33.73.33.33,0,.56-.12.83-.4l.86.85c-.45.47-.98.7-1.69.7Z"/>
        <path class="cls-2" d="M87.34,39.37c-1.04,0-1.48-.74-1.48-1.46v-2.54h-.54v-.97h.54v-1.51h1.28v1.51h.9v.97h-.9v2.46c0,.29.14.46.44.46h.46v1.08h-.7Z"/>
        <path class="cls-2" d="M92.7,38.8c-.32.33-.83.63-1.59.63s-1.26-.29-1.58-.63c-.46-.49-.58-1.07-.58-2s.12-1.49.58-1.98c.32-.33.83-.63,1.58-.63s1.27.29,1.59.63c.46.49.58,1.06.58,1.98s-.11,1.51-.58,2ZM91.71,35.56c-.15-.15-.34-.23-.6-.23s-.44.08-.59.23c-.26.26-.29.72-.29,1.24s.03.99.29,1.25c.15.15.34.23.59.23s.45-.08.6-.23c.26-.26.29-.72.29-1.25s-.03-.98-.29-1.24Z"/>
        <path class="cls-2" d="M97.27,35.64c-.2-.2-.36-.3-.68-.3-.39,0-.83.29-.83.94v3.09h-1.28v-5.12h1.25v.49c.25-.29.74-.55,1.29-.55.5,0,.86.13,1.21.48l-.96.97Z"/>
        <path class="cls-2" d="M101.33,39.37v-7h1.37v7h-1.37Z"/>
        <path class="cls-2" d="M107.21,39.37v-3.1c0-.7-.44-.93-.85-.93s-.86.24-.86.93v3.1h-1.28v-5.12h1.25v.47c.33-.35.81-.53,1.28-.53.51,0,.92.17,1.21.45.41.41.52.89.52,1.45v3.27h-1.28Z"/>
        <path class="cls-2" d="M111.89,39.43c-1.02,0-2.29-.55-2.29-2.62s1.27-2.61,2.29-2.61c.71,0,1.24.22,1.69.69l-.87.86c-.27-.29-.49-.4-.83-.4-.3,0-.54.11-.73.33-.2.25-.29.59-.29,1.13s.09.89.29,1.14c.19.23.42.33.73.33.33,0,.56-.12.83-.4l.87.85c-.45.47-.98.7-1.69.7Z"/>
        <path class="cls-2" d="M117.52,39.37v-.47c-.33.35-.81.53-1.28.53-.51,0-.92-.17-1.21-.45-.41-.41-.52-.89-.52-1.45v-3.27h1.28v3.1c0,.7.44.93.84.93s.85-.24.85-.93v-3.1h1.28v5.12h-1.25Z"/>
        <path class="cls-2" d="M123.95,38.96c-.29.29-.74.46-1.24.46-.55,0-.92-.15-1.28-.54v.48h-1.24v-7h1.28v2.33c.32-.37.72-.51,1.24-.51s.95.17,1.24.46c.49.5.53,1.3.53,2.15s-.04,1.66-.53,2.16ZM122.34,35.34c-.77,0-.86.64-.86,1.46s.1,1.47.86,1.47.86-.65.86-1.47-.1-1.46-.86-1.46Z"/>
        <path class="cls-2" d="M128.32,39.37v-.44c-.34.34-.67.49-1.26.49s-1.01-.16-1.31-.45c-.28-.29-.42-.7-.42-1.15,0-.82.56-1.48,1.77-1.48h1.19v-.26c0-.56-.27-.81-.95-.81-.46,0-.71.13-.98.44l-.81-.8c.5-.55.98-.73,1.84-.73,1.44,0,2.18.61,2.18,1.81v3.37h-1.25ZM128.29,37.21h-.97c-.51,0-.76.21-.76.59,0,.35.25.58.78.58.31,0,.54-.04.76-.25.15-.13.2-.32.2-.65v-.28Z"/>
        <path class="cls-2" d="M132.54,39.37c-1.04,0-1.48-.74-1.48-1.46v-2.54h-.54v-.97h.54v-1.51h1.28v1.51h.9v.97h-.9v2.46c0,.29.14.46.44.46h.46v1.08h-.7Z"/>
        <path class="cls-2" d="M137.89,38.8c-.32.33-.83.63-1.59.63s-1.26-.29-1.58-.63c-.46-.49-.58-1.07-.58-2s.12-1.49.58-1.98c.32-.33.83-.63,1.58-.63s1.27.29,1.59.63c.46.49.58,1.06.58,1.98s-.11,1.51-.58,2ZM136.9,35.56c-.15-.15-.34-.23-.6-.23s-.44.08-.59.23c-.26.26-.29.72-.29,1.24s.03.99.29,1.25c.15.15.34.23.59.23s.45-.08.6-.23c.26-.26.29-.72.29-1.25s-.03-.98-.29-1.24Z"/>
        <path class="cls-2" d="M142.47,35.64c-.2-.2-.36-.3-.68-.3-.39,0-.83.29-.83.94v3.09h-1.28v-5.12h1.25v.49c.25-.29.74-.55,1.29-.55.5,0,.86.13,1.21.48l-.96.97Z"/>
        <path class="cls-2" d="M151.57,39.37h-1.05l-1.07-3.21-1.07,3.21h-1.05l-1.57-5.12h1.36l.83,3.16,1.04-3.16h.93l1.05,3.16.83-3.16h1.35l-1.56,5.12Z"/>
        <path class="cls-2" d="M153.87,33.37v-1.04h1.31v1.04h-1.31ZM153.89,39.37v-4.97h1.28v4.97h-1.28Z"/>
        <path class="cls-2" d="M158.19,39.37c-1.04,0-1.48-.74-1.48-1.46v-2.54h-.54v-.97h.54v-1.51h1.28v1.51h.9v.97h-.9v2.46c0,.29.14.46.44.46h.46v1.08h-.7Z"/>
        <path class="cls-2" d="M163.02,39.37v-3.1c0-.7-.44-.93-.85-.93s-.85.24-.85.93v3.1h-1.28v-7h1.28v2.35c.32-.35.76-.53,1.25-.53s.92.17,1.21.45c.41.41.52.89.52,1.45v3.27h-1.28Z"/>
      </g>
      <g>
        <path class="cls-2" d="M37,51.15c-1.04,0-1.48-.74-1.48-1.46v-2.54h-.54v-.97h.54v-1.51h1.28v1.51h.9v.97h-.9v2.46c0,.29.14.46.44.46h.46v1.08h-.7Z"/>
        <path class="cls-2" d="M41.83,51.15v-3.1c0-.7-.44-.93-.85-.93s-.85.24-.85.93v3.1h-1.28v-7h1.28v2.35c.32-.35.76-.53,1.25-.53s.92.17,1.21.45c.41.41.52.89.52,1.45v3.27h-1.28Z"/>
        <path class="cls-2" d="M45.49,48.99c0,.67.39,1.14,1.12,1.14.56,0,.84-.17,1.16-.48l.78.76c-.52.53-1.02.81-1.95.81-1.21,0-2.37-.55-2.37-2.62,0-1.67.9-2.61,2.23-2.61,1.42,0,2.23,1.02,2.23,2.48v.54h-3.2ZM47.31,47.56c-.14-.3-.42-.53-.85-.53s-.72.23-.85.53c-.09.19-.11.32-.12.55h1.95c-.01-.23-.03-.36-.12-.55Z"/>
        <path class="cls-2" d="M53.59,51.15c-1.05,0-1.49-.74-1.49-1.46v-5.53h1.28v5.45c0,.3.13.46.45.46h.49v1.08h-.73Z"/>
        <path class="cls-2" d="M57.96,51.15v-.44c-.34.34-.67.49-1.26.49s-1.01-.16-1.31-.45c-.28-.29-.42-.7-.42-1.15,0-.82.56-1.48,1.77-1.48h1.19v-.26c0-.56-.28-.81-.95-.81-.46,0-.71.13-.98.44l-.81-.8c.5-.55.98-.73,1.84-.73,1.44,0,2.18.61,2.18,1.81v3.37h-1.25ZM57.93,48.99h-.97c-.51,0-.76.21-.76.59,0,.35.25.58.78.58.31,0,.54-.04.76-.25.15-.13.2-.32.2-.65v-.27Z"/>
        <path class="cls-2" d="M63.36,47.43c-.2-.2-.36-.3-.68-.3-.39,0-.83.29-.83.94v3.09h-1.28v-5.12h1.25v.49c.25-.29.74-.55,1.29-.55.5,0,.86.13,1.21.48l-.96.97Z"/>
        <path class="cls-2" d="M66.52,53.09c-.79,0-1.33-.16-1.86-.67l.8-.81c.29.27.57.39,1,.39.77,0,1.03-.54,1.03-1.06v-.52c-.33.37-.72.51-1.22.51s-.93-.17-1.22-.45c-.48-.48-.52-1.14-.52-2.03s.04-1.54.52-2.02c.29-.29.73-.45,1.23-.45.54,0,.89.15,1.25.54v-.48h1.24v4.93c0,1.23-.87,2.12-2.25,2.12ZM66.65,47.12c-.76,0-.83.65-.83,1.33s.08,1.34.83,1.34.84-.66.84-1.34-.09-1.33-.84-1.33Z"/>
        <path class="cls-2" d="M71.2,48.99c0,.67.39,1.14,1.12,1.14.56,0,.83-.17,1.16-.48l.78.76c-.52.53-1.02.81-1.95.81-1.21,0-2.37-.55-2.37-2.62,0-1.67.9-2.61,2.23-2.61,1.42,0,2.23,1.02,2.23,2.48v.54h-3.2ZM73.03,47.56c-.14-.3-.42-.53-.86-.53s-.72.23-.86.53c-.09.19-.11.32-.12.55h1.95c0-.23-.03-.36-.12-.55Z"/>
        <path class="cls-2" d="M77.26,51.21c-.81,0-1.52-.09-2.18-.74l.84-.83c.41.42.97.48,1.37.48.44,0,.9-.15.9-.53,0-.26-.13-.43-.54-.47l-.82-.08c-.9-.09-1.47-.49-1.47-1.43,0-1.07.93-1.63,1.97-1.63.81,0,1.46.15,1.96.6l-.79.8c-.29-.27-.74-.34-1.19-.34-.51,0-.73.24-.73.49s.15.4.53.44l.81.08c1.01.1,1.52.63,1.52,1.5,0,1.13-.96,1.67-2.17,1.67Z"/>
        <path class="cls-2" d="M82.01,51.15c-1.04,0-1.48-.74-1.48-1.46v-2.54h-.54v-.97h.54v-1.51h1.28v1.51h.9v.97h-.9v2.46c0,.29.14.46.44.46h.46v1.08h-.7Z"/>
        <path class="cls-2" d="M89.9,50.75c-.29.29-.74.46-1.24.46s-.91-.14-1.24-.51v2.33h-1.28v-7h1.24v.48c.35-.39.73-.54,1.28-.54.5,0,.95.17,1.24.46.49.5.53,1.3.53,2.15s-.04,1.66-.53,2.16ZM88.29,47.12c-.77,0-.87.64-.87,1.46s.1,1.47.87,1.47.86-.65.86-1.47-.1-1.46-.86-1.46Z"/>
        <path class="cls-2" d="M94.62,51.15v-3.1c0-.7-.44-.93-.85-.93s-.86.24-.86.93v3.1h-1.28v-7h1.28v2.35c.33-.35.76-.53,1.25-.53s.92.17,1.21.45c.41.41.52.89.52,1.45v3.27h-1.28Z"/>
        <path class="cls-2" d="M99.14,51.98c-.11.28-.23.5-.38.66-.29.29-.68.39-1.1.39h-.5v-1.15h.29c.36,0,.51-.09.64-.46l.22-.63-1.75-4.76h1.35l1.06,3.16,1.02-3.16h1.35l-2.19,5.95Z"/>
        <path class="cls-2" d="M103.72,51.21c-.81,0-1.52-.09-2.18-.74l.83-.83c.41.42.97.48,1.37.48.44,0,.9-.15.9-.53,0-.26-.13-.43-.54-.47l-.83-.08c-.9-.09-1.47-.49-1.47-1.43,0-1.07.93-1.63,1.98-1.63.81,0,1.46.15,1.96.6l-.79.8c-.29-.27-.74-.34-1.19-.34-.51,0-.73.24-.73.49s.15.4.53.44l.81.08c1.01.1,1.52.63,1.52,1.5,0,1.13-.96,1.67-2.17,1.67Z"/>
        <path class="cls-2" d="M106.94,45.16v-1.04h1.31v1.04h-1.31ZM106.96,51.15v-4.97h1.28v4.97h-1.28Z"/>
        <path class="cls-2" d="M111.7,51.21c-1.02,0-2.29-.55-2.29-2.62s1.27-2.61,2.29-2.61c.71,0,1.24.22,1.69.69l-.87.86c-.26-.29-.49-.4-.83-.4-.3,0-.54.11-.73.33-.2.25-.29.59-.29,1.13s.09.89.29,1.14c.19.23.42.33.73.33.33,0,.56-.12.83-.4l.87.85c-.45.47-.98.7-1.69.7Z"/>
        <path class="cls-2" d="M116.96,51.15v-.44c-.34.34-.67.49-1.26.49s-1.01-.16-1.31-.45c-.28-.29-.42-.7-.42-1.15,0-.82.56-1.48,1.77-1.48h1.19v-.26c0-.56-.28-.81-.95-.81-.46,0-.71.13-.98.44l-.81-.8c.5-.55.98-.73,1.84-.73,1.44,0,2.18.61,2.18,1.81v3.37h-1.25ZM116.93,48.99h-.97c-.51,0-.76.21-.76.59,0,.35.25.58.78.58.31,0,.54-.04.76-.25.15-.13.2-.32.2-.65v-.27Z"/>
        <path class="cls-2" d="M121.02,51.15c-1.05,0-1.49-.74-1.49-1.46v-5.53h1.28v5.45c0,.3.13.46.45.46h.49v1.08h-.73Z"/>
        <path class="cls-2" d="M126.73,51.21c-.81,0-1.52-.09-2.18-.74l.83-.83c.41.42.97.48,1.37.48.44,0,.9-.15.9-.53,0-.26-.13-.43-.54-.47l-.83-.08c-.9-.09-1.47-.49-1.47-1.43,0-1.07.93-1.63,1.98-1.63.81,0,1.46.15,1.96.6l-.79.8c-.29-.27-.74-.34-1.19-.34-.51,0-.73.24-.73.49s.15.4.53.44l.81.08c1.01.1,1.52.63,1.52,1.5,0,1.13-.96,1.67-2.17,1.67Z"/>
        <path class="cls-2" d="M133.72,50.75c-.29.29-.74.46-1.24.46s-.91-.14-1.24-.51v2.33h-1.28v-7h1.24v.48c.35-.39.73-.54,1.28-.54.5,0,.95.17,1.24.46.49.5.53,1.3.53,2.15s-.04,1.66-.53,2.16ZM132.11,47.12c-.77,0-.87.64-.87,1.46s.1,1.47.87,1.47.86-.65.86-1.47-.1-1.46-.86-1.46Z"/>
        <path class="cls-2" d="M138.09,51.15v-.44c-.34.34-.67.49-1.26.49s-1.01-.16-1.31-.45c-.28-.29-.42-.7-.42-1.15,0-.82.56-1.48,1.77-1.48h1.19v-.26c0-.56-.27-.81-.95-.81-.46,0-.71.13-.98.44l-.81-.8c.5-.55.98-.73,1.84-.73,1.44,0,2.18.61,2.18,1.81v3.37h-1.25ZM138.06,48.99h-.97c-.51,0-.76.21-.76.59,0,.35.25.58.78.58.31,0,.54-.04.76-.25.15-.13.2-.32.2-.65v-.27Z"/>
        <path class="cls-2" d="M142.74,51.21c-1.02,0-2.29-.55-2.29-2.62s1.27-2.61,2.29-2.61c.71,0,1.24.22,1.69.69l-.86.86c-.27-.29-.49-.4-.83-.4-.3,0-.54.11-.73.33-.2.25-.29.59-.29,1.13s.09.89.29,1.14c.19.23.42.33.73.33.33,0,.56-.12.83-.4l.86.85c-.45.47-.98.7-1.69.7Z"/>
        <path class="cls-2" d="M146.28,48.99c0,.67.39,1.14,1.12,1.14.56,0,.84-.17,1.16-.48l.78.76c-.52.53-1.02.81-1.95.81-1.21,0-2.37-.55-2.37-2.62,0-1.67.9-2.61,2.23-2.61,1.42,0,2.23,1.02,2.23,2.48v.54h-3.2ZM148.11,47.56c-.14-.3-.42-.53-.85-.53s-.72.23-.86.53c-.09.19-.11.32-.12.55h1.95c0-.23-.03-.36-.12-.55Z"/>
      </g>
      <g>
        <path class="cls-3" d="M6.92,20.04V4.07l-4.05,3.52v-3.91L6.92.17h3.63v19.87h-3.63Z"/>
        <path class="cls-3" d="M17.05,24.64v-8.57h3.99v5.5l-3.99,3.07Z"/>
        <path class="cls-3" d="M30.53,20.21c-3.52,0-6.36-2.09-6.36-5.94,0-2.43,1.4-3.74,2.48-4.47-1-.7-2.23-2.01-2.23-4.13,0-3.52,2.79-5.67,6.11-5.67s6.08,2.15,6.08,5.67c0,2.12-1.23,3.43-2.23,4.13,1.09.73,2.51,2.04,2.51,4.47,0,3.85-2.85,5.94-6.36,5.94ZM30.53,11.44c-1.54,0-2.73,1.23-2.73,2.76s1.2,2.74,2.73,2.74,2.74-1.2,2.74-2.74-1.2-2.76-2.74-2.76ZM30.53,3.27c-1.42,0-2.48,1.09-2.48,2.51s1.06,2.51,2.48,2.51,2.46-1.06,2.46-2.51-1.03-2.51-2.46-2.51Z"/>
        <path class="cls-3" d="M45.68,20.21c-3.24,0-6.06-2.12-6.06-5.92V5.92c0-3.8,2.82-5.92,6.06-5.92s6.03,2.12,6.03,5.92v8.37c0,3.8-2.79,5.92-6.03,5.92ZM48.08,5.97c0-1.67-.95-2.71-2.4-2.71s-2.43,1.03-2.43,2.71v8.29c0,1.67.98,2.68,2.43,2.68s2.4-1,2.4-2.68V5.97Z"/>
        <path class="cls-3" d="M55.14,24.64v-8.57h3.99v5.5l-3.99,3.07Z"/>
        <path class="cls-3" d="M68.62,20.21c-3.24,0-6.06-2.12-6.06-5.92V5.92c0-3.8,2.82-5.92,6.06-5.92s6.03,2.12,6.03,5.92v8.37c0,3.8-2.79,5.92-6.03,5.92ZM71.02,5.97c0-1.67-.95-2.71-2.4-2.71s-2.43,1.03-2.43,2.71v8.29c0,1.67.98,2.68,2.43,2.68s2.4-1,2.4-2.68V5.97Z"/>
        <path class="cls-3" d="M83.77,20.21c-3.24,0-6.06-2.12-6.06-5.92V5.92c0-3.8,2.82-5.92,6.06-5.92s6.03,2.12,6.03,5.92v8.37c0,3.8-2.79,5.92-6.03,5.92ZM86.17,5.97c0-1.67-.95-2.71-2.4-2.71s-2.43,1.03-2.43,2.71v8.29c0,1.67.98,2.68,2.43,2.68s2.4-1,2.4-2.68V5.97Z"/>
        <path class="cls-3" d="M98.92,20.21c-3.24,0-6.06-2.12-6.06-5.92V5.92c0-3.8,2.82-5.92,6.06-5.92s6.03,2.12,6.03,5.92v8.37c0,3.8-2.79,5.92-6.03,5.92ZM101.32,5.97c0-1.67-.95-2.71-2.4-2.71s-2.43,1.03-2.43,2.71v8.29c0,1.67.98,2.68,2.43,2.68s2.4-1,2.4-2.68V5.97Z"/>
        <path class="cls-3" d="M115.78,14.01v4.47h-3.41v-4.47h-4.49v-3.4h4.49v-4.47h3.41v4.47h4.47v3.4h-4.47Z"/>
      </g>
      <g>
        <path class="cls-2" d="M128.64,19.36c-1.06,0-1.87-.23-2.56-.92l.88-.88c.44.44,1.04.59,1.68.59.81,0,1.25-.31,1.25-.87,0-.24-.07-.43-.22-.58-.14-.13-.28-.19-.63-.24l-.83-.13c-.62-.09-1.04-.27-1.36-.58-.33-.32-.5-.79-.5-1.38,0-1.25.92-2.12,2.44-2.12.96,0,1.66.24,2.26.82l-.86.85c-.43-.42-.97-.48-1.44-.48-.73,0-1.07.4-1.07.88,0,.19.05.36.2.5.14.13.34.23.64.27l.84.13c.64.09,1.03.26,1.34.55.37.34.54.85.54,1.47,0,1.36-1.12,2.12-2.59,2.12Z"/>
        <path class="cls-2" d="M135.21,21.18v-2.33c-.33.37-.73.51-1.25.51s-.95-.17-1.24-.46c-.49-.5-.53-1.31-.53-2.16s.04-1.65.53-2.15c.29-.29.74-.46,1.25-.46.54,0,.91.15,1.27.54v-.48h1.25v7h-1.28ZM134.34,15.27c-.77,0-.86.64-.86,1.46s.1,1.47.86,1.47.87-.64.87-1.47-.11-1.46-.87-1.46Z"/>
        <path class="cls-2" d="M137.87,19.3v-1.45h1.46v1.45h-1.46Z"/>
        <path class="cls-2" d="M144.43,15.3v4h-1.28v-4h-.53v-.97h.53v-.64c0-.73.45-1.46,1.49-1.46h.73v1.08h-.5c-.3,0-.44.17-.44.46v.56h.94v.97h-.94Z"/>
        <path class="cls-2" d="M147.96,19.3c-1.04,0-1.48-.74-1.48-1.46v-2.54h-.54v-.97h.54v-1.51h1.28v1.51h.9v.97h-.9v2.46c0,.29.14.46.44.46h.46v1.08h-.7Z"/>
        <path class="cls-2" d="M149.76,19.3v-1.45h1.46v1.45h-1.46Z"/>
      </g>
      <line class="cls-1" y1="26.21" x2="164.98" y2="26.21"/>
    </g>
  </g>
</svg>