<?xml version="1.0" encoding="UTF-8"?>
<svg id="Layer_2" data-name="Layer 2" xmlns="http://www.w3.org/2000/svg" xmlns:xlink="http://www.w3.org/1999/xlink" viewBox="0 0 157.3 52.09">
  <defs>
    <style>
      .cls-1, .cls-2 {
        fill: none;
      }

      .cls-2 {
        stroke: #595b5d;
      }

      .cls-3 {
        fill: #cc2128;
      }

      .cls-4 {
        fill: #231f20;
      }

      .cls-5 {
        fill: #ec2027;
      }

      .cls-6 {
        fill: #fff;
      }

      .cls-7 {
        fill: #221f1f;
      }

      .cls-8 {
        fill: #374a9b;
      }

      .cls-9 {
        fill: #139a49;
      }

      .cls-10 {
        clip-path: url(#clippath);
      }
    </style>
    <clipPath id="clippath">
      <rect class="cls-1" x="68.03" width="89.27" height="30.69"/>
    </clipPath>
  </defs>
  <g id="Layer_2-2" data-name="Layer 2">
    <g>
      <g>
        <path class="cls-4" d="M8.78,50.02v-7h1.06v7h-1.06Z"/>
        <path class="cls-4" d="M14.58,50.02v-3.04c0-.78-.44-1.11-1-1.11s-1.03.34-1.03,1.11v3.04h-1v-4.98h.98v.5c.34-.37.83-.56,1.33-.56s.93.17,1.23.45c.38.37.5.84.5,1.4v3.18h-1Z"/>
        <path class="cls-4" d="M19.98,50.02v-.53c-.37.45-.78.59-1.32.59-.5,0-.94-.17-1.22-.44-.48-.49-.56-1.29-.56-2.11s.08-1.61.56-2.1c.28-.27.71-.44,1.21-.44.53,0,.94.13,1.31.56v-2.52h1v7h-.98ZM18.93,45.87c-.91,0-1.04.77-1.04,1.65s.13,1.66,1.04,1.66,1.03-.78,1.03-1.66-.13-1.65-1.03-1.65Z"/>
        <path class="cls-4" d="M22.52,44.05v-1.06h1.06v1.06h-1.06ZM22.55,50.02v-4.98h1v4.98h-1Z"/>
        <path class="cls-4" d="M27.83,50.02v-.45c-.36.36-.71.51-1.33.51s-1.03-.15-1.34-.45c-.25-.27-.39-.65-.39-1.07,0-.83.58-1.43,1.73-1.43h1.31v-.35c0-.64-.3-.93-1.09-.93-.53,0-.81.14-1.09.49l-.65-.62c.46-.55.94-.73,1.78-.73,1.38,0,2.05.59,2.05,1.71v3.33h-.98ZM27.81,47.81h-1.15c-.61,0-.91.26-.91.72s.29.71.94.71c.35,0,.64-.04.9-.28.16-.15.22-.38.22-.74v-.4Z"/>
        <path class="cls-4" d="M30.32,44.94v-1.93h1.1v1.03l-1.1.89Z"/>
        <path class="cls-4" d="M34.59,50.07c-.82,0-1.5-.14-2.09-.72l.66-.66c.4.41.94.52,1.43.52.62,0,1.09-.22,1.09-.69,0-.34-.19-.54-.67-.59l-.8-.07c-.94-.09-1.47-.5-1.47-1.38,0-.98.84-1.52,1.88-1.52.76,0,1.39.16,1.85.56l-.63.64c-.31-.27-.76-.36-1.23-.36-.61,0-.9.26-.9.64,0,.34.2.52.69.57l.7.06c1.03.09,1.57.54,1.57,1.42,0,1.04-.88,1.58-2.07,1.58Z"/>
        <path class="cls-4" d="M40.35,50.02v-7h1.06v6.04h3.37v.95h-4.43Z"/>
        <path class="cls-4" d="M48.56,50.02v-.45c-.36.36-.71.51-1.33.51s-1.03-.15-1.34-.45c-.26-.27-.39-.65-.39-1.07,0-.83.58-1.43,1.73-1.43h1.31v-.35c0-.64-.3-.93-1.09-.93-.53,0-.81.14-1.09.49l-.65-.62c.46-.55.94-.73,1.78-.73,1.38,0,2.05.59,2.05,1.71v3.33h-.98ZM48.54,47.81h-1.15c-.61,0-.91.26-.91.72s.28.71.94.71c.35,0,.64-.04.9-.28.16-.15.22-.38.22-.74v-.4Z"/>
        <path class="cls-4" d="M53.82,46.2c-.23-.23-.4-.33-.75-.33-.54,0-.99.43-.99,1.12v3.03h-1v-4.98h.98v.54c.26-.35.77-.6,1.33-.6.48,0,.84.13,1.19.47l-.76.76Z"/>
        <path class="cls-4" d="M57.06,52.09c-.76,0-1.24-.18-1.76-.66l.64-.64c.31.29.59.44,1.08.44.85,0,1.17-.6,1.17-1.27v-.64c-.36.43-.78.57-1.29.57s-.91-.17-1.19-.44c-.48-.48-.56-1.18-.56-2.02s.08-1.54.56-2.02c.28-.27.7-.43,1.2-.43.53,0,.93.14,1.31.59v-.53h.97v4.95c0,1.22-.81,2.1-2.13,2.1ZM57.18,45.87c-.9,0-1.02.78-1.02,1.56s.12,1.56,1.02,1.56,1.01-.78,1.01-1.56-.11-1.56-1.01-1.56Z"/>
        <path class="cls-4" d="M61.52,47.81c0,.86.44,1.4,1.27,1.4.56,0,.85-.16,1.21-.51l.64.6c-.51.51-.99.78-1.87.78-1.25,0-2.24-.66-2.24-2.56,0-1.62.84-2.54,2.11-2.54s2.11.96,2.11,2.42v.42h-3.23ZM63.62,46.44c-.17-.37-.51-.63-.98-.63s-.83.26-.99.63c-.1.22-.12.37-.13.68h2.24c-.02-.3-.04-.46-.14-.68Z"/>
        <path class="cls-4" d="M67.68,50.07c-.82,0-1.5-.14-2.09-.72l.66-.66c.4.41.94.52,1.43.52.62,0,1.09-.22,1.09-.69,0-.34-.19-.54-.67-.59l-.8-.07c-.94-.09-1.47-.5-1.47-1.38,0-.98.84-1.52,1.88-1.52.76,0,1.39.16,1.85.56l-.63.64c-.31-.27-.76-.36-1.23-.36-.61,0-.9.26-.9.64,0,.34.2.52.69.57l.7.06c1.03.09,1.57.54,1.57,1.42,0,1.04-.88,1.58-2.07,1.58Z"/>
        <path class="cls-4" d="M72.45,50.02c-.93,0-1.37-.67-1.37-1.39v-2.83h-.57v-.77h.57v-1.42h1v1.42h.96v.77h-.96v2.78c0,.36.18.58.55.58h.41v.85h-.6Z"/>
        <path class="cls-4" d="M77.86,43.97v2.13h2.91v.95h-2.91v2.96h-1.06v-7h4.47v.95h-3.41Z"/>
        <path class="cls-4" d="M85.11,50.02v-.45c-.36.36-.71.51-1.33.51s-1.03-.15-1.34-.45c-.26-.27-.39-.65-.39-1.07,0-.83.58-1.43,1.73-1.43h1.31v-.35c0-.64-.3-.93-1.09-.93-.53,0-.81.14-1.09.49l-.65-.62c.46-.55.94-.73,1.78-.73,1.38,0,2.05.59,2.05,1.71v3.33h-.98ZM85.09,47.81h-1.15c-.61,0-.91.26-.91.72s.28.71.94.71c.35,0,.64-.04.9-.28.16-.15.22-.38.22-.74v-.4Z"/>
        <path class="cls-4" d="M91.15,49.63c-.28.28-.72.44-1.22.44-.53,0-.94-.14-1.32-.59v.53h-.98v-7h1v2.52c.36-.43.78-.56,1.31-.56.5,0,.93.17,1.21.44.48.49.56,1.29.56,2.1s-.08,1.62-.56,2.11ZM89.68,45.87c-.91,0-1.04.77-1.04,1.65s.13,1.66,1.04,1.66,1.03-.78,1.03-1.66-.13-1.65-1.03-1.65Z"/>
        <path class="cls-4" d="M93.18,50.02v-7h1.06v6.04h3.37v.95h-4.43Z"/>
        <path class="cls-4" d="M101.38,50.02v-.45c-.36.36-.71.51-1.33.51s-1.03-.15-1.34-.45c-.25-.27-.39-.65-.39-1.07,0-.83.58-1.43,1.73-1.43h1.31v-.35c0-.64-.3-.93-1.09-.93-.53,0-.81.14-1.09.49l-.65-.62c.46-.55.94-.73,1.78-.73,1.38,0,2.05.59,2.05,1.71v3.33h-.98ZM101.36,47.81h-1.15c-.61,0-.91.26-.91.72s.29.71.94.71c.35,0,.64-.04.9-.28.16-.15.22-.38.22-.74v-.4Z"/>
        <path class="cls-4" d="M107.42,49.63c-.28.28-.72.44-1.22.44-.53,0-.94-.14-1.32-.59v.53h-.98v-7h1v2.52c.36-.43.78-.56,1.31-.56.5,0,.93.17,1.21.44.48.49.56,1.29.56,2.1s-.08,1.62-.56,2.11ZM105.95,45.87c-.91,0-1.04.77-1.04,1.65s.13,1.66,1.04,1.66,1.03-.78,1.03-1.66-.13-1.65-1.03-1.65Z"/>
        <path class="cls-4" d="M116.1,50.02l-3.23-4.92v4.92h-1.06v-7h.97l3.23,4.91v-4.91h1.06v7h-.97Z"/>
        <path class="cls-4" d="M119.52,47.81c0,.86.44,1.4,1.27,1.4.56,0,.85-.16,1.21-.51l.64.6c-.51.51-.99.78-1.87.78-1.25,0-2.24-.66-2.24-2.56,0-1.62.84-2.54,2.11-2.54s2.11.96,2.11,2.42v.42h-3.23ZM121.62,46.44c-.17-.37-.51-.63-.98-.63s-.83.26-.99.63c-.1.22-.12.37-.13.68h2.24c-.02-.3-.04-.46-.14-.68Z"/>
        <path class="cls-4" d="M125.55,50.02c-.93,0-1.37-.67-1.37-1.39v-2.83h-.57v-.77h.57v-1.42h1v1.42h.96v.77h-.96v2.78c0,.36.18.58.55.58h.41v.85h-.6Z"/>
        <path class="cls-4" d="M132.3,50.02h-.85l-1.17-3.48-1.16,3.48h-.86l-1.54-4.98h1.06l.96,3.51,1.16-3.51h.78l1.15,3.51.96-3.51h1.07l-1.55,4.98Z"/>
        <path class="cls-4" d="M138.06,49.48c-.32.33-.82.59-1.49.59s-1.16-.26-1.48-.59c-.47-.49-.59-1.12-.59-1.97s.12-1.46.59-1.96c.32-.33.81-.59,1.48-.59s1.17.26,1.49.59c.47.49.59,1.12.59,1.96s-.12,1.47-.59,1.97ZM137.3,46.15c-.19-.19-.44-.29-.74-.29s-.54.1-.73.29c-.3.3-.34.83-.34,1.37s.04,1.06.34,1.37c.19.19.43.29.73.29s.55-.11.74-.29c.3-.3.34-.83.34-1.37s-.04-1.06-.34-1.37Z"/>
        <path class="cls-4" d="M142.74,46.2c-.23-.23-.4-.33-.75-.33-.54,0-.99.43-.99,1.12v3.03h-1v-4.98h.98v.54c.26-.35.77-.6,1.33-.6.48,0,.84.13,1.19.47l-.76.76Z"/>
        <path class="cls-4" d="M147.44,50.02l-1.4-2.3-.74.83v1.46h-1v-7h1v4.31l1.94-2.3h1.22l-1.73,1.96,1.95,3.03h-1.24Z"/>
      </g>
      <g>
        <path class="cls-5" d="M7.05,25.28h-3.94l6.45-16.61h-5.25v3.13H.85v-6.39h12.64v3.27l-6.45,16.61Z"/>
        <g>
          <path class="cls-4" d="M52.07,12.95v-4.08l-1.34,2.65h-.92l-1.35-2.65v4.08h-1.37v-7h1.35l1.83,3.78,1.82-3.78h1.35v7h-1.37Z"/>
          <path class="cls-4" d="M55.26,12.95v-7h1.37v7h-1.37Z"/>
          <path class="cls-4" d="M61.12,7.17v5.78h-1.37v-5.78h-1.83v-1.22h5.02v1.22h-1.83Z"/>
        </g>
        <g>
          <path class="cls-4" d="M20.53,24.73l-.41-1.24h-2.49l-.42,1.24h-1.42l2.54-7h1.07l2.55,7h-1.42ZM18.9,19.8l-.88,2.55h1.74l-.85-2.55Z"/>
          <path class="cls-4" d="M24.75,24.79c-1.02,0-2.29-.55-2.29-2.62s1.27-2.61,2.29-2.61c.71,0,1.24.22,1.69.69l-.86.86c-.27-.29-.49-.4-.83-.4-.3,0-.54.11-.73.33-.2.25-.29.59-.29,1.13s.09.89.29,1.14c.19.23.42.33.73.33.33,0,.56-.12.83-.4l.86.85c-.45.47-.98.7-1.69.7Z"/>
          <path class="cls-4" d="M29.32,24.79c-1.02,0-2.29-.55-2.29-2.62s1.27-2.61,2.29-2.61c.71,0,1.24.22,1.69.69l-.86.86c-.27-.29-.49-.4-.83-.4-.3,0-.54.11-.73.33-.2.25-.29.59-.29,1.13s.09.89.29,1.14c.19.23.42.33.73.33.33,0,.56-.12.83-.4l.86.85c-.45.47-.98.7-1.69.7Z"/>
          <path class="cls-4" d="M34.79,21.01c-.2-.2-.36-.3-.68-.3-.39,0-.83.29-.83.94v3.09h-1.28v-5.12h1.25v.49c.25-.29.74-.55,1.29-.55.5,0,.85.13,1.21.48l-.96.97Z"/>
          <path class="cls-4" d="M37.19,22.57c0,.67.39,1.14,1.12,1.14.56,0,.84-.17,1.16-.48l.78.76c-.52.53-1.02.81-1.95.81-1.21,0-2.37-.55-2.37-2.62,0-1.67.9-2.61,2.23-2.61,1.42,0,2.23,1.02,2.23,2.48v.54h-3.2ZM39.02,21.14c-.14-.3-.42-.53-.86-.53s-.72.23-.85.53c-.09.19-.11.32-.12.55h1.95c0-.23-.03-.36-.12-.55Z"/>
          <path class="cls-4" d="M44.4,24.73v-.48c-.35.39-.73.54-1.27.54-.51,0-.96-.17-1.25-.46-.49-.5-.53-1.3-.53-2.16s.04-1.65.53-2.15c.29-.29.73-.46,1.24-.46s.91.14,1.25.51v-2.33h1.28v7h-1.25ZM43.49,20.7c-.77,0-.86.64-.86,1.46s.1,1.47.86,1.47.88-.65.88-1.47-.11-1.46-.88-1.46Z"/>
          <path class="cls-4" d="M47.06,18.74v-1.04h1.31v1.04h-1.31ZM47.08,24.73v-4.97h1.28v4.97h-1.28Z"/>
          <path class="cls-4" d="M51.38,24.73c-1.04,0-1.48-.74-1.48-1.46v-2.54h-.54v-.97h.54v-1.51h1.28v1.51h.9v.97h-.9v2.46c0,.29.14.46.44.46h.46v1.08h-.7Z"/>
          <path class="cls-4" d="M54.2,22.57c0,.67.39,1.14,1.12,1.14.56,0,.83-.17,1.16-.48l.78.76c-.52.53-1.02.81-1.95.81-1.21,0-2.37-.55-2.37-2.62,0-1.67.9-2.61,2.23-2.61,1.42,0,2.23,1.02,2.23,2.48v.54h-3.2ZM56.02,21.14c-.14-.3-.42-.53-.85-.53s-.72.23-.86.53c-.09.19-.11.32-.12.55h1.95c0-.23-.03-.36-.12-.55Z"/>
          <path class="cls-4" d="M61.4,24.73v-.48c-.35.39-.73.54-1.27.54-.51,0-.96-.17-1.25-.46-.49-.5-.53-1.3-.53-2.16s.04-1.65.53-2.15c.29-.29.73-.46,1.24-.46s.91.14,1.25.51v-2.33h1.28v7h-1.25ZM60.5,20.7c-.77,0-.87.64-.87,1.46s.1,1.47.87,1.47.87-.65.87-1.47-.11-1.46-.87-1.46Z"/>
        </g>
        <g class="cls-10">
          <path class="cls-6" d="M78.48,4.63s.04-.03.06-.04c1.17-.67,2.34-1.34,3.51-2.01.05-.03.09-.01.13,0,1.66.97,3.33,1.93,4.99,2.9,1.87,1.09,3.74,2.17,5.6,3.26.04.02.07.03.12,0,.37-.21.74-.41,1.11-.61.06-.03.06-.05.03-.1-.45-.73-.96-1.41-1.53-2.04-1.52-1.67-3.34-2.9-5.44-3.71-1.35-.51-2.74-.81-4.18-.88-1.23-.07-2.45.03-3.66.29-1.37.29-2.68.77-3.9,1.46-2.09,1.16-3.77,2.76-5.05,4.78-.03.06-.03.08.03.11.36.22.72.45,1.08.68.06.04.1.03.16,0,1.06-.65,2.12-1.3,3.18-1.95.05-.03.09-.04.14,0,.07.05.15.09.22.13.58.35,1.17.69,1.75,1.04.04.03.06.05.05.1-.01.15-.02.29-.03.44,0,.21-.01.42.02.63.07.47.29.88.6,1.23.49.56,1.11.93,1.8,1.2.75.3,1.53.46,2.34.5.95.05,1.88-.07,2.76-.43.72-.3,1.35-.72,1.83-1.34.32-.41.53-.87.55-1.4.03-.64-.16-1.22-.53-1.74-.4-.56-.94-.95-1.56-1.23-.57-.26-1.17-.41-1.79-.48-.56-.06-1.11-.06-1.66,0-.38.04-.76.11-1.13.18-.04,0-.08,0-.11-.02-.49-.31-.98-.63-1.47-.94h0ZM93.22,17.48s0,.04,0,.05c0,1.38,0,2.77-.01,4.15,0,.06-.03.08-.07.11-1.62.94-3.24,1.89-4.85,2.83-1.9,1.11-3.81,2.22-5.71,3.33-.04.03-.07.05-.07.1,0,.42,0,.85,0,1.27,0,.07.02.08.08.08.3-.02.59-.03.89-.06.81-.08,1.61-.22,2.39-.45,3.05-.88,5.55-2.56,7.45-5.1,1.73-2.31,2.64-4.93,2.78-7.81.05-1.02-.02-2.03-.2-3.03-.26-1.45-.74-2.83-1.44-4.13-.03-.06-.05-.06-.11-.03-.36.2-.72.4-1.08.59-.06.03-.08.07-.08.14,0,1.3,0,2.61,0,3.91,0,.04,0,.08-.05.11-.73.38-1.45.76-2.18,1.14-.04.02-.08.02-.11,0-.13-.11-.27-.21-.4-.33-.35-.32-.78-.44-1.24-.48-.64-.05-1.24.12-1.8.42-.89.46-1.59,1.14-2.15,1.96-.72,1.05-1.17,2.2-1.27,3.47-.05.64,0,1.28.25,1.88.39.95,1.09,1.47,2.12,1.55.55.04,1.07-.08,1.57-.29.77-.33,1.41-.85,1.95-1.49.35-.41.66-.85.87-1.34.19-.43.33-.88.48-1.33.02-.06.05-.1.1-.13.38-.22.76-.44,1.14-.66.24-.14.48-.28.73-.42ZM71.03,15.63c0-2.02,0-4.05,0-6.07,0-.06-.02-.1-.07-.13-.35-.23-.7-.46-1.04-.69-.06-.04-.11-.03-.15.03-.94,1.76-1.48,3.63-1.63,5.61-.08,1.06-.03,2.12.13,3.17.19,1.21.52,2.39,1.03,3.5,1.54,3.39,4.02,5.81,7.44,7.27,1.02.44,2.09.73,3.18.9.54.08,1.09.13,1.64.16.06,0,.07-.02.07-.07,0-.42,0-.85,0-1.27,0-.07-.02-.11-.08-.14-.91-.53-1.82-1.06-2.73-1.59-.04-.02-.06-.04-.06-.1,0-1.07,0-2.15,0-3.22,0-.04.01-.06.05-.08.13-.05.26-.12.38-.19.6-.39.93-.97,1.1-1.64.19-.75.16-1.5,0-2.24-.36-1.54-1.13-2.82-2.34-3.83-.66-.55-1.4-.94-2.27-1.05-.57-.07-1.12.02-1.62.33-.63.39-.98.98-1.16,1.68-.18.74-.15,1.48,0,2.21.25,1.13.76,2.12,1.5,3.01.04.05.06.09.06.15,0,.77,0,1.53,0,2.3q0,.1-.08.05c-1.09-.62-2.18-1.25-3.27-1.87-.06-.03-.08-.07-.08-.14,0-2.02,0-4.04,0-6.05h0Z"/>
          <path class="cls-9" d="M71.03,15.63c0,2.02,0,4.04,0,6.05,0,.07.02.1.08.14,1.09.62,2.18,1.25,3.27,1.87.08.05.08.05.08-.05,0-.77,0-1.53,0-2.3,0-.06-.02-.11-.06-.15-.74-.88-1.25-1.88-1.5-3.01-.16-.74-.19-1.48,0-2.21.18-.7.52-1.29,1.16-1.68.5-.31,1.04-.4,1.62-.33.87.11,1.61.5,2.27,1.05,1.21,1.01,1.99,2.3,2.34,3.83.17.74.2,1.49,0,2.24-.17.68-.51,1.25-1.1,1.64-.12.08-.24.14-.38.2-.04.02-.05.04-.05.08,0,1.07,0,2.15,0,3.22,0,.05.02.07.06.1.91.53,1.82,1.06,2.73,1.59.06.04.09.07.08.14,0,.43,0,.85,0,1.27,0,.05,0,.08-.07.07-.55-.03-1.09-.08-1.64-.16-1.1-.17-2.16-.46-3.18-.9-3.42-1.46-5.9-3.89-7.44-7.28-.51-1.12-.84-2.29-1.03-3.51-.16-1.05-.21-2.11-.13-3.17.15-1.99.69-3.86,1.63-5.61.04-.07.08-.08.15-.03.35.23.69.46,1.04.69.05.03.07.07.07.13,0,2.02,0,4.05,0,6.07h0Z"/>
          <path class="cls-8" d="M93.22,17.48c-.25.15-.49.28-.73.42-.38.22-.76.44-1.14.66-.05.03-.08.07-.1.13-.15.45-.29.9-.48,1.33-.22.49-.53.93-.87,1.34-.54.64-1.18,1.16-1.96,1.49-.5.22-1.02.34-1.57.29-1.02-.08-1.73-.6-2.12-1.55-.24-.6-.3-1.24-.25-1.88.1-1.28.55-2.43,1.26-3.47.56-.82,1.26-1.5,2.15-1.96.56-.29,1.16-.46,1.8-.42.46.03.89.16,1.24.48.13.12.27.22.4.33.04.03.07.03.12,0,.73-.38,1.45-.76,2.18-1.14.06-.03.05-.07.05-.11,0-1.3,0-2.61,0-3.91,0-.07.02-.11.08-.14.36-.19.72-.39,1.08-.59.05-.03.08-.03.11.03.69,1.3,1.17,2.68,1.43,4.13.18,1,.25,2.01.2,3.03-.13,2.88-1.05,5.5-2.78,7.81-1.9,2.54-4.4,4.23-7.45,5.1-.78.22-1.58.37-2.39.45-.3.03-.59.04-.89.06-.06,0-.08,0-.08-.08,0-.42,0-.84,0-1.27,0-.06.02-.08.07-.1,1.9-1.11,3.81-2.22,5.71-3.33,1.62-.94,3.24-1.89,4.85-2.83.04-.03.07-.05.07-.11,0-1.38,0-2.77.01-4.15,0-.01,0-.02,0-.05Z"/>
          <path class="cls-3" d="M78.48,4.63c.5.32.99.63,1.47.95.03.02.07.03.11.02.38-.07.75-.14,1.13-.18.56-.06,1.11-.06,1.66,0,.62.07,1.22.22,1.8.48.62.28,1.16.67,1.56,1.23.37.52.55,1.1.53,1.74-.02.53-.23.99-.55,1.4-.48.62-1.11,1.05-1.83,1.34-.89.36-1.81.48-2.76.43-.81-.04-1.59-.2-2.34-.5-.68-.27-1.3-.64-1.8-1.2-.31-.36-.53-.76-.6-1.23-.03-.21-.03-.42-.02-.63,0-.15.02-.29.03-.44,0-.05,0-.07-.05-.1-.58-.34-1.17-.69-1.75-1.04-.07-.04-.15-.08-.22-.13-.05-.04-.09-.03-.14,0-1.06.65-2.12,1.3-3.18,1.95-.06.04-.1.04-.16,0-.36-.23-.72-.46-1.08-.68-.06-.03-.06-.06-.03-.11,1.28-2.02,2.96-3.62,5.05-4.78,1.23-.68,2.53-1.17,3.9-1.46,1.21-.26,2.43-.35,3.66-.29,1.44.08,2.84.37,4.18.88,2.11.81,3.93,2.04,5.44,3.71.57.63,1.08,1.32,1.53,2.04.03.05.03.07-.03.1-.37.2-.74.4-1.11.61-.05.03-.08.02-.12,0-1.87-1.09-3.74-2.17-5.6-3.26-1.66-.97-3.33-1.93-4.99-2.9-.04-.03-.08-.04-.13-.01-1.17.67-2.34,1.34-3.51,2.01-.02.01-.04.02-.06.04h0Z"/>
        </g>
        <path class="cls-7" d="M100.68,20.38v-10.07h6.9v1.7h-4.87v2.38h4.2v1.7h-4.2v4.28h-2.03Z"/>
        <g>
          <path class="cls-7" d="M117.57,20.38h-2.21l-.88-2.29h-4.02l-.83,2.29h-2.16l3.92-10.07h2.15l4.03,10.07ZM113.82,16.4l-1.39-3.74-1.36,3.74h2.75Z"/>
          <path class="cls-7" d="M118.65,10.31h4.02c.8,0,1.39.03,1.78.1s.74.21,1.05.42c.31.21.57.49.77.84s.31.74.31,1.18c0,.47-.13.9-.38,1.3-.25.39-.6.69-1.03.89.61.18,1.08.48,1.42.91.33.43.49.94.49,1.52,0,.46-.11.9-.32,1.34-.21.43-.5.78-.87,1.04-.37.26-.82.42-1.36.48-.34.04-1.16.06-2.45.07h-3.43v-10.07ZM120.69,11.99v2.33h1.33c.79,0,1.28-.01,1.48-.03.35-.04.62-.16.82-.36s.3-.46.3-.79-.09-.56-.26-.76-.43-.31-.77-.35c-.2-.02-.78-.03-1.74-.03h-1.17ZM120.69,15.99v2.69h1.88c.73,0,1.2-.02,1.39-.06.3-.06.55-.19.74-.4.19-.21.29-.5.29-.85,0-.3-.07-.56-.22-.77-.15-.21-.36-.36-.64-.46s-.88-.14-1.8-.14h-1.64Z"/>
        </g>
        <g>
          <path class="cls-7" d="M128.81,20.38v-10.07h1.33v8.88h4.96v1.19h-6.29Z"/>
          <path class="cls-7" d="M135.58,20.38l3.87-10.07h1.44l4.12,10.07h-1.52l-1.17-3.05h-4.21l-1.11,3.05h-1.42ZM138.48,16.25h3.41l-1.05-2.79c-.32-.85-.56-1.54-.71-2.09-.13.65-.31,1.29-.54,1.92l-1.11,2.95Z"/>
          <path class="cls-7" d="M146.01,20.38v-10.07h3.78c.77,0,1.39.1,1.85.31s.83.52,1.09.94.39.87.39,1.33c0,.43-.12.84-.35,1.22-.23.38-.59.69-1.06.92.61.18,1.08.48,1.4.91.33.43.49.94.49,1.52,0,.47-.1.91-.3,1.31s-.45.72-.74.94c-.29.22-.66.39-1.1.5-.44.11-.98.17-1.62.17h-3.84ZM147.34,14.54h2.18c.59,0,1.01-.04,1.27-.12.34-.1.59-.27.77-.5s.26-.53.26-.88c0-.33-.08-.63-.24-.88-.16-.25-.39-.43-.69-.52-.3-.09-.81-.14-1.53-.14h-2.01v3.04ZM147.34,19.19h2.51c.43,0,.73-.02.91-.05.31-.06.56-.15.77-.27.21-.13.38-.31.51-.56s.2-.53.2-.85c0-.38-.1-.7-.29-.98s-.46-.47-.8-.58c-.34-.11-.83-.17-1.47-.17h-2.33v3.46Z"/>
        </g>
      </g>
      <line class="cls-2" y1="36.85" x2="156.76" y2="36.85"/>
    </g>
  </g>
</svg>